<svg width="343" height="334" viewBox="0 0 343 334" fill="none" xmlns="http://www.w3.org/2000/svg">
<g clip-path="url(#clip0_242_1487)">
<path d="M398.337 292.59C390.782 280.903 383.379 271.206 376.514 263.251C376.495 263.231 376.476 263.208 376.46 263.187C355.415 238.827 339.402 230.656 339.402 230.656L337.6 231.009C312.64 291.37 344.299 337.502 344.299 337.502C345.522 339.769 346.461 342.377 347.202 345.231C347.202 345.231 347.019 352.08 351.467 364.988C372.58 344.957 388.69 320.099 398.337 292.59Z" fill="#83D3FC"/>
<path d="M378.306 332.934C361.736 282.482 328.801 272.393 328.163 272.204C326.215 311.142 344.299 337.502 344.299 337.502C345.519 339.77 346.461 342.377 347.202 345.231C347.202 345.231 347.016 352.08 351.466 364.988C361.63 355.344 370.621 344.572 378.306 332.934Z" fill="#61B6FF"/>
<path d="M339.402 230.656L337.6 231.009C312.64 291.37 344.299 337.502 344.299 337.502C344.603 338.066 344.89 338.652 345.16 339.258C348.677 300.849 360.374 272.663 369.663 255.682C352.067 237.126 339.402 230.656 339.402 230.656Z" fill="#61B6FF"/>
<path d="M354.762 290.972C341.22 276.2 328.559 272.322 328.164 272.204C326.218 311.141 344.299 337.502 344.299 337.502C344.603 338.066 344.89 338.652 345.161 339.258C346.856 320.752 350.452 304.624 354.762 290.972Z" fill="#5294E5"/>
<path d="M119.965 273.7C119.965 273.7 99.2894 297.673 88.7881 353.302C108.113 375.13 132.423 392.063 159.543 402.636C158.784 389.004 156.027 382.731 156.027 382.731C155.635 379.809 155.523 377.039 155.796 374.479C155.796 374.479 167.684 319.804 121.767 273.347L119.965 273.7Z" fill="#83D3FC"/>
<path d="M122.501 383.041C134.035 390.939 146.458 397.534 159.543 402.636C158.785 389.004 156.028 382.731 156.028 382.731C155.636 379.809 155.523 377.039 155.796 374.479C155.796 374.479 162.579 343.244 146.067 307.926L146.002 307.927C146.005 307.927 118.775 329.6 122.501 383.041Z" fill="#61B6FF"/>
<path d="M119.965 273.7L121.767 273.347C167.684 319.804 155.795 374.479 155.795 374.479C155.727 375.116 155.683 375.766 155.661 376.43C137.895 342.196 116.416 320.517 101.401 308.304C110.683 284.476 119.965 273.7 119.965 273.7Z" fill="#61B6FF"/>
<path d="M128.482 335.29C137.644 346.311 147.086 359.906 155.661 376.43C155.682 375.766 155.727 375.116 155.795 374.479C155.795 374.479 162.579 343.244 146.067 307.927L146.004 307.927C146.004 307.927 135.549 316.25 128.482 335.29Z" fill="#5294E5"/>
<path d="M292.921 212.67C285.441 230.21 259.952 253.416 231.038 259.088C202.144 264.756 175.255 258.75 161.689 245.356L119.964 273.701C165.881 320.158 153.993 374.832 153.993 374.832C153.158 382.641 155.889 392.37 159.304 402.546C190.567 414.783 225.57 418.564 260.959 411.622C296.348 404.68 327.329 387.956 351.654 364.815C350.97 354.103 349.823 344.063 346.1 337.149C346.1 337.149 314.44 291.016 339.401 230.656L292.921 212.67Z" fill="#B9E9FD"/>
<path d="M223.591 261.276L253.341 412.938C255.879 412.55 258.417 412.121 260.959 411.622C264.463 410.935 267.918 410.141 271.335 409.266L241.567 257.515C238.223 258.501 234.776 259.355 231.227 260.052C228.662 260.555 226.118 260.956 223.591 261.276Z" fill="#E0F9FE"/>
<path d="M223.591 261.276L253.341 412.938C255.879 412.55 258.417 412.121 260.959 411.622C264.463 410.935 267.918 410.141 271.335 409.266L241.567 257.515C238.223 258.501 234.776 259.355 231.227 260.052C228.662 260.555 226.118 260.956 223.591 261.276Z" fill="#E0F9FE"/>
<path d="M284.87 201.255C274.946 198.203 254.631 194.383 223.579 199.848C222.239 200.087 220.9 200.332 219.568 200.593L219.565 200.594C218.229 200.856 216.894 201.135 215.563 201.42C184.367 208.175 166.855 219.6 158.894 226.151C158.643 226.372 156.305 228.503 155.479 232.027C177.242 241.847 202.144 245.267 227.358 240.321C252.482 235.392 274.182 222.891 290.598 205.67C288.338 202.609 285.216 201.383 284.87 201.255Z" fill="#61B6FF"/>
<path d="M227.711 242.126C251.374 237.484 273.77 225.654 287.697 208.642C243.52 205.862 199.374 214.521 159.524 233.785C179.841 244.079 204.051 246.767 227.711 242.126Z" fill="#5294E5"/>
<path d="M273.829 222.17C265.557 219.668 256.067 214.425 253.911 203.434L222.801 209.537L229.108 241.691C245.725 238.224 260.816 231.444 273.829 222.17Z" fill="#00C82F"/>
<path d="M227.687 242C228.165 241.906 228.632 241.791 229.106 241.692L222.798 209.538L191.688 215.64C193.97 227.274 186.211 236.049 179.149 241.438C194.659 244.864 211.102 245.253 227.687 242Z" fill="#04AD24"/>
<path d="M290.598 205.67C274.18 222.888 252.482 235.395 227.357 240.324C202.144 245.269 177.243 241.844 155.48 232.023C154.951 234.289 155.044 237.128 156.722 240.411C167.295 258.414 198.016 267.436 231.394 260.889C265.336 254.231 290.65 233.706 292.924 212.669C292.861 209.667 291.867 207.385 290.598 205.67Z" fill="#83D3FC"/>
<path d="M264.044 233.727C263.443 230.661 264.283 227.646 266.086 225.376C254.474 232.406 241.454 237.556 227.358 240.321C202.145 245.267 177.244 241.844 155.481 232.024C154.949 234.29 155.045 237.128 156.723 240.411C167.296 258.414 198.014 267.437 231.392 260.889C248.472 257.539 263.363 250.677 274.236 242.004C269.375 242.07 265.013 238.666 264.044 233.727Z" fill="#61B6FF"/>
<path d="M282.558 97.9914C282.552 97.9896 282.549 97.9902 282.543 97.9885C281.466 97.7216 280.644 96.8612 280.322 95.7986C267.951 54.7895 228.805 28.6493 189.006 36.4562C149.256 44.2535 122.903 83.1618 126.864 125.746C126.966 126.858 126.503 127.95 125.613 128.623C125.536 128.683 125.459 128.743 125.378 128.8C119.452 133.081 116.197 140.574 117.69 148.184L120.849 164.289C122.322 171.802 128.035 177.458 135.01 179.268C138.039 180.052 140.704 181.873 142.472 184.451C145.901 189.454 149.865 194.023 154.27 198.086C167.765 210.541 180.642 223.652 192.466 237.706L197.308 243.462C215.547 265.147 250.521 258.286 259.217 231.318L261.802 223.3C267.346 206.112 274.253 189.418 281.915 173.065C284.461 167.632 286.41 161.898 287.698 155.961C288.358 152.906 290.141 150.216 292.647 148.346C298.424 144.035 301.574 136.64 300.101 129.13L296.942 113.025C295.452 105.432 289.636 99.7362 282.558 97.9914Z" fill="#A2EC00"/>
<path d="M196.057 35.4265C193.714 35.6545 191.36 35.9945 189.006 36.4562C149.256 44.2535 122.903 83.1618 126.864 125.746C126.966 126.858 126.503 127.95 125.613 128.623C125.536 128.683 125.459 128.743 125.378 128.8C119.452 133.081 116.197 140.574 117.69 148.184L120.849 164.289C122.322 171.802 128.035 177.458 135.01 179.268C138.039 180.052 140.704 181.873 142.472 184.451C145.901 189.454 149.865 194.023 154.27 198.086C167.765 210.541 180.642 223.652 192.466 237.706L197.308 243.462C207.374 255.429 222.536 258.698 235.567 254.695C214.581 253.742 218.644 236.705 202.671 217.085C189.963 201.476 191.785 187.778 193.159 182.599C193.455 181.486 192.976 180.348 192.039 179.673C191.009 178.934 190.723 177.84 190.688 176.962C190.653 176.072 190.185 175.246 189.423 174.784C185.042 172.136 184.608 167.846 184.784 165.355C184.865 164.205 184.207 163.137 183.146 162.68C173.073 158.339 173.261 147.806 173.633 144.252C173.713 143.482 173.441 142.728 172.924 142.155C166.319 134.841 173.447 129.317 173.447 129.317C179.145 123.661 172.447 117.387 172.447 117.387C142.474 59.7329 196.057 35.4265 196.057 35.4265Z" fill="#00C82F"/>
<path d="M235.523 207.243C235.497 207.248 232.786 207.721 230.22 206.876C228.959 206.458 227.574 206.649 226.472 207.391L223.849 209.159L220.75 208.514C219.449 208.243 218.095 208.589 217.082 209.453C215.052 211.185 212.397 211.777 212.289 211.801C209.975 212.27 208.468 214.52 208.923 216.842C209.381 219.173 211.639 220.693 213.97 220.236C214.387 220.154 217.627 219.468 220.884 217.326L223.869 217.949C225.014 218.188 226.184 217.958 227.149 217.306L229.678 215.601C233.502 216.354 236.761 215.765 237.178 215.683C239.509 215.226 241.026 212.965 240.569 210.634C240.112 208.306 237.851 206.787 235.523 207.243Z" fill="#00C82F"/>
<path d="M263.666 111.733C253.399 105.891 237.72 114.081 228.644 130.025C219.568 145.969 220.535 163.632 230.8 169.477C241.066 175.319 256.745 167.129 265.821 151.185C274.897 135.241 273.933 117.577 263.666 111.733Z" fill="#D7F9B7"/>
<path d="M262.963 146.762C260.577 134.602 248.785 126.674 236.619 129.061C232.864 129.797 229.513 131.432 226.744 133.697C219.776 148.593 221.316 164.073 230.798 169.472C240.035 174.728 253.654 168.62 262.901 155.729C263.508 152.859 263.563 149.822 262.963 146.762Z" fill="#4374D3"/>
<path d="M189.506 137.69C175.079 126.357 157.466 124.697 150.17 133.987C142.871 143.274 148.651 159.993 163.078 171.327C177.506 182.664 195.116 184.32 202.415 175.033C209.711 165.743 203.934 149.027 189.506 137.69Z" fill="#D7F9B7"/>
<path d="M192.88 180.593C192.673 180.238 192.389 179.923 192.04 179.673C191.01 178.934 190.724 177.84 190.688 176.96C190.653 176.069 190.185 175.244 189.423 174.781C185.043 172.133 184.608 167.843 184.785 165.353C184.865 164.202 184.208 163.137 183.147 162.68C173.073 158.339 173.261 147.803 173.633 144.25C173.714 143.482 173.441 142.725 172.925 142.152C166.319 134.838 173.448 129.317 173.448 129.317C163.82 126.579 154.866 128.017 150.174 133.989C142.875 143.277 148.656 159.995 163.082 171.329C172.967 179.099 184.344 182.32 192.88 180.593Z" fill="#8FE98A"/>
<path d="M164.059 166.163C161.674 154.003 169.597 142.208 181.764 139.821C185.519 139.085 189.235 139.333 192.655 140.385C204.737 151.543 209.159 166.458 202.417 175.039C195.85 183.396 180.936 182.885 167.504 174.442C165.854 172.015 164.659 169.223 164.059 166.163Z" fill="#4374D3"/>
<path d="M192.876 180.59C192.671 180.238 192.386 179.923 192.04 179.673C191.01 178.934 190.724 177.84 190.688 176.959C190.653 176.069 190.185 175.243 189.423 174.781C185.043 172.133 184.608 167.843 184.785 165.352C184.865 164.202 184.208 163.137 183.147 162.68C173.074 158.339 173.261 147.803 173.633 144.249C173.672 143.9 173.631 143.558 173.531 143.23C166.282 148.124 162.269 157.04 164.059 166.163C164.66 169.226 165.854 172.015 167.504 174.442C176.237 179.931 185.592 182.064 192.876 180.59Z" fill="#3957C9"/>
<path d="M193.208 168.853C193.943 172.602 191.502 176.238 187.753 176.974C184.001 177.71 180.367 175.265 179.632 171.516C178.896 167.767 181.337 164.131 185.089 163.395C188.839 162.659 192.472 165.104 193.208 168.853Z" fill="#61B6FF"/>
<path d="M171.972 86.0753C172.708 89.8247 170.264 93.4611 166.515 94.1966C162.765 94.932 159.129 92.4883 158.393 88.7389C157.658 84.9896 160.102 81.3531 163.851 80.6176C167.6 79.8822 171.237 82.3259 171.972 86.0753Z" fill="#00C82F"/>
<path d="M194.421 75.8387C195.157 79.5881 192.713 83.2245 188.964 83.96C185.214 84.6955 181.578 82.2517 180.843 78.5024C180.107 74.753 182.551 71.1165 186.3 70.3811C190.05 69.6456 193.686 72.0894 194.421 75.8387Z" fill="#00C82F"/>
<path d="M174.249 108.129C174.984 111.879 172.54 115.515 168.791 116.251C165.042 116.986 161.405 114.542 160.67 110.793C159.934 107.044 162.378 103.407 166.127 102.672C169.877 101.936 173.513 104.38 174.249 108.129Z" fill="#00C82F"/>
<path d="M175.801 67.1391C177.09 73.7083 172.809 80.0781 166.24 81.3667C159.671 82.6553 153.301 78.3747 152.012 71.8055C150.724 65.2362 155.004 58.8636 161.573 57.575C168.142 56.2864 174.513 60.5698 175.801 67.1391Z" fill="#00C82F"/>
<path d="M230.801 169.471C237.2 173.113 245.706 171.296 253.402 165.548C249.689 166.274 249.908 162.135 249.908 162.135L242.445 152.144C227.622 150.023 226.745 133.697 226.745 133.697C219.776 148.592 221.316 164.073 230.801 169.471Z" fill="#3957C9"/>
<path d="M250.567 157.601C251.302 161.351 248.859 164.987 245.109 165.723C241.36 166.458 237.724 164.014 236.988 160.265C236.253 156.516 238.696 152.879 242.446 152.144C246.195 151.408 249.832 153.852 250.567 157.601Z" fill="#61B6FF"/>
<path d="M289.496 302.042C284.958 302.933 280.393 299.994 279.471 295.298C278.416 289.915 282.617 285.094 287.876 285.12C292.01 285.149 295.456 288.046 296.233 292.01C297.149 296.692 294.052 301.149 289.496 302.042Z" fill="#FACE7A"/>
<path d="M294.899 329.581C290.38 330.467 285.8 327.555 284.874 322.836C283.825 317.488 287.992 312.629 293.278 312.658C297.397 312.684 300.857 315.576 301.636 319.548C302.543 324.187 299.492 328.68 294.899 329.581Z" fill="#F948B4"/>
<path d="M226.25 407.67L200.384 412.744C194.853 413.829 189.441 410.189 188.356 404.658L171.424 318.343C170.339 312.812 173.976 307.397 179.507 306.312L205.372 301.238C210.903 300.153 216.315 303.793 217.4 309.324L234.332 395.64C235.417 401.171 231.781 406.585 226.25 407.67Z" fill="#61B6FF"/>
<path d="M205.372 301.238L179.507 306.312C173.976 307.397 170.339 312.812 171.424 318.343L175 336.572C176.085 342.103 181.497 345.743 187.029 344.658L212.894 339.584C218.425 338.499 222.061 333.084 220.976 327.553L217.4 309.324C216.315 303.793 210.903 300.153 205.372 301.238Z" fill="#83D3FC"/>
</g>
<defs>
<clipPath id="clip0_242_1487">
<rect width="382" height="382" fill="white" transform="translate(0 73.5315) rotate(-11.0982)"/>
</clipPath>
</defs>
</svg>
