<svg width="121" height="121" viewBox="0 0 121 121" fill="none" xmlns="http://www.w3.org/2000/svg">
<g clip-path="url(#clip0_1_395)">
<path d="M60.5173 8.15942C42.9062 8.15942 28.6295 22.4352 28.6295 40.0463V112.5C37.7482 118.596 48.7079 120.149 60.4999 120.149C72.3065 120.149 83.28 118.61 92.405 112.5V40.0463C92.405 22.4352 78.1283 8.15942 60.5173 8.15942Z" fill="#A2EC00"/>
<path d="M51.2156 109.24V40.0463C51.2156 24.7909 58.1351 12.0403 67.3792 8.90192C65.1691 8.41669 62.8739 8.15942 60.5173 8.15942C42.9063 8.15942 28.6295 22.4352 28.6295 40.0463V112.5C36.0682 117.473 44.7327 118.751 54.0738 119.792C52.2556 116.688 51.2156 113.073 51.2156 109.24Z" fill="#51DA18"/>
<path d="M102.19 4.5549C93.5101 -2.35914 79.4668 -1.47383 72.6562 9.62874C71.9797 10.731 71.9339 12.0723 72.5326 13.2158C73.9187 15.8626 77.7566 15.7994 79.0384 13.0253C82.7911 4.9083 92.687 1.80192 100.366 6.22848C100.731 5.47409 101.373 4.86527 102.19 4.5549Z" fill="#D7F9B7"/>
<path d="M69.1242 30.5596C69.0985 30.5623 69.0738 30.5651 69.0482 30.5651H51.9874C51.9608 30.5651 51.9361 30.5623 51.9114 30.5596C50.6956 32.278 49.9787 34.3736 49.9787 36.6387C49.9787 42.4596 54.6973 47.1782 60.5173 47.1782C66.3382 47.1782 71.0568 42.4596 71.0568 36.6387C71.0568 34.3736 70.34 32.278 69.1242 30.5596Z" fill="#E0F9FE"/>
<path d="M41.6868 90.825C41.4853 91.3276 41.3132 91.8622 41.1786 92.4235C40.2952 96.0956 41.3096 99.4886 43.4427 100.001C45.5768 100.515 48.0222 97.9541 48.9057 94.282C49.0403 93.7198 49.1309 93.165 49.1794 92.6267C46.6269 92.1717 44.1266 91.5684 41.6868 90.825Z" fill="#E0F9FE"/>
<path d="M44.87 92.4235C44.925 92.1946 44.9872 91.9703 45.055 91.7496C43.9197 91.4704 42.7964 91.1628 41.6868 90.825C41.4853 91.3267 41.3132 91.8622 41.1786 92.4235C40.2952 96.0956 41.3096 99.4886 43.4427 100.001C44.2695 100.2 45.142 99.9363 45.9531 99.3265C44.6613 98.0594 44.1706 95.3303 44.87 92.4235Z" fill="#B9E9FD"/>
<path d="M79.3487 90.825C76.9089 91.5684 74.4076 92.1717 71.8552 92.6267C71.9046 93.165 71.9943 93.7198 72.1298 94.282C73.0124 97.9541 75.4578 100.515 77.5918 100.001C79.7259 99.4886 80.7394 96.0956 79.8569 92.4235C79.7223 91.8622 79.5502 91.3276 79.3487 90.825Z" fill="#E0F9FE"/>
<path d="M75.3955 92.7971C75.3259 92.5068 75.2682 92.2175 75.2225 91.9319C74.1101 92.1919 72.9886 92.4244 71.8552 92.6268C71.9046 93.1651 71.9943 93.7199 72.1298 94.282C73.0124 97.9542 75.4578 100.515 77.5918 100.001C78.3645 99.8155 78.9899 99.2506 79.4321 98.433C77.7292 97.8562 76.0858 95.6654 75.3955 92.7971Z" fill="#B9E9FD"/>
<path d="M39.7705 91.1215C38.6764 90.7434 38.096 89.5505 38.4741 88.4564C38.8522 87.3633 40.0452 86.7828 41.1383 87.161C53.4475 91.4127 67.0879 91.5857 79.8962 87.161C80.9893 86.7828 82.1831 87.3633 82.5612 88.4564C82.9384 89.5505 82.358 90.7434 81.2649 91.1215C68.0602 95.6827 53.4558 95.8493 39.7705 91.1215Z" fill="#00C82F"/>
<path d="M34.5731 73.6049C33.3683 71.8956 31.0007 71.523 29.3327 72.7635C24.0904 76.6609 12.3286 76.2462 9.02081 70.7713C7.55322 68.3433 7.78394 65.172 8.53924 62.2029C9.02539 60.2913 7.94965 58.3312 6.06733 57.7397C4.06049 57.1089 1.91999 58.2735 1.38441 60.3078C0.287613 64.4734 -0.275435 69.7166 2.67897 74.6046C8.40283 84.0748 25.0443 85.0096 33.5862 78.8325C35.2396 77.6378 35.7487 75.273 34.5731 73.6049Z" fill="#51DA18"/>
<path d="M106.424 6.76399C106.047 4.95309 104.274 3.79128 102.463 4.16848C100.653 4.54659 99.4912 6.31996 99.8684 8.12996C100.246 9.93995 102.019 11.1018 103.83 10.7246C105.64 10.3474 106.802 8.57399 106.424 6.76399Z" fill="#FC7ACD"/>
<path d="M106.421 6.76141C106.375 6.54077 106.307 6.32928 106.222 6.12878C106.186 7.10198 105.496 7.96258 104.5 8.1704C103.328 8.41393 102.18 7.66228 101.936 6.49041C101.729 5.49432 102.241 4.51746 103.119 4.09631C102.902 4.09814 102.681 4.12012 102.46 4.16681C100.649 4.54401 99.4875 6.31738 99.8657 8.12737C100.243 9.93828 102.016 11.1001 103.826 10.722C105.637 10.3457 106.798 8.5714 106.421 6.76141Z" fill="#F948B4"/>
<path d="M83.3624 3.11761C83.3624 2.15722 83.8201 1.3067 84.5269 0.763794C79.8971 1.94024 75.6006 4.82873 72.6562 9.62883C71.9797 10.7311 71.9339 12.0714 72.5326 13.2159C73.9187 15.8617 77.7566 15.7995 79.0384 13.0254C80.4895 9.88701 82.8598 7.50206 85.664 6.00792C84.3457 5.70488 83.3624 4.52752 83.3624 3.11761Z" fill="#8FE98A"/>
<path d="M18.8453 4.5549C27.5254 -2.35914 41.5677 -1.47383 48.3792 9.62874C49.0549 10.731 49.1016 12.0723 48.5019 13.2158C47.1167 15.8626 43.2779 15.7994 41.9962 13.0253C38.2434 4.9083 28.3475 1.80192 20.6681 6.22848C20.3037 5.47409 19.6628 4.86527 18.8453 4.5549Z" fill="#D7F9B7"/>
<path d="M21.1698 6.76229C20.7926 4.95138 19.0192 3.78958 17.2092 4.16769C15.3983 4.54488 14.2374 6.31826 14.6146 8.12825C14.9918 9.93824 16.7652 11.1 18.5752 10.7228C20.3852 10.3457 21.547 8.57228 21.1698 6.76229Z" fill="#FC7ACD"/>
<path d="M21.1698 6.76141C21.1231 6.54077 21.0563 6.32928 20.9711 6.12878C20.9354 7.10198 20.2451 7.96258 19.249 8.1704C18.0772 8.41393 16.9291 7.66228 16.6847 6.49041C16.4768 5.49432 16.9904 4.51746 17.8675 4.09631C17.6505 4.09814 17.4299 4.12012 17.2083 4.16681C15.3983 4.54401 14.2365 6.31738 14.6137 8.12737C14.9909 9.93828 16.7643 11.1001 18.5743 10.722C20.3852 10.3457 21.547 8.5714 21.1698 6.76141Z" fill="#F948B4"/>
<path d="M37.6722 3.11761C37.6722 2.15722 37.2144 1.3067 36.5077 0.763794C41.1384 1.94024 45.4349 4.82873 48.3793 9.62883C49.0558 10.7311 49.1016 12.0714 48.502 13.2159C47.1168 15.8617 43.2789 15.7995 41.9971 13.0254C40.546 9.88701 38.1748 7.50206 35.3715 6.00792C36.6889 5.70488 37.6722 4.52752 37.6722 3.11761Z" fill="#8FE98A"/>
<path d="M66.2787 45.4625C60.6418 44.2915 62.1451 39.1628 62.1451 39.1628L60.5173 34.0688C59.1175 31.9924 60.9723 30.88 60.9723 30.88L60.9833 30.5651H51.9874C51.9608 30.5651 51.9361 30.5623 51.9114 30.5596C50.6946 32.278 49.9787 34.3736 49.9787 36.6387C49.9787 42.4596 54.6964 47.1782 60.5173 47.1782C62.6441 47.1782 64.6225 46.5456 66.2787 45.4625Z" fill="#B9E9FD"/>
<path d="M63.3261 36.8766C63.3261 38.4275 62.0681 39.6855 60.5172 39.6855C58.9663 39.6855 57.7093 38.4275 57.7093 36.8766C57.7093 35.3257 58.9663 34.0687 60.5172 34.0687C62.0681 34.0687 63.3261 35.3257 63.3261 36.8766Z" fill="#61B6FF"/>
<path d="M69.6378 29.6101C67.4616 26.9954 64.1849 25.3309 60.5173 25.3309C56.8506 25.3309 53.573 26.9954 51.3968 29.6101C50.9775 30.1146 51.3309 30.8799 51.9873 30.8799H69.0482C69.7046 30.8799 70.058 30.1146 69.6378 29.6101Z" fill="#51DA18"/>
<path d="M59.6127 28.2533C59.6127 26.9871 60.3451 25.894 61.408 25.3676C61.1132 25.3456 60.8175 25.3309 60.5172 25.3309C56.8496 25.3309 53.573 26.9954 51.3968 29.6101C50.9765 30.1146 51.3309 30.8799 51.9873 30.8799H60.9713C60.1501 30.2958 59.6127 29.3382 59.6127 28.2533Z" fill="#00C82F"/>
<path d="M72.4439 60.2473C72.4091 60.2501 72.3743 60.2546 72.3377 60.2546H48.697C48.6612 60.2546 48.6265 60.2501 48.5917 60.2473C46.9071 62.6277 45.9138 65.5326 45.9138 68.6711C45.9138 76.7359 52.4515 83.2746 60.5173 83.2746C68.5831 83.2746 75.1218 76.7359 75.1218 68.6711C75.1218 65.5326 74.1284 62.6277 72.4439 60.2473Z" fill="#E0F9FE"/>
<path d="M68.5007 80.8969C60.6894 79.2746 62.7722 72.1683 62.7722 72.1683L60.5173 65.1087C58.5782 62.233 61.1472 60.6904 61.1472 60.6904L61.1627 60.2546H48.697C48.6612 60.2546 48.6265 60.25 48.5917 60.2463C46.9071 62.6276 45.9138 65.5317 45.9138 68.6701C45.9138 76.7359 52.4515 83.2745 60.5173 83.2745C63.4644 83.2745 66.2064 82.3984 68.5007 80.8969Z" fill="#B9E9FD"/>
<path d="M64.4092 69.0007C64.4092 71.1494 62.6669 72.8916 60.5173 72.8916C58.3685 72.8916 56.6263 71.1494 56.6263 69.0007C56.6263 66.851 58.3685 65.1088 60.5173 65.1088C62.6669 65.1088 64.4092 66.851 64.4092 69.0007Z" fill="#61B6FF"/>
<path d="M73.1552 58.9308C70.1404 55.3081 65.5994 53.001 60.5173 53.001C55.4361 53.001 50.8951 55.3081 47.8794 58.9308C47.298 59.6294 47.7878 60.6905 48.6969 60.6905H72.3376C73.2477 60.6905 73.7375 59.6294 73.1552 58.9308Z" fill="#51DA18"/>
<path d="M59.2639 57.0513C59.2639 55.2962 60.2783 53.7819 61.7514 53.0522C61.3431 53.022 60.9329 53.001 60.5173 53.001C55.4352 53.001 50.8942 55.3081 47.8793 58.9308C47.2971 59.6294 47.7878 60.6905 48.6969 60.6905H61.1471C60.0082 59.8812 59.2639 58.5546 59.2639 57.0513Z" fill="#00C82F"/>
<path d="M34.5731 73.6048C33.3683 71.8955 31.0007 71.5229 29.3326 72.7634C25.7126 75.4551 18.9872 76.0886 14.08 74.4223C17.3136 76.6278 15.4981 81.7493 11.5568 81.3593C18.784 83.888 27.9484 82.9102 33.5862 78.8333C35.2396 77.6377 35.7486 75.2729 34.5731 73.6048Z" fill="#00C82F"/>
<path d="M86.4267 73.6049C87.6315 71.8956 89.999 71.523 91.6671 72.7635C96.9094 76.6609 108.671 76.2462 111.979 70.7713C113.447 68.3433 113.216 65.172 112.461 62.2029C111.974 60.2913 113.05 58.3312 114.932 57.7397C116.94 57.1089 119.08 58.2735 119.615 60.3078C120.712 64.4734 121.275 69.7166 118.321 74.6046C112.597 84.0748 95.9554 85.0096 87.4145 78.8325C85.7602 77.6378 85.2511 75.273 86.4267 73.6049Z" fill="#51DA18"/>
<path d="M86.4266 73.6048C87.6315 71.8955 89.999 71.5229 91.6671 72.7634C95.2871 75.4551 102.013 76.0886 106.92 74.4223C103.686 76.6278 105.502 81.7493 109.443 81.3593C102.216 83.888 93.0514 82.9102 87.4136 78.8333C85.7601 77.6377 85.2511 75.2729 86.4266 73.6048Z" fill="#00C82F"/>
</g>
<defs>
<clipPath id="clip0_1_395">
<rect width="120" height="120" fill="white" transform="translate(0.5 0.149414)"/>
</clipPath>
</defs>
</svg>
