<svg width="101" height="101" viewBox="0 0 101 101" fill="none" xmlns="http://www.w3.org/2000/svg">
<g clip-path="url(#clip0_1_532)">
<path d="M91.5286 72.9491C94.5247 66.6968 96.2031 59.6938 96.2031 52.2979C96.2031 25.8704 74.7798 4.44629 48.3516 4.44629C21.9241 4.44629 0.5 25.8704 0.5 52.2979C0.5 56.9937 1.17978 61.5302 2.44016 65.8171L91.5286 72.9491Z" fill="#162680"/>
<path d="M2.52255 65.2815C2.45465 65.3273 2.38904 65.3738 2.3219 65.4196C8.0264 85.4681 26.4743 100.149 48.3516 100.149C67.5334 100.149 84.0762 88.8617 91.7071 72.5668C67.9179 49.9464 30.8009 46.1012 2.52255 65.2815Z" fill="#A2EC00"/>
<path d="M48.3515 100.149C67.5311 100.149 84.0724 88.864 91.704 72.5722C89.6296 70.6008 87.456 68.7705 85.1939 67.0859C83.61 70.5504 82.7616 74.3087 82.7014 78.1074C82.6388 82.1174 80.6719 85.8573 77.3524 88.1087C74.0298 90.3625 69.8252 90.8019 66.0723 89.3775C57.9997 86.3135 48.6125 87.0971 40.9236 92.3125C38.4806 93.9696 36.3917 95.9518 34.6713 98.1612C39.0063 99.4529 43.5977 100.149 48.3515 100.149Z" fill="#D7F9B7"/>
<path d="M2.32111 65.4173C4.56491 73.3054 8.7832 80.3625 14.4061 86.022C17.2869 83.116 19.121 79.4844 19.7375 75.6132C20.2662 72.2937 22.1079 69.3014 24.9323 67.3857C28.2542 65.1327 32.4587 64.6933 36.2116 66.1177C44.2843 69.1817 53.6715 68.3974 61.3604 63.1827C63.753 61.5599 65.8061 59.6251 67.5059 57.4705C44.9442 49.0805 20.8216 52.8021 2.32111 65.4173Z" fill="#48D85C"/>
<path d="M12.1348 11.1898H8.70847C7.23523 11.1898 6.02979 9.98441 6.02979 8.51117V5.78366C6.02979 4.31043 7.23523 3.10498 8.70847 3.10498H12.1348C13.6081 3.10498 14.8135 4.31043 14.8135 5.78366V8.51117C14.8135 9.98441 13.6081 11.1898 12.1348 11.1898Z" fill="#FC9949"/>
<path d="M11.6892 0.149414H8.51312C7.14746 0.149414 6.03052 1.26712 6.03052 2.63278V3.78482C6.03052 5.15048 7.14746 6.26819 8.51312 6.26819H11.6892C13.0549 6.26819 14.1726 5.15048 14.1726 3.78482V2.63278C14.1726 1.26712 13.0549 0.149414 11.6892 0.149414Z" fill="#FBB362"/>
<path d="M14.0574 2.62976C12.9313 2.62976 12.0104 3.55063 12.0104 4.67673V6.28653C12.0104 6.28653 10.1016 7.52859 10.1016 10.427H14.4946C14.4946 10.427 16.1044 8.28772 16.1044 6.28653V4.67673C16.1044 3.55063 15.1835 2.62976 14.0574 2.62976Z" fill="#FACE7A"/>
<path d="M66.3318 56.0371L65.6489 59.394C65.356 60.8375 66.2967 62.2588 67.7409 62.5526L70.4127 63.0958C71.857 63.3895 73.2783 62.448 73.5721 61.0046L74.2541 57.6476C74.5479 56.2034 73.6064 54.782 72.1629 54.489L69.4903 53.9451C68.0468 53.6521 66.6247 54.5928 66.3318 56.0371Z" fill="#FC9949"/>
<path d="M48.1806 18.1593C28.2275 18.1593 33.9953 18.1593 21.2275 18.1593C19.2393 18.1593 17.6135 19.7851 17.6135 21.7726V34.9684C17.8393 34.9341 18.0705 34.9165 18.3062 34.9165H51.1019C51.3377 34.9165 51.5688 34.9341 51.7947 34.9684V21.7726C51.7947 19.7859 50.1689 18.1593 48.1806 18.1593Z" fill="#FACE7A"/>
<path d="M48.8741 28.7253C46.8318 28.7253 45.1762 27.0697 45.1762 25.028C45.1762 24.803 45.1998 24.5833 45.2387 24.3696H24.1549C23.6819 25.868 22.2827 26.9545 20.6278 26.9545C19.3827 26.9545 18.2833 26.3372 17.6135 25.3935V34.9684C17.8393 34.9341 18.0705 34.9165 18.3062 34.9165H51.1019C51.3377 34.9165 51.5688 34.9341 51.7947 34.9684V27.2894C51.1187 28.1614 50.0628 28.7253 48.8741 28.7253Z" fill="#FBB362"/>
<path d="M22.9128 67.9648V92.8313C24.5776 93.878 26.311 94.8248 28.1054 95.6641H32.1276V68.6301C32.1276 67.3018 33.079 66.1269 34.3951 65.9438C35.95 65.7263 37.2805 66.9279 37.2805 68.4401V95.6641H46.4953V30.6982C41.0441 30.6982 28.4037 30.6982 22.9136 30.6982V67.9648H22.9128Z" fill="#E0F9FE"/>
<path d="M22.9128 30.6982V92.8313C24.5776 93.878 26.311 94.8248 28.1054 95.6633H32.1276V68.6301C32.1276 67.3018 33.0798 66.1269 34.3951 65.9438C34.775 65.8904 35.1405 65.9232 35.4777 66.0231C33.5345 63.9151 34.4416 60.9244 34.4416 60.9244L31.4257 56.7946V33.1931C31.4257 33.0031 31.3769 32.8162 31.2846 32.6506C30.8108 31.8037 30.826 31.1629 31.0114 30.6982C27.8292 30.6982 24.9018 30.6982 22.9128 30.6982Z" fill="#B9E9FD"/>
<path d="M46.4953 95.8144V95.6641H37.2805V98.8593C40.8343 99.7015 44.5406 100.149 48.3515 100.149C48.9924 100.149 49.6295 100.133 50.2642 100.108C49.7935 99.7656 49.2732 99.4643 48.7101 99.2041C47.3765 98.5869 46.4953 97.2838 46.4953 95.8144Z" fill="#83D3FC"/>
<path d="M32.1276 97.3265V95.6633H28.1054C29.4154 96.276 30.7566 96.8322 32.1276 97.3265Z" fill="#83D3FC"/>
<path d="M34.4821 5.02612C41.6842 5.02612 47.523 11.0785 47.523 18.5431C47.523 22.9918 45.4493 26.9385 42.2496 29.402C39.8074 29.9201 37.1959 30.2008 34.4821 30.2008C31.7675 30.2008 29.1568 29.9201 26.7146 29.402C23.5148 26.9385 21.4412 22.9918 21.4412 18.5431C21.4419 11.0785 27.2799 5.02612 34.4821 5.02612Z" fill="#E0F9FE"/>
<path d="M21.4419 18.5439C21.4419 22.9926 23.5156 26.9385 26.7146 29.402C28.226 29.7224 29.8022 29.9521 31.4265 30.081C31.4288 30.0787 31.4311 30.0757 31.4333 30.0734C31.6569 29.8537 31.7462 29.5432 31.721 29.2303C31.7088 29.0755 31.7538 28.9481 31.8224 28.8451C32.0071 28.5712 32.0262 28.2256 31.9354 27.9074C31.8469 27.5961 31.9132 27.3459 32.0254 27.1582C32.2344 26.808 32.2512 26.38 32.0559 26.0229C28.0612 18.7193 31.0435 13.867 32.3573 12.2542C32.6113 11.9421 32.6815 11.5172 32.532 11.1441C32.3847 10.7764 32.4977 10.4681 32.6624 10.2431C32.8837 9.94019 32.963 9.55109 32.8219 9.20395C31.6378 6.28265 34.4828 5.02686 34.4828 5.02686C27.2799 5.02609 21.4419 11.0785 21.4419 18.5439Z" fill="#B9E9FD"/>
<path d="M24.6096 13.584C24.8377 13.0583 25.2581 12.641 25.7823 12.4098C27.1388 11.8124 30.2088 10.7123 34.4317 10.7123C38.6553 10.7123 41.7254 11.8124 43.0819 12.4098C43.6061 12.641 44.0264 13.0583 44.2546 13.584C44.8794 15.0267 45.8773 18.2928 44.4354 22.2853C42.4784 27.7045 34.4325 27.838 34.4325 27.838C34.4325 27.838 26.3865 27.7045 24.4288 22.2853C22.9869 18.2928 23.9848 15.0267 24.6096 13.584Z" fill="#1D319B"/>
<path d="M31.9003 27.5335C31.9148 27.3886 31.9629 27.2635 32.0254 27.1582C32.2345 26.808 32.2512 26.38 32.0559 26.0222C28.0612 18.7193 31.0435 13.867 32.3573 12.2534C32.6114 11.9421 32.6815 11.5172 32.532 11.1441C32.4824 11.0205 32.4641 10.9045 32.4649 10.7954C29.2575 11.0602 26.9183 11.9101 25.783 12.4106C25.2581 12.641 24.8378 13.0583 24.6104 13.584C23.9848 15.0267 22.9869 18.2928 24.4288 22.286C25.6709 25.7254 29.3666 27.0346 31.9003 27.5335Z" fill="#162680"/>
<path d="M34.4172 28.7253C34.064 28.7192 25.7342 28.5132 23.5942 22.5874C22.0698 18.3676 23.0662 14.9145 23.7956 13.2315C24.1114 12.5014 24.6897 11.9215 25.4244 11.598C30.7826 9.23675 38.0747 9.2337 43.4397 11.598C44.1737 11.9215 44.752 12.5014 45.0686 13.2315C45.798 14.9145 46.7936 18.3676 45.27 22.5874C43.1292 28.5132 34.8002 28.7192 34.447 28.7253C34.434 28.7253 34.4302 28.7253 34.4172 28.7253ZM26.1401 13.2223C25.8158 13.365 25.5618 13.6191 25.4244 13.9365C24.7996 15.3784 23.9474 18.3409 25.2635 21.9839C26.9549 26.6669 34.0518 26.94 34.4317 26.9507C34.7994 26.9392 41.9131 26.6554 43.6007 21.9839C44.916 18.3409 44.0646 15.3784 43.4397 13.9365C43.3016 13.6191 43.0476 13.365 42.7241 13.2223C37.8192 11.0609 31.0488 11.0594 26.1401 13.2223Z" fill="#83D3FC"/>
<path d="M31.972 28.456C32.001 28.276 31.9865 28.0875 31.9354 27.9075C31.8461 27.5962 31.9132 27.3459 32.0254 27.1583C32.1131 27.0103 32.165 26.8485 32.1833 26.6837C29.8434 26.242 26.3789 25.0716 25.2635 21.984C23.9474 18.341 24.7996 15.3785 25.4237 13.9365C25.5618 13.6191 25.8158 13.3651 26.1401 13.2224C28.0795 12.3679 30.3096 11.8522 32.5999 11.6729C32.6205 11.4966 32.5999 11.3151 32.5312 11.1442C32.384 10.7757 32.4969 10.4682 32.6609 10.2431C32.7433 10.131 32.8051 10.0066 32.8448 9.87769C30.2218 10.0425 27.6553 10.6147 25.4244 11.5981C24.6897 11.9216 24.1114 12.5014 23.7956 13.2316C23.0662 14.9146 22.0698 18.3677 23.5942 22.5875C25.0285 26.5586 29.2414 27.9609 31.972 28.456Z" fill="#61B6FF"/>
<path d="M34.4821 33.0023C37.2469 33.0023 39.9722 32.7216 42.5814 32.1684C43.4443 31.9853 43.9951 31.1369 43.812 30.274C43.6297 29.4112 42.7805 28.8603 41.9184 29.0434C39.5266 29.5508 37.0249 29.8079 34.4821 29.8079C31.9392 29.8079 29.4375 29.5508 27.0457 29.0434C26.182 28.8603 25.3352 29.4112 25.1521 30.274C24.969 31.1369 25.5198 31.9853 26.3827 32.1684C28.9927 32.7216 31.7172 33.0023 34.4821 33.0023Z" fill="#83D3FC"/>
<path d="M26.3835 32.1684C28.0101 32.5133 29.6817 32.7521 31.38 32.8833C31.3563 32.8032 31.325 32.7246 31.2838 32.6506C30.5415 31.3223 31.0008 30.4976 31.4334 30.0734C31.5417 29.9673 31.6172 29.8399 31.6653 29.7011C30.0937 29.5821 28.5479 29.3623 27.0465 29.0434C26.1828 28.8603 25.3352 29.4112 25.1521 30.274C24.969 31.1369 25.5206 31.9853 26.3835 32.1684Z" fill="#61B6FF"/>
<path d="M32.1261 51.5197H30.0059C29.5672 51.5197 29.2109 51.1641 29.2109 50.7247C29.2109 50.286 29.5665 49.9297 30.0059 49.9297H32.1261C32.5648 49.9297 32.9211 50.286 32.9211 50.7247C32.9211 51.1641 32.5648 51.5197 32.1261 51.5197Z" fill="#83D3FC"/>
<path d="M40.6604 48.1673H28.7478C28.0299 48.1673 27.4424 47.5798 27.4424 46.8619V38.3208C27.4424 37.6028 28.0299 37.0154 28.7478 37.0154H40.6604C41.3783 37.0154 41.9658 37.6028 41.9658 38.3208V46.8619C41.9658 47.5798 41.3783 48.1673 40.6604 48.1673Z" fill="#1D319B"/>
<path d="M31.2297 46.8619V38.3208C31.2297 37.6028 31.8171 37.0154 32.5351 37.0154H28.7478C28.0299 37.0154 27.4424 37.6028 27.4424 38.3208V46.8619C27.4424 47.5798 28.0299 48.1673 28.7478 48.1673H32.5351C31.8171 48.1673 31.2297 47.5798 31.2297 46.8619Z" fill="#162680"/>
<path d="M40.6603 48.9256H28.7478C27.6095 48.9256 26.6833 48.0002 26.6833 46.8611V38.3207C26.6833 37.1824 27.6095 36.2562 28.7478 36.2562H40.6603C41.7986 36.2562 42.7249 37.1824 42.7249 38.3207V46.8611C42.7249 48.0002 41.7986 48.9256 40.6603 48.9256ZM28.7478 37.7745C28.4464 37.7745 28.2008 38.0194 28.2008 38.3207V46.8618C28.2008 47.1632 28.4464 47.4081 28.7478 47.4081H40.6603C40.9617 47.4081 41.2074 47.1632 41.2074 46.8618V38.3207C41.2074 38.0194 40.9617 37.7745 40.6603 37.7745H28.7478Z" fill="#61B6FF"/>
<path d="M31.4113 47.4081H28.7478C28.4465 47.4081 28.2008 47.1632 28.2008 46.8618V38.3207C28.2008 38.0194 28.4465 37.7745 28.7478 37.7745H31.4067C30.5224 36.8803 31.1023 36.3981 31.3342 36.2562H28.7471C27.6088 36.2562 26.6826 37.1824 26.6826 38.3207V46.8618C26.6826 48.0002 27.6088 48.9264 28.7471 48.9264H31.412C30.3103 48.0284 31.3243 47.4547 31.4113 47.4081Z" fill="#5294E5"/>
<path d="M41.0594 51.5196C40.6405 51.5196 40.3002 51.1801 40.3002 50.7605V48.8897C40.3002 48.4709 40.6397 48.1306 41.0594 48.1306C41.4782 48.1306 41.8185 48.4709 41.8185 48.8897V50.7605C41.8185 51.1801 41.479 51.5196 41.0594 51.5196Z" fill="#B9E9FD"/>
<path d="M38.2037 51.5196C37.7849 51.5196 37.4446 51.1801 37.4446 50.7605V48.8897C37.4446 48.4709 37.7841 48.1306 38.2037 48.1306C38.6233 48.1306 38.9628 48.4709 38.9628 48.8897V50.7605C38.9628 51.1801 38.6226 51.5196 38.2037 51.5196Z" fill="#B9E9FD"/>
<path d="M31.0664 41.941C30.5186 41.941 30.054 41.4954 30.054 40.9286C30.054 40.2785 30.6529 39.8139 31.2632 39.9367C31.7431 40.0344 32.078 40.4494 32.078 40.9286C32.078 41.4939 31.6157 41.941 31.0664 41.941Z" fill="#FACE7A"/>
<path d="M31.0664 45.2666C30.5209 45.2666 30.054 44.8234 30.054 44.2534C30.054 43.608 30.649 43.138 31.2632 43.2616C31.7416 43.3585 32.078 43.7743 32.078 44.2534C32.078 44.8134 31.6203 45.2666 31.0664 45.2666Z" fill="#FC7EA8"/>
<path d="M98.3058 33.3586H92.3594V36.5729C92.3594 38.555 90.7527 40.1618 88.7698 40.1618V40.1671C86.7511 40.1671 85.1214 41.8341 85.1824 43.8666C85.2412 45.8312 86.9555 47.3456 88.9201 47.3456H98.3058C99.5173 47.3456 100.5 46.3629 100.5 45.1514V35.5529C100.5 34.3405 99.5173 33.3586 98.3058 33.3586Z" fill="#F948B4"/>
<path d="M94.0386 45.1514V35.5521C94.0386 34.3406 95.0213 33.3579 96.2329 33.3579H92.3594V36.5729C92.3594 38.5551 90.7527 40.1618 88.7698 40.1618V40.1671C86.7511 40.1671 85.1214 41.8342 85.1824 43.8666C85.2412 45.8312 86.9548 47.3456 88.9201 47.3456H96.2329C95.0213 47.3456 94.0386 46.363 94.0386 45.1514Z" fill="#F6159C"/>
<path d="M88.7698 32.9833H85.1809V43.756C85.1809 41.7739 86.7877 40.1664 88.7698 40.1664V40.1618C90.7527 40.1618 92.3594 38.555 92.3594 36.5721C92.3594 34.59 90.7527 32.9833 88.7698 32.9833Z" fill="#F948B4"/>
<path d="M88.0404 18.9963H75.4107C75.4374 19.2695 75.4268 19.551 75.3718 19.8348L74.2167 32.9833H88.7698C90.7527 32.9833 92.3594 34.5901 92.3594 36.5729C92.3594 35.2813 92.3594 23.8997 92.3594 23.3153C92.3594 20.9296 90.4261 18.9963 88.0404 18.9963Z" fill="#FC7ACD"/>
<path d="M82.5625 28.6543L83.1302 21.6482C83.3613 20.4557 84.1472 19.4914 85.187 18.9955H75.4107C75.4374 19.2694 75.4275 19.5509 75.3718 19.8347L74.2167 32.9832H85.3312C83.4529 32.5255 82.175 30.6517 82.5625 28.6543Z" fill="#F948B4"/>
<path d="M74.1313 32.3051C73.1188 32.228 72.2346 32.9887 72.1583 34.0018L67.4792 96.1692C68.7884 95.5985 70.0671 94.9714 71.3114 94.2893L75.828 34.278C75.9043 33.2648 75.1452 32.3814 74.1313 32.3051Z" fill="#E0F9FE"/>
<path d="M73.0182 48.6006C72.2018 48.5334 71.5182 48.0566 71.1512 47.389L67.48 96.1691C68.7884 95.5977 70.0671 94.9713 71.3115 94.2892L74.7966 47.9887C74.3304 48.416 73.6972 48.6563 73.0182 48.6006Z" fill="#B9E9FD"/>
<path d="M73.9962 36.4401C73.9382 36.4401 73.8795 36.4378 73.8207 36.4332C72.5543 36.3379 71.6044 35.2339 71.6998 33.9674L72.9151 17.819C73.0105 16.5518 74.1183 15.6042 75.3817 15.6981C76.6482 15.7934 77.5973 16.8974 77.5027 18.1639L76.2866 34.3123C76.1958 35.5208 75.1879 36.4401 73.9962 36.4401Z" fill="#B9E9FD"/>
<path d="M74.6638 28.8473C74.6005 28.8473 74.5372 28.8443 74.4738 28.8397C73.3554 28.7558 72.4658 27.9455 72.2316 26.9056L71.6998 33.9674C71.6052 35.2339 72.5543 36.3379 73.8208 36.4332C73.8795 36.4378 73.9383 36.4401 73.9962 36.4401C75.188 36.4401 76.1966 35.5208 76.2874 34.3123L76.7886 27.651C76.3476 28.3735 75.5526 28.8473 74.6638 28.8473Z" fill="#83D3FC"/>
<path d="M46.4953 30.6982C46.4953 30.6982 54.0706 31.4108 55.6651 46.3766L56.2854 50.0418C56.2861 50.0464 56.2869 50.051 56.2877 50.0548C56.3922 50.6445 56.8484 51.1107 57.4244 51.2747L65.3254 53.5986L64.313 61.0052L55.1776 58.7935C52.3845 58.1282 50.0697 56.1125 49.1473 53.3934C49.1122 53.2896 49.0786 53.1859 49.0474 53.0814L46.4946 44.6219V30.6982H46.4953Z" fill="#E0F9FE"/>
<path d="M55.5316 45.2658C53.6898 31.378 46.4953 30.699 46.4953 30.699V44.6219L48.5766 51.5204C49.055 42.594 55.5132 45.2581 55.5316 45.2658Z" fill="#B9E9FD"/>
<path d="M14.1764 25.1608L14.223 10.7123H6.67139V28.9999C6.67139 31.0789 7.64413 33.0374 9.30048 34.294L22.9136 44.6219V30.699L15.3575 27.0491C14.6334 26.6989 14.1741 25.965 14.1764 25.1608Z" fill="#E0F9FE"/>
<path d="M14.1268 37.9561L22.9128 44.6219V30.699L15.3575 27.0491C15.3575 27.0491 19.3331 34.0735 14.1268 37.9561Z" fill="#B9E9FD"/>
<path d="M14.223 12.0924H6.67142C5.90924 12.0924 5.29126 11.4745 5.29126 10.7123C5.29126 9.9501 5.90924 9.33289 6.67142 9.33289H14.223C14.9852 9.33289 15.6024 9.9501 15.6024 10.7123C15.6024 11.4745 14.9852 12.0924 14.223 12.0924Z" fill="#83D3FC"/>
<path d="M9.01669 10.7123C9.01669 9.95013 9.63467 9.33215 10.3969 9.33215H6.67142C5.90924 9.33215 5.29126 9.95013 5.29126 10.7123C5.29126 11.4745 5.90924 12.0925 6.67142 12.0925H10.3969C9.63467 12.0925 9.01669 11.4745 9.01669 10.7123Z" fill="#61B6FF"/>
<path d="M46.4953 46.002C45.7332 46.002 45.1152 45.3841 45.1152 44.6219V30.6982C45.1152 29.9368 45.7332 29.3188 46.4953 29.3188C47.2575 29.3188 47.8755 29.9361 47.8755 30.6982V44.6219C47.8747 45.3841 47.2575 46.002 46.4953 46.002Z" fill="#83D3FC"/>
<path d="M22.9128 46.002C22.1507 46.002 21.5334 45.3841 21.5334 44.6219V30.699C21.5334 29.9368 22.1507 29.3188 22.9128 29.3188C23.6758 29.3188 24.293 29.9368 24.293 30.699V44.6219C24.293 45.3841 23.6758 46.002 22.9128 46.002Z" fill="#83D3FC"/>
<path d="M46.4953 37.66C45.7332 37.66 45.1152 37.0428 45.1152 36.2806V44.6219C45.1152 45.384 45.7332 46.002 46.4953 46.002C47.2575 46.002 47.8755 45.384 47.8755 44.6219V36.2806C47.8747 37.0428 47.2575 37.66 46.4953 37.66Z" fill="#61B6FF"/>
<path d="M22.9128 37.66C22.1507 37.66 21.5334 37.0428 21.5334 36.2806V44.6219C21.5334 45.384 22.1507 46.002 22.9128 46.002C23.6758 46.002 24.293 45.384 24.293 44.6219V36.2806C24.293 37.0428 23.6758 37.66 22.9128 37.66Z" fill="#61B6FF"/>
<path d="M46.3115 54.9926H23.0967C22.4139 54.9926 21.8547 55.551 21.8547 56.2339V58.1221C21.8547 58.805 22.4139 59.3634 23.0967 59.3634H46.3115C46.9943 59.3634 47.5535 58.805 47.5535 58.1221V56.2339C47.5535 55.551 46.9943 54.9926 46.3115 54.9926Z" fill="#83D3FC"/>
<path d="M40.3003 58.1221V56.2339C40.3003 55.551 40.8595 54.9926 41.5423 54.9926H23.0967C22.4139 54.9926 21.8547 55.551 21.8547 56.2339V58.1221C21.8547 58.805 22.4139 59.3634 23.0967 59.3634H41.5423C40.8595 59.3634 40.3003 58.805 40.3003 58.1221Z" fill="#61B6FF"/>
<path d="M77.0618 58.6729L76.4293 61.7849C76.1569 63.1231 74.8393 63.9959 73.5011 63.7236L70.663 63.1468C69.3248 62.8752 68.452 61.5576 68.7244 60.2186L69.3568 57.1066C69.6284 55.7684 70.946 54.8956 72.285 55.168L75.1231 55.7447C76.4613 56.0171 77.3341 57.3339 77.0618 58.6729Z" fill="#FBB362"/>
<path d="M75.1032 55.8577C74.8789 56.9617 73.7925 57.6803 72.6893 57.456L71.1115 57.1356C71.1115 57.1356 69.5139 58.7591 66.6735 58.1816L67.5494 53.8763C67.5494 53.8763 69.9664 52.7251 71.9271 53.1233L73.5049 53.4445C74.6081 53.6688 75.3275 54.7545 75.1032 55.8577Z" fill="#FACE7A"/>
<path d="M64.812 62.4091C64.5922 62.4617 64.3557 62.4602 64.1223 62.3953C63.3876 62.1909 62.958 61.4302 63.1633 60.6963L65.2323 53.2675C65.4368 52.5336 66.1982 52.104 66.9322 52.3085C67.6661 52.513 68.0957 53.2744 67.8912 54.0083L65.8221 61.4363C65.6825 61.9368 65.2842 62.2961 64.812 62.4091Z" fill="#83D3FC"/>
<path d="M66.0907 58.0694C65.8503 58.1266 65.5925 58.1259 65.3384 58.0549C64.7364 57.8871 64.3237 57.3774 64.2497 56.7946L63.1625 60.6955C62.958 61.4302 63.3876 62.1908 64.1215 62.3953C64.355 62.4609 64.5915 62.4617 64.812 62.409C65.2835 62.2961 65.6817 61.9368 65.8213 61.4363L66.9001 57.5636C66.6919 57.8154 66.4065 57.9939 66.0907 58.0694Z" fill="#61B6FF"/>
<path d="M65.3254 27.0217C63.8888 27.0217 62.6742 25.8536 62.6742 24.3705C62.6742 23.1391 63.5241 22.0336 64.8058 21.7696C66.4172 21.4469 67.9766 22.6775 67.9766 24.3705C67.9766 25.8277 66.7895 27.0217 65.3254 27.0217Z" fill="#4374D3"/>
<path d="M65.3254 9.79902C63.8888 9.79902 62.6742 8.63096 62.6742 7.1478C62.6742 5.91642 63.5241 4.81092 64.8058 4.54694C66.4172 4.22422 67.9766 5.45484 67.9766 7.1478C67.9766 8.60502 66.7895 9.79902 65.3254 9.79902Z" fill="#FADDA0"/>
<path d="M55.91 15.0053C54.7984 15.0053 53.9218 14.0982 53.9218 13.0164C53.9218 12.1039 54.5504 11.27 55.5232 11.0678C56.7278 10.8252 57.899 11.7476 57.899 13.0164C57.899 14.1295 56.9926 15.0053 55.91 15.0053Z" fill="#83D3FC"/>
<path d="M41.3142 16.4061C41.3142 17.5414 40.3941 18.4615 39.2589 18.4615C38.1236 18.4615 37.2035 17.5414 37.2035 16.4061C37.2035 15.2708 38.1236 14.35 39.2589 14.35C40.3941 14.35 41.3142 15.2708 41.3142 16.4061Z" fill="#3957C9"/>
<path d="M36.7869 19.4044C36.7869 19.9797 36.3208 20.4459 35.7455 20.4459C35.1703 20.4459 34.7041 19.9797 34.7041 19.4044C34.7041 18.83 35.1703 18.363 35.7455 18.363C36.3208 18.363 36.7869 18.83 36.7869 19.4044Z" fill="#3957C9"/>
<path d="M21.3069 15.0511C21.0093 16.1856 20.8499 17.3796 20.8499 18.6125C20.8499 19.6478 20.9628 20.6557 21.1749 21.6238C21.3099 22.2388 22.0614 22.4814 22.5253 22.0557C23.4454 21.2118 24.2472 19.837 24.2472 18.2837C24.2472 16.8288 23.514 15.531 22.6725 14.678C22.2315 14.231 21.4663 14.4438 21.3069 15.0511Z" fill="#61B6FF"/>
<path d="M22.4513 18.3547C21.818 18.3547 21.2534 18.0602 20.8872 17.6009C20.8628 17.9351 20.8499 18.2723 20.8499 18.6118C20.8499 19.6471 20.9628 20.6549 21.1756 21.6239C21.3099 22.238 22.0614 22.4814 22.5253 22.0557C23.4461 21.2119 24.2472 19.8363 24.2472 18.283C24.2472 17.9808 24.2152 17.6848 24.1572 17.3979C23.8055 17.9717 23.173 18.3547 22.4513 18.3547Z" fill="#5294E5"/>
<path d="M47.6573 15.0511C47.9556 16.1856 48.1143 17.3796 48.1143 18.6125C48.1143 19.6478 48.0021 20.6557 47.7893 21.6238C47.6542 22.2388 46.9027 22.4814 46.4389 22.0557C45.5188 21.2118 44.7169 19.837 44.7169 18.2837C44.7169 16.8288 45.4501 15.531 46.2924 14.678C46.7334 14.231 47.4986 14.4438 47.6573 15.0511Z" fill="#61B6FF"/>
<path d="M46.5136 18.3547C47.1469 18.3547 47.7107 18.0602 48.0777 17.6009C48.1013 17.9351 48.1143 18.2723 48.1143 18.6118C48.1143 19.6471 48.0021 20.6549 47.7893 21.6239C47.6542 22.238 46.9027 22.4814 46.4389 22.0557C45.5188 21.2119 44.7169 19.8363 44.7169 18.283C44.7169 17.9808 44.749 17.6848 44.8069 17.3979C45.1587 17.9717 45.7911 18.3547 46.5136 18.3547Z" fill="#5294E5"/>
<path d="M38.5455 59.4V55.0329C38.5455 54.1945 37.8589 53.5078 37.0204 53.5078H32.3886C31.5493 53.5078 30.8635 54.1945 30.8635 55.0329V59.4C30.8635 60.2385 31.5493 60.9243 32.3886 60.9243H37.0204C37.8589 60.9243 38.5455 60.2385 38.5455 59.4Z" fill="#61B6FF"/>
<path d="M34.4409 53.5078H32.3878C31.5493 53.5078 30.8635 54.1945 30.8635 55.0329V59.4C30.8635 60.2385 31.5493 60.9243 32.3878 60.9243H34.4409C33.4628 60.1675 34.4409 59.4404 34.4409 59.4404V54.9925C33.5635 54.1151 34.4409 53.5078 34.4409 53.5078Z" fill="#5294E5"/>
<path d="M36.4795 54.9926H32.9287C32.6381 54.9926 32.4 55.2298 32.4 55.5213V58.9118C32.4 59.2032 32.6381 59.4413 32.9287 59.4413H36.4795C36.7701 59.4413 37.0074 59.2032 37.0074 58.9118V55.5213C37.0082 55.2298 36.7701 54.9926 36.4795 54.9926Z" fill="#5294E5"/>
<path d="M32.4 55.5213V58.9118C32.4 59.2032 32.6381 59.4413 32.9287 59.4413H34.4409V54.9926H32.9287C32.6381 54.9926 32.4 55.2298 32.4 55.5213Z" fill="#4374D3"/>
<path d="M39.6167 42.5917C39.6167 44.0566 38.4288 45.2445 36.9632 45.2445C35.4983 45.2445 34.3104 44.0566 34.3104 42.5917C34.3104 41.1261 35.4983 39.9382 36.9632 39.9382C38.4288 39.9382 39.6167 41.1261 39.6167 42.5917Z" fill="#4374D3"/>
<path d="M37.8665 43.4393C36.8991 43.4393 36.1155 42.655 36.1155 41.6884C36.1155 40.8598 36.6923 40.1678 37.4652 39.9862C35.8188 39.6704 34.3104 40.9346 34.3104 42.5917C34.3104 44.0573 35.4983 45.2444 36.9632 45.2444C38.6203 45.2444 39.8845 43.7376 39.5686 42.0897C39.387 42.8625 38.6943 43.4393 37.8665 43.4393Z" fill="#3957C9"/>
</g>
<defs>
<clipPath id="clip0_1_532">
<rect width="100" height="100" fill="white" transform="translate(0.5 0.149414)"/>
</clipPath>
</defs>
</svg>
