<svg width="101" height="101" viewBox="0 0 101 101" fill="none" xmlns="http://www.w3.org/2000/svg">
<g clip-path="url(#clip0_1_395)">
<path d="M50.4999 4.44629C24.0725 4.44629 2.64844 25.8696 2.64844 52.2978C2.64844 69.0259 11.2345 83.7468 24.2381 92.3009L76.7907 92.2818C89.7782 83.7247 98.3514 69.0137 98.3514 52.2978C98.3514 25.8696 76.9273 4.44629 50.4999 4.44629Z" fill="#162680"/>
<path d="M50.5144 6.82446C35.8385 6.82446 23.9413 18.721 23.9413 33.3968V92.1057C31.5401 97.1853 40.6733 100.149 50.4999 100.149C60.3388 100.149 69.4833 97.1784 77.0875 92.0866V33.3968C77.0875 18.721 65.1903 6.82446 50.5144 6.82446Z" fill="#A2EC00"/>
<path d="M42.763 91.0581V33.3968C42.763 20.684 48.5292 10.0586 56.2326 7.44321C54.3909 7.03885 52.4782 6.82446 50.5144 6.82446C35.8385 6.82446 23.9413 18.721 23.9413 33.3968V92.1057C30.1402 96.2499 37.3606 98.9843 45.1449 99.8518C43.6297 97.2646 42.763 94.2526 42.763 91.0581Z" fill="#51DA18"/>
<path d="M85.2418 3.82065C78.0084 -1.94105 66.3057 -1.20329 60.6302 8.04886C60.0664 8.96743 60.0282 10.0851 60.5272 11.038C61.6823 13.2437 64.8805 13.1911 65.9486 10.8794C69.0759 4.11515 77.3225 1.5265 83.722 5.21531C84.0257 4.58664 84.5605 4.07929 85.2418 3.82065Z" fill="#D7F9B7"/>
<path d="M57.6868 25.4912C57.6654 25.4935 57.6448 25.4958 57.6235 25.4958H43.4061C43.384 25.4958 43.3634 25.4935 43.3428 25.4912C42.3296 26.9232 41.7322 28.6696 41.7322 30.5571C41.7322 35.4079 45.6644 39.3401 50.5144 39.3401C55.3652 39.3401 59.2974 35.4079 59.2974 30.5571C59.2974 28.6696 58.7 26.9232 57.6868 25.4912Z" fill="#E0F9FE"/>
<path d="M34.8223 75.7124C34.6545 76.1313 34.511 76.5768 34.3989 77.0445C33.6626 80.1046 34.508 82.9321 36.2856 83.3593C38.064 83.7873 40.1018 81.6534 40.8381 78.5933C40.9502 78.1248 41.0258 77.6625 41.0662 77.2139C38.9391 76.8347 36.8555 76.3319 34.8223 75.7124Z" fill="#E0F9FE"/>
<path d="M37.475 77.0445C37.5208 76.8538 37.5727 76.6668 37.6292 76.483C36.6831 76.2503 35.747 75.9939 34.8223 75.7124C34.6545 76.1305 34.511 76.5768 34.3989 77.0445C33.6626 80.1046 34.508 82.9321 36.2856 83.3593C36.9746 83.5249 37.7016 83.3052 38.3776 82.797C37.3011 81.7411 36.8922 79.4668 37.475 77.0445Z" fill="#B9E9FD"/>
<path d="M66.2073 75.7124C64.1741 76.3319 62.0897 76.8347 59.9626 77.2139C60.0038 77.6625 60.0786 78.1248 60.1915 78.5933C60.927 81.6534 62.9648 83.7873 64.7432 83.3593C66.5216 82.9321 67.3662 80.1046 66.6307 77.0445C66.5186 76.5768 66.3751 76.1313 66.2073 75.7124Z" fill="#E0F9FE"/>
<path d="M62.9129 77.3557C62.8549 77.1139 62.8069 76.8728 62.7687 76.6348C61.8418 76.8514 60.9072 77.0452 59.9626 77.2138C60.0038 77.6624 60.0786 78.1248 60.1915 78.5932C60.927 81.6534 62.9648 83.7873 64.7432 83.3593C65.3871 83.2044 65.9082 82.7337 66.2767 82.0524C64.8577 81.5717 63.4882 79.746 62.9129 77.3557Z" fill="#B9E9FD"/>
<path d="M33.2254 75.9595C32.3137 75.6444 31.83 74.6503 32.1451 73.7386C32.4602 72.8276 33.4543 72.3439 34.3653 72.659C44.623 76.2021 55.99 76.3463 66.6635 72.659C67.5744 72.3439 68.5693 72.8276 68.8844 73.7386C69.1987 74.6503 68.715 75.6444 67.8041 75.9595C56.8002 79.7605 44.6298 79.8993 33.2254 75.9595Z" fill="#00C82F"/>
<path d="M28.8942 61.3623C27.8902 59.9379 25.9173 59.6273 24.5272 60.6611C20.1586 63.9089 10.3571 63.5633 7.60064 59.001C6.37766 56.9777 6.56992 54.3348 7.19934 51.8606C7.60446 50.2676 6.70801 48.6342 5.13941 48.1413C3.46705 47.6156 1.6833 48.5861 1.23698 50.2813C0.32298 53.7527 -0.146226 58.1221 2.31577 62.1954C7.08566 70.0872 20.9536 70.8662 28.0718 65.7186C29.4497 64.723 29.8739 62.7523 28.8942 61.3623Z" fill="#51DA18"/>
<path d="M88.7704 5.66161C88.456 4.15251 86.9782 3.18435 85.4691 3.49868C83.9608 3.81377 82.9926 5.29158 83.307 6.79991C83.6213 8.30824 85.0991 9.27641 86.6082 8.96207C88.1165 8.64774 89.0847 7.16993 88.7704 5.66161Z" fill="#FC7ACD"/>
<path d="M88.7674 5.65939C88.7292 5.47552 88.6727 5.29928 88.6018 5.1322C88.572 5.9432 87.9968 6.66036 87.1667 6.83355C86.1901 7.03649 85.2334 6.41012 85.0297 5.43356C84.8573 4.60348 85.2845 3.78943 86.0162 3.43848C85.8346 3.44 85.6508 3.45831 85.4669 3.49722C83.9578 3.81155 82.9896 5.28936 83.3047 6.79769C83.619 8.30678 85.0969 9.27495 86.6052 8.95986C88.1143 8.64629 89.0817 7.16772 88.7674 5.65939Z" fill="#F948B4"/>
<path d="M69.552 2.62289C69.552 1.82257 69.9335 1.1138 70.5225 0.661377C66.6643 1.64175 63.0838 4.04882 60.6302 8.0489C60.0664 8.96748 60.0282 10.0844 60.5272 11.0381C61.6823 13.243 64.8805 13.1911 65.9486 10.8794C67.1579 8.26405 69.1331 6.2766 71.47 5.03149C70.3714 4.77895 69.552 3.79781 69.552 2.62289Z" fill="#8FE98A"/>
<path d="M15.7877 3.82065C23.0211 -1.94105 34.7231 -1.20329 40.3993 8.04886C40.9624 8.96743 41.0013 10.0851 40.5016 11.038C39.3472 13.2437 36.1482 13.1911 35.0801 10.8794C31.9528 4.11515 23.7063 1.5265 17.3067 5.21531C17.0031 4.58664 16.469 4.07929 15.7877 3.82065Z" fill="#D7F9B7"/>
<path d="M17.7248 5.66012C17.4105 4.15103 15.9327 3.18286 14.4244 3.49796C12.9153 3.81229 11.9479 5.2901 12.2622 6.79842C12.5765 8.30675 14.0543 9.27492 15.5627 8.96059C17.071 8.64626 18.0392 7.16845 17.7248 5.66012Z" fill="#FC7ACD"/>
<path d="M17.7248 5.65939C17.6859 5.47552 17.6302 5.29928 17.5593 5.1322C17.5295 5.9432 16.9543 6.66036 16.1242 6.83355C15.1476 7.03649 14.1909 6.41012 13.9872 5.43356C13.814 4.60348 14.242 3.78943 14.9729 3.43848C14.7921 3.44 14.6082 3.45831 14.4236 3.49722C12.9153 3.81155 11.9471 5.28936 12.2614 6.79769C12.5758 8.30678 14.0536 9.27495 15.5619 8.95986C17.071 8.64629 18.0392 7.16772 17.7248 5.65939Z" fill="#F948B4"/>
<path d="M31.4768 2.62289C31.4768 1.82257 31.0954 1.1138 30.5064 0.661377C34.3653 1.64175 37.9458 4.04882 40.3994 8.0489C40.9632 8.96748 41.0013 10.0844 40.5016 11.0381C39.3473 13.243 36.1491 13.1911 35.081 10.8794C33.8717 8.26405 31.8957 6.2766 29.5596 5.03149C30.6574 4.77895 31.4768 3.79781 31.4768 2.62289Z" fill="#8FE98A"/>
<path d="M55.3156 37.9103C50.6182 36.9345 51.8709 32.6605 51.8709 32.6605L50.5144 28.4156C49.3479 26.6852 50.8936 25.7582 50.8936 25.7582L50.9028 25.4958H43.4061C43.384 25.4958 43.3634 25.4935 43.3428 25.4912C42.3289 26.9232 41.7322 28.6696 41.7322 30.5571C41.7322 35.4079 45.6637 39.3401 50.5144 39.3401C52.2867 39.3401 53.9354 38.8129 55.3156 37.9103Z" fill="#B9E9FD"/>
<path d="M52.8551 30.7555C52.8551 32.0479 51.8068 33.0962 50.5144 33.0962C49.222 33.0962 48.1744 32.0479 48.1744 30.7555C48.1744 29.463 49.222 28.4155 50.5144 28.4155C51.8068 28.4155 52.8551 29.463 52.8551 30.7555Z" fill="#61B6FF"/>
<path d="M58.1148 24.7C56.3013 22.5211 53.5707 21.134 50.5144 21.134C47.4588 21.134 44.7275 22.5211 42.914 24.7C42.5646 25.1204 42.8591 25.7582 43.4061 25.7582H57.6235C58.1705 25.7582 58.465 25.1204 58.1148 24.7Z" fill="#51DA18"/>
<path d="M49.7606 23.5693C49.7606 22.5142 50.3709 21.6032 51.2567 21.1646C51.011 21.1462 50.7646 21.134 50.5144 21.134C47.458 21.134 44.7275 22.5211 42.914 24.7C42.5638 25.1204 42.8591 25.7582 43.4061 25.7582H50.8928C50.2084 25.2714 49.7606 24.4734 49.7606 23.5693Z" fill="#00C82F"/>
<path d="M60.4532 50.231C60.4242 50.2332 60.3952 50.2371 60.3647 50.2371H40.6641C40.6344 50.2371 40.6054 50.2332 40.5764 50.231C39.1726 52.2146 38.3448 54.6354 38.3448 57.2507C38.3448 63.9715 43.7929 69.4204 50.5144 69.4204C57.2359 69.4204 62.6848 63.9715 62.6848 57.2507C62.6848 54.6354 61.857 52.2146 60.4532 50.231Z" fill="#E0F9FE"/>
<path d="M57.1672 67.4391C50.6578 66.0871 52.3935 60.1652 52.3935 60.1652L50.5144 54.2822C48.8985 51.8858 51.0393 50.6002 51.0393 50.6002L51.0523 50.2371H40.6641C40.6344 50.2371 40.6054 50.2333 40.5764 50.2302C39.1726 52.2146 38.3448 54.6347 38.3448 57.25C38.3448 63.9715 43.7929 69.4204 50.5144 69.4204C52.9703 69.4204 55.2553 68.6903 57.1672 67.4391Z" fill="#B9E9FD"/>
<path d="M53.7576 57.5255C53.7576 59.3161 52.3058 60.768 50.5144 60.768C48.7238 60.768 47.2719 59.3161 47.2719 57.5255C47.2719 55.7341 48.7238 54.2822 50.5144 54.2822C52.3058 54.2822 53.7576 55.7341 53.7576 57.5255Z" fill="#61B6FF"/>
<path d="M61.046 49.1339C58.5336 46.115 54.7495 44.1924 50.5144 44.1924C46.2801 44.1924 42.4959 46.115 39.9828 49.1339C39.4983 49.7161 39.9065 50.6003 40.6641 50.6003H60.3647C61.1231 50.6003 61.5312 49.7161 61.046 49.1339Z" fill="#51DA18"/>
<path d="M49.4699 47.5676C49.4699 46.1051 50.3152 44.8432 51.5428 44.2351C51.2025 44.2099 50.8607 44.1924 50.5144 44.1924C46.2793 44.1924 42.4951 46.115 39.9828 49.1339C39.4976 49.7161 39.9065 50.6003 40.6641 50.6003H51.0393C50.0902 49.9259 49.4699 48.8204 49.4699 47.5676Z" fill="#00C82F"/>
<path d="M28.8942 61.3622C27.8902 59.9378 25.9173 59.6273 24.5272 60.6611C21.5105 62.9041 15.906 63.432 11.8166 62.0435C14.5113 63.8814 12.9984 68.1493 9.71399 67.8243C15.7366 69.9315 23.3736 69.1167 28.0718 65.7193C29.4497 64.7229 29.8739 62.7523 28.8942 61.3622Z" fill="#00C82F"/>
<path d="M72.1056 61.3623C73.1096 59.9379 75.0825 59.6273 76.4726 60.6611C80.8412 63.9089 90.6427 63.5633 93.3991 59.001C94.6221 56.9777 94.4299 54.3348 93.8005 51.8606C93.3953 50.2676 94.2918 48.6342 95.8604 48.1413C97.5335 47.6156 99.3165 48.5861 99.7628 50.2813C100.677 53.7527 101.146 58.1221 98.684 62.1954C93.9141 70.0872 80.0462 70.8662 72.9288 65.7186C71.5501 64.723 71.1259 62.7523 72.1056 61.3623Z" fill="#51DA18"/>
<path d="M72.1055 61.3622C73.1096 59.9378 75.0825 59.6273 76.4726 60.6611C79.4892 62.9041 85.0938 63.432 89.1831 62.0435C86.4884 63.8814 88.0013 68.1493 91.2858 67.8243C85.2632 69.9315 77.6261 69.1167 72.928 65.7193C71.5501 64.7229 71.1259 62.7523 72.1055 61.3622Z" fill="#00C82F"/>
</g>
<defs>
<clipPath id="clip0_1_395">
<rect width="100" height="100" fill="white" transform="translate(0.5 0.149414)"/>
</clipPath>
</defs>
</svg>
