<svg width="623" height="856" viewBox="0 0 623 856" fill="none" xmlns="http://www.w3.org/2000/svg">
<g clip-path="url(#clip0_1_1171)">
<path d="M464.143 284.459C484.933 278.92 512.705 274.855 544.45 272.701C551.418 272.229 556.685 266.199 556.213 259.231C555.741 252.263 549.686 247.015 542.738 247.47C509.401 249.731 479.967 254.069 457.629 260.023C450.883 261.822 446.873 268.749 448.667 275.498C450.475 282.292 457.445 286.249 464.143 284.459Z" fill="#9D4AD3"/>
<path d="M267.338 172.824C392.697 132.424 543.339 121.083 684.317 132.543C694.8 141.149 704.803 150.452 714.247 160.447C562.201 144.602 399.339 156.856 275.095 196.895C268.453 199.035 261.324 195.385 259.181 188.738C257.039 182.091 260.691 174.967 267.338 172.824Z" fill="#9D4AD3"/>
<path d="M356.188 202.211C469.704 172.296 609.458 167.563 733.909 183.302C740.952 192.296 747.581 201.736 753.757 211.608C629.726 192.848 483.909 194.707 362.634 226.666C355.876 228.454 348.969 224.416 347.188 217.66C345.405 210.911 349.439 203.994 356.188 202.211Z" fill="#9D4AD3"/>
<path d="M618.824 214.064C618.836 214.063 618.852 214.06 618.864 214.06C674.915 215.338 719.319 261.806 718.046 317.855C716.773 373.903 670.305 418.307 614.256 417.035C614.238 417.033 614.226 417.033 614.212 417.029L618.824 214.064Z" fill="#FC9949"/>
<path d="M614.888 214.075L610.28 416.842C556.127 413.522 513.828 367.961 515.069 313.242C516.317 258.526 560.634 214.931 614.888 214.075Z" fill="#FACE7A"/>
<path d="M682.06 238.021C677.1 253.289 666.607 268.753 646.864 274.99C604.929 288.227 683.887 313.018 673.841 336.218C663.05 361.15 637.588 385.985 659.192 407.683C645.554 414.008 630.3 417.402 614.252 417.037C601.795 416.755 589.918 414.226 578.983 409.869C549.339 387.229 577.409 360.812 588.891 334.29C598.937 311.09 519.979 286.299 561.907 273.059C591.135 263.834 600.091 234.39 600.827 215.277C606.699 214.366 612.717 213.928 618.862 214.067C643 214.611 664.961 223.554 682.06 238.021Z" fill="#FBB362"/>
<path d="M181.435 333.299C183.061 261.583 286.402 220.607 356.188 202.211C362.944 200.43 369.86 204.464 371.639 211.215C373.419 217.971 369.386 224.888 362.634 226.666C183.14 273.973 145.69 365.936 319.734 434.727C408.854 469.957 528.714 487.236 645.373 486.477L646.794 511.795C414.602 512.863 178.938 442.958 181.435 333.299Z" fill="#B26CDE"/>
<path d="M640.581 500.055C641.064 478.985 658.53 462.298 679.598 462.777C700.665 463.255 717.359 480.723 716.881 501.791C716.403 522.858 698.935 539.552 677.864 539.069C656.797 538.591 640.105 521.128 640.581 500.055Z" fill="#FD7E31"/>
<path d="M344.646 361.64C347.779 355.4 355.377 352.88 361.622 356.022C463.799 407.38 671.457 417.647 803.615 388.494C803.518 397.234 803.081 405.946 802.283 414.619C662.491 443.753 454.579 431.048 350.264 378.616C344.022 375.478 341.505 367.878 344.646 361.64Z" fill="#B26CDE"/>
<path d="M294.042 351.853C294.483 332.343 310.661 316.884 330.173 317.329C349.678 317.773 365.135 333.946 364.694 353.456C364.248 372.967 348.075 388.424 328.563 387.979C309.054 387.538 293.596 371.364 294.042 351.853Z" fill="#A2EC00"/>
<path d="M294.031 351.865C294.089 349.422 294.39 347.043 294.915 344.748C297.179 354.601 305.864 362.06 316.434 362.3C328.929 362.585 339.287 352.687 339.569 340.188C339.812 329.622 332.756 320.606 323.013 317.894C325.33 317.475 327.719 317.283 330.159 317.337C349.671 317.782 365.128 333.956 364.683 353.468C364.242 372.977 348.064 388.437 328.552 387.991C309.047 387.548 293.59 371.374 294.031 351.865Z" fill="#00C82F"/>
<path d="M758.054 349.208C764.902 347.846 769.344 341.186 767.981 334.338C766.619 327.489 759.955 323.05 753.111 324.41C641.458 346.666 456.571 327.365 432.732 298.353C434.531 296.347 441.418 290.51 464.142 284.459C470.889 282.66 474.903 275.73 473.104 268.983C471.305 262.237 464.379 258.221 457.629 260.022C423.951 268.994 407.398 281.34 407.024 297.772C406.591 316.85 428.392 331.564 473.682 342.752C552.129 362.129 678.76 365.019 758.054 349.208Z" fill="#B26CDE"/>
<path d="M117.005 431.381C122.365 426.908 123.088 418.936 118.614 413.571C100.53 391.894 91.6178 369.65 92.124 347.45C93.8558 271.123 202.374 220.33 275.095 196.895C281.742 194.752 285.395 187.628 283.252 180.981C281.109 174.334 273.981 170.684 267.338 172.824C181.517 200.486 68.8849 256.844 66.8387 346.882C66.1938 375.368 77.0807 403.259 99.1953 429.771C103.641 435.104 111.615 435.875 117.005 431.381Z" fill="#B26CDE"/>
<path d="M488.912 569.662C573.609 579.947 661.165 581.071 743.425 574.051C736.757 583.467 729.565 592.564 721.858 601.296C685.608 603.649 648.182 604.46 610.014 603.593C568.019 602.643 526.246 599.67 485.863 594.767C478.926 593.928 473.99 587.623 474.831 580.69C475.673 573.757 481.962 568.812 488.912 569.662Z" fill="#B26CDE"/>
<path d="M392.942 573.624C393.588 545.12 417.223 522.532 445.73 523.183C474.235 523.83 496.823 547.464 496.172 575.972C495.525 604.476 471.89 627.064 443.383 626.413C414.878 625.766 392.295 602.129 392.942 573.624Z" fill="#F948B4"/>
<path d="M392.938 573.639C393.023 569.869 393.521 566.2 394.371 562.677C397.827 576.247 409.972 586.425 424.655 586.759C442.331 587.159 456.985 573.157 457.39 555.479C457.724 540.796 448.104 528.202 434.706 524.13C438.267 523.445 441.949 523.11 445.726 523.197C474.231 523.844 496.819 547.479 496.168 575.986C495.521 604.491 471.886 627.078 443.379 626.427C414.874 625.781 392.289 602.151 392.938 573.639Z" fill="#C6237C"/>
<path d="M329.491 269.251C329.653 262.268 335.442 256.736 342.422 256.893C349.408 257.052 354.936 262.844 354.779 269.824C354.617 276.806 348.828 282.338 341.849 282.181C334.866 282.019 329.334 276.23 329.491 269.251Z" fill="#4374D3"/>
<path d="M525.253 646.653C525.415 639.671 531.204 634.138 538.184 634.295C545.163 634.453 550.696 640.241 550.534 647.224C550.379 654.208 544.59 659.74 537.608 659.579C530.628 659.421 525.096 653.633 525.253 646.653Z" fill="#D7F9B7"/>
<path d="M283.602 557.688C283.866 546.054 293.51 536.837 305.144 537.101C316.78 537.369 325.996 547.013 325.733 558.647C325.469 570.281 315.821 579.5 304.187 579.236C292.553 578.973 283.334 569.324 283.602 557.688Z" fill="#4374D3"/>
<path d="M282.978 211.474C282.978 213.21 282.305 214.837 281.083 216.059L271.484 225.658C271.435 225.707 271.301 225.817 271.24 225.853C271.093 225.951 270.922 226 270.751 226C270.579 226 270.396 225.951 270.249 225.853C270.176 225.804 270.115 225.755 270.041 225.682L260.431 216.059C259.196 214.837 258.524 213.21 258.524 211.474C258.524 209.738 259.196 208.112 260.431 206.889C262.962 204.37 267.07 204.37 269.601 206.889L270.751 208.051L271.912 206.889C274.443 204.37 278.552 204.37 281.07 206.889C282.305 208.112 282.978 209.738 282.978 211.474Z" fill="#4374D3"/>
<path d="M357.454 507.474C357.454 509.21 356.782 510.837 355.559 512.059L345.961 521.658C345.912 521.707 345.777 521.817 345.716 521.853C345.569 521.951 345.398 522 345.227 522C345.056 522 344.872 521.951 344.726 521.853C344.652 521.804 344.591 521.755 344.518 521.682L334.907 512.059C333.672 510.837 333 509.21 333 507.474C333 505.738 333.672 504.112 334.907 502.889C337.438 500.37 341.547 500.37 344.078 502.889L345.227 504.051L346.389 502.889C348.92 500.37 353.028 500.37 355.547 502.889C356.782 504.112 357.454 505.738 357.454 507.474Z" fill="#FACE7A"/>
<path d="M232.476 443.367C232.476 445.886 231.501 448.245 229.727 450.019L215.802 463.943C215.732 464.014 215.536 464.174 215.448 464.227C215.235 464.369 214.987 464.44 214.738 464.44C214.49 464.44 214.224 464.369 214.011 464.227C213.904 464.156 213.816 464.085 213.709 463.978L199.767 450.019C197.976 448.245 197 445.886 197 443.367C197 440.848 197.976 438.489 199.767 436.715C203.439 433.061 209.399 433.061 213.071 436.715L214.738 438.4L216.423 436.715C220.095 433.061 226.055 433.061 229.709 436.715C231.501 438.489 232.476 440.848 232.476 443.367Z" fill="#4374D3"/>
</g>
<defs>
<clipPath id="clip0_1_1171">
<rect width="682.667" height="682.667" fill="white" transform="matrix(-0.877157 0.480203 0.480203 0.877157 599.562 -71.2446)"/>
</clipPath>
</defs>
</svg>
