<svg width="275" height="331" viewBox="0 0 275 331" fill="none" xmlns="http://www.w3.org/2000/svg">
<g clip-path="url(#clip0_431_3369)">
<rect y="0.0668945" width="275" height="330" rx="25" fill="#FACE7A"/>
<g clip-path="url(#clip1_431_3369)">
<path d="M260.99 -23.3426C242.106 -30.8615 221.511 -35 199.947 -35C108.754 -35 34.8271 38.9273 34.8271 130.12C34.8271 221.314 108.754 295.239 199.947 295.239C291.139 295.239 365.066 221.314 365.066 130.12C365.066 121.671 364.429 113.371 363.205 105.262L260.99 -23.3426Z" fill="#EEC707"/>
<path d="M180.236 223.894C179.649 225.132 179.067 226.359 178.478 227.58C195.795 211.858 230.257 189.788 294.959 176.444C347.388 165.629 355.21 136.954 363.347 106.291C354.744 46.7647 314.393 -2.48421 260.008 -23.7323C232.347 2.41777 197.722 1.25941 183.132 43.6187C169.95 81.8895 137.203 107.484 117.053 120.197C118.253 119.947 119.464 119.7 120.678 119.452C131.164 117.317 142.005 115.108 149.813 109.148C153.686 106.191 158.306 104.262 163.574 103.396C164.509 103.243 165.464 103.122 166.439 103.035C181.671 101.684 196.285 109.064 204.572 122.293C210.501 131.754 216.24 141.972 218.094 152.568C220.229 164.784 216.709 175.156 207.334 184.281C191.915 199.282 185.978 211.795 180.236 223.894Z" fill="#FBB362"/>
<path d="M280.256 144.086C282.62 138.486 280.035 132.078 274.406 129.78C231.662 112.333 228.098 76.7506 228.998 59.9964C229.267 55.0392 226.134 50.5242 221.379 49.0946C190.912 39.9436 209.717 8.31232 209.719 8.30969C198.694 15.9602 189.187 26.0406 183.132 43.6187C169.95 81.8921 137.203 107.484 117.053 120.197C118.253 119.947 119.462 119.7 120.678 119.452C131.164 117.317 142.005 115.111 149.813 109.151C153.686 106.191 158.306 104.264 163.572 103.398C164.509 103.243 165.464 103.122 166.439 103.038C181.671 101.684 196.285 109.064 204.572 122.293C210.501 131.754 216.24 141.972 218.094 152.568C220.229 164.786 216.709 175.159 207.334 184.281C191.915 199.284 185.978 211.795 180.236 223.894C179.649 225.132 179.065 226.361 178.478 227.583C195.795 211.858 230.254 189.791 294.959 176.444C275.364 166.766 276.38 153.263 280.256 144.086Z" fill="#FC9949"/>
<path d="M340.078 42.7605C331.301 28.7127 320.48 16.0733 308.017 5.27686C273.796 25.3771 234.725 31.8113 224.576 61.6708C216.841 84.4221 203.241 98.9675 189.978 108.205C195.659 111.459 200.756 116.201 204.573 122.293C220.213 147.258 218.168 156.175 218.652 157.731C266.122 149.459 309.697 134.205 327.13 75.4342C330.627 63.6479 335.013 52.7777 340.078 42.7605Z" fill="#FD7E31"/>
<path d="M274.406 129.78C231.663 112.333 228.098 76.7506 229.001 59.9964C229.107 58.0298 228.67 56.1343 227.817 54.4731C226.54 56.7162 225.447 59.1066 224.576 61.6708C216.844 84.4221 203.241 98.9675 189.978 108.208C196.004 111.657 200.971 116.546 204.573 122.293C220.177 147.198 218.321 156.641 218.652 157.731C241.04 153.829 262.562 148.374 280.885 137.53C280.167 134.158 277.863 131.191 274.406 129.78Z" fill="#FC5D1F"/>
<mask id="mask0_431_3369" style="mask-type:luminance" maskUnits="userSpaceOnUse" x="22" y="-25" width="342" height="331">
<path d="M364 -25H22V306H364V-25Z" fill="white"/>
</mask>
<g mask="url(#mask0_431_3369)">
<mask id="mask1_431_3369" style="mask-type:luminance" maskUnits="userSpaceOnUse" x="22" y="-25" width="342" height="331">
<path d="M364 -25H22V306H364V-25Z" fill="white"/>
</mask>
<g mask="url(#mask1_431_3369)">
<path d="M58.1692 120.488C60.1292 122.818 63.5892 136.159 64.0192 139.453C64.3292 141.788 64.3092 144.023 64.0592 146.367C63.8192 148.7 62.9291 151.015 62.7291 153.236C57.6691 164.411 49.4691 172.261 37.7091 176.702C36.0291 177.341 34.3091 177.88 32.5691 178.321L30.8691 178.551C31.9691 174.841 34.9192 169.317 36.6392 165.58C41.6392 154.736 46.7692 143.95 52.0292 133.219C53.1592 130.914 54.2392 128.591 55.2792 126.251C56.1492 124.329 56.9492 122.218 58.1692 120.488Z" fill="#FB9735"/>
<path d="M248.65 -11.959C260.6 -11.427 269.77 -3.13798 281.76 -3.51398C287.37 -3.68998 292.66 -5.52 298.13 -6.5C298.4 3.559 300.72 11.833 308.46 19.009C314.92 24.998 322.56 28.043 331.49 27.844C334.84 27.77 338.16 27.134 341.38 26.262L341.75 26.416C341.78 27.185 336.94 41.112 336.25 42.327C335.31 41.885 334.03 41.028 333.03 40.829C331.76 40.575 330.11 40.774 328.81 40.757C326.82 40.731 324.82 40.589 322.84 40.405L322.53 40.555C322.59 40.582 322.66 40.611 322.73 40.637C323.33 40.868 324.12 40.875 324.77 40.939C329.39 41.396 334.99 39.676 337.5 44.746C339.47 48.715 339.35 53.661 340.65 57.88C341.4 60.315 342.79 62.139 344.27 64.192C345.43 65.8 346.56 67.462 347.84 68.986C350.78 72.499 354.05 75.757 356.95 79.297C356.96 81.928 356.34 84.694 355.96 87.302C354.94 94.036 353.69 100.729 352.21 107.383C350.86 113.709 349.59 120.255 346.95 126.213C345.52 129.444 343.69 132.013 341.12 134.507C339.09 136.488 336.58 137.998 334.66 140.08C328.01 146.469 320.17 156.322 316.74 164.825C313.26 171.621 309.56 179.903 302.97 184.378C299.34 186.841 294.87 188.442 290.68 189.808C286.07 191.313 281.29 192.304 276.56 193.369C268.83 195.105 261.22 196.887 253.89 199.882C251.94 200.678 249.63 201.555 247.9 202.718C242.82 205.353 238.18 208.607 233.2 211.389C230.47 212.913 227.6 214.169 224.81 215.572C218.93 218.527 212.01 222.471 207.35 227.058C205.75 228.632 204.38 230.416 203.11 232.248C199.8 237.039 197.91 242.62 195.08 247.675C194.55 248.612 194 249.84 193.28 250.628C183.67 267.182 174.11 268.383 157.63 275.117C154.58 276.576 151.4 277.806 148.38 279.328L148.23 279.381C144.35 280.717 140.56 282.758 136.85 284.48C132.62 286.439 128.31 288.23 124.09 290.196C122.09 291.127 117.34 293.738 115.37 294.011C110.5 294.686 96.8196 290.95 91.7596 289.268C87.0996 287.672 82.6696 284.926 78.3396 282.634C74.0196 280.343 69.7296 278.046 65.5196 275.563C63.6696 274.468 61.7096 273.413 60.0496 272.049C58.4896 270.04 57.3696 267.516 56.1396 265.296C54.1396 261.697 52.1195 258.112 50.0695 254.541C43.1295 242.327 36.1296 230.149 29.0496 218.007C28.8296 213.188 29.5596 207.332 29.7796 202.417C30.1496 194.481 30.2196 186.467 30.8696 178.551L32.5695 178.32C34.3095 177.88 36.0296 177.341 37.7095 176.702C49.4696 172.261 57.6696 164.411 62.7296 153.236C62.9296 151.015 63.8196 148.7 64.0596 146.367C64.3096 144.023 64.3296 141.788 64.0196 139.453C63.5896 136.159 60.1296 122.818 58.1696 120.487C59.6296 119.951 61.0596 119.18 62.4896 118.561C66.1196 117.006 69.7396 115.412 73.3496 113.779C79.3496 111.069 85.4296 108.534 91.4096 105.785C92.6496 105.083 94.1395 104.568 95.4495 103.98C98.2895 102.707 101.09 101.424 103.82 99.948C107.32 98.057 110.82 96.198 114.12 93.983C125.58 86.278 135.13 75.68 143.45 64.937C143.97 64.161 144.59 63.437 145.18 62.703C146.95 60.5 148.31 57.672 149.8 55.264C152.74 50.542 155.83 45.907 158.69 41.143C163.2 33.616 167.16 24.932 173.78 18.897C176.17 16.642 178.64 14.587 181.57 13.008C184.41 11.483 187.49 10.361 190.49 9.16998C194.19 7.70898 197.87 6.20898 201.54 4.66998C210.13 1.07998 218.66 -2.65202 227.34 -6.04602C231.81 -7.79202 236.3 -9.56498 240.93 -10.889C243.49 -11.622 245.99 -11.912 248.65 -11.959Z" fill="#ED6422"/>
<path d="M270.139 34.407C270.149 33.986 269.849 33.369 269.739 32.939C269.359 31.533 267.959 27.14 268.489 25.871C271.229 28.808 272.769 32.079 273.379 35.995C272.279 35.621 271.159 34.956 270.139 34.407Z" fill="#C32505"/>
<path d="M251.85 22.47C253.07 21.972 254.2 21.467 255.34 20.809C257.92 21.495 260.47 22.261 262.99 23.106C263.83 23.388 266.46 24.603 267.1 24.493C265.01 25.367 263.47 27.244 261.25 28.081C260.92 27.741 257.13 27.09 255.94 26.407C254.25 25.431 253.05 23.955 251.85 22.47Z" fill="#D2340C"/>
<path d="M239.97 36.576L240.09 37.205C241.19 37.676 242.44 37.781 243.54 38.26C243.96 38.788 244.79 39.025 245.43 39.245C246.41 40.102 247.46 40.952 248.55 41.667C249.51 43.381 249.57 45.811 249.88 47.727C248.91 48.628 247.92 49.479 246.88 50.312C244.65 48.806 241.91 45.159 240.42 42.89C238.96 40.657 239.41 39.012 239.97 36.576Z" fill="#D2340C"/>
<path d="M267.099 24.494C267.589 24.881 268.179 25.327 268.489 25.871C267.959 27.14 269.359 31.533 269.739 32.94C269.849 33.369 270.149 33.987 270.139 34.407C267.319 35.305 262.959 36.659 261.079 38.968C260.789 36.783 259.419 35.11 258.949 33.021C259.419 31.21 259.679 29.329 261.249 28.082C263.469 27.244 265.009 25.368 267.099 24.494Z" fill="#AB2E08"/>
<path d="M260.52 44.886C261.45 47.916 262.73 49.873 264.98 52.147C264.54 52.359 264.1 52.553 263.64 52.728C263.19 52.903 262.73 53.059 262.26 53.196C261.79 53.334 261.32 53.451 260.84 53.549C260.36 53.647 259.88 53.725 259.39 53.783C254.79 54.313 250.5 53.074 246.88 50.312C247.92 49.48 248.91 48.628 249.88 47.728C252.09 45.995 257.69 45.103 260.52 44.886Z" fill="#AB2E08"/>
<path d="M248.55 41.667C251.67 38.436 255.33 35.699 258.95 33.021C259.42 35.11 260.79 36.784 261.08 38.969C260.81 40.848 260.29 42.995 260.52 44.886C257.69 45.103 252.09 45.996 249.88 47.729C249.57 45.812 249.51 43.382 248.55 41.667Z" fill="#D2340C"/>
<path d="M106.52 246.106C107.77 246.004 108.96 246.01 110.13 246.478C111.61 247.067 112.68 248.248 113.23 249.69C113.27 249.79 113.3 249.892 113.33 249.995C113.37 250.098 113.4 250.202 113.43 250.306C113.45 250.41 113.48 250.515 113.5 250.621C113.52 250.726 113.54 250.832 113.56 250.939C113.57 251.045 113.59 251.152 113.6 251.259C113.61 251.366 113.62 251.473 113.62 251.581C113.63 251.688 113.63 251.796 113.63 251.904C113.63 252.011 113.63 252.119 113.62 252.226C113.61 252.334 113.6 252.441 113.59 252.548C113.58 252.655 113.57 252.762 113.55 252.868C113.53 252.975 113.51 253.081 113.49 253.186C113.47 253.291 113.44 253.396 113.41 253.5C113.38 253.604 113.35 253.707 113.32 253.81C113.28 253.912 113.25 254.014 113.21 254.114C113.17 254.215 113.12 254.315 113.08 254.413C113.04 254.512 112.99 254.609 112.94 254.705C111.98 256.552 110.39 257.471 108.42 258.081C107.13 258.235 105.88 258.172 104.67 257.684C104.57 257.648 104.48 257.609 104.39 257.568C104.3 257.527 104.21 257.484 104.13 257.438C104.04 257.393 103.95 257.345 103.87 257.295C103.78 257.245 103.7 257.193 103.62 257.139C103.54 257.085 103.45 257.029 103.37 256.971C103.3 256.913 103.22 256.853 103.14 256.791C103.07 256.729 102.99 256.665 102.92 256.6C102.85 256.534 102.78 256.466 102.71 256.397C102.64 256.328 102.57 256.257 102.51 256.184C102.44 256.112 102.38 256.037 102.32 255.962C102.25 255.886 102.2 255.809 102.14 255.73C102.08 255.651 102.03 255.571 101.97 255.489C101.92 255.408 101.87 255.325 101.82 255.241C101.77 255.157 101.73 255.072 101.68 254.985C101.64 254.899 101.6 254.811 101.56 254.723C101.52 254.634 101.48 254.545 101.45 254.455C101.38 254.266 101.32 254.074 101.27 253.879C101.22 253.684 101.18 253.488 101.15 253.289C101.12 253.09 101.1 252.891 101.09 252.69C101.08 252.49 101.08 252.289 101.09 252.089C101.1 251.888 101.12 251.688 101.15 251.49C101.18 251.291 101.23 251.095 101.28 250.9C101.33 250.706 101.39 250.514 101.46 250.326C101.53 250.137 101.61 249.952 101.7 249.771C102.71 247.704 104.39 246.81 106.52 246.106Z" fill="#ED460C"/>
<path d="M270.14 34.407C271.16 34.957 272.28 35.621 273.38 35.995C273.86 40.289 273.06 44.552 270.22 47.979C269.86 48.407 269.48 48.816 269.08 49.207C268.68 49.597 268.26 49.968 267.82 50.318C267.38 50.668 266.92 50.996 266.45 51.301C265.97 51.607 265.48 51.889 264.98 52.147C262.73 49.873 261.45 47.916 260.52 44.886C260.29 42.995 260.81 40.847 261.08 38.968C262.96 36.659 267.32 35.304 270.14 34.407Z" fill="#891404"/>
<path d="M194.439 172.788C195.849 172.635 197.469 172.936 198.719 173.598C200.289 174.43 201.329 175.869 201.809 177.518C202.389 179.473 201.949 181.478 200.959 183.234C199.689 185.496 197.909 186.638 195.419 187.359C193.659 187.413 192.099 187.248 190.559 186.326C188.949 185.354 187.879 183.745 187.499 181.95C187.469 181.826 187.449 181.7 187.429 181.575C187.419 181.449 187.399 181.323 187.389 181.197C187.379 181.071 187.369 180.944 187.359 180.817C187.359 180.691 187.359 180.564 187.359 180.437C187.359 180.31 187.369 180.184 187.369 180.057C187.379 179.93 187.389 179.804 187.409 179.678C187.429 179.552 187.439 179.427 187.469 179.302C187.489 179.177 187.509 179.052 187.539 178.929C187.569 178.805 187.599 178.682 187.639 178.56C187.669 178.437 187.709 178.316 187.749 178.196C187.789 178.076 187.839 177.956 187.889 177.838C187.929 177.72 187.989 177.604 188.039 177.488C188.089 177.373 188.149 177.258 188.209 177.146C188.269 177.033 188.339 176.922 188.399 176.813C188.469 176.703 188.539 176.596 188.609 176.489C188.679 176.383 188.759 176.279 188.829 176.177C188.909 176.065 188.999 175.956 189.089 175.848C189.169 175.741 189.259 175.636 189.359 175.533C189.449 175.429 189.549 175.329 189.639 175.23C189.739 175.131 189.839 175.035 189.949 174.942C190.049 174.848 190.149 174.756 190.259 174.667C190.369 174.579 190.479 174.493 190.589 174.409C190.699 174.325 190.819 174.244 190.929 174.166C191.049 174.088 191.169 174.013 191.289 173.941C191.409 173.868 191.529 173.799 191.649 173.732C191.779 173.665 191.899 173.601 192.029 173.541C192.149 173.48 192.279 173.422 192.409 173.368C192.539 173.313 192.669 173.261 192.799 173.213C192.939 173.165 193.069 173.12 193.199 173.078C193.339 173.036 193.469 172.997 193.609 172.961C193.749 172.926 193.889 172.893 194.019 172.865C194.159 172.836 194.299 172.81 194.439 172.788Z" fill="#C32505"/>
<path d="M239.97 36.576C240.1 35.289 240.51 33.922 240.99 32.719C242.97 27.694 246.84 24.61 251.85 22.471C253.05 23.956 254.25 25.431 255.94 26.407C257.13 27.091 260.92 27.741 261.25 28.082C259.68 29.328 259.42 31.21 258.95 33.021C255.33 35.699 251.67 38.436 248.55 41.667C247.46 40.952 246.41 40.102 245.43 39.246C244.79 39.026 243.97 38.788 243.54 38.26C242.44 37.781 241.19 37.676 240.09 37.205L239.97 36.576Z" fill="#ED460C"/>
<path d="M244.82 27.892C248.1 27.244 251.65 26.707 255.01 26.759C253.56 28.943 247.34 37.987 245.43 39.245C244.79 39.026 243.97 38.788 243.54 38.26C243.54 35.242 244.07 30.778 244.82 27.892Z" fill="#FD6626"/>
<path d="M186.16 42.547C187.97 42.429 189.79 42.724 191.35 43.65C191.45 43.706 191.54 43.764 191.63 43.825C191.73 43.885 191.82 43.948 191.91 44.012C192 44.077 192.08 44.144 192.17 44.214C192.26 44.283 192.34 44.354 192.42 44.428C192.5 44.501 192.59 44.576 192.66 44.654C192.74 44.731 192.82 44.81 192.89 44.891C192.97 44.972 193.04 45.055 193.11 45.139C193.18 45.224 193.24 45.31 193.31 45.398C193.37 45.486 193.44 45.575 193.5 45.666C193.56 45.757 193.62 45.85 193.67 45.944C193.73 46.038 193.78 46.133 193.83 46.229C193.88 46.326 193.93 46.423 193.98 46.522C194.02 46.621 194.06 46.721 194.1 46.821C194.15 46.922 194.18 47.024 194.22 47.127C194.25 47.23 194.28 47.334 194.31 47.438C194.34 47.542 194.37 47.647 194.39 47.753C194.95 50.22 194.1 52.9101 192.67 54.9651C190.78 57.6811 188.18 59.288 184.89 59.93C182.87 60.118 180.77 59.976 179 58.921C177.45 57.992 176.48 56.535 176.1 54.817C175.56 52.367 176.34 49.868 177.76 47.829C179.77 44.934 182.65 43.189 186.16 42.547Z" fill="#ED460C"/>
<path d="M221.85 53.069C223.97 52.965 226.15 53.103 227.95 54.33C229.42 55.331 230.18 56.893 230.42 58.583C230.84 61.462 229.84 64.452 228.05 66.75C225.98 69.406 223.04 70.801 219.69 71.241C217.68 71.347 215.75 70.986 214.08 69.833C213.98 69.761 213.88 69.686 213.78 69.609C213.68 69.531 213.58 69.451 213.48 69.369C213.39 69.287 213.29 69.202 213.2 69.115C213.11 69.028 213.02 68.939 212.93 68.848C212.85 68.757 212.76 68.663 212.68 68.568C212.6 68.472 212.52 68.375 212.44 68.276C212.36 68.176 212.29 68.075 212.22 67.972C212.15 67.868 212.08 67.764 212.01 67.657C211.95 67.551 211.88 67.442 211.82 67.333C211.76 67.223 211.71 67.112 211.65 67C211.6 66.887 211.55 66.773 211.5 66.658C211.45 66.543 211.4 66.427 211.36 66.31C211.32 66.193 211.28 66.075 211.24 65.955C211.21 65.836 211.18 65.716 211.15 65.596C211.12 65.475 211.09 65.353 211.07 65.231C211.04 65.109 211.02 64.986 211.01 64.863C210.65 62.247 211.77 59.77 213.42 57.766C215.59 55.131 218.36 53.45 221.85 53.069Z" fill="#D2340C"/>
<path d="M151.53 163.263C152.35 163.865 153.13 164.45 153.84 165.167C162.13 172.884 167.61 182.185 167.81 193.549C167.82 194.114 167.83 194.65 167.71 195.205C167.2 194.998 166.68 195.053 166.14 195.067C164.9 195.099 149.99 196.047 149.91 196.087C149.83 196.125 149.77 196.185 149.71 196.233C148.64 191.569 146.09 187.078 145.47 182.315C147.19 175.887 149.74 169.675 151.53 163.263Z" fill="#C32505"/>
<path d="M98.4492 217.385C100.969 215.813 103.649 214.414 106.269 212.996C107.769 212.182 109.329 211.197 110.939 210.605C114.179 211.121 117.439 211.489 120.679 212.019C124.829 212.697 128.959 213.556 133.139 213.956C134.059 216.582 135.229 219.136 136.329 221.696C137.449 224.312 138.519 226.966 139.809 229.51C135.479 230.76 130.809 231.344 126.289 231.032C115.849 230.31 105.299 224.987 98.4492 217.385Z" fill="#C32505"/>
<path d="M149.71 196.233C149.77 196.184 149.83 196.125 149.91 196.087C149.99 196.047 164.9 195.099 166.14 195.066C166.68 195.053 167.2 194.998 167.71 195.205C167.26 204.986 163.41 213.886 155.9 220.56C151.2 224.738 145.84 227.569 139.81 229.511C138.51 226.967 137.45 224.313 136.33 221.697C135.23 219.137 134.06 216.583 133.14 213.957C135.56 211.592 137.84 209.061 140.17 206.614C143.39 203.224 146.72 199.826 149.71 196.233Z" fill="#891404"/>
<path d="M128.3 183.143C131.4 182.451 143.91 183.235 145.47 182.312C146.09 187.076 148.64 191.568 149.71 196.232C146.72 199.825 143.39 203.222 140.17 206.612C137.84 209.059 135.56 211.591 133.14 213.956C128.96 213.556 124.83 212.696 120.68 212.018C117.44 211.488 114.18 211.12 110.94 210.604C111.15 205.433 110.93 200.184 110.89 195.007C116.82 191.253 122.31 186.808 128.3 183.143Z" fill="#D2340C"/>
<path d="M60.6598 270.829V271.504L60.7798 271.572L61.0797 271.444C61.2097 271.388 61.3497 271.34 61.4797 271.277C62.7797 270.655 64.7698 270.946 66.2498 270.919C71.9298 270.813 77.3497 271.661 82.8197 273.112C86.4897 274.085 98.2498 278.537 101.17 278.248C101.54 278.211 101.86 278.075 102.18 277.891C105.37 276.045 108.25 273.918 111.64 272.371C115.26 270.721 119.13 269.156 122.9 267.873C128.61 265.933 135.23 264.179 140.52 261.319C143.92 259.478 147.11 256.774 149.36 253.682C150.75 251.765 151.35 249.533 151.97 247.302C153.3 242.572 154.52 237.986 157.85 234.145C158.34 233.589 158.85 233.055 159.38 232.541C159.91 232.028 160.47 231.537 161.04 231.069C161.62 230.601 162.22 230.158 162.83 229.739C163.45 229.32 164.08 228.928 164.73 228.561C169.5 225.861 174.99 224.374 180.08 222.344C183 221.182 185.85 219.594 188.56 218.034C191.4 216.401 194.07 214.688 196.71 212.765C197.42 212.244 198.78 211.002 199.6 210.933C199.56 210.983 199.52 211.035 199.48 211.082C198.39 212.267 196.05 213.612 194.67 214.572C190.52 217.478 185.86 220.175 181.2 222.25C174.4 225.282 166.16 227.249 160.51 232.204C159.8 232.832 159.25 233.641 158.62 234.349C157.63 235.468 156.66 236.571 155.91 237.86C153.92 241.26 152.54 247.738 151.22 251.722C151.32 251.73 151.42 251.736 151.52 251.745C151.96 251.781 152.15 251.878 152.51 252.124C152.78 252.309 152.92 252.338 153.24 252.38C153.22 252.635 153.11 252.749 152.96 252.959C153 253.197 152.95 253.324 153.16 253.482C153.71 253.884 155.61 254.144 156.3 254.057C156.66 254.012 156.69 253.958 156.88 253.683C157.03 253.468 157.17 253.283 157.34 253.09C159.1 253.635 163.95 256.313 165.69 257.312C166.2 257.603 166.76 257.778 167.21 258.159C168.48 259.217 171.72 263.404 172.96 263.769C174.25 264.146 174.28 263.272 175.31 264.633C176.57 264.845 177.87 264.548 179.08 264.982C179.3 265.059 179.52 265.125 179.73 265.199C181.13 265.042 186.78 259.432 187.87 258.1C188.71 257.08 189.52 256.029 190.26 254.94C190.59 254.457 192.78 250.754 192.97 250.634C193.03 250.595 193.11 250.6 193.19 250.584L193.28 250.628C183.67 267.182 174.11 268.383 157.63 275.117C149.83 270.709 141.54 268.149 132.54 267.304C130.21 267.084 128.05 266.762 125.76 267.345C123.06 268.029 120.5 269.111 117.93 270.139C110.4 273.154 102.97 276.654 97.3197 282.502C96.2397 283.623 92.2198 288.99 91.7598 289.268C87.0998 287.672 82.6697 284.927 78.3397 282.634C74.0197 280.343 69.7298 278.046 65.5198 275.564C63.6698 274.469 61.7098 273.413 60.0498 272.049L60.6598 270.829Z" fill="#FD6626"/>
<path d="M91.7598 289.268C92.2198 288.99 96.2397 283.623 97.3197 282.502C102.97 276.654 110.4 273.154 117.93 270.139C120.5 269.111 123.06 268.029 125.76 267.344C128.05 266.761 130.21 267.084 132.54 267.304C141.54 268.149 149.83 270.709 157.63 275.117C154.58 276.576 151.4 277.806 148.38 279.328L148.22 279.381C144.35 280.717 140.56 282.758 136.85 284.48C132.62 286.439 128.31 288.23 124.09 290.196C122.09 291.127 117.34 293.739 115.37 294.011C110.5 294.686 96.8198 290.95 91.7598 289.268Z" fill="#ED460C"/>
<path d="M173.779 18.897C176.169 16.642 178.639 14.587 181.569 13.008C184.409 11.483 187.489 10.361 190.489 9.16998C194.189 7.70898 197.869 6.20898 201.539 4.66998C210.129 1.07998 218.659 -2.65202 227.339 -6.04602C231.809 -7.79202 236.299 -9.56498 240.929 -10.889C243.489 -11.622 245.989 -11.912 248.649 -11.959C238.539 2.49802 228.819 13.93 211.909 21.069C207.519 22.922 203.049 24.459 198.349 25.34C192.849 26.371 181.539 27.17 176.739 24.005C174.989 22.849 174.109 20.866 173.779 18.897Z" fill="#FB9735"/>
<path d="M213.93 6.42201C214.79 6.36201 215.68 6.24899 216.52 6.53999C216.99 6.70699 217.44 7.01098 217.61 7.49598C217.84 8.15598 217.55 8.95398 217.23 9.53498C216.2 11.356 214.34 12.244 212.38 12.818C211.48 12.887 210.54 13.011 209.67 12.689C209.2 12.514 208.77 12.188 208.63 11.698C208.45 11.086 208.7 10.356 209.01 9.82203C210.05 8.00003 211.93 6.96601 213.93 6.42201Z" fill="#FD6626"/>
<path d="M114.439 156.513C121.079 154.972 126.009 154.56 132.809 155.353C139.119 156.278 146.699 159.09 151.529 163.263C149.739 169.675 147.189 175.887 145.469 182.315C143.909 183.237 131.399 182.452 128.299 183.145C122.309 186.809 116.819 191.254 110.889 195.008C110.929 200.186 111.149 205.435 110.939 210.606C109.329 211.198 107.769 212.183 106.269 212.997C103.649 214.415 100.969 215.814 98.4493 217.386C97.2093 216.129 96.2494 214.616 95.0494 213.317C94.2894 211.377 92.8894 209.639 92.0094 207.736C91.8194 207.322 91.6393 206.905 91.4593 206.486C91.2893 206.066 91.1193 205.644 90.9593 205.219C90.7993 204.794 90.6394 204.367 90.4994 203.937C90.3494 203.507 90.2093 203.075 90.0793 202.641C89.9493 202.207 89.8193 201.771 89.6993 201.332C89.5893 200.894 89.4794 200.454 89.3694 200.013C89.2694 199.571 89.1693 199.128 89.0893 198.683C88.9993 198.239 88.9194 197.793 88.8494 197.346C88.7694 196.899 88.7094 196.45 88.6494 196.001C88.5894 195.552 88.5394 195.102 88.4994 194.651C88.4594 194.2 88.4194 193.749 88.3994 193.297C88.3694 192.845 88.3493 192.393 88.3393 191.94C88.3293 191.488 88.3193 191.035 88.3293 190.583C88.3293 190.13 88.3394 189.677 88.3594 189.225C88.3794 188.773 88.3993 188.321 88.4393 187.87C88.4693 187.418 88.5094 186.967 88.5594 186.517C88.8094 184.676 89.1094 182.879 89.6694 181.101C90.6694 176.039 94.4394 170.103 97.7193 166.073C101.859 161.869 108.899 158.362 114.439 156.513Z" fill="#ED6422"/>
<path d="M100.81 173.186C103.13 172.66 105.53 172.377 107.87 171.967C112.51 171.155 117.2 170.296 121.8 169.272C122.37 169.144 123.22 168.785 123.72 169.057C124.99 173.745 126.55 178.603 128.3 183.145C122.31 186.809 116.82 191.254 110.89 195.008C105.24 191.618 100.71 186.321 95.0498 183.009L95.0598 182.843C97.3098 179.829 98.8698 176.375 100.81 173.186Z" fill="#FD6626"/>
<path d="M132.81 155.354C139.12 156.279 146.7 159.089 151.53 163.263C149.74 169.674 147.19 175.888 145.47 182.315C143.91 183.238 131.4 182.452 128.3 183.144C126.55 178.603 124.99 173.745 123.72 169.057C124.24 167.792 126.4 165.232 127.31 163.878C129.15 161.109 130.7 157.92 132.81 155.354Z" fill="#ED460C"/>
<path d="M147 80.636C149.01 86.789 153.029 90.14 158.829 93.05C170.999 99.156 185.02 98.629 194.75 109.124C196.89 111.431 198.71 114.041 199.68 117.019C201.56 122.788 200.599 128.869 197.699 134.154C191.299 145.855 171.369 155.855 159.469 162.319C157.639 163.312 155.609 164.106 153.839 165.167C153.129 164.45 152.35 163.865 151.53 163.263C146.7 159.09 139.12 156.278 132.81 155.353C126.01 154.56 121.079 154.972 114.439 156.513C115.689 154.181 117.769 151.717 119.229 149.388C120.929 146.671 122.4 143.806 123.91 140.987C125.87 137.311 127.81 133.691 129.38 129.838C131.49 124.662 133.169 119.579 134.329 114.124C137.189 100.74 136.91 91.722 147 80.636Z" fill="#FB9735"/>
<path d="M170.099 129.101C171.309 128.997 172.459 128.883 173.569 129.436C174.649 129.97 175.379 130.906 175.719 132.024C176.119 133.32 176.019 134.84 175.309 136.024C174.529 137.352 173.399 137.901 171.919 138.294C170.639 138.393 169.429 138.416 168.259 137.826C168.129 137.763 167.999 137.693 167.879 137.618C167.759 137.542 167.649 137.461 167.529 137.374C167.419 137.288 167.309 137.196 167.209 137.099C167.099 137.002 167.009 136.9 166.909 136.794C166.819 136.687 166.729 136.576 166.649 136.462C166.569 136.347 166.489 136.228 166.419 136.106C166.349 135.984 166.289 135.859 166.229 135.731C166.179 135.603 166.129 135.472 166.079 135.34C166.029 135.189 165.989 135.036 165.959 134.882C165.929 134.727 165.899 134.571 165.879 134.414C165.869 134.257 165.859 134.1 165.859 133.942C165.859 133.784 165.859 133.626 165.879 133.469C165.889 133.311 165.919 133.155 165.949 133C165.979 132.845 166.019 132.692 166.069 132.541C166.109 132.39 166.169 132.241 166.229 132.095C166.289 131.949 166.359 131.807 166.439 131.668C167.249 130.248 168.539 129.519 170.099 129.101Z" fill="#D2340C"/>
<path d="M30.8696 178.551L32.5695 178.321C32.8895 178.92 34.6996 179.35 35.3796 179.559C42.4396 181.728 49.8696 181.835 57.1196 182.982L57.2296 182.936C59.8696 183.326 62.6696 183.278 65.3396 183.325C74.4796 183.484 80.7196 183.165 89.6696 181.101C89.1096 182.879 88.8096 184.676 88.5596 186.517C88.5096 186.967 88.4695 187.418 88.4395 187.87C88.3995 188.321 88.3796 188.773 88.3596 189.225C88.3396 189.677 88.3295 190.13 88.3295 190.583C88.3195 191.035 88.3296 191.488 88.3396 191.94C88.3496 192.393 88.3696 192.845 88.3996 193.297C88.4196 193.749 88.4596 194.2 88.4996 194.651C88.5396 195.102 88.5896 195.552 88.6496 196.001C88.7096 196.45 88.7696 196.899 88.8496 197.346C88.9196 197.793 88.9996 198.239 89.0896 198.683C89.1696 199.128 89.2696 199.571 89.3696 200.013C89.4796 200.454 89.5895 200.894 89.6995 201.332C89.8195 201.771 89.9495 202.207 90.0795 202.641C90.2095 203.075 90.3496 203.507 90.4996 203.937C90.6396 204.367 90.7995 204.794 90.9595 205.219C91.1195 205.644 91.2896 206.066 91.4595 206.486C91.6395 206.905 91.8196 207.322 92.0096 207.736C92.8896 209.639 94.2896 211.377 95.0496 213.317C95.0496 213.375 95.0496 213.434 95.0596 213.493C95.2696 216.456 96.5296 219.592 97.2196 222.49C99.2796 231.104 99.3996 241.629 93.1296 248.723C88.6796 253.753 82.6496 255.651 76.7496 258.54C71.8596 260.939 63.4796 266.383 60.6596 270.828L60.0496 272.049C58.4896 270.04 57.3696 267.516 56.1396 265.296C54.1396 261.697 52.1195 258.112 50.0695 254.541C43.1295 242.327 36.1296 230.149 29.0496 218.007C28.8296 213.188 29.5596 207.332 29.7796 202.418C30.1496 194.481 30.2196 186.467 30.8696 178.551Z" fill="#FB9735"/>
<path d="M30.8696 178.551L32.5695 178.321C32.8895 178.92 34.6996 179.35 35.3796 179.559C42.4396 181.728 49.8696 181.835 57.1196 182.982C55.2396 184.978 53.5396 187.13 51.7496 189.202C46.1596 195.776 40.7196 202.464 35.4296 209.266C33.9996 211.131 32.6196 213.026 31.2696 214.951C30.5596 215.951 29.8896 217.103 29.0496 218.007C28.8296 213.188 29.5596 207.332 29.7796 202.418C30.1496 194.481 30.2196 186.467 30.8696 178.551Z" fill="#FEC656"/>
<path d="M68.1094 219.258C71.0994 218.875 74.1794 219.296 76.7294 220.913C79.5994 222.731 81.3794 225.665 82.0394 228.884C82.0994 229.152 82.1394 229.421 82.1794 229.691C82.2194 229.961 82.2494 230.231 82.2794 230.503C82.2994 230.775 82.3193 231.047 82.3293 231.319C82.3393 231.591 82.3494 231.864 82.3494 232.136C82.3394 232.409 82.3293 232.682 82.3193 232.954C82.2993 233.226 82.2794 233.498 82.2494 233.769C82.2194 234.04 82.1794 234.31 82.1394 234.58C82.0994 234.849 82.0494 235.117 81.9894 235.384C81.9294 235.651 81.8694 235.916 81.7994 236.18C81.7294 236.445 81.6493 236.707 81.5693 236.967C81.4793 237.227 81.3894 237.486 81.2994 237.741C81.1994 237.998 81.0994 238.251 80.9894 238.502C80.8794 238.754 80.7594 239.002 80.6394 239.248C80.5194 239.493 80.3894 239.736 80.2494 239.975C80.1194 240.215 79.9793 240.451 79.8293 240.684C79.6893 240.917 79.5294 241.146 79.3794 241.372C76.6694 245.251 72.8494 247.776 68.1094 248.692C64.9794 249.161 61.4094 248.757 58.7294 247.031C55.9794 245.265 54.3394 242.368 53.7394 239.276C52.8794 234.767 54.1294 230.121 56.8394 226.386C59.5794 222.604 63.3894 220.032 68.1094 219.258Z" fill="#ED460C"/>
<path d="M145.179 62.703C145.459 64.43 145.429 66.287 145.479 68.035C145.589 72.254 145.699 76.567 146.999 80.636C136.909 91.722 137.189 100.74 134.329 114.125C133.169 119.579 131.489 124.662 129.379 129.838C127.809 133.691 125.869 137.311 123.909 140.987C122.399 143.806 120.929 146.671 119.229 149.388C117.769 151.717 115.689 154.181 114.439 156.513C108.899 158.362 101.859 161.869 97.7194 166.073C94.4394 170.103 90.6694 176.039 89.6694 181.101C80.7194 183.165 74.4794 183.484 65.3394 183.325C62.6694 183.278 59.8694 183.326 57.2294 182.936L57.1194 182.982C49.8694 181.835 42.4394 181.728 35.3794 179.559C34.6994 179.35 32.8893 178.92 32.5693 178.321C34.3093 177.88 36.0294 177.341 37.7094 176.702C49.4694 172.261 57.6694 164.411 62.7294 153.236C62.9294 151.015 63.8194 148.7 64.0594 146.367C64.3094 144.023 64.3294 141.788 64.0194 139.453C63.5894 136.159 60.1294 122.818 58.1694 120.488C59.6294 119.951 61.0594 119.18 62.4894 118.561C66.1194 117.006 69.7394 115.413 73.3494 113.779C79.3494 111.069 85.4294 108.534 91.4094 105.785C92.6494 105.083 94.1393 104.568 95.4493 103.98C98.2893 102.707 101.089 101.424 103.819 99.948C107.319 98.057 110.819 96.199 114.119 93.983C125.579 86.278 135.129 75.68 143.449 64.937C143.969 64.161 144.589 63.437 145.179 62.703Z" fill="#FEC656"/>
<path d="M62.7294 153.236C64.8694 151.163 64.8293 147.051 65.5693 144.383C65.9293 143.07 66.5494 141.794 67.2194 140.608C72.3994 131.496 81.0694 127.189 91.0094 124.407C89.0394 144.731 78.4993 157.71 65.8193 173.04C63.7093 175.59 58.6294 180.535 57.2294 182.936L57.1194 182.982C49.8694 181.835 42.4394 181.727 35.3794 179.559C34.6994 179.35 32.8893 178.92 32.5693 178.32C34.3093 177.88 36.0294 177.341 37.7094 176.702C49.4694 172.261 57.6694 164.411 62.7294 153.236Z" fill="#FEE488"/>
<path d="M91.4092 105.784C92.6492 105.082 94.1391 104.567 95.4491 103.979C98.2891 102.706 101.089 101.424 103.819 99.948C107.319 98.057 110.819 96.198 114.119 93.982C125.579 86.277 135.129 75.679 143.449 64.938C143.499 65.11 143.609 65.277 143.599 65.458C143.579 65.933 141.919 69.964 141.639 70.984C140.429 75.305 139.349 79.657 138.399 84.039C137.539 87.837 136.789 91.659 135.639 95.388C134.719 98.377 133.579 101.36 132.039 104.106C126.959 113.192 116.039 117.892 106.289 120.638C104.479 121.148 92.4291 124.656 91.1191 124.083C91.9791 118.58 93.2592 111.181 91.4092 105.784Z" fill="#FB9735"/>
<path d="M211.82 138.478C208.72 134.759 206.31 114.254 206.48 109.358C206.56 106.81 207.03 104.056 208.18 101.741C209.58 98.919 211.97 96.626 214.47 94.69C224.37 87.002 236.79 84.554 248.8 81.644C253.81 80.431 258.86 79.09 263.74 77.473C270.2 75.333 276.9 72.332 281.92 67.762C285.94 64.096 289 59.912 290.94 54.891C294.7 45.171 291.6 39.674 286.26 31.588C284.92 29.565 283.54 27.614 283.69 25.09C283.72 24.565 283.81 24.182 284.23 23.811C285.45 23.424 286.94 23.838 288.05 24.398C290.66 25.724 293.04 27.936 295.5 29.554C303.68 34.933 312.66 39.12 322.53 40.555C322.59 40.582 322.66 40.611 322.73 40.637C323.33 40.868 324.12 40.875 324.77 40.939C329.39 41.396 334.99 39.676 337.5 44.746C339.47 48.715 339.35 53.661 340.65 57.88C341.4 60.315 342.79 62.139 344.27 64.192C345.43 65.8 346.56 67.462 347.84 68.986C350.78 72.499 354.05 75.757 356.95 79.297C356.96 81.928 356.34 84.694 355.96 87.302C354.94 94.036 353.69 100.729 352.21 107.383C350.86 113.709 349.59 120.255 346.95 126.213C345.52 129.444 343.69 132.013 341.12 134.507C339.09 136.488 336.58 137.998 334.66 140.08C328.02 146.469 320.18 156.322 316.74 164.825C313.26 171.621 309.56 179.903 302.97 184.378C299.34 186.841 294.87 188.442 290.68 189.808C286.07 191.313 281.29 192.304 276.56 193.369C268.83 195.105 261.22 196.887 253.89 199.882C251.94 200.678 249.63 201.555 247.9 202.718C242.82 205.353 238.18 208.607 233.2 211.389C230.47 212.913 227.61 214.169 224.81 215.572C218.93 218.527 212.01 222.471 207.35 227.058C205.75 228.632 204.38 230.416 203.11 232.248C199.8 237.039 197.91 242.62 195.08 247.675C194.55 248.612 194 249.84 193.28 250.628L193.19 250.583C193.11 250.6 193.03 250.595 192.97 250.633C192.78 250.754 190.59 254.457 190.26 254.94C189.52 256.029 188.71 257.079 187.87 258.1C186.78 259.432 181.13 265.042 179.73 265.199C179.52 265.125 179.3 265.059 179.08 264.982C177.87 264.548 176.57 264.845 175.31 264.633C174.28 263.272 174.25 264.146 172.96 263.769C171.72 263.404 168.48 259.217 167.21 258.158C166.76 257.778 166.2 257.603 165.69 257.311C163.95 256.313 159.11 253.635 157.34 253.089C157.17 253.283 157.03 253.468 156.88 253.683C156.69 253.958 156.66 254.012 156.31 254.056C155.61 254.143 153.71 253.884 153.16 253.482C152.95 253.324 153 253.197 152.97 252.959C153.11 252.749 153.22 252.634 153.24 252.379C152.92 252.338 152.78 252.309 152.51 252.124C152.15 251.877 151.96 251.781 151.52 251.744C151.42 251.736 151.32 251.729 151.22 251.722C152.54 247.738 153.92 241.26 155.91 237.859C156.66 236.571 157.63 235.468 158.62 234.349C159.25 233.641 159.8 232.832 160.51 232.203C166.16 227.249 174.4 225.282 181.2 222.249C185.86 220.174 190.52 217.478 194.67 214.572C196.05 213.612 198.39 212.266 199.48 211.081C199.52 211.035 199.56 210.982 199.6 210.933C201.37 209.95 203.07 208.204 204.55 206.834C210.33 201.464 215.6 195.784 219.36 188.874C225.6 177.398 225.6 168.679 221.19 156.569C220.4 154.411 219.06 152.4 218.38 150.236C218.37 150.192 218.36 150.147 218.34 150.102L218 149.577C217.08 148.389 216.3 147.103 215.49 145.84C213.91 143.832 212.48 140.914 211.82 138.478Z" fill="#C32505"/>
<path d="M211.82 138.478C211.78 137.124 211.4 135.742 211.18 134.403C210.95 132.902 210.81 131.393 210.76 129.876C210.44 121.805 213.24 113.592 218.98 107.636C224.78 101.607 232.36 98.487 240.83 98.206C246.72 98.011 252.1 99.842 257.21 102.548C258.92 103.455 260.72 104.461 262.15 105.76C259.69 110.816 256.56 115.539 254.4 120.749C254.34 120.778 254.28 120.808 254.22 120.836C250.17 122.701 245.08 122.842 240.72 123.616C232.01 125.163 229.35 127.489 225.8 134.958C224.61 137.515 223.37 140.053 222.09 142.571C221.52 143.694 221.03 144.96 220.36 146.022C218.74 145.981 217.11 145.92 215.49 145.84C213.91 143.833 212.48 140.914 211.82 138.478Z" fill="#AB2E08"/>
<path d="M243.509 99.92C244.149 101.048 244.099 103.181 244.319 104.493C242.449 106.318 240.109 107.911 238.049 109.557C231.739 114.594 225.319 119.311 218.719 123.97C218.559 124.076 218.669 124.02 218.369 124.084C218.379 123.899 218.379 123.856 218.439 123.652C219.249 120.934 223.349 115.763 225.059 113.143C226.129 111.494 227.079 108.927 228.639 107.69C230.209 106.456 232.409 105.671 234.189 104.774C237.329 103.215 240.439 101.597 243.509 99.92Z" fill="#ED6422"/>
<path d="M262.149 105.76C269.049 111.663 273.559 119.515 274.119 128.507C274.209 129.801 274.279 131.261 274.019 132.534C273.669 139.828 269.359 147.501 263.849 152.362C258.999 156.641 253.619 159.231 247.269 160.764C245.359 161.007 243.489 161.245 241.559 161.244C241.109 161.243 240.659 161.233 240.219 161.213C239.769 161.193 239.319 161.162 238.869 161.122C238.429 161.082 237.979 161.031 237.539 160.971C237.099 160.911 236.649 160.84 236.209 160.76C235.769 160.68 235.329 160.59 234.899 160.49C234.459 160.39 234.029 160.281 233.599 160.162C233.169 160.042 232.739 159.913 232.309 159.775C231.889 159.637 231.469 159.489 231.049 159.331C230.629 159.174 230.219 159.007 229.809 158.832C229.399 158.656 228.989 158.471 228.589 158.277C228.189 158.083 227.799 157.88 227.409 157.668C227.019 157.456 226.629 157.235 226.249 157.006C225.869 156.777 225.489 156.54 225.119 156.294C224.749 156.048 224.389 155.794 224.029 155.531C223.679 155.269 223.329 154.999 222.979 154.721C222.639 154.443 222.299 154.158 221.969 153.865C220.699 152.751 219.669 151.384 218.459 150.212L218.339 150.103L217.999 149.577C217.079 148.389 216.299 147.103 215.489 145.84C217.109 145.921 218.739 145.981 220.359 146.022C221.029 144.96 221.519 143.694 222.089 142.571C223.369 140.053 224.609 137.515 225.799 134.958C229.349 127.49 232.009 125.163 240.719 123.616C245.079 122.842 250.169 122.701 254.219 120.836C254.279 120.808 254.339 120.778 254.399 120.749C256.559 115.539 259.689 110.816 262.149 105.76Z" fill="#891404"/>
<path d="M257.8 131.651C261.36 131.614 264.94 131.367 268.49 131.203C270.21 131.124 272.03 130.912 273.74 131.066C274.05 131.474 274 132.036 274.02 132.534C273.67 139.828 269.36 147.501 263.85 152.362C259 156.641 253.62 159.231 247.27 160.764C247.1 159.133 246.44 157.392 245.96 155.82C245.12 153.053 244.26 150.308 243.64 147.486C244.53 145.83 256.1 132.993 257.8 131.651Z" fill="#570F16"/>
</g>
</g>
</g>
</g>
<defs>
<clipPath id="clip0_431_3369">
<rect y="0.0668945" width="275" height="330" rx="25" fill="white"/>
</clipPath>
<clipPath id="clip1_431_3369">
<rect width="345.067" height="345.067" fill="white" transform="translate(20 -35)"/>
</clipPath>
</defs>
</svg>
