<svg width="379" height="405" viewBox="0 0 379 405" fill="none" xmlns="http://www.w3.org/2000/svg">
<g clip-path="url(#clip0_242_7051)">
<path d="M88.4705 105.099C85.9694 103.798 84.2578 101.187 84.2578 98.1744C84.2578 93.8627 87.7536 90.3687 92.0636 90.3687C94.154 90.3687 96.0479 91.1953 97.4498 92.5316C94.0991 96.5053 91.0989 100.706 88.4705 105.099Z" fill="#E0F9FE"/>
<path d="M88.1218 94.9231C88.1218 93.1194 89.0156 91.5282 90.3803 90.5547C86.8792 91.3264 84.2578 94.4417 84.2578 98.1746C84.2578 101.187 85.9677 103.798 88.4687 105.099C89.5059 103.366 90.6033 101.665 91.7538 99.9942C89.644 99.2738 88.1218 97.2772 88.1218 94.9231Z" fill="#83D3FC"/>
<path d="M289.532 105.099C292.031 103.798 293.743 101.187 293.743 98.1744C293.743 93.8627 290.247 90.3687 285.937 90.3687C283.847 90.3687 281.953 91.1953 280.551 92.5316C283.901 96.5053 286.902 100.706 289.532 105.099Z" fill="#E0F9FE"/>
<path d="M292.59 100.449C289.585 100.449 287.148 98.0116 287.148 95.0043C287.148 93.4025 287.843 91.967 288.944 90.9705C288.018 90.5828 287.003 90.3687 285.937 90.3687C283.847 90.3687 281.953 91.1953 280.551 92.5316C283.901 96.5053 286.902 100.706 289.532 105.097C291.396 104.127 292.821 102.43 293.424 100.378C293.152 100.421 292.875 100.449 292.59 100.449Z" fill="#83D3FC"/>
<path d="M220.838 33.3939C219.449 36.0242 216.252 37.0773 213.578 35.8082C197.959 28.4025 180.043 28.4025 164.424 35.8082C161.757 37.0738 158.558 36.0312 157.164 33.3939C144.482 40.8404 134.63 52.5898 129.633 66.6455C130.27 66.5092 130.93 66.4349 131.608 66.4349H246.394C247.072 66.4349 247.732 66.5092 248.369 66.6455C243.372 52.5898 233.521 40.8404 220.838 33.3939Z" fill="#B9E9FD"/>
<path d="M181.195 65.5124C177.983 46.536 183.788 36.7425 187.033 32.9263C187.67 32.1741 187.941 31.2094 187.838 30.2695C179.843 30.4341 171.873 32.2767 164.424 35.8079C161.757 37.0735 158.558 36.0309 157.164 33.3936C144.482 40.8401 134.63 52.5895 129.633 66.6452C130.27 66.5089 130.93 66.4346 131.608 66.4346H181.335C181.287 66.1266 181.248 65.8239 181.195 65.5124Z" fill="#83D3FC"/>
<path d="M213.281 36.4344C197.947 29.1631 180.074 29.1543 164.722 36.4344C161.614 37.9088 157.897 36.5831 156.423 33.4731C154.948 30.365 156.274 26.6479 159.384 25.1753C178.096 16.3004 199.884 16.2898 218.619 25.1753C221.729 26.6497 223.055 30.365 221.581 33.4731C220.113 36.5671 216.405 37.9141 213.281 36.4344Z" fill="#D0F6FA"/>
<path d="M159.384 25.1757C156.274 26.6501 154.948 30.3654 156.423 33.4736C157.897 36.5835 161.614 37.9092 164.722 36.4348C172.041 32.9638 179.934 31.1531 187.853 30.9938C187.92 30.3017 187.782 29.5901 187.426 28.9547C185.111 24.8217 189.002 21.9773 189.002 21.9773V18.5151C178.87 18.5151 168.742 20.7365 159.384 25.1757Z" fill="#B9E9FD"/>
<path d="M122.082 75.0372V78.8976H255.92V75.0372C255.92 69.7997 251.633 65.5127 246.394 65.5127H131.608C126.369 65.5127 122.082 69.7997 122.082 75.0372Z" fill="#5294E5"/>
<path d="M184.617 65.5127H131.608C126.369 65.5127 122.082 69.7997 122.082 75.0372V78.8976H175.092V75.0372C175.092 69.7997 179.378 65.5127 184.617 65.5127Z" fill="#4374D3"/>
<path d="M141.657 84.6659C139.746 84.6659 138.195 83.1154 138.195 81.2037V65.8276C138.195 63.916 139.746 62.3672 141.657 62.3672C143.569 62.3672 145.118 63.916 145.118 65.8276V81.2037C145.118 83.1154 143.569 84.6659 141.657 84.6659Z" fill="#5294E5"/>
<path d="M165.329 84.6659C163.416 84.6659 161.867 83.1154 161.867 81.2037V65.8276C161.867 63.916 163.416 62.3672 165.329 62.3672C167.241 62.3672 168.79 63.916 168.79 65.8276V81.2037C168.79 83.1154 167.239 84.6659 165.329 84.6659Z" fill="#5294E5"/>
<path d="M188.997 84.6654C187.086 84.6654 185.535 83.1149 185.535 81.2032V65.8271C185.535 63.9155 187.086 62.3667 188.997 62.3667C190.909 62.3667 192.459 63.9155 192.459 65.8271V81.2032C192.458 83.1149 190.909 84.6654 188.997 84.6654Z" fill="#61B6FF"/>
<path d="M212.669 84.6654C210.758 84.6654 209.207 83.1149 209.207 81.2032V65.8271C209.207 63.9155 210.758 62.3667 212.669 62.3667C214.581 62.3667 216.13 63.9155 216.13 65.8271V81.2032C216.13 83.1149 214.581 84.6654 212.669 84.6654Z" fill="#61B6FF"/>
<path d="M236.339 84.6654C234.428 84.6654 232.879 83.1149 232.879 81.2032V65.8271C232.879 63.9155 234.428 62.3667 236.339 62.3667C238.251 62.3667 239.801 63.9155 239.801 65.8271V81.2032C239.801 83.1149 238.251 84.6654 236.339 84.6654Z" fill="#61B6FF"/>
<path d="M296.954 119.446C291.576 105.201 282.462 92.393 270.601 81.8738C267.78 79.3727 264.15 77.9727 260.38 77.9727H117.617C113.847 77.9727 110.216 79.3727 107.395 81.8738C95.5323 92.393 86.4203 105.201 81.043 119.446H296.954Z" fill="#61B6FF"/>
<path d="M176.47 77.9731H117.619C113.849 77.9731 110.218 79.3732 107.397 81.8743C95.5341 92.3935 86.4221 105.201 81.043 119.446H151.897C155.511 105.201 161.632 92.3935 169.602 81.8743C171.496 79.3732 173.935 77.9731 176.47 77.9731Z" fill="#5294E5"/>
<path d="M276.989 99.3336C278.113 103.003 281.007 105.899 284.677 107.023C284.977 108.628 286.385 109.844 288.077 109.844C289.611 109.844 290.909 108.842 291.362 107.46C287.792 101.075 283.438 95.0785 278.397 89.5596C277.795 90.4694 277.315 91.4677 276.989 92.535C275.384 92.8341 274.168 94.2413 274.168 95.9334C274.168 97.6273 275.384 99.0327 276.989 99.3336Z" fill="#4374D3"/>
<path d="M81.0469 130.062C84.5055 139.223 89.5093 147.786 95.7929 155.532C97.6992 157.881 100.579 159.226 103.604 159.226H274.402C277.427 159.226 280.305 157.881 282.211 155.532C288.497 147.786 293.501 139.223 296.959 130.062H81.0469Z" fill="#00C82F"/>
<path d="M161.806 155.532C157.584 147.786 154.223 139.223 151.899 130.062H81.0469C84.5055 139.223 89.5093 147.786 95.7929 155.532C97.6992 157.881 100.579 159.226 103.604 159.226H167.054C165.022 159.226 163.087 157.881 161.806 155.532Z" fill="#04AF24"/>
<path d="M298.77 130.985H79.2305C75.7896 130.985 73 128.196 73 124.755C73 121.314 75.7896 118.524 79.2305 118.524H298.77C302.21 118.524 305 121.314 305 124.755C305 128.196 302.21 130.985 298.77 130.985Z" fill="#A2EC00"/>
<path d="M147.201 124.755C147.201 121.314 149.991 118.524 153.431 118.524H79.2305C75.7896 118.524 73 121.314 73 124.755C73 128.196 75.7896 130.985 79.2305 130.985H153.431C149.989 130.985 147.201 128.196 147.201 124.755Z" fill="#00C82F"/>
<path d="M305 124.755C305 121.314 302.211 118.524 298.77 118.524H275.492C272.049 118.524 269.262 121.314 269.262 124.755C269.262 128.196 272.049 130.985 275.492 130.985H298.77C302.211 130.985 305 128.196 305 124.755Z" fill="#D7F9B7"/>
<path d="M235.4 169.834V165.975H142.602V169.834C142.602 175.073 146.887 179.36 152.126 179.36H225.876C231.115 179.36 235.4 175.073 235.4 169.834Z" fill="#00C82F"/>
<path d="M167.053 169.834V165.975H142.602V169.834C142.602 175.073 146.887 179.36 152.126 179.36H176.577C171.34 179.36 167.053 175.073 167.053 169.834Z" fill="#04AF24"/>
<path d="M241.013 167.995H136.986C134.437 167.995 132.371 165.927 132.371 163.379C132.371 160.83 134.437 158.764 136.986 158.764H241.013C243.562 158.764 245.628 160.83 245.628 163.379C245.628 165.927 243.562 167.995 241.013 167.995Z" fill="#A2EC00"/>
<path d="M245.628 163.379C245.628 160.83 243.562 158.764 241.013 158.764H228.536C225.987 158.764 223.922 160.83 223.922 163.379C223.922 165.927 225.987 167.995 228.536 167.995H241.013C243.562 167.995 245.628 165.927 245.628 163.379Z" fill="#D7F9B7"/>
<path d="M160.907 163.379C160.907 160.83 162.973 158.764 165.522 158.764H136.986C134.437 158.764 132.371 160.83 132.371 163.379C132.371 165.927 134.437 167.995 136.986 167.995H165.522C162.973 167.995 160.907 165.927 160.907 163.379Z" fill="#00C82F"/>
<path d="M251.608 98.1743C251.608 96.4803 250.392 95.075 248.787 94.774C247.663 91.1048 244.767 88.2108 241.098 87.0851C240.797 85.4797 239.392 84.2637 237.698 84.2637C236.006 84.2637 234.599 85.4797 234.299 87.0851C230.628 88.209 227.734 91.103 226.61 94.774C225.005 95.0732 223.789 96.4803 223.789 98.1743C223.789 99.8664 225.005 101.274 226.61 101.573C227.734 105.242 230.628 108.138 234.299 109.262C234.599 110.867 236.006 112.083 237.698 112.083C239.392 112.083 240.797 110.867 241.098 109.262C244.767 108.138 247.663 105.244 248.787 101.573C250.392 101.274 251.608 99.8664 251.608 98.1743Z" fill="#5294E5"/>
<path d="M226.61 94.7746C225.005 95.0755 223.789 96.4809 223.789 98.1748C223.789 99.8669 225.005 101.274 226.61 101.575C227.734 105.244 230.628 108.138 234.299 109.262C234.599 110.868 236.006 112.084 237.698 112.084C239.392 112.084 240.797 110.868 241.098 109.262C242.564 108.814 243.902 108.078 245.058 107.129C241.905 107.129 242.702 104.165 242.702 104.165L235.466 90.6947C232.749 89.3389 234.299 87.0874 234.299 87.0874C230.628 88.2096 227.734 91.1053 226.61 94.7746Z" fill="#4374D3"/>
<path d="M245.502 98.1744C245.502 102.484 242.008 105.98 237.696 105.98C233.386 105.98 229.891 102.484 229.891 98.1744C229.891 93.8627 233.386 90.3687 237.696 90.3687C242.008 90.3687 245.502 93.8627 245.502 98.1744Z" fill="#E0F9FE"/>
<path d="M240.463 100.445C237.68 100.445 235.425 98.1886 235.425 95.4061C235.425 93.0449 237.052 91.0696 239.245 90.5226C238.744 90.4218 238.227 90.3687 237.696 90.3687C233.386 90.3687 229.891 93.8627 229.891 98.1744C229.891 102.484 233.386 105.978 237.696 105.978C242.008 105.978 245.502 102.484 245.502 98.1744C245.502 97.6434 245.449 97.1266 245.348 96.6257C244.801 98.8187 242.826 100.445 240.463 100.445Z" fill="#83D3FC"/>
<path d="M289.044 99.1285C288.067 98.2878 287.396 97.1072 287.206 95.769C286.233 94.6522 284.98 93.7725 283.535 93.2485L280.804 92.2573C280.804 92.2573 278.503 101.419 289.879 104.904L289.336 100.522C289.275 100.044 289.175 99.5799 289.044 99.1285Z" fill="#83D3FC"/>
<path d="M101.013 99.3336C99.8892 103.003 96.9952 105.899 93.326 107.023C93.0251 108.628 91.6179 109.844 89.9258 109.844C88.3912 109.844 87.0938 108.842 86.6406 107.46C90.2108 101.075 94.565 95.0785 99.606 89.5596C100.206 90.4694 100.688 91.4677 101.013 92.535C102.619 92.8341 103.835 94.2413 103.835 95.9334C103.835 97.6273 102.619 99.0327 101.013 99.3336Z" fill="#4374D3"/>
<path d="M94.467 93.2485L97.1999 92.2573C97.1999 92.2573 99.4991 101.419 88.125 104.904L88.6684 100.522C89.0808 97.1921 91.327 94.3867 94.467 93.2485Z" fill="#E0F9FE"/>
<path d="M93.4882 100.286C91.7748 100.286 90.2543 99.4806 89.272 98.231C88.9746 98.9531 88.7675 99.7213 88.6684 100.521L88.125 104.904C92.1075 103.684 94.4103 101.767 95.7272 99.7903C95.044 100.105 94.2882 100.286 93.4882 100.286Z" fill="#83D3FC"/>
<path d="M189.001 21.9771C187.09 21.9771 185.539 20.4283 185.539 18.515V9.75336C185.539 7.84174 187.09 6.29297 189.001 6.29297C190.913 6.29297 192.463 7.84174 192.463 9.75336V18.515C192.462 20.4283 190.913 21.9771 189.001 21.9771Z" fill="#83D3FC"/>
<path d="M189.001 13.4455C186.452 13.4455 184.387 11.3799 184.387 8.83105V5.06268C184.387 2.51385 186.452 0.448242 189.001 0.448242C191.55 0.448242 193.616 2.51385 193.616 5.06268V8.83105C193.616 11.3799 191.55 13.4455 189.001 13.4455Z" fill="#FC7ACD"/>
<path d="M189.001 7.85425C186.764 7.85425 184.9 6.263 184.477 4.15137C184.419 4.44696 184.387 4.7514 184.387 5.0647V8.8313C184.387 11.3801 186.452 13.4457 189.001 13.4457C191.55 13.4457 193.616 11.3801 193.616 8.8313V5.06293C193.616 4.7514 193.584 4.44519 193.525 4.15137C193.102 6.263 191.237 7.85425 189.001 7.85425Z" fill="#F948B4"/>
<path d="M202.907 98.1743C202.907 96.4803 201.691 95.075 200.086 94.774C198.962 91.1048 196.068 88.2108 192.399 87.0851C192.098 85.4797 190.691 84.2637 188.999 84.2637C187.307 84.2637 185.899 85.4797 185.598 87.0851C181.929 88.209 179.035 91.103 177.911 94.774C176.306 95.0732 175.09 96.4803 175.09 98.1743C175.09 99.8664 176.304 101.274 177.911 101.573C179.035 105.242 181.929 108.138 185.598 109.262C185.899 110.867 187.307 112.083 188.999 112.083C190.691 112.083 192.098 110.867 192.399 109.262C196.068 108.138 198.962 105.244 200.086 101.573C201.691 101.274 202.907 99.8664 202.907 98.1743Z" fill="#5294E5"/>
<path d="M177.911 94.7746C176.306 95.0755 175.09 96.4809 175.09 98.1748C175.09 99.8669 176.304 101.274 177.911 101.575C179.035 105.244 181.929 108.138 185.598 109.262C185.899 110.868 187.307 112.084 188.999 112.084C190.691 112.084 192.098 110.868 192.399 109.262C193.864 108.814 195.203 108.078 196.357 107.129C193.204 107.129 194.003 104.165 194.003 104.165L186.767 90.6947C184.048 89.3389 185.598 87.0874 185.598 87.0874C181.929 88.2096 179.035 91.1053 177.911 94.7746Z" fill="#4374D3"/>
<path d="M196.807 98.1744C196.807 102.484 193.311 105.98 189.001 105.98C184.691 105.98 181.195 102.484 181.195 98.1744C181.195 93.8627 184.691 90.3687 189.001 90.3687C193.311 90.3687 196.807 93.8627 196.807 98.1744Z" fill="#E0F9FE"/>
<path d="M191.768 100.445C188.985 100.445 186.73 98.1886 186.73 95.4061C186.73 93.0449 188.357 91.0696 190.55 90.5226C190.049 90.4218 189.532 90.3687 189.001 90.3687C184.691 90.3687 181.195 93.8627 181.195 98.1744C181.195 102.484 184.691 105.978 189.001 105.978C193.313 105.978 196.807 102.484 196.807 98.1744C196.807 97.6434 196.754 97.1266 196.653 96.6257C196.106 98.8187 194.129 100.445 191.768 100.445Z" fill="#83D3FC"/>
<path d="M154.21 98.1743C154.21 96.4803 152.994 95.075 151.389 94.774C150.265 91.1048 147.371 88.2108 143.701 87.0851C143.401 85.4797 141.993 84.2637 140.301 84.2637C138.607 84.2637 137.202 85.4797 136.901 87.0851C133.232 88.209 130.336 91.103 129.214 94.774C127.608 95.0732 126.391 96.4803 126.391 98.1743C126.391 99.8664 127.607 101.274 129.214 101.573C130.336 105.242 133.232 108.138 136.901 109.262C137.202 110.867 138.607 112.083 140.301 112.083C141.993 112.083 143.401 110.867 143.701 109.262C147.371 108.138 150.265 105.244 151.389 101.573C152.994 101.274 154.21 99.8664 154.21 98.1743Z" fill="#4374D3"/>
<path d="M129.214 94.7744C127.608 95.0753 126.391 96.4807 126.391 98.1746C126.391 99.8668 127.607 101.274 129.214 101.575C130.336 105.244 133.232 108.138 136.901 109.262C137.202 110.867 138.607 112.083 140.301 112.083C141.993 112.083 143.401 110.867 143.701 109.262C145.167 108.814 146.505 108.078 147.659 107.129C144.507 107.129 145.305 104.164 145.305 104.164L138.069 90.6945C135.35 89.3387 136.901 87.0854 136.901 87.0854C133.232 88.2094 130.336 91.1052 129.214 94.7744Z" fill="#3957C9"/>
<path d="M148.108 98.1744C148.108 102.484 144.612 105.98 140.302 105.98C135.99 105.98 132.496 102.484 132.496 98.1744C132.496 93.8627 135.99 90.3687 140.302 90.3687C144.612 90.3687 148.108 93.8627 148.108 98.1744Z" fill="#E0F9FE"/>
<path d="M143.068 100.445C140.286 100.445 138.031 98.1886 138.031 95.4061C138.031 93.0449 139.658 91.0696 141.849 90.5226C141.35 90.4218 140.831 90.3687 140.302 90.3687C135.99 90.3687 132.496 93.8627 132.496 98.1744C132.496 102.484 135.99 105.978 140.302 105.978C144.612 105.978 148.108 102.484 148.108 98.1744C148.108 97.6434 148.053 97.1266 147.952 96.6257C147.407 98.8187 145.43 100.445 143.068 100.445Z" fill="#83D3FC"/>
<path d="M136 371.939C152.728 396.067 171.15 409.448 190.5 409.448C209.85 409.448 228.272 396.067 245 371.939L226.163 182.448C216.368 182.448 164.652 182.448 154.837 182.448L136 371.939Z" fill="#FADDA0"/>
<path d="M146 278.448C146 278.448 157.621 226.533 169.3 265.466C171.163 271.673 174.066 272.074 176.109 266.601C181.072 253.285 190.65 237.192 201.886 267.328C203.881 272.68 206.685 272.733 208.6 267.033C213.29 253.081 222.918 236.17 235 278.448L225.433 178.448C215.839 178.448 165.183 178.448 155.57 178.448L146 278.448Z" fill="#FACE7A"/>
<path d="M167 402.173C174.616 406.95 182.457 409.448 190.459 409.448C197.444 409.448 204.304 407.548 211 403.892L200.666 178.448C196.735 178.448 181.195 178.448 177.255 178.448L167 402.173Z" fill="#FACE7A"/>
<path d="M176.328 266.733C181.398 253.397 191.182 237.279 202.658 267.46C203.644 270.053 204.824 271.388 206 271.448L201.593 178.448C197.527 178.448 181.44 178.448 177.363 178.448L173 270.554C174.169 270.576 175.347 269.31 176.328 266.733Z" fill="#FBB362"/>
</g>
<path d="M5.75514 301.128L67.2551 217.078H97.1851V305.843H114.815V329.418H97.1851V363.448H68.8951V329.418H5.75514V301.128ZM30.3551 305.843H68.8951V252.748H68.0751L30.3551 305.843ZM261.805 301.128L323.305 217.078H353.235V305.843H370.865V329.418H353.235V363.448H324.945V329.418H261.805V301.128ZM286.405 305.843H324.945V252.748H324.125L286.405 305.843Z" fill="#04AF24"/>
<path d="M188.945 342.948C209.24 342.948 217.235 317.323 217.235 290.058C217.235 263.203 209.24 239.218 188.945 239.218C168.65 239.218 160.655 263.203 160.655 290.058C160.655 317.323 168.65 342.948 188.945 342.948ZM132.365 290.263C132.365 252.338 145.895 215.643 188.945 215.643C231.995 215.643 245.525 252.338 245.525 290.263C245.525 328.188 231.995 366.523 188.945 366.523C145.895 366.523 132.365 328.188 132.365 290.263Z" fill="white"/>
<defs>
<clipPath id="clip0_242_7051">
<rect width="232" height="363" fill="white" transform="translate(73 0.448242)"/>
</clipPath>
</defs>
</svg>
