<svg width="211" height="193" viewBox="0 0 211 193" fill="none" xmlns="http://www.w3.org/2000/svg">
<g clip-path="url(#clip0_235_2032)">
<path d="M105.53 14.0842C74.5641 14.0842 49.4609 39.1858 49.4609 70.1519V194.028C65.4945 204.746 84.7654 211 105.5 211C126.26 211 145.555 204.731 161.6 193.987V70.1519C161.6 39.1858 136.496 14.0842 105.53 14.0842Z" fill="#A2EC00"/>
<path d="M89.1747 191.817V70.1519C89.1747 43.3278 101.342 20.9082 117.596 15.3898C113.71 14.5366 109.674 14.0842 105.53 14.0842C74.5641 14.0842 49.4609 39.1858 49.4609 70.1519V194.028C62.5406 202.772 77.7757 208.541 94.2005 210.372C91.0034 204.913 89.1747 198.558 89.1747 191.817Z" fill="#51DA18"/>
<path d="M178.806 7.74632C163.543 -4.41088 138.85 -2.85421 126.875 16.6678C125.686 18.606 125.605 20.9644 126.658 22.975C129.095 27.6289 135.843 27.5179 138.097 22.6402C144.696 8.3677 162.096 2.90565 175.599 10.689C176.24 9.36256 177.368 8.29204 178.806 7.74632Z" fill="#D7F9B7"/>
<path d="M120.664 53.4712C120.619 53.476 120.576 53.4809 120.531 53.4809H90.5319C90.4852 53.4809 90.4418 53.476 90.3983 53.4712C88.2605 56.4928 87 60.1776 87 64.1603C87 74.3954 95.2969 82.6923 105.53 82.6923C115.765 82.6923 124.062 74.3954 124.062 64.1603C124.062 60.1776 122.802 56.4928 120.664 53.4712Z" fill="#E0F9FE"/>
<path d="M72.4212 159.438C72.0671 160.322 71.7644 161.262 71.5278 162.249C69.9743 168.706 71.758 174.672 75.5088 175.573C79.2613 176.476 83.561 171.973 85.1145 165.517C85.3511 164.528 85.5105 163.553 85.5958 162.606C81.1077 161.806 76.7114 160.745 72.4212 159.438Z" fill="#E0F9FE"/>
<path d="M78.0185 162.249C78.1151 161.846 78.2246 161.452 78.3437 161.064C76.3475 160.573 74.3723 160.032 72.4212 159.438C72.0671 160.32 71.7644 161.262 71.5278 162.249C69.9743 168.706 71.758 174.672 75.5088 175.573C76.9625 175.922 78.4966 175.459 79.9229 174.387C77.6515 172.159 76.7886 167.36 78.0185 162.249Z" fill="#B9E9FD"/>
<path d="M138.643 159.438C134.353 160.745 129.955 161.806 125.467 162.606C125.554 163.553 125.711 164.528 125.95 165.517C127.502 171.973 131.801 176.476 135.554 175.573C139.306 174.672 141.088 168.706 139.536 162.249C139.3 161.262 138.997 160.322 138.643 159.438Z" fill="#E0F9FE"/>
<path d="M131.692 162.905C131.57 162.395 131.468 161.886 131.388 161.384C129.432 161.841 127.46 162.25 125.467 162.606C125.554 163.552 125.711 164.528 125.95 165.516C127.502 171.973 131.801 176.476 135.554 175.573C136.912 175.246 138.012 174.253 138.789 172.815C135.795 171.801 132.906 167.949 131.692 162.905Z" fill="#B9E9FD"/>
<path d="M69.051 159.959C67.1273 159.295 66.1067 157.197 66.7715 155.273C67.4364 153.351 69.5339 152.331 71.456 152.995C93.0998 160.471 117.084 160.776 139.605 152.995C141.527 152.331 143.627 153.351 144.291 155.273C144.955 157.197 143.934 159.295 142.012 159.959C118.794 167.979 93.1143 168.272 69.051 159.959Z" fill="#00C82F"/>
<path d="M59.9122 129.159C57.7937 126.154 53.6308 125.498 50.6978 127.68C41.48 134.533 20.799 133.803 14.9827 124.177C12.4022 119.908 12.8079 114.331 14.136 109.111C14.9908 105.749 13.0993 102.303 9.78954 101.263C6.26086 100.154 2.49715 102.201 1.55541 105.778C-0.373125 113.103 -1.36315 122.322 3.83167 130.917C13.8961 147.569 43.1574 149.212 58.1769 138.351C61.0842 136.25 61.9792 132.092 59.9122 129.159Z" fill="#51DA18"/>
<path d="M186.25 11.6309C185.587 8.4467 182.469 6.40386 179.285 7.0671C176.102 7.73195 174.059 10.8501 174.723 14.0327C175.386 17.2153 178.504 19.2581 181.688 18.5949C184.871 17.9316 186.914 14.8135 186.25 11.6309Z" fill="#FC7ACD"/>
<path d="M186.243 11.6261C186.163 11.2381 186.044 10.8662 185.894 10.5137C185.831 12.2249 184.618 13.7381 182.866 14.1035C180.806 14.5318 178.787 13.2101 178.357 11.1496C177.993 9.3981 178.895 7.68045 180.439 6.93994C180.055 6.94316 179.667 6.9818 179.279 7.0639C176.095 7.72713 174.052 10.8453 174.717 14.0279C175.381 17.2121 178.499 19.2549 181.681 18.5901C184.865 17.9284 186.907 14.8086 186.243 11.6261Z" fill="#F948B4"/>
<path d="M145.7 5.21912C145.7 3.53044 146.505 2.03493 147.748 1.08032C139.607 3.14891 132.052 8.22783 126.875 16.668C125.686 18.6062 125.605 20.963 126.658 22.9752C129.095 27.6275 135.843 27.5181 138.097 22.6404C140.649 17.122 144.816 12.9284 149.747 10.3013C147.429 9.76841 145.7 7.69821 145.7 5.21912Z" fill="#8FE98A"/>
<path d="M32.2578 7.74632C47.5203 -4.41088 72.2114 -2.85421 84.1883 16.6678C85.3763 18.606 85.4584 20.9644 84.404 22.975C81.9684 27.6289 75.2185 27.5179 72.9648 22.6402C66.3662 8.3677 48.9659 2.90565 35.4629 10.689C34.8222 9.36256 33.6954 8.29204 32.2578 7.74632Z" fill="#D7F9B7"/>
<path d="M36.3446 11.6279C35.6813 8.44367 32.5631 6.40084 29.3806 7.06569C26.1964 7.72892 24.1552 10.8471 24.8184 14.0297C25.4816 17.2122 28.5998 19.2551 31.7824 18.5918C34.965 17.9286 37.0078 14.8104 36.3446 11.6279Z" fill="#FC7ACD"/>
<path d="M36.3441 11.6261C36.262 11.2381 36.1445 10.8662 35.9948 10.5137C35.932 12.2249 34.7182 13.7381 32.9668 14.1035C30.9062 14.5318 28.8876 13.2101 28.4577 11.1496C28.0923 9.3981 28.9954 7.68045 30.5376 6.93994C30.1561 6.94316 29.7681 6.9818 29.3785 7.0639C26.196 7.72713 24.1531 10.8453 24.8164 14.0279C25.4796 17.2121 28.5978 19.2549 31.7804 18.5901C34.9645 17.9284 37.0074 14.8086 36.3441 11.6261Z" fill="#F948B4"/>
<path d="M65.3599 5.21912C65.3599 3.53044 64.555 2.03493 63.3122 1.08032C71.4546 3.14891 79.0094 8.22783 84.1865 16.668C85.3761 18.6062 85.4566 20.963 84.4022 22.9752C81.9666 27.6275 75.2183 27.5181 72.9646 22.6404C70.413 17.122 66.2437 12.9284 61.3145 10.3013C63.631 9.76841 65.3599 7.69821 65.3599 5.21912Z" fill="#8FE98A"/>
<path d="M115.661 79.6755C105.749 77.6166 108.393 68.5985 108.393 68.5985L105.53 59.6416C103.069 55.9905 106.33 54.0346 106.33 54.0346L106.35 53.4809H90.5319C90.4852 53.4809 90.4418 53.476 90.3983 53.4712C88.2589 56.4928 87 60.1776 87 64.1603C87 74.3954 95.2953 82.6923 105.53 82.6923C109.27 82.6923 112.749 81.5799 115.661 79.6755Z" fill="#B9E9FD"/>
<path d="M110.468 64.5789C110.468 67.3059 108.256 69.5177 105.529 69.5177C102.802 69.5177 100.592 67.3059 100.592 64.5789C100.592 61.8519 102.802 59.6416 105.529 59.6416C108.256 59.6416 110.468 61.8519 110.468 64.5789Z" fill="#61B6FF"/>
<path d="M121.566 51.802C117.74 47.2044 111.979 44.2778 105.53 44.2778C99.0824 44.2778 93.3193 47.2044 89.4929 51.802C88.7556 52.689 89.3769 54.0348 90.5312 54.0348H120.53C121.684 54.0348 122.305 52.689 121.566 51.802Z" fill="#51DA18"/>
<path d="M103.94 49.4163C103.94 47.19 105.228 45.2679 107.097 44.3422C106.578 44.3036 106.058 44.2778 105.53 44.2778C99.0815 44.2778 93.3201 47.2044 89.4936 51.802C88.7547 52.689 89.3777 54.0348 90.5319 54.0348H106.329C104.885 53.0078 103.94 51.3239 103.94 49.4163Z" fill="#00C82F"/>
<path d="M126.502 105.672C126.441 105.677 126.38 105.685 126.316 105.685H84.7473C84.6845 105.685 84.6233 105.677 84.5622 105.672C81.6001 109.858 79.8535 114.966 79.8535 120.484C79.8535 134.665 91.3491 146.162 105.531 146.162C119.714 146.162 131.211 134.665 131.211 120.484C131.211 114.966 129.464 109.858 126.502 105.672Z" fill="#E0F9FE"/>
<path d="M119.569 141.981C105.834 139.129 109.496 126.633 109.496 126.633L105.531 114.22C102.122 109.164 106.639 106.451 106.639 106.451L106.666 105.685H84.7473C84.6845 105.685 84.6234 105.677 84.5622 105.671C81.6001 109.858 79.8535 114.964 79.8535 120.482C79.8535 134.665 91.3491 146.162 105.531 146.162C110.713 146.162 115.535 144.621 119.569 141.981Z" fill="#B9E9FD"/>
<path d="M112.374 121.063C112.374 124.842 109.311 127.905 105.531 127.905C101.753 127.905 98.6895 124.842 98.6895 121.063C98.6895 117.284 101.753 114.22 105.531 114.22C109.311 114.22 112.374 117.284 112.374 121.063Z" fill="#61B6FF"/>
<path d="M127.753 103.357C122.452 96.9874 114.467 92.9307 105.531 92.9307C96.5969 92.9307 88.6123 96.9874 83.3096 103.357C82.2874 104.586 83.1486 106.451 84.7472 106.451H126.315C127.916 106.451 128.777 104.586 127.753 103.357Z" fill="#51DA18"/>
<path d="M103.326 100.052C103.326 96.9664 105.11 94.3038 107.7 93.0208C106.982 92.9677 106.261 92.9307 105.53 92.9307C96.594 92.9307 88.6094 96.9874 83.3084 103.357C82.2845 104.586 83.1474 106.451 84.7459 106.451H106.638C104.635 105.028 103.326 102.696 103.326 100.052Z" fill="#00C82F"/>
<path d="M59.9118 129.159C57.7933 126.154 53.6303 125.498 50.6973 127.68C44.3321 132.413 32.5065 133.527 23.878 130.597C29.5638 134.475 26.3716 143.48 19.4414 142.794C32.1492 147.24 48.2632 145.521 58.1764 138.353C61.0837 136.25 61.9787 132.092 59.9118 129.159Z" fill="#00C82F"/>
<path d="M151.087 129.159C153.205 126.154 157.368 125.498 160.301 127.68C169.519 134.533 190.2 133.803 196.016 124.177C198.597 119.908 198.191 114.331 196.863 109.111C196.008 105.749 197.9 102.303 201.21 101.263C204.74 100.154 208.502 102.201 209.444 105.778C211.372 113.103 212.362 122.322 207.167 130.917C197.103 147.569 167.842 149.212 152.824 138.351C149.915 136.25 149.02 132.092 151.087 129.159Z" fill="#51DA18"/>
<path d="M151.087 129.159C153.205 126.154 157.368 125.498 160.301 127.68C166.667 132.413 178.492 133.527 187.121 130.597C181.435 134.475 184.627 143.48 191.557 142.794C178.849 147.24 162.735 145.521 152.822 138.353C149.915 136.25 149.02 132.092 151.087 129.159Z" fill="#00C82F"/>
</g>
<defs>
<clipPath id="clip0_235_2032">
<rect width="211" height="211" fill="white"/>
</clipPath>
</defs>
</svg>
