<svg width="10" height="16" viewBox="0 0 10 16" fill="none" xmlns="http://www.w3.org/2000/svg">
<path fill-rule="evenodd" clip-rule="evenodd" d="M0.893138 15.7664C1.21714 16.0784 1.74114 16.0784 2.06434 15.7664L8.91474 9.15521C9.06808 9.00948 9.19018 8.83408 9.27362 8.63969C9.35705 8.44529 9.40008 8.23596 9.40008 8.02441C9.40008 7.81287 9.35705 7.60353 9.27362 7.40913C9.19018 7.21474 9.06808 7.03934 8.91474 6.89361L2.01474 0.23361C1.85814 0.0847683 1.65076 0.00110926 1.43472 -0.000376593C1.21868 -0.00186244 1.01017 0.0789363 0.851538 0.22561C0.772955 0.298043 0.710079 0.385836 0.666802 0.483554C0.623526 0.581271 0.60077 0.686833 0.599945 0.793702C0.59912 0.900571 0.620243 1.00647 0.662006 1.10485C0.703769 1.20322 0.765283 1.29197 0.842738 1.36561L7.15794 7.45921C7.23467 7.53208 7.29578 7.6198 7.33753 7.71704C7.37929 7.81427 7.40082 7.91899 7.40082 8.02481C7.40082 8.13063 7.37929 8.23535 7.33753 8.33258C7.29578 8.42982 7.23467 8.51754 7.15794 8.59041L0.893138 14.636C0.816426 14.7088 0.755336 14.7965 0.713591 14.8936C0.671845 14.9908 0.650316 15.0955 0.650316 15.2012C0.650316 15.307 0.671845 15.4116 0.713591 15.5088C0.755336 15.606 0.816426 15.6936 0.893138 15.7664Z" fill="#161616" fill-opacity="0.5"/>
</svg>
