<svg width="10" height="16" viewBox="0 0 10 16" fill="none" xmlns="http://www.w3.org/2000/svg">
<path fill-rule="evenodd" clip-rule="evenodd" d="M9.10685 0.233621C8.78285 -0.0783793 8.25885 -0.0783793 7.93565 0.233621L1.08525 6.84482C0.931911 6.99055 0.809809 7.16595 0.726374 7.36034C0.642939 7.55474 0.599913 7.76407 0.599913 7.97562C0.599913 8.18717 0.642939 8.3965 0.726374 8.5909C0.809809 8.78529 0.931911 8.96069 1.08525 9.10642L7.98525 15.7664C8.14185 15.9153 8.34923 15.9989 8.56527 16.0004C8.78132 16.0019 8.98982 15.9211 9.14845 15.7744C9.22704 15.702 9.28991 15.6142 9.33319 15.5165C9.37647 15.4188 9.39922 15.3132 9.40005 15.2063C9.40087 15.0995 9.37975 14.9936 9.33799 14.8952C9.29622 14.7968 9.23471 14.7081 9.15725 14.6344L2.84205 8.54082C2.76532 8.46795 2.70422 8.38023 2.66246 8.28299C2.62071 8.18576 2.59917 8.08104 2.59917 7.97522C2.59917 7.8694 2.62071 7.76468 2.66246 7.66745C2.70422 7.57021 2.76532 7.48249 2.84205 7.40962L9.10685 1.36402C9.18357 1.29122 9.24466 1.20357 9.2864 1.1064C9.32815 1.00923 9.34968 0.904579 9.34968 0.798821C9.34968 0.693064 9.32815 0.588413 9.2864 0.491244C9.24466 0.394075 9.18357 0.306421 9.10685 0.233621Z" fill="#161616" fill-opacity="0.5"/>
</svg>
