<svg width="80" height="80" viewBox="0 0 80 80" fill="none" xmlns="http://www.w3.org/2000/svg">
<g clip-path="url(#clip0_1_268)">
<path d="M77.8295 32.3876C77.0861 27.5763 75.4455 23.0615 73.0859 19.0179L66.8682 11.0162C62.8955 7.10082 58.0713 4.04846 52.6983 2.15942L44.0027 0.207519C42.6868 0.0708007 41.3519 0 40 0C18.8581 0 1.71881 17.1393 1.71881 38.2812C1.71881 59.4237 18.8581 76.563 40 76.563C61.1419 76.563 78.2812 59.4231 78.2812 38.2812C78.2812 37.3095 78.2446 36.3464 78.1732 35.3924L77.8295 32.3876Z" fill="#162680"/>
<path d="M9.01677 29.7753C8.72929 29.7753 8.44243 29.6661 8.22331 29.4469C7.78508 29.0087 7.78508 28.2983 8.22331 27.86L19.209 16.8743C19.6472 16.4361 20.3577 16.4361 20.7959 16.8743C21.2342 17.3126 21.2342 18.0224 20.7959 18.4606L9.81022 29.4469C9.59111 29.6654 9.30363 29.7753 9.01677 29.7753Z" fill="#C78FE8"/>
<path d="M22.2663 15.3356C21.828 14.8974 21.828 14.1869 22.2663 13.7487L26.2299 9.78571C26.6681 9.34747 27.3786 9.34747 27.8162 9.78571C28.2544 10.2239 28.2544 10.9338 27.8162 11.372L23.8526 15.3356C23.4143 15.7739 22.7039 15.7739 22.2663 15.3356Z" fill="#C78FE8"/>
<path d="M14.5197 26.0138C14.6863 26.0217 14.9652 26.0363 15.3614 26.0901C17.1137 26.1755 21.5137 26.0504 24.5191 23.045L46.9354 0.628662C45.9698 0.45166 44.992 0.310669 44.0027 0.20752L23.1159 21.0943C20.6165 23.5937 17.453 25.3051 14.0308 26.0022C14.1614 26.0016 14.2926 26.0034 14.4239 26.0083C14.4513 26.0101 14.4831 26.0119 14.5197 26.0138Z" fill="#C78FE8"/>
<path d="M50.1434 1.36084L26.4893 25.015C23.4839 28.0197 23.3588 32.4204 23.4448 34.18C23.5126 34.6756 23.5413 35.1706 23.5327 35.6601C24.2291 32.1799 25.9021 28.9554 28.44 26.4182L52.6983 2.15918C51.8597 1.86438 51.0077 1.59766 50.1434 1.36084Z" fill="#C78FE8"/>
<path d="M28.9343 8.32275C28.4961 7.88452 28.4961 7.17407 28.9343 6.73645L29.1132 6.55762C29.5514 6.12 30.2619 6.11938 30.6995 6.55823C31.1377 6.99646 31.1377 7.7063 30.6995 8.14453L30.5206 8.32336C30.0824 8.76098 29.372 8.76159 28.9343 8.32275Z" fill="#DCB1F3"/>
<path d="M50.2338 1.38562C49.1217 1.078 47.9895 0.817382 46.839 0.609863L24.4617 22.9878C21.5094 25.94 17.2351 26.0999 15.365 26.009C14.8902 25.9437 14.5838 25.937 14.4294 25.9272C11.8628 25.8289 9.26458 26.7585 7.30535 28.7177C3.57428 32.4488 3.57428 38.498 7.30535 42.2291C11.0364 45.9601 17.0856 45.9601 20.8167 42.2291C23.0146 40.0312 23.9173 37.0283 23.5254 34.1694C23.4339 32.2987 23.5944 28.025 26.5467 25.0727L50.2338 1.38562Z" fill="#B26CDE"/>
<path d="M19.2054 38.9378L12.8119 29.3724C10.1356 28.6101 11.236 26.4031 11.2696 26.3372C9.81878 26.7791 8.4522 27.5701 7.30535 28.7175C3.57428 32.4486 3.57428 38.4978 7.30535 42.2289C11.0364 45.9599 17.0856 45.9599 20.8167 42.2289C21.1451 41.9005 21.4411 41.552 21.7121 41.1907C18.7659 41.469 19.2054 38.9378 19.2054 38.9378Z" fill="#9D4AD3"/>
<path d="M14.4819 56.9018C14.195 56.9018 13.9075 56.7919 13.6884 56.5728C13.2508 56.1346 13.2508 55.4247 13.6884 54.9859L42.8674 25.8075C43.3057 25.3698 44.0155 25.3698 44.4537 25.8075C44.892 26.2457 44.892 26.9561 44.4537 27.3944L15.2753 56.5728C15.0562 56.7919 14.7687 56.9018 14.4819 56.9018Z" fill="#F948B4"/>
<path d="M31.7078 39.8322C31.3733 39.8322 31.0388 39.7046 30.7837 39.4495C30.456 39.1217 30.34 38.6627 30.4334 38.241L13.6884 54.9859C13.2508 55.4248 13.2508 56.1346 13.6884 56.5728C13.9075 56.792 14.195 56.9018 14.4819 56.9018C14.7693 56.9018 15.0562 56.792 15.2753 56.5728L32.0667 39.7815C31.9495 39.8151 31.8286 39.8322 31.7078 39.8322Z" fill="#F6159C"/>
<path d="M71.3354 16.2898L34.35 53.2752C30.3369 57.2883 30.1691 63.1647 30.2844 65.514C30.3754 66.1762 30.4132 66.8366 30.4022 67.4909C31.3324 62.8437 33.5663 58.5377 36.955 55.149L73.0859 19.0181C72.5402 18.0824 71.9561 17.1724 71.3354 16.2898Z" fill="#FC7ACD"/>
<path d="M18.3655 54.6082C18.5877 54.6198 18.9606 54.6387 19.4892 54.7107C21.8299 54.8249 27.7063 54.6576 31.7194 50.644L69.0325 13.3308C68.3428 12.5294 67.6208 11.7579 66.8682 11.0164L29.845 48.039C26.5076 51.3764 22.2833 53.6622 17.713 54.5936C17.8876 54.5929 18.0628 54.5948 18.2379 54.6015C18.2746 54.6039 18.3167 54.6058 18.3655 54.6082Z" fill="#FC7ACD"/>
<path d="M71.3989 16.3805C70.6396 15.2941 69.8272 14.2473 68.9618 13.2476L31.6425 50.5668C27.6996 54.5097 21.9922 54.7239 19.4947 54.6019C18.8605 54.5146 18.4516 54.5054 18.2447 54.4926C14.8175 54.3608 11.3477 55.6028 8.73113 58.2194C3.74884 63.2017 3.74884 71.2803 8.73113 76.2632C13.714 81.2455 21.792 81.2455 26.7749 76.2632C29.7101 73.3274 30.9155 69.3174 30.3925 65.4991C30.2704 63.0015 30.4846 57.2941 34.4269 53.3519L71.3989 16.3805Z" fill="#F948B4"/>
<path d="M24.6228 71.9579L16.0852 59.1838C12.8266 58.2994 13.3875 55.8617 13.6194 55.1714C11.8335 55.7817 10.1557 56.7949 8.73113 58.2195C3.74884 63.2018 3.74884 71.2804 8.73113 76.2633C13.714 81.2456 21.7926 81.2456 26.7749 76.2633C27.273 75.7652 27.7191 75.2361 28.1177 74.6831C24.4013 75.0194 24.6228 71.9579 24.6228 71.9579Z" fill="#F6159C"/>
<path d="M78.1732 35.3922C78.0975 34.379 77.9827 33.3768 77.8295 32.3875L65.1288 45.0888C62.7582 47.4588 59.3268 47.5876 57.8253 47.5144C57.4438 47.4625 57.1979 47.4564 57.0734 47.4491C55.0134 47.3697 52.9266 48.1162 51.3538 49.6897C48.3582 52.6853 48.3582 57.5418 51.3538 60.5374C54.3494 63.533 59.2065 63.533 62.2021 60.5374C63.9667 58.7729 64.6918 56.362 64.3768 54.0665C64.3036 52.5644 64.4324 49.133 66.803 46.763L78.1732 35.3922Z" fill="#FACE7A"/>
<path d="M62.8668 59.7771C60.5536 59.7765 60.9082 57.8954 60.9082 57.8954L55.7751 50.2153C54.1565 49.1124 55.2594 47.6409 55.2997 47.5884C53.8538 47.871 52.4737 48.5698 51.3538 49.6892C48.3582 52.6848 48.3582 57.542 51.3538 60.5376C54.3494 63.5332 59.2065 63.5332 62.2021 60.5376C62.4438 60.2959 62.6642 60.0414 62.8668 59.7771Z" fill="#FBB362"/>
<path d="M53.3856 17.5848C53.0987 17.5848 52.8113 17.4755 52.5921 17.2564C52.1539 16.8182 52.1545 16.1077 52.5928 15.6695L52.771 15.4913C53.2092 15.053 53.9197 15.053 54.3579 15.4913C54.7961 15.9295 54.7955 16.64 54.3573 17.0782L54.1791 17.2564C53.9599 17.4755 53.6725 17.5848 53.3856 17.5848Z" fill="#F9ECC6"/>
<path d="M46.7175 24.5977C46.4301 24.5977 46.1432 24.4878 45.9241 24.2693C45.4858 23.8311 45.4858 23.1207 45.9241 22.6824L49.8877 18.7188C50.3259 18.2806 51.0364 18.2806 51.474 18.7188C51.9122 19.157 51.9122 19.8669 51.474 20.3051L47.5104 24.2693C47.2913 24.4878 47.0044 24.5977 46.7175 24.5977Z" fill="#FBB362"/>
<path d="M18.4748 31.0528C16.0541 28.6328 12.1302 28.6328 9.70952 31.0528C7.28948 33.4735 7.28948 37.3974 9.70952 39.8181C12.1302 42.2381 16.0541 42.2381 18.4748 39.8181C20.8948 37.3974 20.8948 33.4735 18.4748 31.0528Z" fill="#9D4AD3"/>
<path d="M13.5419 37.2571C11.3965 35.1123 11.1542 31.7865 12.8119 29.3726C11.6748 29.6118 10.5927 30.1709 9.71013 31.0529C7.28948 33.4735 7.28948 37.3981 9.71013 39.8181C12.1302 42.2388 16.0547 42.2388 18.4754 39.8181C18.75 39.5428 18.9923 39.2474 19.2054 38.938C17.2248 39.3542 15.0794 38.7952 13.5419 37.2571Z" fill="#8634C6"/>
<path d="M23.6475 61.4282C20.4151 58.1958 15.1746 58.1958 11.9422 61.4282C8.71037 64.66 8.71037 69.9005 11.9422 73.1329C15.1746 76.3653 20.4151 76.3653 23.6475 73.1329C26.8793 69.9005 26.8793 64.66 23.6475 61.4282Z" fill="#F6159C"/>
<path d="M17.06 69.7132C14.195 66.8489 13.8715 62.4073 16.0846 59.1841C14.5673 59.5033 13.1214 60.2498 11.9428 61.4283C8.71037 64.6608 8.71037 69.9012 11.9428 73.1336C15.1752 76.3655 20.4157 76.3655 23.6481 73.1336C24.0155 72.7656 24.339 72.3713 24.6228 71.9581C21.9776 72.5141 19.1138 71.7677 17.06 69.7132Z" fill="#C6237C"/>
<path d="M60.321 51.5649C58.3783 49.6216 55.227 49.6216 53.2837 51.5649C51.3403 53.5083 51.3403 56.6589 53.2837 58.6023C55.227 60.5456 58.3783 60.5456 60.321 58.6023C62.2644 56.6589 62.2644 53.5083 60.321 51.5649Z" fill="#FBB362"/>
<path d="M56.3611 56.5459C54.6387 54.8235 54.4446 52.1532 55.7751 50.2153C54.8627 50.407 53.9935 50.8562 53.2849 51.5648C51.3415 53.5082 51.3415 56.6588 53.2849 58.6022C55.2283 60.5455 58.3789 60.5455 60.3222 58.6022C60.5432 58.3812 60.7373 58.1438 60.9082 57.8954C59.3182 58.2298 57.5958 57.7806 56.3611 56.5459Z" fill="#FD7E31"/>
</g>
<defs>
<clipPath id="clip0_1_268">
<rect width="80" height="80" fill="white"/>
</clipPath>
</defs>
</svg>
