<svg width="80" height="80" viewBox="0 0 80 80" fill="none" xmlns="http://www.w3.org/2000/svg">
<g clip-path="url(#clip0_1_297)">
<path d="M69.6985 65.8722C75.0635 59.2834 78.2812 50.8771 78.2812 41.7188C78.2812 20.5768 61.1426 3.4375 40 3.4375C18.858 3.4375 1.71875 20.5768 1.71875 41.7188C1.71875 50.8777 4.93652 59.2834 10.3015 65.8722H69.6985Z" fill="#EEC707"/>
<path d="M40.0476 0C56.9714 0 70.6915 14.2212 70.6915 31.7633C70.6915 42.2174 65.8185 51.4905 58.3002 57.2791C52.561 58.4961 46.4252 59.1571 40.0476 59.1571C33.67 59.1571 27.5348 58.4967 21.795 57.2791C14.2767 51.4905 9.4043 42.2168 9.4043 31.7633C9.40369 14.2212 23.1238 0 40.0476 0Z" fill="#83D3FC"/>
<path d="M40.0476 0C23.1238 0 9.4043 14.2212 9.4043 31.7633C9.4043 42.2168 14.2767 51.4905 21.795 57.2791C25.5206 58.0688 29.4135 58.623 33.4302 58.916C33.5388 58.8159 33.6469 58.7244 33.7506 58.642C34.1467 58.3264 34.3054 57.7844 34.118 57.3138C33.8617 56.6718 34.0601 56.0858 34.2871 55.6921C34.4824 55.3528 34.4812 54.9365 34.3073 54.5856C33.4717 52.8967 34.3793 51.7676 34.9316 51.2799C35.1624 51.0767 35.3082 50.7941 35.3326 50.4871L38.0518 16.1926C38.0835 15.7941 37.9517 15.4041 37.7014 15.0922C36.5735 13.689 36.933 12.5354 37.3383 11.8866C37.5989 11.4685 37.6636 10.9583 37.5018 10.4926C34.6692 2.3291 40.0476 0 40.0476 0Z" fill="#61B6FF"/>
<path d="M61.2665 62.1259C60.7416 62.8046 59.9841 63.3087 59.079 63.501C52.9474 64.8016 46.5448 65.4614 40.0476 65.4614C33.5504 65.4614 27.1472 64.8016 21.0162 63.501C20.0983 63.3063 19.3335 62.7899 18.8074 62.0966L18.8049 62.0959L10.1758 65.7153C17.1924 74.4257 27.9443 80 40 80C52.0557 80 62.8076 74.4257 69.8248 65.7153L61.2665 62.1259Z" fill="#FD7E31"/>
<path d="M18.808 62.0966L18.8049 62.0959L10.1758 65.7159C14.5978 71.2048 20.5035 75.4462 27.2833 77.8345C27.2833 77.3309 27.2833 76.7926 27.2833 76.2451C27.2833 75.0537 27.6917 74.3707 28.0853 73.9893C28.4058 73.6798 28.4503 73.1879 28.2037 72.8168C26.8762 70.8246 28.8068 69.5593 28.8068 69.5593L32.8644 66.0577C33.1134 65.8429 33.2196 65.5182 33.1671 65.2112C29.0356 64.9103 24.9695 64.3396 21.0162 63.501C20.0983 63.3063 19.3335 62.7899 18.808 62.0966Z" fill="#FC5D1F"/>
<path d="M16.8494 20.1088C17.3846 18.8734 18.3716 17.8938 19.6045 17.3506C22.7917 15.9462 30.0055 13.3613 39.9298 13.3613C49.8535 13.3613 57.0673 15.9462 60.2551 17.3506C61.4874 17.8938 62.4744 18.8734 63.0102 20.1088C64.4788 23.4987 66.8243 31.1738 63.4351 40.5568C58.8361 53.2893 39.9298 53.6036 39.9298 53.6036C39.9298 53.6036 21.0229 53.2893 16.4239 40.5568C13.0353 31.1744 15.3802 23.4987 16.8494 20.1088Z" fill="#4374D3"/>
<path d="M40.0476 65.7391C46.5448 65.7391 52.9474 65.08 59.079 63.7787C61.1072 63.349 62.4017 61.3562 61.972 59.328C61.5417 57.3004 59.5477 56.0052 57.5214 56.4355C51.9006 57.6276 46.0217 58.2324 40.0476 58.2324C34.0735 58.2324 28.1946 57.6276 22.5745 56.4355C20.5444 56.0052 18.5535 57.3004 18.1238 59.328C17.6935 61.3562 18.9886 63.349 21.0162 63.7787C27.1472 65.08 33.5504 65.7391 40.0476 65.7391Z" fill="#FC9949"/>
<path d="M22.5745 56.4355C20.5444 56.0052 18.5535 57.3004 18.1238 59.328C17.6935 61.3562 18.9886 63.349 21.0162 63.7793C24.9713 64.6185 29.0399 65.1886 33.1732 65.4895C33.2025 65.2789 33.1592 65.0598 33.0359 64.8712C30.9058 61.6278 32.5824 59.5703 33.7506 58.642C33.9496 58.4833 34.0881 58.2678 34.1541 58.0328C30.2112 57.7661 26.3342 57.2333 22.5745 56.4355Z" fill="#FD7E31"/>
<path d="M55.1196 71.5503H23.8715C22.1002 71.5503 20.6317 72.9138 20.4639 74.6436C26.1829 78.0444 32.8625 80 40 80C46.7285 80 53.0499 78.2617 58.5443 75.2136V74.9744C58.5443 73.0908 57.0032 71.5503 55.1196 71.5503Z" fill="#3957C9"/>
<path d="M20.4639 74.6436C22.6105 75.9198 24.8926 76.9928 27.2833 77.8351C27.2833 77.3315 27.2833 76.7932 27.2833 76.2451C27.2833 75.0537 27.6917 74.3707 28.0853 73.9893C28.4058 73.6798 28.4503 73.1879 28.2037 72.8168C27.8943 72.3529 27.7637 71.9287 27.7423 71.5503H23.8715C22.0996 71.5503 20.6317 72.9138 20.4639 74.6436Z" fill="#1D319B"/>
<path d="M60.4596 74.0778C60.0305 71.5173 57.8003 69.5593 55.1196 69.5593H23.8715C21.3953 69.5593 19.303 71.2311 18.6609 73.5046C19.8724 74.3195 21.1334 75.0665 22.4377 75.741V74.9744C22.4377 74.184 23.0811 73.5406 23.8715 73.5406H55.1196C55.91 73.5406 56.5533 74.184 56.5533 74.9744V76.2451C57.9016 75.5975 59.2047 74.8724 60.4596 74.0778Z" fill="#FACE7A"/>
<path d="M23.8715 69.5593C21.3953 69.5593 19.303 71.2311 18.6609 73.5046C19.8724 74.3195 21.1334 75.0665 22.4377 75.741V74.9744C22.4377 74.184 23.0811 73.5406 23.8715 73.5406H28.3362C28.3911 73.299 28.3502 73.0365 28.2037 72.8168C26.8762 70.824 28.8068 69.5593 28.8068 69.5593H23.8715Z" fill="#EEC707"/>
<path d="M58.1909 16.515C54.4287 15.1124 48.0988 13.3613 39.9298 13.3613C32.0209 13.3613 25.8356 15.0026 22.0355 16.3801C18.9307 19.5326 17.0764 23.5182 17.0764 27.8529C17.0764 31.7408 18.5687 35.3486 21.1169 38.3253C22.6501 40.1155 23.8373 42.1675 24.7119 44.3562C25.3375 45.9211 26.1664 47.3695 27.1582 48.6671C27.5513 49.6492 28.0542 50.5751 28.6505 51.4326C34.4354 53.5115 39.9292 53.6036 39.9292 53.6036C39.9292 53.6036 45.639 53.5084 51.5466 51.3093C52.1075 50.4799 52.5818 49.5875 52.9547 48.6433C53.941 47.3481 54.765 45.9041 55.3882 44.344C56.2567 42.1669 57.4341 40.1234 58.9612 38.3448C61.5198 35.3645 63.0188 31.7494 63.0188 27.8529C63.0188 23.5792 61.2164 19.6455 58.1909 16.515Z" fill="#BF5543"/>
<path d="M17.0764 27.8529C17.0764 31.7408 18.5687 35.3486 21.1176 38.3253C22.6501 40.1155 23.8373 42.1675 24.7119 44.3562C25.3381 45.9211 26.1664 47.3695 27.1588 48.6671C27.5519 49.6504 28.0585 50.5763 28.656 51.4344C30.8875 52.2358 33.0749 52.7424 34.9207 53.0616V22.5679C33.9587 19.5063 40.1923 16.7372 37.4084 13.9534C37.2382 13.7831 37.0959 13.6116 36.9781 13.4395C30.4767 13.7788 25.3491 15.179 22.0361 16.3801C18.9313 19.5326 17.0764 23.5182 17.0764 27.8529Z" fill="#B33C37"/>
<path d="M47.6752 21.1578C46.2378 21.0967 44.8694 21.3628 43.6371 21.8871C43.2013 22.0727 42.8217 22.373 42.5574 22.766C42.0557 23.5125 41.6638 24.5001 41.7957 25.6908C41.8359 26.054 41.4502 26.311 41.1353 26.1248C40.4816 25.7378 39.5465 25.0457 38.703 23.9153C38.4821 23.6193 38.0164 23.7109 37.9315 24.0704C37.8333 24.4842 37.7631 24.8876 37.7148 25.2209C37.6636 25.5737 37.2321 25.7256 36.9775 25.476C36.1078 24.624 35.4315 23.6205 34.9896 22.6983C34.5166 21.7114 33.4937 21.1089 32.3999 21.1584L32.3785 21.1596C27.4457 21.3915 23.526 25.5102 23.5254 30.4479C23.5248 32.7685 24.375 34.8895 25.78 36.5179C26.6107 37.4804 26.9562 38.7792 26.6321 40.0085C26.3135 41.2182 26.1542 42.492 26.178 43.8067C26.2286 46.6314 27.1375 49.2559 28.6499 51.4318C34.4354 53.5113 39.9298 53.6034 39.9298 53.6034C39.9298 53.6034 45.6409 53.5076 51.5491 51.3085C53.0457 49.0942 53.9203 46.4245 53.9203 43.5503C53.9203 42.3229 53.7604 41.1327 53.4613 39.9999C53.1409 38.7872 53.4637 37.4969 54.2877 36.5508C55.7648 34.8541 56.637 32.6165 56.5662 30.1739C56.4258 25.3295 52.5177 21.3641 47.6752 21.1578Z" fill="#FADDA0"/>
<path d="M33.6169 43.8069C33.5992 42.4922 33.7195 41.2184 33.9606 40.0087C34.2047 38.7794 33.9441 37.4806 33.3167 36.5181C32.2552 34.8896 31.6138 32.7687 31.6138 30.4481C31.6144 27.1516 32.9352 24.2219 34.9207 22.5685C34.4226 21.6591 33.4436 21.1116 32.3999 21.1586L32.3779 21.1598C27.4457 21.3917 23.526 25.5104 23.5248 30.4481C23.5248 32.7687 24.3744 34.8896 25.78 36.5181C26.6101 37.4806 26.9562 38.7794 26.6321 40.0087C26.3135 41.2184 26.1536 42.4922 26.1774 43.8069C26.2286 46.6316 27.1368 49.2561 28.6499 51.432C31.6461 52.5093 34.5624 53.0531 36.6803 53.3271C34.8322 50.8711 33.6676 47.5123 33.6169 43.8069Z" fill="#FACE7A"/>
<path d="M39.895 55.6892C39.0643 55.6752 19.4922 55.1905 14.4623 41.2648C10.882 31.3502 13.222 23.235 14.9359 19.2799C15.6787 17.566 17.038 16.2031 18.7634 15.4426C31.3538 9.89391 48.4894 9.88719 61.0956 15.4426C62.821 16.2025 64.1809 17.5654 64.9237 19.2799C66.6376 23.235 68.9777 31.3502 65.3967 41.2648C60.3668 55.1905 40.7953 55.6752 39.9646 55.6892C39.9329 55.6892 39.9261 55.6892 39.895 55.6892ZM20.4449 19.2591C19.6838 19.5942 19.0863 20.1911 18.7622 20.9382C17.2943 24.3263 15.2936 31.2873 18.385 39.8481C22.3596 50.8515 39.0356 51.4924 39.928 51.5181C40.7922 51.4918 57.5092 50.8253 61.4746 39.8481C64.566 31.2879 62.5647 24.3263 61.0968 20.9382C60.7727 20.1905 60.1752 19.5942 59.4141 19.2591C47.8882 14.1798 31.98 14.1761 20.4449 19.2591Z" fill="#E0F9FE"/>
<path d="M18.385 39.848C15.2936 31.2872 17.2943 24.3262 18.7622 20.9381C19.0863 20.191 19.6838 19.5941 20.4449 19.259C25.6525 16.9641 31.7517 15.7098 37.9364 15.4877C37.8772 15.3467 37.7985 15.213 37.7014 15.0922C36.5735 13.6884 36.933 12.5354 37.3383 11.8866C37.4463 11.7133 37.5183 11.524 37.5568 11.3293C30.9247 11.593 24.3903 12.9626 18.7634 15.4425C17.038 16.203 15.6787 17.5659 14.9359 19.2798C13.222 23.2349 10.882 31.3501 14.4623 41.2646C17.8833 50.7367 28.031 53.9893 34.4342 55.1062C34.4305 54.928 34.389 54.7498 34.3073 54.5856C33.4717 52.8967 34.3793 51.7676 34.9316 51.2799C35.0275 51.1951 35.108 51.0962 35.1721 50.9875C29.6802 50.0262 21.0901 47.3383 18.385 39.848Z" fill="#B9E9FD"/>
<path d="M9.08569 23.4107C8.38745 26.0718 8.01392 28.8727 8.01392 31.7634C8.01392 34.192 8.2782 36.5552 8.77686 38.827C9.09363 40.2692 10.8557 40.8387 11.9434 39.8408C14.1028 37.8608 15.9827 34.6363 15.9827 30.9919C15.9827 27.58 14.2639 24.535 12.2882 22.5361C11.2537 21.4881 9.45923 21.9861 9.08569 23.4107Z" fill="#5294E5"/>
<path d="M70.9528 23.1996C70.5737 21.7946 68.8263 21.2977 67.7759 22.3042C65.697 24.2964 63.8763 27.4464 63.8763 30.9919C63.8763 34.7767 65.8685 38.1105 68.1396 40.066C69.2432 41.0151 70.9521 40.4475 71.2732 39.0278C71.8011 36.6951 72.0813 34.2634 72.0813 31.7634C72.0813 28.7959 71.6876 25.9242 70.9528 23.1996Z" fill="#61B6FF"/>
<path d="M40.0476 48.9917C36.6974 48.9917 33.6047 48.186 31.5619 46.7822C31.0284 46.4154 30.8935 45.686 31.2597 45.1525C31.6266 44.6191 32.3559 44.4842 32.8894 44.851C34.527 45.9759 37.2027 46.6479 40.0476 46.6479C42.8924 46.6479 45.5688 45.9759 47.2058 44.851C47.7392 44.4842 48.4686 44.6191 48.8354 45.1525C49.2016 45.686 49.0667 46.4154 48.5333 46.7822C46.4905 48.186 43.3978 48.9917 40.0476 48.9917Z" fill="#FBB362"/>
<path d="M39.0082 40.6409C39.0082 41.3031 38.4711 41.8402 37.8082 41.8402C37.146 41.8402 36.6089 41.3031 36.6089 40.6409C36.6089 39.978 37.146 39.4409 37.8082 39.4409C38.4711 39.4409 39.0082 39.978 39.0082 40.6409Z" fill="#FBB362"/>
<path d="M43.4869 40.6409C43.4869 41.3031 42.9498 41.8402 42.287 41.8402C41.6248 41.8402 41.0876 41.3031 41.0876 40.6409C41.0876 39.978 41.6248 39.4409 42.287 39.4409C42.9498 39.4409 43.4869 39.978 43.4869 40.6409Z" fill="#FBB362"/>
<path d="M11.7688 31.1591C10.2838 31.1591 8.96057 30.4687 8.1012 29.3915C8.04504 30.1752 8.01392 30.9656 8.01392 31.7633C8.01392 34.1913 8.2782 36.5552 8.77686 38.8269C9.09363 40.2692 10.8557 40.8386 11.944 39.8407C14.1028 37.8607 15.9827 34.6356 15.9827 30.9918C15.9827 30.282 15.9076 29.588 15.7715 28.916C14.9469 30.2618 13.4625 31.1591 11.7688 31.1591Z" fill="#4374D3"/>
<path d="M68.3264 31.1591C66.5057 31.1591 64.928 30.1215 64.1498 28.606C63.9746 29.3738 63.8763 30.1721 63.8763 30.9918C63.8763 34.7772 65.8685 38.1104 68.1396 40.0659C69.2432 41.0156 70.9521 40.4474 71.2732 39.0277C71.8011 36.6949 72.0813 34.2633 72.0813 31.7633C72.0813 30.965 72.052 30.1733 71.9958 29.3896C71.1359 30.4675 69.8126 31.1591 68.3264 31.1591Z" fill="#5294E5"/>
<path d="M35.9979 34.7841C35.9979 32.7791 34.4708 31.1543 32.5867 31.1543C30.7025 31.1543 29.1754 32.7791 29.1754 34.7841C29.1754 36.7885 30.7025 38.4138 32.5867 38.4138C34.4708 38.4138 35.9979 36.7885 35.9979 34.7841Z" fill="#E0F9FE"/>
<path d="M33.9539 38.1091C33.7256 38.1091 33.6493 38.0035 33.6304 37.8973C33.6035 37.7484 33.5321 37.6111 33.4106 37.5201C32.0459 36.496 32.0886 35.0568 32.1936 34.4067C32.2266 34.2047 32.1533 33.9996 31.9965 33.8678C30.799 32.8638 31.6425 31.2964 31.6425 31.2964C30.2179 31.7322 29.1754 33.1281 29.1754 34.7839C29.1754 36.7883 30.7025 38.4137 32.5867 38.4137C33.0731 38.4137 33.5352 38.3044 33.9539 38.1091Z" fill="#B9E9FD"/>
<path d="M34.566 36.0176C34.566 37.1107 33.6798 37.9969 32.5867 37.9969C31.4935 37.9969 30.6073 37.1107 30.6073 36.0176C30.6073 34.9244 31.4935 34.0388 32.5867 34.0388C33.6798 34.0388 34.566 34.9244 34.566 36.0176Z" fill="#3957C9"/>
<path d="M33.5754 37.7301C33.5376 37.6489 33.4845 37.5757 33.4106 37.5201C32.0459 36.496 32.0886 35.0568 32.1936 34.4067C32.2113 34.2969 32.1973 34.1864 32.1558 34.0869C31.2701 34.2841 30.6079 35.0726 30.6079 36.0175C30.6079 37.1106 31.4935 37.9968 32.5867 37.9968C32.9474 37.9968 33.2843 37.8992 33.5754 37.7301Z" fill="#4347B0"/>
<path d="M50.9198 34.7841C50.9198 32.7791 49.3927 31.1543 47.5085 31.1543C45.6244 31.1543 44.0973 32.7791 44.0973 34.7841C44.0973 36.7885 45.6244 38.4138 47.5085 38.4138C49.3927 38.4138 50.9198 36.7885 50.9198 34.7841Z" fill="#E0F9FE"/>
<path d="M48.8757 38.1091C48.6475 38.1091 48.5712 38.0035 48.5522 37.8973C48.5254 37.7484 48.454 37.6111 48.3325 37.5201C46.9672 36.496 47.0105 35.0568 47.1155 34.4067C47.1484 34.2047 47.0746 33.9996 46.9183 33.8678C45.7208 32.8638 46.5643 31.2964 46.5643 31.2964C45.1398 31.7322 44.0973 33.1281 44.0973 34.7839C44.0973 36.7883 45.6244 38.4137 47.5085 38.4137C47.995 38.4137 48.457 38.3044 48.8757 38.1091Z" fill="#B9E9FD"/>
<path d="M49.4879 36.0176C49.4879 37.1107 48.6017 37.9969 47.5085 37.9969C46.4154 37.9969 45.5292 37.1107 45.5292 36.0176C45.5292 34.9244 46.4154 34.0388 47.5085 34.0388C48.6017 34.0388 49.4879 34.9244 49.4879 36.0176Z" fill="#3957C9"/>
<path d="M48.4973 37.7301C48.4595 37.6489 48.4064 37.5757 48.3325 37.5201C46.9678 36.496 47.0105 35.0568 47.1155 34.4067C47.1338 34.2969 47.1191 34.1864 47.0776 34.0869C46.192 34.2841 45.5298 35.0726 45.5298 36.0175C45.5298 37.1106 46.4154 37.9968 47.5085 37.9968C47.8693 37.9968 48.2062 37.8992 48.4973 37.7301Z" fill="#4347B0"/>
</g>
<defs>
<clipPath id="clip0_1_297">
<rect width="80" height="80" fill="white"/>
</clipPath>
</defs>
</svg>
