<svg width="26" height="26" viewBox="0 0 26 26" fill="none" xmlns="http://www.w3.org/2000/svg">
<path d="M13 3C7.49412 3 3 7.49412 3 13C3 18.5059 7.49412 23 13 23C18.5059 23 23 18.5059 23 13C23 7.49412 18.5059 3 13 3ZM16.9294 11.4471L14.5765 16.1529C14.3176 16.6706 13.8471 17.0235 13.2824 17.0941C13.1882 17.0941 13.0941 17.0941 13 17.0941C12.5294 17.0941 12.0824 16.9059 11.7529 16.5765L9.4 14.2235C8.71765 13.5412 8.71765 12.4118 9.4 11.7294C10.0824 11.0471 11.2118 11.0471 11.8941 11.7294L12.5059 12.3412L13.7529 9.82353C14.2 8.95294 15.2588 8.6 16.1294 9.02353C17 9.47059 17.3529 10.5294 16.9294 11.4V11.4471Z" fill="#00C82F"/>
<path d="M16.9294 11.4471L14.5765 16.1529C14.3176 16.6706 13.8471 17.0235 13.2824 17.0941H13C12.5294 17.0941 12.0824 16.9059 11.7529 16.5765L9.4 14.2235C8.71765 13.5412 8.71765 12.4118 9.4 11.7294C10.0824 11.0471 11.2118 11.0471 11.8941 11.7294L12.5059 12.3412L13.7529 9.82353C14.2 8.95294 15.2588 8.6 16.1294 9.02353C17 9.47059 17.3529 10.5294 16.9294 11.4V11.4471Z" fill="#00C82F"/>
<path d="M16.9294 11.4471L14.5765 16.1529C14.3176 16.6706 13.8471 17.0235 13.2824 17.0941H13C12.5294 17.0941 12.0824 16.9059 11.7529 16.5765L9.4 14.2235C8.71765 13.5412 8.71765 12.4118 9.4 11.7294C10.0824 11.0471 11.2118 11.0471 11.8941 11.7294L12.5059 12.3412L13.7529 9.82353C14.2 8.95294 15.2588 8.6 16.1294 9.02353C17 9.47059 17.3529 10.5294 16.9294 11.4V11.4471Z" fill="white"/>
<path d="M13 1.82353C6.84437 1.82353 1.82353 6.84437 1.82353 13C1.82353 19.1556 6.84437 24.1765 13 24.1765C19.1556 24.1765 24.1765 19.1556 24.1765 13C24.1765 6.84437 19.1556 1.82353 13 1.82353Z" stroke="white" stroke-width="2.35294"/>
<circle cx="13" cy="13" r="11" stroke="white" stroke-width="2"/>
</svg>
