<svg width="76" height="75" viewBox="0 0 76 75" fill="none" xmlns="http://www.w3.org/2000/svg">
<g clip-path="url(#clip0_338_3341)">
<path d="M68.2681 58.3996C71.8255 52.8286 73.8878 46.2103 73.8878 39.1109C73.8878 19.2894 57.8195 3.22168 37.9986 3.22168C18.1777 3.22168 2.10938 19.2894 2.10938 39.1109C2.10938 39.2454 2.11281 39.3793 2.11452 39.5137L68.2681 58.3996Z" fill="#162680"/>
<path d="M13.3828 65.2217C19.8093 71.2831 28.4709 74.9997 38.0023 74.9997C47.5336 74.9997 56.1952 71.2831 62.6218 65.2217H13.3828Z" fill="#A2EC00"/>
<path d="M34.4734 65.2217H13.3828C18.852 70.3802 25.9406 73.8386 33.8062 74.7548C27.9273 73.9983 28.4927 65.2217 34.4734 65.2217Z" fill="#00C82F"/>
<path d="M8.18441 35.7279C8.98494 36.0106 9.80778 36.0941 10.5997 36.0048V40.2524H6.6875V34.9199C7.13554 35.2615 7.63852 35.5351 8.18441 35.7279Z" fill="#83D3FC"/>
<path d="M9.61838 37.5361H7.66885C7.12696 37.5361 6.6875 37.0967 6.6875 36.5542V40.2524H10.5997V36.5542C10.5997 37.0967 10.1603 37.5361 9.61838 37.5361Z" fill="#61B6FF"/>
<path d="M15.1484 32.5407C15.363 31.933 15.0437 31.2658 14.436 31.0518C13.8277 30.8372 13.1611 31.156 12.9471 31.7642C12.3738 33.3887 10.5856 34.2448 8.96107 33.6714C7.33255 33.0969 6.47881 31.3145 7.05331 29.686C7.26789 29.0777 6.94917 28.4111 6.34091 28.1965C5.73322 27.9825 5.06659 28.3012 4.85201 28.9095C3.84834 31.7545 5.33839 34.8696 8.184 35.8733C11.0228 36.8741 14.147 35.3795 15.1484 32.5407Z" fill="#E0F9FE"/>
<path d="M19.3295 41.607C19.3295 41.377 19.3049 41.1532 19.2586 40.9369H34.1001C34.6019 40.9369 35.0568 40.7349 35.3881 40.4082V44.646H17.1562C18.4191 44.2128 19.3295 43.0146 19.3295 41.607Z" fill="#5294E5"/>
<path d="M26.0101 40.9375H19.2586C19.3049 41.1532 19.3295 41.3775 19.3295 41.6076C19.3295 43.0152 18.4191 44.2134 17.1562 44.646H26.0101V40.9375Z" fill="#4374D3"/>
<path d="M23.5625 29.2805V34.1907H27.2355V29.2788C26.0722 29.7675 24.7435 29.7778 23.5625 29.2805Z" fill="#B9E9FD"/>
<path d="M25.3747 31.3519H25.4153C26.237 31.3491 26.9437 31.8343 27.2361 32.5416V29.2788C26.0728 29.7675 24.7441 29.7778 23.5625 29.2805V32.5421C23.8543 31.8366 24.5576 31.3491 25.3747 31.3519Z" fill="#83D3FC"/>
<path d="M21.2941 5.74365C18.5097 11.3347 18.9829 17.371 22.1324 21.955C23.8078 20.3912 26.4245 20.2865 28.2241 21.7971C29.9688 23.2608 30.3522 25.7425 29.2381 27.6434C34.1488 29.6055 39.8721 28.9292 44.6856 25.3717L21.2941 5.74365Z" fill="#5294E5"/>
<path d="M28.2465 11.5774L21.2941 5.74365C18.5097 11.3347 18.9829 17.371 22.1324 21.955C23.5211 20.659 25.5565 20.3666 27.2376 21.1642C25.3408 15.4724 28.1749 11.6952 28.1749 11.6952L28.2465 11.5774Z" fill="#4374D3"/>
<path d="M25.3987 6.01492C24.7623 6.01492 24.2216 5.52683 24.1684 4.8808C24.1117 4.20044 24.6176 3.60362 25.2979 3.54697L43.1716 2.06837C43.8508 2.01115 44.4493 2.51813 44.5054 3.19849C44.5621 3.87885 44.0562 4.47624 43.3753 4.53232L25.5016 6.01092C25.4673 6.01378 25.4324 6.01492 25.3987 6.01492Z" fill="#B9E9FD"/>
<path d="M33.3815 4.09662C33.3397 3.58792 33.5681 3.11985 33.9463 2.83203L25.2984 3.54787C24.6181 3.60395 24.1122 4.20134 24.1683 4.8817C24.2221 5.52716 24.7628 6.01583 25.3991 6.01583C25.4329 6.01583 25.4678 6.01411 25.5021 6.01125L34.2267 5.28969C33.7649 5.0814 33.4261 4.63679 33.3815 4.09662Z" fill="#83D3FC"/>
<path d="M43.6917 21.2725L42.0443 3.41432C41.9819 2.73453 42.4821 2.13256 43.1618 2.06962C43.8434 2.00782 44.4436 2.50736 44.506 3.18715L46.1534 21.0459C46.2163 21.7257 45.7162 22.3277 45.0364 22.3901C44.3578 22.4524 43.7547 21.954 43.6917 21.2725Z" fill="#B9E9FD"/>
<path d="M46.153 21.0458L45.3525 12.3647C45.1722 12.8311 44.7419 13.1801 44.2109 13.2294C43.6467 13.2814 43.1312 12.9799 42.8828 12.5067L43.6913 21.273C43.7543 21.9539 44.3574 22.4523 45.0361 22.3905C45.7158 22.3275 46.216 21.7256 46.153 21.0458Z" fill="#83D3FC"/>
<path d="M34.3673 13.9159C33.8443 13.477 33.7762 12.6977 34.2151 12.1747L42.3772 2.44763C42.816 1.92463 43.5954 1.85596 44.1184 2.29542C44.6414 2.73374 44.7101 3.51366 44.2712 4.03667L36.1091 13.7637C35.6725 14.2839 34.8926 14.3571 34.3673 13.9159Z" fill="#E0F9FE"/>
<path d="M38.3253 9.16216C37.9351 8.83485 37.7634 8.34389 37.8241 7.87354L34.2151 12.1749C33.7762 12.6979 33.8443 13.4772 34.3673 13.9161C34.8926 14.3573 35.6725 14.284 36.1091 13.7639L39.769 9.40192C39.2969 9.58388 38.7425 9.51235 38.3253 9.16216Z" fill="#B9E9FD"/>
<path d="M45.5043 0.547928C44.5156 -0.281781 43.041 -0.153033 42.2112 0.835751C41.381 1.82511 41.5103 3.29913 42.4991 4.12941C43.4879 4.95912 44.9625 4.83037 45.7922 3.84102C46.6224 2.85223 46.4931 1.37764 45.5043 0.547928Z" fill="#FC7ACD"/>
<path d="M46.0022 2.36783C45.49 2.97838 44.5808 3.05792 43.9702 2.54579C43.3603 2.03366 43.2807 1.12441 43.7923 0.513862C43.9851 0.284404 44.234 0.129907 44.5024 0.0538025C43.6801 -0.1253 42.7892 0.144784 42.2112 0.833729C41.381 1.82309 41.5103 3.29711 42.4991 4.12739C43.4884 4.9571 44.963 4.82835 45.7927 3.83899C46.2768 3.2622 46.4325 2.52061 46.2831 1.83739C46.2293 2.02622 46.1366 2.20761 46.0022 2.36783Z" fill="#F948B4"/>
<path d="M28.4426 21.5621C26.4393 19.881 23.4529 20.1425 21.7723 22.1452C20.0911 24.1485 20.3521 27.1349 22.3554 28.8161C24.3587 30.4967 27.3451 30.2357 29.0257 28.2324C30.7068 26.2297 30.4459 23.2427 28.4426 21.5621Z" fill="#E0F9FE"/>
<path d="M28.0085 33.9985H22.7894C21.7748 33.9985 20.9531 34.8208 20.9531 35.8348C20.9531 36.8493 21.7754 37.6716 22.7894 37.6716H28.0085C29.0225 37.6716 29.8447 36.8493 29.8447 35.8348C29.8453 34.8208 29.0225 33.9985 28.0085 33.9985Z" fill="#E0F9FE"/>
<path d="M25.1074 35.8349C25.1074 34.8209 25.9297 33.998 26.9442 33.998H22.7899C21.7754 33.998 20.9531 34.8209 20.9531 35.8349C20.9531 36.8494 21.7754 37.6717 22.7899 37.6717H26.9442C25.9297 37.6717 25.1074 36.8494 25.1074 35.8349Z" fill="#B9E9FD"/>
<path d="M44.8442 25.6837L20.9572 5.64018C20.1801 4.98785 20.0782 3.82912 20.7306 3.05263C21.3829 2.27556 22.541 2.17428 23.3181 2.82603L47.2057 22.8701C47.9828 23.5218 48.0841 24.6806 47.4317 25.4576C46.78 26.2347 45.6213 26.336 44.8442 25.6837Z" fill="#61B6FF"/>
<path d="M47.2056 22.8697L43.7958 20.0092C43.0399 19.6951 42.1369 19.889 41.583 20.55C41.0291 21.2103 40.9942 22.1327 41.4348 22.8228L44.8441 25.6838C45.6211 26.3362 46.7799 26.2343 47.4316 25.4578C48.0839 24.6802 47.9827 23.522 47.2056 22.8697Z" fill="#83D3FC"/>
<path d="M28.5948 9.6508C29.0886 9.06257 29.8245 8.79878 30.5346 8.88118L23.3179 2.82602C22.5408 2.17369 21.3827 2.27498 20.7303 3.05204C20.0786 3.82911 20.1799 4.98784 20.9569 5.63959L28.1737 11.6947C27.9688 11.0104 28.101 10.2396 28.5948 9.6508Z" fill="#5294E5"/>
<path d="M16.1206 38.395C15.8877 38.395 15.6606 38.4208 15.4414 38.4677C15.7573 37.9115 16.3535 37.5361 17.0385 37.5361H34.1024C35.117 37.5361 35.9392 38.3584 35.9392 39.3724C35.9392 40.3869 35.117 41.2092 34.1024 41.2092H19.3073C19.1104 39.6253 17.7572 38.395 16.1206 38.395Z" fill="#B9E9FD"/>
<path d="M25.9467 37.5361H17.039C16.3541 37.5361 15.7573 37.9121 15.4414 38.4677C15.6606 38.4208 15.8877 38.395 16.1206 38.395C17.7572 38.395 19.1104 39.6253 19.3073 41.2092H25.9467C25.1793 40.9511 24.626 40.2273 24.626 39.3724C24.6254 38.5181 25.1793 37.7942 25.9467 37.5361Z" fill="#83D3FC"/>
<path d="M27.2814 29.5319C24.6509 29.188 25.3988 27.0233 25.3988 27.0233L25.9933 23.4498C25.028 21.2994 27.1114 20.7741 27.1126 20.7736C25.2746 20.06 23.1099 20.5498 21.7721 22.144C20.0909 24.1473 20.3524 27.1337 22.3552 28.8149C23.7754 30.0062 25.6889 30.2208 27.2814 29.5319Z" fill="#B9E9FD"/>
<path d="M26.5796 23.7821C25.8025 23.1297 24.6444 23.231 23.992 24.0081C23.3403 24.7852 23.4416 25.9433 24.2186 26.5956C24.9957 27.2474 26.1539 27.1461 26.8062 26.369C27.4579 25.5926 27.3567 24.4338 26.5796 23.7821Z" fill="#83D3FC"/>
<path d="M11.8607 63.7007H36.7205C37.0621 62.015 37.3751 60.7693 38.6763 59.4984V55.0054H5.81641C7.398 58.2023 9.44195 61.1298 11.8607 63.7007Z" fill="#4374D3"/>
<path d="M10.0702 60.549V55.0054H5.81641C7.04609 57.4905 8.55616 59.812 10.3031 61.9303C10.1532 61.4971 10.0702 61.0325 10.0702 60.549Z" fill="#3957C9"/>
<path d="M11.457 63.2656C12.7434 64.6778 14.1413 65.9859 15.6359 67.1778H36.7414C36.5595 66.5461 36.4633 65.8921 36.4633 65.222C36.4633 64.5514 36.5595 63.8973 36.7414 63.2656H11.457Z" fill="#E0F9FE"/>
<path d="M16.1176 44.8194C14.3461 44.8194 12.9052 43.3785 12.9052 41.6075C12.9052 40.7675 13.2297 40.0025 13.759 39.4297H2.11328C2.16192 45.0191 3.48831 50.3035 5.81493 55.0053H38.6748V44.3564H17.7776C17.2924 44.65 16.7247 44.8194 16.1176 44.8194Z" fill="#5294E5"/>
<path d="M10.0688 43.3785C10.0688 41.5949 11.1817 40.0597 12.7461 39.4297H2.11328C2.16192 45.0191 3.48831 50.3029 5.81493 55.0048H10.0688V43.3785Z" fill="#4374D3"/>
<path d="M33.6614 52.0337C34.2617 52.0337 34.7481 51.5473 34.7481 50.9471V48.5003C34.7481 47.9 34.2617 47.4131 33.6614 47.4131C33.0606 47.4131 32.5742 47.9 32.5742 48.5003V50.9471C32.5742 51.5468 33.0606 52.0337 33.6614 52.0337Z" fill="#61B6FF"/>
<path d="M29.5247 52.0337C30.125 52.0337 30.6113 51.5473 30.6113 50.9471V48.5003C30.6113 47.9 30.125 47.4131 29.5247 47.4131C28.9239 47.4131 28.4375 47.9 28.4375 48.5003V50.9471C28.4375 51.5468 28.9239 52.0337 29.5247 52.0337Z" fill="#61B6FF"/>
<path d="M25.3913 52.0337C25.9916 52.0337 26.478 51.5473 26.478 50.9471V48.5003C26.478 47.9 25.9916 47.4131 25.3913 47.4131C24.7911 47.4131 24.3047 47.9 24.3047 48.5003V50.9471C24.3047 51.5468 24.7911 52.0337 25.3913 52.0337Z" fill="#61B6FF"/>
<path d="M21.0627 50.3121C21.8575 50.3121 22.5115 49.6627 22.5115 48.8633C22.5115 47.9409 21.6624 47.2628 20.78 47.4419C20.0894 47.5815 19.6133 48.1823 19.6133 48.8633C19.6139 49.6735 20.2782 50.3121 21.0627 50.3121Z" fill="#61B6FF"/>
<path d="M16.7692 50.3118C17.5611 50.3118 18.2186 49.6646 18.2186 48.8624C18.2186 48.1963 17.7539 47.5835 17.0518 47.441C16.1752 47.2659 15.3203 47.9354 15.3203 48.8624C15.3203 49.6606 15.9703 50.3118 16.7692 50.3118Z" fill="#61B6FF"/>
<path d="M19.0916 39.891C18.1446 38.251 16.0469 37.6885 14.4063 38.6361C12.7664 39.5831 12.2045 41.6803 13.1515 43.3208C14.0985 44.9608 16.1956 45.5227 17.8362 44.5757C19.4761 43.6287 20.0386 41.5315 19.0916 39.891Z" fill="#83D3FC"/>
<path d="M14.4069 38.6372C12.7663 39.5842 12.2044 41.682 13.1514 43.3225C14.0985 44.9625 16.1962 45.5244 17.8367 44.5774C16.5224 44.2254 16.8462 42.8624 16.8462 42.8624L15.3974 40.3527C13.9926 39.9762 14.4069 38.6372 14.4069 38.6372Z" fill="#61B6FF"/>
<path d="M16.8445 42.8618C16.159 43.2577 15.2663 43.026 14.8652 42.3313C14.5322 41.7545 14.6278 40.9912 15.1645 40.5168C15.8363 39.9269 16.9115 40.0791 17.375 40.8825C17.7744 41.5737 17.5369 42.4624 16.8445 42.8618Z" fill="#5294E5"/>
<path d="M40.6922 31.5117H46.7267C50.6647 31.5117 54.1947 33.9396 55.604 37.6161L57.3739 42.2333C58.6488 44.5399 60.711 46.3109 63.1842 47.2218C63.2019 47.2287 63.2196 47.235 63.2374 47.2419C65.9102 48.2421 67.6583 50.8262 67.6583 53.6804V63.5557H55.4587C54.5529 59.2189 50.7013 55.6614 46.0996 55.6614C42.9364 55.6614 40.128 57.207 38.3867 59.5811V33.8166C38.3867 32.544 39.419 31.5117 40.6922 31.5117Z" fill="#F948B4"/>
<path d="M47.973 53.2381V33.8166C47.973 32.9629 48.4388 32.2195 49.1283 31.8213C48.3558 31.6193 47.5501 31.5117 46.7267 31.5117H40.6916C39.419 31.5117 38.3867 32.544 38.3867 33.8166V59.5811C40.128 57.2064 42.9364 55.6608 46.0996 55.6608C47.0048 55.6608 47.8803 55.8005 48.7106 56.0551C48.2448 55.1979 47.973 54.228 47.973 53.2381Z" fill="#F6159C"/>
<path d="M46.1028 50.3018H48.3499C48.9502 50.3018 49.4371 49.8154 49.4371 49.2151C49.4371 48.6149 48.9502 48.1279 48.3499 48.1279H46.1028C45.502 48.1279 45.0156 48.6149 45.0156 49.2151C45.0156 49.8154 45.502 50.3018 46.1028 50.3018Z" fill="#FC7ACD"/>
<path d="M46.6657 42.5274H44.7706C44.1875 42.5274 43.7148 42.0548 43.7148 41.4717V36.7446C43.7148 36.3092 44.0685 35.9556 44.5039 35.9556H54.7717C55.0985 36.4746 55.3783 37.029 55.6037 37.6161L57.3736 42.2333C58.1586 43.6541 59.2441 44.8706 60.5391 45.8097H49.2665C48.8093 45.8097 48.4036 45.515 48.2622 45.0801L47.67 43.257C47.5286 42.8221 47.1235 42.5274 46.6657 42.5274Z" fill="#61B6FF"/>
<path d="M43.7148 36.7446V41.4717C43.7148 42.0548 44.1875 42.5274 44.7706 42.5274H46.6657C47.1229 42.5274 47.5281 42.8221 47.6694 43.257L47.9727 44.1891V35.9556H44.5034C44.0679 35.9556 43.7148 36.3092 43.7148 36.7446Z" fill="#5294E5"/>
<path d="M63.4538 57.002H68.0201C68.9768 57.002 69.759 57.7842 69.759 58.7409V61.5264C69.759 62.4826 68.9768 63.2654 68.0201 63.2654H63.4538C62.4976 63.2654 61.7148 62.4826 61.7148 61.5264V58.7409C61.7148 57.7842 62.4976 57.002 63.4538 57.002Z" fill="#FFADE5"/>
<path d="M65.7369 61.5265V58.7404C65.7369 57.7843 66.5197 57.0015 67.4759 57.0015H63.4538C62.4976 57.0015 61.7148 57.7843 61.7148 58.7404V61.5265C61.7148 62.4827 62.4976 63.2655 63.4538 63.2655H67.4759C66.5197 63.2655 65.7369 62.4827 65.7369 61.5265Z" fill="#FC7ACD"/>
<path d="M55.659 65.222C55.659 64.5514 55.5886 63.8973 55.457 63.2656H67.8014C68.8817 63.2656 69.7578 64.1417 69.7578 65.222C69.7578 66.3024 68.8817 67.1778 67.8014 67.1778H55.457C55.5886 66.5461 55.659 65.8921 55.659 65.222Z" fill="#E0F9FE"/>
<path d="M55.8763 65.2218C55.8763 70.6218 51.4983 74.9998 46.0983 74.9998C40.6977 74.9998 36.3203 70.6218 36.3203 65.2218C36.3203 59.8213 40.6977 55.4438 46.0983 55.4438C51.4983 55.4438 55.8763 59.8213 55.8763 65.2218Z" fill="#4374D3"/>
<path d="M48.3168 70.0769C48.402 69.7461 48.2235 69.4079 47.9093 69.2729C46.7855 68.7894 46.8067 67.7731 46.9263 67.1912C46.9801 66.9326 46.8822 66.6716 46.6802 66.5017C45.7824 65.7464 45.6909 64.4972 45.7109 63.8552C45.7183 63.6086 45.5879 63.3825 45.3802 63.2486C44.3055 62.554 44.5367 61.5423 44.8137 60.9398C44.9481 60.6479 44.8572 60.2977 44.5979 60.1078C42.0739 58.2567 44.2409 55.6662 44.2844 55.6147C39.7513 56.4656 36.3203 60.4419 36.3203 65.2222C36.3203 70.6222 40.6983 75.0002 46.0983 75.0002C47.7445 75.0002 49.2947 74.5916 50.656 73.8729C47.9855 72.9345 48.065 71.0525 48.3168 70.0769Z" fill="#3957C9"/>
<path d="M50.9889 65.222C50.9889 67.9217 48.7996 70.111 46.0999 70.111C43.3997 70.111 41.2109 67.9217 41.2109 65.222C41.2109 62.5217 43.3997 60.333 46.0999 60.333C48.7996 60.333 50.9889 62.5217 50.9889 65.222Z" fill="#E0F9FE"/>
<path d="M47.911 69.2726C46.7872 68.7891 46.8083 67.7729 46.9279 67.1909C46.9817 66.9323 46.8839 66.6714 46.6819 66.5014C45.7841 65.7461 45.6925 64.4969 45.7125 63.8549C45.72 63.6083 45.5895 63.3823 45.3818 63.2484C44.3072 62.5537 44.5384 61.542 44.8153 60.9395C44.8817 60.7959 44.8926 60.6385 44.8565 60.4932C42.7588 61.0431 41.2109 62.9514 41.2109 65.2219C41.2109 67.9216 43.3997 70.1109 46.0999 70.1109C46.8781 70.1109 47.6129 69.9284 48.2658 69.6051C48.1931 69.4603 48.0695 69.3407 47.911 69.2726Z" fill="#83D3FC"/>
<path d="M46.1001 67.0331C47.1015 67.0331 47.9129 66.2171 47.9129 65.222C47.9129 64.2808 47.1902 63.5083 46.2786 63.4196C45.2172 63.3143 44.2891 64.1537 44.2891 65.222C44.2891 66.22 45.1039 67.0331 46.1001 67.0331Z" fill="#83D3FC"/>
<path d="M44.2891 65.2222C44.2891 66.2207 45.1039 67.0333 46.1001 67.0333C46.3914 67.0333 46.6655 66.9629 46.9092 66.8404C46.8686 66.7111 46.7914 66.5927 46.6826 66.5017C45.7848 65.7463 45.6933 64.4972 45.7133 63.8552C45.7173 63.7201 45.679 63.592 45.6103 63.481C44.8567 63.695 44.2891 64.3873 44.2891 65.2222Z" fill="#61B6FF"/>
<path d="M65.7384 33.1643C64.661 33.1643 63.75 32.2883 63.75 31.1759C63.75 30.2518 64.388 29.4232 65.3488 29.2252C66.5573 28.9832 67.7269 29.9061 67.7269 31.1759C67.7269 32.2688 66.8371 33.1643 65.7384 33.1643Z" fill="#4374D3"/>
<path d="M57.3713 16.3167C56.2938 16.3167 55.3828 15.4406 55.3828 14.3282C55.3828 13.4047 56.0208 12.5755 56.9816 12.3776C58.1901 12.1355 59.3597 13.0585 59.3597 14.3282C59.3597 15.4212 58.4699 16.3167 57.3713 16.3167Z" fill="#FADDA0"/>
<path d="M55.8785 27.8511C55.0442 27.8511 54.3867 27.1707 54.3867 26.3599C54.3867 25.6755 54.8582 25.0501 55.5878 24.8984C56.4913 24.7159 57.3697 25.4083 57.3697 26.3599C57.3697 27.1942 56.6904 27.8511 55.8785 27.8511Z" fill="#FD7E31"/>
<path d="M10.2228 34.7186C10.2228 34.3581 10.3653 34.0319 10.5965 33.7904C10.0672 33.8946 9.50524 33.8637 8.96107 33.6714C7.33255 33.0969 6.47881 31.3145 7.05331 29.686C7.26789 29.0777 6.94917 28.4111 6.34091 28.1965C5.73322 27.9825 5.06659 28.3012 4.85201 28.9095C3.84834 31.7545 5.33839 34.8696 8.184 35.8733C9.21628 36.2372 10.2852 36.2698 11.2768 36.0295C10.6743 35.8973 10.2228 35.3606 10.2228 34.7186Z" fill="#B9E9FD"/>
</g>
<defs>
<clipPath id="clip0_338_3341">
<rect width="75" height="75" fill="white" transform="translate(0.5)"/>
</clipPath>
</defs>
</svg>
