<svg width="20" height="18" viewBox="0 0 20 18" fill="none" xmlns="http://www.w3.org/2000/svg">
<path d="M20 8.99998C20 5.03537 17.6928 1.60975 14.3478 -0.00775146V18.0077C17.6928 16.3902 20 12.9646 20 8.99998Z" fill="#D80027"/>
<path d="M0 8.99998C0 12.9646 2.30723 16.3902 5.65219 18.0077V-0.00775146C2.30723 1.60975 0 5.03537 0 8.99998Z" fill="#D80027"/>
<path d="M11.7391 10.3043L13.4782 9.43475L12.6087 8.99999V8.13042L10.8696 8.99999L11.7391 7.26085H10.8696L10 5.95651L9.13043 7.26085H8.26086L9.13043 8.99999L7.39129 8.13042V8.99999L6.52176 9.43475L8.26086 10.3043L7.8261 11.1739H9.56524V12.4782H10.4348V11.1739H12.1739L11.7391 10.3043Z" fill="#D80027"/>
</svg>
