<svg width="68" height="69" viewBox="0 0 68 69" fill="none" xmlns="http://www.w3.org/2000/svg">
<g clip-path="url(#clip0_1_2418)">
<path d="M22.9356 14.3793C11.3786 20.7855 7.20295 35.3477 13.6091 46.9047C13.625 46.9334 13.6419 46.9616 13.6578 46.9903L55.1501 47.4528C59.3007 40.3936 59.7186 31.3866 55.461 23.7058C49.0549 12.1488 34.4926 7.97316 22.9356 14.3793Z" fill="#F6159C"/>
<path d="M47.5589 43.7715C47.1345 43.496 46.8819 43.0214 46.8907 42.5155L46.9405 39.6555C44.2292 37.26 42.2109 34.1533 41.1333 30.6599L40.0187 27.0479L39.5097 56.2075L45.9693 56.3202C46.0242 56.2902 46.0795 56.2618 46.1345 56.2312C48.9995 54.6432 51.4101 52.5533 53.3192 50.1329C51.9967 47.5639 50.0194 45.3634 47.5589 43.7715Z" fill="#83D3FC"/>
<path d="M41.1333 30.6599L40.0187 27.0479L39.5097 56.2075L43.513 56.2773C43.2959 51.4203 42.9891 44.5839 42.8764 42.2567C42.695 38.5052 45.5415 38.2907 45.5415 38.2907L45.5422 38.2903C43.5317 36.1253 42.0166 33.5226 41.1333 30.6599Z" fill="#61B6FF"/>
<path d="M55.1994 47.3688C53.675 45.005 51.6463 42.9731 49.2462 41.4105C48.3426 40.8222 47.4943 40.1637 46.7065 39.445L46.653 42.5116C46.6441 43.0173 46.8968 43.4921 47.3211 43.7673C49.84 45.3971 51.8528 47.6646 53.1752 50.3122C53.9267 49.3784 54.6022 48.3938 55.1994 47.3688Z" fill="#1D319B"/>
<path d="M22.186 39.2234L22.1361 42.0918C22.1275 42.5924 21.8612 43.0532 21.4318 43.3108L21.4246 43.3153C18.8608 44.8502 16.7759 47.0344 15.3626 49.6204C17.2981 52.2191 19.6921 54.3316 22.3669 55.9082L29.0348 56.0245L29.5438 26.8649L28.304 30.436C27.105 33.8894 24.9794 36.9239 22.186 39.2234Z" fill="#83D3FC"/>
<path d="M25.7453 55.9672L29.0347 56.0245L29.5438 26.8649L28.304 30.436C27.2562 33.4541 25.5007 36.1522 23.2102 38.3194C23.2102 38.3194 25.8988 39.1412 25.8919 42.3934C25.8874 44.616 25.8001 51.7022 25.7453 55.9672Z" fill="#61B6FF"/>
<path d="M13.5537 46.8016C13.5722 46.8358 13.59 46.8704 13.6091 46.9047C14.1783 47.9317 14.813 48.8988 15.503 49.8069C16.9171 47.1411 19.0386 44.89 21.6623 43.3192L21.6691 43.315C22.0986 43.0573 22.3651 42.5964 22.3737 42.0957L22.4276 39.0211C21.615 39.7118 20.7444 40.3405 19.8207 40.897C17.3116 42.4086 15.173 44.4236 13.5537 46.8016Z" fill="#1D319B"/>
<path d="M39.6478 12.2101C38.9008 11.3511 37.8936 10.5751 36.533 10.0514C35.677 9.72204 34.4879 9.70123 33.6209 10.0004C32.2427 10.4765 31.2093 11.2167 30.4326 12.0494C29.5541 15.2846 29.4556 18.3866 29.4556 18.3866L28.7864 56.7332L39.7334 56.9244L40.4028 18.5773C40.4028 18.5773 40.4129 15.4741 39.6478 12.2101Z" fill="#D0F6FA"/>
<path d="M33.6167 10.2382C34.4836 9.93907 35.6728 9.95987 36.5288 10.2892C37.9373 10.8309 38.9677 11.6432 39.7222 12.5387C39.1659 10.0046 38.1545 7.31286 36.3147 5.85705C35.6348 5.3189 34.6835 5.30232 33.9849 5.81645C32.0956 7.20697 30.9909 9.86186 30.3464 12.3746C31.1318 11.5065 32.19 10.7307 33.6167 10.2382Z" fill="#FBB362"/>
<path d="M38.1712 15.9731C38.1238 15.882 38.0754 15.7915 38.026 15.7025C37.6898 15.0959 37.1739 14.6343 36.4582 14.358C35.7121 14.0711 34.4031 14.0003 33.4562 14.3385C32.818 14.5666 32.2803 15.0152 31.9314 15.5959C31.8788 15.6835 31.8274 15.7717 31.7769 15.8616C31.1596 16.9575 32.2416 18.2524 33.4274 17.8337C33.4461 17.8272 33.4648 17.8208 33.4834 17.8144C34.2873 17.5367 35.6036 17.5594 36.3971 17.865C36.4158 17.872 36.4342 17.8793 36.4528 17.8869C37.6234 18.3463 38.7497 17.09 38.1712 15.9731Z" fill="#3957C9"/>
<path d="M34.8628 15.4063C34.9227 15.3003 34.9836 15.1954 35.0462 15.0919C35.253 14.7474 35.5161 14.4423 35.8221 14.1894C35.0925 14.0613 34.1712 14.083 33.4562 14.3385C32.8182 14.5669 32.2803 15.0152 31.931 15.5961C31.8788 15.6835 31.827 15.7719 31.7765 15.8618C31.1596 16.9575 32.2412 18.2526 33.4271 17.8338C33.4461 17.8272 33.4648 17.8208 33.4834 17.8144C34.0457 17.6201 34.8585 17.5734 35.5684 17.6675C34.7993 17.2786 34.3664 16.2882 34.8628 15.4063Z" fill="#1D319B"/>
<path d="M28.7856 56.734L29.0669 40.6344L40.014 40.8256L39.7326 56.9252L28.7856 56.734Z" fill="#B9E9FD"/>
<path d="M28.755 58.5209C32.2969 59.4035 36.0445 59.4817 39.7027 58.6708L39.7423 56.4179L28.7952 56.2267L28.755 58.5209Z" fill="#83D3FC"/>
<path d="M41.7355 48.3541C40.4913 50.2807 39.4434 52.5085 38.6429 54.9585L46.3604 55.0933C45.6458 52.6168 44.6762 50.3538 43.5002 48.3848C43.0841 47.6886 42.1756 47.6727 41.7355 48.3541Z" fill="#FBB362"/>
<path d="M38.5742 58.8924C41.1575 58.4501 43.7123 57.5739 46.1345 56.2313C46.2046 56.1924 46.2729 56.152 46.3426 56.1124L46.3602 55.093L38.6427 54.9583L38.5742 58.8924Z" fill="#FADDA0"/>
<path d="M42.23 55.021L38.6427 54.9583L38.5742 58.8924C39.7856 58.685 40.9905 58.3809 42.1784 57.9793L42.23 55.021Z" fill="#FBB362"/>
<path d="M34.6584 33.9982C34.1661 33.9898 33.7741 33.5838 33.7825 33.0915L33.9958 20.8923C34.0042 20.4 34.4101 20.0079 34.9026 20.0167C35.3946 20.0253 35.7866 20.4312 35.778 20.9232L35.5653 33.1226C35.5565 33.6151 35.1504 34.0068 34.6584 33.9982Z" fill="#B9E9FD"/>
<path d="M34.2198 59.1279C33.3338 59.1127 32.6283 58.382 32.6435 57.4959L33.0575 33.7782C33.0733 32.8924 33.804 32.1868 34.6896 32.2023C35.5758 32.2178 36.2814 32.9485 36.2659 33.8342L35.8519 57.552C35.8364 58.4381 35.1057 59.1437 34.2198 59.1279Z" fill="#83D3FC"/>
<path d="M34.5569 39.8069C33.6709 39.7917 32.9402 40.4972 32.925 41.3832L32.6396 57.7336C32.624 58.6198 33.3297 59.35 34.2156 59.3658C35.1016 59.381 35.8323 58.6755 35.8477 57.7898L36.1329 41.4391C36.1485 40.5529 35.4429 39.8222 34.5569 39.8069Z" fill="#3957C9"/>
<path d="M34.459 47.8834C33.7613 47.8711 33.158 47.4893 32.8282 46.929L32.6396 57.7337C32.6238 58.6195 33.3297 59.35 34.2156 59.3658C35.1016 59.3811 35.8323 58.6755 35.8477 57.7899L36.0342 47.1136C35.6744 47.5896 35.1015 47.8945 34.459 47.8834Z" fill="#1D319B"/>
<path d="M25.3201 48.0673C24.0758 49.9944 23.0278 52.2222 22.2272 54.6719L29.945 54.8064C29.2303 52.3305 28.261 50.0672 27.0844 48.0981C26.6689 47.402 25.7598 47.3861 25.3201 48.0673Z" fill="#FBB362"/>
<path d="M22.2073 55.8148C24.5802 57.2377 27.1784 58.2347 29.8757 58.7716L29.945 54.8065L22.2272 54.6719L22.2073 55.8148Z" fill="#FADDA0"/>
<path d="M25.8285 54.7348L22.2272 54.6719L22.2073 55.8148C23.3501 56.5002 24.5457 57.0858 25.7791 57.5697L25.8285 54.7348Z" fill="#FBB362"/>
<path d="M36.315 5.85687C35.6348 5.3189 34.6835 5.30232 33.9849 5.81645C32.0959 7.20679 30.9912 9.86167 30.3464 12.3746C31.1318 11.5065 32.19 10.7307 33.6167 10.2382C34.2847 10.0075 35.1435 9.96804 35.8941 10.112C33.7877 7.3097 36.315 5.85687 36.315 5.85687Z" fill="#FD7E31"/>
<path d="M50.8086 46.7848C50.4938 43.9429 52.901 44.4561 52.9105 44.4582C51.8213 43.3108 50.5924 42.2867 49.2461 41.4104C48.3426 40.8222 47.4946 40.1634 46.7068 39.4448L46.6533 42.5114C46.6441 43.0172 46.8968 43.4921 47.3214 43.767C48.6293 44.6135 49.7995 45.6331 50.8087 46.7874C50.8087 46.7865 50.8086 46.7857 50.8086 46.7848Z" fill="#3957C9"/>
<path d="M16.157 43.7146C16.2473 43.7021 18.576 43.4056 18.1982 46.0807C18.198 46.0812 18.1979 46.0817 18.1981 46.082C19.2167 45.0193 20.3788 44.0873 21.6623 43.3191L21.6691 43.3149C22.0987 43.0576 22.3651 42.5963 22.3737 42.0957L22.4276 39.021C21.6149 39.7118 20.7444 40.3405 19.8207 40.8969C18.487 41.7004 17.2591 42.6475 16.157 43.7146Z" fill="#3957C9"/>
<path d="M41.7353 48.3539C40.4913 50.2808 39.4434 52.5086 38.6428 54.9583L42.2446 55.0213C42.5532 52.563 42.9467 50.3237 43.4053 48.3829C43.4136 48.3482 43.4228 48.3161 43.4315 48.2846C42.9917 47.6902 42.153 47.7076 41.7353 48.3539Z" fill="#FD7E31"/>
<path d="M25.3201 48.0674C24.0758 49.9945 23.0277 52.2219 22.2272 54.672L25.8288 54.7346C26.138 52.2765 26.531 50.0371 26.9898 48.0966C26.9982 48.0614 27.0071 48.0294 27.0163 47.9981C26.5763 47.4033 25.7376 47.4207 25.3201 48.0674Z" fill="#FD7E31"/>
</g>
<defs>
<clipPath id="clip0_1_2418">
<rect width="50" height="50" fill="white" transform="translate(0.0285339 24.6205) rotate(-29)"/>
</clipPath>
</defs>
</svg>
