<svg width="121" height="121" viewBox="0 0 121 121" fill="none" xmlns="http://www.w3.org/2000/svg">
<g clip-path="url(#clip0_1_429)">
<path d="M49.2528 13.376C48.5203 13.376 47.82 12.9585 47.494 12.2489C47.0473 11.2785 47.4721 10.1304 48.4425 9.68363C54.8933 6.71733 61.7525 5.04557 68.8313 4.71507C69.9034 4.67112 70.8043 5.4896 70.8546 6.55711C70.9041 7.6237 70.0792 8.52916 69.0126 8.57951C62.4318 8.88621 56.056 10.4399 50.0593 13.1983C49.7975 13.3183 49.5228 13.376 49.2528 13.376Z" fill="#9D4AD3"/>
<path d="M18.61 63.5094C17.5801 63.5094 16.7231 62.6974 16.6783 61.6582C16.4448 56.2081 17.0271 50.7744 18.4104 45.5092C18.6814 44.4765 19.7398 43.8585 20.7725 44.1295C21.8052 44.4015 22.4232 45.4589 22.1513 46.4916C20.8668 51.3824 20.3257 56.4287 20.5436 61.4925C20.5894 62.56 19.7608 63.4618 18.6933 63.5076C18.6659 63.5094 18.6384 63.5094 18.61 63.5094Z" fill="#DCB1F3"/>
<path d="M62.2138 62.7284C63.1861 61.3359 63.8764 59.7145 64.1841 57.9301C65.3028 51.4363 60.9458 45.2657 54.452 44.146C47.9582 43.0272 41.7875 47.3851 40.6687 53.8789C40.2101 56.5422 40.6733 59.1505 41.826 61.378C48.6448 60.4231 55.5955 60.8873 62.2138 62.7284Z" fill="#FACE7A"/>
<path d="M55.8967 61.4027C56.3609 59.167 57.7909 57.1135 54.5381 54.9849C48.1614 50.8101 52.3326 44.1203 52.4241 43.9747C46.7195 43.9692 41.6694 48.0662 40.6687 53.8789C40.2101 56.5422 40.6733 59.1505 41.826 61.378C46.5043 60.7225 51.244 60.7353 55.8967 61.4027Z" fill="#FBB362"/>
<path d="M49.3315 60.8974C49.5677 60.4085 49.7425 59.8793 49.8396 59.3163C50.3962 56.0844 48.2273 53.0128 44.9955 52.4562C43.4721 52.1935 41.9862 52.5377 40.7804 53.3122C40.7392 53.499 40.7017 53.6876 40.6687 53.8789C40.2101 56.5422 40.6751 59.1496 41.8287 61.378C44.3199 61.0292 46.8275 60.869 49.3315 60.8974Z" fill="#FC9949"/>
<path d="M0.5 86.5C9.80266 107.585 32.7731 120 59.0189 120C76.1626 120 92.1949 116.276 103.5 106C102.486 99.8938 99.7465 91.2333 96.1886 85.5624C80.8558 61.1175 46.8987 52.743 20.3426 66.8554C12.1754 71.1956 5.1623 79.6141 0.5 86.5Z" fill="#61B6FF"/>
<path d="M55.9132 60.8653C44.9836 59.2787 31.3061 60.55 21 66.5C13.5055 70.8277 4.77826 79.6428 0.5 86.5074C5 98.0074 16.5 108 27 113C27.097 103.657 36.2138 99.1912 36.2138 99.1912C36.2138 99.1912 40.8024 97.4214 40.2559 92.2615C39.9739 89.6047 41.6493 87.715 43.3403 86.5074C44.752 85.4994 45.3416 83.7206 44.9022 82.0433C44.2476 79.5421 45.3343 76.9979 46.1125 75.6044C46.5153 74.8848 46.6975 74.0599 46.6151 73.2396C45.6245 63.3812 54.9006 61.086 55.9132 60.8653Z" fill="#5294E5"/>
<path d="M96 85C80.5 62 47.267 51.963 23.0001 65.5C22.3152 68.8435 24.0987 73.8484 26.5367 76.2663C27.2371 76.9612 28.0785 77.6176 28.322 78.5734C28.5134 79.3242 28.2927 80.1088 28.1261 80.865C28.1233 80.8751 28.1215 80.8851 28.1197 80.8952C27.7718 82.4882 29.8454 83.4559 30.8571 82.1769C32.907 79.5869 33.189 75.2675 35.7955 77.2798C39.9748 80.507 42.7617 77.1187 42.7617 77.1187C44.0206 75.1246 46.5868 74.492 48.8994 74.0278C51.2944 73.5463 54.7597 73.6891 54.4109 76.8193C54.355 77.3182 54.1738 77.7842 53.9018 78.1953C53.152 79.3287 53.2646 80.8613 54.2076 81.8391C54.9803 82.6402 56.317 83.0934 58.6315 82.2566C62.4272 80.8613 66.733 80.908 70.4985 82.3857C71.0268 82.5926 71.5724 82.8499 71.8874 83.3223C72.3525 84.0199 72.173 84.9528 71.9029 85.7466C70.1616 90.8781 65.3853 95.1472 65.7295 100.555C65.9493 104.015 68.3022 106.982 70.9526 109.218C73.3678 111.256 76.1162 112.897 79.055 114.057C80.0054 114.433 81.0826 116.813 82 117.269C88.5 116 99.5 111 103.5 106C102.5 99.5 99.5 90.5 96 85Z" fill="#A2EC00"/>
<path d="M23 65.5001C22.3152 68.8436 24.0986 73.8485 26.5367 76.2664C27.237 76.9613 28.0784 77.6177 28.3219 78.5735C28.5133 79.3243 28.2927 80.1089 28.126 80.8651C28.1233 80.8752 28.1214 80.8852 28.1196 80.8953C27.7717 82.4874 29.8454 83.456 30.857 82.177C32.9069 79.587 33.1889 75.2676 35.7954 77.2799C39.9748 80.5071 42.7616 77.1188 42.7616 77.1188C43.5911 75.805 44.9891 75.0835 46.5071 74.6111C46.6206 74.1653 46.6609 73.702 46.6142 73.2397C45.6291 63.4206 54.927 60.2857 56 60.0495C45.3103 58.5022 33.1303 59.8485 23 65.5001Z" fill="#00C82F"/>
<path d="M52.5523 92.2606C52.0955 92.1525 51.6459 92.0216 51.2147 91.8339C49.9623 91.2883 48.8472 90.002 49.1594 88.6726C49.2418 88.3192 49.4203 87.9896 49.4633 87.6289C49.5311 87.0604 49.2491 86.4992 48.8682 86.0725C47.5975 84.6461 45.3718 84.4878 43.5426 85.0398C41.7134 85.5919 40.1176 86.7134 38.3964 87.5429C37.0121 88.2094 35.9611 88.1737 34.6776 87.7699C34.0312 87.5667 33.3262 87.6536 32.7586 88.0254C31.1143 89.265 31.0365 91.682 31.291 93.7254C31.443 94.9431 31.7936 96.3383 32.9106 96.8474C33.3299 97.0378 33.8078 97.0735 34.2235 97.2694C35.063 97.6659 35.4823 98.6198 36.2129 99.1911C37.6338 100.302 39.7349 99.6672 41.2483 98.6876C42.7617 97.7071 44.1761 96.3859 45.9633 96.1507C47.4885 95.9502 48.9872 96.5901 50.3825 97.2392C50.5107 97.2987 50.6398 97.3592 50.7698 97.4187C52.1998 98.0788 53.8899 97.3811 54.4539 95.9099C55.0453 94.37 54.1581 92.6414 52.5523 92.2606Z" fill="#A2EC00"/>
<path d="M43.3403 86.5074C43.9637 86.0624 44.4261 85.4664 44.7108 84.7963C44.3126 84.8448 43.9189 84.9263 43.5426 85.0398C41.7134 85.5919 40.1176 86.7134 38.3964 87.5428C37.0121 88.2094 35.9611 88.1736 34.6776 87.7699C34.0312 87.5667 33.3262 87.6536 32.7586 88.0253C31.1143 89.265 31.0365 91.6819 31.291 93.7254C31.443 94.9431 31.7936 96.3383 32.9106 96.8473C33.3299 97.0378 33.8078 97.0735 34.2235 97.2694C35.063 97.6658 35.4823 98.6198 36.2129 99.1911C36.2129 99.1911 40.8024 97.4214 40.2559 92.2615C39.9739 89.6046 41.6493 87.715 43.3403 86.5074Z" fill="#00C82F"/>
<path d="M17.8291 73.9967C17.3649 73.6461 16.7863 73.4703 16.3276 73.1132C16.0731 72.9155 15.8708 72.6738 15.6941 72.4092C11.5962 75.8726 8.15289 79.9009 5.40723 84.3074C5.46674 84.4539 5.52625 84.6003 5.58667 84.7459C6.55347 84.4658 7.51843 84.1719 8.49622 83.9448C10.3868 83.5054 11.6713 83.8405 13.1407 84.6919C13.8823 85.1213 14.774 85.2092 15.576 84.9089C17.9445 83.8359 18.7098 80.8796 18.9607 78.2914C19.1108 76.7488 19.0641 74.9333 17.8291 73.9967Z" fill="#4374D3"/>
<path d="M92.754 85.818C90.7591 82.3628 88.4199 79.2317 85.8061 76.4393C83.7553 80.8806 79.9769 84.8036 80.2836 89.6357C80.5034 93.0964 82.8572 96.0637 85.5067 98.2994C87.9219 100.336 90.6703 101.978 93.6101 103.139C94.955 103.669 96.396 104.142 97.5651 104.952C98.0513 104.503 98.5301 104.046 99.0007 103.582C98.0705 97.4937 96.0188 91.4732 92.754 85.818Z" fill="#D7F9B7"/>
<path d="M101.341 45.8187C100.638 45.2684 100.311 44.3703 99.7267 43.6946C98.7223 42.5328 97.0726 42.1556 95.5363 42.1355C94.0001 42.1144 92.4592 42.3799 90.9321 42.2087C89.405 42.0384 87.8083 41.306 87.183 39.9016C86.6786 38.7709 86.9038 37.47 86.9642 36.2331C87.0247 34.9962 86.8113 33.5753 85.7814 32.8896C84.9382 32.3284 83.8368 32.4501 82.8352 32.3055C80.5528 31.9759 78.752 30.2364 77.2578 28.4795C76.6774 27.7965 76.0969 27.0806 75.3132 26.6457C74.1478 25.9984 72.7287 26.0753 71.4021 26.2044C71.3966 26.2044 71.3911 26.2053 71.3856 26.2062C71.4387 26.7263 71.5065 27.2481 71.5944 27.7709C73.7587 40.6789 85.9773 49.3874 98.8853 47.2231C100.132 47.0134 101.34 46.7095 102.503 46.3213C102.081 46.2444 101.683 46.0869 101.341 45.8187Z" fill="#F948B4"/>
<path d="M77.2578 28.4795C76.6774 27.7965 76.096 27.0806 75.3132 26.6457C74.1469 25.9984 72.7287 26.0753 71.4012 26.2044C71.3966 26.2053 71.3911 26.2053 71.3856 26.2062C71.4378 26.7263 71.5065 27.2481 71.5934 27.7709C72.4531 32.8923 74.8958 37.3519 78.3354 40.7347C77.3063 36.5023 79.4551 34.3663 81.0847 33.3895C81.5791 33.0928 81.9645 32.6689 82.2117 32.1746C80.2214 31.6481 78.6128 30.0734 77.2578 28.4795Z" fill="#C6237C"/>
<path d="M112.445 35.9703C110.809 34.077 108.122 33.4636 105.62 33.4297C103.117 33.3958 100.607 33.8289 98.1199 33.5505C95.6324 33.2713 93.0314 32.0784 92.0124 29.7923C91.1921 27.9503 91.5574 25.8308 91.6563 23.8166C91.7543 21.8016 91.4082 19.4871 89.7291 18.3702C88.3567 17.4565 86.5623 17.6533 84.9308 17.418C81.212 16.8815 78.2786 14.048 75.8451 11.186C75.6758 10.9865 75.5018 10.7859 75.3288 10.5854C72.2325 15.1677 70.7255 20.8339 71.4396 26.6978C71.4534 26.696 71.468 26.6942 71.4827 26.6932C72.7827 26.5669 74.1734 26.4909 75.316 27.1254C76.0841 27.552 76.6536 28.2542 77.2221 28.9235C78.6869 30.6456 80.4521 32.3503 82.6896 32.6735C83.672 32.8154 84.7514 32.6963 85.5772 33.2466C86.5879 33.9186 86.7958 35.3111 86.7363 36.5242C86.6777 37.7363 86.457 39.0117 86.9514 40.1204C87.5639 41.4955 89.1294 42.2133 90.6263 42.3817C92.1232 42.5493 93.6338 42.2883 95.1399 42.3085C96.6459 42.3295 98.2618 42.6985 99.2469 43.8374C99.8191 44.4993 100.14 45.3801 100.829 45.9193C101.211 46.2178 101.661 46.3771 102.138 46.4393C106.949 44.9177 111.008 41.9413 113.901 38.0961C113.421 37.3884 113.005 36.6176 112.445 35.9703Z" fill="#FC7ACD"/>
<path d="M84.9308 17.418C81.212 16.8815 78.2795 14.048 75.8461 11.186C75.6758 10.9855 75.5018 10.7859 75.3288 10.5854C72.2334 15.1667 70.7255 20.8339 71.4396 26.6978C71.4543 26.696 71.468 26.6942 71.4827 26.6932C72.7836 26.566 74.1734 26.4909 75.316 27.1254C76.0841 27.552 76.6536 28.2542 77.2221 28.9235C78.534 30.4652 80.0877 31.9905 82.0039 32.5251C82.36 32.007 82.5477 31.3817 82.5175 30.7289C82.1678 23.2728 85.8326 20.4448 88.0043 19.4285C88.5865 19.1566 89.0461 18.6989 89.3299 18.1431C88.0198 17.4922 86.4094 17.6313 84.9308 17.418Z" fill="#F948B4"/>
<path d="M118.21 22.4699C117.1 22.7647 115.811 22.8325 114.905 22.1238C114.212 21.5809 113.889 20.6956 113.313 20.0291C112.322 18.882 110.694 18.5103 109.179 18.4901C107.662 18.47 106.142 18.7318 104.636 18.5624C103.129 18.394 101.553 17.6716 100.936 16.2864C100.439 15.1704 100.661 13.8868 100.72 12.6664C100.78 11.447 100.57 10.0453 99.5527 9.3678C98.7214 8.81482 97.6347 8.93384 96.6459 8.79101C94.3937 8.466 92.6176 6.7503 91.1436 5.01629C90.5705 4.34247 89.9974 3.63659 89.2247 3.20721C88.0739 2.56909 86.6749 2.64416 85.3657 2.77234C84.843 2.82269 84.3211 2.88128 83.7993 2.94354C80.2443 4.84234 77.2743 7.60174 75.1191 10.9031C75.3993 11.2199 75.6721 11.5431 75.9449 11.8635C78.3281 14.6669 81.201 17.4418 84.843 17.9673C86.4415 18.1981 88.1984 18.0049 89.5433 18.8994C91.1876 19.9943 91.5272 22.2612 91.4302 24.2341C91.334 26.2071 90.9761 28.2826 91.7799 30.0871C92.7769 32.3265 95.3248 33.4947 97.761 33.7675C100.197 34.0403 102.656 33.6165 105.107 33.6503C107.558 33.6833 110.189 34.2839 111.792 36.1378C112.447 36.895 112.9 37.826 113.5 38.618C117.067 34.1374 119.006 28.387 118.616 22.3518C118.482 22.3939 118.347 22.4342 118.21 22.4699Z" fill="#B26CDE"/>
<path d="M91.1436 5.01639C90.5705 4.34257 89.9983 3.63578 89.2247 3.20731C88.0748 2.56827 86.6749 2.64426 85.3657 2.77152C84.843 2.82279 84.3211 2.88138 83.7993 2.94364C80.2443 4.84153 77.2743 7.60184 75.1191 10.9023C75.3993 11.2191 75.673 11.5432 75.9449 11.8636C78.3281 14.6661 81.201 17.4419 84.843 17.9665C86.2437 18.1689 87.7653 18.0462 89.0251 18.6138C89.3565 18.1945 89.5735 17.6864 89.6312 17.138C90.1265 12.3598 92.6268 10.4336 94.4331 9.66086C94.9696 9.43198 95.4063 9.04288 95.7039 8.56589C93.8902 7.96897 92.4052 6.50046 91.1436 5.01639Z" fill="#9D4AD3"/>
<path d="M117.926 22.5249C116.823 22.8179 115.542 22.8838 114.643 22.1807C113.955 21.6414 113.634 20.7616 113.061 20.0988C112.076 18.9599 110.46 18.5909 108.954 18.5708C107.484 18.5506 106.01 18.7951 104.548 18.6513L104.288 18.8573C104.288 18.8573 107.729 22.6183 104.48 24.9987C101.232 27.38 102.712 31.942 105.108 33.6495C107.559 33.6834 110.19 34.283 111.793 36.1379C112.448 36.895 112.9 37.8252 113.5 38.6181C117.076 34.1265 119.015 28.3605 118.614 22.3098C118.387 22.3894 118.159 22.4636 117.926 22.5249Z" fill="#C78FE8"/>
<path d="M91.0457 0.479901C88.1059 0.972455 85.384 1.98869 82.9579 3.41508C83.6857 3.32261 84.4145 3.24022 85.1442 3.1688C86.4451 3.04246 87.8349 2.96739 88.9775 3.60093C89.7456 4.02757 90.3151 4.72978 90.8836 5.39903C92.3484 7.12114 94.1136 8.82585 96.3511 9.14903C97.3335 9.29094 98.4129 9.17192 99.2387 9.72215C100.249 10.3941 100.457 11.7867 100.399 12.9997C100.339 14.2119 100.119 15.4872 100.613 16.5959C101.226 17.972 102.791 18.6897 104.288 18.8573C105.785 19.0248 107.295 18.7639 108.801 18.785C110.307 18.8051 111.924 19.1741 112.908 20.3139C113.482 20.9758 113.802 21.8556 114.491 22.3958C115.39 23.0989 116.67 23.0321 117.774 22.7391C118.062 22.6631 118.346 22.5716 118.624 22.4672C118.574 21.6268 118.479 20.7817 118.338 19.9321C116.173 7.02409 103.954 -1.68532 91.0457 0.479901Z" fill="#DCB1F3"/>
<path d="M100.791 0.875302C97.6979 0.0897797 94.3956 -0.0823394 91.0457 0.479794C88.105 0.972348 85.384 1.98858 82.9579 3.41497C83.6857 3.32251 84.4136 3.24011 85.1442 3.1687C86.4442 3.04236 87.8349 2.96728 88.9775 3.60083C89.7456 4.02746 90.3151 4.72967 90.8836 5.39892C92.1415 6.87841 93.6229 8.34234 95.4338 8.93103C95.8906 8.40735 96.1525 7.71978 96.1396 6.99835C96.0325 0.93298 100.79 0.875302 100.791 0.875302Z" fill="#C78FE8"/>
<path d="M55.7127 53.0733C54.2698 53.0733 53.1337 51.8978 53.1337 50.4943C53.1337 49.3023 53.965 48.2201 55.2101 47.9674C56.7637 47.6543 58.2917 48.8354 58.2917 50.4943C58.2917 51.896 57.1565 53.0733 55.7127 53.0733Z" fill="#FADDA0"/>
<path d="M27.0851 27.7672L23.1721 32.7477C22.8489 32.658 22.4983 32.723 22.2263 32.9271C22.144 32.983 22.068 33.0516 22.003 33.134L20.4713 35.0841C19.7004 35.3771 18.8526 35.4 18.0662 35.1491L12.3652 33.3235C11.7426 33.1249 11.5101 32.3659 11.9138 31.8523L14.373 28.7221L27.0851 27.7672Z" fill="#B9E9FD"/>
<path d="M22.2264 32.9271C22.144 32.983 22.068 33.0516 22.003 33.134L20.4713 35.0841C19.7004 35.3771 18.8527 35.4 18.0662 35.1491L16.6041 34.6804C16.9218 34.6318 17.9179 34.3288 19.2537 32.4721C20.572 30.6392 21.8272 28.778 22.2612 28.1298L27.0842 27.7672L23.1721 32.7477C22.8489 32.658 22.4983 32.723 22.2264 32.9271Z" fill="#61B6FF"/>
<path d="M34.1502 49.3224C33.7464 49.836 32.9545 49.7893 32.6139 49.2317L29.4911 44.1249C29.0608 43.4209 28.8822 42.5914 28.9848 41.7729L30.5165 39.8229C30.5815 39.7405 30.63 39.6508 30.6648 39.5574C30.7984 39.2443 30.7792 38.8881 30.6153 38.5952L34.5283 33.6156L36.6093 46.1922L34.1502 49.3224Z" fill="#B9E9FD"/>
<path d="M30.6648 39.5573C30.7984 39.2442 30.7792 38.8881 30.6153 38.5951L34.5283 33.6146L35.3028 38.2948C34.597 39.1087 33.4379 40.4353 32.0262 42.0054C30.7371 43.4401 30.3251 44.5744 30.2162 45.3105L29.4911 44.1249C29.0608 43.4208 28.8822 42.5914 28.9848 41.7729L30.5165 39.8228C30.5815 39.7395 30.63 39.6507 30.6648 39.5573Z" fill="#61B6FF"/>
<path d="M36.4985 46.3323L34.4175 33.7557L36.5306 31.0668L38.498 42.9586C38.5704 43.3953 38.4559 43.842 38.1831 44.189L36.4985 46.3323Z" fill="#D0F6FA"/>
<path d="M36.0463 37.4315C36.0463 37.4315 35.735 37.7968 35.1902 38.4249L34.4175 33.7557L36.5306 31.0668L37.5486 37.2219C36.7961 36.4656 36.0463 37.4315 36.0463 37.4315Z" fill="#B9E9FD"/>
<path d="M26.9743 27.9081L14.2622 28.863L15.9468 26.7198C16.2196 26.3719 16.6261 26.1549 17.0674 26.1219L29.0873 25.2192L26.9743 27.9081Z" fill="#D0F6FA"/>
<path d="M21.7128 25.7731L29.0873 25.2192L26.9743 27.9081L22.1687 28.2698C22.3307 28.0281 22.4223 27.8898 22.4223 27.8898C22.4223 27.8898 24.0977 25.9599 21.7128 25.7731Z" fill="#B9E9FD"/>
<path d="M43.0381 13.2726L41.9413 14.6697C41.5513 15.165 41.6374 15.8828 42.1327 16.2719C42.6289 16.661 43.3458 16.5749 43.7349 16.0796L44.8326 14.6825C45.2217 14.1872 45.1356 13.4694 44.6403 13.0803C44.1441 12.6912 43.4272 12.7782 43.0381 13.2726Z" fill="#FC7ACD"/>
<path d="M33.6219 18.9818C35.8522 17.3073 39.2067 15.3023 42.2453 14.7173C42.855 14.5992 43.5884 15.1759 43.6186 15.7967C43.7697 18.8875 42.6161 22.621 41.5165 25.1836L33.6219 18.9818Z" fill="#F948B4"/>
<path d="M43.6186 15.7967C43.6268 15.9532 43.6296 16.1116 43.6314 16.2709C37.4626 18.7328 38.4715 20.8568 38.4715 20.8568L38.2637 20.8366L34.8185 18.1303C36.9572 16.682 39.7102 15.2052 42.2453 14.7173C42.855 14.5992 43.5884 15.1759 43.6186 15.7967Z" fill="#F6159C"/>
<path d="M30.3517 38.4486L23.3772 32.9692C23.2554 32.873 23.1172 32.8117 22.9744 32.7824L33.7428 19.076L41.3966 25.0892L30.6291 38.7956C30.5659 38.6638 30.4734 38.5447 30.3517 38.4486Z" fill="#B9E9FD"/>
<path d="M26.8644 35.7085L23.3772 32.9692C23.2554 32.8731 23.1172 32.8127 22.9744 32.7825L33.7428 19.077L37.5697 22.0827L26.8644 35.7085Z" fill="#83D3FC"/>
<path d="M23.4715 32.8493L30.446 38.3296C30.9367 38.7151 31.0218 39.4255 30.6364 39.9162L28.3384 42.8413C27.953 43.333 27.2425 43.4181 26.7509 43.0318L19.7764 37.5533C19.2857 37.1669 19.2005 36.4565 19.586 35.9657L21.884 33.0406C22.2694 32.549 22.9798 32.4638 23.4715 32.8493Z" fill="#D0F6FA"/>
<path d="M26.8772 35.7514L23.4028 40.1744C23.3653 40.222 23.3305 40.2696 23.2975 40.3181L19.7764 37.5523C19.2857 37.1669 19.2005 36.4555 19.586 35.9648L21.884 33.0397C22.2694 32.5489 22.9798 32.4638 23.4715 32.8492L26.9917 35.616C26.9523 35.659 26.9148 35.7048 26.8772 35.7514Z" fill="#B9E9FD"/>
<path d="M32.9728 24.2067C32.4537 24.8677 32.5682 25.8244 33.2292 26.3435L34.4578 27.3085C35.1179 27.8276 36.0746 27.7122 36.5937 27.0521C37.1128 26.3911 36.9984 25.4353 36.3374 24.9162L35.1088 23.9503C34.4477 23.4312 33.491 23.5466 32.9728 24.2067Z" fill="#FBB362"/>
<path d="M32.4254 18.0415C31.9063 18.7025 32.0216 19.6592 32.6817 20.1783L40.5772 26.3801C41.2382 26.8992 42.194 26.7848 42.7131 26.1238C43.2323 25.4628 43.1178 24.5069 42.4568 23.9878L34.5613 17.7851C33.8985 17.2642 32.9426 17.3832 32.4254 18.0415Z" fill="#FC7ACD"/>
<path d="M36.6807 21.3804C36.2413 21.9398 36.234 22.7006 36.6084 23.2627L32.6817 20.1774C32.0216 19.6583 31.9063 18.7025 32.4254 18.0415C32.9426 17.3832 33.8985 17.2642 34.5613 17.7851L38.4715 20.8567C37.8407 20.637 37.1147 20.8284 36.6807 21.3804Z" fill="#F948B4"/>
<path d="M33.1148 30.2153L24.1124 41.675C23.6006 42.3259 22.6613 42.4486 22.0003 41.9496C21.32 41.4369 21.1937 40.4646 21.7192 39.7954L30.7545 28.2954C31.291 27.6115 32.299 27.5099 32.9628 28.0986C33.5707 28.6388 33.6174 29.5763 33.1148 30.2153Z" fill="#61B6FF"/>
<path d="M25.9004 36.9948C26.4332 37.3976 27.1318 37.4269 27.6848 37.1276L24.1124 41.675C23.6006 42.3268 22.6613 42.4486 22.0003 41.9496C21.32 41.4369 21.1937 40.4656 21.7192 39.7954L25.3026 35.2343C25.1277 35.8687 25.3419 36.5737 25.9004 36.9948Z" fill="#5294E5"/>
</g>
<defs>
<clipPath id="clip0_1_429">
<rect width="120" height="120" fill="white" transform="translate(0.5 0.149414)"/>
</clipPath>
</defs>
</svg>
