<svg width="125" height="125" viewBox="0 0 125 125" fill="none" xmlns="http://www.w3.org/2000/svg">
<g clip-path="url(#clip0_1_2090)">
<path d="M33.6647 117.599C42.2172 122.314 52.0439 125 62.5 125C72.9561 125 82.7827 122.314 91.3353 117.599H33.6647Z" fill="#4374D3"/>
<path d="M59.576 124.929C54.8267 124.701 55.027 117.599 59.782 117.599H33.6647C41.7719 122.068 51.0244 124.713 60.872 124.976C60.4391 124.965 60.0071 124.95 59.576 124.929Z" fill="#3957C9"/>
<path d="M118.863 75.3469V9.54436C118.863 4.2734 114.59 -1.52588e-05 109.319 -1.52588e-05H15.6812C10.4103 -1.52588e-05 6.13684 4.2734 6.13684 9.54436V85.247C11.1875 99.4348 21.4414 111.152 34.6031 118.105H90.3968C103.558 111.152 113.812 99.4348 118.862 85.247V75.3469H118.863Z" fill="#5294E5"/>
<path d="M27.9693 5.3768C28.181 5.09547 28.1667 4.70923 27.9436 4.43838C25.6919 1.70325 28.388 -1.52588e-05 28.388 -1.52588e-05H15.6812C10.4103 -1.52588e-05 6.13684 4.2734 6.13684 9.54436V85.247C10.3616 97.1136 18.2266 107.249 28.388 114.317V8.71561C26.9393 7.26698 27.4887 6.01481 27.9693 5.3768Z" fill="#4374D3"/>
<path d="M112.041 85.1869C112.041 83.5199 110.69 82.1685 109.023 82.1685H15.9769C14.3099 82.1685 12.9585 83.5199 12.9585 85.1869V98.711C16.1552 103.426 20.0071 107.66 24.3845 111.283H100.615C104.993 107.66 108.845 103.426 112.042 98.711L112.041 85.1869Z" fill="#61B6FF"/>
<path d="M28.388 82.1685H15.9769C14.3099 82.1685 12.9585 83.5199 12.9585 85.1869V98.711C16.1552 103.426 20.0071 107.66 24.3845 111.283H28.3889V82.1685H28.388Z" fill="#5294E5"/>
<path d="M15.9769 68.5262H109.023C110.69 68.5262 112.041 67.1749 112.041 65.5079V9.83998C112.041 8.17296 110.69 6.82065 109.023 6.82065H15.9769C14.3099 6.82065 12.9585 8.17296 12.9585 9.83998V65.5079C12.9585 67.1749 14.3099 68.5262 15.9769 68.5262Z" fill="#1D319B"/>
<path d="M28.388 6.82065H15.9769C14.3099 6.82065 12.9585 8.17296 12.9585 9.83998V65.5079C12.9585 67.1749 14.3099 68.5262 15.9769 68.5262H28.388V6.82065Z" fill="#162680"/>
<path d="M109.023 6.82065H15.9769C14.3099 6.82065 12.9585 8.17296 12.9585 9.83998V19.4311H112.041V9.83998C112.041 8.17296 110.69 6.82065 109.023 6.82065Z" fill="#4374D3"/>
<path d="M28.388 6.82065H15.9769C14.3099 6.82065 12.9585 8.17296 12.9585 9.83998V19.4301H28.388V6.82065Z" fill="#3957C9"/>
<path d="M109.995 78.2528H100.695C99.6475 78.2528 98.7997 77.404 98.7997 76.3578C98.7997 75.3107 99.6475 74.4629 100.695 74.4629H109.995C111.041 74.4629 111.89 75.3107 111.89 76.3578C111.89 77.404 111.041 78.2528 109.995 78.2528Z" fill="#61B6FF"/>
<path d="M105.345 16.0131H91.9743C90.9272 16.0131 90.0793 15.1643 90.0793 14.1182C90.0793 13.071 90.9272 12.2232 91.9743 12.2232H105.345C106.391 12.2232 107.24 13.071 107.24 14.1182C107.24 15.1643 106.391 16.0131 105.345 16.0131Z" fill="#5294E5"/>
<path d="M77.6577 16.0131H47.1115C46.0653 16.0131 45.2166 15.1643 45.2166 14.1182C45.2166 13.071 46.0653 12.2232 47.1115 12.2232H77.6577C78.7048 12.2232 79.5526 13.071 79.5526 14.1182C79.5526 15.1643 78.7039 16.0131 77.6577 16.0131Z" fill="#5294E5"/>
<path d="M24.3053 78.2528H15.6374C14.5902 78.2528 13.7424 77.404 13.7424 76.3578C13.7424 75.3107 14.5902 74.4629 15.6374 74.4629H24.3053C25.3515 74.4629 26.2003 75.3107 26.2003 76.3578C26.2003 77.404 25.3515 78.2528 24.3053 78.2528Z" fill="#61B6FF"/>
<path d="M46.5078 91.9895H56.9687V101.351H46.5078V91.9895Z" fill="#B9E9FD"/>
<path d="M18.8828 90.6219C17.5019 90.6219 16.3594 89.4956 16.3594 88.0956C16.3594 86.4858 17.8395 85.3061 19.3787 85.617C20.5775 85.8602 21.4091 86.8997 21.4091 88.0956C21.4091 89.4975 20.2666 90.6219 18.8828 90.6219Z" fill="#61B6FF"/>
<path d="M106.114 90.6219C104.714 90.6219 103.588 89.4737 103.588 88.0956C103.588 86.4582 105.099 85.3109 106.609 85.617C107.842 85.8669 108.644 86.9407 108.644 88.0956C108.644 89.4842 107.503 90.6219 106.114 90.6219Z" fill="#83D3FC"/>
<path d="M106.609 102.879C105.061 102.567 103.59 103.757 103.59 105.358C103.59 106.272 104.072 107.055 104.778 107.497C105.948 106.328 107.066 105.109 108.136 103.847C107.775 103.364 107.243 103.008 106.609 102.879Z" fill="#83D3FC"/>
<path d="M21.081 16.139C19.9662 16.139 19.0602 15.233 19.0602 14.1182C19.0602 12.8154 20.2618 11.8923 21.4758 12.1355C22.4781 12.3501 23.1028 13.2065 23.1028 14.1182C23.1019 15.2225 22.1978 16.139 21.081 16.139Z" fill="#F6159C"/>
<path d="M28.0991 16.139C26.9938 16.139 26.0782 15.2416 26.0782 14.1182C26.0782 13.0119 26.9757 12.0973 28.0991 12.0973C29.2263 12.0973 30.1199 13.0167 30.1199 14.1182C30.1199 15.2263 29.2139 16.139 28.0991 16.139Z" fill="#FBB362"/>
<path d="M35.1171 16.139C34.0204 16.139 33.0963 15.2483 33.0963 14.1182C33.0963 12.9909 34.0118 12.0973 35.1171 12.0973C36.2349 12.0973 37.138 13.0024 37.138 14.1182C37.138 14.6484 36.9234 15.171 36.5467 15.5458C36.1605 15.9321 35.6369 16.139 35.1171 16.139Z" fill="#48D85C"/>
<path d="M19.3786 102.879C18.3849 102.679 17.4245 103.098 16.8638 103.847C17.9338 105.108 19.0515 106.328 20.2217 107.497C20.9321 107.051 21.4099 106.262 21.4099 105.358C21.409 104.161 20.5745 103.123 19.3786 102.879Z" fill="#61B6FF"/>
<path d="M76.6048 103.246C75.5586 103.246 74.7108 102.398 74.7108 101.351V91.9895C74.7108 90.9424 75.5586 90.0945 76.6048 90.0945C77.6519 90.0945 78.4998 90.9424 78.4998 91.9895V101.351C78.4998 102.398 77.6519 103.246 76.6048 103.246Z" fill="#48D85C"/>
<path d="M86.1215 103.246C85.0744 103.246 84.2266 102.398 84.2266 101.351V91.9895C84.2266 90.9424 85.0744 90.0945 86.1215 90.0945C87.1677 90.0945 88.0155 90.9424 88.0155 91.9895V101.351C88.0155 102.398 87.1677 103.246 86.1215 103.246Z" fill="#F948B4"/>
<path d="M95.6374 103.246C94.5902 103.246 93.7424 102.398 93.7424 101.351V91.9895C93.7424 90.9424 94.5902 90.0945 95.6374 90.0945C96.6836 90.0945 97.5314 90.9424 97.5314 91.9895V101.351C97.5314 102.398 96.6836 103.246 95.6374 103.246Z" fill="#FBB362"/>
<path d="M97.2366 95.8109H94.016C92.9689 95.8109 92.1211 94.9621 92.1211 93.9159C92.1211 92.8688 92.9689 92.021 94.016 92.021H97.2366C98.2837 92.021 99.1316 92.8688 99.1316 93.9159C99.1316 94.9621 98.2837 95.8109 97.2366 95.8109Z" fill="#FACE7A"/>
<path d="M87.7314 98.6204H84.5108C83.4637 98.6204 82.6158 97.7726 82.6158 96.7264C82.6158 95.6793 83.4637 94.8314 84.5108 94.8314H87.7314C88.7785 94.8314 89.6263 95.6793 89.6263 96.7264C89.6263 97.7726 88.7785 98.6204 87.7314 98.6204Z" fill="#F6159C"/>
<path d="M78.2156 101.319H74.995C73.9479 101.319 73.1001 100.471 73.1001 99.4243C73.1001 98.3772 73.9479 97.5294 74.995 97.5294H78.2156C79.2618 97.5294 80.1106 98.3772 80.1106 99.4243C80.1106 100.471 79.2618 101.319 78.2156 101.319Z" fill="#A2EC00"/>
<path d="M94.4462 30.7531H86.8721C85.8259 30.7531 84.9772 29.9053 84.9772 28.8582C84.9772 27.812 85.8259 26.9642 86.8721 26.9642H94.4462C95.4933 26.9642 96.3412 27.812 96.3412 28.8582C96.3412 29.9053 95.4933 30.7531 94.4462 30.7531Z" fill="#4374D3"/>
<path d="M90.6592 28.8582C90.6592 27.812 91.5079 26.9642 92.5541 26.9642H86.8721C85.8259 26.9642 84.9772 27.812 84.9772 28.8582C84.9772 29.9053 85.8259 30.7531 86.8721 30.7531H92.5541C91.5079 30.7531 90.6592 29.9053 90.6592 28.8582Z" fill="#3957C9"/>
<path d="M102.021 38.2394H86.8721C85.8259 38.2394 84.9772 37.3916 84.9772 36.3445C84.9772 35.2983 85.8259 34.4505 86.8721 34.4505H102.021C103.067 34.4505 103.915 35.2983 103.915 36.3445C103.915 37.3916 103.067 38.2394 102.021 38.2394Z" fill="#4374D3"/>
<path d="M102.021 45.7267H86.8721C85.8259 45.7267 84.9772 44.878 84.9772 43.8318C84.9772 42.7847 85.8259 41.9368 86.8721 41.9368H102.021C103.067 41.9368 103.915 42.7847 103.915 43.8318C103.915 44.878 103.067 45.7267 102.021 45.7267Z" fill="#4374D3"/>
<path d="M102.021 53.2131H86.8721C85.8259 53.2131 84.9772 52.3643 84.9772 51.3181C84.9772 50.271 85.8259 49.4232 86.8721 49.4232H102.021C103.067 49.4232 103.915 50.271 103.915 51.3181C103.915 52.3643 103.067 53.2131 102.021 53.2131Z" fill="#4374D3"/>
<path d="M102.021 60.6994H86.8721C85.8259 60.6994 84.9772 59.8507 84.9772 58.8045C84.9772 57.7573 85.8259 56.9095 86.8721 56.9095H102.021C103.067 56.9095 103.915 57.7573 103.915 58.8045C103.915 59.8507 103.067 60.6994 102.021 60.6994Z" fill="#4374D3"/>
<path d="M94.4462 36.3455C94.4462 35.2983 95.295 34.4505 96.3412 34.4505H86.8721C85.8259 34.4505 84.9772 35.2983 84.9772 36.3455C84.9772 37.3916 85.8259 38.2404 86.8721 38.2404H96.3412C95.295 38.2394 94.4462 37.3916 94.4462 36.3455Z" fill="#3957C9"/>
<path d="M94.4462 43.8318C94.4462 42.7847 95.295 41.9368 96.3412 41.9368H86.8721C85.8259 41.9368 84.9772 42.7847 84.9772 43.8318C84.9772 44.878 85.8259 45.7267 86.8721 45.7267H96.3412C95.295 45.7267 94.4462 44.878 94.4462 43.8318Z" fill="#3957C9"/>
<path d="M94.4462 51.3181C94.4462 50.271 95.295 49.4232 96.3412 49.4232H86.8721C85.8259 49.4232 84.9772 50.271 84.9772 51.3181C84.9772 52.3643 85.8259 53.2131 86.8721 53.2131H96.3412C95.295 53.2131 94.4462 52.3643 94.4462 51.3181Z" fill="#3957C9"/>
<path d="M94.4462 58.8045C94.4462 57.7573 95.295 56.9095 96.3412 56.9095H86.8721C85.8259 56.9095 84.9772 57.7573 84.9772 58.8045C84.9772 59.8507 85.8259 60.6994 86.8721 60.6994H96.3412C95.295 60.6994 94.4462 59.8507 94.4462 58.8045Z" fill="#3957C9"/>
<path d="M32.8894 57.7259C30.7351 57.7259 29.2282 57.0011 28.3976 55.5629C26.6743 52.5789 29.521 49.3774 30.4566 48.3255C32.136 46.4372 34.6747 44.2629 37.7989 42.0379C39.0864 41.1215 40.8717 41.4209 41.7881 42.7084C42.7056 43.9958 42.4052 45.7821 41.1177 46.6985C37.8828 49.0026 35.9288 50.8079 34.8187 52.0343C35.8811 52.3395 36.7136 53.2484 36.8662 54.4138C37.0703 55.9807 35.966 57.4169 34.4 57.621C33.866 57.6906 33.3615 57.7259 32.8894 57.7259Z" fill="#C78FE8"/>
<path d="M52.9785 39.3877C51.897 39.3877 50.8632 38.7716 50.3797 37.7264C49.7169 36.293 50.3416 34.5926 51.7759 33.9288C55.3379 32.2818 58.5613 31.1269 61.099 30.5881C62.643 30.2591 64.1632 31.2471 64.4912 32.7921C64.8193 34.338 63.8322 35.8572 62.2873 36.1852C60.1921 36.6296 57.311 37.673 54.1772 39.1225C53.7881 39.3018 53.38 39.3877 52.9785 39.3877Z" fill="#C78FE8"/>
<path d="M57.8509 37.9343C54.7514 32.566 47.8878 30.7264 42.5196 33.8258C37.1514 36.9253 35.3117 43.7898 38.4112 49.1581C41.5106 54.5263 48.3752 56.365 53.7434 53.2655C59.1116 50.1661 60.9503 43.3025 57.8509 37.9343Z" fill="#F948B4"/>
<path d="M57.2605 48.4094C53.0633 50.8327 47.697 49.3946 45.2737 45.1974C42.8504 41.0003 44.2886 35.634 48.4857 33.2107C48.9988 32.9141 49.5309 32.6767 50.0717 32.4936C47.5654 32.052 44.8961 32.4554 42.5205 33.8268C37.1522 36.9262 35.3126 43.7908 38.412 49.159C41.5115 54.5272 48.376 56.3669 53.7443 53.2674C56.1199 51.8951 57.8031 49.7856 58.6748 47.3947C58.2456 47.7714 57.7745 48.1128 57.2605 48.4094Z" fill="#F6159C"/>
<path d="M34.0251 57.6458C32.6108 57.6458 31.3806 56.5958 31.1927 55.1548C30.9877 53.5888 32.0911 52.1526 33.658 51.9476C37.0674 51.5022 43.2043 48.9425 49.2944 45.4263C55.6449 41.7595 59.7686 38.3968 61.8267 36.2444C60.4467 36.3044 59.1898 35.3718 58.8941 33.9803C58.567 32.4344 59.5541 30.9162 61.1 30.5881C62.5047 30.2896 66.78 29.3827 68.5215 32.3982C70.3897 35.635 67.0814 39.2475 64.4311 41.6822C61.387 44.4784 57.0278 47.5683 52.1555 50.3816C45.2594 54.3623 38.6219 57.0688 34.3999 57.621C34.2741 57.6372 34.1491 57.6458 34.0251 57.6458Z" fill="#DCB1F3"/>
<path d="M109.023 70.4212H15.9769C13.2675 70.4212 11.0636 68.2163 11.0636 65.5069V9.83998C11.0636 7.13059 13.2675 4.92665 15.9769 4.92665H109.023C111.733 4.92665 113.936 7.13059 113.936 9.83998V65.5079C113.936 68.2172 111.733 70.4212 109.023 70.4212ZM15.9769 8.7156C15.357 8.7156 14.8535 9.22009 14.8535 9.83998V65.5079C14.8535 66.1268 15.357 66.6313 15.9769 66.6313H109.023C109.643 66.6313 110.147 66.1268 110.147 65.5079V9.83998C110.147 9.22009 109.643 8.7156 109.023 8.7156H15.9769Z" fill="#61B6FF"/>
<path d="M63.9963 101.351H56.4728V91.9895H63.9963C65.011 91.9895 65.834 92.8125 65.834 93.8272V99.513C65.834 100.528 65.011 101.351 63.9963 101.351Z" fill="#83D3FC"/>
<path d="M37.0273 91.9895H47.1115V101.351H37.0273V91.9895Z" fill="#83D3FC"/>
<path d="M37.7493 101.351H30.2267C29.2111 101.351 28.3881 100.528 28.3881 99.513V93.8272C28.3881 92.8125 29.2111 91.9895 30.2267 91.9895H37.7493V101.351Z" fill="#B9E9FD"/>
<path d="M28.388 66.6313H15.9769C15.357 66.6313 14.8535 66.1268 14.8535 65.5079V9.83998C14.8535 9.22009 15.357 8.7156 15.9769 8.7156H28.388C26.9404 7.26697 27.4887 6.01479 27.9694 5.37679C28.0705 5.24232 28.1182 5.08401 28.1182 4.92665H15.9769C13.2675 4.92665 11.0636 7.13059 11.0636 9.83998V65.5079C11.0636 68.2172 13.2675 70.4212 15.9769 70.4212H28.388C25.9218 68.552 28.388 66.6313 28.388 66.6313Z" fill="#5294E5"/>
</g>
<defs>
<clipPath id="clip0_1_2090">
<rect width="125" height="125" fill="white"/>
</clipPath>
</defs>
</svg>
