<svg width="141" height="140" viewBox="0 0 141 140" fill="none" xmlns="http://www.w3.org/2000/svg">
<g style="mix-blend-mode:luminosity" clip-path="url(#clip0_554_6503)">
<path d="M70.3145 6.0376C33.3224 6.0376 3.33398 36.026 3.33398 73.0192C3.33398 82.5222 5.31748 91.5606 8.88606 99.7499L77.9697 139.562C111.357 135.763 137.295 107.422 137.295 73.0192C137.296 36.026 107.308 6.0376 70.3145 6.0376Z" fill="#3B01A4"/>
<path d="M105.462 12.233C104.399 11.6199 104.035 10.2623 104.648 9.19956L109.318 1.11178C109.931 0.0490042 111.29 -0.314155 112.352 0.298944C113.414 0.912043 113.779 2.27069 113.164 3.3324L108.496 11.4202C107.883 12.483 106.524 12.8461 105.462 12.233Z" fill="#B9E9FD"/>
<path d="M103.266 8.28481C94.8243 12.2742 86.5646 17.7195 78.8303 24.4593L108.188 41.4092C110.158 31.3412 110.744 21.4643 109.978 12.1599C109.707 8.87014 106.25 6.87489 103.266 8.28481Z" fill="#F948B4"/>
<path d="M107.527 10.7446C108.098 10.1774 108.615 9.83668 109.046 9.70209C107.766 8.00699 105.395 7.27854 103.266 8.2847C94.8243 12.2731 86.5646 17.7194 78.8303 24.4592L89.9932 30.9042C95.9704 23.1497 101.892 16.3543 107.527 10.7446Z" fill="#F6159C"/>
<path d="M79.3907 110.628C73.6432 117.96 67.4225 124.582 60.876 130.431L76.8945 139.679C77.3859 139.632 77.874 139.577 78.3621 139.519C80.1331 130.252 80.6821 121.172 80.0262 112.609C79.9696 111.869 79.7389 111.202 79.3907 110.628Z" fill="#61B6FF"/>
<path d="M80.227 123.208C80.3552 119.605 80.2901 116.064 80.0262 112.609C79.9696 111.869 79.7389 111.202 79.3907 110.628C73.6432 117.96 67.4225 124.581 60.876 130.43L69.3686 135.334C73.1315 131.554 76.761 127.508 80.227 123.208Z" fill="#5294E5"/>
<path d="M60.8778 130.431C59.83 131.365 58.7757 132.284 57.7119 133.179C57.6905 133.197 57.6681 133.213 57.6467 133.23L54.7842 138.187C59.768 139.371 64.9665 140.001 70.3125 140.001C72.5341 140.001 74.7302 139.89 76.8963 139.678L60.8778 130.431Z" fill="#5294E5"/>
<path d="M69.3704 135.333L60.8778 130.431C59.83 131.365 58.7757 132.284 57.7119 133.179C57.6905 133.197 57.6681 133.213 57.6467 133.23L54.7842 138.188C58.0248 138.957 61.3584 139.488 64.7625 139.769C66.3188 138.334 67.8558 136.855 69.3704 135.333Z" fill="#4374D3"/>
<path d="M8.72266 99.3859C8.9021 99.8046 9.08368 100.222 9.27167 100.636L25.3874 109.941C27.1797 101.346 29.803 92.6482 33.2797 84.005C32.6079 83.9901 31.9157 84.1247 31.2471 84.4451C23.484 88.1675 15.878 93.1983 8.72266 99.3859Z" fill="#61B6FF"/>
<path d="M16.443 104.777C20.598 101.179 24.8939 97.9472 29.2882 95.1092C30.4642 91.406 31.7929 87.7007 33.2797 84.005C32.6079 83.9901 31.9157 84.1247 31.2471 84.4451C23.484 88.1675 15.8769 93.1983 8.72266 99.3859C8.9021 99.8046 9.08368 100.222 9.27167 100.636L16.443 104.777Z" fill="#5294E5"/>
<path d="M21.7126 119.111L24.5805 114.142C24.5848 114.114 24.5869 114.087 24.5923 114.06C24.8358 112.691 25.1028 111.319 25.3902 109.944L9.27441 100.639C12.3784 107.49 16.6028 113.724 21.7126 119.111Z" fill="#5294E5"/>
<path d="M16.4457 104.78L9.27441 100.639C10.3959 103.116 11.667 105.509 13.0705 107.814C14.1845 106.776 15.3093 105.763 16.4457 104.78Z" fill="#4374D3"/>
<path d="M89.1218 96.282L40.5865 68.2599C40.4167 68.1617 40.264 68.0453 40.1262 67.916C32.1004 83.0117 26.7843 98.5891 24.0799 113.761C24.0745 113.788 24.0724 113.815 24.0681 113.843L21.291 118.654C30.2781 128.305 42.0776 135.3 55.3885 138.329L58.1613 133.526C58.1838 133.509 58.2062 133.493 58.2276 133.476C70.0335 123.53 80.8845 111.112 89.9538 96.5811C89.6676 96.5309 89.3856 96.4347 89.1218 96.282Z" fill="#B9E9FD"/>
<path d="M38.1324 126.311C38.1377 126.28 38.1399 126.25 38.1452 126.219C41.0654 109.845 46.7307 93.0424 55.2415 76.7237L40.5837 68.2599C40.4139 68.1628 40.2611 68.0453 40.1223 67.916C32.0975 83.0117 26.7815 98.5891 24.076 113.761C24.0717 113.787 24.0696 113.815 24.0653 113.843L21.2871 118.654C25.5318 123.211 30.4035 127.175 35.7654 130.41L38.1324 126.311Z" fill="#83D3FC"/>
<path d="M61.5125 37.1336L105.613 62.5954C105.767 62.684 105.906 62.7876 106.034 62.9009C107.923 57.3883 109.474 51.8736 110.682 46.3952C111.128 44.3818 110.222 42.3108 108.435 41.28L78.8171 24.1795C77.0312 23.1488 74.786 23.3998 73.264 24.7915C69.1346 28.5673 65.1441 32.6571 61.3235 37.0353C61.3876 37.0652 61.4506 37.0973 61.5125 37.1336Z" fill="#B9E9FD"/>
<path d="M86.3687 32.1363C87.3866 31.0158 88.6213 30.422 89.7044 30.4657L78.8171 24.1799C77.0312 23.1491 74.786 23.3991 73.264 24.7908C69.1346 28.5666 65.1441 32.6565 61.3235 37.0357C61.3876 37.0656 61.4506 37.0977 61.5125 37.1329L75.4525 45.1812C79.0104 40.5819 82.6591 36.224 86.3687 32.1363Z" fill="#83D3FC"/>
<path d="M78.4719 90.1315L51.237 74.4077L48.5828 79.0049C47.6054 80.6979 48.1908 82.8822 49.8837 83.8595L70.963 96.0296C72.656 97.0069 74.8403 96.4216 75.8165 94.7286L78.4719 90.1315Z" fill="#FBB362"/>
<path d="M60.9003 86.1912L63.5866 81.5374L51.237 74.4077L48.5828 79.0049C47.6054 80.6979 48.1908 82.8822 49.8837 83.8595L60.2349 89.8356C59.8973 88.9555 60.1238 87.5359 60.9003 86.1912Z" fill="#FC9949"/>
<path d="M107.167 65.8288C107.655 64.4595 107.094 62.9374 105.836 62.2111L61.7353 36.7504C60.4771 36.0241 58.8781 36.2986 57.9371 37.4062C50.8747 45.7172 44.5728 54.8742 39.2269 64.6005C38.4408 66.0307 38.9503 67.8283 40.3645 68.6454L88.8997 96.6664C90.3139 97.4835 92.1254 97.0253 92.9713 95.6293C98.925 85.8005 103.635 75.7239 107.167 65.8288Z" fill="#D0F6FA"/>
<path d="M54.9539 73.9729C60.444 64.1302 66.6156 54.6977 73.2806 45.9637C73.8862 45.1701 74.6841 44.7023 75.4158 44.6489L61.7353 36.7501C60.4771 36.0238 58.8781 36.2994 57.9371 37.406C50.8747 45.717 44.5728 54.8739 39.2269 64.6002C38.4408 66.0315 38.9503 67.8291 40.3645 68.6452L54.6772 76.9092C54.3012 76.1369 54.3749 75.0111 54.9539 73.9729Z" fill="#B9E9FD"/>
<path d="M52.7673 96.8694C45.1698 100.935 37.6694 106.346 30.5771 112.936L55.6886 127.435C57.8504 117.997 58.7861 108.796 58.5073 100.184C58.4101 97.1396 55.4525 95.4317 52.7673 96.8694Z" fill="#61B6FF"/>
<path d="M57.2673 99.4667C57.5941 99.0576 57.8825 98.751 58.1303 98.5353C57.2384 96.5838 54.9163 95.7187 52.7673 96.869C45.1698 100.934 37.6694 106.345 30.5771 112.936L42.398 119.761C47.6264 112.094 52.6455 105.251 57.2673 99.4667Z" fill="#5294E5"/>
<path d="M25.0957 122.431C32.2222 128.956 40.7639 133.96 50.2082 136.929L55.6898 127.434L30.5783 112.936L25.0957 122.431Z" fill="#5294E5"/>
<path d="M42.4035 119.763L30.5783 112.936L25.0957 122.431C28.4742 125.524 32.173 128.27 36.1326 130.625L42.4035 119.763Z" fill="#4374D3"/>
<path d="M60.2147 52.4906C59.0586 54.5082 58.7572 56.8457 59.3781 59.0888L60.7539 64.1702L71.1302 48.824C71.0502 48.7901 70.9697 48.7574 70.8886 48.7259C69.2206 48.0769 67.3398 47.9337 65.4843 48.4326C63.2351 49.0311 61.3708 50.473 60.2147 52.4906Z" fill="#F6159C"/>
<path d="M83.3759 72.8399C85.6109 72.2333 87.4752 70.7913 88.6313 68.7738C89.7874 66.7562 90.0888 64.4187 89.4679 62.1755C88.2181 57.5715 83.4441 54.8359 78.8259 56.0775L76.7026 56.6538L76.1405 54.5387C75.4091 51.8697 73.5022 49.8291 71.1302 48.824L60.7539 64.1702L60.8864 64.6595L64.1384 76.67C64.1748 76.8041 64.2133 76.9017 64.2659 77.0073C64.3713 77.2187 64.5519 77.3977 64.7508 77.5116C64.9497 77.6256 65.1812 77.6828 65.4168 77.6668C65.5123 77.6649 65.7418 77.6266 65.8312 77.6023L83.3759 72.8399Z" fill="#F948B4"/>
</g>
<defs>
<clipPath id="clip0_554_6503">
<rect width="140" height="140" fill="white" transform="translate(0.050293)"/>
</clipPath>
</defs>
</svg>
