<?xml version="1.0"?>
<svg width="580" height="517" xmlns="http://www.w3.org/2000/svg" xmlns:svg="http://www.w3.org/2000/svg" xmlns:xlink="http://www.w3.org/1999/xlink">
 <g class="layer">
  <title>Layer 1</title>
  <use id="svg_19" transform="matrix(0.920818 0 0 0.872948 0.856876 1.90907)" x="24.98" xlink:href="#svg_18" y="144.34"/>
 </g>
 <defs>
  <symbol height="574" id="svg_18" viewBox="0 0 569 574" width="569" xmlns="http://www.w3.org/2000/svg">
   <g clip-path="url(#svg_17)">
    <path d="m469.11,456.33c-14.14,-54.64 -51.52,-100.48 -101.59,-125.54c-7.13,-3.57 -13.1,-9.21 -16.6,-16.38c-0.22,-0.46 -0.45,-0.92 -0.69,-1.36c-3.84,-7.18 -11.37,-11.48 -19.5,-11.68c-6.63,-0.16 -12.37,-1.96 -17.24,-4.58c-6.96,-3.75 -15.39,-3.78 -22.11,0.38c-2.1,1.3 -4.07,2.77 -5.89,4.41c-5.92,5.3 -13.3,8.67 -21.21,9.31c-7.46,0.6 -14.8,1.64 -22.01,3.07c-5.07,1.01 -10.33,0.68 -15.25,-0.91c-12.2,-3.96 -18.23,-10.48 -18.23,-10.48c-2.41,-4.24 -19.75,1.07 -38.74,11.86c-18.99,10.78 -32.43,22.97 -30.02,27.2c1.32,3.88 2.01,7.75 2.29,11.42c0.62,8.22 -2.15,16.37 -7.64,22.52c-3.95,4.43 -7.71,9.04 -11.25,13.82c-4,5.41 -9.55,9.41 -15.81,11.9c-1.38,0.54 -2.73,1.17 -4.03,1.86c-4.99,2.63 -8.58,7.27 -10.11,12.7c-1.65,5.91 -4.29,12.98 -8.53,20.51c-1.27,2.26 -2.1,4.71 -2.47,7.22c32.63,76.12 108.23,129.45 196.3,129.45c83.06,0 155.04,-47.44 190.33,-116.7z" fill="#FACE7A"/>
    <path d="m200.25,558.12c-16.59,-38.63 -0.03,-60.37 7.55,-67.73c1.73,-1.68 2.28,-4.18 1.54,-6.48c-1.16,-3.62 0.38,-5.88 2.33,-7.25c2.43,-1.71 3.49,-4.79 2.34,-7.53c-16.13,-38.27 5.79,-63.51 14.02,-71.21c1.55,-1.46 2.28,-3.61 1.85,-5.71c-0.94,-4.67 1.27,-7.17 3.31,-8.44c1.71,-1.07 2.67,-3 2.73,-5.02c0.58,-21.02 20.8,-33.77 20.8,-33.77c-16.47,-4.25 -8.13,-10.83 -8.13,-10.83c6.91,-13.06 3.09,-18.61 -3.14,-20.77c-1.06,0.19 -2.13,0.37 -3.18,0.58c-5.07,1.01 -10.33,0.68 -15.25,-0.91c-12.2,-3.96 -18.23,-10.48 -18.23,-10.48c-2.41,-4.24 -19.75,1.07 -38.74,11.86c-18.99,10.78 -32.43,22.97 -30.02,27.2c1.32,3.88 2.01,7.75 2.29,11.42c0.62,8.22 -2.15,16.37 -7.64,22.52c-3.95,4.43 -7.71,9.04 -11.25,13.82c-4,5.41 -9.55,9.41 -15.81,11.9c-1.38,0.54 -2.73,1.17 -4.03,1.86c-4.99,2.63 -8.58,7.27 -10.1,12.7c-1.66,5.91 -4.3,12.97 -8.54,20.51c-1.27,2.26 -2.1,4.71 -2.47,7.22c22.36,52.16 64.88,93.6 117.77,114.54z" fill="#EEC707"/>
    <path d="m335.96,397.97c0,8.22 -6.66,14.88 -14.87,14.88c-8.22,0 -14.88,-6.66 -14.88,-14.88c0,-8.21 6.66,-14.87 14.88,-14.87c8.21,0 14.87,6.66 14.87,14.87z" fill="#EEC707"/>
    <path d="m278.78,334.15c0,-6.21 -13.52,-11.24 -30.19,-11.24c-16.67,0 -30.18,5.03 -30.18,11.24c0,6.21 13.51,11.24 30.18,11.24c16.67,0 30.19,-5.03 30.19,-11.24z" fill="#EEC707"/>
    <path d="m350.13,505.81c0,15.17 -12.29,27.46 -27.46,27.46c-15.16,0 -27.45,-12.29 -27.45,-27.46c0,-15.16 12.29,-27.45 27.45,-27.45c15.17,0 27.46,12.29 27.46,27.45z" fill="#EEC707"/>
    <path d="m430.15,360.93c-18.44,-19.22 -41.18,-27.32 -50.79,-18.1c-9.61,9.22 -2.45,32.27 15.99,51.49c18.45,19.22 41.18,27.32 50.79,18.1c9.61,-9.22 2.45,-32.28 -15.99,-51.49z" fill="#FACE7A"/>
    <path d="m277.24,434.98c0,29.78 -24.13,53.92 -53.91,53.92c-29.78,0 -53.92,-24.14 -53.92,-53.92c0,-29.77 24.14,-53.91 53.92,-53.91c29.78,0 53.91,24.14 53.91,53.91z" fill="#EEC707"/>
    <path d="m223.33,381.07c-29.78,0 -53.92,24.14 -53.92,53.91c0,25.02 17.04,46.04 40.13,52.14c0.2,-1.05 0.15,-2.15 -0.19,-3.2c-1.17,-3.63 0.37,-5.89 2.32,-7.26c2.43,-1.71 3.5,-4.79 2.35,-7.53c-16.13,-38.27 5.78,-63.51 14.01,-71.21c1.55,-1.46 2.28,-3.61 1.86,-5.7c-0.95,-4.69 1.27,-7.18 3.3,-8.45c0.62,-0.39 1.15,-0.89 1.56,-1.48c-3.68,-0.79 -7.5,-1.22 -11.42,-1.22z" fill="#FBB362"/>
    <path d="m263.61,434.98c0,22.25 -18.04,40.28 -40.29,40.28c-22.24,0 -40.27,-18.03 -40.27,-40.28c0,-22.24 18.03,-40.28 40.27,-40.28c22.25,0 40.29,18.04 40.29,40.28z" fill="#FC9949"/>
    <path d="m430.15,360.93c-13.37,-13.93 -29.85,-19.8 -36.81,-13.12c-6.96,6.69 -1.77,23.39 11.59,37.31c13.37,13.93 29.84,19.8 36.81,13.12c6.96,-6.68 1.77,-23.38 -11.59,-37.31z" fill="#FBB362"/>
    <path d="m393.35,347.83c-0.25,0.25 -0.48,0.51 -0.71,0.79c0.24,-0.27 0.46,-0.54 0.71,-0.79z" fill="#FC9949"/>
    <path d="m430.15,360.95c-1.77,-1.85 -3.6,-3.55 -5.46,-5.11c5.83,8.54 6.09,18.9 0.04,24.7c-6.04,5.79 -16.37,5.12 -24.66,-1.05c1.48,1.91 3.1,3.81 4.87,5.65c13.37,13.93 29.84,19.8 36.8,13.12c6.96,-6.68 1.78,-23.38 -11.59,-37.31z" fill="#FC9949"/>
    <path d="m248.59,334.15l0,-11.24c-16.67,0 -30.18,5.03 -30.18,11.24c0,6.21 13.51,11.24 30.18,11.24c2.82,0 5.54,-0.14 8.13,-0.41c-19.79,-3.96 -8.13,-10.83 -8.13,-10.83z" fill="#FBB362"/>
    <path d="m390.32,197.73l-29.57,0l0,13.41c0,8.27 -6.7,14.97 -14.97,14.97l0,0.02c-8.42,0 -15.22,6.96 -14.96,15.43c0.24,8.2 7.39,14.51 15.58,14.51l43.92,0c5.05,0 9.15,-4.09 9.15,-9.15l0,-40.03c0,-5.06 -4.1,-9.16 -9.15,-9.16z" fill="#F948B4"/>
    <path d="m367.56,246.73l0,-40.03c0,-5.06 4.1,-9.16 9.15,-9.16l-16.16,0l0,13.41c0,8.27 -6.7,14.97 -14.97,14.97l0,0.02c-8.42,0 -15.21,6.96 -14.96,15.44c0.25,8.19 7.39,14.51 15.59,14.51l30.5,0c-5.05,0 -9.15,-4.1 -9.15,-9.16z" fill="#F6159C"/>
    <path d="m342.74,137.83l-46.84,0c0.11,1.14 0.07,2.32 -0.16,3.5l-10.66,54.84l60.7,0c8.27,0 14.97,6.7 14.97,14.97c0,-5.39 0,-52.86 0,-55.3c0,-9.94 -8.06,-18.01 -18.01,-18.01z" fill="#FC7ACD"/>
    <path d="m314.09,178.11l5.68,-29.22c0.96,-4.97 4.24,-9 8.58,-11.06l-32.45,0c0.11,1.14 0.07,2.32 -0.16,3.5l-10.66,54.84l40.55,0c-7.83,-1.91 -13.16,-9.73 -11.54,-18.06z" fill="#F948B4"/>
    <path d="m288.52,127.23c-6.78,-1.65 -13.48,2.7 -14.79,9.47l-37.66,194.19c-0.2,1.05 0.47,2.07 1.52,2.28c6.7,1.32 14.78,1.32 21.53,-0.06c0.77,-0.16 1.38,-0.76 1.53,-1.54l36.82,-189.91c1.25,-6.41 -2.6,-12.88 -8.95,-14.43z" fill="#D0F6FA"/>
    <path d="m266.61,250.47c-6.18,0 -11.39,-4.12 -13.05,-9.76l-17.49,90.18c-0.2,1.05 0.47,2.07 1.52,2.28c6.7,1.32 14.78,1.32 21.52,-0.06c0.78,-0.16 1.39,-0.76 1.54,-1.54l16.77,-86.45c-2.49,3.25 -6.4,5.35 -10.81,5.35z" fill="#83D3FC"/>
    <path d="m331.36,479.77c-2.73,-0.91 -5.65,-1.41 -8.69,-1.41c-15.16,0 -27.45,12.29 -27.45,27.45c0,12.94 8.94,23.77 20.98,26.69c-2.57,-4.12 -1.16,-6.94 0.31,-8.49c1.02,-1.09 1.45,-2.61 1.05,-4.05c-4.56,-16.39 3.45,-25.53 7.65,-29.03c1.21,-1 1.79,-2.59 1.44,-4.12c-1.28,-5.57 4.58,-7 4.71,-7.04z" fill="#FBB362"/>
    <path d="m339.95,505.81c0,9.55 -7.73,17.29 -17.28,17.29c-9.54,0 -17.28,-7.74 -17.28,-17.29c0,-9.54 7.74,-17.27 17.28,-17.27c9.55,0 17.28,7.73 17.28,17.27z" fill="#FC9949"/>
    <path d="m213.85,474.13c3.04,0.73 6.21,1.13 9.48,1.13c22.24,0 40.28,-18.03 40.28,-40.28c0,-20.06 -14.68,-36.7 -33.89,-39.77c0.05,0.08 26.96,47.85 -15.87,78.92z" fill="#FD7E31"/>
    <path d="m326.55,488.99c0.13,0.31 8.05,18.91 -9.05,33.32c1.64,0.51 3.37,0.79 5.17,0.79c9.55,0 17.28,-7.74 17.28,-17.29c0,-8.2 -5.73,-15.06 -13.4,-16.82z" fill="#FD7E31"/>
    <path d="m337.79,217.17l-4.77,0l0,-4.05l4.77,0l0,4.05zm-4.8,17.51l0,-15.61l4.68,0l0,15.61l-4.68,0z" fill="#0E2A30"/>
    <path d="m345.99,234.68l-4.68,0l0,-21.56l4.68,0l0,11.93l5.28,-5.98l5.56,0l-6.56,6.85l6.53,8.76l-5.38,0l-4.17,-5.74l-1.26,1.21l0,4.53z" fill="#0E2A30"/>
    <path clip-rule="evenodd" d="m367.56,234.94l0,-4.07c-0.62,0.45 -1.45,0.67 -2.38,0.67c-1.93,0 -3.41,-1.33 -3.74,-3.35l6.12,0l0,-2.9l-6.12,0c0.36,-1.99 1.75,-3.29 3.74,-3.29c1.04,0 1.82,0.35 2.38,0.88l0.05,-4.03c-0.73,-0.19 -1.52,-0.29 -2.37,-0.29c-4.77,0 -8.27,3.5 -8.27,8.3c0,5.01 3.41,8.36 8.18,8.36c0.86,0 1.66,-0.09 2.41,-0.28z" fill="#0E2A30" fill-rule="evenodd"/>
    <path d="m373.12,228.19c0.03,-0.39 0.03,-0.76 0.03,-0.94c0,-4.19 -1.96,-7.43 -5.54,-8.4l-0.05,4.03c0.68,0.64 1.04,1.56 1.16,2.41l-1.16,0l0,2.9l5.56,0z" fill="#494949"/>
    <path d="m372.91,230.12l-4.68,0c-0.17,0.3 -0.4,0.54 -0.67,0.75l0,4.07c2.71,-0.67 4.59,-2.49 5.35,-4.82z" fill="#494949"/>
    <path d="m384.02,223.69c-0.24,-1.3 -1.15,-1.9 -2.36,-1.9c-1.21,0 -1.99,0.63 -1.99,1.42c0,0.9 0.57,1.38 2.51,1.9c0.72,0.21 1.42,0.36 2.14,0.57c2.84,0.79 4.2,2.21 4.2,4.53c0,2.78 -2.45,5.01 -6.74,5.01c-3.89,0 -6.46,-1.81 -6.94,-5.43l4.53,0c0.21,1.33 1.02,2.11 2.41,2.11c1.39,0 2.21,-0.63 2.21,-1.54c0,-1.18 -1.09,-1.51 -2.09,-1.78c-0.78,-0.24 -1.57,-0.42 -2.35,-0.66c-2.72,-0.76 -4.2,-2.24 -4.2,-4.65c0,-2.69 2.45,-4.74 6.31,-4.74c3.87,0 6.19,1.9 6.65,5.16l-4.29,0z" fill="#494949"/>
    <path d="m345.78,196.17l-14.97,0l0,44.93c0,-8.27 6.7,-14.97 14.97,-14.97l0,-0.02c8.27,0 14.97,-6.7 14.97,-14.97c0,-8.27 -6.7,-14.97 -14.97,-14.97z" fill="#F948B4"/>
    <g clip-path="url(#svg_16)">
     <path d="m325.09,186.59c9.35,-1.06 16.61,-9 16.61,-18.63c0,-10.36 -8.39,-18.76 -18.75,-18.76c-1.12,0 -2.22,0.1 -3.28,0.29l-5.3,30.92l10.72,6.18z" fill="#4C01D5"/>
     <path d="m304.19,167.96c0,2.66 0.56,5.19 1.56,7.48l8.62,4.97l5.3,-30.92c-8.8,1.55 -15.48,9.23 -15.48,18.47z" fill="#4C01D5"/>
     <path d="m304.19,167.96c0,2.66 0.56,5.19 1.56,7.48l8.62,4.97l5.3,-30.92c-8.8,1.55 -15.48,9.23 -15.48,18.47z" fill="black" fill-opacity="0.2"/>
     <path d="m332.79,150.94c-0.3,-0.17 -0.4,-0.55 -0.23,-0.85l1.31,-2.27c0.17,-0.29 0.55,-0.39 0.85,-0.22c0.3,0.17 0.4,0.55 0.23,0.85l-1.31,2.26c-0.17,0.3 -0.55,0.4 -0.85,0.23z" fill="#B9E9FD"/>
     <path d="m332.18,149.83c-2.37,1.12 -4.68,2.64 -6.84,4.53l8.22,4.75c0.55,-2.82 0.71,-5.59 0.5,-8.19c-0.08,-0.92 -1.05,-1.48 -1.88,-1.09z" fill="#F948B4"/>
     <path d="m333.37,150.52c0.16,-0.16 0.31,-0.25 0.43,-0.29c-0.36,-0.48 -1.03,-0.68 -1.62,-0.4c-2.37,1.12 -4.68,2.64 -6.84,4.53l3.12,1.81c1.67,-2.17 3.33,-4.08 4.91,-5.65z" fill="#F6159C"/>
     <path d="m325.49,178.49c-1.61,2.05 -3.35,3.91 -5.18,5.54l4.48,2.59c0.14,-0.01 0.28,-0.03 0.41,-0.04c0.5,-2.6 0.65,-5.14 0.47,-7.54c-0.02,-0.2 -0.08,-0.39 -0.18,-0.55z" fill="#61B6FF"/>
     <path d="m325.73,182.01c0.03,-1.01 0.01,-2 -0.06,-2.97c-0.02,-0.2 -0.08,-0.39 -0.18,-0.55c-1.61,2.05 -3.35,3.91 -5.18,5.54l2.38,1.38c1.05,-1.06 2.07,-2.2 3.04,-3.4z" fill="#5294E5"/>
     <path d="m320.31,184.03c-0.3,0.26 -0.59,0.52 -0.89,0.77c0,0.01 -0.01,0.01 -0.02,0.02l-0.8,1.39c1.4,0.33 2.85,0.5 4.35,0.5c0.62,0 1.24,-0.03 1.84,-0.09l-4.48,-2.59z" fill="#5294E5"/>
     <path d="m322.69,185.41l-2.38,-1.38c-0.3,0.26 -0.59,0.52 -0.89,0.77c0,0.01 -0.01,0.01 -0.02,0.02l-0.8,1.39c0.91,0.21 1.84,0.36 2.79,0.44c0.44,-0.4 0.87,-0.82 1.3,-1.24z" fill="#4374D3"/>
     <path d="m305.71,175.34c0.05,0.12 0.1,0.23 0.15,0.35l4.51,2.61c0.51,-2.41 1.24,-4.85 2.21,-7.27c-0.19,0 -0.38,0.04 -0.57,0.13c-2.17,1.04 -4.3,2.45 -6.3,4.18z" fill="#61B6FF"/>
     <path d="m305.71,175.34c0.05,0.12 0.1,0.23 0.15,0.35l4.51,2.61c0.51,-2.41 1.24,-4.85 2.21,-7.27c-0.19,0 -0.38,0.04 -0.57,0.13c-2.17,1.04 -4.3,2.45 -6.3,4.18z" fill="black" fill-opacity="0.2"/>
     <path d="m307.87,176.85c1.16,-1.01 2.37,-1.91 3.59,-2.71c0.34,-1.03 0.71,-2.07 1.12,-3.11c-0.19,0 -0.38,0.04 -0.57,0.13c-2.17,1.04 -4.3,2.45 -6.3,4.18c0.05,0.12 0.1,0.23 0.15,0.35l2.01,1.16z" fill="#5294E5"/>
     <path d="m307.87,176.85c1.16,-1.01 2.37,-1.91 3.59,-2.71c0.34,-1.03 0.71,-2.07 1.12,-3.11c-0.19,0 -0.38,0.04 -0.57,0.13c-2.17,1.04 -4.3,2.45 -6.3,4.18c0.05,0.12 0.1,0.23 0.15,0.35l2.01,1.16z" fill="black" fill-opacity="0.2"/>
     <path d="m309.34,180.86l0.8,-1.39c0.01,-0.01 0.01,-0.01 0.01,-0.02c0.07,-0.38 0.14,-0.77 0.22,-1.15l-4.51,-2.61c0.87,1.92 2.05,3.66 3.48,5.17z" fill="#5294E5"/>
     <path d="m309.34,180.86l0.8,-1.39c0.01,-0.01 0.01,-0.01 0.01,-0.02c0.07,-0.38 0.14,-0.77 0.22,-1.15l-4.51,-2.61c0.87,1.92 2.05,3.66 3.48,5.17z" fill="black" fill-opacity="0.2"/>
     <path d="m307.87,176.85l-2.01,-1.16c0.31,0.69 0.67,1.37 1.06,2.01c0.31,-0.29 0.63,-0.57 0.95,-0.85z" fill="#4374D3"/>
     <path d="m328.21,174.47l-13.58,-7.84c-0.05,-0.03 -0.09,-0.07 -0.13,-0.1c-2.25,4.23 -3.74,8.59 -4.5,12.84c0,0 0,0.01 0,0.02l-0.78,1.35c2.52,2.7 5.82,4.66 9.55,5.5l0.78,-1.34c0,0 0.01,-0.01 0.01,-0.02c3.31,-2.78 6.35,-6.26 8.89,-10.32c-0.08,-0.02 -0.16,-0.05 -0.24,-0.09z" fill="#B9E9FD"/>
     <path clip-rule="evenodd" d="m316.58,167.76l-1.08,8.89c0.84,-2.56 1.91,-5.13 3.23,-7.65l-2.15,-1.24z" fill="#83D3FC" fill-rule="evenodd"/>
     <path d="m313.94,182.88c0,-0.01 0,-0.02 0,-0.03c0.37,-2.05 0.89,-4.12 1.56,-6.2l1.08,-8.89l-1.95,-1.13c-0.05,-0.03 -0.09,-0.07 -0.13,-0.1c-2.25,4.23 -3.74,8.59 -4.5,12.84c0,0 0,0.01 0,0.02l-0.78,1.35c1.19,1.27 2.55,2.38 4.06,3.29l0.66,-1.15z" fill="#83D3FC"/>
     <path d="m313.94,182.88c0,-0.01 0,-0.02 0,-0.03c0.37,-2.05 0.89,-4.12 1.56,-6.2l1.08,-8.89l-1.95,-1.13c-0.05,-0.03 -0.09,-0.07 -0.13,-0.1c-2.25,4.23 -3.74,8.59 -4.5,12.84c0,0 0,0.01 0,0.02l-0.78,1.35c1.19,1.27 2.55,2.38 4.06,3.29l0.66,-1.15z" fill="black" fill-opacity="0.2"/>
     <path d="m320.49,157.91l12.34,7.13c0.05,0.02 0.09,0.05 0.12,0.09c0.53,-1.55 0.97,-3.09 1.3,-4.63c0.13,-0.56 -0.12,-1.14 -0.62,-1.43l-8.3,-4.79c-0.5,-0.29 -1.13,-0.22 -1.55,0.17c-1.16,1.06 -2.28,2.21 -3.35,3.43c0.02,0.01 0.04,0.02 0.06,0.03z" fill="#B9E9FD"/>
     <path d="m327.45,156.51c0.28,-0.31 0.63,-0.48 0.93,-0.47l-3.05,-1.76c-0.5,-0.28 -1.13,-0.22 -1.55,0.17c-1.16,1.06 -2.28,2.21 -3.35,3.43c0.02,0.01 0.04,0.02 0.06,0.03l3.9,2.25c1,-1.28 2.02,-2.5 3.06,-3.65z" fill="#83D3FC"/>
     <path d="m325.24,172.75l-7.63,-4.4l-0.74,1.28c-0.28,0.48 -0.11,1.09 0.36,1.36l5.9,3.41c0.48,0.27 1.09,0.11 1.36,-0.36l0.75,-1.29z" fill="#FBB362"/>
     <path d="m320.32,171.65l0.75,-1.31l-3.46,-1.99l-0.74,1.28c-0.28,0.48 -0.11,1.09 0.36,1.36l2.9,1.68c-0.09,-0.25 -0.03,-0.65 0.19,-1.02z" fill="#FC9949"/>
     <path d="m333.27,165.94c0.13,-0.38 -0.02,-0.81 -0.38,-1.01l-12.34,-7.13c-0.36,-0.2 -0.8,-0.12 -1.07,0.19c-1.98,2.32 -3.74,4.89 -5.24,7.61c-0.22,0.4 -0.07,0.9 0.32,1.13l13.59,7.85c0.4,0.23 0.91,0.1 1.14,-0.29c1.67,-2.75 2.99,-5.57 3.98,-8.35z" fill="#D0F6FA"/>
     <path clip-rule="evenodd" d="m323.78,160.38c-1.87,2.45 -3.59,5.09 -5.13,7.84c-0.16,0.3 -0.19,0.61 -0.08,0.83l-2,-1.16l1.19,-7.74c0.55,-0.74 1.13,-1.46 1.72,-2.16c0.27,-0.31 0.71,-0.39 1.07,-0.19l3.83,2.21c-0.21,0.02 -0.43,0.15 -0.6,0.37z" fill="#B9E9FD" fill-rule="evenodd"/>
     <path d="m314.24,165.6c-0.22,0.4 -0.07,0.9 0.32,1.13l2.01,1.16l1.19,-7.74c-1.29,1.72 -2.47,3.55 -3.52,5.45z" fill="#B9E9FD"/>
     <path d="m314.24,165.6c-0.22,0.4 -0.07,0.9 0.32,1.13l2.01,1.16l1.19,-7.74c-1.29,1.72 -2.47,3.55 -3.52,5.45z" fill="black" fill-opacity="0.2"/>
     <path d="m318.04,174.64c-2.13,1.13 -4.23,2.65 -6.22,4.49l7.04,4.06c0.6,-2.64 0.86,-5.22 0.78,-7.63c-0.02,-0.85 -0.85,-1.33 -1.6,-0.92z" fill="#61B6FF"/>
     <path clip-rule="evenodd" d="m319.54,175.1c-0.07,0.06 -0.15,0.15 -0.24,0.26c-1.3,1.62 -2.7,3.54 -4.17,5.68l-0.37,-0.21l0.8,-4.69c0.82,-0.56 1.65,-1.06 2.48,-1.5c0.6,-0.33 1.25,-0.08 1.5,0.46z" fill="#5294E5" fill-rule="evenodd"/>
     <path d="m315.56,176.14c-1.27,0.87 -2.52,1.87 -3.74,2.99l2.94,1.7l0.8,-4.69z" fill="#5294E5"/>
     <path d="m315.56,176.14c-1.27,0.87 -2.52,1.87 -3.74,2.99l2.94,1.7l0.8,-4.69z" fill="black" fill-opacity="0.2"/>
     <path clip-rule="evenodd" d="m314.75,180.82l-0.57,3.72c1,0.53 2.05,0.97 3.14,1.31l1.54,-2.66l-4.11,-2.37z" fill="#5294E5" fill-rule="evenodd"/>
     <path d="m311.82,179.13l-1.53,2.66c1.17,1.08 2.48,2 3.89,2.75l0.57,-3.72l-2.93,-1.69z" fill="#5294E5"/>
     <path d="m311.82,179.13l-1.53,2.66c1.17,1.08 2.48,2 3.89,2.75l0.57,-3.72l-2.93,-1.69z" fill="black" fill-opacity="0.2"/>
     <path clip-rule="evenodd" d="m314.76,180.83l0.37,0.22l-0.57,0.99l0.2,-1.21z" fill="#4374D3" fill-rule="evenodd"/>
     <path d="m311.82,179.13l-1.53,2.66c0.95,0.87 1.98,1.64 3.09,2.3l1.18,-2.05l0.2,-1.21l-2.94,-1.7z" fill="#4374D3"/>
     <path d="m311.82,179.13l-1.53,2.66c0.95,0.87 1.98,1.64 3.09,2.3l1.18,-2.05l0.2,-1.21l-2.94,-1.7z" fill="black" fill-opacity="0.2"/>
     <path d="m320.12,162.21c-0.32,0.57 -0.41,1.22 -0.23,1.85l0.38,1.42l2.91,-4.3c-0.03,-0.01 -0.05,-0.02 -0.07,-0.02c-0.47,-0.19 -0.99,-0.23 -1.51,-0.09c-0.63,0.17 -1.16,0.58 -1.48,1.14z" fill="#F6159C"/>
     <path d="m326.61,167.91c0.62,-0.17 1.14,-0.58 1.47,-1.14c0.32,-0.56 0.41,-1.22 0.23,-1.85c-0.35,-1.29 -1.68,-2.05 -2.98,-1.7l-0.59,0.16l-0.16,-0.6c-0.2,-0.74 -0.74,-1.31 -1.4,-1.6l-2.91,4.3l0.04,0.14l0.91,3.36c0.01,0.04 0.02,0.06 0.03,0.09c0.04,0.06 0.08,0.11 0.14,0.15c0.06,0.03 0.12,0.04 0.19,0.04c0.02,0 0.09,-0.01 0.11,-0.02l4.92,-1.33z" fill="#F948B4"/>
    </g>
    <path clip-rule="evenodd" d="m359.66,168.51c-0.28,-1.48 -1.31,-2.16 -2.69,-2.16c-1.37,0 -2.27,0.72 -2.27,1.61c0,1.04 0.66,1.59 2.86,2.17c0.41,0.12 0.81,0.22 1.22,0.33c0.4,0.1 0.81,0.2 1.22,0.32c0.26,0.08 0.52,0.16 0.76,0.24l0,10.06c-1.04,0.37 -2.26,0.58 -3.65,0.58c-4.44,0 -7.36,-2.07 -7.92,-6.2l5.17,0c0.24,1.52 1.17,2.41 2.75,2.41c1.58,0 2.51,-0.72 2.51,-1.75c0,-1.34 -1.24,-1.72 -2.37,-2.03c-0.45,-0.14 -0.9,-0.26 -1.35,-0.38c-0.44,-0.12 -0.89,-0.24 -1.34,-0.38c-3.09,-0.86 -4.78,-2.55 -4.78,-5.3c0,-3.06 2.79,-5.4 7.19,-5.4c1.46,0 2.72,0.24 3.78,0.69l0,5.19l-1.09,0z" fill="#1E1E1E" fill-rule="evenodd"/>
   </g>
   <path d="m565.37,275.24c-2.67,-6.27 -9.92,-9.19 -16.19,-6.52c-6.28,2.67 -9.2,9.92 -6.53,16.19c2.67,6.28 9.92,9.2 16.2,6.53c6.27,-2.67 9.19,-9.92 6.52,-16.2z" fill="#8634C6"/>
   <path d="m565.38,275.22c-0.27,-0.62 -0.59,-1.2 -0.93,-1.75c0.81,3.95 -1.24,8.05 -5.09,9.69c-4.39,1.87 -9.47,-0.17 -11.34,-4.57c-1.64,-3.85 -0.27,-8.22 3.05,-10.51c-0.63,0.16 -1.27,0.36 -1.89,0.62c-6.27,2.67 -9.19,9.92 -6.52,16.19c2.67,6.28 9.92,9.2 16.2,6.53c6.27,-2.67 9.19,-9.93 6.52,-16.2z" fill="#B26CDE"/>
   <path d="m560.27,244.48c-4.83,0 -8.66,-3.93 -8.66,-8.67c0,-5.53 5.11,-9.54 10.36,-8.49c4.17,0.87 6.97,4.46 6.97,8.49c0,4.79 -3.88,8.67 -8.67,8.67z" fill="#A2EC00"/>
   <path d="m538.61,17.33c-4.81,0 -8.66,-3.91 -8.66,-8.67c0,-5.36 4.93,-9.58 10.36,-8.49c3.89,0.75 6.96,4.26 6.96,8.49c0,4.79 -3.88,8.67 -8.66,8.67z" fill="#5294E5"/>
   <path d="m507.51,37.75c-3.62,0 -6.5,-2.95 -6.5,-6.5c0,-4.18 3.88,-7.18 7.76,-6.37c3.03,0.57 5.24,3.32 5.24,6.37c0,3.57 -2.91,6.5 -6.5,6.5z" fill="#00C82F"/>
   <path d="m100.56,262.17c-3.62,0 -6.5,-2.94 -6.5,-6.49c0,-4.18 3.88,-7.18 7.77,-6.37c3.02,0.57 5.23,3.31 5.23,6.37c0,3.57 -2.9,6.49 -6.5,6.49z" fill="#B26CDE"/>
   <path d="m464.22,29.63c-8.7,-0.98 -15.62,-7.9 -16.6,-16.59c-0.09,-0.84 -0.78,-1.47 -1.62,-1.47c-0.83,0 -1.53,0.63 -1.62,1.46c-0.98,8.7 -7.9,15.62 -16.6,16.6c-0.83,0.09 -1.46,0.78 -1.46,1.62l0,0c0,0.84 0.63,1.53 1.47,1.62c8.69,0.98 15.61,7.9 16.59,16.6c0.09,0.83 0.79,1.46 1.62,1.46c0.84,0 1.53,-0.63 1.62,-1.46c0.98,-8.7 7.9,-15.62 16.6,-16.6c0.83,-0.09 1.46,-0.78 1.46,-1.62c0,-0.83 -0.63,-1.53 -1.46,-1.62z" fill="#FACE7A"/>
   <path d="m437.71,35.21c6.42,-0.72 11.53,-5.82 12.25,-12.24c0.07,-0.58 0.52,-1.02 1.09,-1.07c-1.84,-2.55 -3.06,-5.58 -3.43,-8.86c-0.09,-0.84 -0.79,-1.47 -1.62,-1.47c-0.84,0 -1.53,0.63 -1.62,1.46c-0.98,8.7 -7.9,15.62 -16.6,16.6c-0.83,0.09 -1.46,0.78 -1.46,1.62l0,0c0,0.84 0.63,1.53 1.46,1.62c3.28,0.37 6.31,1.59 8.87,3.43c0.05,-0.57 0.49,-1.02 1.06,-1.09z" fill="#FBB362"/>
   <path d="m62.42,255.09c-8.69,-0.98 -15.61,-7.9 -16.59,-16.6c-0.09,-0.83 -0.79,-1.46 -1.62,-1.46c-0.84,0 -1.53,0.63 -1.62,1.46c-0.98,8.7 -7.9,15.62 -16.6,16.6c-0.83,0.09 -1.46,0.78 -1.46,1.62l0,0c0,0.83 0.63,1.53 1.46,1.62c8.7,0.98 15.62,7.9 16.6,16.6c0.09,0.83 0.78,1.46 1.62,1.46c0.84,0 1.53,-0.63 1.62,-1.46c0.98,-8.7 7.9,-15.62 16.59,-16.6c0.83,-0.09 1.47,-0.78 1.47,-1.62c0,-0.84 -0.64,-1.53 -1.47,-1.62z" fill="#FACE7A"/>
   <path d="m35.93,260.67c6.41,-0.72 11.52,-5.83 12.24,-12.24c0.07,-0.58 0.52,-1.02 1.09,-1.07c-1.84,-2.55 -3.06,-5.58 -3.43,-8.87c-0.09,-0.83 -0.79,-1.46 -1.62,-1.46c-0.84,0 -1.53,0.63 -1.62,1.46c-0.98,8.7 -7.9,15.62 -16.6,16.6c-0.83,0.09 -1.46,0.78 -1.46,1.62l0,0c0,0.83 0.63,1.53 1.46,1.62c3.29,0.37 6.31,1.59 8.87,3.43c0.05,-0.57 0.49,-1.02 1.07,-1.09z" fill="#FBB362"/>
   <path d="m57.57,183.28c-4.36,-0.49 -7.83,-3.96 -8.32,-8.32c-0.04,-0.42 -0.39,-0.73 -0.81,-0.74c-0.42,0.01 -0.77,0.32 -0.81,0.74c-0.49,4.36 -3.96,7.83 -8.32,8.32c-0.42,0.04 -0.73,0.39 -0.73,0.81l0,0c-0.01,0.42 0.31,0.77 0.73,0.81c4.36,0.49 7.83,3.96 8.32,8.32c0.04,0.42 0.39,0.74 0.81,0.74c0.42,0 0.77,-0.32 0.81,-0.74c0.49,-4.36 3.96,-7.83 8.32,-8.32c0.42,-0.04 0.74,-0.39 0.74,-0.81c0,-0.42 -0.32,-0.77 -0.74,-0.81z" fill="#FACE7A"/>
   <path d="m44.29,186.08c3.22,-0.36 5.78,-2.92 6.14,-6.14c0.03,-0.29 0.26,-0.51 0.54,-0.54c-0.92,-1.28 -1.53,-2.8 -1.72,-4.44c-0.04,-0.42 -0.39,-0.74 -0.81,-0.74c-0.42,0 -0.76,0.32 -0.81,0.74c-0.49,4.36 -3.96,7.82 -8.32,8.32c-0.42,0.04 -0.73,0.39 -0.73,0.81l-0.01,0c0.01,0.42 0.32,0.77 0.74,0.81c1.64,0.19 3.16,0.8 4.44,1.72c0.03,-0.28 0.25,-0.51 0.54,-0.54z" fill="#FBB362"/>
   <path d="m20.95,341.11c-4.36,-0.49 -7.83,-3.96 -8.32,-8.32c-0.04,-0.42 -0.39,-0.74 -0.81,-0.74c-0.42,0 -0.77,0.32 -0.81,0.74c-0.49,4.36 -3.96,7.82 -8.32,8.32c-0.42,0.04 -0.74,0.39 -0.74,0.81l0,0c0,0.42 0.32,0.77 0.74,0.81c4.36,0.49 7.83,3.96 8.32,8.32c0.04,0.42 0.39,0.74 0.81,0.73c0.42,0 0.77,-0.31 0.81,-0.73c0.49,-4.36 3.96,-7.83 8.32,-8.32c0.42,-0.05 0.73,-0.39 0.73,-0.81c0.01,-0.42 -0.31,-0.77 -0.73,-0.81z" fill="#FACE7A"/>
   <path d="m7.67,343.9c3.21,-0.36 5.77,-2.92 6.14,-6.13c0.03,-0.29 0.26,-0.51 0.54,-0.54c-0.92,-1.28 -1.53,-2.8 -1.72,-4.44c-0.04,-0.42 -0.39,-0.74 -0.81,-0.74c-0.42,0 -0.77,0.32 -0.81,0.74c-0.49,4.36 -3.96,7.82 -8.32,8.32c-0.42,0.04 -0.74,0.39 -0.74,0.81l0,0c0,0.42 0.32,0.77 0.74,0.81c1.64,0.19 3.16,0.8 4.44,1.72c0.03,-0.28 0.25,-0.51 0.54,-0.55z" fill="#FBB362"/>
   <defs>
    <clipPath id="svg_17">
     <rect fill="white" height="446.15" transform="translate(55.7031 126.881)" width="446.15"/>
    </clipPath>
    <clipPath id="svg_16">
     <rect fill="white" height="39.2" transform="translate(303.277 147.513)" width="39.2"/>
    </clipPath>
   </defs>
  </symbol>
 </defs>
</svg>