<svg width="1100" height="1198" viewBox="0 0 1100 1198" fill="none" xmlns="http://www.w3.org/2000/svg">
<g clip-path="url(#clip0_228_1839)">
<rect width="1100" height="1198" rx="15" fill="#FAFBFF"/>
<path d="M917.527 1216.73C890.1 1110.8 817.632 1021.92 720.567 973.338C706.735 966.416 695.166 955.48 688.382 941.575C687.946 940.684 687.498 939.807 687.029 938.936C679.598 925.031 665 916.689 649.234 916.306C636.379 915.996 625.252 912.505 615.802 907.417C602.306 900.157 585.959 900.091 572.932 908.162C568.873 910.67 565.052 913.528 561.515 916.702C550.045 926.977 535.731 933.511 520.387 934.752C505.941 935.926 491.706 937.932 477.729 940.711C467.895 942.664 457.693 942.031 448.15 938.942C424.504 931.274 412.81 918.636 412.81 918.629C408.138 910.413 374.514 920.701 337.702 941.615C300.884 962.528 274.829 986.148 279.495 994.364C282.056 1001.87 283.389 1009.39 283.93 1016.51C285.138 1032.44 279.772 1048.24 269.127 1060.16C261.465 1068.75 254.18 1077.68 247.316 1086.96C239.562 1097.45 228.792 1105.2 216.669 1110.02C213.989 1111.08 211.376 1112.29 208.842 1113.63C199.167 1118.72 192.205 1127.73 189.255 1138.26C186.054 1149.72 180.92 1163.41 172.703 1178.02C170.242 1182.4 168.631 1187.15 167.912 1192.02C231.181 1339.61 377.76 1443 548.501 1443C709.553 1443 849.104 1351.02 917.527 1216.73Z" fill="#FACE7A"/>
<path d="M396.259 1414.09C364.093 1339.19 396.186 1297.04 410.89 1282.77C414.242 1279.53 415.318 1274.67 413.886 1270.22C411.622 1263.18 414.605 1258.81 418.393 1256.15C423.105 1252.84 425.171 1246.86 422.94 1241.55C391.659 1167.35 434.159 1118.43 450.103 1103.49C453.119 1100.66 454.532 1096.48 453.707 1092.43C451.872 1083.36 456.168 1078.53 460.108 1076.06C463.428 1073.99 465.302 1070.24 465.407 1066.32C466.529 1025.57 505.73 1000.84 505.73 1000.84C473.808 992.602 489.977 979.852 489.977 979.852C503.374 954.537 495.956 943.779 483.879 939.582C481.827 939.952 479.768 940.308 477.729 940.711C467.889 942.664 457.693 942.031 448.15 938.942C424.504 931.274 412.81 918.636 412.81 918.629C408.138 910.413 374.514 920.701 337.702 941.615C300.884 962.528 274.829 986.148 279.495 994.364C282.056 1001.87 283.389 1009.39 283.93 1016.51C285.138 1032.44 279.772 1048.24 269.127 1060.16C261.465 1068.75 254.18 1077.68 247.316 1086.96C239.562 1097.45 228.792 1105.2 216.669 1110.02C213.989 1111.08 211.376 1112.29 208.842 1113.63C199.167 1118.72 192.205 1127.73 189.261 1138.26C186.054 1149.72 180.92 1163.41 172.703 1178.02C170.242 1182.4 168.631 1187.15 167.912 1192.02C211.264 1293.14 293.717 1373.5 396.259 1414.09Z" fill="#EEC707"/>
<path d="M659.365 1103.6C659.365 1119.52 646.456 1132.43 630.532 1132.43C614.608 1132.43 601.699 1119.52 601.699 1103.6C601.699 1087.67 614.608 1074.76 630.532 1074.76C646.456 1074.76 659.365 1087.67 659.365 1103.6Z" fill="#EEC707"/>
<path d="M548.5 979.858C548.5 967.821 522.301 958.061 489.977 958.061C457.653 958.061 431.453 967.821 431.453 979.858C431.453 991.896 457.653 1001.65 489.977 1001.65C522.301 1001.65 548.5 991.896 548.5 979.858Z" fill="#EEC707"/>
<path d="M841.977 1031.78C806.221 994.522 762.137 978.809 743.513 996.687C724.883 1014.56 738.762 1059.26 774.517 1096.52C810.273 1133.77 854.357 1149.48 872.981 1131.61C891.611 1113.73 877.732 1069.03 841.977 1031.78Z" fill="#FACE7A"/>
<path d="M545.523 1175.35C545.523 1233.08 498.726 1279.89 440.988 1279.89C383.256 1279.89 336.453 1233.08 336.453 1175.35C336.453 1117.62 383.256 1070.82 440.988 1070.82C498.726 1070.82 545.523 1117.62 545.523 1175.35Z" fill="#EEC707"/>
<path d="M440.988 1070.82C383.256 1070.82 336.453 1117.62 336.453 1175.35C336.453 1223.85 369.483 1264.62 414.267 1276.43C414.65 1274.4 414.544 1272.27 413.884 1270.23C411.621 1263.19 414.603 1258.81 418.392 1256.16C423.104 1252.85 425.176 1246.86 422.939 1241.55C391.664 1167.36 434.158 1118.43 450.102 1103.49C453.118 1100.66 454.53 1096.49 453.705 1092.44C451.87 1083.36 456.173 1078.53 460.106 1076.06C461.321 1075.31 462.337 1074.32 463.142 1073.19C456.002 1071.65 448.597 1070.82 440.988 1070.82Z" fill="#FBB362"/>
<path d="M519.087 1175.35C519.087 1218.49 484.123 1253.45 440.989 1253.45C397.862 1253.45 362.898 1218.49 362.898 1175.35C362.898 1132.23 397.862 1097.26 440.989 1097.26C484.123 1097.26 519.087 1132.23 519.087 1175.35Z" fill="#FC9949"/>
<path d="M841.976 1031.78C816.066 1004.78 784.119 993.394 770.623 1006.35C757.12 1019.3 767.185 1051.69 793.094 1078.68C819.003 1105.68 850.944 1117.07 864.447 1104.11C877.943 1091.16 867.885 1058.77 841.976 1031.78Z" fill="#FBB362"/>
<path d="M770.637 1006.38C770.142 1006.86 769.693 1007.37 769.258 1007.9C769.713 1007.39 770.142 1006.86 770.637 1006.38Z" fill="#FC9949"/>
<path d="M841.99 1031.82C838.551 1028.23 835.001 1024.93 831.404 1021.91C842.709 1038.47 843.197 1058.54 831.477 1069.79C819.769 1081.03 799.74 1079.73 783.664 1067.76C786.528 1071.47 789.67 1075.15 793.108 1078.72C819.017 1105.73 850.958 1117.11 864.461 1104.16C877.957 1091.2 867.899 1058.81 841.99 1031.82Z" fill="#FC9949"/>
<path d="M489.977 979.852V958.061C457.659 958.061 431.453 967.821 431.453 979.858C431.453 991.896 457.653 1001.65 489.977 1001.65C495.435 1001.65 500.714 1001.37 505.73 1000.84C467.367 993.169 489.977 979.852 489.977 979.852Z" fill="#FBB362"/>
<path d="M764.757 715.367H707.428V741.362C707.428 757.392 694.433 770.386 678.403 770.386V770.426C662.076 770.426 648.897 783.909 649.392 800.341C649.868 816.232 663.726 828.481 679.618 828.481H764.757C774.557 828.481 782.503 820.535 782.503 810.735V733.113C782.503 723.313 774.557 715.367 764.757 715.367Z" fill="#F948B4"/>
<path d="M720.63 810.368V732.746C720.63 722.946 728.576 715 738.376 715H707.049V740.995C707.049 757.025 694.055 770.019 678.025 770.019V770.059C661.698 770.059 648.519 783.542 649.014 799.981C649.489 815.866 663.347 828.114 679.239 828.114H738.37C728.576 828.114 720.63 820.168 720.63 810.368Z" fill="#F6159C"/>
<path d="M672.502 599.224H581.701C581.912 601.441 581.833 603.718 581.384 606.014L560.715 712.338H678.402C694.432 712.338 707.427 725.332 707.427 741.362C707.427 730.922 707.427 638.88 707.427 634.154C707.427 614.864 691.793 599.224 672.502 599.224Z" fill="#FC7ACD"/>
<path d="M616.955 677.328L627.976 620.672C629.844 611.037 636.199 603.229 644.607 599.224H581.701C581.912 601.441 581.833 603.718 581.384 606.014L560.715 712.338H639.34C624.155 708.635 613.82 693.483 616.955 677.328Z" fill="#F948B4"/>
<path d="M567.381 578.68C554.248 575.479 541.248 583.913 538.7 597.033L465.697 973.53C465.301 975.569 466.615 977.549 468.647 977.951C481.642 980.518 497.295 980.512 510.375 977.839C511.88 977.529 513.061 976.367 513.358 974.856L584.744 606.661C587.16 594.235 579.689 581.682 567.381 578.68Z" fill="#D0F6FA"/>
<path d="M524.907 817.618C512.923 817.618 502.819 809.626 499.599 798.691L465.697 973.53C465.301 975.569 466.615 977.549 468.647 977.951C481.642 980.518 497.289 980.512 510.369 977.839C511.88 977.529 513.061 976.367 513.358 974.856L545.854 807.237C541.03 813.54 533.454 817.618 524.907 817.618Z" fill="#83D3FC"/>
<path d="M422.609 1251.25C428.509 1252.67 434.66 1253.44 440.989 1253.44C484.123 1253.44 519.086 1218.48 519.086 1175.35C519.086 1136.44 490.63 1104.19 453.389 1098.25C453.475 1098.39 505.656 1191.02 422.609 1251.25Z" fill="#FD7E31"/>
<path d="M662.923 753.048H653.674V745.203H662.923V753.048ZM653.615 787V756.736H662.689V787H653.615Z" fill="#0E2A30"/>
<path d="M678.81 787H669.736V745.203H678.81V768.326L689.054 756.736H699.825L687.122 770.024L699.767 787H689.347L681.268 775.878L678.81 778.219V787Z" fill="#0E2A30"/>
<path fill-rule="evenodd" clip-rule="evenodd" d="M720.627 787.508V779.605C719.433 780.489 717.815 780.912 716.028 780.912C712.281 780.912 709.413 778.336 708.769 774.414H720.627V768.795H708.769C709.471 764.931 712.164 762.414 716.028 762.414C718.046 762.414 719.547 763.094 720.627 764.114L720.722 756.318C719.322 755.94 717.794 755.74 716.145 755.74C706.896 755.74 700.105 762.531 700.105 771.839C700.105 781.556 706.72 788.054 715.969 788.054C717.635 788.054 719.192 787.863 720.627 787.508Z" fill="#0E2A30"/>
<path d="M731.423 774.414C731.482 773.653 731.482 772.951 731.482 772.6C731.482 764.463 727.67 758.192 720.722 756.318L720.627 764.114C721.96 765.372 722.65 767.146 722.877 768.795H720.627V774.414H731.423Z" fill="#494949"/>
<path d="M731.014 778.161H721.94C721.6 778.734 721.155 779.215 720.627 779.605V787.508C725.899 786.202 729.541 782.67 731.014 778.161Z" fill="#494949"/>
<path d="M752.544 765.692C752.076 763.175 750.32 762.004 747.978 762.004C745.636 762.004 744.114 763.233 744.114 764.755C744.114 766.511 745.227 767.448 748.973 768.443C750.378 768.853 751.724 769.146 753.129 769.556C758.632 771.078 761.266 773.829 761.266 778.336C761.266 783.722 756.525 788.054 748.212 788.054C740.661 788.054 735.685 784.541 734.748 777.517H743.529C743.939 780.093 745.519 781.615 748.212 781.615C750.905 781.615 752.485 780.385 752.485 778.629C752.485 776.346 750.378 775.702 748.446 775.175C746.924 774.707 745.402 774.356 743.88 773.887C738.612 772.424 735.743 769.556 735.743 764.872C735.743 759.662 740.485 755.682 747.978 755.682C755.471 755.682 759.978 759.37 760.857 765.692H752.544Z" fill="#494949"/>
<path d="M678.403 712.338H649.379V799.45C649.379 783.42 662.373 770.426 678.403 770.426V770.386C694.433 770.386 707.427 757.392 707.427 741.362C707.427 725.332 694.433 712.338 678.403 712.338Z" fill="#F948B4"/>
<g clip-path="url(#clip1_228_1839)">
<path d="M638.298 693.762C656.422 691.7 670.503 676.315 670.503 657.639C670.504 637.557 654.224 621.278 634.142 621.278C631.97 621.278 629.843 621.468 627.776 621.833L617.5 681.777L638.298 693.762Z" fill="#4C01D5"/>
<path d="M597.781 657.639C597.781 662.798 598.858 667.705 600.795 672.15L617.5 681.777L627.776 621.833C610.73 624.843 597.781 639.729 597.781 657.639Z" fill="#4C01D5"/>
<path d="M597.781 657.639C597.781 662.798 598.858 667.705 600.795 672.15L617.5 681.777L627.776 621.833C610.73 624.843 597.781 639.729 597.781 657.639Z" fill="black" fill-opacity="0.2"/>
<path d="M653.223 624.641C652.646 624.308 652.448 623.571 652.781 622.994L655.316 618.604C655.649 618.027 656.386 617.83 656.963 618.162C657.539 618.495 657.737 619.233 657.404 619.809L654.869 624.2C654.536 624.777 653.799 624.974 653.223 624.641Z" fill="#B9E9FD"/>
<path d="M652.029 622.498C647.446 624.663 642.962 627.619 638.764 631.278L654.7 640.48C655.77 635.014 656.088 629.652 655.672 624.601C655.526 622.816 653.649 621.732 652.029 622.498Z" fill="#F948B4"/>
<path d="M654.342 623.833C654.652 623.525 654.932 623.34 655.167 623.267C654.471 622.347 653.185 621.951 652.029 622.498C647.446 624.663 642.962 627.619 638.764 631.278L644.824 634.777C648.068 630.567 651.283 626.878 654.342 623.833Z" fill="#F6159C"/>
<path d="M639.07 678.056C635.95 682.036 632.573 685.631 629.02 688.806L637.715 693.826C637.982 693.8 638.247 693.77 638.512 693.739C639.473 688.708 639.771 683.779 639.415 679.131C639.385 678.729 639.259 678.367 639.07 678.056Z" fill="#61B6FF"/>
<path d="M639.524 684.884C639.594 682.929 639.559 681.006 639.415 679.131C639.385 678.729 639.259 678.367 639.07 678.056C635.95 682.036 632.573 685.63 629.02 688.805L633.63 691.467C635.673 689.415 637.643 687.219 639.524 684.884Z" fill="#5294E5"/>
<path d="M629.021 688.805C628.452 689.313 627.88 689.811 627.302 690.297C627.291 690.307 627.278 690.316 627.267 690.325L625.713 693.016C628.418 693.659 631.24 694.001 634.143 694.001C635.349 694.001 636.541 693.94 637.717 693.826L629.021 688.805Z" fill="#5294E5"/>
<path d="M633.631 691.467L629.021 688.805C628.452 689.313 627.88 689.811 627.302 690.297C627.291 690.307 627.278 690.316 627.267 690.325L625.713 693.017C627.472 693.434 629.282 693.722 631.13 693.875C631.975 693.096 632.809 692.293 633.631 691.467Z" fill="#4374D3"/>
<path d="M600.709 671.953C600.806 672.18 600.905 672.407 601.007 672.631L609.756 677.682C610.729 673.017 612.153 668.295 614.04 663.603C613.675 663.595 613.3 663.668 612.937 663.842C608.722 665.863 604.593 668.594 600.709 671.953Z" fill="#61B6FF"/>
<path d="M600.709 671.953C600.806 672.18 600.905 672.407 601.007 672.631L609.756 677.682C610.729 673.017 612.153 668.295 614.04 663.603C613.675 663.595 613.3 663.668 612.937 663.842C608.722 665.863 604.593 668.594 600.709 671.953Z" fill="black" fill-opacity="0.2"/>
<path d="M604.9 674.879C607.156 672.926 609.488 671.171 611.873 669.631C612.512 667.621 613.233 665.609 614.04 663.603C613.675 663.595 613.3 663.668 612.937 663.842C608.722 665.863 604.593 668.594 600.709 671.953C600.806 672.18 600.905 672.407 601.007 672.631L604.9 674.879Z" fill="#5294E5"/>
<path d="M604.9 674.879C607.156 672.926 609.488 671.171 611.873 669.631C612.512 667.621 613.233 665.609 614.04 663.603C613.675 663.595 613.3 663.668 612.937 663.842C608.722 665.863 604.593 668.594 600.709 671.953C600.806 672.18 600.905 672.407 601.007 672.631L604.9 674.879Z" fill="black" fill-opacity="0.2"/>
<path d="M607.758 682.66L609.315 679.963C609.317 679.948 609.318 679.933 609.321 679.918C609.453 679.175 609.598 678.43 609.754 677.684L601.006 672.633C602.691 676.352 604.984 679.736 607.758 682.66Z" fill="#5294E5"/>
<path d="M607.758 682.66L609.315 679.963C609.317 679.948 609.318 679.933 609.321 679.918C609.453 679.175 609.598 678.43 609.754 677.684L601.006 672.633C602.691 676.352 604.984 679.736 607.758 682.66Z" fill="black" fill-opacity="0.2"/>
<path d="M604.899 674.881L601.006 672.633C601.615 673.977 602.305 675.277 603.067 676.528C603.671 675.964 604.282 675.415 604.899 674.881Z" fill="#4374D3"/>
<path d="M644.352 670.268L618.004 655.056C617.912 655.002 617.829 654.939 617.754 654.869C613.397 663.064 610.511 671.52 609.043 679.756C609.04 679.771 609.039 679.786 609.037 679.801L607.529 682.412C612.408 687.652 618.813 691.449 626.039 693.093L627.545 690.486C627.557 690.477 627.569 690.468 627.581 690.459C633.989 685.059 639.88 678.318 644.803 670.43C644.648 670.403 644.495 670.35 644.352 670.268Z" fill="#B9E9FD"/>
<path fill-rule="evenodd" clip-rule="evenodd" d="M621.801 657.248L619.706 674.5C621.325 669.526 623.407 664.548 625.962 659.65L621.801 657.248Z" fill="#83D3FC"/>
<path d="M616.674 686.569C616.677 686.552 616.678 686.536 616.681 686.519C617.39 682.545 618.396 678.523 619.706 674.5L621.801 657.248L618.005 655.056C617.912 655.003 617.829 654.939 617.754 654.869C613.398 663.064 610.512 671.52 609.043 679.756C609.041 679.77 609.04 679.786 609.037 679.801L607.529 682.412C609.834 684.886 612.478 687.038 615.389 688.794L616.674 686.569Z" fill="#83D3FC"/>
<path d="M616.674 686.569C616.677 686.552 616.678 686.536 616.681 686.519C617.39 682.545 618.396 678.523 619.706 674.5L621.801 657.248L618.005 655.056C617.912 655.003 617.829 654.939 617.754 654.869C613.398 663.064 610.512 671.52 609.043 679.756C609.041 679.77 609.04 679.786 609.037 679.801L607.529 682.412C609.834 684.886 612.478 687.038 615.389 688.794L616.674 686.569Z" fill="black" fill-opacity="0.2"/>
<path d="M629.364 638.159L653.305 651.981C653.388 652.029 653.463 652.085 653.533 652.146C654.559 649.154 655.401 646.16 656.056 643.186C656.298 642.093 655.807 640.969 654.836 640.409L638.758 631.126C637.789 630.567 636.57 630.703 635.744 631.459C633.502 633.508 631.336 635.728 629.262 638.105C629.297 638.121 629.331 638.139 629.364 638.159Z" fill="#B9E9FD"/>
<path d="M642.858 635.446C643.41 634.837 644.081 634.515 644.669 634.539L638.758 631.127C637.789 630.567 636.57 630.703 635.744 631.458C633.502 633.508 631.336 635.728 629.262 638.105C629.297 638.122 629.331 638.139 629.364 638.158L636.932 642.527C638.863 640.03 640.844 637.665 642.858 635.446Z" fill="#83D3FC"/>
<path d="M638.57 666.929L623.786 658.393L622.345 660.889C621.814 661.808 622.132 662.993 623.051 663.524L634.494 670.131C635.413 670.661 636.599 670.343 637.129 669.424L638.57 666.929Z" fill="#FBB362"/>
<path d="M629.032 664.79L630.49 662.263L623.786 658.393L622.345 660.889C621.814 661.808 622.132 662.993 623.051 663.524L628.67 666.768C628.487 666.29 628.61 665.52 629.032 664.79Z" fill="#FC9949"/>
<path d="M654.147 653.736C654.412 652.993 654.107 652.166 653.424 651.772L629.484 637.951C628.801 637.556 627.933 637.705 627.422 638.307C623.588 642.818 620.167 647.789 617.265 653.069C616.838 653.846 617.115 654.821 617.883 655.265L644.23 670.476C644.998 670.92 645.981 670.671 646.441 669.913C649.673 664.578 652.23 659.108 654.147 653.736Z" fill="#D0F6FA"/>
<path fill-rule="evenodd" clip-rule="evenodd" d="M635.751 642.952C632.133 647.693 628.783 652.814 625.803 658.157C625.488 658.721 625.448 659.332 625.652 659.751L621.767 657.508L624.076 642.5C625.152 641.063 626.268 639.664 627.422 638.306C627.933 637.706 628.801 637.556 629.484 637.95L636.91 642.238C636.513 642.267 636.08 642.521 635.751 642.952Z" fill="#B9E9FD"/>
<path d="M617.265 653.069C616.838 653.846 617.115 654.822 617.883 655.265L621.767 657.508L624.076 642.5C621.576 645.838 619.294 649.378 617.265 653.069Z" fill="#B9E9FD"/>
<path d="M617.265 653.069C616.838 653.846 617.115 654.822 617.883 655.265L621.767 657.508L624.076 642.5C621.576 645.838 619.294 649.378 617.265 653.069Z" fill="black" fill-opacity="0.2"/>
<path d="M624.618 670.586C620.494 672.793 616.422 675.731 612.572 679.308L626.204 687.179C627.378 682.056 627.886 677.061 627.734 672.386C627.682 670.733 626.076 669.806 624.618 670.586Z" fill="#61B6FF"/>
<path fill-rule="evenodd" clip-rule="evenodd" d="M627.53 671.491C627.395 671.608 627.239 671.774 627.061 671.996C624.552 675.136 621.828 678.851 618.989 683.013L618.261 682.593L619.821 673.5C621.406 672.421 623.008 671.448 624.618 670.586C625.785 669.962 627.046 670.431 627.53 671.491Z" fill="#5294E5"/>
<path d="M619.821 673.5C617.348 675.185 614.919 677.127 612.572 679.308L618.261 682.593L619.821 673.5Z" fill="#5294E5"/>
<path d="M619.821 673.5C617.348 675.185 614.919 677.127 612.572 679.308L618.261 682.593L619.821 673.5Z" fill="black" fill-opacity="0.2"/>
<path fill-rule="evenodd" clip-rule="evenodd" d="M618.234 682.577L617.139 689.787C619.072 690.811 621.108 691.667 623.228 692.333L626.204 687.179L618.234 682.577Z" fill="#5294E5"/>
<path d="M612.572 679.308L609.596 684.463C611.865 686.54 614.398 688.334 617.139 689.787L618.234 682.577L612.572 679.308Z" fill="#5294E5"/>
<path d="M612.572 679.308L609.596 684.463C611.865 686.54 614.398 688.334 617.139 689.787L618.234 682.577L612.572 679.308Z" fill="black" fill-opacity="0.2"/>
<path fill-rule="evenodd" clip-rule="evenodd" d="M618.256 682.59L618.991 683.014L617.882 684.937L618.256 682.59Z" fill="#4374D3"/>
<path d="M612.572 679.308L609.596 684.463C611.43 686.142 613.438 687.633 615.587 688.911L617.882 684.937L618.256 682.59L612.572 679.308Z" fill="#4374D3"/>
<path d="M612.572 679.308L609.596 684.463C611.43 686.142 613.438 687.633 615.587 688.911L617.882 684.937L618.256 682.59L612.572 679.308Z" fill="black" fill-opacity="0.2"/>
<path d="M628.66 646.495C628.032 647.59 627.869 648.859 628.206 650.077L628.952 652.836L634.585 644.505C634.542 644.486 634.498 644.469 634.454 644.452C633.549 644.099 632.528 644.021 631.52 644.292C630.299 644.617 629.287 645.4 628.66 646.495Z" fill="#F6159C"/>
<path d="M641.233 657.542C642.446 657.213 643.458 656.43 644.086 655.335C644.714 654.239 644.877 652.97 644.54 651.753C643.862 649.253 641.27 647.768 638.763 648.442L637.61 648.755L637.305 647.607C636.908 646.158 635.873 645.05 634.585 644.505L628.952 652.836L629.024 653.101L630.79 659.621C630.81 659.694 630.83 659.747 630.859 659.804C630.916 659.919 631.014 660.016 631.122 660.078C631.23 660.14 631.356 660.171 631.484 660.162C631.536 660.161 631.66 660.14 631.709 660.127L641.233 657.542Z" fill="#F948B4"/>
</g>
<path fill-rule="evenodd" clip-rule="evenodd" d="M705.308 658.717C704.774 655.848 702.773 654.514 700.104 654.514C697.436 654.514 695.701 655.915 695.701 657.649C695.701 659.651 696.969 660.718 701.239 661.852C702.039 662.086 702.823 662.286 703.607 662.486C704.391 662.686 705.175 662.886 705.975 663.12C706.487 663.261 706.978 663.412 707.447 663.573V683.085C705.439 683.8 703.07 684.201 700.371 684.201C691.765 684.201 686.095 680.198 685.027 672.193H695.034C695.501 675.128 697.303 676.862 700.371 676.862C703.44 676.862 705.241 675.462 705.241 673.46C705.241 670.858 702.84 670.124 700.638 669.524C699.771 669.257 698.904 669.024 698.036 668.79C697.169 668.557 696.302 668.323 695.435 668.056C689.43 666.389 686.161 663.12 686.161 657.783C686.161 651.845 691.565 647.309 700.104 647.309C702.927 647.309 705.379 647.768 707.431 648.643V658.717H705.308Z" fill="#1E1E1E"/>
<path d="M1104.14 865.645C1098.97 853.484 1084.91 847.822 1072.75 852.999C1060.59 858.176 1054.92 872.234 1060.1 884.395C1065.28 896.556 1079.34 902.218 1091.5 897.041C1103.66 891.864 1109.32 877.807 1104.14 865.645Z" fill="#8634C6"/>
<path d="M1104.16 865.603C1103.64 864.4 1103.03 863.281 1102.35 862.213C1103.92 869.864 1099.96 877.817 1092.49 880.994C1083.97 884.619 1074.13 880.655 1070.5 872.135C1067.33 864.671 1069.98 856.192 1076.42 851.765C1075.19 852.072 1073.96 852.447 1072.76 852.958C1060.6 858.14 1054.94 872.192 1060.11 884.359C1065.3 896.52 1079.35 902.182 1091.51 896.999C1103.67 891.822 1109.33 877.765 1104.16 865.603Z" fill="#B26CDE"/>
<path d="M1094.26 805.999C1084.89 805.999 1077.46 798.385 1077.46 789.202C1077.46 778.478 1087.36 770.692 1097.55 772.739C1105.64 774.411 1111.05 781.38 1111.05 789.202C1111.05 798.484 1103.53 805.999 1094.26 805.999Z" fill="#A2EC00"/>
<path d="M1052.27 365.593C1042.95 365.593 1035.47 358.01 1035.47 348.797C1035.47 338.39 1045.03 330.213 1055.56 332.338C1063.11 333.776 1069.06 340.599 1069.06 348.797C1069.06 358.073 1061.54 365.593 1052.27 365.593Z" fill="#5294E5"/>
<path d="M991.97 405.182C984.944 405.182 979.371 399.479 979.371 392.588C979.371 384.484 986.887 378.672 994.423 380.239C1000.28 381.338 1004.57 386.666 1004.57 392.588C1004.56 399.505 998.939 405.182 991.97 405.182Z" fill="#00C82F"/>
<path d="M202.97 840.305C195.944 840.305 190.371 834.601 190.371 827.711C190.371 819.607 197.887 813.794 205.423 815.362C211.283 816.461 215.569 821.789 215.569 827.711C215.564 834.628 209.939 840.305 202.97 840.305Z" fill="#B26CDE"/>
<path d="M908.029 389.446C891.172 387.549 877.755 374.132 875.857 357.273C875.676 355.659 874.335 354.44 872.714 354.436C871.094 354.439 869.752 355.661 869.569 357.269C867.67 374.131 854.255 387.543 837.394 389.446C835.787 389.625 834.561 390.967 834.564 392.587L834.561 392.592C834.56 394.208 835.786 395.554 837.397 395.732C854.254 397.628 867.675 411.048 869.573 427.907C869.75 429.518 871.092 430.745 872.712 430.742C874.336 430.741 875.674 429.517 875.857 427.909C877.756 411.047 891.169 397.627 908.032 395.732C909.641 395.549 910.865 394.21 910.865 392.586C910.866 390.969 909.64 389.624 908.029 389.446Z" fill="#FACE7A"/>
<path d="M856.656 400.272C869.096 398.871 878.996 388.975 880.398 376.535C880.526 375.418 881.41 374.564 882.508 374.464C878.939 369.51 876.573 363.64 875.858 357.273C875.677 355.659 874.332 354.438 872.715 354.436C871.091 354.437 869.753 355.661 869.57 357.269C867.671 374.131 854.256 387.543 837.395 389.446C835.788 389.625 834.562 390.967 834.561 392.584L834.558 392.589C834.561 394.208 835.783 395.551 837.394 395.73C843.763 396.448 849.634 398.809 854.586 402.378C854.689 401.283 855.543 400.398 856.656 400.272Z" fill="#FBB362"/>
<path d="M129.031 826.568C112.174 824.672 98.7569 811.255 96.859 794.396C96.6782 792.782 95.3373 791.563 93.7158 791.559C92.0963 791.562 90.7536 792.783 90.5707 794.392C88.6719 811.254 75.257 824.666 58.3958 826.568C56.789 826.747 55.5627 828.09 55.5658 829.71L55.5632 829.714C55.5618 831.331 56.7878 832.676 58.3988 832.855C75.256 834.751 88.6774 848.171 90.5753 865.03C90.7516 866.641 92.0944 867.867 93.714 867.864C95.3381 867.864 96.6762 866.64 96.8591 865.031C98.7579 848.169 112.171 834.75 129.034 832.855C130.643 832.671 131.867 831.333 131.867 829.709C131.868 828.092 130.642 826.747 129.031 826.568Z" fill="#FACE7A"/>
<path d="M77.6564 837.394C90.0959 835.994 99.9957 826.097 101.398 813.658C101.526 812.541 102.41 811.686 103.508 811.586C99.9389 806.633 97.5729 800.762 96.8583 794.396C96.6775 792.782 95.3321 791.56 93.7151 791.559C92.091 791.559 90.7528 792.783 90.57 794.392C88.6712 811.254 75.2563 824.666 58.3951 826.568C56.7883 826.747 55.562 828.09 55.5606 829.707L55.558 829.711C55.5611 831.331 56.7826 832.674 58.3936 832.852C64.7627 833.57 70.6342 835.932 75.5862 839.501C75.6893 838.405 76.5428 837.521 77.6564 837.394Z" fill="#FBB362"/>
<path d="M119.623 687.341C111.172 686.391 104.446 679.664 103.494 671.212C103.403 670.403 102.731 669.792 101.918 669.79C101.106 669.791 100.433 670.404 100.341 671.21C99.3895 679.663 92.6641 686.388 84.211 687.341C83.4054 687.431 82.7906 688.104 82.7922 688.916L82.7909 688.918C82.7902 689.729 83.4048 690.403 84.2125 690.493C92.6636 691.444 99.3923 698.172 100.344 706.623C100.432 707.431 101.105 708.046 101.917 708.044C102.732 708.044 103.402 707.431 103.494 706.624C104.446 698.171 111.17 691.443 119.625 690.493C120.431 690.401 121.045 689.73 121.045 688.916C121.045 688.105 120.431 687.431 119.623 687.341Z" fill="#FACE7A"/>
<path d="M93.868 692.769C100.104 692.067 105.068 687.105 105.771 680.869C105.835 680.309 106.278 679.88 106.828 679.83C105.039 677.347 103.853 674.404 103.495 671.212C103.404 670.403 102.73 669.79 101.919 669.79C101.105 669.79 100.434 670.403 100.342 671.21C99.3901 679.663 92.6647 686.387 84.2116 687.341C83.406 687.431 82.7912 688.104 82.7905 688.915L82.7892 688.917C82.7908 689.729 83.4032 690.402 84.2108 690.491C87.4039 690.852 90.3475 692.035 92.8302 693.825C92.8818 693.276 93.3097 692.832 93.868 692.769Z" fill="#FBB362"/>
<path d="M48.6251 993.341C40.1739 992.391 33.4475 985.664 32.496 977.212C32.4054 976.403 31.7331 975.792 30.9202 975.79C30.1083 975.791 29.4351 976.404 29.3434 977.21C28.3915 985.663 21.6661 992.388 13.2129 993.341C12.4074 993.431 11.7926 994.104 11.7941 994.916L11.7928 994.918C11.7921 995.729 12.4068 996.403 13.2144 996.493C21.6656 997.444 28.3943 1004.17 29.3457 1012.62C29.4341 1013.43 30.1073 1014.05 30.9193 1014.04C31.7335 1014.04 32.4044 1013.43 32.4961 1012.62C33.448 1004.17 40.1724 997.443 48.6266 996.493C49.4334 996.401 50.0469 995.73 50.0467 994.916C50.0474 994.105 49.4327 993.431 48.6251 993.341Z" fill="#FACE7A"/>
<path d="M22.868 998.769C29.1044 998.067 34.0676 993.105 34.7706 986.869C34.8346 986.309 35.278 985.88 35.8285 985.83C34.0391 983.347 32.8529 980.404 32.4947 977.212C32.404 976.403 31.7295 975.79 30.9189 975.79C30.1047 975.79 29.4338 976.403 29.3421 977.21C28.3901 985.663 21.6647 992.387 13.2116 993.341C12.406 993.431 11.7912 994.104 11.7905 994.915L11.7892 994.917C11.7908 995.729 12.4032 996.402 13.2108 996.491C16.4039 996.852 19.3475 998.035 21.8302 999.825C21.8818 999.276 22.3097 998.832 22.868 998.769Z" fill="#FBB362"/>
</g>
<defs>
<clipPath id="clip0_228_1839">
<rect width="1100" height="1198" rx="15" fill="white"/>
</clipPath>
<clipPath id="clip1_228_1839">
<rect width="76" height="76" fill="white" transform="translate(596 618)"/>
</clipPath>
</defs>
</svg>
