<?xml version="1.0"?>
<svg width="580" height="517" xmlns="http://www.w3.org/2000/svg" xmlns:svg="http://www.w3.org/2000/svg">
 <g class="layer">
  <title>Layer 1</title>
  <path d="m90.59,357.33c-22.77,-6.72 -36.43,-19.08 -40.73,-36.87c-8.9,-36.91 31.17,-61.87 44.34,-70.06c23.64,-14.72 57.25,-29.78 97.2,-43.55c16.47,-5.67 34.4,3.06 40.07,19.53c5.68,16.46 -3.07,34.4 -19.53,40.07c-41.37,14.26 -67.66,27.25 -83.21,36.75c10.27,6.54 16.24,18.74 14.21,31.53c-2.72,17.19 -18.88,28.93 -36.06,26.2c-5.86,-0.93 -11.3,-2.13 -16.29,-3.6z" fill="#C78FE8" id="svg_1"/>
  <path d="m360.09,226.19c-11.43,-3.38 -20.43,-13.11 -22.28,-25.66c-2.54,-17.22 9.37,-33.24 26.59,-35.78c42.79,-6.3 80.45,-8.45 108.95,-6.23c17.34,1.34 30.33,16.52 28.98,33.88c-1.36,17.35 -16.53,30.33 -33.88,28.98c-23.53,-1.84 -57.23,0.2 -94.87,5.75c-4.67,0.68 -9.25,0.31 -13.49,-0.94z" fill="#C78FE8" id="svg_2"/>
  <path d="m416.11,226.03c-16.01,-66.4 -82.8,-107.25 -149.2,-91.24c-66.4,16.01 -107.25,82.82 -91.24,149.21c16.01,66.4 82.82,107.25 149.22,91.24c66.4,-16.02 107.23,-82.82 91.22,-149.21z" fill="#F948B4" id="svg_3"/>
  <path d="m377.2,334.89c-51.91,12.51 -104.14,-19.42 -116.66,-71.34c-12.52,-51.91 19.42,-104.13 71.34,-116.65c6.34,-1.54 12.71,-2.39 18.99,-2.64c-25.11,-12.48 -54.57,-16.54 -83.96,-9.46c-66.4,16.01 -107.25,82.82 -91.24,149.22c16.01,66.4 82.82,107.25 149.22,91.24c29.38,-7.09 53.75,-24.14 70.42,-46.69c-5.71,2.65 -11.75,4.79 -18.11,6.32z" fill="#F6159C" id="svg_4"/>
  <path d="m104.43,360.02c-14.94,-4.41 -24.67,-19.34 -22.16,-35.16c2.72,-17.18 18.86,-28.92 36.06,-26.2c37.42,5.93 110.25,-1.98 185.58,-20.15c78.55,-18.94 132.62,-41.61 161.08,-57.94c-14.77,-3.67 -25.14,-17.45 -23.93,-33.08c1.37,-17.35 16.53,-30.32 33.89,-28.96c15.78,1.22 63.79,4.97 72.79,42.27c9.65,40.04 -36.58,67.89 -72.19,85.36c-40.89,20.05 -96.59,39.11 -156.86,53.65c-85.29,20.55 -163.88,28.45 -210.22,21.12c-1.38,-0.22 -2.73,-0.52 -4.04,-0.91z" fill="#DCB1F3" id="svg_5"/>
 </g>
</svg>