<?xml version="1.0"?>
<svg width="580" height="517" xmlns="http://www.w3.org/2000/svg" xmlns:svg="http://www.w3.org/2000/svg" xmlns:xlink="http://www.w3.org/1999/xlink">
 <g class="layer">
  <title>Layer 1</title>
  <path d="m276.81,433.82c10.55,-18.25 33.88,-24.5 52.13,-13.96c18.25,10.53 24.5,33.87 13.97,52.12c-10.54,18.25 -33.88,24.51 -52.13,13.96c-18.25,-10.53 -24.5,-33.86 -13.97,-52.12z" fill="#FD7E31" id="svg_6" transform="matrix(1 0 0 1 0 0)"/>
  <path d="m273.87,445.16c1.59,6.01 5.48,11.41 11.29,14.76c11.56,6.68 26.35,2.72 33.02,-8.85c6.68,-11.56 2.72,-26.35 -8.85,-33.02c-1.91,-1.1 -3.9,-1.89 -5.93,-2.42c8.87,-1.87 18.43,-0.6 26.9,4.29c18.26,10.54 24.51,33.88 13.97,52.13c-10.53,18.25 -33.87,24.5 -52.12,13.96c-14.65,-8.45 -21.56,-25.15 -18.28,-40.85z" fill="#FC5D1F" id="svg_7" transform="matrix(1 0 0 1 0 0)"/>
  <path d="m111.39,82.11c9.76,-16.9 31.37,-22.69 48.27,-12.93c16.9,9.76 22.69,31.37 12.94,48.27c-9.77,16.9 -31.37,22.69 -48.28,12.93c-16.9,-9.76 -22.69,-31.36 -12.93,-48.27z" fill="#A2EC00" id="svg_8" transform="matrix(1 0 0 1 0 0)"/>
  <path d="m112.8,81.44c1.22,-2.12 2.63,-4.06 4.19,-5.82c-2.75,9.73 1.29,20.44 10.45,25.73c10.82,6.25 24.66,2.54 30.91,-8.29c5.29,-9.15 3.43,-20.44 -3.82,-27.5c2.24,0.74 4.42,1.72 6.54,2.94c16.9,9.76 22.69,31.37 12.93,48.27c-9.76,16.9 -31.37,22.7 -48.27,12.93c-16.9,-9.75 -22.69,-31.36 -12.93,-48.26z" fill="#00C82F" id="svg_9" transform="matrix(1 0 0 1 0 0)"/>
  <path d="m289.57,22.05c4.65,-8.06 14.96,-10.82 23.02,-6.17c8.06,4.65 10.82,14.97 6.17,23.02c-4.66,8.07 -14.97,10.83 -23.03,6.18c-8.06,-4.66 -10.82,-14.97 -6.16,-23.03z" fill="#D7F9B7" id="svg_10" transform="matrix(1 0 0 1 0 0)"/>
  <path d="m113.94,396.07c3.49,-6.06 11.22,-8.12 17.27,-4.63c6.05,3.49 8.12,11.22 4.63,17.27c-3.49,6.05 -11.22,8.12 -17.27,4.63c-6.05,-3.49 -8.13,-11.23 -4.63,-17.27z" fill="#FACE7A" id="svg_11" transform="matrix(1 0 0 1 0 0)"/>
  <ellipse cx="461.2" cy="417.67" fill="#ffff00" id="svg_16" rx="20" ry="21"/>
  <use id="svg_22" transform="matrix(1 0 0 1 0 0) matrix(1.36021 0 0 1.32983 478.863 69.743)" x="-19.58" xlink:href="#svg_21" y="17.1"/>
  <use id="svg_24" transform="matrix(1 0 0 1 0 0) matrix(0.733002 0 0 0.737671 -0.325979 -0.317146)" x="69.62" xlink:href="#svg_23" y="320.29"/>
  <use id="svg_26" transform="matrix(1 0 0 1 0 0) matrix(0.689703 0 0 0.719688 -51.9544 -0.299536)" x="798.76" xlink:href="#svg_25" y="378.5"/>
 </g>
 <defs>
  <symbol height="45" id="svg_21" viewBox="0 0 45 45" width="45" xmlns="http://www.w3.org/2000/svg">
   <path d="m38.41,6.78c3.79,3.85 5.97,9.66 5.8,14.95c-0.03,0.94 -0.1,1.89 -0.25,2.81c-2.48,-1.05 -6.17,-0.7 -8.81,-0.52c0.62,-1.31 -1.94,-6.62 -2.48,-8.22c0.91,-3.35 2.9,-6.85 5.74,-9.02z" fill="#891404" id="svg_1"/>
   <path d="m24.55,0.6c4.5,0.78 8.33,1.77 12,4.56c0.58,0.43 1.3,0.9 1.75,1.46c0.04,0.05 0.08,0.1 0.11,0.16c-2.84,2.17 -4.83,5.67 -5.74,9.02c-1.43,0.08 -5.51,-0.84 -6.56,-1.74c-0.05,-0.64 -3.3,-7.72 -3.85,-9.66c0.81,-1.25 1.64,-2.47 2.29,-3.8z" fill="#AB2E08" id="svg_2"/>
   <path d="m2.98,15.74c1.41,1.16 3.12,2.26 4.78,3.04c1.57,1.17 3.32,2.14 4.98,3.19c-0.65,3.29 -1,6.68 -1.29,10.02c-2.71,0.82 -5.5,1.37 -8.24,2.09c-1.33,-1.97 -2.06,-5.85 -2.28,-8.2c-0.27,-2.88 0.04,-7.83 2.05,-10.14z" fill="#D2340C" id="svg_3"/>
   <path d="m11.45,31.99c2.75,0.22 10.07,2.71 12.64,3.92c0.25,1.57 1.32,6.76 2.65,7.71c-3,0.75 -6.33,0.83 -9.37,0.28c-5.97,-1.09 -10.82,-5.06 -14.16,-9.82c2.74,-0.72 5.53,-1.27 8.24,-2.09z" fill="#891404" id="svg_4"/>
   <path d="m35.15,24.02c2.65,-0.18 6.33,-0.53 8.81,0.52c-1.44,7.06 -5,12.36 -11.22,16.36c-1.86,1.2 -3.85,2.12 -6,2.72c-1.33,-0.95 -2.4,-6.14 -2.65,-7.71c0.22,-2.54 0.99,-4.87 2.57,-6.93c2.14,-2.77 4.97,-4.44 8.49,-4.96z" fill="#570F16" id="svg_5"/>
   <path d="m5.68,10.88c0.86,-1.66 2.31,-3.26 3.68,-4.54c0.26,-0.24 0.51,-0.46 0.78,-0.68c0.26,-0.22 0.53,-0.44 0.8,-0.65c0.28,-0.2 0.56,-0.41 0.84,-0.6c0.29,-0.19 0.58,-0.38 0.87,-0.56c0.29,-0.18 0.59,-0.36 0.9,-0.53c0.3,-0.16 0.6,-0.32 0.92,-0.48c0.31,-0.15 0.62,-0.29 0.94,-0.43c0.32,-0.14 0.64,-0.27 0.96,-0.39c0.33,-0.12 0.65,-0.24 0.98,-0.35c0.33,-0.1 0.67,-0.2 1,-0.29c0.34,-0.1 0.68,-0.18 1.02,-0.26c0.33,-0.07 0.68,-0.14 1.02,-0.2c0.34,-0.06 0.69,-0.11 1.03,-0.15c0.35,-0.05 0.69,-0.08 1.04,-0.11c0.35,-0.03 0.7,-0.05 1.04,-0.06c0.35,-0.01 0.7,-0.01 1.05,0c-0.65,1.33 -1.48,2.55 -2.29,3.79c0.55,1.95 3.8,9.03 3.85,9.67c-4.7,2.23 -8.81,5.45 -13.37,7.91c-1.66,-1.04 -3.41,-2.02 -4.98,-3.19c-1.66,-0.78 -3.37,-1.88 -4.78,-3.04c0.76,-1.75 1.49,-3.35 2.7,-4.86z" fill="#ED460C" id="svg_12"/>
   <path d="m26.11,14.06c1.05,0.9 5.13,1.82 6.56,1.74c0.54,1.6 3.1,6.91 2.48,8.22c-3.52,0.52 -6.35,2.19 -8.49,4.96c-1.58,2.06 -2.35,4.39 -2.57,6.93c-2.57,-1.21 -9.89,-3.7 -12.64,-3.92c0.29,-3.34 0.64,-6.73 1.29,-10.02c4.56,-2.46 8.67,-5.68 13.37,-7.91z" fill="#C32505" id="svg_13"/>
  </symbol>
  <symbol height="64" id="svg_23" viewBox="0 0 64 64" width="64" xmlns="http://www.w3.org/2000/svg">
   <path d="m1.08,40.29c-0.04,-1.36 -0.42,-2.74 -0.64,-4.08c-0.23,-1.5 -0.37,-3.01 -0.42,-4.53c-0.32,-8.07 2.48,-16.28 8.22,-22.24c5.8,-6.02 13.38,-9.14 21.85,-9.43c5.89,-0.19 11.27,1.64 16.38,4.35c1.71,0.9 3.51,1.91 4.94,3.21c-2.46,5.05 -5.59,9.78 -7.75,14.99c-0.06,0.03 -0.12,0.06 -0.18,0.08c-4.05,1.87 -9.14,2.01 -13.5,2.78c-8.71,1.55 -11.37,3.88 -14.92,11.35c-1.19,2.55 -2.43,5.09 -3.71,7.61c-0.57,1.12 -1.06,2.39 -1.73,3.45c-1.62,-0.04 -3.25,-0.1 -4.87,-0.18c-1.58,-2.01 -3.01,-4.93 -3.67,-7.36z" fill="#AB2E08" id="svg_14"/>
   <path d="m32.77,1.73c0.64,1.13 0.59,3.26 0.81,4.57c-1.87,1.83 -4.21,3.42 -6.27,5.07c-6.31,5.03 -12.73,9.75 -19.33,14.41c-0.16,0.1 -0.05,0.05 -0.35,0.11c0.01,-0.18 0.01,-0.23 0.07,-0.43c0.81,-2.72 4.91,-7.89 6.62,-10.51c1.07,-1.65 2.02,-4.21 3.58,-5.45c1.57,-1.24 3.77,-2.02 5.55,-2.92c3.14,-1.56 6.25,-3.17 9.32,-4.85z" fill="#ED6422" id="svg_15"/>
   <path d="m51.41,7.57c6.9,5.9 11.41,13.75 11.97,22.75c0.09,1.29 0.16,2.75 -0.1,4.02c-0.35,7.3 -4.66,14.97 -10.17,19.83c-4.85,4.28 -10.23,6.87 -16.58,8.4c-1.91,0.25 -3.77,0.48 -5.71,0.48c-0.44,0 -0.9,-0.01 -1.34,-0.03c-0.45,-0.02 -0.9,-0.05 -1.35,-0.09c-0.44,-0.04 -0.89,-0.09 -1.33,-0.15c-0.44,-0.06 -0.89,-0.13 -1.33,-0.21c-0.44,-0.08 -0.88,-0.17 -1.31,-0.27c-0.44,-0.1 -0.87,-0.21 -1.3,-0.33c-0.43,-0.12 -0.86,-0.25 -1.29,-0.39c-0.41,-0.13 -0.84,-0.28 -1.26,-0.44c-0.42,-0.16 -0.83,-0.32 -1.24,-0.5c-0.41,-0.18 -0.82,-0.36 -1.22,-0.55c-0.4,-0.2 -0.79,-0.4 -1.18,-0.61c-0.39,-0.22 -0.78,-0.44 -1.16,-0.67c-0.38,-0.22 -0.76,-0.46 -1.13,-0.71c-0.37,-0.24 -0.73,-0.5 -1.09,-0.76c-0.35,-0.26 -0.7,-0.53 -1.05,-0.81c-0.34,-0.28 -0.68,-0.56 -1.01,-0.86c-1.27,-1.11 -2.3,-2.48 -3.51,-3.65l-0.12,-0.11l-0.34,-0.52c-0.92,-1.19 -1.7,-2.48 -2.51,-3.74c1.62,0.08 3.25,0.14 4.87,0.18c0.67,-1.06 1.16,-2.33 1.73,-3.45c1.28,-2.52 2.52,-5.06 3.71,-7.61c3.55,-7.47 6.21,-9.8 14.92,-11.35c4.36,-0.77 9.45,-0.91 13.5,-2.78c0.06,-0.02 0.12,-0.05 0.18,-0.08c2.16,-5.21 5.29,-9.94 7.75,-14.99z" fill="#891404" id="svg_17"/>
   <path d="m47.06,33.46c3.56,-0.04 7.14,-0.28 10.69,-0.45c1.72,-0.08 3.54,-0.29 5.25,-0.14c0.31,0.41 0.26,0.97 0.28,1.47c-0.35,7.3 -4.66,14.97 -10.17,19.83c-4.85,4.28 -10.23,6.87 -16.58,8.4c-0.17,-1.63 -0.83,-3.37 -1.31,-4.94c-0.84,-2.77 -1.7,-5.51 -2.32,-8.34c0.89,-1.65 12.46,-14.49 14.16,-15.83z" fill="#570F16" id="svg_18"/>
  </symbol>
  <symbol height="77" id="svg_25" viewBox="0 0 80 77" width="80" xmlns="http://www.w3.org/2000/svg">
   <path d="m63.2,8.3c0.82,0.61 1.6,1.19 2.31,1.91c8.29,7.72 13.77,17.02 13.97,28.38c0.01,0.57 0.02,1.1 -0.1,1.66c-0.51,-0.21 -1.03,-0.16 -1.57,-0.14c-1.24,0.03 -16.15,0.98 -16.23,1.02c-0.08,0.04 -0.14,0.1 -0.2,0.14c-1.07,-4.66 -3.62,-9.15 -4.24,-13.91c1.72,-6.43 4.27,-12.64 6.06,-19.06z" fill="#C32505" id="svg_19"/>
   <path d="m10.12,62.43c2.52,-1.58 5.2,-2.97 7.82,-4.39c1.5,-0.82 3.06,-1.8 4.67,-2.39c3.24,0.51 6.5,0.88 9.74,1.41c4.15,0.68 8.28,1.54 12.46,1.94c0.92,2.62 2.09,5.18 3.19,7.74c1.12,2.61 2.19,5.27 3.48,7.81c-4.33,1.25 -9,1.84 -13.52,1.52c-10.44,-0.72 -20.99,-6.04 -27.84,-13.64z" fill="#C32505" id="svg_20"/>
   <path d="m61.38,41.27c0.06,-0.04 0.12,-0.1 0.2,-0.14c0.08,-0.04 14.99,-0.99 16.23,-1.02c0.54,-0.02 1.06,-0.07 1.57,0.14c-0.45,9.78 -4.3,18.68 -11.81,25.35c-4.7,4.18 -10.06,7.01 -16.09,8.95c-1.3,-2.54 -2.36,-5.2 -3.48,-7.81c-1.1,-2.56 -2.27,-5.12 -3.19,-7.74c2.42,-2.37 4.7,-4.9 7.03,-7.34c3.22,-3.39 6.55,-6.79 9.54,-10.39z" fill="#891404" id="svg_27"/>
   <path d="m39.97,28.18c3.1,-0.69 15.61,0.1 17.17,-0.83c0.62,4.77 3.17,9.26 4.24,13.92c-2.99,3.6 -6.32,6.99 -9.54,10.38c-2.33,2.45 -4.61,4.98 -7.03,7.35c-4.18,-0.4 -8.31,-1.26 -12.46,-1.94c-3.24,-0.53 -6.5,-0.9 -9.74,-1.41c0.21,-5.18 -0.01,-10.42 -0.05,-15.6c5.93,-3.76 11.42,-8.2 17.41,-11.87z" fill="#D2340C" id="svg_28"/>
   <path d="m26.11,1.55c6.64,-1.54 11.57,-1.95 18.37,-1.16c6.31,0.93 13.89,3.74 18.72,7.91c-1.79,6.42 -4.34,12.63 -6.06,19.06c-1.56,0.92 -14.07,0.13 -17.17,0.83c-5.99,3.66 -11.48,8.11 -17.41,11.86c0.04,5.18 0.26,10.43 0.05,15.6c-1.61,0.59 -3.17,1.57 -4.67,2.39c-2.62,1.42 -5.3,2.82 -7.82,4.39c-1.24,-1.26 -2.2,-2.77 -3.4,-4.07c-0.76,-1.94 -2.16,-3.68 -3.04,-5.58c-0.19,-0.42 -0.37,-0.83 -0.55,-1.25c-0.17,-0.42 -0.34,-0.84 -0.5,-1.27c-0.16,-0.42 -0.32,-0.85 -0.46,-1.28c-0.15,-0.43 -0.29,-0.86 -0.42,-1.3c-0.13,-0.43 -0.26,-0.87 -0.38,-1.31c-0.11,-0.43 -0.22,-0.87 -0.33,-1.32c-0.1,-0.44 -0.2,-0.88 -0.28,-1.33c-0.09,-0.44 -0.17,-0.89 -0.24,-1.33c-0.08,-0.45 -0.14,-0.9 -0.2,-1.35c-0.06,-0.45 -0.11,-0.9 -0.15,-1.35c-0.04,-0.45 -0.08,-0.9 -0.1,-1.35c-0.03,-0.45 -0.05,-0.91 -0.06,-1.36c-0.01,-0.45 -0.02,-0.9 -0.01,-1.36c0,-0.45 0.01,-0.9 0.03,-1.35c0.02,-0.46 0.04,-0.91 0.08,-1.36c0.03,-0.45 0.07,-0.9 0.12,-1.35c0.25,-1.84 0.55,-3.64 1.11,-5.42c1,-5.06 4.77,-11 8.05,-15.03c4.14,-4.2 11.18,-7.71 16.72,-9.56z" fill="#ED6422" id="svg_29"/>
   <path d="m12.48,18.23c2.32,-0.53 4.72,-0.81 7.06,-1.22c4.64,-0.81 9.33,-1.67 13.93,-2.7c0.57,-0.12 1.42,-0.48 1.92,-0.21c1.27,4.69 2.83,9.54 4.58,14.09c-5.99,3.66 -11.48,8.11 -17.41,11.86c-5.65,-3.39 -10.18,-8.69 -15.84,-12l0.01,-0.17c2.25,-3.01 3.81,-6.46 5.75,-9.65z" fill="#FD6626" id="svg_30"/>
   <path d="m44.48,0.4c6.31,0.92 13.89,3.73 18.72,7.9c-1.79,6.42 -4.34,12.63 -6.06,19.06c-1.56,0.92 -14.07,0.13 -17.17,0.83c-1.75,-4.55 -3.31,-9.4 -4.58,-14.09c0.52,-1.27 2.68,-3.83 3.59,-5.18c1.84,-2.77 3.39,-5.96 5.5,-8.52z" fill="#ED460C" id="svg_31"/>
  </symbol>
 </defs>
</svg>