<svg width="25" height="24" viewBox="0 0 25 24" fill="none" xmlns="http://www.w3.org/2000/svg">
<path fill-rule="evenodd" clip-rule="evenodd" d="M19.2064 7.29303C19.3939 7.48056 19.4992 7.73487 19.4992 8.00003C19.4992 8.26519 19.3939 8.5195 19.2064 8.70703L11.2064 16.707C11.0189 16.8945 10.7646 16.9998 10.4994 16.9998C10.2343 16.9998 9.97996 16.8945 9.79243 16.707L5.79243 12.707C5.61027 12.5184 5.50948 12.2658 5.51176 12.0036C5.51403 11.7414 5.6192 11.4906 5.80461 11.3052C5.99002 11.1198 6.24083 11.0146 6.50303 11.0124C6.76523 11.0101 7.01783 11.1109 7.20643 11.293L10.4994 14.586L17.7924 7.29303C17.98 7.10556 18.2343 7.00024 18.4994 7.00024C18.7646 7.00024 19.0189 7.10556 19.2064 7.29303Z" fill="#22C348"/>
</svg>
