<svg width="275" height="331" viewBox="0 0 275 331" fill="none" xmlns="http://www.w3.org/2000/svg">
<g clip-path="url(#clip0_431_3855)">
<rect y="0.515137" width="275" height="330" rx="25" fill="#FAFEF2"/>
<g clip-path="url(#clip1_431_3855)">
<path d="M79.4848 35.5988C-13.2833 35.5988 -88.4883 110.801 -88.4883 203.572C-88.4883 262.293 -58.3485 313.968 -12.7022 343.995L171.774 343.928C217.364 313.89 247.458 262.25 247.458 203.572C247.458 110.801 172.253 35.5988 79.4848 35.5988Z" fill="#FAFEF2"/>
<path d="M79.5346 43.9466C28.0178 43.9466 -13.7451 85.7069 -13.7451 137.224V343.309C12.9292 361.14 44.9892 371.545 79.4837 371.545C114.021 371.545 146.121 361.116 172.814 343.242V137.224C172.814 85.7069 131.051 43.9466 79.5346 43.9466Z" fill="#A2EC00"/>
<path d="M52.3247 339.632V137.224C52.3247 92.5977 72.5661 55.2992 99.6073 46.1186C93.1423 44.6992 86.4281 43.9466 79.5346 43.9466C28.0178 43.9466 -13.7451 85.7069 -13.7451 137.224V343.309C8.0148 357.857 33.3607 367.456 60.6858 370.501C55.367 361.419 52.3247 350.846 52.3247 339.632Z" fill="#51DA18"/>
<path d="M201.439 33.4027C176.048 13.1773 134.968 15.7671 115.045 48.2449C113.066 51.4694 112.932 55.3929 114.683 58.7379C118.738 66.4804 129.965 66.2956 133.714 58.1808C144.692 34.4364 173.64 25.3495 196.104 38.2983C197.17 36.0915 199.048 34.3106 201.439 33.4027Z" fill="#D7F9B7"/>
<path d="M104.712 109.473C104.637 109.481 104.565 109.489 104.49 109.489H54.5829C54.5052 109.489 54.4329 109.481 54.3606 109.473C50.804 114.5 48.707 120.63 48.707 127.256C48.707 144.283 62.5102 158.086 79.5351 158.086C96.5628 158.086 110.366 144.283 110.366 127.256C110.366 120.63 108.269 114.5 104.712 109.473Z" fill="#E0F9FE"/>
<path d="M24.4519 285.764C23.8627 287.234 23.3592 288.798 22.9655 290.44C20.3811 301.182 23.3485 311.107 29.5886 312.607C35.8313 314.11 42.9847 306.619 45.5691 295.877C45.9628 294.232 46.2279 292.609 46.3698 291.035C38.9032 289.704 31.5892 287.939 24.4519 285.764Z" fill="#E0F9FE"/>
<path d="M33.7638 290.44C33.9245 289.771 34.1066 289.115 34.3048 288.469C30.9839 287.652 27.6978 286.752 24.4519 285.764C23.8627 287.232 23.3592 288.798 22.9655 290.44C20.3811 301.182 23.3485 311.107 29.5886 312.607C32.007 313.188 34.5592 312.417 36.9321 310.633C33.1532 306.927 31.7177 298.943 33.7638 290.44Z" fill="#B9E9FD"/>
<path d="M134.622 285.764C127.485 287.939 120.168 289.704 112.701 291.035C112.846 292.609 113.108 294.232 113.505 295.877C116.086 306.619 123.24 314.11 129.482 312.607C135.725 311.107 138.69 301.182 136.108 290.44C135.714 288.798 135.211 287.234 134.622 285.764Z" fill="#E0F9FE"/>
<path d="M123.058 291.533C122.854 290.684 122.685 289.838 122.551 289.002C119.297 289.763 116.017 290.443 112.701 291.035C112.846 292.609 113.108 294.232 113.505 295.877C116.086 306.619 123.24 314.11 129.482 312.607C131.743 312.063 133.572 310.411 134.865 308.019C129.884 306.332 125.077 299.923 123.058 291.533Z" fill="#B9E9FD"/>
<path d="M18.846 286.632C15.6457 285.526 13.9477 282.036 15.0538 278.836C16.1599 275.638 19.6495 273.94 22.8472 275.046C58.8548 287.483 98.7565 287.99 136.224 275.046C139.421 273.94 142.914 275.638 144.02 278.836C145.123 282.036 143.425 285.526 140.228 286.632C101.601 299.974 58.8789 300.462 18.846 286.632Z" fill="#00C82F"/>
<path d="M3.64177 235.391C0.117332 230.391 -6.80834 229.301 -11.6879 232.93C-27.023 244.331 -61.4291 243.117 -71.1052 227.102C-75.3983 220 -74.7234 210.723 -72.5139 202.037C-71.0918 196.445 -74.2386 190.712 -79.7449 188.982C-85.6154 187.136 -91.8769 190.543 -93.4436 196.494C-96.652 208.679 -98.2991 224.017 -89.6567 238.316C-72.9129 266.018 -24.2323 268.753 0.75473 250.683C5.59145 247.188 7.08051 240.271 3.64177 235.391Z" fill="#51DA18"/>
<path d="M213.826 39.8651C212.722 34.5678 207.535 31.1692 202.237 32.2726C196.943 33.3787 193.544 38.5662 194.647 43.8609C195.751 49.1556 200.938 52.5542 206.236 51.4508C211.53 50.3474 214.929 45.1598 213.826 39.8651Z" fill="#FC7ACD"/>
<path d="M213.815 39.857C213.681 39.2116 213.483 38.593 213.234 38.0065C213.129 40.8533 211.11 43.3708 208.196 43.9787C204.768 44.6911 201.41 42.4923 200.695 39.0643C200.089 36.1505 201.589 33.2929 204.158 32.061C203.52 32.0663 202.875 32.1306 202.229 32.2672C196.932 33.3706 193.533 38.5581 194.639 43.8528C195.743 49.1502 200.93 52.5488 206.225 51.4427C211.522 50.342 214.918 45.1517 213.815 39.857Z" fill="#F948B4"/>
<path d="M146.363 29.1981C146.363 26.3887 147.702 23.9007 149.77 22.3126C136.226 25.754 123.658 34.2035 115.045 48.245C113.066 51.4695 112.932 55.3903 114.683 58.738C118.738 66.4778 129.965 66.2957 133.714 58.1809C137.959 49.0003 144.893 42.0237 153.096 37.653C149.239 36.7665 146.363 33.3224 146.363 29.1981Z" fill="#8FE98A"/>
<path d="M-42.3662 33.4027C-16.9747 13.1773 24.1026 15.7671 44.028 48.2449C46.0045 51.4694 46.1411 55.3929 44.3869 58.7379C40.3348 66.4804 29.1054 66.2956 25.356 58.1808C14.3783 34.4364 -14.5698 25.3495 -37.034 38.2983C-38.0999 36.0915 -39.9746 34.3106 -42.3662 33.4027Z" fill="#D7F9B7"/>
<path d="M12.7077 29.1981C12.7077 26.3887 11.3686 23.9007 9.30111 22.3126C22.8472 25.754 35.4157 34.2035 44.0286 48.245C46.0077 51.4695 46.1416 55.3903 44.3875 58.738C40.3354 66.4778 29.1087 66.2957 25.3593 58.1809C21.1144 49.0003 14.178 42.0237 5.97754 37.653C9.83139 36.7665 12.7077 33.3224 12.7077 29.1981Z" fill="#8FE98A"/>
<path d="M96.3887 153.068C79.8994 149.642 84.2969 134.639 84.2969 134.639L79.5351 119.738C75.4403 113.664 80.8662 110.41 80.8662 110.41L80.8983 109.489H54.5829C54.5052 109.489 54.4329 109.481 54.3606 109.473C50.8013 114.5 48.707 120.63 48.707 127.256C48.707 144.283 62.5075 158.086 79.5351 158.086C85.7565 158.086 91.5439 156.236 96.3887 153.068Z" fill="#B9E9FD"/>
<path d="M87.7517 127.952C87.7517 132.489 84.0719 136.168 79.5352 136.168C74.9984 136.168 71.3213 132.489 71.3213 127.952C71.3213 123.415 74.9984 119.738 79.5352 119.738C84.0719 119.738 87.7517 123.415 87.7517 127.952Z" fill="#61B6FF"/>
<path d="M106.215 106.695C99.8493 99.0467 90.2642 94.1779 79.5356 94.1779C68.8096 94.1779 59.2219 99.0467 52.8559 106.695C51.6294 108.171 52.6631 110.41 54.5833 110.41H104.491C106.411 110.41 107.445 108.171 106.215 106.695Z" fill="#51DA18"/>
<path d="M76.8898 102.726C76.8898 99.0226 79.0323 95.8249 82.1416 94.285C81.2793 94.2207 80.4142 94.1779 79.5358 94.1779C68.8072 94.1779 59.2221 99.0467 52.8561 106.695C51.6269 108.171 52.6633 110.41 54.5835 110.41H80.8642C78.4619 108.701 76.8898 105.9 76.8898 102.726Z" fill="#00C82F"/>
<path d="M114.424 196.317C114.322 196.325 114.22 196.338 114.113 196.338H44.958C44.8535 196.338 44.7517 196.325 44.65 196.317C39.7222 203.28 36.8164 211.778 36.8164 220.958C36.8164 244.55 55.941 263.677 79.5355 263.677C103.13 263.677 122.257 244.55 122.257 220.958C122.257 211.778 119.351 203.28 114.424 196.317Z" fill="#E0F9FE"/>
<path d="M102.889 256.722C80.039 251.977 86.1317 231.189 86.1317 231.189L79.5355 210.538C73.8632 202.126 81.378 197.613 81.378 197.613L81.4236 196.338H44.958C44.8535 196.338 44.7517 196.325 44.65 196.314C39.7222 203.28 36.8164 211.775 36.8164 220.956C36.8164 244.55 55.941 263.678 79.5355 263.678C88.1564 263.678 96.1775 261.115 102.889 256.722Z" fill="#B9E9FD"/>
<path d="M90.9202 221.923C90.9202 228.208 85.8237 233.305 79.5354 233.305C73.2498 233.305 68.1533 228.208 68.1533 221.923C68.1533 215.634 73.2498 210.538 79.5354 210.538C85.8237 210.538 90.9202 215.634 90.9202 221.923Z" fill="#61B6FF"/>
<path d="M116.504 192.466C107.685 181.868 94.4016 175.119 79.5352 175.119C64.6715 175.119 51.3879 181.868 42.5661 192.466C40.8655 194.509 42.2983 197.613 44.9577 197.613H114.113C116.775 197.613 118.208 194.509 116.504 192.466Z" fill="#51DA18"/>
<path d="M75.869 186.967C75.869 181.833 78.8364 177.404 83.1455 175.269C81.9511 175.181 80.7513 175.119 79.5354 175.119C64.669 175.119 51.3854 181.868 42.5663 192.466C40.863 194.509 42.2985 197.613 44.9579 197.613H81.378C78.0464 195.246 75.869 191.365 75.869 186.967Z" fill="#00C82F"/>
<path d="M3.64297 235.391C0.118534 230.391 -6.80714 229.301 -11.6867 232.93C-22.2761 240.803 -41.9497 242.657 -56.3046 237.783C-46.8454 244.234 -52.1561 259.216 -63.6855 258.075C-42.5443 265.472 -15.7361 262.612 0.755936 250.686C5.59266 247.188 7.0817 240.271 3.64297 235.391Z" fill="#00C82F"/>
<path d="M155.327 235.391C158.852 230.391 165.777 229.301 170.657 232.93C185.992 244.331 220.398 243.117 230.074 227.102C234.367 220 233.692 210.723 231.483 202.037C230.061 196.445 233.208 190.712 238.714 188.982C244.587 187.136 250.846 190.543 252.413 196.494C255.621 208.679 257.268 224.017 248.626 238.316C231.882 266.018 183.201 268.753 158.217 250.683C153.377 247.188 151.888 240.271 155.327 235.391Z" fill="#51DA18"/>
<path d="M155.327 235.391C158.852 230.391 165.777 229.301 170.657 232.93C181.246 240.803 200.92 242.657 215.275 237.783C205.816 244.234 211.126 259.216 222.656 258.075C201.515 265.472 174.706 262.612 158.214 250.686C153.378 247.188 151.889 240.271 155.327 235.391Z" fill="#00C82F"/>
</g>
</g>
<defs>
<clipPath id="clip0_431_3855">
<rect y="0.515137" width="275" height="330" rx="25" fill="white"/>
</clipPath>
<clipPath id="clip1_431_3855">
<rect width="351.03" height="351.03" fill="white" transform="translate(-96.0303 20.5151)"/>
</clipPath>
</defs>
</svg>
