<svg width="275" height="331" viewBox="0 0 275 331" fill="none" xmlns="http://www.w3.org/2000/svg">
<g clip-path="url(#clip0_416_1516)">
<rect y="0.0668945" width="275" height="330" rx="25" fill="#162680"/>
<g clip-path="url(#clip1_416_1516)">
<path d="M335.209 117.237C332.199 97.7507 325.554 79.4659 315.998 63.0895L290.816 30.6826C274.726 14.8252 255.188 2.46314 233.428 -5.18745L198.211 -13.0927C192.881 -13.6464 187.475 -13.9331 182 -13.9331C96.3749 -13.9331 26.9609 55.4809 26.9609 141.106C26.9609 226.733 96.3749 296.147 182 296.147C267.625 296.147 337.039 226.731 337.039 141.106C337.039 137.17 336.89 133.27 336.601 129.406L335.209 117.237Z" fill="#162680"/>
<path d="M56.5178 106.656C55.3535 106.656 54.1917 106.214 53.3043 105.327C51.5294 103.552 51.5294 100.674 53.3043 98.8995L97.7964 54.4074C99.5712 52.6326 102.449 52.6326 104.223 54.4074C105.998 56.1823 105.998 59.0571 104.223 60.8319L59.7313 105.327C58.8438 106.211 57.6796 106.656 56.5178 106.656Z" fill="#C78FE8"/>
<path d="M110.178 48.1757C108.403 46.4009 108.403 43.5236 110.178 41.7487L126.231 25.6986C128.006 23.9237 130.883 23.9237 132.655 25.6986C134.43 27.4734 134.43 30.3482 132.655 32.1231L116.603 48.1757C114.828 49.9506 111.951 49.9506 110.178 48.1757Z" fill="#C78FE8"/>
<path d="M78.8047 91.4216C79.4795 91.4538 80.6092 91.5131 82.2135 91.7306C89.3104 92.0767 107.13 91.57 119.302 79.3982L210.088 -11.388C206.178 -12.1049 202.218 -12.6759 198.211 -13.0936L113.619 71.498C103.497 81.6205 90.6848 88.5517 76.8247 91.3747C77.3537 91.3722 77.8852 91.3796 78.4166 91.3994C78.5279 91.4068 78.6564 91.4142 78.8047 91.4216Z" fill="#C78FE8"/>
<path d="M223.08 -8.42163L127.281 87.3776C115.109 99.5469 114.602 117.369 114.951 124.496C115.225 126.503 115.341 128.508 115.307 130.49C118.127 116.396 124.903 103.336 135.181 93.0606L233.427 -5.18836C230.031 -6.3823 226.58 -7.46253 223.08 -8.42163Z" fill="#C78FE8"/>
<path d="M137.183 19.7741C135.408 17.9993 135.408 15.1219 137.183 13.3496L137.907 12.6253C139.682 10.8529 142.56 10.8505 144.332 12.6278C146.107 14.4026 146.107 17.2775 144.332 19.0523L143.608 19.7766C141.833 21.5489 138.956 21.5514 137.183 19.7741Z" fill="#DCB1F3"/>
<path d="M223.446 -8.32181C218.942 -9.56766 214.357 -10.6232 209.697 -11.4636L119.069 79.1668C107.113 91.1235 89.8017 91.7712 82.2278 91.4028C80.3046 91.1384 79.0637 91.1112 78.4383 91.0716C68.0439 90.6736 57.5209 94.4384 49.5861 102.373C34.4752 117.484 34.4752 141.983 49.5861 157.094C64.6969 172.205 89.1961 172.205 104.307 157.094C113.208 148.193 116.864 136.031 115.277 124.452C114.907 116.876 115.557 99.5676 127.513 87.6109L223.446 -8.32181Z" fill="#B26CDE"/>
<path d="M97.7811 143.765L71.8877 105.025C61.0484 101.938 65.5052 92.9994 65.6412 92.7324C59.7654 94.5221 54.2308 97.7257 49.5861 102.373C34.4752 117.484 34.4752 141.983 49.5861 157.094C64.6969 172.205 89.1961 172.205 104.307 157.094C105.637 155.764 106.836 154.352 107.933 152.889C96.0013 154.016 97.7811 143.765 97.7811 143.765Z" fill="#9D4AD3"/>
<path d="M78.6521 216.519C77.4903 216.519 76.3261 216.074 75.4386 215.187C73.6663 213.412 73.6663 210.537 75.4386 208.76L193.614 90.5871C195.389 88.8147 198.263 88.8147 200.038 90.5871C201.813 92.3619 201.813 95.2392 200.038 97.0141L81.8656 215.187C80.9782 216.074 79.8139 216.519 78.6521 216.519Z" fill="#F948B4"/>
<path d="M148.417 147.387C147.063 147.387 145.708 146.871 144.675 145.837C143.347 144.51 142.878 142.651 143.256 140.943L75.4386 208.76C73.6663 210.537 73.6663 213.412 75.4386 215.187C76.3261 216.074 77.4903 216.519 78.6521 216.519C79.8164 216.519 80.9782 216.074 81.8656 215.187L149.871 147.182C149.396 147.318 148.907 147.387 148.417 147.387Z" fill="#F6159C"/>
<path d="M308.908 52.0405L159.117 201.831C142.864 218.084 142.185 241.884 142.652 251.398C143.02 254.08 143.173 256.755 143.129 259.405C146.896 240.584 155.943 223.144 169.667 209.42L315.998 63.09C313.788 59.3006 311.422 55.6149 308.908 52.0405Z" fill="#FC7ACD"/>
<path d="M94.3798 207.23C95.2796 207.277 96.7899 207.354 98.9306 207.645C108.41 208.108 132.21 207.43 148.463 191.175L299.581 40.0566C296.788 36.811 293.864 33.6865 290.816 30.6831L140.872 180.625C127.355 194.141 110.247 203.399 91.7373 207.171C92.4443 207.168 93.1537 207.176 93.8632 207.203C94.0115 207.213 94.182 207.22 94.3798 207.23Z" fill="#FC7ACD"/>
<path d="M309.166 52.4083C306.091 48.0083 302.801 43.769 299.296 39.72L148.153 190.863C132.184 206.832 109.069 207.699 98.954 207.205C96.3857 206.851 94.7295 206.814 93.8916 206.762C80.0117 206.229 65.9589 211.259 55.3617 221.856C35.1835 242.034 35.1835 274.753 55.3617 294.933C75.5425 315.112 108.258 315.112 128.439 294.933C140.327 283.043 145.209 266.803 143.09 251.339C142.596 241.223 143.463 218.109 159.43 202.142L309.166 52.4083Z" fill="#F948B4"/>
<path d="M119.723 277.497L85.1459 225.762C71.9483 222.18 74.22 212.307 75.1593 209.511C67.9265 211.983 61.1312 216.087 55.3617 221.856C35.1835 242.035 35.1835 274.753 55.3617 294.934C75.5425 315.112 108.261 315.112 128.439 294.934C130.456 292.917 132.263 290.773 133.877 288.534C118.826 289.896 119.723 277.497 119.723 277.497Z" fill="#F6159C"/>
<path d="M336.601 129.405C336.295 125.302 335.83 121.243 335.209 117.236L283.771 168.677C274.17 178.275 260.273 178.797 254.192 178.5C252.647 178.29 251.651 178.265 251.147 178.236C242.804 177.914 234.353 180.937 227.982 187.31C215.85 199.442 215.85 219.111 227.982 231.244C240.115 243.376 259.786 243.376 271.918 231.244C279.065 224.097 282.001 214.333 280.726 205.036C280.429 198.953 280.951 185.056 290.552 175.457L336.601 129.405Z" fill="#FACE7A"/>
<path d="M274.61 228.164C265.242 228.161 266.678 220.543 266.678 220.543L245.889 189.438C239.333 184.972 243.8 179.012 243.963 178.799C238.107 179.944 232.518 182.774 227.982 187.308C215.85 199.44 215.85 219.111 227.982 231.244C240.115 243.376 259.786 243.376 271.918 231.244C272.897 230.265 273.79 229.234 274.61 228.164Z" fill="#FBB362"/>
<path d="M236.211 57.2848C235.05 57.2848 233.885 56.8423 232.998 55.9549C231.223 54.1801 231.225 51.3027 233 49.5279L233.722 48.8061C235.497 47.0313 238.374 47.0313 240.149 48.8061C241.924 50.5809 241.921 53.4583 240.147 55.2331L239.425 55.9549C238.537 56.8423 237.373 57.2848 236.211 57.2848Z" fill="#F9ECC6"/>
<path d="M209.205 85.6881C208.041 85.6881 206.879 85.2432 205.992 84.3583C204.217 82.5834 204.217 79.7061 205.992 77.9313L222.044 61.8786C223.819 60.1038 226.697 60.1038 228.469 61.8786C230.244 63.6535 230.244 66.5283 228.469 68.3031L212.416 84.3583C211.529 85.2432 210.367 85.6881 209.205 85.6881Z" fill="#FBB362"/>
<path d="M94.8228 111.831C85.0191 102.03 69.1272 102.03 59.3235 111.831C49.5224 121.635 49.5224 137.527 59.3235 147.331C69.1272 157.132 85.0191 157.132 94.8228 147.331C104.624 137.527 104.624 121.635 94.8228 111.831Z" fill="#9D4AD3"/>
<path d="M74.8441 136.959C66.1553 128.272 65.1739 114.803 71.8877 105.026C67.2825 105.995 62.8998 108.26 59.3254 111.831C49.5217 121.635 49.5217 137.53 59.3254 147.331C69.1265 157.134 85.021 157.134 94.8246 147.331C95.937 146.216 96.9183 145.019 97.781 143.766C89.7597 145.452 81.0709 143.188 74.8441 136.959Z" fill="#8634C6"/>
<path d="M115.773 234.851C102.682 221.76 81.4582 221.76 68.3669 234.851C55.2781 247.94 55.2781 269.164 68.3669 282.255C81.4582 295.346 102.682 295.346 115.773 282.255C128.862 269.164 128.862 247.94 115.773 234.851Z" fill="#F6159C"/>
<path d="M89.0933 268.405C77.4901 256.804 76.18 238.816 85.1432 225.762C78.998 227.055 73.142 230.078 68.3688 234.851C55.2775 247.943 55.2775 269.166 68.3688 282.258C81.46 295.347 102.684 295.347 115.775 282.258C117.263 280.767 118.573 279.17 119.723 277.497C109.01 279.749 97.4113 276.726 89.0933 268.405Z" fill="#C6237C"/>
<path d="M264.3 194.905C256.432 187.034 243.67 187.034 235.799 194.905C227.928 202.775 227.928 215.536 235.799 223.406C243.67 231.277 256.432 231.277 264.3 223.406C272.171 215.536 272.171 202.775 264.3 194.905Z" fill="#FBB362"/>
<path d="M248.261 215.077C241.286 208.101 240.499 197.287 245.888 189.438C242.193 190.215 238.673 192.034 235.803 194.904C227.932 202.774 227.932 215.535 235.803 223.405C243.673 231.276 256.433 231.276 264.304 223.405C265.199 222.51 265.985 221.549 266.677 220.543C260.238 221.897 253.262 220.078 248.261 215.077Z" fill="#FD7E31"/>
</g>
</g>
<defs>
<clipPath id="clip0_416_1516">
<rect y="0.0668945" width="275" height="330" rx="25" fill="white"/>
</clipPath>
<clipPath id="clip1_416_1516">
<rect width="324" height="324" fill="white" transform="translate(20 -13.9331)"/>
</clipPath>
</defs>
</svg>
