<svg width="275" height="331" viewBox="0 0 275 331" fill="none" xmlns="http://www.w3.org/2000/svg">
<g clip-path="url(#clip0_416_1498)">
<rect y="0.0668945" width="275" height="330" rx="25" fill="#1D319B"/>
<g clip-path="url(#clip1_416_1498)">
<path d="M360.72 225.84C362.166 217.076 362.933 208.078 362.933 198.902C362.933 108.274 289.463 34.8033 198.834 34.8033C155.497 34.8033 116.091 51.6109 86.7593 79.0514C49.7422 122.026 38.4833 145.824 34.8531 192.973C34.7824 194.944 34.7354 196.916 34.7354 198.902C34.7354 275.227 86.843 339.375 157.425 357.726L360.72 225.84Z" fill="#162680"/>
<path d="M150.192 210.394L186.523 195.154L185.754 193.979C184.38 191.876 183.912 189.367 184.432 186.912C185.165 183.464 187.737 180.746 191.148 179.819L193.312 179.231L191.593 177.792C177.729 166.188 167.878 150.712 163.109 133.033L162.889 132.228L162.057 132.17C160.469 132.063 158.656 130.993 158.185 128.847C156.78 122.453 156.068 115.865 156.068 109.264C156.068 101.412 157.068 93.6204 159.04 86.1062C159.59 84.0079 161.429 83.0137 163.009 82.9587L163.839 82.9299L164.085 82.1372C166.442 74.5916 169.715 67.5666 173.734 61.1565H152.769C142.207 61.1565 133.567 69.7984 133.567 80.358V222.908C142.264 215.784 149.056 211.161 150.192 210.394Z" fill="#F948B4"/>
<path d="M170.741 152.223C172.384 163.866 163.342 174.083 151.775 174.083C143.277 174.083 136.074 168.547 133.567 160.886V222.904C142.264 215.783 149.056 211.159 150.192 210.393L186.523 195.152C186.256 194.561 183.435 191.602 184.432 186.911C185.882 180.077 192.674 179.561 193.312 179.229C193.312 179.229 180.026 169.447 170.741 152.223Z" fill="#F6159C"/>
<path d="M29.2021 189.477C41.0359 205.479 62.048 208.174 74.8525 208.174C80.9304 208.174 85.1584 207.567 85.6791 207.488C85.9904 207.441 86.2939 207.378 86.5896 207.3C79.6169 234.594 87.3117 264.959 87.3117 264.959C102.926 235.679 142.614 209.354 142.614 209.354H144.176C174.884 255.635 156.018 299.312 156.018 299.312C155.371 301.405 155.01 303.734 154.859 306.235C126.463 330.429 104.308 347.296 85.5064 351.823C54.089 359.392 23.3152 336.739 20.9265 304.511C17.0412 252.102 26.4601 202.47 29.2021 189.477Z" fill="#B9E9FD"/>
<path d="M237.823 20.068C285.347 20.068 323.873 60.0017 323.873 109.263C323.873 138.618 310.189 164.657 289.078 180.912C272.961 184.332 255.732 186.187 237.823 186.187C219.914 186.187 202.685 184.332 186.568 180.912C165.457 164.659 151.773 138.618 151.773 109.263C151.773 60.0017 190.299 20.068 237.823 20.068Z" fill="#E0F9FE"/>
<path d="M151.773 109.263C151.773 138.618 165.454 164.657 186.568 180.912C194.791 182.657 203.308 183.992 212.052 184.884C212.279 184.643 212.504 184.418 212.724 184.214C213.799 183.212 214.181 181.639 213.676 180.258C212.876 178.071 213.543 176.373 214.375 175.245C215.189 174.136 215.346 172.694 214.757 171.449C212.894 167.508 214.393 164.895 215.898 163.427C216.999 162.357 217.337 160.727 216.701 159.33C191.139 103.159 210.649 73.5152 216.533 66.3935C217.376 65.3731 217.59 63.9812 217.104 62.7515C214.984 57.4036 218.616 54.4314 221.015 53.1232C222.138 52.5084 222.862 51.3677 222.92 50.0882C223.859 29.3143 237.823 20.068 237.823 20.068C190.299 20.068 151.773 60.0017 151.773 109.263Z" fill="#B9E9FD"/>
<path d="M332.766 209.355L297.406 194.523C295.933 196.43 293.806 197.846 291.266 198.385C274.047 202.04 256.068 203.889 237.824 203.889C219.58 203.889 201.597 202.04 184.382 198.385C181.804 197.838 179.656 196.388 178.181 194.442H178.173L142.614 209.355C173.322 255.639 154.455 299.316 154.455 299.316C149.895 314.047 159.508 340.433 156.695 357.531C170.143 361.094 184.266 363.002 198.834 363.002C247.967 363.002 292.05 341.401 322.126 307.186C322.011 304.324 321.655 301.669 320.925 299.314C320.925 299.314 302.058 255.636 332.766 209.355Z" fill="#E0F9FE"/>
<path d="M217.929 243.79C217.929 243.264 217.808 242.743 217.586 242.267C209.326 224.502 211.898 210.033 213.143 205.253C213.368 204.392 213.256 203.498 212.866 202.715C203.201 201.8 193.68 200.358 184.382 198.385C181.804 197.838 179.656 196.389 178.178 194.442L178.17 194.44L142.614 209.356C173.322 255.639 154.455 299.314 154.455 299.314C149.895 314.047 159.508 340.433 156.695 357.531C170.143 361.095 184.266 363.002 198.834 363.002C205.294 363.002 211.665 362.62 217.931 361.893V243.79H217.929Z" fill="#B9E9FD"/>
<path d="M94.5755 284.029C98.4556 284.531 101.726 281.158 101.114 277.299L97.8172 256.593C97.5503 254.921 96.598 253.532 95.2976 252.658C92.2705 256.653 89.5442 260.777 87.3125 264.96C87.3125 264.96 87.2889 264.869 87.2471 264.699L89.5469 279.141C89.9655 281.765 92.0664 283.704 94.5755 284.029Z" fill="#83D3FC"/>
<path d="M172.681 76.5344C174.183 73.0651 176.957 70.3153 180.418 68.79C189.369 64.8445 209.625 57.5867 237.492 57.5867C265.361 57.5867 285.617 64.8471 294.568 68.79C298.029 70.3153 300.8 73.0651 302.304 76.5344C306.43 86.0528 313.016 107.606 303.5 133.953C290.586 169.709 237.492 170.593 237.492 170.593C237.492 170.593 184.4 169.709 171.486 133.953C161.97 107.606 168.555 86.0554 172.681 76.5344Z" fill="#1D319B"/>
<path d="M180.418 68.789C176.957 70.3143 174.183 73.0641 172.681 76.5334C168.555 86.0544 161.97 107.605 171.486 133.952C178.623 153.711 198.026 162.819 213.963 167.015C214.209 165.435 215.054 164.25 215.899 163.426C217 162.356 217.338 160.726 216.702 159.326C191.137 103.158 210.65 73.5141 216.532 66.3898C217.374 65.372 217.591 63.9801 217.105 62.7504C216.542 61.3323 216.393 60.0843 216.511 58.988C199.442 61.2957 186.933 65.9188 180.418 68.789Z" fill="#162680"/>
<path d="M237.394 176.448C235.063 176.408 180.101 175.048 165.977 135.944C155.923 108.1 162.495 85.3115 167.307 74.205C169.392 69.3935 173.209 65.5657 178.055 63.4308C213.41 47.8503 261.527 47.8293 296.927 63.4308C301.772 65.5657 305.59 69.3909 307.675 74.205C312.489 85.3115 319.061 108.1 309.004 135.941C294.881 175.045 239.921 176.406 237.588 176.445C237.501 176.448 237.48 176.448 237.394 176.448ZM182.777 74.1474C180.64 75.0893 178.962 76.7638 178.052 78.8621C173.931 88.3753 168.311 107.925 176.992 131.964C188.154 162.863 234.984 164.663 237.488 164.734C239.913 164.661 286.856 162.79 297.992 131.964C306.673 107.925 301.053 88.3753 296.932 78.8621C296.022 76.7638 294.344 75.0893 292.207 74.1474C259.84 59.8856 215.168 59.8751 182.777 74.1474Z" fill="#83D3FC"/>
<path d="M216.889 161.723C202.01 158.05 183.478 149.921 176.992 131.964C168.311 107.925 173.931 88.3757 178.052 78.8625C178.962 76.7642 180.64 75.0897 182.777 74.1478C193.269 69.5247 205.053 66.4086 217.287 64.7838C217.418 64.114 217.366 63.4102 217.104 62.7509C214.985 57.4004 218.616 54.4309 221.015 53.1201C221.335 52.9474 221.62 52.725 221.868 52.4712C206.364 53.9364 191.312 57.5888 178.055 63.4312C173.209 65.5687 169.392 69.3939 167.307 74.208C162.495 85.3145 155.923 108.1 165.977 135.944C174.418 159.308 197.434 169.198 215.092 173.382C215.157 172.733 215.05 172.066 214.757 171.448C212.894 167.508 214.393 164.894 215.898 163.426C216.39 162.947 216.719 162.354 216.889 161.723Z" fill="#61B6FF"/>
<path d="M237.824 204.67C256.068 204.67 274.047 202.818 291.266 199.166C296.959 197.957 300.596 192.36 299.389 186.667C298.181 180.971 292.582 177.337 286.891 178.543C271.109 181.892 254.6 183.59 237.824 183.59C221.047 183.59 204.538 181.892 188.756 178.543C183.058 177.335 177.467 180.971 176.258 186.667C175.049 192.36 178.686 197.957 184.382 199.166C201.6 202.818 219.58 204.67 237.824 204.67Z" fill="#83D3FC"/>
<path d="M212.725 184.21C213.256 183.718 213.614 183.085 213.784 182.405C205.292 181.563 196.924 180.275 188.756 178.543C183.058 177.335 177.467 180.971 176.258 186.667C175.049 192.36 178.686 197.957 184.382 199.166C193.774 201.157 203.395 202.609 213.159 203.522C213.044 203.033 212.832 202.564 212.526 202.148C205.742 192.973 209.789 186.944 212.725 184.21Z" fill="#61B6FF"/>
<path d="M148.67 319.037C147.838 319.037 146.991 318.903 146.159 318.621C142.077 317.234 139.89 312.802 141.276 308.718C149.037 285.861 149.842 263.567 143.67 242.458C139.034 226.608 131.975 217.367 131.905 217.276C129.273 213.874 129.88 208.974 133.27 206.331C136.664 203.686 141.546 204.272 144.202 207.653C145.567 209.39 177.388 250.927 156.062 313.739C154.957 316.991 151.922 319.037 148.67 319.037Z" fill="#83D3FC"/>
<path d="M133.567 33.7043C129.752 33.7043 126.746 30.5934 126.746 26.8834C126.746 23.7569 128.902 20.8946 132.238 20.2012C136.369 19.3692 140.385 22.535 140.385 26.8834C140.385 30.7007 137.279 33.7043 133.567 33.7043Z" fill="#FACE7A"/>
<path d="M107.22 64.1957C101.556 64.1957 97.1631 59.0074 98.3012 53.3194C99.4864 47.5608 105.528 44.5493 110.692 46.7026C113.589 47.9061 115.527 50.3943 116.132 53.3194C117.259 58.9786 112.903 64.1957 107.22 64.1957Z" fill="#B9E9FD"/>
<path d="M52.5872 205.895C52.4459 205.586 52.3256 205.288 52.2026 204.992C43.6863 202.347 35.2485 197.65 29.2021 189.477C26.4601 202.47 17.0412 252.102 20.9265 304.511C23.3178 336.739 54.089 359.392 85.5064 351.825C27.0017 350.038 52.5872 205.895 52.5872 205.895Z" fill="#83D3FC"/>
<path d="M147.642 266.14C148.312 280.004 146.19 294.247 141.276 308.719C139.89 312.803 142.077 317.235 146.158 318.622C150.243 320.008 154.677 317.821 156.061 313.739C162.453 294.917 164.068 278.01 163.162 263.508C161.273 270.682 151.799 272.288 147.642 266.14Z" fill="#61B6FF"/>
<path d="M52.5875 205.894C46.405 192.498 60.2482 189.478 60.2587 189.478C53.5634 187.864 46.9753 184.704 43.0063 178.728C40.2643 174.604 34.7019 173.485 30.5785 176.224C26.4551 178.963 25.3327 184.526 28.0747 188.649C34.2545 197.953 43.3961 203.107 52.5875 205.894Z" fill="#61B6FF"/>
<path d="M280.148 330.721H192.4C187.11 330.721 182.782 326.394 182.782 321.103V258.195C182.782 252.905 187.11 248.578 192.4 248.578H280.148C285.436 248.578 289.763 252.905 289.763 258.195V321.103C289.763 326.394 285.436 330.721 280.148 330.721Z" fill="#1D319B"/>
<path d="M216.928 321.103V258.195C216.928 252.905 221.256 248.578 226.544 248.578H192.4C187.11 248.578 182.782 252.905 182.782 258.195V321.103C182.782 326.394 187.11 330.721 192.4 330.721H226.544C221.256 330.721 216.928 326.394 216.928 321.103Z" fill="#162680"/>
<path d="M280.148 336.312H192.4C184.015 336.312 177.194 329.491 177.194 321.106V258.198C177.194 249.812 184.015 242.991 192.4 242.991H280.148C288.531 242.991 295.354 249.812 295.354 258.198V321.106C295.354 329.491 288.531 336.312 280.148 336.312ZM192.4 254.171C190.179 254.171 188.374 255.976 188.374 258.198V321.106C188.374 323.327 190.179 325.132 192.4 325.132H280.148C282.367 325.132 284.175 323.327 284.175 321.106V258.198C284.175 255.976 282.367 254.171 280.148 254.171H192.4Z" fill="#83D3FC"/>
<path d="M271.117 289.651C271.117 299.703 262.97 307.85 252.918 307.85C242.866 307.85 234.718 299.703 234.718 289.651C234.718 279.598 242.866 271.451 252.918 271.451C262.97 271.451 271.117 279.598 271.117 289.651Z" fill="#4374D3"/>
<path d="M259.111 295.465C252.478 295.465 247.104 290.091 247.104 283.459C247.104 277.776 251.055 273.027 256.358 271.782C245.063 269.618 234.718 278.284 234.718 289.652C234.718 299.704 242.866 307.851 252.918 307.851C264.281 307.851 272.951 297.509 270.788 286.211C269.542 291.512 264.793 295.465 259.111 295.465Z" fill="#3957C9"/>
<path d="M209.476 284.863C205.441 284.863 202.024 281.576 202.024 277.401C202.024 272.615 206.43 269.191 210.93 270.096C214.465 270.815 216.93 273.877 216.93 277.401C216.93 281.566 213.528 284.863 209.476 284.863Z" fill="#FACE7A"/>
<path d="M209.476 309.354C205.459 309.354 202.024 306.092 202.024 301.892C202.024 297.139 206.409 293.677 210.93 294.588C214.455 295.304 216.93 298.36 216.93 301.892C216.93 306.021 213.56 309.354 209.476 309.354Z" fill="#F948B4"/>
<path d="M213.917 330.723C213.917 328.131 215.6 325.925 217.928 325.132H192.4C190.179 325.132 188.374 323.327 188.374 321.106V258.198C188.374 255.976 190.179 254.171 192.4 254.171H217.931C215.6 253.378 213.917 251.173 213.917 248.58C213.917 245.987 215.6 243.784 217.928 242.991H192.4C184.015 242.991 177.194 249.812 177.194 258.198V321.106C177.194 329.491 184.015 336.312 192.4 336.312H217.928C215.6 335.519 213.917 333.316 213.917 330.723Z" fill="#61B6FF"/>
<path d="M150.878 85.8084C148.919 93.2834 147.869 101.146 147.869 109.264C147.869 116.082 148.612 122.72 150.012 129.099C150.902 133.149 155.849 134.748 158.905 131.946C164.967 126.386 170.247 117.33 170.247 107.098C170.247 97.5167 165.42 88.9664 159.873 83.3517C156.967 80.4108 151.93 81.808 150.878 85.8084Z" fill="#61B6FF"/>
<path d="M158.413 107.566C154.243 107.566 150.528 105.625 148.113 102.603C147.956 104.801 147.869 107.019 147.869 109.262C147.869 116.08 148.612 122.718 150.012 129.096C150.902 133.146 155.849 134.745 158.905 131.943C164.967 126.386 170.247 117.328 170.247 107.095C170.247 105.104 170.035 103.155 169.656 101.269C167.338 105.044 163.17 107.566 158.413 107.566Z" fill="#5294E5"/>
<path d="M284.623 93.4839C284.623 99.9464 279.383 105.187 272.92 105.187C266.455 105.187 261.217 99.9464 261.217 93.4839C261.217 87.0189 266.455 81.7809 272.92 81.7809C279.383 81.7809 284.623 87.0189 284.623 93.4839Z" fill="#3957C9"/>
<path d="M258.844 110.557C258.844 113.833 256.188 116.489 252.915 116.489C249.64 116.489 246.984 113.833 246.984 110.557C246.984 107.282 249.64 104.626 252.915 104.626C256.188 104.626 258.844 107.282 258.844 110.557Z" fill="#3957C9"/>
<path d="M98.4049 111.201L96.139 113.634C98.0458 112.81 100.178 112.666 102.178 113.227C104.178 113.788 105.925 115.02 107.124 116.717C108.324 118.413 108.903 120.47 108.766 122.543C108.629 124.615 107.783 126.578 106.37 128.101L101.838 132.967C103.397 131.247 105.562 130.197 107.878 130.038C110.194 129.88 112.482 130.624 114.262 132.115C116.041 133.606 117.174 135.728 117.423 138.037C117.671 140.345 117.017 142.66 115.596 144.496C117.492 143.817 119.562 143.797 121.471 144.439C123.379 145.082 125.016 146.348 126.117 148.035C127.217 149.722 127.717 151.731 127.535 153.737C127.353 155.743 126.501 157.629 125.115 159.09L104.032 181.728C103.195 182.663 102.304 183.548 101.365 184.38C96.4572 189.216 90.9735 193.43 85.0373 196.927L69.4524 205.92L39.0096 182.506L41.2848 178.897L33.4268 181.729C40.5372 171.063 44.2712 145.424 45.8815 132.707C46.9832 122.678 44.1302 112.616 37.929 104.658C36.4626 102.971 35.666 100.805 35.6903 98.5704C35.7145 96.3356 36.5578 94.1874 38.0604 92.5329L38.7007 91.8453C40.2393 90.1762 42.3554 89.155 44.6195 88.989C46.8835 88.823 49.1259 89.5247 50.8915 90.9516C58.8378 96.6522 64.8783 104.619 68.2226 113.809L68.4793 116.715L85.129 98.8371C86.7686 97.0766 89.0404 96.0395 91.4446 95.9541C93.8488 95.8686 96.1885 96.7416 97.949 98.3812C99.7095 100.021 100.747 102.293 100.832 104.697C100.918 107.101 100.044 109.441 98.4049 111.201Z" fill="#F948B4"/>
<path d="M98.408 111.194L96.142 113.628C98.0488 112.803 100.181 112.659 102.181 113.221C104.181 113.782 105.928 115.014 107.127 116.71C108.327 118.406 108.907 120.463 108.769 122.536C108.632 124.609 107.786 126.571 106.373 128.094L101.841 132.96C103.4 131.24 105.565 130.191 107.881 130.032C110.198 129.873 112.485 130.617 114.265 132.108C116.044 133.599 117.177 135.722 117.426 138.03C117.675 140.338 117.02 142.653 115.599 144.489C117.495 143.81 119.565 143.791 121.474 144.433C123.383 145.075 125.019 146.342 126.12 148.029C127.22 149.716 127.72 151.724 127.538 153.73C127.356 155.736 126.504 157.622 125.119 159.084L104.035 181.721C103.198 182.656 102.307 183.541 101.368 184.373L45.8845 132.7C46.9863 122.672 44.1333 112.609 37.932 104.651C36.4657 102.965 35.6691 100.799 35.6933 98.5637C35.7175 96.3289 36.5609 94.1807 38.0634 92.5262L38.7038 91.8386C40.2424 90.1695 42.3585 89.1483 44.6225 88.9823C46.8865 88.8163 49.1289 89.518 50.8945 90.9449C58.8409 96.6454 64.8814 104.612 68.2256 113.802L68.4824 116.708L85.1321 98.8304C86.7717 97.0699 89.0435 96.0328 91.4477 95.9473C93.8519 95.8618 96.1916 96.7349 97.9521 98.3745C99.7126 100.014 100.75 102.286 100.835 104.69C100.921 107.094 100.048 109.434 98.408 111.194Z" fill="#FC7ACD"/>
<path d="M74.8512 208.954C80.9291 208.954 85.1571 208.347 85.6778 208.269C90.573 207.531 93.9403 202.963 93.2025 198.068C92.462 193.172 87.8939 189.803 82.9986 190.543C82.7265 190.582 53.5801 194.646 43.0021 178.728C40.2628 174.604 34.7004 173.482 30.577 176.221C26.4536 178.96 25.3312 184.525 28.0705 188.649C39.6558 206.082 61.6281 208.954 74.8512 208.954Z" fill="#83D3FC"/>
</g>
</g>
<defs>
<clipPath id="clip0_416_1498">
<rect y="0.0668945" width="275" height="330" rx="25" fill="white"/>
</clipPath>
<clipPath id="clip1_416_1498">
<rect width="342.933" height="342.933" fill="white" transform="translate(20 20.0669)"/>
</clipPath>
</defs>
</svg>
