<svg width="275" height="331" viewBox="0 0 275 331" fill="none" xmlns="http://www.w3.org/2000/svg">
<g clip-path="url(#clip0_431_3790)">
<rect y="0.515137" width="275" height="330" rx="25" fill="#E8FABF"/>
<g clip-path="url(#clip1_431_3790)">
<path d="M358.607 336.403C383.39 304.935 398.181 265.225 398.181 222.063C398.181 119.925 315.38 37.1239 213.242 37.1239C111.104 37.1239 28.3027 119.922 28.3027 222.063C28.3027 265.228 43.0931 304.935 67.8765 336.403H358.607Z" fill="#E8FABF"/>
<path d="M356.323 332.636C335.848 315.136 311.002 319.683 276.727 309.433C267.69 306.732 261.38 303.111 256.98 299.523L255.394 302.392C236.387 336.714 187.041 336.714 168.034 302.392L167.353 301.159C163.116 304.191 157.413 307.142 149.753 309.433C115.478 319.683 90.6325 315.136 70.1571 332.636C69.1428 333.506 68.1904 334.517 67.291 335.644C101.133 379.066 153.922 406.998 213.24 406.998C272.558 406.998 325.348 379.066 359.189 335.644C358.29 334.517 357.337 333.506 356.323 332.636Z" fill="#51DA18"/>
<path d="M179.59 365.589C175.724 357.333 186.148 355.451 186.148 355.451C202.643 348.764 208.528 336.639 210.61 328.118C193.894 327.755 177.334 319.183 168.034 302.391L167.353 301.161C163.113 304.192 157.413 307.144 149.753 309.435C115.478 319.684 90.6325 315.135 70.1571 332.638C69.1428 333.505 68.1904 334.516 67.291 335.645C84.0157 357.106 105.376 374.774 129.861 387.164C144.675 369.614 179.59 365.589 179.59 365.589Z" fill="#00C82F"/>
<path d="M322.643 129.066C322.634 129.063 322.625 129.057 322.619 129.054C321.227 128.405 320.337 127.016 320.186 125.489C314.307 66.4717 268.087 20.5171 211.927 20.5171C155.838 20.5171 109.659 66.3626 103.691 125.277C103.535 126.816 102.615 128.175 101.223 128.856C101.102 128.915 100.981 128.974 100.857 129.03C91.6663 133.27 85.2441 142.579 85.2441 153.321V176.043C85.2441 186.644 91.4982 195.852 100.495 200.169C104.401 202.042 107.536 205.226 109.252 209.201C112.578 216.915 116.747 224.177 121.648 230.873C136.666 251.396 150.669 272.641 162.988 294.889L168.03 304C187.037 338.322 236.383 338.322 255.39 304L261.039 293.792C273.155 271.916 286.985 251.072 301.757 230.897C306.664 224.192 310.842 216.92 314.171 209.195C315.884 205.22 319.025 202.042 322.926 200.169C331.925 195.852 338.176 186.644 338.176 176.043V153.321C338.176 142.612 331.792 133.32 322.643 129.066Z" fill="#A2EC00"/>
<path d="M221.781 20.9977C218.535 20.6822 215.25 20.5171 211.927 20.5171C155.838 20.5171 109.659 66.3626 103.691 125.277C103.535 126.816 102.615 128.175 101.223 128.856C101.102 128.915 100.981 128.974 100.857 129.03C91.6663 133.27 85.2441 142.579 85.2441 153.321V176.046C85.2441 186.644 91.4982 195.855 100.495 200.169C104.401 202.045 107.536 205.226 109.252 209.204C112.575 216.915 116.747 224.18 121.648 230.873C136.666 251.396 150.669 272.641 162.988 294.889L168.03 304C178.522 322.942 198.251 331.425 217.022 329.458C188.762 322.57 198.823 300.506 182.349 269.589C169.239 244.995 175.369 226.863 178.616 220.196C179.318 218.76 178.967 217.086 177.873 215.921C176.673 214.641 176.578 213.081 176.761 211.875C176.95 210.658 176.537 209.407 175.626 208.582C170.377 203.814 170.932 197.869 171.834 194.531C172.25 192.989 171.639 191.365 170.321 190.462C157.793 181.879 160.85 167.613 162.307 162.884C162.62 161.863 162.449 160.764 161.9 159.846C154.876 148.149 166.034 142.547 166.034 142.547C175.284 136.378 167.853 126.067 167.853 126.067C142.498 39.7423 221.781 20.9977 221.781 20.9977Z" fill="#00C82F"/>
<path d="M229.611 264.977C229.573 264.977 225.763 264.894 222.508 263.063C220.904 262.161 218.969 262.051 217.274 262.765L213.237 264.469L209.201 262.765C207.505 262.048 205.571 262.158 203.967 263.063C200.744 264.876 196.978 264.974 196.828 264.977C193.558 264.994 190.91 267.654 190.91 270.93C190.91 274.218 193.576 276.883 196.863 276.883C197.453 276.883 202.035 276.815 207.033 274.775L210.923 276.414C212.415 277.045 214.063 277.045 215.549 276.414L219.438 274.775C224.436 276.815 229.018 276.883 229.608 276.883C232.896 276.883 235.561 274.218 235.561 270.93C235.564 267.642 232.899 264.977 229.611 264.977Z" fill="#00C82F"/>
<path d="M293.318 142.698C280.925 132.021 257.439 138.968 240.856 158.217C224.276 177.463 220.879 201.719 233.269 212.396C245.662 223.07 269.148 216.123 285.732 196.877C302.312 177.631 305.709 153.373 293.318 142.698Z" fill="#D7F9B7"/>
<path d="M283.023 190.112C283.023 172.948 269.111 159.036 251.947 159.036C246.648 159.036 241.659 160.363 237.295 162.704C223.855 181.086 221.82 202.532 233.267 212.392C244.416 221.996 264.546 217.328 280.549 202.275C282.141 198.539 283.023 194.429 283.023 190.112Z" fill="#4374D3"/>
<path d="M185.625 158.203C169.042 138.957 145.556 132.007 133.163 142.684C120.773 153.361 124.169 177.617 140.75 196.862C157.333 216.111 180.819 223.058 193.212 212.381C205.602 201.707 202.205 177.449 185.625 158.203Z" fill="#D7F9B7"/>
<path d="M178.782 217.395C178.596 216.862 178.292 216.354 177.885 215.921C176.685 214.644 176.591 213.081 176.776 211.875C176.962 210.658 176.549 209.41 175.638 208.582C170.39 203.814 170.944 197.869 171.846 194.534C172.262 192.989 171.652 191.368 170.334 190.462C157.805 181.879 160.866 167.613 162.319 162.887C162.632 161.863 162.464 160.764 161.912 159.847C154.889 148.149 166.046 142.547 166.046 142.547C153.692 136.26 141.142 135.83 133.178 142.691C120.785 153.368 124.182 177.624 140.762 196.873C152.123 210.059 166.728 217.469 178.782 217.395Z" fill="#8FE98A"/>
<path d="M143.469 190.112C143.469 172.948 157.38 159.036 174.545 159.036C179.843 159.036 184.832 160.363 189.196 162.704C202.636 181.086 204.671 202.532 193.224 212.392C182.072 221.996 161.942 217.328 145.943 202.275C144.35 198.539 143.469 194.429 143.469 190.112Z" fill="#4374D3"/>
<path d="M178.779 217.394C178.596 216.86 178.292 216.356 177.885 215.922C176.685 214.646 176.591 213.083 176.777 211.877C176.962 210.659 176.55 209.412 175.638 208.583C170.39 203.815 170.944 197.871 171.847 194.536C172.262 192.991 171.652 191.369 170.334 190.464C157.805 181.88 160.866 167.615 162.319 162.888C162.461 162.425 162.499 161.947 162.452 161.476C151.297 166.193 143.469 177.239 143.469 190.113C143.469 194.43 144.35 198.543 145.943 202.279C156.345 212.063 168.488 217.453 178.779 217.394Z" fill="#3957C9"/>
<path d="M182.355 201.533C182.355 206.823 178.064 211.11 172.774 211.11C167.485 211.11 163.194 206.823 163.194 201.533C163.194 196.24 167.485 191.953 172.774 191.953C178.064 191.953 182.355 196.24 182.355 201.533Z" fill="#61B6FF"/>
<path d="M175.55 83.395C175.55 88.6848 171.26 92.9722 165.97 92.9722C160.68 92.9722 156.39 88.6848 156.39 83.395C156.39 78.1021 160.68 73.8148 165.97 73.8148C171.26 73.8148 175.55 78.1021 175.55 83.395Z" fill="#00C82F"/>
<path d="M208.787 75.469C208.787 80.7589 204.5 85.0462 199.207 85.0462C193.917 85.0462 189.627 80.7589 189.627 75.469C189.627 70.1762 193.917 65.8889 199.207 65.8889C204.5 65.8889 208.787 70.1762 208.787 75.469Z" fill="#00C82F"/>
<path d="M172.769 113.967C172.769 119.256 168.478 123.544 163.189 123.544C157.899 123.544 153.608 119.256 153.608 113.967C153.608 108.674 157.899 104.386 163.189 104.386C168.478 104.386 172.769 108.674 172.769 113.967Z" fill="#00C82F"/>
<path d="M185.804 58.6824C185.804 67.9529 178.291 75.4661 169.02 75.4661C159.749 75.4661 152.236 67.9529 152.236 58.6824C152.236 49.4118 159.749 41.8987 169.02 41.8987C178.291 41.8987 185.804 49.4118 185.804 58.6824Z" fill="#00C82F"/>
<path d="M233.267 212.39C240.993 219.045 253.035 218.842 265.024 213.083C259.784 213.08 261.188 207.516 261.188 207.516L253.71 191.953C234.131 185.121 237.295 162.702 237.295 162.702C223.855 181.084 221.82 202.53 233.267 212.39Z" fill="#3957C9"/>
<path d="M263.289 201.533C263.289 206.823 258.999 211.11 253.709 211.11C248.419 211.11 244.129 206.823 244.129 201.533C244.129 196.24 248.419 191.953 253.709 191.953C258.999 191.953 263.289 196.24 263.289 201.533Z" fill="#61B6FF"/>
</g>
</g>
<defs>
<clipPath id="clip0_431_3790">
<rect y="0.515137" width="275" height="330" rx="25" fill="white"/>
</clipPath>
<clipPath id="clip1_431_3790">
<rect width="386.485" height="386.485" fill="white" transform="translate(20 20.5151)"/>
</clipPath>
</defs>
</svg>
