<svg width="275" height="331" viewBox="0 0 275 331" fill="none" xmlns="http://www.w3.org/2000/svg">
<g clip-path="url(#clip0_431_3369)">
<rect y="0.0668945" width="275" height="330" rx="25" fill="#FACE7A"/>
<g clip-path="url(#clip1_431_3369)">
<path d="M260.99 -23.3426C242.106 -30.8615 221.511 -35 199.947 -35C108.754 -35 34.8271 38.9273 34.8271 130.12C34.8271 221.314 108.754 295.239 199.947 295.239C291.139 295.239 365.066 221.314 365.066 130.12C365.066 121.671 364.429 113.371 363.205 105.262L260.99 -23.3426Z" fill="#EEC707"/>
<path d="M180.236 223.894C179.649 225.132 179.067 226.359 178.478 227.58C195.795 211.858 230.257 189.788 294.959 176.444C347.388 165.629 355.21 136.954 363.347 106.291C354.744 46.7647 314.393 -2.48421 260.008 -23.7323C232.347 2.41777 197.722 1.25941 183.132 43.6187C169.95 81.8895 137.203 107.484 117.053 120.197C118.253 119.947 119.464 119.7 120.678 119.452C131.164 117.317 142.005 115.108 149.813 109.148C153.686 106.191 158.306 104.262 163.574 103.396C164.509 103.243 165.464 103.122 166.439 103.035C181.671 101.684 196.285 109.064 204.572 122.293C210.501 131.754 216.24 141.972 218.094 152.568C220.229 164.784 216.709 175.156 207.334 184.281C191.915 199.282 185.978 211.795 180.236 223.894Z" fill="#FBB362"/>
<path d="M280.256 144.086C282.62 138.486 280.035 132.078 274.406 129.78C231.662 112.333 228.098 76.7506 228.998 59.9964C229.267 55.0392 226.134 50.5242 221.379 49.0946C190.912 39.9436 209.717 8.31232 209.719 8.30969C198.694 15.9602 189.187 26.0406 183.132 43.6187C169.95 81.8921 137.203 107.484 117.053 120.197C118.253 119.947 119.462 119.7 120.678 119.452C131.164 117.317 142.005 115.111 149.813 109.151C153.686 106.191 158.306 104.264 163.572 103.398C164.509 103.243 165.464 103.122 166.439 103.038C181.671 101.684 196.285 109.064 204.572 122.293C210.501 131.754 216.24 141.972 218.094 152.568C220.229 164.786 216.709 175.159 207.334 184.281C191.915 199.284 185.978 211.795 180.236 223.894C179.649 225.132 179.065 226.361 178.478 227.583C195.795 211.858 230.254 189.791 294.959 176.444C275.364 166.766 276.38 153.263 280.256 144.086Z" fill="#FC9949"/>
<path d="M340.078 42.7605C331.301 28.7127 320.48 16.0733 308.017 5.27686C273.796 25.3771 234.725 31.8113 224.576 61.6708C216.841 84.4221 203.241 98.9675 189.978 108.205C195.659 111.459 200.756 116.201 204.573 122.293C220.213 147.258 218.168 156.175 218.652 157.731C266.122 149.459 309.697 134.205 327.13 75.4342C330.627 63.6479 335.013 52.7777 340.078 42.7605Z" fill="#FD7E31"/>
<path d="M274.406 129.78C231.663 112.333 228.098 76.7506 229.001 59.9964C229.107 58.0298 228.67 56.1343 227.817 54.4731C226.54 56.7162 225.447 59.1066 224.576 61.6708C216.844 84.4221 203.241 98.9675 189.978 108.208C196.004 111.657 200.971 116.546 204.573 122.293C220.177 147.198 218.321 156.641 218.652 157.731C241.04 153.829 262.562 148.374 280.885 137.53C280.167 134.158 277.863 131.191 274.406 129.78Z" fill="#FC5D1F"/>
<path d="M205.463 121.735C197.107 108.4 182.024 100.6 166.347 101.992C160.434 102.516 154.421 104.314 149.177 108.316C130.825 122.327 94.9417 115.15 86.2987 137.325C77.6558 159.497 58.7613 188.622 39.1402 202.138C19.519 215.654 18.2448 238.269 21.2092 245.019C24.1736 251.769 13.8668 271.348 30.3313 286.525C46.7959 301.7 54.5912 326.633 95.6815 294.239C136.769 261.844 139.634 276.342 161.537 254.47C183.443 232.601 179.539 212.787 208.066 185.031C229.583 164.096 216.915 140.016 205.463 121.735Z" fill="#CA6D4E"/>
<path d="M108.402 250.179C110.482 246.609 110.137 242.089 107.484 238.924C88.7366 216.578 107.392 196.523 107.392 196.523C118.917 184.997 110.943 173.232 110.943 173.232C105.13 162.538 110.943 155.63 110.943 155.63C100.27 129.806 117.053 120.197 117.053 120.197L114.868 119.592C102.218 122.335 90.7111 126.007 86.2987 137.325C77.6558 159.5 58.7613 188.625 39.1402 202.141C19.519 215.657 18.2448 238.269 21.2092 245.019C24.1736 251.771 13.8668 271.35 30.3313 286.525C46.7959 301.7 54.5912 326.633 95.6815 294.239C101.473 289.671 106.507 286.038 110.94 283.1C101.028 268.512 104.564 256.758 108.402 250.179Z" fill="#BF5543"/>
<path d="M161.929 35.5628C159.012 30.9083 153.75 28.1888 148.279 28.6732C146.215 28.8548 144.117 29.484 142.287 30.8793C135.882 35.7708 123.358 33.2645 120.341 41.0045C117.324 48.7418 110.732 58.9065 103.885 63.6242C97.037 68.3419 96.5921 76.2345 97.6268 78.5881C98.6614 80.9444 95.0626 87.7787 100.81 93.0756C106.554 98.3698 109.276 107.073 123.616 95.7661C137.956 84.4616 138.954 89.5215 146.599 81.8895C154.244 74.2548 152.883 67.3415 162.837 57.6533C170.348 50.3477 165.925 41.9417 161.929 35.5628Z" fill="#BF5543"/>
<path d="M136.982 87.6866C126.146 76.8532 135.987 67.5652 135.987 67.5652C130.93 59.6041 135.987 53.5885 135.987 53.5885C127.223 41.1967 135.987 33.5883 135.987 33.5883C129.75 35.1653 122.534 35.3785 120.341 41.0045C117.327 48.7418 110.732 58.9065 103.885 63.6242C97.037 68.3419 96.5921 76.2345 97.6268 78.5881C98.6614 80.9443 95.0626 87.7787 100.81 93.0729C106.557 98.3698 109.276 107.071 123.616 95.7661C130.29 90.5061 134.073 88.7896 136.982 87.6866Z" fill="#B33C37"/>
<path d="M119.325 161.735C117.835 157.109 112.875 154.566 108.249 156.056C103.624 157.546 101.081 162.504 102.571 167.129C104.058 171.757 109.018 174.301 113.644 172.811C118.272 171.32 120.815 166.363 119.325 161.735Z" fill="#BF5543"/>
<path d="M128.689 213.485C124.529 200.567 110.684 193.464 97.7632 197.623C84.8448 201.785 77.7419 215.631 81.9041 228.549C86.0637 241.47 99.9088 248.57 112.827 244.411C125.748 240.251 132.848 226.406 128.689 213.485Z" fill="#B33C37"/>
<path d="M97.7587 197.621C84.8403 201.78 77.7375 215.625 81.897 228.544C85.7302 240.443 97.7745 247.399 109.748 245.174C109.745 242.936 108.984 240.714 107.484 238.924C88.7498 216.594 107.365 196.552 107.392 196.523C104.23 196.252 100.965 196.589 97.7587 197.621Z" fill="#A33131"/>
<path d="M172.675 171.994C169.982 163.633 161.023 159.037 152.662 161.73C144.3 164.42 139.704 173.382 142.397 181.743C145.09 190.102 154.049 194.698 162.41 192.005C170.772 189.315 175.366 180.353 172.675 171.994Z" fill="#BF5543"/>
<path d="M119.191 63.3294C118.009 59.6594 115.276 56.9215 111.951 55.6025C109.458 58.8275 106.694 61.6892 103.885 63.6242C99.4749 66.6623 97.7294 71.0062 97.3135 74.3522C100.37 78.6145 105.93 80.6258 111.19 78.9304C117.706 76.8322 121.289 69.8478 119.191 63.3294Z" fill="#A33131"/>
<path d="M21.0371 228.702C24.7202 231.534 29.5195 232.895 34.4662 232.082C43.9464 230.523 50.3674 221.575 48.8063 212.095C48.0007 207.185 45.2074 203.099 41.3875 200.514C40.6398 201.075 39.8895 201.622 39.1392 202.141C28.2821 209.618 23.0485 219.88 21.0371 228.702Z" fill="#B33C37"/>
<path d="M142.98 151.857C139.07 151.857 135.987 148.672 135.987 144.865C135.987 140.411 140.099 137.157 144.349 138.015C147.705 138.705 149.969 141.601 149.969 144.865C149.969 148.685 146.876 151.857 142.98 151.857Z" fill="#E2866D"/>
<path d="M135.987 67.5653C132.078 67.5653 128.995 64.3798 128.995 60.5756C128.995 56.1185 133.11 52.8646 137.356 53.7228C140.713 54.4152 142.977 57.3111 142.977 60.5756C142.98 64.3929 139.884 67.5653 135.987 67.5653Z" fill="#CA6D4E"/>
</g>
</g>
<defs>
<clipPath id="clip0_431_3369">
<rect y="0.0668945" width="275" height="330" rx="25" fill="white"/>
</clipPath>
<clipPath id="clip1_431_3369">
<rect width="345.067" height="345.067" fill="white" transform="translate(20 -35)"/>
</clipPath>
</defs>
</svg>
