<svg width="275" height="331" viewBox="0 0 275 331" fill="none" xmlns="http://www.w3.org/2000/svg">
<g clip-path="url(#clip0_431_3291)">
<rect y="0.0668945" width="275" height="330" rx="25" fill="#FACE7A"/>
<g clip-path="url(#clip1_431_3291)">
<path d="M406.809 337.127C422.824 308.229 431.955 274.988 431.955 239.612C431.955 128.352 341.763 38.1563 230.5 38.1563C119.24 38.1563 29.0449 128.352 29.0449 239.612C29.0449 274.988 38.1734 308.226 54.1883 337.121L406.809 337.127Z" fill="#EEC707"/>
<path d="M104.444 257.589C104.444 257.589 77.1873 278.984 53.7271 336.298C69.6906 365.421 92.6402 390.16 120.321 408.278C122.325 393.404 120.681 386.039 120.681 386.039C120.88 382.721 121.358 379.631 122.216 376.859C122.216 376.859 147.231 318.95 106.516 257.589H104.444Z" fill="#FD7E31"/>
<path d="M120.679 386.039C120.878 382.721 121.357 379.631 122.215 376.859C122.215 376.859 135.721 345.587 126.727 304.654C115.074 314.486 94.7521 336.539 83.4717 377.299C94.4599 389.023 106.823 399.442 120.319 408.279C122.324 393.404 120.679 386.039 120.679 386.039Z" fill="#FC5D1F"/>
<path d="M309.036 227.605C296.953 245.386 263.719 265.529 230.5 265.529C197.305 265.529 168.859 253.05 156.76 235.288L104.446 257.589C145.165 318.95 120.146 376.859 120.146 376.859C117.577 385.162 118.409 396.259 119.922 408.015C151.666 428.903 189.66 441.067 230.5 441.067C271.341 441.067 309.335 428.903 341.079 408.015C342.592 396.259 343.424 385.162 340.854 376.859C340.854 376.859 315.836 318.95 356.554 257.589L309.036 227.605Z" fill="#FC9949"/>
<path d="M221.784 266.335V440.868C224.675 440.99 227.579 441.067 230.498 441.067C234.526 441.067 238.519 440.935 242.489 440.701V266.075C238.576 266.438 234.574 266.637 230.498 266.637C227.553 266.637 224.649 266.528 221.784 266.335Z" fill="#FACE7A"/>
<path d="M302.605 213.231C292.291 207.7 270.643 199.067 235.105 198.373C233.57 198.347 232.038 198.325 230.502 198.325C228.967 198.325 227.432 198.347 225.893 198.373C189.919 199.076 168.065 207.916 157.835 213.434C157.51 213.623 154.462 215.473 152.782 219.196C174.726 234.781 201.537 243.97 230.502 243.97C259.365 243.97 286.086 234.845 307.985 219.36C306.148 215.483 302.961 213.447 302.605 213.231Z" fill="#FC5D1F"/>
<path d="M230.501 246.042C257.684 246.042 285.031 237.816 304.129 222.016C255.863 209.352 205.139 209.352 156.873 222.016C177.118 237.816 203.318 246.042 230.501 246.042Z" fill="#162680"/>
<path d="M285.852 233.971C277.243 229.407 267.881 221.55 267.881 208.924H232.138V245.865C251.275 245.634 269.442 241.41 285.852 233.971Z" fill="#FE9D9A"/>
<path d="M230.499 245.897C231.048 245.897 231.591 245.872 232.137 245.865V208.924H196.394C196.394 222.289 185.904 230.313 176.923 234.739C193.339 241.898 211.445 245.897 230.499 245.897Z" fill="#F98F8F"/>
<path d="M307.979 219.357C286.08 234.845 259.363 243.97 230.497 243.97C201.528 243.97 174.724 234.777 152.78 219.19C151.7 221.583 151.19 224.743 152.333 228.736C160.122 250.95 192.149 267.597 230.497 267.597C269.49 267.597 301.95 250.384 309.033 227.605C309.617 224.271 309.01 221.531 307.979 219.357Z" fill="#FD7E31"/>
<path d="M277.629 235.446C262.963 240.951 247.087 243.97 230.497 243.97C201.528 243.97 174.724 234.781 152.78 219.193C151.7 221.583 151.19 224.747 152.333 228.739C160.122 250.953 192.149 267.601 230.497 267.601C250.906 267.601 269.519 262.876 283.648 255.113C274.693 253.144 271.292 242.12 277.629 235.446Z" fill="#FC5D1F"/>
<path d="M217.193 20.9466C174.746 26.7314 170.712 50.7956 170.693 59.6253C170.69 61.4786 169.665 63.1938 167.998 64.0032C145.919 74.7441 157.822 128.044 157.822 128.044C160.042 128.191 162.361 129.088 164.092 129.926C164.516 127.289 166.742 123.158 167.719 120.646C168.464 118.735 169.395 116.802 170.558 114.977C172.578 111.81 173.497 108.072 173.224 104.336C172.427 93.5373 171.277 73.7933 185.532 67.379C197.606 61.9443 212.423 65.0921 221.869 68.2334C228.004 70.273 234.65 70.273 240.785 68.2334C250.231 65.0921 265.045 61.9443 277.118 67.379C291.335 73.774 290.22 93.4153 289.436 104.243C289.163 108.007 290.06 111.785 292.093 114.977C293.294 116.86 294.248 118.861 295.003 120.833C295.944 123.283 298.147 127.353 298.562 129.926C300.743 128.869 303.861 127.716 306.527 128.095C306.855 116.776 307.899 103.038 307.899 103.038C320.477 41.4359 262.893 14.7218 217.193 20.9466Z" fill="#B33C37"/>
<path d="M228.785 20.0823C224.869 20.1434 220.989 20.4292 217.193 20.9464C174.746 26.7311 170.712 50.7953 170.693 59.625C170.69 61.4751 169.665 63.1935 167.998 64.0029C145.919 74.7438 157.822 128.04 157.822 128.04C160.042 128.188 162.361 129.087 164.092 129.926C164.516 127.288 166.742 123.155 167.719 120.646C168.464 118.735 169.395 116.801 170.558 114.977C172.578 111.81 173.497 108.071 173.224 104.336C172.43 93.537 171.277 73.7898 185.532 67.3787C195.688 62.8081 207.782 64.3081 216.99 66.7684C216.859 66.4601 216.733 66.1485 216.592 65.8434C199.909 29.5159 227.413 20.5063 228.785 20.0823Z" fill="#A33131"/>
<path d="M151.443 128.031C154.831 125.002 161.577 126.537 164.493 128.391C163.854 132.277 163.819 136.25 164.371 140.175L167.814 164.644C167.814 166.619 167.878 168.553 167.994 170.455C159.601 172.925 155.432 165.572 154.729 160.523C154.427 158.349 153.932 156.209 153.248 154.118C151.012 147.312 142.96 135.621 151.443 128.031Z" fill="#FE9D9A"/>
<path d="M165.521 148.34C163.546 150.225 160.876 151.391 157.931 151.391C155.387 151.391 153.055 150.521 151.192 149.075C151.999 150.926 152.76 152.638 153.248 154.118C153.932 156.209 154.427 158.352 154.729 160.523C155.432 165.572 159.601 172.928 167.994 170.454C167.879 168.553 167.814 166.619 167.814 164.647L165.521 148.34Z" fill="#F98F8F"/>
<path d="M296.535 120.833C295.781 118.861 294.827 116.859 293.625 114.977C291.592 111.785 290.696 108.007 290.969 104.243C291.753 93.4152 291.332 72.2387 277.119 65.8436C265.042 60.4122 250.228 63.5567 240.782 66.698C234.647 68.7376 227.998 68.7376 221.863 66.698C212.417 63.5567 197.603 60.4122 185.529 65.8436C171.275 72.2579 170.892 93.5373 171.686 104.336C171.959 108.071 171.04 111.81 169.02 114.977C167.857 116.802 166.926 118.735 166.184 120.646C163.768 126.852 163.062 133.581 163.967 140.169L167.33 164.644C167.33 199.834 186.114 223.751 202.09 236.159C210.432 242.634 220.723 246.154 231.323 246.154C241.922 246.154 252.216 242.634 260.555 236.159C276.534 223.751 295.318 199.834 295.318 164.644L298.678 140.172C299.574 133.648 298.896 126.987 296.535 120.833Z" fill="#FFBAAE"/>
<path d="M228.621 236.159C217.016 223.751 203.369 199.834 203.369 164.644L200.928 140.169C200.272 133.581 200.783 126.852 202.537 120.646C203.076 118.735 203.754 116.801 204.599 114.977C206.067 111.81 206.735 108.071 206.536 104.336C205.958 93.5371 206.237 72.2578 216.589 65.8435C216.869 65.6732 217.145 65.5094 217.428 65.3553C208.167 62.8242 195.85 61.2022 185.529 65.8435C171.275 72.2578 170.892 93.5371 171.686 104.336C171.959 108.071 171.04 111.81 169.02 114.977C167.857 116.801 166.926 118.735 166.181 120.646C163.768 126.852 163.062 133.581 163.967 140.169L167.327 164.644C167.327 199.834 186.111 223.751 202.09 236.159C210.432 242.634 220.723 246.154 231.323 246.154C234.962 246.154 238.559 245.73 242.057 244.924C237.194 243.382 232.601 240.414 228.621 236.159Z" fill="#FE9D9A"/>
<path d="M287.526 404.315H174.179C167.347 404.315 161.758 398.726 161.758 391.895V310.632C161.758 303.8 167.347 298.208 174.179 298.208H287.526C294.358 298.208 299.947 303.8 299.947 310.632V391.895C299.947 398.726 294.358 404.315 287.526 404.315Z" fill="#1D319B"/>
<path d="M205.865 391.895V310.632C205.865 303.8 211.454 298.211 218.285 298.211H174.182C167.347 298.211 161.758 303.8 161.758 310.632V391.895C161.758 398.727 167.347 404.316 174.182 404.316H218.285C211.454 404.316 205.865 398.727 205.865 391.895Z" fill="#162680"/>
<path d="M287.532 411.536H174.187C163.353 411.536 154.543 402.725 154.543 391.895V310.632C154.543 299.801 163.353 290.987 174.187 290.987H287.532C298.366 290.987 307.176 299.801 307.176 310.632V391.895C307.176 402.725 298.362 411.536 287.532 411.536ZM174.187 305.428C171.319 305.428 168.984 307.763 168.984 310.632V391.895C168.984 394.763 171.319 397.095 174.187 397.095H287.532C290.4 397.095 292.735 394.763 292.735 391.895V310.632C292.735 307.763 290.4 305.428 287.532 305.428H174.187Z" fill="#83D3FC"/>
<path d="M275.866 351.263C275.866 364.246 265.34 374.771 252.357 374.771C239.374 374.771 228.849 364.246 228.849 351.263C228.849 338.277 239.374 327.754 252.357 327.754C265.34 327.754 275.866 338.277 275.866 351.263Z" fill="#4374D3"/>
<path d="M260.358 358.773C251.792 358.773 244.847 351.829 244.847 343.262C244.847 335.923 249.955 329.788 256.802 328.179C242.214 325.385 228.849 336.578 228.849 351.264C228.849 364.246 239.374 374.772 252.357 374.772C267.036 374.772 278.236 361.413 275.442 346.818C273.832 353.666 267.697 358.773 260.358 358.773Z" fill="#3957C9"/>
<path d="M196.238 345.077C191.025 345.077 186.611 340.834 186.611 335.438C186.611 329.258 192.306 324.835 198.117 326.004C202.684 326.935 205.867 330.886 205.867 335.438C205.867 340.818 201.473 345.077 196.238 345.077Z" fill="#FACE7A"/>
<path d="M201.981 404.315C201.981 400.965 204.155 398.119 207.162 397.095H174.187C171.319 397.095 168.984 394.763 168.984 391.895V310.632C168.984 307.763 171.319 305.428 174.187 305.428H207.165C204.155 304.407 201.984 301.558 201.984 298.208C201.984 294.858 204.155 292.012 207.165 290.987H174.187C163.353 290.987 154.543 299.801 154.543 310.632V391.895C154.543 402.725 163.353 411.536 174.187 411.536H207.162C204.155 410.511 201.981 407.665 201.981 404.315Z" fill="#61B6FF"/>
</g>
</g>
<defs>
<clipPath id="clip0_431_3291">
<rect y="0.0668945" width="275" height="330" rx="25" fill="white"/>
</clipPath>
<clipPath id="clip1_431_3291">
<rect width="421" height="421" fill="white" transform="translate(20 20.0669)"/>
</clipPath>
</defs>
</svg>
