<svg width="58" height="58" viewBox="0 0 58 58" fill="none" xmlns="http://www.w3.org/2000/svg">
<g clip-path="url(#clip0_338_3053)">
<path d="M29.0937 2.5C13.7765 2.5 1.35938 14.9172 1.35938 30.2348C1.35938 34.1696 2.18067 37.9121 3.65829 41.303L32.2634 57.7877C46.0879 56.2146 56.828 44.4798 56.828 30.2348C56.8284 14.9172 44.4113 2.5 29.0937 2.5Z" fill="#4C01D5"/>
<path d="M43.6478 5.0651C43.2077 4.81124 43.0569 4.24912 43.3108 3.80906L45.2444 0.460189C45.4982 0.0201307 46.0608 -0.130241 46.5004 0.123622C46.9405 0.377485 47.0913 0.940052 46.837 1.37967L44.9038 4.72854C44.65 5.1686 44.0874 5.31897 43.6478 5.0651Z" fill="#B9E9FD"/>
<path d="M42.735 3.43038C39.2397 5.08226 35.8197 7.33696 32.6172 10.1277L44.773 17.1461C45.589 12.9772 45.8313 8.88755 45.5142 5.03494C45.4023 3.67275 43.9707 2.84659 42.735 3.43038Z" fill="#F948B4"/>
<path d="M44.4997 4.44889C44.7358 4.21404 44.9499 4.07296 45.1286 4.01723C44.5983 3.31535 43.6169 3.01372 42.735 3.43034C39.2397 5.08178 35.8197 7.33691 32.6172 10.1276L37.2394 12.7963C39.7143 9.58541 42.1662 6.77169 44.4997 4.44889Z" fill="#F6159C"/>
<path d="M32.8538 45.8074C30.474 48.8431 27.8982 51.5852 25.1875 54.0071L31.8202 57.8362C32.0237 57.8168 32.2258 57.7938 32.4279 57.7699C33.1612 53.9328 33.3885 50.173 33.117 46.6273C33.0935 46.3208 32.998 46.0449 32.8538 45.8074Z" fill="#61B6FF"/>
<path d="M33.2001 51.016C33.2532 49.5242 33.2262 48.0581 33.117 46.6273C33.0935 46.3208 32.998 46.0449 32.8538 45.8074C30.474 48.8431 27.8982 51.5847 25.1875 54.0066L28.704 56.0371C30.2621 54.4719 31.7649 52.7966 33.2001 51.016Z" fill="#5294E5"/>
<path d="M25.1872 54.0068C24.7533 54.3938 24.3168 54.7742 23.8763 55.1448C23.8675 55.1523 23.8582 55.1589 23.8493 55.166L22.6641 57.2186C24.7277 57.7086 26.8802 57.9696 29.0938 57.9696C30.0137 57.9696 30.923 57.9236 31.8199 57.836L25.1872 54.0068Z" fill="#5294E5"/>
<path d="M28.7037 56.0369L25.1872 54.0068C24.7533 54.3938 24.3168 54.7742 23.8763 55.1448C23.8675 55.1523 23.8582 55.1589 23.8493 55.166L22.6641 57.219C24.0059 57.5375 25.3862 57.7573 26.7957 57.8736C27.4401 57.2792 28.0766 56.6671 28.7037 56.0369Z" fill="#4374D3"/>
<path d="M3.58984 41.1524C3.66415 41.3257 3.73933 41.4987 3.81717 41.6698L10.4901 45.5229C11.2323 41.9639 12.3185 38.3625 13.7581 34.7837C13.4799 34.7775 13.1933 34.8332 12.9164 34.9659C9.70201 36.5072 6.55261 38.5903 3.58984 41.1524Z" fill="#61B6FF"/>
<path d="M6.78657 43.3845C8.507 41.8949 10.2858 40.5566 12.1053 39.3815C12.5922 37.8482 13.1424 36.3139 13.7581 34.7837C13.4799 34.7775 13.1933 34.8332 12.9164 34.9659C9.70201 36.5072 6.55217 38.5903 3.58984 41.1524C3.66415 41.3257 3.73933 41.4987 3.81717 41.6698L6.78657 43.3845Z" fill="#5294E5"/>
<path d="M8.97055 49.3195L10.158 47.2621C10.1598 47.2506 10.1607 47.2395 10.1629 47.228C10.2637 46.6615 10.3743 46.0932 10.4933 45.524L3.82031 41.6709C5.10555 44.5076 6.85473 47.0891 8.97055 49.3195Z" fill="#5294E5"/>
<path d="M6.78971 43.3856L3.82031 41.6709C4.2847 42.6965 4.811 43.6876 5.39214 44.6421C5.85343 44.2122 6.31914 43.7929 6.78971 43.3856Z" fill="#4374D3"/>
<path d="M36.8793 39.8672L16.7826 28.2642C16.7123 28.2235 16.649 28.1753 16.592 28.1218C13.2687 34.3724 11.0676 40.8225 9.94774 47.1045C9.94552 47.116 9.94464 47.1271 9.94287 47.1385L8.79297 49.1305C12.5142 53.1269 17.4 56.0233 22.9116 57.2776L24.0597 55.2887C24.069 55.2816 24.0783 55.275 24.0871 55.2679C28.9755 51.1495 33.4685 46.0077 37.2239 39.991C37.1053 39.9702 36.9886 39.9304 36.8793 39.8672Z" fill="#B9E9FD"/>
<path d="M15.768 52.3012C15.7702 52.2883 15.7711 52.276 15.7733 52.2631C16.9825 45.4831 19.3283 38.5258 22.8523 31.7688L16.783 28.2642C16.7127 28.224 16.6495 28.1753 16.592 28.1218C13.2692 34.3724 11.068 40.8225 9.94774 47.1045C9.94597 47.1155 9.94508 47.127 9.94331 47.1385L8.79297 49.1305C10.5505 51.0177 12.5677 52.659 14.7879 53.9986L15.768 52.3012Z" fill="#83D3FC"/>
<path d="M25.4494 15.3759L43.7098 25.9187C43.7735 25.9555 43.831 25.9984 43.8841 26.0452C44.6664 23.7627 45.3086 21.4792 45.8088 19.2108C45.9933 18.3772 45.6182 17.5196 44.8783 17.0928L32.6146 10.0121C31.8751 9.58528 30.9455 9.68921 30.3152 10.2655C28.6054 11.8289 26.9531 13.5224 25.3711 15.3352C25.3976 15.3476 25.4237 15.3609 25.4494 15.3759Z" fill="#B9E9FD"/>
<path d="M35.7414 13.3067C36.1629 12.8428 36.6742 12.5969 37.1226 12.615L32.6146 10.0122C31.8751 9.58544 30.9455 9.68893 30.3152 10.2652C28.6054 11.8286 26.9531 13.5221 25.3711 15.3354C25.3976 15.3478 25.4237 15.361 25.4494 15.3756L31.2214 18.7081C32.6946 16.8037 34.2054 14.9993 35.7414 13.3067Z" fill="#83D3FC"/>
<path d="M32.4705 37.3205L21.1935 30.8098L20.0945 32.7133C19.6898 33.4143 19.9321 34.3188 20.6331 34.7235L29.3613 39.7627C30.0623 40.1674 30.9668 39.925 31.371 39.224L32.4705 37.3205Z" fill="#FBB362"/>
<path d="M25.1947 35.6889L26.307 33.762L21.1935 30.8098L20.0945 32.7133C19.6898 33.4143 19.9321 34.3188 20.6331 34.7235L24.9192 37.198C24.7794 36.8335 24.8732 36.2458 25.1947 35.6889Z" fill="#FC9949"/>
<path d="M44.3509 27.2576C44.553 26.6906 44.3208 26.0604 43.7998 25.7596L25.5394 15.2172C25.0184 14.9165 24.3563 15.0301 23.9666 15.4888C21.0424 18.9301 18.433 22.7217 16.2194 26.749C15.8939 27.3412 16.1049 28.0855 16.6904 28.4238L36.7872 40.0264C37.3727 40.3647 38.1228 40.175 38.4731 39.5969C40.9383 35.5271 42.8887 31.3548 44.3509 27.2576Z" fill="#D0F6FA"/>
<path d="M22.7314 30.6298C25.0046 26.5543 27.5601 22.6486 30.3198 19.0321C30.5706 18.7035 30.901 18.5098 31.2039 18.4877L25.5394 15.2171C25.0184 14.9164 24.3563 15.0305 23.9666 15.4887C21.0424 18.93 18.433 22.7215 16.2194 26.7489C15.8939 27.3415 16.1049 28.0858 16.6904 28.4237L22.6168 31.8456C22.4612 31.5258 22.4917 31.0597 22.7314 30.6298Z" fill="#B9E9FD"/>
<path d="M21.8288 40.1103C18.6829 41.7935 15.5773 44.0341 12.6406 46.7629L23.0384 52.7663C23.9335 48.8584 24.321 45.0486 24.2055 41.4826C24.1653 40.2222 22.9406 39.515 21.8288 40.1103Z" fill="#61B6FF"/>
<path d="M23.6921 41.1857C23.8274 41.0163 23.9468 40.8894 24.0494 40.8C23.6801 39.992 22.7186 39.6338 21.8288 40.1101C18.6829 41.7934 15.5773 44.0339 12.6406 46.7627L17.5352 49.5888C19.7001 46.4142 21.7784 43.5806 23.6921 41.1857Z" fill="#5294E5"/>
<path d="M10.3711 50.6945C13.3219 53.3963 16.8588 55.4683 20.7693 56.6974L23.039 52.7661L12.6413 46.7627L10.3711 50.6945Z" fill="#5294E5"/>
<path d="M17.5376 49.5897L12.6413 46.7627L10.3711 50.6945C11.77 51.9753 13.3016 53.1124 14.9411 54.0871L17.5376 49.5897Z" fill="#4374D3"/>
<path d="M24.9103 21.7348C24.4316 22.5702 24.3068 23.538 24.5639 24.4669L25.1336 26.5709L29.4301 20.2166C29.3969 20.2025 29.3636 20.189 29.33 20.1759C28.6393 19.9072 27.8606 19.8479 27.0922 20.0545C26.1609 20.3023 25.389 20.8994 24.9103 21.7348Z" fill="#F6159C"/>
<path d="M34.5006 30.1607C35.426 29.9095 36.1979 29.3125 36.6766 28.4771C37.1553 27.6416 37.2801 26.6738 37.023 25.745C36.5056 23.8386 34.5288 22.7059 32.6165 23.22L31.7374 23.4586L31.5046 22.5828C31.2018 21.4777 30.4122 20.6327 29.4301 20.2166L25.1336 26.5709L25.1884 26.7735L26.535 31.7466C26.55 31.8021 26.566 31.8425 26.5878 31.8863C26.6314 31.9738 26.7062 32.0479 26.7885 32.0951C26.8709 32.1423 26.9668 32.166 27.0643 32.1594C27.1039 32.1586 27.1989 32.1427 27.2359 32.1327L34.5006 30.1607Z" fill="#F948B4"/>
</g>
<defs>
<clipPath id="clip0_338_3053">
<rect width="57.9691" height="57.9691" fill="white"/>
</clipPath>
</defs>
</svg>
