<svg width="156" height="157" viewBox="0 0 156 157" fill="none" xmlns="http://www.w3.org/2000/svg">
<g clip-path="url(#clip0_242_1736)">
<path d="M77.9699 19.3437C110.919 11.1497 144.517 32.1945 153.01 66.3477C158.072 86.7011 153.074 107.114 141.239 122.025C130.655 127.173 119.029 131.43 106.612 134.518C94.1952 137.606 81.9306 139.291 70.1661 139.699C52.7259 132.069 38.7496 116.373 33.6883 96.021C25.1938 61.8681 45.0204 27.5376 77.9699 19.3437Z" fill="#83D3FC"/>
<path d="M77.9699 19.3437C45.0204 27.5376 25.195 61.8678 33.6884 96.021C38.7496 116.373 52.7259 132.069 70.1661 139.699C77.802 139.433 85.6494 138.627 93.6115 137.253C93.7745 137.005 93.9405 136.775 94.1026 136.564C94.7211 135.758 94.7676 134.626 94.175 133.8C93.365 132.674 93.4675 131.438 93.719 130.561C93.9349 129.806 93.731 128.996 93.2224 128.397C90.7779 125.514 91.9983 122.876 92.8376 121.659C93.1883 121.151 93.3355 120.531 93.2344 119.921L81.9241 51.8359C81.7929 51.0445 81.3474 50.349 80.7092 49.863C77.8338 47.6771 77.9752 45.2572 78.4501 43.7978C78.7551 42.8576 78.634 41.8329 78.0936 41.0045C68.6262 26.4823 77.9699 19.3437 77.9699 19.3437Z" fill="#61B6FF"/>
<path d="M149.36 130.025C148.667 131.6 147.436 132.948 145.767 133.761C134.459 139.262 122.313 143.647 109.664 146.792C97.0141 149.938 84.2281 151.754 71.6618 152.19C69.7803 152.255 68.0414 151.62 66.6814 150.525L66.6763 150.525L51.6284 161.75C69.5064 175.311 93.1386 180.958 116.61 175.121C140.082 169.284 158.316 153.225 167.761 132.869L149.36 130.025Z" fill="#FD7E31"/>
<path d="M66.6825 150.525L66.6763 150.525L51.6287 161.751C62.8955 170.296 76.4471 175.694 90.8032 177.062C90.5594 176.081 90.2988 175.033 90.0337 173.967C89.4569 171.648 89.9212 170.12 90.5029 169.187C90.977 168.429 90.8255 167.45 90.1658 166.847C86.6166 163.611 89.7627 160.213 89.7627 160.213L95.9672 151.431C96.348 150.892 96.3976 150.209 96.1467 149.636C87.9574 151.051 79.7645 151.908 71.6618 152.19C69.7803 152.255 68.0414 151.62 66.6825 150.525Z" fill="#FC5D1F"/>
<path d="M42.5404 69.7258C42.9844 67.0615 44.4316 64.6764 46.569 63.0219C52.0944 58.7444 64.8875 50.2193 84.2095 45.4142C103.53 40.6095 118.826 42.1493 125.713 43.3401C128.375 43.8011 130.771 45.2305 132.412 47.3762C136.913 53.265 145.195 67.0724 143.14 86.9813C140.35 113.997 103.694 123.763 103.694 123.763C103.694 123.763 66.731 132.305 51.6124 109.743C40.4723 93.1165 41.3214 77.037 42.5404 69.7258Z" fill="#4374D3"/>
<path d="M109.798 147.333C122.448 144.187 134.594 139.804 145.902 134.302C149.643 132.483 151.198 127.977 149.38 124.236C147.56 120.497 143.051 118.94 139.314 120.759C128.948 125.801 117.795 129.825 106.164 132.718C94.5327 135.61 82.794 137.279 71.2749 137.679C67.1143 137.825 63.8651 141.31 64.0102 145.466C64.1545 149.623 67.6409 152.876 71.7965 152.73C84.3631 152.296 97.1488 150.479 109.798 147.333Z" fill="#FC9949"/>
<path d="M71.2749 137.679C67.1143 137.825 63.8651 141.31 64.0102 145.466C64.1545 149.623 67.6409 152.876 71.7968 152.732C79.9034 152.451 88.1007 151.591 96.2936 150.175C96.2487 149.751 96.0582 149.345 95.7269 149.038C90.0093 143.755 92.2774 138.937 94.1024 136.564C94.4129 136.159 94.5784 135.672 94.5929 135.183C86.7873 136.573 78.9812 137.412 71.2749 137.679Z" fill="#FD7E31"/>
<path d="M141.956 151.349L81.1182 166.479C77.6697 167.336 75.4708 170.702 75.9815 174.151C88.7626 178.003 102.714 178.577 116.61 175.121C129.71 171.863 141.176 165.418 150.397 156.824L150.282 156.358C149.37 152.691 145.623 150.437 141.956 151.349Z" fill="#3957C9"/>
<path d="M153.576 153.685C151.501 148.907 146.211 146.175 140.992 147.473L80.1544 162.602C75.3334 163.801 72.0693 168.069 71.92 172.806C74.6733 173.806 77.49 174.65 80.356 175.332L79.9848 173.839C79.6021 172.3 80.5431 170.736 82.082 170.354L142.92 155.224C144.459 154.842 146.023 155.783 146.405 157.322L147.021 159.796C149.332 157.882 151.518 155.839 153.576 153.685Z" fill="#FACE7A"/>
<path d="M121.29 42.7124C113.286 41.8032 100.114 41.4587 84.2097 45.4139C68.8116 49.2431 57.5639 55.4332 50.8324 59.9551C46.3138 67.596 44.6334 76.2534 46.7322 84.6928C48.6146 92.2623 53.2668 98.5639 59.6692 103.126C63.521 105.869 66.8258 109.289 69.5883 113.127C71.564 115.871 73.879 118.289 76.4383 120.335C77.679 122.057 79.1065 123.616 80.6827 124.997C92.952 126.244 103.693 123.763 103.693 123.763C103.693 123.763 114.763 120.813 125.2 113.671C125.89 111.785 126.382 109.818 126.651 107.799C127.944 104.8 128.849 101.589 129.307 98.2504C129.944 93.5912 131.247 89.0427 133.359 84.8406C136.897 77.7993 138.065 70.0351 136.179 62.449C134.109 54.1284 128.696 47.3424 121.29 42.7124Z" fill="#BF5543"/>
<path d="M46.732 84.6928C48.6144 92.2623 53.2666 98.5639 59.6702 103.125C63.5207 105.869 66.8255 109.289 69.5881 113.127C71.565 115.87 73.8788 118.289 76.4392 120.335C77.6806 122.059 79.1152 123.616 80.694 124.998C85.4265 125.478 89.9307 125.405 93.6787 125.133L78.9145 65.7636C75.5595 60.2688 86.3549 51.8593 79.5872 47.7873C79.1732 47.5382 78.8133 47.2731 78.5006 46.9951C66.0071 50.8036 56.702 56.0122 50.8334 59.9548C46.3148 67.5957 44.6332 76.2534 46.732 84.6928Z" fill="#B33C37"/>
<path d="M103.064 56.8435C100.236 57.4206 97.7007 58.6012 95.5553 60.2186C94.7967 60.7909 94.203 61.5593 93.8787 62.4525C93.2633 64.1488 92.9786 66.2612 93.8118 68.5157C94.0661 69.2033 93.4395 69.8903 92.7362 69.6804C91.2761 69.2435 89.1205 68.3486 86.931 66.5563C86.3575 66.0869 85.4951 66.4907 85.504 67.2317C85.5131 68.0849 85.5717 68.9044 85.6392 69.5765C85.7102 70.2882 84.9437 70.793 84.3273 70.4302C82.2214 69.1924 80.4189 67.5663 79.1121 65.9847C77.7133 64.2922 75.43 63.6146 73.3245 64.2405L73.2835 64.2532C63.7919 67.0931 58.1546 77.0096 60.5442 86.6233C61.6665 91.1415 64.3487 94.8593 67.8726 97.3494C69.956 98.8212 71.2574 101.183 71.2216 103.733C71.187 106.242 71.4936 108.799 72.1764 111.348C73.6427 116.823 76.6828 121.492 80.6809 124.996C92.9517 126.244 103.694 123.763 103.694 123.763C103.694 123.763 114.766 120.811 125.204 113.669C127.046 108.633 127.456 103.012 126.065 97.4165C125.47 95.0268 124.583 92.787 123.452 90.7263C122.241 88.5203 122.245 85.8519 123.391 83.6111C125.445 79.5924 126.06 74.8138 124.739 70.0925C122.121 60.7288 112.592 54.9005 103.064 56.8435Z" fill="#FADDA0"/>
<path d="M86.6596 107.746C85.9886 105.194 85.606 102.656 85.4896 100.184C85.3698 97.6728 84.2335 95.2703 82.5459 93.7001C79.691 91.0436 77.4152 87.2248 76.2917 82.7068C74.6968 76.2885 75.8498 69.9451 78.9149 65.7647C77.5049 64.2352 75.3338 63.6433 73.3245 64.2401L73.2823 64.2532C63.7919 67.0928 58.1547 77.0093 60.543 86.6233C61.6665 91.1412 64.3476 94.8593 67.8727 97.3491C69.9548 98.8212 71.2574 101.182 71.2216 103.733C71.187 106.242 71.4924 108.799 72.1753 111.348C73.6427 116.822 76.6817 121.492 80.681 124.996C87.036 125.643 92.977 125.289 97.2331 124.798C92.4458 120.911 88.5523 114.935 86.6596 107.746Z" fill="#FACE7A"/>
<path d="M104.636 127.84C103.012 128.215 64.6714 136.748 48.1361 112.07C36.3651 94.501 36.992 77.5682 38.4138 69.0382C39.0302 65.3418 41.0167 62.0302 44.0078 59.7141C65.8338 42.8153 99.1923 34.5058 126.425 39.2182C130.153 39.8623 133.46 41.8574 135.736 44.8357C140.988 51.7061 149.473 66.3729 147.302 87.4096C144.251 116.957 106.382 127.377 104.771 127.806C104.709 127.822 104.696 127.825 104.636 127.84ZM49.1295 66.3305C47.8099 67.3514 46.9355 68.8028 46.6663 70.4143C45.4488 77.7213 44.9238 92.2426 55.0875 107.413C68.1532 126.912 100.931 120.085 102.68 119.703C104.35 119.234 136.574 109.842 138.98 86.5505C140.854 68.3877 133.587 55.8028 129.089 49.9172C128.096 48.6184 126.644 47.7468 125 47.4629C100.1 43.1542 69.1263 50.8493 49.1295 66.3305Z" fill="#E0F9FE"/>
<path d="M55.0872 107.413C44.9236 92.2427 45.4485 77.7213 46.666 70.4143C46.9353 68.8029 47.8097 67.3514 49.1292 66.3305C58.1568 59.3412 69.4243 53.9461 81.3579 50.5192C81.1743 50.2733 80.9563 50.0512 80.7089 49.8629C77.8332 47.6759 77.9749 45.2571 78.4498 43.7977C78.5762 43.4079 78.6248 43.0047 78.6054 42.607C65.8209 46.3314 53.762 52.1617 44.0076 59.7142C41.0165 62.0302 39.03 65.3418 38.4136 69.0382C36.9918 77.5683 36.3649 94.501 48.1358 112.07C59.3824 128.856 80.714 130.275 93.7214 129.349C93.628 129.004 93.4609 128.677 93.2221 128.397C90.7777 125.514 91.998 122.876 92.8373 121.659C92.9828 121.447 93.0918 121.216 93.1639 120.973C82.0061 121.761 63.9804 120.686 55.0872 107.413Z" fill="#B9E9FD"/>
<path d="M29.0238 79.9134C28.9528 85.4325 29.5817 91.0665 30.9813 96.6943C32.1571 101.423 33.8159 105.896 35.8866 110.077C37.2016 112.732 40.908 112.987 42.5424 110.518C45.788 105.618 47.8868 98.4295 46.1223 91.3341C44.4704 84.6914 39.6498 79.5951 34.8354 76.66C32.3138 75.1205 29.0614 76.959 29.0238 79.9134Z" fill="#5294E5"/>
<path d="M149.372 49.548C147.954 46.996 144.311 46.8748 142.754 49.3429C139.671 54.228 137.651 61.2424 139.368 68.1453C141.2 75.514 146.693 81.04 152.062 83.7477C154.67 85.0613 157.722 83.1287 157.66 80.2093C157.558 75.4119 156.926 70.5421 155.716 65.6747C154.279 59.8972 152.122 54.4968 149.372 49.548Z" fill="#61B6FF"/>
<path d="M101.69 114.727C95.1677 116.349 88.7565 116.278 84.0995 114.533C82.8833 114.078 82.2676 112.723 82.7223 111.507C83.1782 110.291 84.5329 109.675 85.7491 110.131C89.482 111.528 95.0169 111.541 100.556 110.164C106.094 108.786 110.98 106.182 113.622 103.199C114.483 102.227 115.968 102.136 116.941 102.997C117.912 103.859 118.003 105.344 117.142 106.316C113.844 110.039 108.213 113.105 101.69 114.727Z" fill="#FBB362"/>
<path d="M95.6233 98.9717C95.944 100.261 95.1583 101.567 93.8678 101.888C92.5785 102.208 91.2727 101.423 90.9521 100.133C90.6311 98.8428 91.4168 97.5371 92.7061 97.2164C93.9966 96.8955 95.3024 97.6812 95.6233 98.9717Z" fill="#FBB362"/>
<path d="M104.344 96.8032C104.664 98.0925 103.879 99.3983 102.588 99.7192C101.299 100.04 99.9929 99.2542 99.6723 97.9649C99.3514 96.6744 100.137 95.3686 101.426 95.048C102.717 94.7271 104.023 95.5127 104.344 96.8032Z" fill="#FBB362"/>
<path d="M37.999 93.6997C35.1079 94.4187 32.1974 93.7154 30.0027 92.0341C30.2728 93.587 30.5949 95.141 30.9811 96.6941C32.1567 101.421 33.8157 105.896 35.8865 110.077C37.2015 112.732 40.9079 112.987 42.5435 110.517C45.7879 105.617 47.8864 98.4281 46.1222 91.3339C45.7785 89.9519 45.2963 88.6371 44.706 87.3947C43.7522 90.4141 41.2966 92.8796 37.999 93.6997Z" fill="#4374D3"/>
<path d="M148.113 66.3161C144.568 67.1976 140.994 65.9414 138.745 63.3676C138.776 64.9473 138.971 66.5492 139.368 68.1451C141.201 75.515 146.693 81.0398 152.062 83.7476C154.67 85.0623 157.722 83.1285 157.66 80.2091C157.558 75.4117 156.926 70.5419 155.716 65.6746C155.33 64.1202 154.889 62.5932 154.4 61.0946C153.248 63.6095 151.007 65.5965 148.113 66.3161Z" fill="#5294E5"/>
<path d="M86.9266 89.0261C85.9558 85.1225 82.196 82.6986 78.5277 83.6108C74.8594 84.5231 72.6729 88.4257 73.6436 92.3293C74.6141 96.2317 78.3742 98.6568 82.0425 97.7446C85.7108 96.8323 87.897 92.9285 86.9266 89.0261Z" fill="#E0F9FE"/>
<path d="M84.5574 96.4897C84.1129 96.6002 83.9133 96.4315 83.825 96.2339C83.7006 95.957 83.4951 95.7242 83.2146 95.6059C80.0617 94.2727 79.448 91.45 79.3377 90.1336C79.304 89.7243 79.0622 89.3605 78.6929 89.1798C75.8753 87.8048 76.7587 84.3448 76.7587 84.3448C74.1962 85.883 72.8424 89.1054 73.6441 92.3293C74.6146 96.2317 78.3747 98.6568 82.043 97.7446C82.9901 97.509 83.8367 97.0726 84.5574 96.4897Z" fill="#B9E9FD"/>
<path d="M84.7362 92.1209C85.2655 94.2491 83.9692 96.4036 81.8409 96.9329C79.7126 97.4622 77.5581 96.1658 77.0289 94.0376C76.4996 91.9093 77.7962 89.756 79.9245 89.2267C82.0528 88.6974 84.207 89.9926 84.7362 92.1209Z" fill="#3957C9"/>
<path d="M83.6367 95.9351C83.5237 95.7953 83.3849 95.6784 83.2142 95.6061C80.0613 94.2728 79.4476 91.4501 79.3373 90.1337C79.3186 89.9113 79.2377 89.703 79.1088 89.5294C77.48 90.342 76.5725 92.1979 77.0299 94.0374C77.5592 96.1657 79.7125 97.4623 81.8408 96.9331C82.5431 96.7584 83.1517 96.4052 83.6367 95.9351Z" fill="#4347B0"/>
<path d="M115.979 81.8015C115.008 77.8979 111.248 75.474 107.58 76.3862C103.912 77.2985 101.725 81.2011 102.696 85.1047C103.666 89.0071 107.426 91.4322 111.095 90.52C114.763 89.6077 116.949 85.7039 115.979 81.8015Z" fill="#E0F9FE"/>
<path d="M113.609 89.265C113.164 89.3756 112.965 89.2069 112.876 89.0093C112.752 88.7324 112.546 88.4996 112.266 88.3813C109.112 87.0484 108.499 84.2254 108.389 82.909C108.355 82.4997 108.112 82.1362 107.744 81.9552C104.927 80.5802 105.81 77.1202 105.81 77.1202C103.247 78.6584 101.894 81.8808 102.695 85.1047C103.666 89.0071 107.426 91.4322 111.094 90.52C112.041 90.2844 112.888 89.848 113.609 89.265Z" fill="#B9E9FD"/>
<path d="M113.788 84.8963C114.317 87.0245 113.02 89.179 110.892 89.7083C108.764 90.2376 106.609 88.9412 106.08 86.813C105.551 84.6847 106.847 82.5314 108.976 82.0021C111.104 81.4728 113.258 82.768 113.788 84.8963Z" fill="#3957C9"/>
<path d="M112.688 88.7102C112.575 88.5705 112.437 88.4536 112.266 88.3812C109.113 87.048 108.499 84.2253 108.389 82.9089C108.372 82.6861 108.29 82.4781 108.161 82.3045C106.532 83.1171 105.624 84.9731 106.082 86.8126C106.611 88.9408 108.764 90.2375 110.893 89.7082C111.595 89.5336 112.203 89.1803 112.688 88.7102Z" fill="#4347B0"/>
</g>
<defs>
<clipPath id="clip0_242_1736">
<rect width="160.498" height="160.498" fill="white" transform="translate(0 38.7334) rotate(-13.9652)"/>
</clipPath>
</defs>
</svg>
