<svg width="1894" height="973" viewBox="0 0 1894 973" fill="none" xmlns="http://www.w3.org/2000/svg">
<g clip-path="url(#clip0_2047_1217)">
<path d="M961 498.001C961 515.12 947.121 528.999 930.002 528.999C912.879 528.999 899 515.12 899 498.001C899 480.879 912.879 467 930.002 467C947.121 467 961 480.879 961 498.001Z" fill="#A2EC00"/>
<path d="M942.293 504.415C931.961 504.415 923.585 496.039 923.585 485.707C923.585 477.24 929.217 470.093 936.937 467.789C934.706 467.279 932.387 467 930.002 467C912.883 467 899.004 480.879 899.004 498.001C899.004 515.12 912.883 528.999 930.002 528.999C947.122 528.999 961.001 515.12 961.001 498.001C961.001 495.616 960.721 493.295 960.211 491.063C957.907 498.783 950.763 504.415 942.293 504.415Z" fill="#00C82F"/>
<path d="M1231 681.001C1231 698.12 1217.12 711.999 1200 711.999C1182.88 711.999 1169 698.12 1169 681.001C1169 663.879 1182.88 650 1200 650C1217.12 650 1231 663.879 1231 681.001Z" fill="#FD7E31"/>
<path d="M1212.29 687.415C1201.96 687.415 1193.58 679.039 1193.58 668.707C1193.58 660.24 1199.22 653.093 1206.94 650.789C1204.71 650.279 1202.39 650 1200 650C1182.88 650 1169 663.879 1169 681.001C1169 698.12 1182.88 711.999 1200 711.999C1217.12 711.999 1231 698.12 1231 681.001C1231 678.616 1230.72 676.295 1230.21 674.063C1227.91 681.783 1220.76 687.415 1212.29 687.415Z" fill="#FC5D1F"/>
<path d="M1567.96 500.563C1562.78 488.402 1548.72 482.741 1536.56 487.918C1524.4 493.095 1518.74 507.152 1523.91 519.313C1529.09 531.475 1543.15 537.136 1555.31 531.959C1567.47 526.782 1573.13 512.725 1567.96 500.563Z" fill="#4374D3"/>
<path d="M1601.8 399.553C1592.44 399.553 1585 391.938 1585 382.756C1585 372.032 1594.91 364.246 1605.09 366.293C1613.19 367.964 1618.6 374.933 1618.6 382.756C1618.6 392.037 1611.08 399.553 1601.8 399.553Z" fill="#61B6FF"/>
<path d="M1551.6 84.1989C1544.57 84.1989 1539 78.4958 1539 71.6052C1539 63.501 1546.52 57.6885 1554.05 59.2562C1559.91 60.3552 1564.2 65.6833 1564.2 71.6052C1564.19 78.5218 1558.57 84.1989 1551.6 84.1989Z" fill="#B26CDE"/>
<path d="M492.444 265.223C566.07 238.212 626.522 227.825 659.174 237.848L659.193 237.829C594.585 211.333 679.892 184.735 680.135 184.665C619.931 190.714 542.21 213.156 457.099 249.731C469.267 253.872 481.094 259.052 492.444 265.223Z" fill="#FC9949"/>
<path d="M418.248 523.519C490.86 481.597 555.86 434.958 603.953 391.003C599.091 376.437 592.701 362.146 584.726 348.333C520.721 237.478 378.977 199.497 268.123 263.497C241.019 279.148 218.286 299.45 200.317 322.809C194.862 345.149 191.945 368.49 191.945 392.513C191.945 471.121 222.938 542.489 273.358 595.079C319.488 576.24 369.02 551.941 418.248 523.519Z" fill="#D7F9B7"/>
<path d="M337.676 645.701C373.526 666.563 414.219 680.022 457.651 684C472.063 679.152 486.213 672.832 499.891 664.932C570.183 624.352 611.156 552.507 615.429 477.101C566.995 514.708 511.923 551.619 453.832 585.159C415.079 607.532 376.036 627.839 337.676 645.701Z" fill="#D7F9B7"/>
<path d="M431.847 609.513C431.786 605.68 429.608 602.371 426.424 600.604C396.736 616.951 367.005 632.046 337.676 645.7C373.526 666.563 414.219 680.021 457.651 683.999C472.063 679.157 486.213 672.831 499.891 664.935C506.683 661.013 513.19 656.797 519.426 652.318C442.323 660.845 432.127 626.982 431.847 609.513Z" fill="#A2EC00"/>
<path d="M267.178 264.446C240.075 280.092 217.337 300.39 199.377 323.744C193.917 346.089 191 369.434 191 393.457C191 452.582 208.544 507.593 238.682 553.619C309.166 528.428 370.894 519.364 370.894 519.364C407.913 511.889 448.227 496.668 487.732 473.856C534.521 446.846 572.656 413.53 598.507 379.681C594.393 369.355 589.504 359.192 583.777 349.277C519.777 238.423 378.028 200.441 267.178 264.446Z" fill="#A2EC00"/>
<path d="M587.12 352.666C586.325 351.222 585.554 349.768 584.726 348.333C550.812 289.591 495.062 251.315 433.651 237.829C416.304 270.121 397.563 301.647 377.065 332.051C359.194 358.556 353.64 384.902 364.766 404.176C385.961 440.886 459.647 438.025 529.346 397.786C552.242 384.566 571.852 368.962 587.12 352.666Z" fill="#00C82F"/>
<path d="M498.797 262.843C494.936 265.433 491.093 268.261 487.311 271.351C454.486 298.178 438.821 333.318 452.327 349.842C465.832 366.367 503.388 358.018 536.213 331.195C544.328 324.562 551.387 317.424 557.221 310.187C540.196 291.003 520.399 275.128 498.797 262.843Z" fill="#04AF24"/>
<path d="M37.5368 134L791.436 176.611C791.801 177.338 791.935 177.838 791.933 178.648C791.893 183.628 791.414 188.683 791.138 193.658L789.508 222.484C789.291 226.329 789.032 241.3 788.075 244.109C787.981 244.379 787.887 244.537 787.746 244.799C788.288 246.537 788.334 249.37 787.501 251.043C787.46 251.128 787.402 251.205 787.354 251.286C788.491 254.745 782.878 339.46 782.231 350.917L765.713 643.273L759.681 749.986C759.389 755.157 758.403 784.483 757.315 786.929C757.176 787.232 757.072 787.37 756.9 787.636L3.00049 745.024L6.86267 676.694L7.15641 671.497L37.5368 134Z" fill="#FEFEFE"/>
<path d="M647.827 437.711C650.063 441.292 645.927 491.988 644.98 499.315C643.852 508.359 642.235 517.316 640.127 526.185C627.841 577.959 595.751 623.339 555.935 658.17C542.829 669.634 530.459 679.214 515.536 688.332C454.743 725.477 383.612 735.518 314.238 719.444C314.17 719.429 314.103 719.411 314.035 719.395C319.92 715.571 329.496 712.605 336.122 709.576C348.694 703.8 360.949 697.425 372.886 690.456C379.966 686.429 386.943 682.236 393.817 677.875C400.692 673.513 407.455 668.99 414.108 664.305C420.76 659.619 427.295 654.777 433.711 649.779C440.126 644.781 446.416 639.632 452.579 634.332C492.068 599.969 525.866 557.342 551.696 512.099L554.122 509.809C563.276 504.077 571.673 497.348 580.371 490.983C598.503 477.892 616.226 464.279 633.541 450.145C637.715 446.715 644.652 441.85 647.827 437.711Z" fill="#A2EC00"/>
<path d="M560.526 249.972C567.183 244.75 583.574 237.518 591.763 233.867C596.987 231.538 602.024 228.75 607.293 226.541C640.013 212.824 685.281 198.541 720.846 197.816C740.85 197.409 761.466 200.277 776.427 214.655C777.817 215.988 780.688 218.597 780.738 220.616C784.057 222.795 786.158 231.657 786.925 235.32C787.435 237.771 788.539 242.415 787.746 244.799C788.288 246.537 788.334 249.369 787.501 251.042C787.46 251.127 787.401 251.205 787.354 251.286C787.896 255.086 786.135 260.659 785.137 264.395C777.293 293.778 759.447 319.596 741.216 343.578C719.167 372.577 692.625 398.139 665.489 422.407C660.671 426.714 654.419 433.461 648.711 436.414C648.451 436.931 648.242 437.308 647.826 437.71C644.652 441.85 637.715 446.715 633.539 450.144C616.226 464.278 598.502 477.891 580.371 490.982C571.673 497.348 563.275 504.076 554.121 509.809C556.31 503.793 559.152 496.929 562.124 491.082C566.548 479.147 572.659 467.785 576.968 455.893C577.302 455.003 577.33 453.097 577.711 452.226C583.388 439.229 586.209 426.544 588.523 412.571L594.054 408.2C598.089 405.125 601.876 401.457 605.709 398.126C611.882 392.76 618.18 387.467 624.14 381.87C627.768 378.463 631.194 374.748 634.988 371.532L635.1 371.249C627.394 345.424 614.945 319.345 599.561 297.129C595.03 289.75 589.366 282.17 583.867 275.459C581.121 272.376 578.719 268.977 575.965 265.885C571.073 260.394 565.687 255.224 560.526 249.972Z" fill="#FACE7A"/>
<path d="M583.867 275.459C608.592 264.025 657.851 242.031 684.834 251.643C690.492 253.66 694.961 257.44 697.536 262.857C701.595 271.418 699.361 281.834 696.155 290.288C686.519 315.698 665.54 339.714 647.14 359.488C644.087 362.769 638.931 369.425 635.1 371.249C627.394 345.424 614.945 319.345 599.561 297.129C595.03 289.75 589.366 282.17 583.867 275.459Z" fill="#FEFEFE"/>
<path d="M498.654 478.588C505.334 474.83 511.599 469.837 517.956 465.547C532.263 456.014 546.235 446.023 559.872 435.574C571.357 426.707 582.429 417.328 593.916 408.471C591.602 422.443 585.439 440.91 579.761 453.908C579.381 454.779 579.024 455.658 578.692 456.548C574.382 468.44 569.347 480.021 563.585 491.293C560.614 497.138 556.31 503.793 554.122 509.809L551.696 512.099C525.866 557.342 492.068 599.969 452.579 634.332C446.416 639.632 440.125 644.781 433.711 649.779C427.295 654.777 420.76 659.619 414.108 664.305C407.455 668.99 400.691 673.513 393.817 677.875C386.942 682.236 379.966 686.429 372.886 690.456C360.948 697.425 348.694 703.8 336.121 709.576C329.495 712.605 319.918 715.571 314.035 719.395C306.596 718.304 298.591 715.366 291.533 712.779C279.363 708.318 267.296 703.538 255.796 697.545C248.26 693.618 241.005 689.031 233.706 684.688C227.833 686.545 222.157 689.179 216.382 691.334C207.705 694.474 198.979 697.475 190.204 700.336C186.12 701.707 181.01 704.005 176.749 704.411C172.22 706.111 167.287 707.204 162.611 708.511C154.216 710.874 145.758 712.989 137.236 714.856C128.716 716.722 120.145 718.338 111.526 719.701C84.9889 724.065 45.7163 727.939 22.4211 711.314C13.6767 705.073 9.33594 696.927 7.88829 686.466C7.43793 683.211 7.39214 679.941 6.86279 676.693L7.15653 671.496C8.66949 665.48 8.88449 659.277 10.5501 653.229C11.2912 647.961 14.1745 642.086 16.08 637.117C31.1059 597.932 58.7614 564.403 88.3449 534.974C95.3826 527.973 102.357 520.903 109.997 514.533C112.644 528.745 117.231 542.274 122.308 555.794C126.997 566.822 131.451 577.574 137.287 588.083C138.522 590.306 139.784 593.059 141.339 595.054C150.293 611.034 162.266 628.151 175.078 641.35C181.059 639.357 187.332 638.072 193.37 636.207C210.053 631.055 226.865 625.341 243.134 619.005C293.855 599.252 343.172 574.387 390.144 547.096C403.717 539.096 417.175 530.915 430.521 522.55C447.304 512.284 463.842 501.647 480.138 490.641C486.253 486.592 492.706 482.858 498.654 478.588Z" fill="#FACE7A"/>
<path d="M122.309 555.794C126.997 566.822 131.451 577.574 137.287 588.083C138.522 590.306 139.784 593.059 141.339 595.054C150.293 611.033 162.265 628.151 175.078 641.35C167.12 645.567 137.648 649.456 128.148 649.839C115.37 650.355 99.4773 648.388 89.809 639.422C84.6511 634.641 81.9479 627.709 81.7953 620.785C81.2837 597.645 107.309 571.357 122.309 555.794Z" fill="#FEFEFE"/>
<path d="M551.696 512.099C525.866 557.342 492.068 599.969 452.579 634.332C446.416 639.632 440.127 644.781 433.711 649.779C427.295 654.778 420.76 659.62 414.108 664.306C407.455 668.99 400.692 673.513 393.817 677.875C386.943 682.236 379.966 686.429 372.886 690.456C360.949 697.426 348.694 703.8 336.122 709.576C329.496 712.605 319.92 715.572 314.035 719.395C306.597 718.304 298.591 715.366 291.534 712.779C279.363 708.318 267.296 703.538 255.796 697.545C248.261 693.618 241.006 689.031 233.706 684.688C262.754 674.198 290.689 660.976 318.454 647.57C333.558 640.295 348.553 632.806 363.437 625.102C378.322 617.398 393.091 609.482 407.745 601.355C422.398 593.229 436.929 584.895 451.339 576.353C465.748 567.812 480.029 559.065 494.184 550.115C513.674 537.92 532.155 524.168 551.696 512.099Z" fill="#2CD945"/>
<path d="M461.126 189.814C492.167 200.076 524.511 218.912 549.214 240.003C551.802 242.212 557.463 246.393 559.084 248.905C559.144 248.996 559.172 249.105 559.214 249.205L560.526 249.973C565.688 255.224 571.074 260.394 575.965 265.886C578.72 268.977 581.121 272.376 583.869 275.459C589.368 282.17 595.032 289.75 599.561 297.129C614.945 319.345 627.394 345.424 635.101 371.249L634.988 371.532C631.194 374.748 627.768 378.463 624.141 381.871C618.181 387.468 611.882 392.761 605.71 398.127C601.876 401.458 598.089 405.125 594.056 408.2L593.916 408.471C582.429 417.328 571.357 426.707 559.873 435.574C546.235 446.023 532.263 456.014 517.956 465.547C511.599 469.837 505.334 474.83 498.654 478.588C492.707 482.858 486.253 486.592 480.138 490.641C463.843 501.647 447.304 512.284 430.521 522.55C417.176 530.915 403.717 539.096 390.146 547.097C343.172 574.387 293.856 599.252 243.135 619.006C226.866 625.341 210.053 631.055 193.37 636.209C187.332 638.072 181.061 639.357 175.078 641.35C162.267 628.151 150.295 611.034 141.34 595.054C139.784 593.059 138.523 590.306 137.287 588.083C131.451 577.574 126.997 566.822 122.309 555.794C117.231 542.274 112.645 528.745 109.998 514.533C108.218 508.933 107.717 502.495 106.972 496.69C103.27 467.885 102.954 438.363 107.924 409.685L108.887 409.717C109.837 411.869 114.913 416.141 116.843 417.961C119.394 420.34 121.995 422.664 124.648 424.931C127.3 427.199 130.001 429.408 132.75 431.56C135.499 433.712 138.293 435.804 141.134 437.836C143.975 439.868 146.858 441.838 149.785 443.747C152.712 445.656 155.679 447.5 158.686 449.281C161.693 451.062 164.739 452.778 167.821 454.429C170.903 456.08 174.021 457.664 177.172 459.181C180.323 460.698 183.507 462.147 186.722 463.527C188.33 464.235 189.946 464.923 191.571 465.593C193.196 466.261 194.828 466.91 196.469 467.537C198.112 468.166 199.76 468.775 201.415 469.363C203.072 469.951 204.735 470.519 206.406 471.066C208.076 471.614 209.754 472.141 211.437 472.647C213.121 473.154 214.811 473.639 216.506 474.105C218.202 474.57 219.903 475.014 221.609 475.437C223.317 475.861 225.028 476.264 226.745 476.645C228.462 477.026 230.182 477.386 231.908 477.726C233.634 478.065 235.364 478.384 237.097 478.681C238.831 478.978 240.568 479.253 242.309 479.508C244.049 479.763 245.792 479.996 247.539 480.208C249.285 480.42 251.034 480.61 252.784 480.779C254.536 480.948 256.288 481.095 258.043 481.221C259.797 481.348 261.553 481.452 263.31 481.535C265.068 481.618 266.826 481.679 268.583 481.719C270.342 481.759 272.102 481.778 273.861 481.775C275.62 481.772 277.379 481.747 279.137 481.701C280.896 481.655 282.652 481.587 284.409 481.498C286.166 481.409 287.921 481.298 289.675 481.166C291.429 481.034 293.18 480.88 294.931 480.705C296.681 480.53 298.427 480.334 300.172 480.116C301.918 479.898 303.659 479.658 305.399 479.397C307.138 479.137 308.873 478.856 310.605 478.553C312.336 478.25 314.065 477.926 315.788 477.58C317.512 477.235 319.23 476.869 320.945 476.48C322.66 476.093 324.369 475.685 326.073 475.256C327.777 474.827 329.476 474.376 331.17 473.905C332.862 473.435 334.548 472.943 336.229 472.43C337.91 471.917 339.584 471.385 341.251 470.831C342.918 470.278 344.578 469.705 346.23 469.111C347.884 468.517 349.529 467.903 351.166 467.269C398.548 448.963 433.44 407.884 453.379 362.665C472.153 320.085 475.491 274.331 469.649 228.689C468.181 217.225 465.323 200.41 461.126 189.814Z" fill="#A2EC00"/>
<path d="M559.214 249.205L560.526 249.973C565.688 255.224 571.073 260.394 575.965 265.886C578.72 268.977 581.121 272.376 583.868 275.459C589.367 282.17 595.031 289.75 599.561 297.129C614.945 319.345 627.394 345.425 635.101 371.249L634.988 371.532C631.194 374.748 627.768 378.463 624.141 381.871C618.18 387.468 611.882 392.761 605.709 398.127C601.876 401.458 598.089 405.125 594.054 408.2L593.916 408.471C582.429 417.328 571.357 426.707 559.872 435.574C546.235 446.023 532.263 456.014 517.956 465.548C511.599 469.837 505.334 474.83 498.654 478.588C492.706 482.858 486.253 486.592 480.138 490.641C463.842 501.647 447.304 512.284 430.521 522.55C417.175 530.915 403.717 539.096 390.144 547.097C343.172 574.387 293.855 599.252 243.134 619.005C226.865 625.341 210.053 631.055 193.37 636.209C187.332 638.072 181.059 639.357 175.078 641.35C162.266 628.151 150.293 611.034 141.339 595.054C153.262 595.089 163.506 595.959 175.702 595.104C234.86 590.955 292.467 568.76 343.613 540.022C393.95 511.737 442.62 468.827 477.557 423.208C488.877 408.428 498.968 392.633 508.536 376.696C520.368 356.989 531.052 336.726 539.53 315.358C545.472 300.384 550.893 284.603 554.936 269.017C556.02 264.877 556.973 260.708 557.798 256.51C558.254 254.171 558.49 251.738 559.141 249.45C559.165 249.368 559.19 249.287 559.214 249.205Z" fill="#2CD945"/>
<path d="M544.607 363.953C549.13 364.21 553.339 366.248 556.663 369.246C561.873 373.945 564.62 380.928 564.854 387.827C564.869 388.238 564.876 388.648 564.871 389.06C564.867 389.471 564.852 389.882 564.828 390.293C564.803 390.704 564.767 391.113 564.721 391.523C564.676 391.931 564.619 392.339 564.554 392.744C564.488 393.151 564.411 393.555 564.324 393.957C564.237 394.359 564.141 394.759 564.034 395.156C563.927 395.554 563.81 395.949 563.684 396.34C563.557 396.732 563.42 397.12 563.274 397.505C563.127 397.89 562.972 398.271 562.806 398.649C562.64 399.026 562.465 399.399 562.281 399.766C562.096 400.135 561.903 400.5 561.699 400.858C561.497 401.217 561.285 401.571 561.065 401.919C560.844 402.268 560.615 402.611 560.377 402.947C560.139 403.284 559.893 403.615 559.638 403.94C559.384 404.265 559.12 404.584 558.85 404.895C558.579 405.207 558.301 405.512 558.015 405.81C554.133 409.801 549.506 411.771 543.936 411.872C539.2 411.543 534.94 409.816 531.386 406.671C526.386 402.246 523.513 395.23 523.221 388.669C522.925 382.009 525.176 375.201 529.804 370.299C533.847 366.017 538.771 364.164 544.607 363.953Z" fill="#C0F786"/>
<path d="M599.561 297.129C614.945 319.345 627.394 345.424 635.101 371.249L634.988 371.532C631.194 374.748 627.768 378.463 624.14 381.871C618.18 387.468 611.882 392.761 605.71 398.127C601.876 401.458 598.089 405.125 594.055 408.2C595.035 402.775 596.57 397.41 597.603 391.976C599.213 383.872 600.458 375.711 601.337 367.496C602.217 359.281 602.728 351.044 602.872 342.783C602.966 337.598 603.139 332.267 602.502 327.114C602.662 317.071 600.368 307.101 599.561 297.129Z" fill="#6CF037"/>
<path d="M37.5369 134L791.436 176.611C791.801 177.338 791.935 177.838 791.933 178.648C791.893 183.628 791.414 188.683 791.139 193.658L789.509 222.484C789.292 226.329 789.032 241.3 788.075 244.109C787.981 244.379 787.887 244.537 787.746 244.799C788.539 242.416 787.435 237.772 786.926 235.321C786.158 231.657 784.058 222.795 780.738 220.617C780.688 218.597 777.817 215.988 776.428 214.656C761.466 200.278 740.85 197.409 720.848 197.817C685.281 198.542 640.013 212.824 607.294 226.542C602.024 228.751 596.987 231.538 591.763 233.867C583.576 237.518 567.184 244.751 560.526 249.973L559.214 249.205C559.17 249.105 559.143 248.997 559.084 248.905C557.463 246.393 551.8 242.212 549.213 240.003C524.511 218.913 492.166 200.076 461.126 189.814C465.322 200.41 468.18 217.225 469.648 228.689C475.49 274.331 472.153 320.086 453.378 362.666C433.44 407.884 398.548 448.963 351.166 467.269C349.528 467.903 347.883 468.517 346.23 469.111C344.578 469.705 342.918 470.279 341.25 470.832C339.584 471.385 337.909 471.918 336.229 472.43C334.548 472.943 332.861 473.435 331.168 473.905C329.476 474.376 327.777 474.827 326.073 475.256C324.369 475.685 322.659 476.093 320.945 476.481C319.23 476.869 317.511 477.235 315.787 477.58C314.064 477.926 312.336 478.25 310.604 478.553C308.873 478.856 307.137 479.138 305.399 479.398C303.659 479.658 301.918 479.898 300.172 480.116C298.427 480.334 296.68 480.53 294.93 480.705C293.18 480.88 291.428 481.035 289.675 481.166C287.921 481.298 286.165 481.409 284.409 481.498C282.652 481.588 280.894 481.656 279.137 481.701C277.378 481.747 275.619 481.772 273.861 481.775C272.101 481.779 270.342 481.76 268.583 481.72C266.825 481.68 265.068 481.618 263.31 481.535C261.553 481.453 259.797 481.348 258.042 481.221C256.288 481.096 254.535 480.948 252.784 480.779C251.033 480.61 249.284 480.42 247.538 480.208C245.792 479.996 244.049 479.763 242.309 479.509C240.568 479.253 238.831 478.978 237.097 478.681C235.364 478.384 233.634 478.066 231.908 477.727C230.182 477.386 228.462 477.026 226.744 476.645C225.027 476.264 223.315 475.861 221.609 475.437C219.903 475.015 218.201 474.57 216.506 474.105C214.81 473.639 213.121 473.154 211.437 472.648C209.753 472.141 208.076 471.614 206.406 471.066C204.735 470.519 203.071 469.952 201.415 469.363C199.759 468.775 198.11 468.167 196.469 467.538C194.828 466.91 193.196 466.261 191.571 465.593C189.946 464.923 188.33 464.236 186.721 463.527C183.507 462.147 180.323 460.698 177.171 459.181C174.019 457.664 170.903 456.08 167.82 454.43C164.738 452.778 161.693 451.062 158.686 449.282C155.679 447.5 152.711 445.656 149.784 443.747C146.858 441.839 143.975 439.868 141.134 437.836C138.293 435.804 135.499 433.712 132.749 431.56C130.001 429.409 127.3 427.199 124.647 424.931C121.995 422.664 119.393 420.34 116.843 417.961C114.913 416.141 109.836 411.869 108.886 409.718L107.924 409.685C102.953 438.363 103.269 467.885 106.971 496.69C107.717 502.496 108.217 508.934 109.997 514.533C102.357 520.903 95.3825 527.974 88.3448 534.975C58.7614 564.403 31.1058 597.933 16.0799 637.117C14.1744 642.086 11.2912 647.961 10.5501 653.229C8.88445 659.277 8.66945 665.481 7.15649 671.497L37.5369 134Z" fill="#2CD945"/>
<path d="M197.868 247.601C197.956 247.588 198.044 247.577 198.133 247.561C202.115 246.825 206.009 243.03 209.681 241.265C213.955 239.209 218.418 237.376 222.831 235.632C223.831 235.244 224.837 234.872 225.848 234.514C226.86 234.157 227.876 233.814 228.899 233.486C229.92 233.158 230.947 232.845 231.978 232.547C233.009 232.249 234.045 231.966 235.084 231.699C236.124 231.431 237.167 231.179 238.214 230.942C239.261 230.705 240.312 230.483 241.366 230.276C242.42 230.07 243.478 229.88 244.536 229.704C245.597 229.529 246.658 229.369 247.723 229.225C248.787 229.081 249.854 228.952 250.923 228.839C251.991 228.726 253.061 228.629 254.132 228.547C255.204 228.465 256.276 228.399 257.349 228.348C258.423 228.298 259.496 228.264 260.571 228.245C261.646 228.226 262.719 228.223 263.794 228.235C264.869 228.247 265.943 228.276 267.016 228.32C268.09 228.364 269.163 228.424 270.235 228.499C271.307 228.575 272.378 228.666 273.447 228.772C274.516 228.879 275.584 229.001 276.649 229.139C277.715 229.277 278.779 229.43 279.84 229.599C280.901 229.768 281.96 229.953 283.016 230.153C284.071 230.353 285.123 230.568 286.173 230.799C287.222 231.03 288.268 231.276 289.31 231.538C290.351 231.799 291.389 232.075 292.423 232.367C293.457 232.659 294.486 232.966 295.51 233.288C296.534 233.609 297.555 233.946 298.57 234.298C299.583 234.65 300.592 235.016 301.597 235.398C302.6 235.779 303.597 236.175 304.59 236.585C305.582 236.995 306.567 237.42 307.546 237.859C308.525 238.298 309.498 238.752 310.464 239.219C311.429 239.687 312.388 240.169 313.339 240.665C314.29 241.16 315.234 241.67 316.17 242.193C317.107 242.717 318.034 243.253 318.954 243.804C319.874 244.354 320.786 244.918 321.689 245.495C345.078 260.683 362.914 284.682 368.636 312.026C372.764 331.749 369.352 356.609 357.933 373.513C357.632 373.957 357.324 374.397 357.011 374.835C356.699 375.272 356.381 375.705 356.057 376.134C355.734 376.564 355.405 376.989 355.072 377.41C354.737 377.831 354.399 378.248 354.054 378.661C353.711 379.074 353.361 379.483 353.007 379.888C352.652 380.292 352.293 380.692 351.929 381.089C351.564 381.484 351.195 381.875 350.822 382.263C350.448 382.65 350.069 383.031 349.686 383.409C349.302 383.787 348.914 384.16 348.521 384.528C348.129 384.897 347.732 385.26 347.33 385.62C346.929 385.978 346.522 386.332 346.112 386.681C345.702 387.03 345.287 387.374 344.868 387.712C344.449 388.051 344.027 388.385 343.599 388.713C343.172 389.042 342.74 389.365 342.305 389.683C341.87 390.002 341.431 390.315 340.988 390.621C340.546 390.929 340.099 391.231 339.648 391.528C339.198 391.825 338.744 392.116 338.286 392.401C337.829 392.687 337.367 392.966 336.903 393.241C336.439 393.516 335.97 393.784 335.499 394.047C335.028 394.31 334.554 394.567 334.077 394.819C333.598 395.072 333.118 395.317 332.634 395.557C332.15 395.796 331.664 396.031 331.174 396.259C330.685 396.487 330.192 396.709 329.697 396.926C329.203 397.142 328.704 397.352 328.204 397.557C327.704 397.761 327.201 397.959 326.696 398.151C326.192 398.343 325.684 398.528 325.174 398.708C324.664 398.888 324.153 399.062 323.639 399.229C323.125 399.397 322.608 399.557 322.09 399.712C321.573 399.866 321.052 400.015 320.53 400.157C320.009 400.299 319.486 400.436 318.96 400.565C318.435 400.694 317.909 400.818 317.38 400.935C316.852 401.051 316.323 401.161 315.792 401.266C297.829 404.732 280.522 399.01 265.737 389.069C252.052 379.868 242.198 368.955 229.794 358.84C212.747 344.94 191.416 335.345 168.976 339.469C150.39 342.882 137.969 353.478 127.666 368.531C122.235 376.465 117.837 385.539 114.152 394.38C112.912 397.355 110.008 408.616 108.887 409.718L107.924 409.685C108.203 408.059 108.496 406.434 108.803 404.814C109.111 403.192 109.432 401.574 109.768 399.958C110.104 398.342 110.454 396.729 110.818 395.119C111.182 393.509 111.56 391.902 111.953 390.3C112.345 388.696 112.751 387.096 113.171 385.499C113.592 383.903 114.026 382.31 114.474 380.722C114.923 379.133 115.385 377.549 115.861 375.968C116.338 374.387 116.827 372.81 117.331 371.237C117.835 369.666 118.353 368.097 118.884 366.534C119.415 364.971 119.96 363.412 120.519 361.857C121.078 360.304 121.65 358.755 122.236 357.21C122.822 355.667 123.421 354.127 124.034 352.593C124.647 351.06 125.273 349.531 125.913 348.008C126.553 346.485 127.206 344.967 127.872 343.456C128.538 341.944 129.218 340.437 129.911 338.938C130.604 337.437 131.31 335.943 132.029 334.456C132.748 332.968 133.48 331.486 134.225 330.011C134.969 328.535 135.727 327.067 136.499 325.604C137.269 324.142 138.053 322.686 138.85 321.237C139.646 319.789 140.455 318.347 141.277 316.912C142.098 315.477 142.933 314.049 143.779 312.63C144.627 311.209 145.485 309.795 146.358 308.39C147.229 306.985 148.112 305.586 149.008 304.196C149.904 302.805 150.813 301.423 151.734 300.048C152.653 298.673 153.587 297.306 154.531 295.947C155.475 294.589 156.432 293.238 157.4 291.896C158.368 290.553 159.348 289.219 160.339 287.894C161.331 286.569 162.334 285.251 163.349 283.944C164.363 282.635 165.389 281.336 166.427 280.045C167.464 278.755 168.513 277.474 169.572 276.201C170.633 274.929 171.704 273.665 172.786 272.411C173.869 271.157 174.962 269.912 176.066 268.676C182.792 261.283 189.842 253.648 197.868 247.601Z" fill="#00B045"/>
<path d="M35.5001 131.5L791.435 176.611C791.8 177.338 791.935 177.838 791.932 178.648C791.893 183.628 791.413 188.682 791.138 193.658L789.509 222.484C789.292 226.329 789.031 241.3 788.075 244.108C787.98 244.379 787.886 244.537 787.745 244.799C788.539 242.415 787.434 237.772 786.926 235.321C786.158 231.657 784.058 222.795 780.737 220.617C780.688 218.597 777.816 215.988 776.427 214.656C761.466 200.277 740.849 197.409 720.847 197.817C685.281 198.542 640.012 212.824 607.292 226.542C602.024 228.751 596.986 231.538 591.763 233.867C583.575 237.518 567.183 244.751 560.525 249.973L559.214 249.205C559.17 249.105 559.143 248.997 559.084 248.905C557.462 246.393 551.8 242.212 549.212 240.003C524.51 218.912 492.166 200.076 461.126 189.814C453.843 187.249 446.338 185.419 438.822 183.666C437.022 183.263 435.217 182.879 433.407 182.513C431.598 182.148 429.785 181.801 427.969 181.473C426.153 181.145 424.333 180.835 422.51 180.545C420.687 180.254 418.861 179.983 417.033 179.73C415.204 179.477 413.373 179.243 411.539 179.029C409.706 178.814 407.87 178.618 406.033 178.441C404.195 178.264 402.356 178.106 400.515 177.967C398.674 177.828 396.832 177.708 394.988 177.608C393.145 177.507 391.302 177.425 389.456 177.362C387.611 177.3 385.766 177.256 383.919 177.232C382.074 177.207 380.228 177.202 378.382 177.215C376.536 177.229 374.69 177.262 372.845 177.314C371 177.365 369.155 177.436 367.311 177.526C365.467 177.616 363.625 177.725 361.784 177.853C359.942 177.981 358.103 178.129 356.265 178.295C354.426 178.461 352.59 178.646 350.756 178.85C348.922 179.054 347.089 179.277 345.261 179.519C343.43 179.761 341.604 180.022 339.779 180.302C337.956 180.582 336.135 180.88 334.318 181.198C332.5 181.515 330.686 181.851 328.876 182.206C327.065 182.561 325.259 182.935 323.456 183.327C321.653 183.72 319.856 184.13 318.062 184.56C316.268 184.989 314.479 185.437 312.695 185.904C310.91 186.371 309.131 186.855 307.358 187.359C305.583 187.862 303.815 188.384 302.052 188.924C300.289 189.463 298.531 190.022 296.78 190.598C295.029 191.174 293.285 191.768 291.547 192.381C289.808 192.993 288.076 193.623 286.351 194.272C284.625 194.92 282.908 195.586 281.197 196.269C279.486 196.953 277.781 197.654 276.085 198.373C274.39 199.092 272.701 199.829 271.021 200.583C269.34 201.337 267.667 202.108 266.002 202.896C241.486 214.428 217.387 228.727 197.867 247.601C189.841 253.648 182.791 261.283 176.065 268.676C174.961 269.912 173.868 271.157 172.786 272.411C171.703 273.664 170.632 274.928 169.572 276.2C168.512 277.473 167.464 278.755 166.427 280.045C165.388 281.335 164.362 282.635 163.348 283.943C162.332 285.251 161.33 286.568 160.338 287.894C159.347 289.219 158.368 290.553 157.399 291.895C156.431 293.238 155.474 294.589 154.529 295.947C153.586 297.306 152.653 298.672 151.733 300.047C150.812 301.423 149.904 302.805 149.008 304.196C148.112 305.586 147.228 306.984 146.357 308.389C145.485 309.795 144.626 311.209 143.779 312.629C142.932 314.049 142.097 315.477 141.276 316.912C140.455 318.347 139.646 319.789 138.849 321.237C138.053 322.686 137.269 324.141 136.497 325.603C135.727 327.067 134.969 328.535 134.225 330.01C133.479 331.486 132.747 332.968 132.028 334.455C131.309 335.943 130.603 337.437 129.91 338.938C129.217 340.437 128.538 341.944 127.872 343.455C127.205 344.967 126.552 346.484 125.912 348.008C125.273 349.531 124.646 351.059 124.033 352.593C123.421 354.127 122.821 355.666 122.235 357.21C121.649 358.755 121.077 360.303 120.518 361.857C119.959 363.412 119.414 364.97 118.883 366.534C118.352 368.097 117.834 369.665 117.33 371.237C116.827 372.81 116.337 374.386 115.861 375.968C115.384 377.548 114.922 379.133 114.474 380.721C114.026 382.31 113.591 383.903 113.171 385.499C112.751 387.095 112.344 388.696 111.952 390.299C111.56 391.901 111.181 393.509 110.817 395.119C110.453 396.728 110.103 398.341 109.768 399.957C109.432 401.573 109.11 403.191 108.803 404.813C108.495 406.434 108.202 408.059 107.923 409.685C102.953 438.363 103.269 467.885 106.971 496.69C107.717 502.495 108.217 508.933 109.997 514.533C102.357 520.903 95.3823 527.974 88.3446 534.974C58.7611 564.403 31.1055 597.933 16.0796 637.117C14.1742 642.086 11.2909 647.961 10.5498 653.229C8.88421 659.277 8.66921 665.481 7.15625 671.497L35.5001 131.5Z" fill="#FEFEFE"/>
<path d="M584.448 276.175C620.674 260.739 656.191 241.463 687.572 252.334L678.17 248.094C615.087 226.906 718.301 201.471 718.502 197.92C655.7 200.199 611.966 225.278 558.158 248.508C566.894 255.05 574.679 268.956 584.448 276.175Z" fill="#FC9949"/>
<mask id="mask0_2047_1217" style="mask-type:luminance" maskUnits="userSpaceOnUse" x="1368" y="650" width="342" height="331">
<path d="M1710 650H1368V981H1710V650Z" fill="white"/>
</mask>
<g mask="url(#mask0_2047_1217)">
<mask id="mask1_2047_1217" style="mask-type:luminance" maskUnits="userSpaceOnUse" x="1368" y="650" width="342" height="331">
<path d="M1710 650H1368V981H1710V650Z" fill="white"/>
</mask>
<g mask="url(#mask1_2047_1217)">
<path d="M1680.66 815.08C1681.14 821.525 1678.24 828.211 1673.94 833.026C1671.13 836.18 1667 838.961 1662.74 839.825C1666.18 831.322 1674.02 821.47 1680.66 815.08Z" fill="#570F16"/>
<path d="M1404.17 795.488C1406.13 797.818 1409.59 811.159 1410.02 814.453C1410.33 816.788 1410.31 819.023 1410.06 821.367C1409.82 823.7 1408.93 826.015 1408.73 828.236C1403.67 839.411 1395.47 847.261 1383.71 851.702C1382.03 852.341 1380.31 852.88 1378.57 853.321L1376.87 853.551C1377.97 849.841 1380.92 844.317 1382.64 840.58C1387.64 829.736 1392.77 818.95 1398.03 808.219C1399.16 805.914 1400.24 803.591 1401.28 801.251C1402.15 799.329 1402.95 797.218 1404.17 795.488Z" fill="#FB9735"/>
<path d="M1644.13 668.5C1651.46 667.584 1656.4 668.824 1662.28 673.227C1666.99 676.755 1688.21 693.941 1689.97 698.379C1691.47 700.201 1692.45 702.713 1693.13 704.932C1695.1 711.429 1696.1 719.115 1697.51 725.835L1700.47 739.351C1701.58 744.234 1703.07 749.256 1702.95 754.297C1700.05 750.757 1696.78 747.499 1693.84 743.986C1692.56 742.462 1691.43 740.8 1690.27 739.192C1688.79 737.139 1687.4 735.315 1686.65 732.88C1685.35 728.661 1685.47 723.715 1683.5 719.746C1680.99 714.676 1675.39 716.396 1670.77 715.939C1670.12 715.875 1669.33 715.868 1668.73 715.637C1668.66 715.611 1668.59 715.582 1668.53 715.555L1668.84 715.405C1670.82 715.589 1672.82 715.731 1674.81 715.757C1676.11 715.774 1677.76 715.575 1679.03 715.829C1680.03 716.028 1681.31 716.885 1682.25 717.327C1682.94 716.112 1687.78 702.185 1687.75 701.416L1687.38 701.262C1684.16 702.134 1680.84 702.77 1677.49 702.844C1668.56 703.043 1660.92 699.998 1654.46 694.009C1646.72 686.833 1644.4 678.559 1644.13 668.5Z" fill="#D2340C"/>
<path d="M1594.65 663.041C1606.6 663.573 1615.77 671.862 1627.76 671.486C1633.37 671.31 1638.66 669.48 1644.13 668.5C1644.4 678.559 1646.72 686.833 1654.46 694.009C1660.92 699.998 1668.56 703.043 1677.49 702.844C1680.84 702.77 1684.16 702.134 1687.38 701.262L1687.75 701.416C1687.78 702.185 1682.94 716.112 1682.25 717.327C1681.31 716.885 1680.03 716.028 1679.03 715.829C1677.76 715.575 1676.11 715.774 1674.81 715.757C1672.82 715.731 1670.82 715.589 1668.84 715.405L1668.53 715.555C1668.59 715.582 1668.66 715.611 1668.73 715.637C1669.33 715.868 1670.12 715.875 1670.77 715.939C1675.39 716.396 1680.99 714.676 1683.5 719.746C1685.47 723.715 1685.35 728.661 1686.65 732.88C1687.4 735.315 1688.79 737.139 1690.27 739.192C1691.43 740.8 1692.56 742.462 1693.84 743.986C1696.78 747.499 1700.05 750.757 1702.95 754.297C1702.96 756.928 1702.34 759.694 1701.96 762.302C1700.94 769.036 1699.69 775.729 1698.21 782.383C1696.86 788.709 1695.59 795.255 1692.95 801.213C1691.52 804.444 1689.69 807.013 1687.12 809.507C1685.09 811.488 1682.58 812.998 1680.66 815.08C1674.01 821.469 1666.17 831.322 1662.74 839.825C1659.26 846.621 1655.56 854.903 1648.97 859.378C1645.34 861.841 1640.87 863.442 1636.68 864.808C1632.07 866.313 1627.29 867.304 1622.56 868.369C1614.83 870.105 1607.22 871.887 1599.89 874.882C1597.94 875.678 1595.63 876.555 1593.9 877.718C1588.82 880.353 1584.18 883.607 1579.2 886.389C1576.47 887.913 1573.6 889.169 1570.81 890.572C1564.93 893.527 1558.01 897.471 1553.35 902.058C1551.75 903.632 1550.38 905.416 1549.11 907.248C1545.8 912.039 1543.91 917.62 1541.08 922.675C1540.55 923.612 1540 924.84 1539.28 925.628C1529.67 942.182 1520.11 943.383 1503.63 950.117C1500.58 951.576 1497.4 952.806 1494.38 954.328L1494.23 954.381C1490.35 955.717 1486.56 957.758 1482.85 959.48C1478.62 961.439 1474.31 963.23 1470.09 965.196C1468.09 966.127 1463.34 968.738 1461.37 969.011C1456.5 969.686 1442.82 965.95 1437.76 964.268C1433.1 962.672 1428.67 959.926 1424.34 957.634C1420.02 955.343 1415.73 953.046 1411.52 950.563C1409.67 949.468 1407.71 948.413 1406.05 947.049C1404.49 945.04 1403.37 942.516 1402.14 940.296C1400.14 936.697 1398.12 933.112 1396.07 929.541C1389.13 917.327 1382.13 905.149 1375.05 893.007C1374.83 888.188 1375.56 882.332 1375.78 877.417C1376.15 869.481 1376.22 861.467 1376.87 853.551L1378.57 853.32C1380.31 852.88 1382.03 852.341 1383.71 851.702C1395.47 847.261 1403.67 839.411 1408.73 828.236C1408.93 826.015 1409.82 823.7 1410.06 821.367C1410.31 819.023 1410.33 816.788 1410.02 814.453C1409.59 811.159 1406.13 797.818 1404.17 795.487C1405.63 794.951 1407.06 794.18 1408.49 793.561C1412.12 792.006 1415.74 790.412 1419.35 788.779C1425.35 786.069 1431.43 783.534 1437.41 780.785C1438.65 780.083 1440.14 779.568 1441.45 778.98C1444.29 777.707 1447.09 776.424 1449.82 774.948C1453.32 773.057 1456.82 771.198 1460.12 768.983C1471.58 761.278 1481.13 750.68 1489.45 739.937C1489.97 739.161 1490.59 738.437 1491.18 737.703C1492.95 735.5 1494.31 732.672 1495.8 730.264C1498.74 725.542 1501.83 720.907 1504.69 716.143C1509.2 708.616 1513.16 699.932 1519.78 693.897C1522.17 691.642 1524.64 689.587 1527.57 688.008C1530.41 686.483 1533.49 685.361 1536.49 684.17C1540.19 682.709 1543.87 681.209 1547.54 679.67C1556.13 676.08 1564.66 672.348 1573.34 668.954C1577.81 667.208 1582.3 665.435 1586.93 664.111C1589.49 663.378 1591.99 663.088 1594.65 663.041Z" fill="#ED6422"/>
<path d="M1616.14 709.407C1616.15 708.986 1615.85 708.369 1615.74 707.939C1615.36 706.533 1613.96 702.14 1614.49 700.871C1617.23 703.808 1618.77 707.079 1619.38 710.995C1618.28 710.621 1617.16 709.956 1616.14 709.407Z" fill="#C32505"/>
<path d="M1597.85 697.47C1599.07 696.972 1600.2 696.467 1601.34 695.809C1603.92 696.495 1606.47 697.261 1608.99 698.106C1609.83 698.388 1612.46 699.603 1613.1 699.493C1611.01 700.367 1609.47 702.244 1607.25 703.081C1606.92 702.741 1603.13 702.09 1601.94 701.407C1600.25 700.431 1599.05 698.955 1597.85 697.47Z" fill="#D2340C"/>
<path d="M1585.97 711.576L1586.09 712.205C1587.19 712.676 1588.44 712.781 1589.54 713.26C1589.96 713.788 1590.79 714.025 1591.43 714.245C1592.41 715.102 1593.46 715.952 1594.55 716.667C1595.51 718.381 1595.57 720.811 1595.88 722.727C1594.91 723.628 1593.92 724.479 1592.88 725.312C1590.65 723.806 1587.91 720.159 1586.42 717.89C1584.96 715.657 1585.41 714.012 1585.97 711.576Z" fill="#D2340C"/>
<path d="M1613.1 699.494C1613.59 699.881 1614.18 700.327 1614.49 700.871C1613.96 702.14 1615.36 706.533 1615.74 707.94C1615.85 708.369 1616.15 708.987 1616.14 709.407C1613.32 710.305 1608.96 711.659 1607.08 713.968C1606.79 711.783 1605.42 710.11 1604.95 708.021C1605.42 706.21 1605.68 704.329 1607.25 703.082C1609.47 702.244 1611.01 700.368 1613.1 699.494Z" fill="#AB2E08"/>
<path d="M1606.52 719.886C1607.45 722.916 1608.73 724.873 1610.98 727.147C1610.54 727.359 1610.1 727.553 1609.64 727.728C1609.19 727.903 1608.73 728.059 1608.26 728.196C1607.79 728.334 1607.32 728.451 1606.84 728.549C1606.36 728.647 1605.88 728.725 1605.39 728.783C1600.79 729.313 1596.5 728.074 1592.88 725.312C1593.92 724.48 1594.91 723.628 1595.88 722.728C1598.09 720.995 1603.69 720.103 1606.52 719.886Z" fill="#AB2E08"/>
<path d="M1594.55 716.667C1597.67 713.436 1601.33 710.699 1604.95 708.021C1605.42 710.11 1606.79 711.784 1607.08 713.969C1606.81 715.848 1606.29 717.995 1606.52 719.886C1603.69 720.103 1598.09 720.996 1595.88 722.729C1595.57 720.812 1595.51 718.382 1594.55 716.667Z" fill="#D2340C"/>
<path d="M1452.52 921.106C1453.77 921.004 1454.96 921.01 1456.13 921.478C1457.61 922.067 1458.68 923.248 1459.23 924.69C1459.27 924.79 1459.3 924.892 1459.33 924.995C1459.37 925.098 1459.4 925.202 1459.43 925.306C1459.45 925.41 1459.48 925.515 1459.5 925.621C1459.52 925.726 1459.54 925.832 1459.56 925.939C1459.57 926.045 1459.59 926.152 1459.6 926.259C1459.61 926.366 1459.62 926.473 1459.62 926.581C1459.63 926.688 1459.63 926.796 1459.63 926.904C1459.63 927.011 1459.63 927.119 1459.62 927.226C1459.61 927.334 1459.6 927.441 1459.59 927.548C1459.58 927.655 1459.57 927.762 1459.55 927.868C1459.53 927.975 1459.51 928.081 1459.49 928.186C1459.47 928.291 1459.44 928.396 1459.41 928.5C1459.38 928.604 1459.35 928.707 1459.32 928.81C1459.28 928.912 1459.25 929.014 1459.21 929.114C1459.17 929.215 1459.12 929.315 1459.08 929.413C1459.04 929.512 1458.99 929.609 1458.94 929.705C1457.98 931.552 1456.39 932.471 1454.42 933.081C1453.13 933.235 1451.88 933.172 1450.67 932.684C1450.57 932.648 1450.48 932.609 1450.39 932.568C1450.3 932.527 1450.21 932.484 1450.13 932.438C1450.04 932.393 1449.95 932.345 1449.87 932.295C1449.78 932.245 1449.7 932.193 1449.62 932.139C1449.54 932.085 1449.45 932.029 1449.37 931.971C1449.3 931.913 1449.22 931.853 1449.14 931.791C1449.07 931.729 1448.99 931.665 1448.92 931.6C1448.85 931.534 1448.78 931.466 1448.71 931.397C1448.64 931.328 1448.57 931.257 1448.51 931.184C1448.44 931.112 1448.38 931.037 1448.32 930.962C1448.25 930.886 1448.2 930.809 1448.14 930.73C1448.08 930.651 1448.03 930.571 1447.97 930.489C1447.92 930.408 1447.87 930.325 1447.82 930.241C1447.77 930.157 1447.73 930.072 1447.68 929.985C1447.64 929.899 1447.6 929.811 1447.56 929.723C1447.52 929.634 1447.48 929.545 1447.45 929.455C1447.38 929.266 1447.32 929.074 1447.27 928.879C1447.22 928.684 1447.18 928.488 1447.15 928.289C1447.12 928.09 1447.1 927.891 1447.09 927.69C1447.08 927.49 1447.08 927.289 1447.09 927.089C1447.1 926.888 1447.12 926.688 1447.15 926.49C1447.18 926.291 1447.23 926.095 1447.28 925.9C1447.33 925.706 1447.39 925.514 1447.46 925.326C1447.53 925.137 1447.61 924.952 1447.7 924.771C1448.71 922.704 1450.39 921.81 1452.52 921.106Z" fill="#ED460C"/>
<path d="M1616.14 709.407C1617.16 709.957 1618.28 710.621 1619.38 710.995C1619.86 715.289 1619.06 719.552 1616.22 722.979C1615.86 723.407 1615.48 723.816 1615.08 724.207C1614.68 724.597 1614.26 724.968 1613.82 725.318C1613.38 725.668 1612.92 725.996 1612.45 726.301C1611.97 726.607 1611.48 726.889 1610.98 727.147C1608.73 724.873 1607.45 722.916 1606.52 719.886C1606.29 717.995 1606.81 715.847 1607.08 713.968C1608.96 711.659 1613.32 710.304 1616.14 709.407Z" fill="#891404"/>
<path d="M1540.44 847.788C1541.85 847.635 1543.47 847.936 1544.72 848.598C1546.29 849.43 1547.33 850.869 1547.81 852.518C1548.39 854.473 1547.95 856.478 1546.96 858.234C1545.69 860.496 1543.91 861.638 1541.42 862.359C1539.66 862.413 1538.1 862.248 1536.56 861.326C1534.95 860.354 1533.88 858.745 1533.5 856.95C1533.47 856.826 1533.45 856.7 1533.43 856.575C1533.42 856.449 1533.4 856.323 1533.39 856.197C1533.38 856.071 1533.37 855.944 1533.36 855.817C1533.36 855.691 1533.36 855.564 1533.36 855.437C1533.36 855.31 1533.37 855.184 1533.37 855.057C1533.38 854.93 1533.39 854.804 1533.41 854.678C1533.43 854.552 1533.44 854.427 1533.47 854.302C1533.49 854.177 1533.51 854.052 1533.54 853.929C1533.57 853.805 1533.6 853.682 1533.64 853.56C1533.67 853.437 1533.71 853.316 1533.75 853.196C1533.79 853.076 1533.84 852.956 1533.89 852.838C1533.93 852.72 1533.99 852.604 1534.04 852.488C1534.09 852.373 1534.15 852.258 1534.21 852.146C1534.27 852.033 1534.34 851.922 1534.4 851.813C1534.47 851.703 1534.54 851.596 1534.61 851.489C1534.68 851.383 1534.76 851.279 1534.83 851.177C1534.91 851.065 1535 850.956 1535.09 850.848C1535.17 850.741 1535.26 850.636 1535.36 850.533C1535.45 850.429 1535.55 850.329 1535.64 850.23C1535.74 850.131 1535.84 850.035 1535.95 849.942C1536.05 849.848 1536.15 849.756 1536.26 849.667C1536.37 849.579 1536.48 849.493 1536.59 849.409C1536.7 849.325 1536.82 849.244 1536.93 849.166C1537.05 849.088 1537.17 849.013 1537.29 848.941C1537.41 848.868 1537.53 848.799 1537.65 848.732C1537.78 848.665 1537.9 848.601 1538.03 848.541C1538.15 848.48 1538.28 848.422 1538.41 848.368C1538.54 848.313 1538.67 848.261 1538.8 848.213C1538.94 848.165 1539.07 848.12 1539.2 848.078C1539.34 848.036 1539.47 847.997 1539.61 847.961C1539.75 847.926 1539.89 847.893 1540.02 847.865C1540.16 847.836 1540.3 847.81 1540.44 847.788Z" fill="#C32505"/>
<path d="M1585.97 711.576C1586.1 710.289 1586.51 708.922 1586.99 707.719C1588.97 702.694 1592.84 699.61 1597.85 697.471C1599.05 698.956 1600.25 700.431 1601.94 701.407C1603.13 702.091 1606.92 702.741 1607.25 703.082C1605.68 704.328 1605.42 706.21 1604.95 708.021C1601.33 710.699 1597.67 713.436 1594.55 716.667C1593.46 715.952 1592.41 715.102 1591.43 714.246C1590.79 714.026 1589.97 713.788 1589.54 713.26C1588.44 712.781 1587.19 712.676 1586.09 712.205L1585.97 711.576Z" fill="#ED460C"/>
<path d="M1590.82 702.892C1594.1 702.244 1597.65 701.707 1601.01 701.759C1599.56 703.943 1593.34 712.987 1591.43 714.245C1590.79 714.026 1589.97 713.788 1589.54 713.26C1589.54 710.242 1590.07 705.778 1590.82 702.892Z" fill="#FD6626"/>
<path d="M1532.16 717.547C1533.97 717.429 1535.79 717.724 1537.35 718.65C1537.45 718.706 1537.54 718.764 1537.63 718.825C1537.73 718.885 1537.82 718.948 1537.91 719.012C1538 719.077 1538.08 719.144 1538.17 719.214C1538.26 719.283 1538.34 719.354 1538.42 719.428C1538.5 719.501 1538.59 719.576 1538.66 719.654C1538.74 719.731 1538.82 719.81 1538.89 719.891C1538.97 719.972 1539.04 720.055 1539.11 720.139C1539.18 720.224 1539.24 720.31 1539.31 720.398C1539.37 720.486 1539.44 720.575 1539.5 720.666C1539.56 720.757 1539.62 720.85 1539.67 720.944C1539.73 721.038 1539.78 721.133 1539.83 721.229C1539.88 721.326 1539.93 721.423 1539.98 721.522C1540.02 721.621 1540.06 721.721 1540.1 721.821C1540.15 721.922 1540.18 722.024 1540.22 722.127C1540.25 722.23 1540.28 722.334 1540.31 722.438C1540.34 722.542 1540.37 722.647 1540.39 722.753C1540.95 725.22 1540.1 727.91 1538.67 729.965C1536.78 732.681 1534.18 734.288 1530.89 734.93C1528.87 735.118 1526.77 734.976 1525 733.921C1523.45 732.992 1522.48 731.535 1522.1 729.817C1521.56 727.367 1522.34 724.868 1523.76 722.829C1525.77 719.934 1528.65 718.189 1532.16 717.547Z" fill="#ED460C"/>
<path d="M1567.85 728.069C1569.97 727.965 1572.15 728.103 1573.95 729.33C1575.42 730.331 1576.18 731.893 1576.42 733.583C1576.84 736.462 1575.84 739.452 1574.05 741.75C1571.98 744.406 1569.04 745.801 1565.69 746.241C1563.68 746.347 1561.75 745.986 1560.08 744.833C1559.98 744.761 1559.88 744.686 1559.78 744.609C1559.68 744.531 1559.58 744.451 1559.48 744.369C1559.39 744.287 1559.29 744.202 1559.2 744.115C1559.11 744.028 1559.02 743.939 1558.93 743.848C1558.85 743.757 1558.76 743.663 1558.68 743.568C1558.6 743.472 1558.52 743.375 1558.44 743.276C1558.36 743.176 1558.29 743.075 1558.22 742.972C1558.15 742.868 1558.08 742.764 1558.01 742.657C1557.95 742.551 1557.88 742.442 1557.82 742.333C1557.76 742.223 1557.71 742.112 1557.65 742C1557.6 741.887 1557.55 741.773 1557.5 741.658C1557.45 741.543 1557.4 741.427 1557.36 741.31C1557.32 741.193 1557.28 741.075 1557.24 740.955C1557.21 740.836 1557.18 740.716 1557.15 740.596C1557.12 740.475 1557.09 740.353 1557.07 740.231C1557.04 740.109 1557.02 739.986 1557.01 739.863C1556.65 737.247 1557.77 734.77 1559.42 732.766C1561.59 730.131 1564.36 728.45 1567.85 728.069Z" fill="#D2340C"/>
<path d="M1497.53 838.263C1498.35 838.865 1499.13 839.45 1499.84 840.167C1508.13 847.884 1513.61 857.185 1513.81 868.549C1513.82 869.114 1513.83 869.65 1513.71 870.205C1513.2 869.998 1512.68 870.053 1512.14 870.067C1510.9 870.099 1495.99 871.047 1495.91 871.087C1495.83 871.125 1495.77 871.185 1495.71 871.233C1494.64 866.569 1492.09 862.078 1491.47 857.315C1493.19 850.887 1495.74 844.675 1497.53 838.263Z" fill="#C32505"/>
<path d="M1444.45 892.385C1446.97 890.813 1449.65 889.414 1452.27 887.996C1453.77 887.182 1455.33 886.197 1456.94 885.605C1460.18 886.121 1463.44 886.489 1466.68 887.019C1470.83 887.697 1474.96 888.556 1479.14 888.956C1480.06 891.582 1481.23 894.136 1482.33 896.696C1483.45 899.312 1484.52 901.966 1485.81 904.51C1481.48 905.76 1476.81 906.344 1472.29 906.032C1461.85 905.31 1451.3 899.987 1444.45 892.385Z" fill="#C32505"/>
<path d="M1495.71 871.233C1495.77 871.184 1495.83 871.125 1495.91 871.087C1495.99 871.047 1510.9 870.099 1512.14 870.066C1512.68 870.053 1513.2 869.998 1513.71 870.205C1513.26 879.986 1509.41 888.886 1501.9 895.56C1497.2 899.738 1491.84 902.569 1485.81 904.511C1484.51 901.967 1483.45 899.313 1482.33 896.697C1481.23 894.137 1480.06 891.583 1479.14 888.957C1481.56 886.592 1483.84 884.061 1486.17 881.614C1489.39 878.224 1492.72 874.826 1495.71 871.233Z" fill="#891404"/>
<path d="M1474.3 858.143C1477.4 857.451 1489.91 858.235 1491.47 857.312C1492.09 862.076 1494.64 866.568 1495.71 871.232C1492.72 874.825 1489.39 878.222 1486.17 881.612C1483.84 884.059 1481.56 886.591 1479.14 888.956C1474.96 888.556 1470.83 887.696 1466.68 887.018C1463.44 886.488 1460.18 886.12 1456.94 885.604C1457.15 880.433 1456.93 875.184 1456.89 870.007C1462.82 866.253 1468.31 861.808 1474.3 858.143Z" fill="#D2340C"/>
<path d="M1406.66 945.829V946.504L1406.78 946.572L1407.08 946.444C1407.21 946.388 1407.35 946.34 1407.48 946.277C1408.78 945.655 1410.77 945.946 1412.25 945.919C1417.93 945.813 1423.35 946.661 1428.82 948.112C1432.49 949.085 1444.25 953.537 1447.17 953.248C1447.54 953.211 1447.86 953.075 1448.18 952.891C1451.37 951.045 1454.25 948.918 1457.64 947.371C1461.26 945.721 1465.13 944.156 1468.9 942.873C1474.61 940.933 1481.23 939.179 1486.52 936.319C1489.92 934.478 1493.11 931.774 1495.36 928.682C1496.75 926.765 1497.35 924.533 1497.97 922.302C1499.3 917.572 1500.52 912.986 1503.85 909.145C1504.34 908.589 1504.85 908.055 1505.38 907.541C1505.91 907.028 1506.47 906.537 1507.04 906.069C1507.62 905.601 1508.22 905.158 1508.83 904.739C1509.45 904.32 1510.08 903.928 1510.73 903.561C1515.5 900.861 1520.99 899.374 1526.08 897.344C1529 896.182 1531.85 894.594 1534.56 893.034C1537.4 891.401 1540.07 889.688 1542.71 887.765C1543.42 887.244 1544.78 886.002 1545.6 885.933C1545.56 885.983 1545.52 886.035 1545.48 886.082C1544.39 887.267 1542.05 888.612 1540.67 889.572C1536.52 892.478 1531.86 895.175 1527.2 897.25C1520.4 900.282 1512.16 902.249 1506.51 907.204C1505.8 907.832 1505.25 908.641 1504.62 909.349C1503.63 910.468 1502.66 911.571 1501.91 912.86C1499.92 916.26 1498.54 922.738 1497.22 926.722C1497.32 926.73 1497.42 926.736 1497.52 926.745C1497.96 926.781 1498.15 926.878 1498.51 927.124C1498.78 927.309 1498.92 927.338 1499.24 927.38C1499.22 927.635 1499.11 927.749 1498.96 927.959C1499 928.197 1498.95 928.324 1499.16 928.482C1499.71 928.884 1501.61 929.144 1502.3 929.057C1502.66 929.012 1502.69 928.958 1502.88 928.683C1503.03 928.468 1503.17 928.283 1503.34 928.09C1505.1 928.635 1509.95 931.313 1511.69 932.312C1512.2 932.603 1512.76 932.778 1513.21 933.159C1514.48 934.217 1517.72 938.404 1518.96 938.769C1520.25 939.146 1520.28 938.272 1521.31 939.633C1522.57 939.845 1523.87 939.548 1525.08 939.982C1525.3 940.059 1525.52 940.125 1525.73 940.199C1527.13 940.042 1532.78 934.432 1533.87 933.1C1534.71 932.08 1535.52 931.029 1536.26 929.94C1536.59 929.457 1538.78 925.754 1538.97 925.634C1539.03 925.595 1539.11 925.6 1539.19 925.584L1539.28 925.628C1529.67 942.182 1520.11 943.383 1503.63 950.117C1495.83 945.709 1487.54 943.149 1478.54 942.304C1476.21 942.084 1474.05 941.762 1471.76 942.345C1469.06 943.029 1466.5 944.111 1463.93 945.139C1456.4 948.154 1448.97 951.654 1443.32 957.502C1442.24 958.623 1438.22 963.99 1437.76 964.268C1433.1 962.672 1428.67 959.927 1424.34 957.634C1420.02 955.343 1415.73 953.046 1411.52 950.564C1409.67 949.469 1407.71 948.413 1406.05 947.049L1406.66 945.829Z" fill="#FD6626"/>
<path d="M1437.76 964.268C1438.22 963.99 1442.24 958.623 1443.32 957.502C1448.97 951.654 1456.4 948.154 1463.93 945.139C1466.5 944.111 1469.06 943.029 1471.76 942.344C1474.05 941.761 1476.21 942.084 1478.54 942.304C1487.54 943.149 1495.83 945.709 1503.63 950.117C1500.58 951.576 1497.4 952.806 1494.38 954.328L1494.22 954.381C1490.35 955.717 1486.56 957.758 1482.85 959.48C1478.62 961.439 1474.31 963.23 1470.09 965.196C1468.09 966.127 1463.34 968.739 1461.37 969.011C1456.5 969.686 1442.82 965.95 1437.76 964.268Z" fill="#ED460C"/>
<path d="M1519.78 693.897C1522.17 691.642 1524.64 689.587 1527.57 688.008C1530.41 686.483 1533.49 685.361 1536.49 684.17C1540.19 682.709 1543.87 681.209 1547.54 679.67C1556.13 676.08 1564.66 672.348 1573.34 668.954C1577.81 667.208 1582.3 665.435 1586.93 664.111C1589.49 663.378 1591.99 663.088 1594.65 663.041C1584.54 677.498 1574.82 688.93 1557.91 696.069C1553.52 697.922 1549.05 699.459 1544.35 700.34C1538.85 701.371 1527.54 702.17 1522.74 699.005C1520.99 697.849 1520.11 695.866 1519.78 693.897Z" fill="#FB9735"/>
<path d="M1559.93 681.422C1560.79 681.362 1561.68 681.249 1562.52 681.54C1562.99 681.707 1563.44 682.011 1563.61 682.496C1563.84 683.156 1563.55 683.954 1563.23 684.535C1562.2 686.356 1560.34 687.244 1558.38 687.818C1557.48 687.887 1556.54 688.011 1555.67 687.689C1555.2 687.514 1554.77 687.188 1554.63 686.698C1554.45 686.086 1554.7 685.356 1555.01 684.822C1556.05 683 1557.93 681.966 1559.93 681.422Z" fill="#FD6626"/>
<path d="M1460.44 831.513C1467.08 829.972 1472.01 829.56 1478.81 830.353C1485.12 831.278 1492.7 834.09 1497.53 838.263C1495.74 844.675 1493.19 850.887 1491.47 857.315C1489.91 858.237 1477.4 857.452 1474.3 858.145C1468.31 861.809 1462.82 866.254 1456.89 870.008C1456.93 875.186 1457.15 880.435 1456.94 885.606C1455.33 886.198 1453.77 887.183 1452.27 887.997C1449.65 889.415 1446.97 890.814 1444.45 892.386C1443.21 891.129 1442.25 889.616 1441.05 888.317C1440.29 886.377 1438.89 884.639 1438.01 882.736C1437.82 882.322 1437.64 881.905 1437.46 881.486C1437.29 881.066 1437.12 880.644 1436.96 880.219C1436.8 879.794 1436.64 879.367 1436.5 878.937C1436.35 878.507 1436.21 878.075 1436.08 877.641C1435.95 877.207 1435.82 876.771 1435.7 876.332C1435.59 875.894 1435.48 875.454 1435.37 875.013C1435.27 874.571 1435.17 874.128 1435.09 873.683C1435 873.239 1434.92 872.793 1434.85 872.346C1434.77 871.899 1434.71 871.45 1434.65 871.001C1434.59 870.552 1434.54 870.102 1434.5 869.651C1434.46 869.2 1434.42 868.749 1434.4 868.297C1434.37 867.845 1434.35 867.393 1434.34 866.94C1434.33 866.488 1434.32 866.035 1434.33 865.583C1434.33 865.13 1434.34 864.677 1434.36 864.225C1434.38 863.773 1434.4 863.321 1434.44 862.87C1434.47 862.418 1434.51 861.967 1434.56 861.517C1434.81 859.676 1435.11 857.879 1435.67 856.101C1436.67 851.039 1440.44 845.103 1443.72 841.073C1447.86 836.869 1454.9 833.362 1460.44 831.513Z" fill="#ED6422"/>
<path d="M1446.81 848.186C1449.13 847.66 1451.53 847.377 1453.87 846.967C1458.51 846.155 1463.2 845.296 1467.8 844.272C1468.37 844.144 1469.22 843.785 1469.72 844.057C1470.99 848.745 1472.55 853.603 1474.3 858.145C1468.31 861.809 1462.82 866.254 1456.89 870.008C1451.24 866.618 1446.71 861.321 1441.05 858.009L1441.06 857.843C1443.31 854.829 1444.87 851.375 1446.81 848.186Z" fill="#FD6626"/>
<path d="M1478.81 830.354C1485.12 831.279 1492.7 834.089 1497.53 838.263C1495.74 844.674 1493.19 850.888 1491.47 857.315C1489.91 858.238 1477.4 857.452 1474.3 858.144C1472.55 853.603 1470.99 848.745 1469.72 844.057C1470.24 842.792 1472.4 840.232 1473.31 838.878C1475.15 836.109 1476.7 832.92 1478.81 830.354Z" fill="#ED460C"/>
<path d="M1493 755.636C1495.01 761.789 1499.03 765.14 1504.83 768.05C1517 774.156 1531.02 773.629 1540.75 784.124C1542.89 786.431 1544.71 789.041 1545.68 792.019C1547.56 797.788 1546.6 803.869 1543.7 809.154C1537.3 820.855 1517.37 830.855 1505.47 837.319C1503.64 838.312 1501.61 839.106 1499.84 840.167C1499.13 839.45 1498.35 838.865 1497.53 838.263C1492.7 834.09 1485.12 831.278 1478.81 830.353C1472.01 829.56 1467.08 829.972 1460.44 831.513C1461.69 829.181 1463.77 826.717 1465.23 824.388C1466.93 821.671 1468.4 818.806 1469.91 815.987C1471.87 812.311 1473.81 808.691 1475.38 804.838C1477.49 799.662 1479.17 794.579 1480.33 789.124C1483.19 775.74 1482.91 766.722 1493 755.636Z" fill="#FB9735"/>
<path d="M1516.1 804.101C1517.31 803.997 1518.46 803.883 1519.57 804.436C1520.65 804.97 1521.38 805.906 1521.72 807.024C1522.12 808.32 1522.02 809.84 1521.31 811.024C1520.53 812.352 1519.4 812.901 1517.92 813.294C1516.64 813.393 1515.43 813.416 1514.26 812.826C1514.13 812.763 1514 812.693 1513.88 812.618C1513.76 812.542 1513.65 812.461 1513.53 812.374C1513.42 812.288 1513.31 812.196 1513.21 812.099C1513.1 812.002 1513.01 811.9 1512.91 811.794C1512.82 811.687 1512.73 811.576 1512.65 811.462C1512.57 811.347 1512.49 811.228 1512.42 811.106C1512.35 810.984 1512.29 810.859 1512.23 810.731C1512.18 810.603 1512.13 810.472 1512.08 810.34C1512.03 810.189 1511.99 810.036 1511.96 809.882C1511.93 809.727 1511.9 809.571 1511.88 809.414C1511.87 809.257 1511.86 809.1 1511.86 808.942C1511.86 808.784 1511.86 808.626 1511.88 808.469C1511.89 808.311 1511.92 808.155 1511.95 808C1511.98 807.845 1512.02 807.692 1512.07 807.541C1512.11 807.39 1512.17 807.241 1512.23 807.095C1512.29 806.949 1512.36 806.807 1512.44 806.668C1513.25 805.248 1514.54 804.519 1516.1 804.101Z" fill="#D2340C"/>
<path d="M1376.87 853.551L1378.57 853.321C1378.89 853.92 1380.7 854.35 1381.38 854.559C1388.44 856.728 1395.87 856.835 1403.12 857.982L1403.23 857.936C1405.87 858.326 1408.67 858.278 1411.34 858.325C1420.48 858.484 1426.72 858.165 1435.67 856.101C1435.11 857.879 1434.81 859.676 1434.56 861.517C1434.51 861.967 1434.47 862.418 1434.44 862.87C1434.4 863.321 1434.38 863.773 1434.36 864.225C1434.34 864.677 1434.33 865.13 1434.33 865.583C1434.32 866.035 1434.33 866.488 1434.34 866.94C1434.35 867.393 1434.37 867.845 1434.4 868.297C1434.42 868.749 1434.46 869.2 1434.5 869.651C1434.54 870.102 1434.59 870.552 1434.65 871.001C1434.71 871.45 1434.77 871.899 1434.85 872.346C1434.92 872.793 1435 873.239 1435.09 873.683C1435.17 874.128 1435.27 874.571 1435.37 875.013C1435.48 875.454 1435.59 875.894 1435.7 876.332C1435.82 876.771 1435.95 877.207 1436.08 877.641C1436.21 878.075 1436.35 878.507 1436.5 878.937C1436.64 879.367 1436.8 879.794 1436.96 880.219C1437.12 880.644 1437.29 881.066 1437.46 881.486C1437.64 881.905 1437.82 882.322 1438.01 882.736C1438.89 884.639 1440.29 886.377 1441.05 888.317C1441.05 888.375 1441.05 888.434 1441.06 888.493C1441.27 891.456 1442.53 894.592 1443.22 897.49C1445.28 906.104 1445.4 916.629 1439.13 923.723C1434.68 928.753 1428.65 930.651 1422.75 933.54C1417.86 935.939 1409.48 941.383 1406.66 945.828L1406.05 947.049C1404.49 945.04 1403.37 942.516 1402.14 940.296C1400.14 936.697 1398.12 933.112 1396.07 929.541C1389.13 917.327 1382.13 905.149 1375.05 893.007C1374.83 888.188 1375.56 882.332 1375.78 877.418C1376.15 869.481 1376.22 861.467 1376.87 853.551Z" fill="#FB9735"/>
<path d="M1376.87 853.551L1378.57 853.321C1378.89 853.92 1380.7 854.35 1381.38 854.559C1388.44 856.728 1395.87 856.835 1403.12 857.982C1401.24 859.978 1399.54 862.13 1397.75 864.202C1392.16 870.776 1386.72 877.464 1381.43 884.266C1380 886.131 1378.62 888.026 1377.27 889.951C1376.56 890.951 1375.89 892.103 1375.05 893.007C1374.83 888.188 1375.56 882.332 1375.78 877.418C1376.15 869.481 1376.22 861.467 1376.87 853.551Z" fill="#FEC656"/>
<path d="M1414.11 894.258C1417.1 893.875 1420.18 894.296 1422.73 895.913C1425.6 897.731 1427.38 900.665 1428.04 903.884C1428.1 904.152 1428.14 904.421 1428.18 904.691C1428.22 904.961 1428.25 905.231 1428.28 905.503C1428.3 905.775 1428.32 906.047 1428.33 906.319C1428.34 906.591 1428.35 906.864 1428.35 907.136C1428.34 907.409 1428.33 907.682 1428.32 907.954C1428.3 908.226 1428.28 908.498 1428.25 908.769C1428.22 909.04 1428.18 909.31 1428.14 909.58C1428.1 909.849 1428.05 910.117 1427.99 910.384C1427.93 910.651 1427.87 910.916 1427.8 911.18C1427.73 911.445 1427.65 911.707 1427.57 911.967C1427.48 912.227 1427.39 912.486 1427.3 912.741C1427.2 912.998 1427.1 913.251 1426.99 913.502C1426.88 913.754 1426.76 914.002 1426.64 914.248C1426.52 914.493 1426.39 914.736 1426.25 914.975C1426.12 915.215 1425.98 915.451 1425.83 915.684C1425.69 915.917 1425.53 916.146 1425.38 916.372C1422.67 920.251 1418.85 922.776 1414.11 923.692C1410.98 924.161 1407.41 923.757 1404.73 922.031C1401.98 920.265 1400.34 917.368 1399.74 914.276C1398.88 909.767 1400.13 905.121 1402.84 901.386C1405.58 897.604 1409.39 895.032 1414.11 894.258Z" fill="#ED460C"/>
<path d="M1491.18 737.703C1491.46 739.43 1491.43 741.287 1491.48 743.035C1491.59 747.254 1491.7 751.567 1493 755.636C1482.91 766.722 1483.19 775.74 1480.33 789.125C1479.17 794.579 1477.49 799.662 1475.38 804.838C1473.81 808.691 1471.87 812.311 1469.91 815.987C1468.4 818.806 1466.93 821.671 1465.23 824.388C1463.77 826.717 1461.69 829.181 1460.44 831.513C1454.9 833.362 1447.86 836.869 1443.72 841.073C1440.44 845.103 1436.67 851.039 1435.67 856.101C1426.72 858.165 1420.48 858.484 1411.34 858.325C1408.67 858.278 1405.87 858.326 1403.23 857.936L1403.12 857.982C1395.87 856.835 1388.44 856.728 1381.38 854.559C1380.7 854.35 1378.89 853.92 1378.57 853.321C1380.31 852.88 1382.03 852.341 1383.71 851.702C1395.47 847.261 1403.67 839.411 1408.73 828.236C1408.93 826.015 1409.82 823.7 1410.06 821.367C1410.31 819.023 1410.33 816.788 1410.02 814.453C1409.59 811.159 1406.13 797.818 1404.17 795.488C1405.63 794.951 1407.06 794.18 1408.49 793.561C1412.12 792.006 1415.74 790.413 1419.35 788.779C1425.35 786.069 1431.43 783.534 1437.41 780.785C1438.65 780.083 1440.14 779.568 1441.45 778.98C1444.29 777.707 1447.09 776.424 1449.82 774.948C1453.32 773.057 1456.82 771.199 1460.12 768.983C1471.58 761.278 1481.13 750.68 1489.45 739.937C1489.97 739.161 1490.59 738.437 1491.18 737.703Z" fill="#FEC656"/>
<path d="M1408.73 828.236C1410.87 826.163 1410.83 822.051 1411.57 819.383C1411.93 818.07 1412.55 816.794 1413.22 815.608C1418.4 806.496 1427.07 802.189 1437.01 799.407C1435.04 819.731 1424.5 832.71 1411.82 848.04C1409.71 850.59 1404.63 855.535 1403.23 857.936L1403.12 857.982C1395.87 856.835 1388.44 856.727 1381.38 854.559C1380.7 854.35 1378.89 853.92 1378.57 853.32C1380.31 852.88 1382.03 852.341 1383.71 851.702C1395.47 847.261 1403.67 839.411 1408.73 828.236Z" fill="#FEE488"/>
<path d="M1437.41 780.784C1438.65 780.082 1440.14 779.567 1441.45 778.979C1444.29 777.706 1447.09 776.424 1449.82 774.948C1453.32 773.057 1456.82 771.198 1460.12 768.982C1471.58 761.277 1481.13 750.679 1489.45 739.938C1489.5 740.11 1489.61 740.277 1489.6 740.458C1489.58 740.933 1487.92 744.964 1487.64 745.984C1486.43 750.305 1485.35 754.657 1484.4 759.039C1483.54 762.837 1482.79 766.659 1481.64 770.388C1480.72 773.377 1479.58 776.36 1478.04 779.106C1472.96 788.192 1462.04 792.892 1452.29 795.638C1450.48 796.148 1438.43 799.656 1437.12 799.083C1437.98 793.58 1439.26 786.181 1437.41 780.784Z" fill="#FB9735"/>
<path d="M1557.82 813.478C1554.72 809.759 1552.31 789.254 1552.48 784.358C1552.56 781.81 1553.03 779.056 1554.18 776.741C1555.58 773.919 1557.97 771.626 1560.47 769.69C1570.37 762.002 1582.79 759.554 1594.8 756.644C1599.81 755.431 1604.86 754.09 1609.74 752.473C1616.2 750.333 1622.9 747.332 1627.92 742.762C1631.94 739.096 1635 734.912 1636.94 729.891C1640.7 720.171 1637.6 714.674 1632.26 706.588C1630.92 704.565 1629.54 702.614 1629.69 700.09C1629.72 699.565 1629.81 699.182 1630.23 698.811C1631.45 698.424 1632.94 698.838 1634.05 699.398C1636.66 700.724 1639.04 702.936 1641.5 704.554C1649.68 709.933 1658.66 714.12 1668.53 715.555C1668.59 715.582 1668.66 715.611 1668.73 715.637C1669.33 715.868 1670.12 715.875 1670.77 715.939C1675.39 716.396 1680.99 714.676 1683.5 719.746C1685.47 723.715 1685.35 728.661 1686.65 732.88C1687.4 735.315 1688.79 737.139 1690.27 739.192C1691.43 740.8 1692.56 742.462 1693.84 743.986C1696.78 747.499 1700.05 750.757 1702.95 754.297C1702.96 756.928 1702.34 759.694 1701.96 762.302C1700.94 769.036 1699.69 775.729 1698.21 782.383C1696.86 788.709 1695.59 795.255 1692.95 801.213C1691.52 804.444 1689.69 807.013 1687.12 809.507C1685.09 811.488 1682.58 812.998 1680.66 815.08C1674.02 821.469 1666.18 831.322 1662.74 839.825C1659.26 846.621 1655.56 854.903 1648.97 859.378C1645.34 861.841 1640.87 863.442 1636.68 864.808C1632.07 866.313 1627.29 867.304 1622.56 868.369C1614.83 870.105 1607.22 871.887 1599.89 874.882C1597.94 875.678 1595.63 876.555 1593.9 877.718C1588.82 880.353 1584.18 883.607 1579.2 886.389C1576.47 887.913 1573.61 889.169 1570.81 890.572C1564.93 893.527 1558.01 897.471 1553.35 902.058C1551.75 903.632 1550.38 905.416 1549.11 907.248C1545.8 912.039 1543.91 917.62 1541.08 922.675C1540.55 923.612 1540 924.84 1539.28 925.628L1539.19 925.583C1539.11 925.6 1539.03 925.595 1538.97 925.633C1538.78 925.754 1536.59 929.457 1536.26 929.94C1535.52 931.029 1534.71 932.079 1533.87 933.1C1532.78 934.432 1527.13 940.042 1525.73 940.199C1525.52 940.125 1525.3 940.059 1525.08 939.982C1523.87 939.548 1522.57 939.845 1521.31 939.633C1520.28 938.272 1520.25 939.146 1518.96 938.769C1517.72 938.404 1514.48 934.217 1513.21 933.158C1512.76 932.778 1512.2 932.603 1511.69 932.311C1509.95 931.313 1505.11 928.635 1503.34 928.089C1503.17 928.283 1503.03 928.468 1502.88 928.683C1502.69 928.958 1502.66 929.012 1502.31 929.056C1501.61 929.143 1499.71 928.884 1499.16 928.482C1498.95 928.324 1499 928.197 1498.97 927.959C1499.11 927.749 1499.22 927.634 1499.24 927.379C1498.92 927.338 1498.78 927.309 1498.51 927.124C1498.15 926.877 1497.96 926.781 1497.52 926.744C1497.42 926.736 1497.32 926.729 1497.22 926.722C1498.54 922.738 1499.92 916.26 1501.91 912.859C1502.66 911.571 1503.63 910.468 1504.62 909.349C1505.25 908.641 1505.8 907.832 1506.51 907.203C1512.16 902.249 1520.4 900.282 1527.2 897.249C1531.86 895.174 1536.52 892.478 1540.67 889.572C1542.05 888.612 1544.39 887.266 1545.48 886.081C1545.52 886.035 1545.56 885.982 1545.6 885.933C1547.37 884.95 1549.07 883.204 1550.55 881.834C1556.33 876.464 1561.6 870.784 1565.36 863.874C1571.6 852.398 1571.6 843.679 1567.19 831.569C1566.4 829.411 1565.06 827.4 1564.38 825.236C1564.37 825.192 1564.36 825.147 1564.34 825.102L1564 824.577C1563.08 823.389 1562.3 822.103 1561.49 820.84C1559.91 818.832 1558.48 815.914 1557.82 813.478Z" fill="#C32505"/>
<path d="M1666.41 741.775C1670.2 745.632 1672.38 751.442 1672.21 756.732C1672.18 757.667 1672.11 758.618 1671.96 759.542C1669.48 758.486 1665.79 758.835 1663.15 759.021C1663.77 757.708 1661.21 752.402 1660.67 750.803C1661.58 747.445 1663.57 743.949 1666.41 741.775Z" fill="#891404"/>
<path d="M1652.55 735.598C1657.05 736.384 1660.88 737.369 1664.55 740.157C1665.13 740.593 1665.85 741.062 1666.3 741.617C1666.34 741.667 1666.38 741.723 1666.41 741.776C1663.57 743.95 1661.58 747.445 1660.67 750.804C1659.24 750.884 1655.16 749.956 1654.11 749.062C1654.06 748.419 1650.81 741.341 1650.26 739.395C1651.07 738.153 1651.9 736.93 1652.55 735.598Z" fill="#AB2E08"/>
<path d="M1630.98 750.743C1632.39 751.903 1634.1 752.997 1635.76 753.784C1637.33 754.953 1639.08 755.925 1640.74 756.966C1640.09 760.262 1639.74 763.649 1639.45 766.993C1636.74 767.809 1633.95 768.364 1631.21 769.081C1629.88 767.111 1629.15 763.233 1628.93 760.877C1628.66 758.004 1628.97 753.051 1630.98 750.743Z" fill="#D2340C"/>
<path d="M1639.45 766.993C1642.2 767.206 1649.52 769.7 1652.09 770.908C1652.34 772.481 1653.41 777.666 1654.74 778.623C1651.74 779.374 1648.41 779.455 1645.37 778.9C1639.4 777.806 1634.55 773.836 1631.21 769.081C1633.95 768.364 1636.74 767.809 1639.45 766.993Z" fill="#891404"/>
<path d="M1663.15 759.022C1665.8 758.836 1669.48 758.487 1671.96 759.543C1670.52 766.598 1666.96 771.899 1660.74 775.901C1658.88 777.103 1656.89 778.022 1654.74 778.624C1653.41 777.666 1652.34 772.481 1652.09 770.909C1652.31 768.368 1653.08 766.041 1654.66 763.984C1656.8 761.211 1659.63 759.538 1663.15 759.022Z" fill="#570F16"/>
<path d="M1633.68 745.881C1634.54 744.224 1635.99 742.617 1637.36 741.337C1637.62 741.105 1637.87 740.878 1638.14 740.657C1638.4 740.437 1638.67 740.222 1638.94 740.015C1639.22 739.807 1639.5 739.605 1639.78 739.411C1640.07 739.216 1640.36 739.028 1640.65 738.847C1640.94 738.666 1641.24 738.492 1641.55 738.325C1641.85 738.158 1642.15 737.998 1642.47 737.845C1642.78 737.693 1643.09 737.547 1643.41 737.409C1643.73 737.272 1644.05 737.141 1644.37 737.019C1644.7 736.896 1645.02 736.781 1645.35 736.674C1645.68 736.566 1646.02 736.467 1646.35 736.376C1646.69 736.284 1647.03 736.2 1647.37 736.125C1647.7 736.049 1648.05 735.981 1648.39 735.922C1648.73 735.862 1649.08 735.81 1649.42 735.767C1649.77 735.724 1650.11 735.688 1650.46 735.661C1650.81 735.634 1651.16 735.615 1651.5 735.605C1651.85 735.594 1652.2 735.592 1652.55 735.597C1651.9 736.929 1651.07 738.153 1650.26 739.395C1650.81 741.34 1654.06 748.419 1654.11 749.061C1649.41 751.29 1645.3 754.513 1640.74 756.966C1639.08 755.925 1637.33 754.953 1635.76 753.784C1634.1 752.997 1632.39 751.903 1630.98 750.743C1631.74 748.993 1632.47 747.393 1633.68 745.881Z" fill="#ED460C"/>
<path d="M1633.68 745.881C1635.01 745.352 1636.31 744.44 1637.59 743.784C1640.91 742.092 1645.13 740.575 1648.9 740.308C1645.94 743.174 1642.93 746.035 1640.09 749.006C1638.6 750.559 1637.28 752.267 1635.76 753.784C1634.1 752.997 1632.39 751.903 1630.98 750.743C1631.74 748.993 1632.47 747.394 1633.68 745.881Z" fill="#ED6422"/>
<path d="M1654.11 749.061C1655.16 749.956 1659.24 750.884 1660.67 750.804C1661.21 752.403 1663.77 757.709 1663.15 759.022C1659.63 759.537 1656.8 761.211 1654.66 763.983C1653.08 766.04 1652.31 768.368 1652.09 770.908C1649.52 769.7 1642.2 767.206 1639.45 766.993C1639.74 763.649 1640.09 760.262 1640.74 756.966C1645.3 754.513 1649.41 751.29 1654.11 749.061Z" fill="#C32505"/>
<path d="M1557.82 813.478C1557.78 812.124 1557.4 810.742 1557.18 809.403C1556.95 807.902 1556.81 806.393 1556.76 804.876C1556.44 796.805 1559.24 788.592 1564.98 782.636C1570.78 776.607 1578.36 773.487 1586.83 773.206C1592.72 773.011 1598.1 774.842 1603.21 777.548C1604.92 778.455 1606.72 779.461 1608.15 780.76C1605.69 785.816 1602.56 790.539 1600.4 795.749C1600.34 795.778 1600.28 795.808 1600.22 795.836C1596.17 797.701 1591.08 797.842 1586.72 798.616C1578.01 800.163 1575.35 802.489 1571.8 809.958C1570.61 812.515 1569.37 815.053 1568.09 817.571C1567.52 818.694 1567.03 819.96 1566.36 821.022C1564.74 820.981 1563.11 820.92 1561.49 820.84C1559.91 818.833 1558.48 815.914 1557.82 813.478Z" fill="#AB2E08"/>
<path d="M1589.51 774.92C1590.15 776.048 1590.1 778.181 1590.32 779.493C1588.45 781.318 1586.11 782.911 1584.05 784.557C1577.74 789.594 1571.32 794.311 1564.72 798.97C1564.56 799.076 1564.67 799.02 1564.37 799.084C1564.38 798.899 1564.38 798.856 1564.44 798.652C1565.25 795.934 1569.35 790.763 1571.06 788.143C1572.13 786.494 1573.08 783.927 1574.64 782.69C1576.21 781.456 1578.41 780.671 1580.19 779.774C1583.33 778.215 1586.44 776.597 1589.51 774.92Z" fill="#ED6422"/>
<path d="M1608.15 780.76C1615.05 786.663 1619.56 794.515 1620.12 803.507C1620.21 804.801 1620.28 806.261 1620.02 807.534C1619.67 814.828 1615.36 822.501 1609.85 827.362C1605 831.641 1599.62 834.231 1593.27 835.764C1591.36 836.007 1589.49 836.245 1587.56 836.244C1587.11 836.243 1586.66 836.233 1586.22 836.213C1585.77 836.193 1585.32 836.162 1584.87 836.122C1584.43 836.082 1583.98 836.031 1583.54 835.971C1583.1 835.911 1582.65 835.84 1582.21 835.76C1581.77 835.68 1581.33 835.59 1580.9 835.49C1580.46 835.39 1580.03 835.281 1579.6 835.162C1579.17 835.042 1578.74 834.913 1578.31 834.775C1577.89 834.637 1577.47 834.489 1577.05 834.331C1576.63 834.174 1576.22 834.007 1575.81 833.832C1575.4 833.656 1574.99 833.471 1574.59 833.277C1574.19 833.083 1573.8 832.88 1573.41 832.668C1573.02 832.456 1572.63 832.235 1572.25 832.006C1571.87 831.777 1571.49 831.54 1571.12 831.294C1570.75 831.048 1570.39 830.794 1570.03 830.531C1569.68 830.269 1569.33 829.999 1568.98 829.721C1568.64 829.443 1568.3 829.158 1567.97 828.865C1566.7 827.751 1565.67 826.384 1564.46 825.212L1564.34 825.103L1564 824.577C1563.08 823.389 1562.3 822.103 1561.49 820.84C1563.11 820.921 1564.74 820.981 1566.36 821.022C1567.03 819.96 1567.52 818.694 1568.09 817.571C1569.37 815.053 1570.61 812.515 1571.8 809.958C1575.35 802.49 1578.01 800.163 1586.72 798.616C1591.08 797.842 1596.17 797.701 1600.22 795.836C1600.28 795.808 1600.34 795.778 1600.4 795.749C1602.56 790.539 1605.69 785.816 1608.15 780.76Z" fill="#891404"/>
<path d="M1603.8 806.651C1607.36 806.614 1610.94 806.367 1614.49 806.203C1616.21 806.124 1618.03 805.912 1619.74 806.066C1620.05 806.474 1620 807.036 1620.02 807.534C1619.67 814.828 1615.36 822.501 1609.85 827.362C1605 831.641 1599.62 834.231 1593.27 835.764C1593.1 834.133 1592.44 832.392 1591.96 830.82C1591.12 828.053 1590.26 825.308 1589.64 822.486C1590.53 820.83 1602.1 807.993 1603.8 806.651Z" fill="#570F16"/>
</g>
</g>
<path d="M1371.16 165.631C1366.24 165.631 1361.54 162.834 1359.35 158.084C1356.33 151.568 1359.17 143.844 1365.69 140.829C1381.87 133.344 1396.53 128.1 1408.05 125.647C1415.07 124.152 1421.97 128.641 1423.47 135.662C1424.96 142.688 1420.47 149.589 1413.45 151.079C1403.93 153.1 1390.84 157.839 1376.6 164.428C1374.83 165.245 1372.98 165.631 1371.16 165.631Z" fill="#B9E9FD"/>
<path d="M1279.87 248.954C1270.09 248.954 1263.24 245.662 1259.47 239.131C1251.64 225.569 1264.57 211.022 1268.82 206.246C1276.45 197.662 1287.98 187.787 1302.18 177.673C1308.03 173.511 1316.15 174.876 1320.31 180.725C1324.47 186.574 1323.11 194.688 1317.26 198.85C1302.56 209.319 1293.69 217.522 1288.64 223.095C1293.46 224.485 1297.25 228.61 1297.94 233.907C1298.87 241.027 1293.85 247.553 1286.74 248.48C1284.31 248.798 1282.02 248.954 1279.87 248.954Z" fill="#B9E9FD"/>
<path d="M1393.29 159.032C1379.21 134.636 1348.02 126.282 1323.62 140.365C1299.23 154.449 1290.88 185.636 1304.96 210.027C1319.05 234.423 1350.23 242.777 1374.62 228.694C1399.02 214.61 1407.37 183.423 1393.29 159.032Z" fill="#61B6FF"/>
<path d="M1390.61 206.626C1371.54 217.636 1347.16 211.1 1336.15 192.032C1325.14 172.964 1331.67 148.579 1350.74 137.569C1353.07 136.22 1355.49 135.142 1357.95 134.308C1346.56 132.303 1334.43 134.136 1323.64 140.365C1299.24 154.449 1290.89 185.642 1304.97 210.032C1319.05 234.423 1350.24 242.782 1374.64 228.699C1385.43 222.464 1393.08 212.881 1397.04 202.017C1395.09 203.725 1392.94 205.277 1390.61 206.626Z" fill="#5294E5"/>
<path d="M1285.04 248.589C1278.61 248.589 1273.02 243.824 1272.17 237.277C1271.23 230.157 1276.25 223.631 1283.37 222.704C1298.86 220.673 1326.74 209.043 1354.42 193.069C1383.27 176.407 1402.01 161.131 1411.36 151.35C1405.09 151.626 1399.37 147.386 1398.04 141.063C1396.55 134.037 1401.03 127.136 1408.05 125.647C1414.44 124.293 1433.86 120.168 1441.78 133.871C1450.27 148.579 1435.23 164.99 1423.19 176.058C1409.36 188.761 1389.55 202.798 1367.41 215.584C1336.08 233.673 1305.92 245.97 1286.74 248.48C1286.17 248.553 1285.6 248.589 1285.04 248.589Z" fill="#E0F9FE"/>
</g>
<defs>
<clipPath id="clip0_2047_1217">
<rect width="1894" height="973" fill="white"/>
</clipPath>
</defs>
</svg>
