<svg width="19" height="19" viewBox="0 0 19 19" fill="none" xmlns="http://www.w3.org/2000/svg">
<g clip-path="url(#clip0_55_1476)">
<path d="M9.49922 18.4482C7.09922 18.4482 4.84922 17.5482 3.12422 15.8232C-0.400781 12.2982 -0.400781 6.59824 3.12422 3.07324C4.84922 1.34824 7.09922 0.448242 9.49922 0.448242C11.8992 0.448242 14.1492 1.34824 15.8742 3.07324C19.3992 6.59824 19.3992 12.2982 15.8742 15.8232C14.1492 17.5482 11.8992 18.4482 9.49922 18.4482ZM9.49922 1.94824C7.47422 1.94824 5.59922 2.69824 4.17422 4.12324C1.24922 7.04824 1.24922 11.8482 4.17422 14.7732C5.59922 16.1982 7.47422 16.9482 9.49922 16.9482C11.5242 16.9482 13.3992 16.1982 14.8242 14.7732C17.7492 11.8482 17.7492 7.12324 14.8242 4.19824C13.3992 2.69824 11.5242 1.94824 9.49922 1.94824Z" fill="#161616" fill-opacity="0.35"/>
<path d="M9.5 13.9482C9.05 13.9482 8.75 13.6482 8.75 13.1982V5.69824C8.75 5.24824 9.05 4.94824 9.5 4.94824C9.95 4.94824 10.25 5.24824 10.25 5.69824V13.1982C10.25 13.6482 9.95 13.9482 9.5 13.9482Z" fill="#ADADAD"/>
<path d="M13.25 10.1982H5.75C5.3 10.1982 5 9.89824 5 9.44824C5 8.99824 5.3 8.69824 5.75 8.69824H13.25C13.7 8.69824 14 8.99824 14 9.44824C14 9.89824 13.7 10.1982 13.25 10.1982Z" fill="#ADADAD"/>
</g>
<defs>
<clipPath id="clip0_55_1476">
<rect width="18" height="18" fill="white" transform="translate(0.5 0.448242)"/>
</clipPath>
</defs>
</svg>
