<svg width="657" height="705" viewBox="0 0 657 705" fill="none" xmlns="http://www.w3.org/2000/svg">
<mask id="mask0_2051_1286" style="mask-type:luminance" maskUnits="userSpaceOnUse" x="429" y="494" width="216" height="211">
<path d="M644.831 494H429V705H644.831V494Z" fill="white"/>
</mask>
<g mask="url(#mask0_2051_1286)">
<path d="M626.316 599.232C626.617 603.341 624.786 607.603 622.075 610.672C620.3 612.683 617.695 614.455 615.005 615.006C617.173 609.586 622.121 603.306 626.316 599.232Z" fill="#570F16"/>
<path d="M451.827 586.743C453.064 588.228 455.247 596.733 455.519 598.833C455.712 600.321 455.698 601.746 455.544 603.24C455.391 604.727 454.832 606.203 454.702 607.619C451.513 614.742 446.338 619.746 438.916 622.577C437.854 622.985 436.772 623.328 435.668 623.609L434.595 623.756C435.288 621.391 437.15 617.87 438.236 615.487C441.394 608.575 444.634 601.699 447.953 594.859C448.661 593.389 449.345 591.908 450.004 590.417C450.551 589.192 451.053 587.846 451.827 586.743Z" fill="#FB9735"/>
<path d="M603.262 505.793C607.883 505.209 611.005 506 614.715 508.807C617.685 511.055 631.077 522.011 632.188 524.84C633.136 526.001 633.756 527.603 634.181 529.017C635.428 533.159 636.057 538.058 636.949 542.342L638.815 550.958C639.517 554.071 640.455 557.272 640.383 560.485C638.553 558.229 636.486 556.152 634.631 553.913C633.827 552.941 633.11 551.882 632.378 550.857C631.442 549.548 630.565 548.385 630.091 546.833C629.27 544.143 629.349 540.991 628.109 538.461C626.524 535.229 622.99 536.325 620.07 536.034C619.664 535.993 619.161 535.989 618.783 535.841C618.741 535.825 618.7 535.806 618.658 535.789L618.856 535.693C620.103 535.811 621.368 535.901 622.622 535.918C623.445 535.928 624.487 535.802 625.285 535.963C625.914 536.091 626.724 536.637 627.317 536.919C627.752 536.144 630.805 527.266 630.791 526.776L630.556 526.678C628.522 527.234 626.43 527.639 624.313 527.686C618.68 527.813 613.859 525.872 609.779 522.054C604.892 517.48 603.431 512.205 603.262 505.793Z" fill="#D2340C"/>
<path d="M572.038 502.313C579.578 502.652 585.365 507.936 592.927 507.696C596.468 507.584 599.808 506.418 603.263 505.793C603.431 512.205 604.892 517.48 609.78 522.054C613.858 525.872 618.68 527.813 624.313 527.686C626.429 527.639 628.522 527.234 630.556 526.678L630.791 526.776C630.805 527.266 627.752 536.144 627.317 536.919C626.724 536.637 625.915 536.091 625.285 535.963C624.486 535.802 623.445 535.928 622.621 535.918C621.368 535.901 620.103 535.811 618.857 535.693L618.657 535.789C618.7 535.806 618.742 535.825 618.784 535.842C619.161 535.989 619.663 535.993 620.07 536.034C622.989 536.325 626.524 535.229 628.109 538.461C629.35 540.991 629.271 544.143 630.091 546.833C630.566 548.385 631.442 549.548 632.378 550.857C633.11 551.882 633.827 552.941 634.631 553.913C636.486 556.152 638.553 558.229 640.383 560.485C640.386 562.163 639.999 563.926 639.754 565.588C639.112 569.881 638.323 574.148 637.39 578.389C636.538 582.422 635.734 586.595 634.068 590.393C633.165 592.452 632.011 594.09 630.393 595.68C629.107 596.943 627.528 597.905 626.316 599.232C622.12 603.305 617.173 609.586 615.005 615.006C612.81 619.338 610.475 624.618 606.314 627.471C604.024 629.041 601.201 630.061 598.56 630.932C595.648 631.891 592.634 632.523 589.645 633.202C584.769 634.309 579.964 635.445 575.339 637.354C574.11 637.861 572.653 638.42 571.561 639.162C568.355 640.841 565.425 642.916 562.282 644.689C560.56 645.661 558.753 646.461 556.99 647.356C553.277 649.239 548.909 651.753 545.971 654.677C544.961 655.681 544.095 656.818 543.295 657.986C541.203 661.04 540.012 664.598 538.224 667.82C537.894 668.417 537.548 669.2 537.094 669.702C531.03 680.255 524.992 681.021 514.594 685.313C512.669 686.243 510.659 687.027 508.758 687.998L508.658 688.031C506.211 688.883 503.822 690.184 501.476 691.282C498.808 692.531 496.091 693.672 493.426 694.926C492.162 695.519 489.168 697.183 487.924 697.357C484.852 697.788 476.22 695.406 473.021 694.334C470.083 693.317 467.286 691.566 464.557 690.105C461.83 688.645 459.122 687.18 456.466 685.598C455.295 684.9 454.057 684.227 453.01 683.358C452.027 682.077 451.318 680.468 450.542 679.053C449.282 676.759 448.006 674.473 446.713 672.197C442.335 664.411 437.914 656.648 433.45 648.908C433.308 645.836 433.767 642.103 433.911 638.97C434.144 633.911 434.186 628.802 434.594 623.756L435.667 623.609C436.771 623.328 437.854 622.985 438.916 622.577C446.338 619.746 451.513 614.742 454.702 607.619C454.832 606.203 455.391 604.727 455.544 603.24C455.698 601.746 455.712 600.321 455.519 598.833C455.247 596.733 453.064 588.228 451.827 586.742C452.747 586.401 453.647 585.909 454.55 585.515C456.845 584.523 459.13 583.507 461.402 582.466C465.189 580.739 469.026 579.123 472.802 577.371C473.585 576.923 474.525 576.595 475.352 576.22C477.142 575.408 478.912 574.591 480.637 573.65C482.845 572.444 485.054 571.259 487.134 569.847C494.365 564.936 500.397 558.18 505.642 551.332C505.975 550.837 506.364 550.376 506.735 549.907C507.856 548.503 508.71 546.7 509.653 545.166C511.504 542.156 513.455 539.201 515.259 536.164C518.11 531.366 520.609 525.83 524.784 521.983C526.296 520.545 527.85 519.235 529.703 518.229C531.492 517.257 533.44 516.542 535.33 515.782C537.664 514.851 539.988 513.894 542.302 512.914C547.728 510.625 553.108 508.246 558.589 506.083C561.408 504.97 564.242 503.839 567.16 502.996C568.777 502.528 570.356 502.343 572.038 502.313Z" fill="#ED6422"/>
<path d="M585.598 531.87C585.606 531.602 585.415 531.208 585.342 530.934C585.104 530.038 584.223 527.237 584.556 526.428C586.282 528.301 587.255 530.386 587.639 532.882C586.947 532.644 586.242 532.22 585.598 531.87Z" fill="#C32505"/>
<path d="M574.056 524.261C574.827 523.943 575.54 523.622 576.258 523.202C577.883 523.639 579.492 524.127 581.084 524.666C581.612 524.846 583.276 525.621 583.677 525.55C582.361 526.107 581.386 527.304 579.989 527.838C579.779 527.621 577.389 527.206 576.638 526.77C575.566 526.148 574.81 525.208 574.056 524.261Z" fill="#D2340C"/>
<path d="M566.557 533.252L566.633 533.654C567.326 533.954 568.116 534.021 568.81 534.326C569.078 534.663 569.6 534.814 570.006 534.954C570.619 535.5 571.284 536.042 571.97 536.498C572.575 537.591 572.614 539.14 572.808 540.361C572.197 540.935 571.571 541.478 570.921 542.009C569.513 541.049 567.778 538.724 566.84 537.278C565.917 535.854 566.204 534.805 566.557 533.252Z" fill="#D2340C"/>
<path d="M583.677 525.55C583.987 525.797 584.357 526.081 584.556 526.428C584.222 527.237 585.103 530.038 585.342 530.934C585.415 531.208 585.605 531.602 585.598 531.87C583.82 532.442 581.062 533.305 579.878 534.777C579.698 533.385 578.829 532.318 578.533 530.986C578.83 529.832 578.997 528.632 579.989 527.838C581.385 527.304 582.36 526.107 583.677 525.55Z" fill="#AB2E08"/>
<path d="M579.525 538.55C580.111 540.481 580.923 541.729 582.341 543.179C582.064 543.314 581.782 543.437 581.495 543.549C581.209 543.661 580.917 543.76 580.622 543.847C580.327 543.935 580.028 544.01 579.726 544.072C579.423 544.135 579.119 544.184 578.814 544.221C575.909 544.559 573.204 543.769 570.921 542.009C571.571 541.478 572.197 540.935 572.808 540.361C574.204 539.257 577.742 538.689 579.525 538.55Z" fill="#AB2E08"/>
<path d="M571.97 536.498C573.941 534.438 576.248 532.693 578.533 530.986C578.829 532.318 579.698 533.385 579.877 534.777C579.708 535.975 579.381 537.344 579.525 538.55C577.742 538.688 574.203 539.257 572.808 540.361C572.614 539.14 572.575 537.591 571.97 536.498Z" fill="#D2340C"/>
<path d="M482.338 666.82C483.125 666.755 483.878 666.759 484.619 667.057C485.551 667.432 486.228 668.185 486.571 669.104C486.596 669.168 486.618 669.233 486.639 669.299C486.66 669.365 486.679 669.431 486.697 669.497C486.714 669.563 486.729 669.63 486.744 669.698C486.758 669.765 486.77 669.832 486.781 669.901C486.79 669.968 486.8 670.036 486.806 670.105C486.813 670.173 486.818 670.241 486.822 670.31C486.824 670.378 486.826 670.447 486.825 670.516C486.825 670.584 486.823 670.653 486.82 670.721C486.816 670.79 486.81 670.858 486.803 670.926C486.795 670.995 486.785 671.063 486.775 671.13C486.764 671.199 486.751 671.266 486.736 671.333C486.722 671.4 486.706 671.467 486.687 671.533C486.669 671.599 486.649 671.665 486.628 671.731C486.607 671.796 486.583 671.861 486.558 671.925C486.533 671.989 486.507 672.053 486.479 672.115C486.451 672.178 486.42 672.24 486.389 672.301C485.781 673.479 484.778 674.065 483.54 674.453C482.725 674.552 481.936 674.511 481.169 674.2C481.111 674.177 481.053 674.153 480.997 674.126C480.94 674.1 480.884 674.073 480.829 674.044C480.774 674.015 480.718 673.984 480.665 673.952C480.612 673.92 480.559 673.887 480.506 673.853C480.455 673.818 480.404 673.783 480.354 673.746C480.304 673.709 480.255 673.671 480.207 673.631C480.159 673.592 480.112 673.551 480.066 673.509C480.02 673.467 479.976 673.424 479.932 673.38C479.888 673.336 479.846 673.291 479.806 673.244C479.764 673.198 479.724 673.15 479.686 673.103C479.647 673.054 479.61 673.005 479.574 672.955C479.537 672.904 479.502 672.853 479.469 672.801C479.436 672.749 479.404 672.697 479.374 672.643C479.344 672.589 479.314 672.535 479.286 672.48C479.259 672.425 479.232 672.369 479.208 672.313C479.183 672.256 479.16 672.199 479.138 672.142C479.094 672.021 479.056 671.899 479.025 671.775C478.993 671.65 478.967 671.526 478.948 671.399C478.93 671.272 478.917 671.145 478.911 671.017C478.904 670.889 478.905 670.761 478.912 670.634C478.919 670.506 478.932 670.378 478.952 670.252C478.972 670.125 478.997 670 479.03 669.876C479.062 669.752 479.101 669.63 479.146 669.51C479.19 669.389 479.241 669.271 479.298 669.156C479.934 667.838 480.994 667.269 482.338 666.82Z" fill="#ED460C"/>
<path d="M585.598 531.87C586.242 532.22 586.948 532.644 587.639 532.882C587.943 535.62 587.44 538.337 585.647 540.522C585.42 540.794 585.18 541.055 584.927 541.304C584.673 541.553 584.408 541.789 584.13 542.012C583.852 542.236 583.564 542.444 583.266 542.639C582.966 542.834 582.657 543.014 582.34 543.179C580.923 541.729 580.111 540.481 579.526 538.55C579.381 537.344 579.708 535.975 579.878 534.777C581.064 533.305 583.82 532.442 585.598 531.87Z" fill="#891404"/>
<path d="M537.823 620.082C538.714 619.985 539.737 620.177 540.524 620.599C541.515 621.129 542.171 622.046 542.476 623.098C542.839 624.344 542.566 625.622 541.94 626.741C541.134 628.183 540.012 628.911 538.44 629.371C537.333 629.405 536.346 629.3 535.377 628.712C534.356 628.093 533.681 627.067 533.443 625.923C533.428 625.844 533.413 625.763 533.402 625.684C533.391 625.603 533.381 625.523 533.373 625.443C533.366 625.362 533.361 625.281 533.357 625.201C533.354 625.12 533.353 625.039 533.355 624.958C533.355 624.877 533.359 624.797 533.364 624.716C533.37 624.635 533.377 624.555 533.387 624.474C533.396 624.394 533.409 624.314 533.423 624.235C533.435 624.155 533.452 624.075 533.469 623.997C533.488 623.918 533.508 623.84 533.53 623.762C533.552 623.683 533.576 623.606 533.603 623.53C533.629 623.453 533.657 623.377 533.687 623.302C533.718 623.226 533.75 623.152 533.785 623.078C533.818 623.005 533.855 622.932 533.893 622.86C533.932 622.788 533.971 622.718 534.012 622.648C534.054 622.578 534.098 622.51 534.144 622.442C534.188 622.374 534.236 622.308 534.284 622.243C534.337 622.171 534.39 622.102 534.445 622.033C534.5 621.965 534.557 621.898 534.616 621.832C534.674 621.766 534.734 621.702 534.797 621.639C534.859 621.576 534.922 621.515 534.987 621.455C535.052 621.395 535.118 621.337 535.187 621.28C535.254 621.224 535.324 621.169 535.394 621.116C535.464 621.062 535.537 621.01 535.61 620.961C535.683 620.911 535.757 620.863 535.833 620.817C535.909 620.771 535.986 620.727 536.063 620.684C536.142 620.641 536.221 620.601 536.3 620.562C536.381 620.523 536.461 620.486 536.543 620.452C536.625 620.417 536.708 620.384 536.792 620.353C536.874 620.323 536.958 620.294 537.044 620.267C537.129 620.24 537.214 620.216 537.3 620.193C537.387 620.17 537.473 620.149 537.561 620.131C537.647 620.113 537.736 620.096 537.823 620.082Z" fill="#C32505"/>
<path d="M566.557 533.253C566.638 532.432 566.898 531.561 567.197 530.794C568.448 527.591 570.895 525.624 574.055 524.261C574.81 525.208 575.566 526.148 576.638 526.77C577.389 527.206 579.779 527.621 579.989 527.838C578.997 528.633 578.83 529.832 578.533 530.986C576.248 532.693 573.941 534.438 571.97 536.498C571.284 536.042 570.619 535.501 570.005 534.954C569.6 534.814 569.078 534.663 568.81 534.326C568.117 534.021 567.325 533.954 566.633 533.654L566.557 533.253Z" fill="#ED460C"/>
<path d="M569.621 527.717C571.69 527.304 573.93 526.961 576.045 526.995C575.133 528.387 571.205 534.152 570.006 534.954C569.6 534.814 569.079 534.663 568.809 534.326C568.809 532.402 569.146 529.556 569.621 527.717Z" fill="#FD6626"/>
<path d="M532.599 537.059C533.74 536.983 534.887 537.172 535.874 537.762C535.935 537.798 535.995 537.835 536.053 537.873C536.112 537.912 536.169 537.952 536.226 537.993C536.282 538.034 536.337 538.077 536.391 538.121C536.445 538.165 536.499 538.211 536.55 538.258C536.602 538.304 536.654 538.352 536.702 538.402C536.752 538.451 536.8 538.501 536.847 538.553C536.893 538.605 536.939 538.657 536.983 538.711C537.026 538.765 537.069 538.82 537.11 538.876C537.151 538.932 537.191 538.989 537.23 539.047C537.267 539.105 537.304 539.164 537.339 539.224C537.374 539.284 537.408 539.344 537.44 539.406C537.471 539.467 537.502 539.53 537.531 539.593C537.56 539.656 537.586 539.719 537.612 539.784C537.638 539.848 537.661 539.913 537.683 539.979C537.705 540.044 537.725 540.11 537.744 540.177C537.762 540.243 537.779 540.31 537.795 540.377C538.146 541.95 537.61 543.665 536.706 544.975C535.512 546.706 533.873 547.73 531.795 548.139C530.524 548.26 529.197 548.169 528.082 547.497C527.101 546.904 526.488 545.975 526.25 544.881C525.912 543.318 526.401 541.726 527.295 540.426C528.564 538.581 530.385 537.468 532.599 537.059Z" fill="#ED460C"/>
<path d="M555.12 543.766C556.457 543.7 557.836 543.788 558.972 544.57C559.899 545.208 560.378 546.204 560.531 547.281C560.792 549.116 560.161 551.022 559.034 552.487C557.729 554.18 555.871 555.07 553.758 555.35C552.487 555.418 551.271 555.188 550.22 554.453C550.154 554.407 550.088 554.359 550.026 554.31C549.963 554.26 549.901 554.209 549.84 554.157C549.779 554.104 549.72 554.05 549.662 553.995C549.604 553.94 549.548 553.883 549.494 553.825C549.439 553.767 549.385 553.707 549.333 553.646C549.282 553.585 549.232 553.523 549.183 553.46C549.135 553.396 549.088 553.332 549.043 553.266C548.998 553.2 548.955 553.133 548.913 553.066C548.871 552.998 548.831 552.929 548.793 552.859C548.755 552.789 548.719 552.718 548.685 552.647C548.651 552.575 548.618 552.502 548.588 552.429C548.558 552.356 548.529 552.282 548.502 552.207C548.476 552.132 548.451 552.057 548.428 551.981C548.406 551.905 548.386 551.828 548.367 551.751C548.348 551.674 548.331 551.597 548.317 551.519C548.302 551.441 548.29 551.363 548.279 551.285C548.056 549.617 548.758 548.038 549.801 546.76C551.172 545.081 552.921 544.009 555.12 543.766Z" fill="#D2340C"/>
<path d="M510.745 614.01C511.259 614.394 511.752 614.767 512.201 615.224C517.431 620.144 520.894 626.073 521.018 633.317C521.024 633.677 521.033 634.019 520.954 634.372C520.633 634.24 520.305 634.275 519.965 634.284C519.182 634.305 509.769 634.909 509.719 634.935C509.673 634.959 509.635 634.997 509.593 635.028C508.918 632.055 507.311 629.192 506.921 626.155C508.004 622.058 509.616 618.098 510.745 614.01Z" fill="#C32505"/>
<path d="M477.245 648.512C478.837 647.51 480.525 646.618 482.179 645.714C483.129 645.195 484.113 644.567 485.127 644.19C487.172 644.519 489.233 644.753 491.277 645.091C493.893 645.524 496.498 646.071 499.14 646.326C499.718 648 500.458 649.628 501.151 651.26C501.859 652.928 502.531 654.619 503.344 656.241C500.613 657.038 497.665 657.41 494.816 657.211C488.229 656.751 481.569 653.358 477.245 648.512Z" fill="#C32505"/>
<path d="M509.593 635.028C509.636 634.996 509.673 634.959 509.72 634.935C509.769 634.909 519.183 634.305 519.965 634.284C520.305 634.275 520.634 634.24 520.954 634.372C520.671 640.607 518.242 646.281 513.502 650.535C510.534 653.199 507.151 655.003 503.344 656.241C502.53 654.619 501.859 652.928 501.151 651.26C500.458 649.628 499.718 648 499.141 646.326C500.666 644.818 502.102 643.205 503.572 641.645C505.61 639.484 507.709 637.318 509.593 635.028Z" fill="#891404"/>
<path d="M496.086 626.684C498.038 626.243 505.936 626.743 506.92 626.155C507.311 629.192 508.918 632.055 509.593 635.028C507.709 637.318 505.609 639.484 503.572 641.645C502.101 643.205 500.665 644.818 499.14 646.326C496.498 646.071 493.893 645.523 491.277 645.091C489.233 644.753 487.171 644.519 485.127 644.19C485.258 640.894 485.12 637.547 485.094 634.247C488.838 631.854 492.306 629.02 496.086 626.684Z" fill="#D2340C"/>
<path d="M453.4 682.58L453.399 683.01L453.474 683.053L453.662 682.972C453.746 682.936 453.833 682.906 453.914 682.865C454.738 682.469 455.99 682.654 456.924 682.637C460.51 682.57 463.933 683.11 467.383 684.035C469.696 684.655 477.122 687.493 478.96 687.309C479.194 687.285 479.4 687.199 479.599 687.082C481.614 685.905 483.428 684.549 485.572 683.563C487.856 682.511 490.296 681.513 492.677 680.695C496.279 679.459 500.459 678.341 503.795 676.517C505.942 675.344 507.957 673.62 509.373 671.649C510.251 670.427 510.63 669.004 511.024 667.582C511.859 664.567 512.631 661.644 514.735 659.195C515.041 658.841 515.362 658.5 515.698 658.173C516.035 657.846 516.385 657.533 516.749 657.234C517.111 656.936 517.487 656.654 517.875 656.386C518.263 656.119 518.663 655.869 519.073 655.636C522.087 653.914 525.546 652.966 528.764 651.672C530.605 650.932 532.405 649.919 534.116 648.925C535.905 647.884 537.592 646.792 539.255 645.566C539.707 645.234 540.562 644.442 541.08 644.398C541.055 644.43 541.032 644.463 541.005 644.493C540.316 645.249 538.838 646.106 537.971 646.718C535.348 648.571 532.407 650.29 529.469 651.612C525.175 653.545 519.975 654.799 516.413 657.958C515.961 658.358 515.614 658.874 515.217 659.325C514.591 660.038 513.981 660.742 513.506 661.563C512.252 663.731 511.38 667.86 510.546 670.4C510.61 670.405 510.675 670.409 510.741 670.414C511.017 670.437 511.137 670.499 511.362 670.656C511.531 670.774 511.62 670.792 511.821 670.819C511.811 670.982 511.738 671.054 511.65 671.188C511.67 671.34 511.638 671.421 511.775 671.522C512.122 671.778 513.32 671.944 513.758 671.888C513.981 671.86 514.003 671.825 514.122 671.65C514.213 671.513 514.303 671.395 514.412 671.272C515.524 671.619 518.58 673.326 519.682 673.963C520.004 674.149 520.352 674.26 520.64 674.503C521.442 675.178 523.484 677.847 524.27 678.079C525.083 678.32 525.102 677.762 525.751 678.63C526.549 678.765 527.369 678.576 528.134 678.853C528.268 678.902 528.406 678.944 528.541 678.991C529.422 678.891 532.992 675.315 533.679 674.465C534.204 673.815 534.722 673.145 535.187 672.451C535.393 672.143 536.776 669.783 536.897 669.706C536.935 669.681 536.987 669.685 537.032 669.674L537.094 669.702C531.03 680.255 524.992 681.021 514.594 685.313C509.673 682.503 504.437 680.871 498.76 680.333C497.289 680.192 495.927 679.987 494.478 680.359C492.777 680.795 491.16 681.485 489.539 682.14C484.785 684.062 480.097 686.293 476.536 690.021C475.852 690.735 473.312 694.157 473.022 694.334C470.084 693.317 467.286 691.567 464.558 690.105C461.83 688.645 459.123 687.18 456.466 685.598C455.295 684.9 454.057 684.227 453.01 683.357L453.4 682.58Z" fill="#FD6626"/>
<path d="M473.021 694.334C473.312 694.157 475.852 690.735 476.535 690.021C480.097 686.293 484.784 684.062 489.538 682.14C491.16 681.485 492.777 680.795 494.478 680.358C495.927 679.987 497.288 680.192 498.76 680.333C504.437 680.871 509.673 682.503 514.594 685.313C512.67 686.243 510.659 687.027 508.758 687.998L508.658 688.031C506.212 688.883 503.823 690.184 501.477 691.282C498.808 692.531 496.091 693.672 493.426 694.926C492.162 695.519 489.168 697.184 487.924 697.357C484.852 697.788 476.22 695.406 473.021 694.334Z" fill="#ED460C"/>
<path d="M524.785 521.983C526.296 520.545 527.851 519.235 529.704 518.229C531.492 517.257 533.441 516.542 535.331 515.782C537.665 514.851 539.989 513.894 542.302 512.914C547.728 510.625 553.109 508.246 558.588 506.083C561.408 504.97 564.242 503.839 567.16 502.996C568.777 502.528 570.355 502.343 572.037 502.313C565.656 511.529 559.517 518.816 548.848 523.368C546.081 524.548 543.258 525.528 540.288 526.09C536.818 526.747 529.681 527.256 526.655 525.239C525.549 524.502 524.995 523.238 524.785 521.983Z" fill="#FB9735"/>
<path d="M550.124 514.031C550.668 513.993 551.23 513.92 551.756 514.106C552.058 514.212 552.339 514.406 552.445 514.716C552.59 515.136 552.408 515.645 552.203 516.015C551.558 517.176 550.381 517.742 549.146 518.108C548.576 518.152 547.982 518.231 547.435 518.025C547.136 517.914 546.87 517.706 546.78 517.394C546.666 517.004 546.823 516.539 547.016 516.198C547.673 515.037 548.859 514.377 550.124 514.031Z" fill="#FD6626"/>
<path d="M487.34 609.708C491.525 608.725 494.641 608.463 498.932 608.968C502.915 609.558 507.697 611.35 510.746 614.011C509.616 618.098 508.004 622.058 506.921 626.155C505.936 626.743 498.038 626.243 496.086 626.685C492.306 629.02 488.838 631.854 485.094 634.247C485.12 637.548 485.258 640.894 485.127 644.19C484.112 644.567 483.128 645.195 482.178 645.714C480.525 646.618 478.837 647.51 477.245 648.512C476.461 647.711 475.86 646.746 475.099 645.918C474.618 644.681 473.74 643.573 473.182 642.36C473.063 642.096 472.948 641.831 472.836 641.564C472.726 641.296 472.62 641.027 472.518 640.756C472.416 640.485 472.319 640.213 472.226 639.939C472.134 639.665 472.045 639.389 471.962 639.112C471.879 638.836 471.8 638.558 471.726 638.278C471.652 637.999 471.582 637.718 471.517 637.437C471.452 637.155 471.392 636.873 471.337 636.589C471.282 636.306 471.23 636.022 471.185 635.737C471.139 635.452 471.098 635.166 471.061 634.88C471.025 634.594 470.994 634.307 470.967 634.019C470.94 633.732 470.919 633.444 470.901 633.156C470.884 632.868 470.872 632.58 470.864 632.291C470.857 632.003 470.854 631.714 470.856 631.426C470.858 631.137 470.865 630.848 470.877 630.56C470.889 630.272 470.905 629.984 470.927 629.697C470.948 629.408 470.975 629.121 471.005 628.834C471.159 627.66 471.351 626.515 471.705 625.382C472.336 622.155 474.716 618.371 476.787 615.802C479.401 613.122 483.839 610.886 487.34 609.708Z" fill="#ED6422"/>
<path d="M478.735 620.336C480.197 620.001 481.715 619.82 483.193 619.559C486.122 619.041 489.08 618.494 491.98 617.841C492.343 617.759 492.877 617.531 493.191 617.704C493.993 620.692 494.98 623.789 496.086 626.685C492.306 629.02 488.838 631.854 485.094 634.247C481.529 632.086 478.672 628.709 475.098 626.598L475.106 626.492C476.526 624.571 477.509 622.369 478.735 620.336Z" fill="#FD6626"/>
<path d="M498.932 608.968C502.915 609.558 507.697 611.35 510.745 614.01C509.617 618.097 508.004 622.058 506.921 626.155C505.936 626.743 498.038 626.243 496.086 626.684C494.98 623.789 493.993 620.692 493.191 617.704C493.522 616.898 494.887 615.265 495.457 614.402C496.619 612.637 497.601 610.604 498.932 608.968Z" fill="#ED460C"/>
<path d="M507.883 561.339C509.151 565.261 511.69 567.397 515.35 569.252C523.031 573.145 531.88 572.809 538.021 579.499C539.371 580.97 540.518 582.633 541.13 584.532C542.316 588.209 541.711 592.086 539.883 595.455C535.839 602.914 523.265 609.288 515.752 613.409C514.598 614.042 513.318 614.548 512.2 615.224C511.752 614.767 511.259 614.394 510.745 614.011C507.697 611.35 502.915 609.558 498.932 608.968C494.641 608.463 491.525 608.725 487.34 609.708C488.126 608.221 489.439 606.65 490.357 605.166C491.43 603.434 492.361 601.607 493.312 599.81C494.552 597.467 495.771 595.16 496.764 592.703C498.097 589.404 499.157 586.164 499.892 582.686C501.694 574.155 501.516 568.406 507.883 561.339Z" fill="#FB9735"/>
<path d="M522.465 592.233C523.229 592.167 523.95 592.095 524.655 592.447C525.336 592.787 525.794 593.384 526.009 594.097C526.26 594.923 526.198 595.892 525.754 596.647C525.256 597.493 524.546 597.843 523.613 598.094C522.802 598.157 522.04 598.171 521.3 597.795C521.219 597.755 521.141 597.711 521.064 597.663C520.988 597.614 520.914 597.563 520.843 597.507C520.772 597.452 520.703 597.394 520.638 597.332C520.573 597.27 520.511 597.205 520.452 597.137C520.393 597.069 520.338 596.999 520.286 596.926C520.235 596.853 520.187 596.777 520.143 596.699C520.099 596.621 520.059 596.541 520.023 596.46C519.988 596.378 519.956 596.295 519.928 596.211C519.898 596.114 519.871 596.017 519.85 595.919C519.828 595.82 519.813 595.72 519.802 595.62C519.791 595.52 519.785 595.42 519.785 595.319C519.785 595.219 519.789 595.118 519.798 595.018C519.808 594.917 519.823 594.818 519.844 594.719C519.863 594.62 519.887 594.523 519.918 594.426C519.947 594.33 519.982 594.235 520.021 594.142C520.061 594.049 520.106 593.958 520.155 593.87C520.662 592.965 521.476 592.5 522.465 592.233Z" fill="#D2340C"/>
<path d="M434.594 623.756L435.667 623.609C435.87 623.991 437.012 624.265 437.441 624.399C441.901 625.781 446.589 625.849 451.16 626.581L451.235 626.551C452.9 626.8 454.667 626.769 456.35 626.799C462.121 626.901 466.059 626.697 471.705 625.382C471.351 626.515 471.159 627.66 471.005 628.834C470.975 629.121 470.948 629.408 470.927 629.696C470.905 629.984 470.889 630.272 470.877 630.56C470.865 630.848 470.858 631.137 470.856 631.426C470.854 631.714 470.857 632.003 470.864 632.291C470.872 632.58 470.884 632.868 470.9 633.156C470.918 633.444 470.94 633.732 470.967 634.019C470.994 634.307 471.025 634.593 471.061 634.88C471.098 635.166 471.139 635.452 471.185 635.737C471.23 636.022 471.282 636.306 471.337 636.589C471.392 636.873 471.452 637.155 471.517 637.437C471.582 637.718 471.652 637.999 471.726 638.278C471.8 638.558 471.879 638.836 471.961 639.112C472.045 639.389 472.134 639.664 472.226 639.939C472.319 640.213 472.416 640.485 472.518 640.756C472.619 641.027 472.726 641.296 472.836 641.563C472.947 641.831 473.063 642.096 473.182 642.36C473.739 643.573 474.618 644.681 475.099 645.918C475.102 645.955 475.103 645.993 475.106 646.03C475.24 647.919 476.036 649.918 476.472 651.765C477.769 657.257 477.844 663.966 473.886 668.488C471.079 671.694 467.275 672.904 463.553 674.746C460.463 676.275 455.175 679.746 453.4 682.579L453.01 683.357C452.027 682.077 451.318 680.468 450.542 679.053C449.282 676.758 448.006 674.473 446.713 672.197C442.335 664.411 437.914 656.648 433.45 648.908C433.308 645.836 433.767 642.103 433.911 638.97C434.144 633.911 434.186 628.802 434.594 623.756Z" fill="#FB9735"/>
<path d="M434.594 623.756L435.667 623.609C435.87 623.991 437.012 624.265 437.441 624.399C441.901 625.781 446.589 625.849 451.16 626.581C449.977 627.853 448.903 629.225 447.777 630.546C444.249 634.736 440.815 639 437.477 643.336C436.574 644.525 435.698 645.733 434.851 646.96C434.402 647.597 433.976 648.331 433.45 648.908C433.308 645.836 433.767 642.103 433.911 638.97C434.144 633.911 434.186 628.802 434.594 623.756Z" fill="#FEC656"/>
<path d="M458.096 649.705C459.985 649.461 461.929 649.729 463.541 650.76C465.353 651.919 466.474 653.789 466.892 655.841C466.925 656.012 466.954 656.184 466.978 656.356C467.003 656.528 467.023 656.7 467.039 656.873C467.055 657.047 467.067 657.22 467.074 657.394C467.081 657.567 467.084 657.741 467.083 657.914C467.081 658.088 467.075 658.263 467.066 658.436C467.055 658.609 467.041 658.783 467.022 658.955C467.003 659.128 466.98 659.3 466.953 659.472C466.925 659.644 466.894 659.815 466.858 659.985C466.822 660.155 466.782 660.324 466.737 660.492C466.692 660.661 466.644 660.828 466.59 660.994C466.538 661.16 466.481 661.325 466.42 661.487C466.358 661.651 466.294 661.813 466.224 661.973C466.155 662.133 466.083 662.291 466.005 662.448C465.928 662.604 465.847 662.759 465.762 662.912C465.678 663.065 465.588 663.215 465.496 663.363C465.404 663.512 465.308 663.658 465.208 663.802C463.501 666.275 461.09 667.884 458.101 668.468C456.124 668.767 453.87 668.51 452.176 667.409C450.444 666.284 449.409 664.437 449.033 662.466C448.484 659.592 449.279 656.63 450.987 654.249C452.717 651.838 455.122 650.199 458.096 649.705Z" fill="#ED460C"/>
<path d="M506.735 549.907C506.915 551.009 506.894 552.193 506.923 553.307C506.996 555.996 507.066 558.745 507.884 561.339C501.516 568.406 501.694 574.155 499.892 582.687C499.157 586.164 498.096 589.404 496.764 592.703C495.771 595.16 494.552 597.467 493.313 599.811C492.361 601.608 491.43 603.434 490.358 605.166C489.439 606.65 488.126 608.221 487.34 609.708C483.839 610.886 479.401 613.122 476.787 615.802C474.716 618.371 472.336 622.155 471.705 625.382C466.059 626.697 462.121 626.901 456.35 626.799C454.667 626.769 452.9 626.8 451.235 626.551L451.16 626.581C446.589 625.85 441.901 625.781 437.441 624.399C437.012 624.265 435.87 623.991 435.667 623.61C436.771 623.328 437.854 622.985 438.916 622.577C446.338 619.746 451.513 614.742 454.702 607.619C454.832 606.203 455.391 604.727 455.544 603.24C455.698 601.746 455.712 600.321 455.519 598.833C455.247 596.733 453.063 588.228 451.827 586.743C452.747 586.401 453.647 585.909 454.55 585.515C456.845 584.524 459.13 583.508 461.402 582.466C465.189 580.739 469.026 579.123 472.802 577.371C473.585 576.923 474.525 576.595 475.352 576.22C477.142 575.408 478.912 574.591 480.637 573.65C482.845 572.444 485.054 571.26 487.134 569.847C494.365 564.936 500.397 558.18 505.642 551.332C505.975 550.837 506.364 550.376 506.735 549.907Z" fill="#FEC656"/>
<path d="M454.702 607.619C456.053 606.297 456.029 603.676 456.495 601.975C456.723 601.138 457.113 600.325 457.539 599.569C460.808 593.76 466.279 591.015 472.549 589.241C471.306 602.197 464.655 610.471 456.652 620.243C455.321 621.869 452.114 625.021 451.235 626.551L451.16 626.581C446.589 625.85 441.901 625.781 437.441 624.399C437.012 624.265 435.87 623.991 435.667 623.609C436.771 623.328 437.854 622.985 438.916 622.577C446.338 619.746 451.513 614.742 454.702 607.619Z" fill="#FEE488"/>
<path d="M472.802 577.37C473.585 576.923 474.525 576.595 475.352 576.22C477.142 575.408 478.912 574.59 480.637 573.65C482.845 572.444 485.054 571.26 487.134 569.847C494.365 564.935 500.397 558.18 505.642 551.332C505.675 551.443 505.748 551.549 505.742 551.664C505.729 551.967 504.679 554.536 504.503 555.186C503.737 557.941 503.054 560.715 502.455 563.508C501.914 565.929 501.441 568.366 500.715 570.743C500.133 572.649 499.416 574.55 498.446 576.3C495.235 582.092 488.347 585.089 482.196 586.839C481.053 587.164 473.445 589.401 472.621 589.035C473.159 585.527 473.972 580.811 472.802 577.37Z" fill="#FB9735"/>
<path d="M548.793 598.211C546.836 595.84 545.313 582.769 545.42 579.648C545.475 578.024 545.767 576.268 546.493 574.793C547.378 572.994 548.888 571.532 550.461 570.298C556.712 565.397 564.55 563.836 572.13 561.981C575.288 561.208 578.475 560.353 581.556 559.323C585.632 557.958 589.862 556.046 593.028 553.132C595.568 550.795 597.496 548.128 598.723 544.927C601.099 538.731 599.14 535.227 595.768 530.073C594.924 528.783 594.051 527.54 594.145 525.931C594.166 525.596 594.226 525.351 594.487 525.115C595.258 524.868 596.2 525.133 596.897 525.489C598.547 526.334 600.046 527.745 601.6 528.776C606.764 532.205 612.433 534.874 618.658 535.789C618.7 535.806 618.742 535.825 618.783 535.841C619.161 535.989 619.664 535.993 620.07 536.034C622.99 536.325 626.524 535.229 628.11 538.461C629.351 540.991 629.272 544.143 630.092 546.833C630.567 548.385 631.442 549.548 632.378 550.857C633.11 551.882 633.827 552.941 634.631 553.912C636.486 556.152 638.553 558.229 640.384 560.485C640.386 562.162 639.999 563.926 639.755 565.588C639.111 569.881 638.323 574.147 637.39 578.389C636.539 582.422 635.735 586.595 634.068 590.393C633.165 592.452 632.012 594.09 630.393 595.68C629.107 596.942 627.528 597.905 626.316 599.232C622.121 603.305 617.174 609.586 615.005 615.006C612.81 619.338 610.475 624.618 606.315 627.47C604.024 629.041 601.202 630.061 598.56 630.932C595.649 631.891 592.635 632.523 589.645 633.202C584.769 634.309 579.965 635.445 575.34 637.354C574.11 637.861 572.653 638.42 571.561 639.162C568.355 640.841 565.425 642.916 562.282 644.689C560.56 645.66 558.754 646.461 556.99 647.355C553.277 649.239 548.91 651.753 545.971 654.677C544.961 655.681 544.096 656.818 543.295 657.986C541.203 661.04 540.012 664.598 538.224 667.82C537.894 668.417 537.548 669.2 537.095 669.702L537.033 669.674C536.987 669.685 536.935 669.681 536.897 669.706C536.776 669.783 535.393 672.143 535.187 672.451C534.722 673.145 534.204 673.815 533.679 674.465C532.992 675.315 529.422 678.891 528.541 678.991C528.406 678.944 528.268 678.902 528.133 678.852C527.369 678.576 526.549 678.765 525.751 678.63C525.102 677.762 525.083 678.32 524.271 678.079C523.484 677.847 521.442 675.178 520.641 674.502C520.352 674.26 520.004 674.149 519.682 673.963C518.58 673.326 515.525 671.619 514.413 671.271C514.303 671.395 514.213 671.513 514.121 671.65C514.003 671.825 513.981 671.86 513.758 671.888C513.319 671.943 512.122 671.778 511.775 671.522C511.638 671.421 511.67 671.34 511.65 671.188C511.738 671.054 511.81 670.981 511.82 670.819C511.62 670.792 511.531 670.774 511.363 670.656C511.137 670.499 511.016 670.437 510.741 670.414C510.675 670.409 510.61 670.404 510.546 670.4C511.38 667.86 512.252 663.731 513.506 661.563C513.98 660.742 514.591 660.038 515.217 659.325C515.613 658.874 515.961 658.358 516.412 657.957C519.975 654.799 525.175 653.545 529.469 651.612C532.408 650.289 535.348 648.57 537.972 646.718C538.838 646.106 540.317 645.248 541.005 644.493C541.032 644.463 541.055 644.43 541.08 644.398C542.196 643.772 543.272 642.659 544.204 641.785C547.852 638.362 551.176 634.741 553.548 630.337C557.489 623.021 557.486 617.463 554.703 609.743C554.207 608.368 553.358 607.086 552.934 605.706C552.926 605.678 552.918 605.65 552.909 605.621L552.691 605.286C552.109 604.529 551.616 603.709 551.107 602.904C550.113 601.624 549.211 599.764 548.793 598.211Z" fill="#C32505"/>
<path d="M617.324 552.504C619.711 554.962 621.088 558.666 620.981 562.038C620.962 562.634 620.921 563.241 620.822 563.83C619.259 563.156 616.933 563.379 615.262 563.497C615.653 562.66 614.04 559.278 613.701 558.259C614.274 556.118 615.529 553.889 617.324 552.504Z" fill="#891404"/>
<path d="M608.574 548.565C611.416 549.067 613.832 549.694 616.15 551.472C616.513 551.75 616.968 552.048 617.254 552.403C617.279 552.435 617.3 552.47 617.324 552.504C615.529 553.889 614.273 556.118 613.7 558.259C612.798 558.31 610.223 557.718 609.556 557.148C609.529 556.739 607.474 552.226 607.127 550.986C607.641 550.194 608.163 549.414 608.574 548.565Z" fill="#AB2E08"/>
<path d="M594.959 558.22C595.851 558.959 596.929 559.657 597.979 560.158C598.969 560.904 600.076 561.523 601.123 562.187C600.711 564.288 600.49 566.447 600.307 568.579C598.596 569.099 596.838 569.453 595.11 569.91C594.27 568.654 593.808 566.182 593.669 564.68C593.499 562.848 593.692 559.691 594.959 558.22Z" fill="#D2340C"/>
<path d="M600.306 568.579C602.046 568.714 606.661 570.304 608.283 571.074C608.442 572.077 609.12 575.382 609.954 575.992C608.064 576.471 605.959 576.523 604.045 576.169C600.273 575.471 597.215 572.941 595.11 569.91C596.837 569.453 598.596 569.099 600.306 568.579Z" fill="#891404"/>
<path d="M615.262 563.497C616.933 563.379 619.258 563.156 620.822 563.83C619.918 568.327 617.666 571.706 613.744 574.257C612.567 575.023 611.313 575.609 609.954 575.993C609.12 575.382 608.442 572.077 608.283 571.075C608.423 569.455 608.906 567.972 609.907 566.661C611.254 564.893 613.042 563.826 615.262 563.497Z" fill="#570F16"/>
<path d="M596.664 555.12C597.206 554.065 598.127 553.04 598.992 552.224C599.151 552.076 599.313 551.931 599.48 551.791C599.646 551.65 599.815 551.514 599.988 551.381C600.161 551.249 600.338 551.12 600.517 550.996C600.698 550.872 600.879 550.752 601.065 550.637C601.251 550.521 601.439 550.41 601.63 550.304C601.82 550.197 602.014 550.095 602.21 549.998C602.406 549.901 602.605 549.808 602.805 549.72C603.006 549.633 603.209 549.55 603.414 549.471C603.618 549.393 603.826 549.32 604.034 549.251C604.242 549.183 604.452 549.12 604.664 549.061C604.875 549.003 605.088 548.95 605.303 548.902C605.517 548.853 605.733 548.81 605.949 548.772C606.166 548.734 606.382 548.701 606.6 548.674C606.819 548.646 607.037 548.623 607.257 548.606C607.476 548.589 607.695 548.577 607.915 548.57C608.135 548.563 608.354 548.562 608.574 548.565C608.163 549.414 607.64 550.194 607.127 550.986C607.474 552.226 609.53 556.738 609.556 557.148C606.594 558.569 604.001 560.623 601.124 562.187C600.075 561.523 598.969 560.904 597.98 560.158C596.93 559.657 595.851 558.959 594.959 558.22C595.441 557.105 595.9 556.085 596.664 555.12Z" fill="#ED460C"/>
<path d="M596.664 555.121C597.503 554.783 598.325 554.202 599.136 553.784C601.227 552.705 603.891 551.738 606.271 551.568C604.404 553.395 602.507 555.219 600.711 557.113C599.772 558.103 598.939 559.191 597.98 560.158C596.93 559.657 595.851 558.959 594.959 558.22C595.441 557.105 595.9 556.085 596.664 555.121Z" fill="#ED6422"/>
<path d="M609.556 557.148C610.223 557.718 612.798 558.31 613.701 558.259C614.04 559.278 615.653 562.66 615.262 563.497C613.041 563.826 611.254 564.893 609.907 566.66C608.906 567.971 608.422 569.455 608.283 571.074C606.661 570.304 602.045 568.714 600.307 568.579C600.491 566.447 600.711 564.288 601.123 562.187C604 560.623 606.594 558.569 609.556 557.148Z" fill="#C32505"/>
<path d="M548.793 598.211C548.764 597.348 548.525 596.467 548.389 595.613C548.244 594.657 548.156 593.695 548.125 592.728C547.919 587.583 549.69 582.347 553.309 578.55C556.971 574.707 561.751 572.718 567.098 572.539C570.818 572.415 574.21 573.582 577.434 575.307C578.516 575.885 579.652 576.527 580.557 577.355C579 580.578 577.024 583.588 575.663 586.91C575.624 586.928 575.586 586.947 575.548 586.965C572.994 588.154 569.779 588.244 567.029 588.737C561.53 589.723 559.856 591.206 557.617 595.967C556.862 597.597 556.079 599.215 555.271 600.82C554.914 601.536 554.603 602.343 554.182 603.02C553.157 602.994 552.132 602.955 551.107 602.904C550.113 601.625 549.211 599.764 548.793 598.211Z" fill="#AB2E08"/>
<path d="M568.792 573.632C569.193 574.351 569.164 575.71 569.301 576.547C568.119 577.71 566.643 578.726 565.343 579.775C561.364 582.986 557.314 585.993 553.147 588.963C553.044 589.03 553.113 588.995 552.927 589.035C552.933 588.917 552.929 588.89 552.967 588.76C553.483 587.027 556.069 583.731 557.145 582.061C557.821 581.01 558.421 579.373 559.409 578.585C560.394 577.798 561.783 577.298 562.912 576.726C564.893 575.732 566.854 574.701 568.792 573.632Z" fill="#ED6422"/>
<path d="M580.557 577.355C584.908 581.118 587.752 586.123 588.111 591.855C588.162 592.68 588.212 593.611 588.044 594.422C587.824 599.072 585.105 603.963 581.627 607.062C578.565 609.789 575.17 611.44 571.166 612.418C569.961 612.572 568.78 612.724 567.56 612.724C567.277 612.723 566.994 612.717 566.712 612.704C566.43 612.691 566.147 612.671 565.866 612.646C565.584 612.62 565.303 612.588 565.023 612.55C564.743 612.511 564.463 612.466 564.186 612.415C563.908 612.364 563.632 612.307 563.357 612.243C563.081 612.179 562.807 612.11 562.536 612.034C562.264 611.957 561.993 611.875 561.725 611.787C561.457 611.699 561.192 611.605 560.927 611.504C560.665 611.404 560.404 611.298 560.145 611.186C559.886 611.074 559.631 610.956 559.378 610.832C559.125 610.709 558.875 610.579 558.628 610.444C558.381 610.309 558.138 610.168 557.897 610.022C557.658 609.876 557.421 609.725 557.187 609.568C556.955 609.411 556.726 609.249 556.501 609.082C556.275 608.915 556.054 608.743 555.836 608.565C555.619 608.388 555.406 608.207 555.198 608.02C554.395 607.31 553.749 606.438 552.982 605.691L552.909 605.622L552.691 605.286C552.109 604.529 551.616 603.709 551.107 602.904C552.132 602.956 553.157 602.994 554.183 603.02C554.603 602.343 554.914 601.536 555.271 600.82C556.08 599.215 556.863 597.597 557.617 595.967C559.856 591.207 561.53 589.723 567.029 588.737C569.779 588.244 572.994 588.154 575.548 586.965C575.586 586.947 575.624 586.928 575.663 586.91C577.024 583.588 579 580.578 580.557 577.355Z" fill="#891404"/>
<path d="M577.806 593.859C580.054 593.835 582.312 593.678 584.557 593.573C585.64 593.523 586.792 593.388 587.869 593.486C588.062 593.746 588.031 594.104 588.044 594.422C587.824 599.072 585.105 603.963 581.627 607.062C578.565 609.789 575.17 611.44 571.166 612.418C571.053 611.378 570.637 610.268 570.336 609.266C569.806 607.502 569.262 605.752 568.87 603.953C569.436 602.898 576.734 594.715 577.806 593.859Z" fill="#570F16"/>
</g>
<mask id="mask1_2051_1286" style="mask-type:luminance" maskUnits="userSpaceOnUse" x="0" y="41" width="329" height="281">
<path d="M329 41H0V322H329V41Z" fill="white"/>
</mask>
<g mask="url(#mask1_2051_1286)">
<mask id="mask2_2051_1286" style="mask-type:luminance" maskUnits="userSpaceOnUse" x="0" y="41" width="329" height="281">
<path d="M329 41H0V322H329V41Z" fill="white"/>
</mask>
<g mask="url(#mask2_2051_1286)">
<path d="M0 41H328.979C329.156 41.3238 329.226 41.5501 329.245 41.9216C329.35 44.2073 329.266 46.5388 329.268 48.8287V62.0961C329.268 63.8658 329.524 70.741 329.177 72.0543C329.142 72.1809 329.105 72.2555 329.05 72.3797C329.329 73.163 329.419 74.4614 329.097 75.2505C329.082 75.2906 329.058 75.3276 329.039 75.3661C329.619 76.9236 329.26 115.936 329.26 121.208L329.264 255.767V304.882C329.264 307.263 329.555 320.742 329.142 321.893C329.09 322.035 329.047 322.101 328.979 322.228H0V290.778V288.387V41Z" fill="#FEFEFE"/>
<path d="M272.931 164.514C273.991 166.099 273.439 189.465 273.207 192.851C272.939 197.03 272.455 201.181 271.757 205.305C267.685 229.377 254.843 251.029 238.38 268.042C232.961 273.641 227.816 278.357 221.549 282.927C196.018 301.545 165.325 307.996 134.753 302.421C134.723 302.416 134.694 302.41 134.663 302.404C137.129 300.497 141.222 298.888 144.029 297.326C149.356 294.35 154.529 291.108 159.551 287.601C162.532 285.57 165.464 283.465 168.347 281.286C171.23 279.107 174.06 276.856 176.839 274.534C179.617 272.212 182.341 269.821 185.009 267.361C187.676 264.902 190.286 262.376 192.836 259.786C209.168 242.996 222.822 222.562 232.944 201.136L233.944 200.022C237.784 197.154 241.272 193.85 244.899 190.704C252.463 184.227 259.838 177.523 267.022 170.589C268.754 168.907 271.652 166.495 272.931 164.514Z" fill="#A2EC00"/>
<path d="M230.341 80.6453C233.109 78.0769 240.061 74.3337 243.533 72.4463C245.748 71.2423 247.871 69.8328 250.108 68.6827C264.003 61.5408 283.343 53.8143 298.795 52.5594C307.486 51.8537 316.524 52.635 323.386 58.8437C324.023 59.4188 325.336 60.5414 325.407 61.4667C326.905 62.38 328.037 66.3913 328.46 68.0524C328.742 69.1636 329.337 71.2654 329.05 72.3796C329.329 73.1629 329.418 74.4614 329.097 75.2504C329.082 75.2905 329.057 75.3276 329.039 75.366C329.368 77.0956 328.74 79.6981 328.398 81.438C325.707 95.1221 318.58 107.43 311.239 118.905C302.361 132.781 291.444 145.198 280.238 157.035C278.247 159.136 275.694 162.394 273.284 163.897C273.183 164.14 273.102 164.318 272.931 164.514C271.652 166.496 268.754 168.907 267.022 170.589C259.838 177.523 252.464 184.227 244.899 190.704C241.272 193.85 237.784 197.155 233.944 200.022C234.748 197.205 235.815 193.982 236.964 191.223C238.595 185.632 240.974 180.262 242.556 174.694C242.679 174.276 242.645 173.402 242.789 172.993C244.939 166.882 245.854 160.989 246.517 154.518L248.815 152.37C250.495 150.854 252.052 149.073 253.637 147.446C256.191 144.824 258.8 142.232 261.255 139.51C262.75 137.852 264.148 136.059 265.719 134.485L265.762 134.352C261.774 122.704 255.718 111.062 248.48 101.268C246.328 98.0001 243.678 94.6695 241.121 91.7331C239.85 90.3898 238.722 88.8927 237.448 87.5458C235.185 85.1532 232.715 82.921 230.341 80.6453Z" fill="#FACE7A"/>
<path d="M241.12 91.733C251.595 85.8458 272.48 74.4778 284.453 78.1885C286.964 78.9668 289.002 80.5855 290.254 83.0036C292.231 86.8261 291.515 91.6631 290.328 95.6247C286.762 107.532 278.227 119.095 270.709 128.644C269.462 130.228 267.383 133.415 265.761 134.352C261.774 122.704 255.718 111.062 248.48 101.268C246.328 98.0001 243.678 94.6694 241.12 91.733Z" fill="#FEFEFE"/>
<path d="M209.049 187.136C211.862 185.239 214.464 182.785 217.124 180.653C223.113 175.908 228.945 170.962 234.62 165.815C239.397 161.449 243.983 156.859 248.761 152.498C248.098 158.967 245.872 167.599 243.722 173.71C243.578 174.12 243.444 174.532 243.322 174.949C241.739 180.517 239.834 185.961 237.605 191.282C236.456 194.04 234.748 197.205 233.943 200.022L232.944 201.135C222.821 222.563 209.168 242.996 192.836 259.785C190.285 262.376 187.676 264.902 185.008 267.361C182.341 269.821 179.617 272.212 176.839 274.534C174.06 276.856 171.229 279.107 168.346 281.286C165.463 283.465 162.532 285.57 159.551 287.601C154.53 291.108 149.356 294.35 144.029 297.326C141.221 298.888 137.129 300.497 134.663 302.404C131.401 302.096 127.847 300.956 124.713 299.952C119.309 298.221 113.943 296.341 108.793 293.89C105.419 292.283 102.15 290.367 98.8689 288.563C96.3596 289.568 93.9559 290.924 91.4961 292.063C87.7999 293.728 84.0778 295.331 80.331 296.871C78.5881 297.606 76.4221 298.793 74.5786 299.089C72.6502 299.986 70.5313 300.616 68.5294 301.337C64.936 302.639 61.3091 303.829 57.6482 304.906C53.9877 305.984 50.2992 306.947 46.5836 307.796C35.1479 310.487 18.1604 313.282 7.61873 306.259C3.66166 303.622 1.57324 299.998 0.686347 295.235C0.410414 293.754 0.310113 292.255 0 290.778V288.386C0.510202 285.587 0.451197 282.735 1.027 279.918C1.21985 277.482 2.32958 274.711 3.03625 272.382C8.60883 254.014 19.8141 237.915 31.9587 223.646C34.8479 220.251 37.7078 216.827 40.8746 213.706C42.3753 220.158 44.703 226.246 47.2441 232.317C49.5545 237.255 51.7564 242.072 54.5534 246.743C55.1453 247.731 55.7617 248.96 56.4873 249.836C60.7751 256.935 66.404 264.477 72.3012 270.201C74.854 269.131 77.5508 268.38 80.1315 267.367C87.2613 264.571 94.4343 261.514 101.355 258.184C122.931 247.806 143.772 235.12 163.533 221.381C169.241 217.359 174.893 213.256 180.493 209.072C187.541 203.927 194.473 198.619 201.29 193.146C203.852 191.13 206.566 189.25 209.049 187.136Z" fill="#FACE7A"/>
<path d="M47.2441 232.317C49.5545 237.255 51.7564 242.072 54.5534 246.743C55.1452 247.73 55.7617 248.961 56.4873 249.836C60.775 256.935 66.4034 264.478 72.3012 270.202C68.9431 272.342 56.2193 274.891 52.0961 275.313C46.5509 275.881 39.5893 275.39 35.1633 271.528C32.8023 269.468 31.4559 266.358 31.2194 263.185C30.4279 252.582 41.1019 239.847 47.2441 232.317Z" fill="#FEFEFE"/>
<path d="M232.945 201.136C222.822 222.562 209.168 242.996 192.836 259.786C190.286 262.377 187.676 264.902 185.009 267.361C182.341 269.821 179.617 272.212 176.839 274.534C174.06 276.856 171.23 279.107 168.347 281.286C165.464 283.465 162.532 285.57 159.551 287.601C154.53 291.108 149.356 294.35 144.029 297.326C141.222 298.888 137.129 300.497 134.663 302.404C131.401 302.096 127.847 300.956 124.713 299.952C119.309 298.221 113.943 296.341 108.793 293.89C105.419 292.284 102.151 290.367 98.869 288.564C111.246 282.998 123.072 276.207 134.819 269.337C141.211 265.608 147.549 261.783 153.834 257.863C160.12 253.941 166.349 249.927 172.523 245.818C178.698 241.711 184.813 237.51 190.871 233.217C196.929 228.925 202.926 224.542 208.863 220.068C217.041 213.968 224.741 207.179 232.945 201.136Z" fill="#2CD945"/>
<path d="M185.625 55.623C199.38 59.5265 213.912 67.3296 225.176 76.365C226.355 77.3117 228.921 79.083 229.688 80.1932C229.716 80.2338 229.731 80.2827 229.752 80.3275L230.341 80.6458C232.715 82.9214 235.186 85.1537 237.448 87.5463C238.722 88.8931 239.851 90.3902 241.121 91.7334C243.679 94.6698 246.328 98.0005 248.48 101.269C255.718 111.062 261.774 122.704 265.761 134.353L265.719 134.486C264.148 136.059 262.749 137.853 261.255 139.509C258.8 142.233 256.19 144.824 253.638 147.446C252.052 149.074 250.495 150.854 248.816 152.37L248.762 152.497C243.983 156.859 239.398 161.449 234.62 165.815C228.945 170.962 223.113 175.909 217.125 180.653C214.464 182.786 211.862 185.239 209.049 187.137C206.567 189.25 203.852 191.131 201.29 193.147C194.474 198.619 187.541 203.928 180.493 209.073C174.894 213.257 169.241 217.359 163.534 221.382C143.772 235.12 122.932 247.807 101.356 258.185C94.4344 261.514 87.2614 264.572 80.1316 267.368C77.5508 268.38 74.8545 269.132 72.3013 270.202C66.404 264.478 60.7756 256.936 56.4879 249.837C55.7619 248.961 55.1458 247.73 54.5535 246.743C51.7565 242.073 49.5546 237.255 47.2442 232.318C44.7032 226.246 42.3755 220.158 40.8747 213.706C39.9628 211.184 39.5869 208.243 39.1197 205.598C36.8012 192.479 35.9379 178.943 37.395 165.657L37.8145 165.647C38.2807 166.609 40.5939 168.438 41.478 169.223C42.6461 170.248 43.8348 171.247 45.0443 172.218C46.2538 173.19 47.4828 174.133 48.7317 175.049C49.9801 175.965 51.2472 176.852 52.5329 177.711C53.8186 178.57 55.1211 179.399 56.4412 180.199C57.761 180.999 59.097 181.768 60.4489 182.508C61.8008 183.246 63.1676 183.955 64.5488 184.632C65.9301 185.309 67.3253 185.955 68.7331 186.57C70.1414 187.184 71.5617 187.766 72.9942 188.316C73.711 188.599 74.431 188.873 75.1542 189.138C75.8774 189.403 76.6035 189.658 77.3327 189.903C78.0625 190.149 78.7946 190.385 79.5291 190.613C80.2639 190.84 81.0016 191.057 81.7415 191.264C82.4815 191.472 83.2248 191.671 83.9689 191.86C84.7139 192.048 85.4612 192.227 86.2094 192.397C86.9592 192.566 87.7098 192.726 88.462 192.875C89.2151 193.026 89.9697 193.166 90.726 193.296C91.4823 193.427 92.2394 193.547 92.9982 193.659C93.7577 193.77 94.5173 193.87 95.2792 193.962C96.0404 194.053 96.8032 194.134 97.566 194.206C98.3296 194.278 99.0932 194.34 99.8584 194.392C100.624 194.444 101.388 194.486 102.154 194.517C102.92 194.55 103.686 194.572 104.452 194.584C105.218 194.597 105.985 194.599 106.751 194.591C107.518 194.584 108.284 194.566 109.049 194.54C109.815 194.512 110.581 194.475 111.347 194.428C112.112 194.381 112.876 194.324 113.64 194.258C114.403 194.191 115.166 194.114 115.927 194.028C116.69 193.941 117.451 193.845 118.21 193.739C118.97 193.633 119.728 193.516 120.486 193.391C121.242 193.265 121.997 193.131 122.75 192.984C123.505 192.839 124.256 192.685 125.006 192.52C125.756 192.355 126.504 192.181 127.251 191.997C127.996 191.813 128.74 191.62 129.481 191.416C130.222 191.213 130.961 191.001 131.697 190.779C132.434 190.556 133.167 190.325 133.897 190.083C134.628 189.843 135.356 189.592 136.081 189.331C136.806 189.072 137.527 188.802 138.246 188.524C138.965 188.244 139.679 187.957 140.39 187.66C141.102 187.363 141.81 187.057 142.515 186.741C143.219 186.426 143.919 186.102 144.616 185.769C164.776 176.141 178.944 156.39 186.505 135.127C193.624 115.105 193.951 94.0262 190.288 73.2377C189.368 68.0162 187.711 60.3756 185.625 55.623Z" fill="#A2EC00"/>
<path d="M229.752 80.3271L230.342 80.6454C232.715 82.9211 235.186 85.1533 237.448 87.5459C238.723 88.8928 239.851 90.3899 241.121 91.7332C243.679 94.6696 246.328 98.0002 248.48 101.268C255.718 111.062 261.775 122.704 265.762 134.352L265.719 134.485C264.148 136.059 262.749 137.852 261.255 139.51C258.801 142.232 256.191 144.824 253.637 147.446C252.052 149.073 250.495 150.854 248.815 152.37L248.762 152.497C243.983 156.859 239.398 161.449 234.62 165.815C228.945 170.962 223.113 175.908 217.125 180.654C214.464 182.786 211.862 185.239 209.049 187.136C206.567 189.25 203.852 191.13 201.291 193.146C194.473 198.619 187.541 203.928 180.493 209.072C174.893 213.256 169.241 217.359 163.533 221.381C143.772 235.12 122.932 247.806 101.355 258.185C94.4345 261.514 87.2615 264.571 80.1317 267.368C77.5509 268.38 74.8542 269.132 72.3014 270.201C66.4041 264.477 60.7752 256.935 56.4874 249.836C61.6746 249.543 66.152 249.676 71.436 248.967C97.0665 245.53 121.579 233.854 143.119 219.342C164.32 205.06 184.435 184.111 198.511 162.276C203.071 155.201 207.072 147.693 210.842 140.133C215.505 130.785 219.654 121.211 222.816 111.188C225.032 104.164 227.002 96.7834 228.378 89.5277C228.748 87.6004 229.06 85.6629 229.316 83.7154C229.456 82.6306 229.499 81.5084 229.726 80.4417C229.735 80.4035 229.744 80.3653 229.752 80.3271Z" fill="#2CD945"/>
<path d="M226.219 133.351C228.193 133.352 230.074 134.178 231.594 135.467C233.975 137.488 235.342 140.62 235.613 143.779C235.63 143.967 235.643 144.155 235.651 144.344C235.659 144.533 235.663 144.723 235.663 144.912C235.662 145.101 235.656 145.29 235.646 145.479C235.637 145.667 235.622 145.856 235.603 146.043C235.585 146.232 235.562 146.419 235.533 146.606C235.506 146.793 235.473 146.978 235.437 147.164C235.399 147.349 235.359 147.533 235.313 147.716C235.268 147.899 235.218 148.081 235.164 148.26C235.109 148.441 235.051 148.62 234.988 148.797C234.925 148.975 234.858 149.151 234.788 149.324C234.716 149.498 234.642 149.671 234.561 149.84C234.482 150.01 234.399 150.178 234.312 150.343C234.224 150.508 234.133 150.673 234.038 150.832C233.942 150.994 233.843 151.151 233.741 151.308C233.637 151.463 233.531 151.616 233.421 151.766C233.311 151.916 233.197 152.063 233.08 152.207C231.49 154.139 229.526 155.163 227.105 155.354C225.037 155.326 223.142 154.643 221.518 153.293C219.235 151.393 217.813 148.248 217.525 145.246C217.232 142.198 218.044 139.016 219.936 136.647C221.59 134.577 223.685 133.599 226.219 133.351Z" fill="#C0F786"/>
<path d="M248.48 101.268C255.718 111.062 261.775 122.704 265.762 134.352L265.719 134.485C264.148 136.059 262.749 137.852 261.256 139.509C258.801 142.232 256.191 144.824 253.638 147.446C252.052 149.073 250.495 150.854 248.816 152.37C249.108 149.854 249.645 147.354 249.961 144.833C250.462 141.074 250.802 137.297 250.983 133.506C251.163 129.714 251.183 125.922 251.043 122.128C250.957 119.747 250.901 117.296 250.497 114.949C250.32 110.337 249.077 105.822 248.48 101.268Z" fill="#6CF037"/>
<path d="M0 41H328.98C329.156 41.3238 329.227 41.5501 329.245 41.9216C329.351 44.2073 329.266 46.5388 329.269 48.8287V62.0961C329.269 63.8658 329.524 70.741 329.177 72.0543C329.142 72.1809 329.105 72.2555 329.05 72.3797C329.337 71.2655 328.742 69.1638 328.461 68.0525C328.037 66.3915 326.906 62.3801 325.408 61.4668C325.336 60.5414 324.023 59.419 323.387 58.8438C316.525 52.6351 307.486 51.8537 298.796 52.5596C283.344 53.8145 264.003 61.5409 250.109 68.6828C247.871 69.833 245.748 71.2425 243.533 72.4464C240.062 74.3337 233.109 78.0771 230.341 80.6455L229.752 80.3272C229.73 80.2824 229.716 80.2334 229.688 80.1929C228.921 79.0827 226.355 77.3114 225.175 76.3647C213.912 67.3293 199.379 59.5261 185.625 55.6227C187.712 60.3753 189.368 68.0159 190.288 73.2374C193.951 94.0259 193.625 115.104 186.504 135.126C178.944 156.39 164.777 176.14 144.617 185.768C143.92 186.102 143.219 186.426 142.515 186.741C141.811 187.056 141.102 187.362 140.391 187.66C139.679 187.957 138.964 188.245 138.246 188.523C137.527 188.802 136.806 189.072 136.081 189.331C135.357 189.591 134.629 189.842 133.898 190.083C133.167 190.324 132.434 190.556 131.697 190.778C130.961 191.001 130.223 191.213 129.481 191.416C128.74 191.619 127.996 191.813 127.25 191.997C126.504 192.181 125.756 192.355 125.006 192.519C124.257 192.684 123.504 192.839 122.751 192.985C121.998 193.13 121.242 193.265 120.485 193.391C119.729 193.517 118.97 193.633 118.21 193.739C117.451 193.844 116.69 193.94 115.928 194.027C115.166 194.114 114.403 194.191 113.64 194.258C112.876 194.324 112.111 194.38 111.347 194.428C110.582 194.475 109.816 194.512 109.05 194.539C108.284 194.567 107.518 194.584 106.751 194.591C105.985 194.599 105.218 194.597 104.452 194.584C103.686 194.572 102.92 194.55 102.154 194.517C101.388 194.485 100.623 194.443 99.8586 194.392C99.0934 194.339 98.3298 194.277 97.5662 194.206C96.8034 194.135 96.0406 194.053 95.2794 193.962C94.5174 193.87 93.7579 193.769 92.9983 193.659C92.2396 193.547 91.4825 193.427 90.7262 193.296C89.9699 193.166 89.2152 193.025 88.4622 192.875C87.71 192.725 86.9585 192.566 86.2096 192.396C85.4606 192.227 84.714 192.047 83.9691 191.859C83.2242 191.67 82.4817 191.472 81.7416 191.264C81.0018 191.057 80.2641 190.839 79.5291 190.612C78.7943 190.385 78.0622 190.149 77.3329 189.903C76.6035 189.658 75.8775 189.402 75.1543 189.138C74.431 188.873 73.711 188.599 72.9939 188.315C71.5619 187.765 70.1415 187.184 68.7332 186.569C67.3249 185.955 65.9301 185.309 64.5489 184.632C63.1676 183.954 61.8009 183.246 60.449 182.507C59.097 181.767 57.7611 180.998 56.4408 180.199C55.1211 179.399 53.8187 178.57 52.533 177.711C51.2472 176.852 49.9802 175.965 48.7313 175.049C47.4828 174.133 46.2538 173.189 45.0443 172.218C43.8348 171.247 42.646 170.248 41.478 169.223C40.5938 168.437 38.2806 166.609 37.8144 165.647L37.3949 165.657C35.9378 178.943 36.8011 192.479 39.1196 205.598C39.5868 208.242 39.9627 211.184 40.8747 213.706C37.7079 216.827 34.848 220.251 31.9588 223.646C19.8141 237.915 8.60885 254.015 3.03625 272.382C2.32958 274.711 1.21985 277.482 1.027 279.918C0.451198 282.736 0.510203 285.587 0 288.387V41Z" fill="#2CD945"/>
<path d="M72.5338 88.9617C72.5715 88.9532 72.6098 88.946 72.648 88.9364C74.362 88.4954 75.9627 86.6531 77.5164 85.7482C79.3249 84.6941 81.2211 83.7373 83.0974 82.8227C83.523 82.6192 83.9519 82.4221 84.3833 82.2317C84.8138 82.0415 85.2476 81.8579 85.6847 81.6808C86.1209 81.5039 86.5596 81.3338 87.0007 81.1703C87.4418 81.0069 87.8853 80.8504 88.3313 80.7006C88.7773 80.5509 89.2241 80.408 89.6741 80.2722C90.1233 80.1364 90.575 80.0073 91.0283 79.8852C91.4824 79.7633 91.9373 79.6484 92.3938 79.5405C92.8504 79.4325 93.3086 79.3316 93.7675 79.238C94.2273 79.1441 94.6879 79.0575 95.1501 78.9779C95.6124 78.8984 96.0754 78.826 96.5393 78.7606C97.0031 78.6955 97.4678 78.6373 97.9332 78.5862C98.3995 78.5353 98.8658 78.4916 99.3321 78.4552C99.7992 78.4186 100.266 78.3892 100.734 78.367C101.202 78.3449 101.67 78.33 102.138 78.3225C102.606 78.3149 103.074 78.3144 103.542 78.3212C104.01 78.3279 104.478 78.3419 104.946 78.3632C105.414 78.3842 105.881 78.4127 106.348 78.4483C106.815 78.4841 107.282 78.5269 107.747 78.5769C108.213 78.6268 108.678 78.684 109.142 78.7485C109.607 78.8129 110.069 78.8844 110.531 78.963C110.994 79.0417 111.455 79.1275 111.915 79.2206C112.374 79.3134 112.832 79.4134 113.289 79.5205C113.746 79.6274 114.2 79.7415 114.655 79.8627C115.108 79.9838 115.56 80.1118 116.01 80.2469C116.46 80.3819 116.907 80.5239 117.354 80.6729C117.799 80.8218 118.243 80.9775 118.685 81.14C119.127 81.3025 119.565 81.4717 120.002 81.6479C120.438 81.8239 120.873 82.0068 121.304 82.1963C121.736 82.3859 122.165 82.5822 122.59 82.7848C123.017 82.9876 123.44 83.1968 123.86 83.4127C124.28 83.6285 124.697 83.8508 125.11 84.0795C125.525 84.3082 125.935 84.5432 126.342 84.7845C136.889 91.1458 145.237 101.694 148.398 114.091C150.679 123.033 149.806 134.526 145.255 142.578C145.135 142.79 145.011 142.999 144.886 143.208C144.761 143.417 144.633 143.624 144.503 143.829C144.373 144.035 144.24 144.239 144.106 144.44C143.971 144.642 143.834 144.842 143.694 145.04C143.555 145.239 143.412 145.436 143.269 145.631C143.124 145.825 142.978 146.018 142.829 146.21C142.681 146.401 142.529 146.59 142.377 146.777C142.223 146.964 142.068 147.149 141.91 147.332C141.753 147.515 141.593 147.697 141.431 147.876C141.27 148.055 141.106 148.232 140.94 148.407C140.774 148.583 140.606 148.755 140.437 148.926C140.266 149.096 140.095 149.265 139.921 149.431C139.747 149.597 139.571 149.761 139.393 149.923C139.216 150.085 139.036 150.244 138.854 150.402C138.672 150.559 138.49 150.714 138.304 150.867C138.119 151.02 137.932 151.169 137.744 151.317C137.555 151.465 137.365 151.611 137.173 151.753C136.981 151.896 136.787 152.036 136.592 152.174C136.397 152.313 136.2 152.448 136.001 152.581C135.802 152.713 135.603 152.844 135.401 152.972C135.2 153.1 134.997 153.225 134.792 153.347C134.587 153.47 134.382 153.59 134.174 153.708C133.967 153.825 133.759 153.94 133.548 154.052C133.339 154.164 133.127 154.273 132.915 154.38C132.702 154.487 132.488 154.591 132.273 154.691C132.058 154.793 131.842 154.891 131.625 154.987C131.407 155.082 131.189 155.175 130.97 155.265C130.75 155.356 130.529 155.443 130.308 155.528C130.087 155.612 129.864 155.693 129.64 155.772C129.417 155.851 129.192 155.927 128.967 156C128.742 156.073 128.516 156.144 128.289 156.211C128.062 156.278 127.835 156.341 127.607 156.403C119.878 158.46 112.209 156.284 105.534 152.106C99.3548 148.24 94.8 143.488 89.1558 139.169C81.3987 133.234 71.8847 129.385 62.2248 131.859C54.2244 133.907 49.082 139.09 44.9703 146.264C42.8031 150.044 41.1131 154.322 39.7276 158.473C39.2613 159.871 38.2751 165.112 37.8145 165.647L37.3949 165.656C37.4761 164.904 37.5637 164.15 37.6576 163.399C37.7514 162.647 37.8515 161.896 37.9579 161.146C38.0642 160.396 38.1768 159.646 38.2955 158.899C38.4144 158.151 38.5393 157.403 38.6706 156.658C38.8019 155.913 38.9393 155.168 39.0828 154.424C39.2265 153.681 39.3763 152.939 39.532 152.199C39.6881 151.459 39.8502 150.72 40.0185 149.981C40.1868 149.244 40.3611 148.508 40.5414 147.773C40.722 147.039 40.9086 146.306 41.1012 145.575C41.2939 144.844 41.4926 144.115 41.6974 143.387C41.9024 142.66 42.1133 141.935 42.3301 141.21C42.547 140.487 42.7699 139.765 42.9987 139.046C43.2276 138.326 43.4625 137.609 43.7033 136.893C43.9441 136.178 44.191 135.465 44.4436 134.754C44.6963 134.043 44.9548 133.335 45.2193 132.628C45.4838 131.922 45.7543 131.218 46.0304 130.517C46.3066 129.816 46.5886 129.117 46.8764 128.421C47.164 127.724 47.4576 127.031 47.7572 126.34C48.0564 125.649 48.3616 124.961 48.6725 124.276C48.9833 123.591 49.2997 122.908 49.6217 122.228C49.9437 121.549 50.2718 120.872 50.605 120.199C50.9387 119.525 51.2774 118.854 51.6223 118.186C51.9666 117.519 52.3166 116.855 52.6721 116.194C53.0277 115.533 53.3889 114.875 53.7556 114.22C54.1219 113.566 54.4942 112.914 54.8717 112.266C55.2487 111.618 55.6318 110.974 56.02 110.333C56.4081 109.692 56.8015 109.054 57.1999 108.421C57.5988 107.787 58.0028 107.156 58.4119 106.53C58.8211 105.904 59.2354 105.281 59.6553 104.662C60.0747 104.043 60.4992 103.428 60.9289 102.817C61.359 102.205 61.7938 101.598 62.2337 100.994C62.6736 100.391 63.1187 99.7917 63.5683 99.1961C66.3122 95.6296 69.1911 91.9441 72.5338 88.9617Z" fill="#00B045"/>
<path d="M0 41H328.98C329.156 41.3238 329.227 41.5501 329.245 41.9216C329.351 44.2073 329.266 46.5388 329.269 48.8287V62.0961C329.269 63.8658 329.524 70.741 329.177 72.0543C329.142 72.1809 329.105 72.2555 329.05 72.3797C329.337 71.2655 328.742 69.1638 328.461 68.0525C328.037 66.3915 326.906 62.3801 325.408 61.4668C325.336 60.5414 324.023 59.419 323.387 58.8438C316.525 52.6351 307.486 51.8537 298.796 52.5596C283.344 53.8145 264.003 61.5409 250.108 68.6828C247.871 69.833 245.748 71.2425 243.533 72.4464C240.062 74.3337 233.109 78.0771 230.341 80.6455L229.752 80.3272C229.73 80.2824 229.716 80.2334 229.688 80.1929C228.921 79.0827 226.355 77.3114 225.175 76.3647C213.912 67.3293 199.379 59.5261 185.625 55.6227C182.395 54.635 179.085 53.9898 175.772 53.3805C174.98 53.2424 174.185 53.1129 173.389 52.9921C172.593 52.8713 171.796 52.7592 170.997 52.6557C170.2 52.5523 169.4 52.4576 168.6 52.3716C167.8 52.2856 166.999 52.2083 166.198 52.1398C165.396 52.0712 164.594 52.0114 163.791 51.9605C162.988 51.9094 162.185 51.8671 161.382 51.8335C160.578 51.8001 159.773 51.7754 158.97 51.7593C158.166 51.7434 157.361 51.7362 156.556 51.7377C155.752 51.7393 154.949 51.7496 154.145 51.7687C153.34 51.7877 152.537 51.8157 151.733 51.8523C150.929 51.8889 150.127 51.9343 149.324 51.9884C148.521 52.0425 147.719 52.1054 146.917 52.177C146.116 52.2487 145.316 52.329 144.516 52.4181C143.716 52.5073 142.917 52.605 142.119 52.7116C141.322 52.8181 140.526 52.9333 139.729 53.0571C138.934 53.181 138.14 53.3136 137.347 53.4547C136.555 53.596 135.763 53.7458 134.973 53.9043C134.183 54.0627 133.395 54.2298 132.608 54.4055C131.822 54.5812 131.037 54.7654 130.254 54.9581C129.472 55.1509 128.691 55.3522 127.912 55.562C127.133 55.7718 126.357 55.99 125.582 56.2168C124.807 56.4435 124.036 56.6787 123.266 56.9222C122.496 57.1658 121.729 57.4177 120.964 57.678C120.2 57.9384 119.438 58.207 118.679 58.4839C117.92 58.7608 117.163 59.046 116.409 59.3394C115.656 59.6328 114.905 59.9344 114.158 60.2442C113.41 60.554 112.666 60.8719 111.925 61.198C111.184 61.524 110.446 61.858 109.712 62.2002C108.976 62.5422 108.246 62.8924 107.518 63.2505C106.791 63.6085 106.067 63.9745 105.347 64.3483C104.627 64.7222 103.911 65.1038 103.198 65.4932C102.486 65.8827 101.777 66.2799 101.072 66.6848C90.6913 72.611 80.5604 79.7966 72.5339 88.9617C69.1913 91.9441 66.3122 95.6298 63.5685 99.1961C63.1187 99.7917 62.6737 100.391 62.2338 100.994C61.7939 101.598 61.3591 102.205 60.929 102.817C60.4993 103.428 60.0748 104.043 59.6554 104.662C59.2355 105.281 58.8212 105.904 58.4121 106.53C58.0024 107.157 57.5989 107.787 57.2 108.421C56.8015 109.055 56.4083 109.692 56.02 110.333C55.6319 110.974 55.2488 111.618 54.8714 112.266C54.4944 112.914 54.122 113.565 53.7557 114.22C53.389 114.875 53.0278 115.533 52.6723 116.194C52.3167 116.855 51.9668 117.519 51.6223 118.186C51.2775 118.854 50.9387 119.525 50.605 120.199C50.2719 120.872 49.9438 121.549 49.6218 122.228C49.2997 122.908 48.9833 123.591 48.6725 124.276C48.3617 124.961 48.0564 125.649 47.7568 126.34C47.4577 127.032 47.1641 127.724 46.8765 128.421C46.5886 129.117 46.3066 129.816 46.0304 130.517C45.7543 131.218 45.4839 131.922 45.2193 132.628C44.9549 133.334 44.6963 134.043 44.4437 134.753C44.191 135.465 43.9442 136.178 43.7032 136.893C43.4625 137.609 43.2277 138.327 42.9987 139.046C42.7699 139.765 42.547 140.487 42.3302 141.21C42.1133 141.935 41.9024 142.66 41.6975 143.387C41.4927 144.115 41.294 144.844 41.1013 145.575C40.9086 146.306 40.722 147.039 40.5415 147.773C40.3611 148.508 40.1867 149.243 40.0185 149.982C39.8502 150.72 39.6881 151.458 39.5321 152.199C39.3763 152.939 39.2265 153.681 39.0828 154.424C38.9393 155.168 38.8019 155.913 38.6707 156.659C38.5394 157.404 38.4144 158.15 38.2956 158.899C38.1768 159.646 38.0642 160.396 37.9579 161.146C37.8516 161.896 37.7515 162.646 37.6576 163.399C37.5638 164.15 37.4762 164.904 37.3949 165.657C35.9378 178.943 36.8011 192.479 39.1196 205.598C39.5868 208.242 39.9627 211.184 40.8747 213.706C37.7079 216.827 34.848 220.251 31.9588 223.646C19.8141 237.915 8.60885 254.015 3.03625 272.382C2.32958 274.711 1.21985 277.482 1.027 279.918C0.451198 282.736 0.510203 285.587 0 288.387V41Z" fill="#FEFEFE"/>
<path d="M241.391 92.0468C256.769 84.0252 271.745 74.261 285.662 78.4344L281.468 76.7328C253.507 68.6479 297.778 54.3022 297.778 52.668C270.516 55.3419 252.109 67.982 229.275 80.0349C233.236 82.8098 236.964 88.9879 241.391 92.0468Z" fill="#FC9949"/>
</g>
</g>
<path d="M561.745 63.6199C555.346 63.6199 549.218 59.3457 546.361 52.0868C542.431 42.1296 546.13 30.3259 554.626 25.7175C575.712 14.2799 594.802 6.26482 609.821 2.51597C618.969 0.231634 627.961 7.0926 629.909 17.8218C631.85 28.559 626.007 39.1051 616.852 41.3815C604.453 44.4697 587.398 51.7127 568.837 61.7813C566.537 63.0309 564.121 63.6199 561.745 63.6199Z" fill="#B9E9FD"/>
<path d="M442.806 190.954C430.054 190.954 421.13 185.924 416.217 175.943C406.01 155.217 422.867 132.986 428.398 125.688C438.34 112.57 453.372 97.4796 471.872 82.0225C479.494 75.663 490.067 77.7483 495.496 86.6867C500.919 95.625 499.14 108.026 491.519 114.385C472.368 130.384 460.804 142.919 454.228 151.436C460.512 153.561 465.446 159.865 466.348 167.96C467.563 178.84 461.021 188.813 451.751 190.23C448.588 190.715 445.602 190.954 442.806 190.954Z" fill="#B9E9FD"/>
<path d="M590.588 53.536C572.238 16.2544 531.6 3.48761 499.812 25.0097C468.031 46.5318 457.146 94.1924 475.496 131.466C493.847 168.748 534.484 181.514 566.265 159.992C598.047 138.47 608.939 90.8096 590.588 53.536Z" fill="#61B6FF"/>
<path d="M587.094 126.268C562.248 143.094 530.474 133.105 516.127 103.966C501.781 74.827 510.298 37.5613 535.143 20.7353C538.183 18.6738 541.332 17.0262 544.536 15.7527C529.694 12.6884 513.895 15.4901 499.826 25.0094C468.045 46.5315 457.153 94.2001 475.504 131.474C493.854 168.747 534.498 181.522 566.279 160C580.348 150.473 590.31 135.827 595.468 119.224C592.93 121.835 590.134 124.207 587.094 126.268Z" fill="#5294E5"/>
<path d="M449.531 190.397C441.157 190.397 433.875 183.114 432.762 173.109C431.547 162.229 438.082 152.256 447.359 150.839C467.542 147.735 503.877 129.962 539.934 105.55C577.531 80.0883 601.948 56.7436 614.13 41.7959C605.959 42.2178 598.514 35.7388 596.77 26.0762C594.829 15.339 600.673 4.7929 609.821 2.51653C618.141 0.447096 643.455 -5.85671 653.763 15.0843C664.825 37.5615 645.239 62.6415 629.549 79.5551C611.531 98.9679 585.715 120.418 556.866 139.959C516.045 167.601 476.745 186.393 451.75 190.23C451.004 190.341 450.264 190.397 449.531 190.397Z" fill="#E0F9FE"/>
</svg>
