<svg width="69" height="69" viewBox="0 0 69 69" fill="none" xmlns="http://www.w3.org/2000/svg">
<g clip-path="url(#clip0_12_2914)">
<path d="M48.0586 43.4584C47.6342 43.1829 47.3816 42.7083 47.3904 42.2024L47.4402 39.3424C44.7289 36.9469 42.7106 33.8402 41.633 30.3468L40.5184 26.7348L40.0094 55.8944L46.4689 56.0071C46.5239 55.9771 46.5792 55.9486 46.6342 55.9181C49.4992 54.33 51.9098 52.2401 53.8189 49.8198C52.4964 47.2507 50.5191 45.0503 48.0586 43.4584Z" fill="#83D3FC"/>
<path d="M41.633 30.3468L40.5184 26.7348L40.0094 55.8944L44.0127 55.9642C43.7956 51.1072 43.4888 44.2708 43.3761 41.9436C43.1947 38.192 46.0412 37.9776 46.0412 37.9776L46.0419 37.9772C44.0314 35.8122 42.5163 33.2095 41.633 30.3468Z" fill="#61B6FF"/>
<path d="M55.6993 47.0557C54.1749 44.6919 52.1462 42.66 49.746 41.0974C48.8425 40.5091 47.9942 39.8506 47.2064 39.1319L47.1529 42.1985C47.144 42.7041 47.3967 43.179 47.821 43.4542C50.3399 45.0839 52.3527 47.3515 53.675 49.9991C54.4266 49.0653 55.1021 48.0807 55.6993 47.0557Z" fill="#1D319B"/>
<path d="M22.686 38.9103L22.636 41.7787C22.6274 42.2793 22.3612 42.7401 21.9318 42.9977L21.9246 43.0021C19.3608 44.5371 17.2759 46.7213 15.8626 49.3073C17.7981 51.906 20.1921 54.0185 22.8668 55.595L29.5347 55.7114L30.0438 26.5518L28.804 30.1229C27.605 33.5763 25.4794 36.6108 22.686 38.9103Z" fill="#83D3FC"/>
<path d="M26.2451 55.6541L29.5345 55.7114L30.0436 26.5518L28.8038 30.1229C27.756 33.141 26.0005 35.8391 23.71 38.0063C23.71 38.0063 26.3986 38.8281 26.3917 42.0803C26.3872 44.3029 26.2999 51.3891 26.2451 55.6541Z" fill="#61B6FF"/>
<path d="M14.0536 46.4885C14.0721 46.5227 14.09 46.5573 14.109 46.5916C14.6783 47.6186 15.3129 48.5857 16.003 49.4938C17.417 46.828 19.5385 44.5769 22.1623 43.0061L22.1691 43.0018C22.5985 42.7442 22.8651 42.2833 22.8737 41.7826L22.9275 38.7079C22.1149 39.3987 21.2443 40.0274 20.3207 40.5839C17.8115 42.0955 15.673 44.1105 14.0536 46.4885Z" fill="#1D319B"/>
<path d="M40.1481 11.897C39.4011 11.0379 38.3939 10.262 37.0333 9.73828C36.1773 9.40893 34.9882 9.38812 34.1212 9.68727C32.7429 10.1634 31.7096 10.9036 30.9329 11.7363C30.0543 14.9715 29.9559 18.0735 29.9559 18.0735L29.2867 56.4201L40.2337 56.6113L40.9031 18.2642C40.9031 18.2642 40.9132 15.161 40.1481 11.897Z" fill="#D0F6FA"/>
<path d="M34.1167 9.9251C34.9837 9.62596 36.1728 9.64676 37.0288 9.97612C38.4373 10.5178 39.4677 11.3301 40.2223 12.2256C39.6659 9.69152 38.6545 6.99975 36.8147 5.54394C36.1348 5.00579 35.1835 4.98921 34.485 5.50334C32.5956 6.89386 31.4909 9.54875 30.8464 12.0615C31.6319 11.1934 32.69 10.4176 34.1167 9.9251Z" fill="#FBB362"/>
<path d="M38.6709 15.66C38.6235 15.5689 38.5751 15.4784 38.5257 15.3893C38.1895 14.7828 37.6737 14.3211 36.9579 14.0449C36.2118 13.758 34.9029 13.6871 33.9559 14.0254C33.3178 14.2535 32.7801 14.702 32.4311 15.2828C32.3785 15.3704 32.3271 15.4586 32.2766 15.5485C31.6594 16.6444 32.7413 17.9393 33.9272 17.5205C33.9458 17.5141 33.9645 17.5077 33.9832 17.5013C34.7871 17.2236 36.1033 17.2463 36.8969 17.5519C36.9156 17.5589 36.934 17.5662 36.9526 17.5737C38.1232 18.0332 39.2495 16.7768 38.6709 15.66Z" fill="#3957C9"/>
<path d="M35.3627 15.0932C35.4226 14.9872 35.4835 14.8823 35.546 14.7787C35.7529 14.4343 36.016 14.1292 36.322 13.8763C35.5924 13.7482 34.6711 13.7699 33.9561 14.0254C33.3181 14.2538 32.7802 14.702 32.4309 15.2829C32.3786 15.3704 32.3269 15.4588 32.2764 15.5487C31.6595 16.6444 32.7411 17.9395 33.9269 17.5207C33.9459 17.5141 33.9646 17.5077 33.9833 17.5013C34.5455 17.3069 35.3584 17.2603 36.0683 17.3544C35.2992 16.9655 34.8663 15.9751 35.3627 15.0932Z" fill="#1D319B"/>
<path d="M29.2849 56.4209L29.5662 40.3213L40.5133 40.5125L40.232 56.6121L29.2849 56.4209Z" fill="#B9E9FD"/>
<path d="M29.2544 58.2078C32.7963 59.0904 36.5438 59.1686 40.2021 58.3576L40.2417 56.1048L29.2946 55.9135L29.2544 58.2078Z" fill="#83D3FC"/>
<path d="M42.2357 48.041C40.9916 49.9676 39.9436 52.1954 39.1432 54.6454L46.8606 54.7802C46.1461 52.3037 45.1764 50.0406 44.0004 48.0717C43.5844 47.3754 42.6758 47.3596 42.2357 48.041Z" fill="#FBB362"/>
<path d="M39.0739 58.5793C41.6572 58.137 44.212 57.2608 46.6342 55.9181C46.7043 55.8793 46.7726 55.8388 46.8423 55.7993L46.8599 54.7799L39.1425 54.6451L39.0739 58.5793Z" fill="#FADDA0"/>
<path d="M42.7297 54.7079L39.1425 54.6451L39.0739 58.5793C40.2853 58.3719 41.4902 58.0678 42.6781 57.6662L42.7297 54.7079Z" fill="#FBB362"/>
<path d="M35.1581 33.6851C34.6658 33.6767 34.2738 33.2707 34.2822 32.7784L34.4955 20.5792C34.5039 20.0869 34.9099 19.6948 35.4023 19.7036C35.8943 19.7122 36.2864 20.1181 36.2777 20.6101L36.065 32.8095C36.0562 33.302 35.6501 33.6937 35.1581 33.6851Z" fill="#B9E9FD"/>
<path d="M34.7194 58.8148C33.8334 58.7995 33.1279 58.0688 33.1431 57.1828L33.5571 33.4651C33.5729 32.5792 34.3036 31.8737 35.1892 31.8891C36.0754 31.9047 36.781 32.6354 36.7655 33.5211L36.3515 57.2388C36.336 58.125 35.6053 58.8306 34.7194 58.8148Z" fill="#83D3FC"/>
<path d="M35.0569 39.4938C34.1709 39.4785 33.4402 40.1841 33.425 41.0701L33.1396 57.4205C33.124 58.3067 33.8297 59.0369 34.7156 59.0527C35.6016 59.0679 36.3323 58.3624 36.3477 57.4767L36.6329 41.1259C36.6485 40.2398 35.9429 39.5091 35.0569 39.4938Z" fill="#3957C9"/>
<path d="M34.9589 47.5703C34.2612 47.558 33.6579 47.1762 33.3281 46.6158L33.1395 57.4206C33.1237 58.3064 33.8296 59.0369 34.7155 59.0527C35.6015 59.068 36.3322 58.3624 36.3476 57.4767L36.5341 46.8005C36.1743 47.2765 35.6014 47.5814 34.9589 47.5703Z" fill="#1D319B"/>
<path d="M25.82 47.7542C24.5757 49.6813 23.5278 51.9091 22.7271 54.3587L30.4449 54.4933C29.7302 52.0174 28.7609 49.7541 27.5844 47.785C27.1689 47.0889 26.2598 47.0729 25.82 47.7542Z" fill="#FBB362"/>
<path d="M22.7075 55.5017C25.0803 56.9246 27.6785 57.9216 30.3759 58.4585L30.4451 54.4934L22.7273 54.3588L22.7075 55.5017Z" fill="#FADDA0"/>
<path d="M26.3286 54.4217L22.7273 54.3588L22.7075 55.5017C23.8503 56.1871 25.0458 56.7727 26.2793 57.2566L26.3286 54.4217Z" fill="#FBB362"/>
<path d="M36.8151 5.54376C36.1348 5.00579 35.1835 4.98921 34.485 5.50334C32.596 6.89368 31.4912 9.54856 30.8464 12.0615C31.6319 11.1934 32.69 10.4176 34.1167 9.9251C34.7848 9.69435 35.6435 9.65493 36.3941 9.79889C34.2877 6.99659 36.8151 5.54376 36.8151 5.54376Z" fill="#FD7E31"/>
<path d="M51.3084 46.4717C50.9936 43.6298 53.4008 44.143 53.4103 44.1451C52.3211 42.9977 51.0922 41.9735 49.746 41.0973C48.8424 40.509 47.9945 39.8503 47.2066 39.1317L47.1531 42.1983C47.1439 42.7041 47.3966 43.1789 47.8212 43.4539C49.1291 44.3004 50.2993 45.32 51.3085 46.4743C51.3085 46.4734 51.3085 46.4726 51.3084 46.4717Z" fill="#3957C9"/>
<path d="M16.657 43.4015C16.7473 43.3889 19.076 43.0925 18.6982 45.7676C18.698 45.7681 18.6979 45.7686 18.6981 45.7689C19.7167 44.7062 20.8788 43.7742 22.1623 43.006L22.1691 43.0018C22.5987 42.7445 22.8651 42.2832 22.8737 41.7826L22.9276 38.7079C22.1149 39.3987 21.2444 40.0274 20.3207 40.5838C18.987 41.3873 17.7591 42.3344 16.657 43.4015Z" fill="#3957C9"/>
<path d="M42.2356 48.0407C40.9916 49.9677 39.9437 52.1955 39.143 54.6451L42.7448 54.7082C43.0535 52.2499 43.447 50.0106 43.9056 48.0698C43.9138 48.0351 43.9231 48.003 43.9318 47.9715C43.4919 47.3771 42.6532 47.3944 42.2356 48.0407Z" fill="#FD7E31"/>
<path d="M25.82 47.7543C24.5757 49.6813 23.5276 51.9088 22.7271 54.3588L26.3287 54.4215C26.6379 51.9634 27.0309 49.724 27.4897 47.7835C27.4981 47.7483 27.507 47.7163 27.5162 47.685C27.0762 47.0902 26.2375 47.1076 25.82 47.7543Z" fill="#FD7E31"/>
</g>
<defs>
<clipPath id="clip0_12_2914">
<rect width="50" height="50" fill="white" transform="translate(0.52832 24.3074) rotate(-29)"/>
</clipPath>
</defs>
</svg>
