<svg width="43" height="42" viewBox="0 0 43 42" fill="none" xmlns="http://www.w3.org/2000/svg">
<g clip-path="url(#clip0_242_6854)">
<path d="M34.6 27.8206C36.8037 23.594 36.8666 18.366 34.3068 13.9323C30.325 7.0356 21.5064 4.67283 14.6098 8.65454C7.87756 12.5414 5.46656 21.0369 9.05917 27.855C9.05917 27.855 22.5705 31.5955 34.6 27.8206Z" fill="#C6F6CE"/>
<path d="M21.6881 6.35549C21.8292 6.20715 22.0656 6.20706 22.2066 6.35557L22.419 6.5791L22.4189 5.04C22.419 4.77951 22.2079 4.56827 21.9475 4.56834C21.687 4.56822 21.4759 4.77958 21.4758 5.04007L21.4759 6.57917L21.6881 6.35549Z" fill="#83D3FC"/>
<path d="M21.9446 5.11866C21.5974 5.1187 21.3159 4.83711 21.3158 4.4899L21.3159 3.6518C21.3159 3.30459 21.5973 3.02289 21.9447 3.02305C22.2919 3.02302 22.5734 3.30461 22.5734 3.65182L22.5735 4.49012C22.5734 4.83712 22.2919 5.11883 21.9446 5.11866Z" fill="#FADDA0"/>
<path d="M21.9465 4.22388C21.654 4.22393 21.4062 4.03435 21.3178 3.77134L21.3178 4.48996C21.3178 4.83717 21.5993 5.11876 21.9465 5.11873C22.2938 5.11889 22.5753 4.83719 22.5754 4.49018L22.5754 3.77156C22.4872 4.03435 22.2393 4.22391 21.9465 4.22388Z" fill="#FBB362"/>
<path d="M10.7073 26.4077L13.5899 28.2858L10.7073 29.5747L10.7073 26.4077Z" fill="#C78FE8"/>
<path d="M15.4302 27.6177C15.3594 27.5341 15.3045 27.4394 15.2653 27.3389L10.1602 29.6213C11.9674 32.1134 14.4621 33.8788 17.2272 34.8077C17.2165 34.7496 17.21 34.6905 17.2099 34.63L17.2099 30.0837C17.21 29.8511 17.1277 29.6262 16.9777 29.4487L15.4302 27.6177Z" fill="#5294E5"/>
<path d="M12.6172 32.2437C13.9952 33.3857 15.5621 34.2482 17.2272 34.8074C17.2165 34.7494 17.21 34.6902 17.2098 34.6298L17.2099 30.1901L12.6172 32.2437Z" fill="#4374D3"/>
<path d="M9.93915 25.2564C9.67878 25.2565 9.46754 25.0455 9.46766 24.785L9.46758 22.354C9.46739 22.0934 9.67875 21.8824 9.93913 21.8824C10.1995 21.8823 10.4107 22.0935 10.4107 22.3539L10.4106 24.7851C10.4107 25.0455 10.1996 25.2565 9.93915 25.2564Z" fill="#83D3FC"/>
<path d="M9.94135 21.8822C9.68086 21.8821 9.46982 22.0931 9.46981 22.3538L9.46973 23.6172C9.54237 23.4272 9.72584 23.292 9.94141 23.2921C10.1569 23.2919 10.3404 23.4273 10.4129 23.6172L10.413 22.3538C10.4128 22.0932 10.2017 21.8822 9.94135 21.8822Z" fill="#61B6FF"/>
<path d="M9.93998 27.492C10.3231 27.4922 10.6571 27.701 10.8359 28.0106L10.8359 25.2408C10.8358 24.746 10.4347 24.345 9.93988 24.345C9.44496 24.3449 9.04397 24.746 9.044 25.2408L9.04399 27.8198C9.06249 27.855 9.08086 27.8901 9.09956 27.9252C9.28736 27.6633 9.59308 27.4921 9.93998 27.492Z" fill="#B26CDE"/>
<path d="M10.9723 30.6441L10.9724 28.4014C10.9724 27.8299 10.509 27.3666 9.93746 27.3666C9.56687 27.3666 9.24272 27.562 9.05975 27.8548C9.14761 28.0212 9.23769 28.1869 9.33264 28.3513C9.81266 29.1828 10.3636 29.9475 10.9723 30.6441Z" fill="#9D4AD3"/>
<path d="M32.9439 26.3578L30.0613 28.2357L32.944 29.5246L32.9439 26.3578Z" fill="#C78FE8"/>
<path d="M33.7166 25.2067C33.4561 25.2066 33.2449 24.9957 33.245 24.7352L33.2449 22.3041C33.245 22.0436 33.4561 21.8326 33.7164 21.8325C33.9769 21.8326 34.188 22.0437 34.1881 22.3041L34.1881 24.7351C34.188 24.9956 33.977 25.2067 33.7166 25.2067Z" fill="#83D3FC"/>
<path d="M33.7186 21.8323C33.4582 21.8324 33.2472 22.0434 33.2471 22.3039L33.247 23.5673C33.3196 23.3772 33.5031 23.2421 33.7187 23.2421C33.9343 23.2422 34.1177 23.3773 34.1903 23.5674L34.1902 22.3038C34.1902 22.0435 33.979 21.8322 33.7186 21.8323Z" fill="#61B6FF"/>
<path d="M28.6233 27.3395C28.5842 27.4401 28.5291 27.5345 28.4586 27.6183L26.911 29.4494C26.7611 29.627 26.6788 29.8518 26.6787 30.0842L26.6787 34.6308C26.6787 34.661 26.6766 34.6915 26.6738 34.7212C27.476 34.4332 28.2639 34.0705 29.028 33.6293C30.8673 32.5674 32.3841 31.1613 33.5441 29.5394L28.6233 27.3395Z" fill="#61B6FF"/>
<path d="M26.6801 30.1908L26.6802 34.6306C26.6801 34.6609 26.678 34.6913 26.6753 34.721C27.4775 34.4331 28.2654 34.0703 29.0295 33.6292C29.7773 33.1974 30.4717 32.7086 31.1105 32.1718L26.6801 30.1908Z" fill="#5294E5"/>
<path d="M23.892 27.1715C23.7922 27.3908 23.5732 27.5315 23.3322 27.5316L21.9463 27.5317L20.5604 27.5314C20.3192 27.5316 20.1004 27.3908 20.0005 27.1714L19.0821 28.1794C18.9084 28.37 18.8121 28.6189 18.8121 28.8769L18.8122 32.8014C18.8122 33.0441 18.8973 33.2789 19.0527 33.4653L19.76 34.3124C19.9152 34.4985 20.0004 34.7334 20.0005 34.976L20.0006 35.445C21.2834 35.6093 22.5925 35.6026 23.892 35.4146L23.892 34.9761C23.8921 34.7334 23.9773 34.4984 24.1327 34.3123L24.8398 33.4653C24.9952 33.2789 25.0805 33.0441 25.0804 32.8015L25.0804 28.8767C25.0805 28.6189 24.9841 28.37 24.8103 28.1794L23.892 27.1715Z" fill="#9D4AD3"/>
<path d="M24.8057 28.1798L23.8875 27.1719C23.7876 27.3912 23.5687 27.5319 23.3277 27.532L22.017 27.5319L22.5044 28.067C22.6918 28.2726 22.7957 28.5408 22.7955 28.8191L22.7954 33.0514C22.7957 33.313 22.7037 33.5662 22.5362 33.767L21.7735 34.6807C21.6059 34.8815 21.514 35.1347 21.5141 35.3964L21.5141 35.5588C22.3033 35.5763 23.0972 35.5296 23.8874 35.415L23.8875 34.9765C23.8875 34.7338 23.9725 34.4989 24.1281 34.3127L24.8352 33.4657C24.9907 33.2793 25.0758 33.0446 25.0759 32.8019L25.0757 28.8774C25.0759 28.6193 24.9795 28.3704 24.8057 28.1798Z" fill="#8634C6"/>
<path d="M28.5504 24.3581L28.5424 24.3439C28.4695 24.2134 28.3658 24.1037 28.2433 24.018C26.1733 22.5731 27.0911 20.2503 27.0911 20.2503L24.3187 21.6258L25.1286 24.0391C25.1632 24.1428 25.1678 24.2532 25.1432 24.3582L28.5504 24.3581Z" fill="#61B6FF"/>
<path d="M23.7937 27.3432L24.6658 28.3005C24.8306 28.4817 24.9221 28.7177 24.922 28.9628L24.9221 32.6895C24.9221 32.92 24.8413 33.1432 24.6936 33.32L24.022 34.1243C23.8746 34.3012 23.7937 34.5242 23.7936 34.7544L23.7938 35.4283C24.8094 35.2885 25.8193 35.0385 26.8069 34.6736C26.8076 34.6591 26.8085 34.645 26.8083 34.6305L26.8084 30.0842C26.8084 29.8516 26.8907 29.6268 27.0408 29.4494L28.5882 27.6181C28.7382 27.4407 28.8205 27.2158 28.8206 26.9832L28.8204 25.4022C28.8205 25.0369 28.7268 24.6777 28.5482 24.3587L25.1041 24.3588L23.7937 27.3432Z" fill="#B9E9FD"/>
<path d="M26.8082 34.6306L26.8084 30.2471C25.9897 30.976 25.4383 30.7005 25.1525 30.4184C25.0833 30.3501 25.0056 30.2927 24.922 30.2468L24.922 32.6896C24.922 32.92 24.841 33.143 24.6933 33.3198L24.0219 34.1243C23.8744 34.301 23.7935 34.5242 23.7935 34.7544L23.7936 35.4284C24.8092 35.2885 25.8192 35.0386 26.8068 34.6736C26.8072 34.6592 26.8082 34.6449 26.8082 34.6306Z" fill="#83D3FC"/>
<path d="M15.0697 25.4024L15.0699 26.9834C15.0697 27.2158 15.152 27.4406 15.302 27.6182L16.8496 29.4494C16.9996 29.6269 17.0819 29.8518 17.0817 30.0841L17.0818 34.6307C17.0819 34.6755 17.0852 34.7198 17.091 34.7634C18.0645 35.101 19.0724 35.3341 20.0965 35.458L20.0965 34.7545C20.0966 34.5243 20.0157 34.301 19.868 34.1243L19.1966 33.32C19.0489 33.1433 18.9681 32.9202 18.9681 32.6898L18.9681 28.9627C18.9679 28.7177 19.0596 28.4816 19.2245 28.3004L20.0966 27.3433L18.786 24.3587L15.342 24.3589C15.1634 24.6777 15.0697 25.0369 15.0697 25.4024Z" fill="#61B6FF"/>
<path d="M20.0961 35.4582L20.0961 34.7547C20.0961 34.5243 20.0153 34.3012 19.8676 34.1245L19.1961 33.32C19.0486 33.1431 18.9677 32.9202 18.9676 32.6898L18.9677 30.321C18.8862 30.3559 18.8087 30.4011 18.7382 30.4569C17.6286 31.3378 17.0814 30.2471 17.0814 30.2471L17.0815 34.6306C17.0814 34.6755 17.0847 34.7198 17.0907 34.7633C18.064 35.101 19.072 35.334 20.0961 35.4582Z" fill="#5294E5"/>
<path d="M24.6367 10.3931C24.2824 8.96883 23.5648 7.66057 22.5537 6.59631L22.2055 6.22952C22.0643 6.08113 21.8277 6.08101 21.6868 6.22955L21.3384 6.59633C20.3275 7.66073 19.61 8.96882 19.2556 10.3932L16.803 20.2504L19.5757 21.626L20.7279 18.192C20.8078 17.9542 21.0307 17.7936 21.2818 17.7936L22.6105 17.7937C22.8616 17.7936 23.0845 17.954 23.1643 18.192L24.3166 21.626L27.0891 20.2504L24.6367 10.3931Z" fill="#9D4AD3"/>
<path d="M24.6362 17.5631C24.4777 17.4945 24.2928 17.5343 24.1768 17.6621C23.6292 18.266 23.0338 17.9777 23.0331 17.9773C23.0896 18.0376 23.1343 18.11 23.162 18.192L24.3143 21.626L27.0868 20.2504L26.2456 16.8691C25.537 17.7494 24.9534 17.7006 24.6362 17.5631Z" fill="#8634C6"/>
<path d="M16.8017 20.2505L19.5743 21.6261L20.7266 18.1921C20.7542 18.1103 20.7989 18.0378 20.8557 17.9776L20.8555 17.9777C20.1716 18.1491 19.8168 17.8946 19.6433 17.6672C19.5341 17.524 19.3464 17.471 19.1764 17.5307C18.1349 17.8957 17.6518 16.8349 17.6518 16.8349L16.8017 20.2505Z" fill="#8634C6"/>
<path d="M15.3516 24.3439L15.3437 24.3583L18.7509 24.3582C18.7263 24.2532 18.7308 24.1428 18.7657 24.0391L19.5754 21.6257L16.8029 20.2504C16.8029 20.2504 17.7207 22.5731 15.6508 24.018C15.5282 24.1036 15.4247 24.2135 15.3516 24.3439Z" fill="#5294E5"/>
<path d="M33.7138 24.2946C33.2192 24.2945 32.818 24.6958 32.818 25.1906L32.8179 27.9602C32.9968 27.6507 33.3306 27.4417 33.714 27.4418C34.0667 27.4417 34.3775 27.6191 34.5641 27.8889C34.5793 27.8601 34.5948 27.8318 34.6099 27.8032L34.6099 25.1906C34.6098 24.6957 34.2088 24.2944 33.7138 24.2946Z" fill="#B26CDE"/>
<path d="M23.5108 10.8054C23.2859 9.09563 22.836 7.52286 22.2045 6.22993C22.0635 6.08142 21.8269 6.0813 21.686 6.22984C21.0542 7.5229 20.6043 9.09591 20.3794 10.8053L18.9935 21.3381L19.5745 21.6262L20.7269 18.1924C20.8068 17.9543 21.0297 17.794 21.2808 17.794L22.6095 17.7941C22.8606 17.794 23.0835 17.9544 23.1633 18.1924L24.3158 21.6263L24.8968 21.3378L23.5108 10.8054Z" fill="#B26CDE"/>
<path d="M24.2062 16.0787L22.0781 14.6342C21.9986 14.5803 21.8946 14.5803 21.8152 14.6341L19.687 16.0787L18.995 21.338L19.5761 21.6264L20.7285 18.1925C20.8084 17.9545 21.0313 17.7942 21.2824 17.7942L22.6111 17.7942C22.8622 17.7942 23.0851 17.9546 23.1649 18.1926L24.3173 21.6265L24.8984 21.338L24.2062 16.0787Z" fill="#83D3FC"/>
<path d="M20.7273 18.1928C20.7549 18.1108 20.7997 18.0385 20.8565 17.9783L20.8563 17.9784C20.1724 18.1498 19.8176 17.8954 19.6441 17.6679C19.603 17.6142 19.5509 17.5731 19.493 17.546L18.994 21.3385L19.5751 21.6268L20.7273 18.1928Z" fill="#61B6FF"/>
<path d="M23.0329 17.9779C23.0896 18.0381 23.1343 18.1105 23.1617 18.1924L24.3142 21.6263L24.8952 21.3378L24.3954 17.5388C24.3129 17.5553 24.2357 17.5973 24.1765 17.6625C23.6289 18.2664 23.0332 17.978 23.0329 17.9779Z" fill="#61B6FF"/>
<path d="M23.9136 13.8792C22.9614 13.2331 22.0921 12.6428 22.1318 12.6698C22.018 12.5927 21.8687 12.5926 21.7551 12.6699C20.7653 13.3417 20.3053 13.654 19.9731 13.8792L19.6658 16.2156L21.8218 14.7524C21.8952 14.7024 21.9916 14.7025 22.0649 14.7522L24.2211 16.2156L23.9136 13.8792Z" fill="#61B6FF"/>
<path d="M25.1275 24.039L23.1652 18.1918C23.0854 17.9539 22.8625 17.7935 22.6114 17.7935L21.2827 17.7935C21.0316 17.7935 20.8087 17.9537 20.7288 18.1918L18.7667 24.039C18.7195 24.1793 18.7275 24.3324 18.789 24.467L20.0993 27.3426C20.1941 27.5509 20.4019 27.6845 20.6309 27.6845L23.2631 27.6846C23.4919 27.6846 23.6998 27.5508 23.7948 27.3425L25.1052 24.4671C25.1665 24.3324 25.1745 24.1794 25.1275 24.039Z" fill="#EEC707"/>
<path d="M25.1247 24.0397L23.1625 18.1925C23.135 18.1104 23.0903 18.038 23.0336 17.9781L23.2368 25.9722L23.6089 27.5681C23.6861 27.5105 23.7504 27.4347 23.7921 27.3432L23.9796 26.9315L25.1024 24.4677C25.1638 24.333 25.1718 24.18 25.1247 24.0397Z" fill="#F9ECC6"/>
<path d="M20.6535 25.9716L20.8567 17.9775C20.8002 18.0372 20.7555 18.1097 20.7279 18.1915L18.7657 24.039C18.7185 24.1793 18.7265 24.3324 18.7878 24.4671L19.9106 26.9309L20.0983 27.3426C20.14 27.434 20.2042 27.5098 20.2815 27.5674L20.6535 25.9716Z" fill="#FC9949"/>
<path d="M20.2816 27.5684C20.3806 27.6424 20.5016 27.6856 20.6301 27.6857L23.2622 27.6856C23.3909 27.6856 23.5117 27.6424 23.6108 27.5685L23.2388 25.9728L20.6536 25.9727L20.2816 27.5684Z" fill="#FBB362"/>
<path d="M32.6807 28.3511L32.6808 30.6335C33.4374 29.7679 34.0801 28.8222 34.6026 27.8199C34.4217 27.5185 34.0927 27.3161 33.7156 27.3162C33.144 27.3162 32.6807 27.7796 32.6807 28.3511Z" fill="#9D4AD3"/>
<path d="M33.7142 22.6813C33.3669 22.6811 33.0855 22.3997 33.0853 22.0523L33.0854 21.2142C33.0853 20.867 33.3669 20.5855 33.7141 20.5855C34.0614 20.5854 34.3429 20.867 34.3429 21.2142L34.3429 22.0525C34.343 22.3997 34.0614 22.6812 33.7142 22.6813Z" fill="#FADDA0"/>
<path d="M33.716 21.7864C33.4234 21.7862 33.1756 21.5966 33.0873 21.3338L33.0873 22.0525C33.0873 22.3997 33.3689 22.6813 33.7161 22.6812C34.0633 22.6812 34.3449 22.3997 34.3448 22.0525L34.3448 21.3339C34.2566 21.5967 34.0087 21.7862 33.716 21.7864Z" fill="#FBB362"/>
<path d="M9.94068 22.731C9.59348 22.731 9.31197 22.4494 9.31194 22.1022L9.312 21.2641C9.31196 20.9169 9.59344 20.6352 9.94076 20.6354C10.288 20.6353 10.5695 20.9169 10.5695 21.2641L10.5694 22.1022C10.5695 22.4494 10.288 22.7311 9.94068 22.731Z" fill="#FADDA0"/>
<path d="M9.93866 21.8364C9.64604 21.8363 9.39828 21.6467 9.30999 21.3839L9.30985 22.1023C9.30989 22.4495 9.59139 22.7311 9.93871 22.7313C10.2859 22.7312 10.5674 22.4495 10.5675 22.1025L10.5675 21.3839C10.4792 21.6467 10.2312 21.8364 9.93866 21.8364Z" fill="#FBB362"/>
</g>
<defs>
<clipPath id="clip0_242_6854">
<rect width="30.1331" height="30.1331" fill="white" transform="translate(0.917969 15.0662) rotate(-30)"/>
</clipPath>
</defs>
</svg>
