<svg width="74" height="74" viewBox="0 0 74 74" fill="none" xmlns="http://www.w3.org/2000/svg">
<g clip-path="url(#clip0_12_2990)">
<path d="M51.9234 46.901C51.465 46.6034 51.1922 46.0909 51.2016 45.5445L51.2554 42.4557C48.3272 39.8686 46.1475 36.5133 44.9837 32.7405L43.7799 28.8395L43.2301 60.3319L50.2065 60.4536C50.2658 60.4212 50.3255 60.3905 50.385 60.3575C53.4792 58.6424 56.0826 56.3853 58.1444 53.7714C56.7162 50.9967 54.5807 48.6203 51.9234 46.901Z" fill="#83D3FC"/>
<path d="M44.9837 32.7405L43.7799 28.8395L43.2301 60.3319L47.5538 60.4073C47.3193 55.1617 46.988 47.7784 46.8662 45.2651C46.6703 41.2134 49.7446 40.9818 49.7446 40.9818L49.7453 40.9814C47.574 38.6431 45.9376 35.8322 44.9837 32.7405Z" fill="#61B6FF"/>
<path d="M60.1756 50.7862C58.5292 48.2333 56.3382 46.0388 53.746 44.3512C52.7702 43.7159 51.8541 43.0047 51.0032 42.2285L50.9454 45.5404C50.9358 46.0865 51.2088 46.5994 51.667 46.8965C54.3874 48.6567 56.5612 51.1057 57.9894 53.9651C58.801 52.9565 59.5305 51.8932 60.1756 50.7862Z" fill="#1D319B"/>
<path d="M24.5213 41.9892L24.4673 45.087C24.4581 45.6278 24.1705 46.1254 23.7067 46.4036L23.699 46.4084C20.9301 48.0662 18.6784 50.425 17.152 53.2179C19.2424 56.0245 21.8279 58.3061 24.7166 60.0087L31.9179 60.1344L32.4677 28.642L31.1288 32.4988C29.8338 36.2285 27.5382 39.5058 24.5213 41.9892Z" fill="#83D3FC"/>
<path d="M28.365 60.0725L31.9176 60.1345L32.4673 28.6421L31.1284 32.4989C29.9967 35.7584 28.1008 38.6723 25.627 41.013C25.627 41.013 28.5307 41.9004 28.5233 45.4129C28.5184 47.8132 28.4242 55.4663 28.365 60.0725Z" fill="#61B6FF"/>
<path d="M15.1976 50.1736C15.2177 50.2106 15.237 50.248 15.2575 50.2851C15.8723 51.3942 16.5577 52.4387 17.303 53.4194C18.8301 50.5403 21.1214 48.1092 23.955 46.4127L23.9624 46.4081C24.4261 46.1298 24.714 45.632 24.7233 45.0913L24.7815 41.7707C23.9039 42.5167 22.9636 43.1957 21.9661 43.7967C19.2562 45.4293 16.9466 47.6055 15.1976 50.1736Z" fill="#1D319B"/>
<path d="M43.3796 12.8148C42.5728 11.887 41.485 11.049 40.0156 10.4834C39.0911 10.1277 37.8068 10.1052 36.8705 10.4283C35.382 10.9425 34.266 11.742 33.4272 12.6412C32.4783 16.1353 32.372 19.4854 32.372 19.4854L31.6492 60.8997L43.472 61.1062L44.195 19.6914C44.195 19.6914 44.2059 16.3399 43.3796 12.8148Z" fill="#D0F6FA"/>
<path d="M36.866 10.6852C37.8023 10.3621 39.0866 10.3846 40.0111 10.7403C41.5323 11.3253 42.6451 12.2026 43.46 13.1697C42.8592 10.4329 41.7668 7.52582 39.7799 5.95355C39.0455 5.37234 38.0181 5.35443 37.2637 5.90969C35.2232 7.41146 34.0301 10.2787 33.3341 12.9925C34.1824 12.055 35.3251 11.2171 36.866 10.6852Z" fill="#FBB362"/>
<path d="M41.7846 16.8789C41.7334 16.7806 41.6811 16.6828 41.6278 16.5866C41.2647 15.9315 40.7076 15.433 39.9346 15.1346C39.1288 14.8248 37.7151 14.7483 36.6924 15.1135C36.0032 15.3599 35.4225 15.8443 35.0456 16.4715C34.9888 16.5661 34.9333 16.6614 34.8788 16.7585C34.2121 17.9421 35.3806 19.3406 36.6613 18.8883C36.6815 18.8814 36.7017 18.8744 36.7218 18.8675C37.59 18.5676 39.0116 18.5922 39.8686 18.9222C39.8888 18.9298 39.9087 18.9376 39.9288 18.9458C41.193 19.4419 42.4094 18.0851 41.7846 16.8789Z" fill="#3957C9"/>
<path d="M38.2117 16.2668C38.2764 16.1523 38.3422 16.039 38.4097 15.9272C38.6331 15.5551 38.9173 15.2256 39.2477 14.9525C38.4598 14.8141 37.4647 14.8376 36.6925 15.1135C36.0036 15.3602 35.4226 15.8443 35.0454 16.4717C34.9889 16.5661 34.933 16.6616 34.8785 16.7587C34.2122 17.942 35.3804 19.3407 36.6611 18.8885C36.6816 18.8814 36.7018 18.8744 36.722 18.8675C37.3292 18.6576 38.207 18.6072 38.9737 18.7088C38.1432 18.2888 37.6756 17.2192 38.2117 16.2668Z" fill="#1D319B"/>
<path d="M31.648 60.9007L31.9519 43.5131L43.7747 43.7196L43.4708 61.1072L31.648 60.9007Z" fill="#B9E9FD"/>
<path d="M31.6156 62.8303C35.4409 63.7836 39.4883 63.868 43.4391 62.9922L43.4819 60.5591L31.6591 60.3526L31.6156 62.8303Z" fill="#83D3FC"/>
<path d="M45.6338 51.8505C44.2902 53.9312 43.1584 56.3372 42.2939 58.9832L50.6287 59.1288C49.857 56.4542 48.8098 54.0101 47.5397 51.8836C47.0904 51.1317 46.1091 51.1146 45.6338 51.8505Z" fill="#FBB362"/>
<path d="M42.2198 63.2318C45.0097 62.7541 47.7689 61.8078 50.3849 60.3578C50.4606 60.3158 50.5343 60.2721 50.6096 60.2294L50.6286 59.1284L42.2938 58.9829L42.2198 63.2318Z" fill="#FADDA0"/>
<path d="M46.168 59.0507L42.2938 58.9829L42.2198 63.2318C43.5281 63.0078 44.8293 62.6793 46.1123 62.2456L46.168 59.0507Z" fill="#FBB362"/>
<path d="M37.9908 36.346C37.4592 36.3369 37.0357 35.8985 37.0448 35.3668L37.2752 22.1916C37.2843 21.6599 37.7227 21.2365 38.2546 21.246C38.7859 21.2553 39.2093 21.6937 39.2 22.225L38.9702 35.4004C38.9608 35.9323 38.5222 36.3554 37.9908 36.346Z" fill="#B9E9FD"/>
<path d="M37.5175 63.486C36.5607 63.4695 35.7987 62.6803 35.8151 61.7235L36.2622 36.1083C36.2793 35.1516 37.0684 34.3896 38.025 34.4063C38.982 34.4231 39.744 35.2123 39.7274 36.1688L39.2803 61.7839C39.2634 62.741 38.4743 63.503 37.5175 63.486Z" fill="#83D3FC"/>
<path d="M37.882 42.6194C36.9251 42.6029 36.1359 43.3649 36.1194 44.3218L35.8113 61.9802C35.7944 62.9373 36.5566 63.7259 37.5133 63.743C38.4702 63.7594 39.2593 62.9975 39.276 62.0409L39.584 44.3821C39.6008 43.425 38.8388 42.6359 37.882 42.6194Z" fill="#3957C9"/>
<path d="M37.7754 51.342C37.0219 51.3287 36.3704 50.9164 36.0142 50.3111L35.8105 61.9802C35.7935 62.937 36.5558 63.7259 37.5126 63.7429C38.4694 63.7594 39.2586 62.9974 39.2753 62.0409L39.4767 50.5106C39.088 51.0247 38.4693 51.354 37.7754 51.342Z" fill="#1D319B"/>
<path d="M27.9057 51.5407C26.5618 53.6219 25.4301 56.028 24.5653 58.6736L32.9005 58.8189C32.1287 56.1449 31.0818 53.7006 29.8111 51.574C29.3624 50.8222 28.3806 50.8049 27.9057 51.5407Z" fill="#FBB362"/>
<path d="M24.5437 59.9077C27.1064 61.4444 29.9125 62.5212 32.8256 63.1011L32.9004 58.8188L24.5652 58.6735L24.5437 59.9077Z" fill="#FADDA0"/>
<path d="M28.4546 58.7413L24.5652 58.6735L24.5437 59.9077C25.7779 60.648 27.0692 61.2804 28.4013 61.803L28.4546 58.7413Z" fill="#FBB362"/>
<path d="M39.7802 5.95335C39.0455 5.37234 38.0182 5.35443 37.2637 5.90969C35.2236 7.41126 34.0305 10.2785 33.3341 12.9925C34.1824 12.055 35.3251 11.2171 36.866 10.6852C37.5875 10.436 38.5149 10.3934 39.3256 10.5489C37.0507 7.52241 39.7802 5.95335 39.7802 5.95335Z" fill="#FD7E31"/>
<path d="M55.4334 50.1556C55.0934 47.0863 57.6932 47.6406 57.7035 47.6429C56.5271 46.4037 55.1999 45.2976 53.746 44.3513C52.7701 43.716 51.8543 43.0045 51.0035 42.2284L50.9457 45.5403C50.9357 46.0866 51.2087 46.5994 51.6672 46.8964C53.0798 47.8106 54.3436 48.9118 55.4335 50.1584C55.4335 50.1575 55.4334 50.1566 55.4334 50.1556Z" fill="#3957C9"/>
<path d="M18.0098 46.8398C18.1073 46.8262 20.6224 46.5061 20.2143 49.3951C20.2142 49.3957 20.214 49.3963 20.2142 49.3966C21.3143 48.2489 22.5694 47.2423 23.9556 46.4127L23.9629 46.4081C24.4269 46.1302 24.7146 45.6321 24.7239 45.0913L24.782 41.7707C23.9044 42.5167 22.9642 43.1957 21.9666 43.7967C20.5262 44.6644 19.2001 45.6873 18.0098 46.8398Z" fill="#3957C9"/>
<path d="M45.6337 51.8502C44.2902 53.9313 43.1584 56.3373 42.2937 58.9829L46.1837 59.051C46.5171 56.396 46.942 53.9776 47.4373 51.8816C47.4462 51.8441 47.4562 51.8094 47.4656 51.7754C46.9905 51.1334 46.0848 51.1522 45.6337 51.8502Z" fill="#FD7E31"/>
<path d="M27.9056 51.5406C26.5618 53.6219 25.4298 56.0276 24.5653 58.6736L28.4551 58.7413C28.789 56.0865 29.2134 53.6679 29.7089 51.5722C29.718 51.5342 29.7276 51.4997 29.7376 51.4659C29.2623 50.8235 28.3565 50.8423 27.9056 51.5406Z" fill="#FD7E31"/>
</g>
<defs>
<clipPath id="clip0_12_2990">
<rect width="54" height="54" fill="white" transform="translate(0.59082 26.218) rotate(-29)"/>
</clipPath>
</defs>
</svg>
