<svg width="191" height="35" viewBox="0 0 191 35" fill="none" xmlns="http://www.w3.org/2000/svg">
<path d="M30.2668 15.9006C23.9698 15.1916 18.9588 10.1794 18.2489 3.88269C18.1819 3.2805 17.6797 2.82387 17.0746 2.82373C16.4695 2.8236 15.9694 3.28088 15.9002 3.88182C15.1912 10.1789 10.1791 15.1899 3.88232 15.8997C3.28163 15.9676 2.82351 16.4689 2.82337 17.074C2.82323 17.6791 3.28201 18.1801 3.88232 18.2469C10.1808 18.9568 15.1919 23.9689 15.9008 30.2672C15.9687 30.8679 16.4701 31.326 17.0752 31.3261C17.6802 31.3263 18.1812 30.8675 18.2495 30.268C18.9579 23.9687 23.9701 18.9576 30.2683 18.2487C30.869 18.1808 31.3271 17.6794 31.3273 17.0743C31.3259 16.4684 30.8686 15.9683 30.2668 15.9006Z" fill="#FD7E31"/>
<path d="M10.9327 21.129C10.9325 20.6963 11.2589 20.3371 11.6899 20.2883C16.1954 19.7805 19.7809 16.1958 20.2892 11.6896C20.3374 11.2591 20.695 10.9318 21.1292 10.9325C21.1607 10.9329 21.1912 10.9385 21.2233 10.9412C19.6166 8.96793 18.5498 6.54051 18.2489 3.88269C18.1819 3.2805 17.6797 2.82387 17.0746 2.82373C16.4695 2.8236 15.9694 3.28088 15.9002 3.88182C15.1912 10.1789 10.1791 15.1899 3.88232 15.8997C3.28163 15.9676 2.82351 16.4689 2.82337 17.074C2.82323 17.6791 3.28201 18.1801 3.88232 18.2469C6.54023 18.5473 8.96731 19.6153 10.941 21.2211C10.9367 21.1908 10.9323 21.1605 10.9327 21.129Z" fill="#FC5D1F"/>
<path d="M69.4168 15.9006C63.1198 15.1916 58.1088 10.1794 57.3989 3.88269C57.3319 3.2805 56.8297 2.82387 56.2246 2.82373C55.6195 2.8236 55.1194 3.28088 55.0502 3.88182C54.3412 10.1789 49.329 15.1899 43.0323 15.8997C42.4316 15.9676 41.9735 16.4689 41.9733 17.074C41.9732 17.6791 42.432 18.1801 43.0323 18.2469C49.3308 18.9568 54.3418 23.9689 55.0508 30.2672C55.1187 30.8679 55.6201 31.326 56.2251 31.3261C56.8302 31.3263 57.3312 30.8675 57.3995 30.268C58.1079 23.9687 63.12 18.9576 69.4183 18.2487C70.019 18.1808 70.4771 17.6794 70.4772 17.0743C70.4759 16.4684 70.0186 15.9683 69.4168 15.9006Z" fill="#FD7E31"/>
<path d="M50.0827 21.129C50.0825 20.6963 50.4089 20.3371 50.8398 20.2883C55.3454 19.7805 58.9309 16.1958 59.4392 11.6896C59.4874 11.2591 59.845 10.9318 60.2791 10.9325C60.3107 10.9329 60.3411 10.9385 60.3733 10.9412C58.7665 8.96793 57.6998 6.54051 57.3989 3.88269C57.3319 3.2805 56.8297 2.82387 56.2246 2.82373C55.6195 2.8236 55.1194 3.28088 55.0502 3.88182C54.3412 10.1789 49.329 15.1899 43.0323 15.8997C42.4316 15.9676 41.9735 16.4689 41.9733 17.074C41.9732 17.6791 42.432 18.1801 43.0323 18.2469C45.6902 18.5473 48.1173 19.6153 50.091 21.2211C50.0867 21.1908 50.0823 21.1605 50.0827 21.129Z" fill="#FC5D1F"/>
<path d="M108.567 15.9006C102.27 15.1916 97.2587 10.1794 96.5489 3.88269C96.4819 3.2805 95.9797 2.82387 95.3746 2.82373C94.7695 2.8236 94.2694 3.28088 94.2002 3.88182C93.4912 10.1789 88.479 15.1899 82.1823 15.8997C81.5816 15.9676 81.1235 16.4689 81.1233 17.074C81.1232 17.6791 81.582 18.1801 82.1823 18.2469C88.4808 18.9568 93.4918 23.9689 94.2008 30.2672C94.2687 30.8679 94.77 31.326 95.3751 31.3261C95.9802 31.3263 96.4812 30.8675 96.5495 30.268C97.2579 23.9687 102.27 18.9576 108.568 18.2487C109.169 18.1808 109.627 17.6794 109.627 17.0743C109.626 16.4684 109.169 15.9683 108.567 15.9006Z" fill="#FD7E31"/>
<path d="M89.2327 21.129C89.2325 20.6963 89.5589 20.3371 89.9898 20.2883C94.4954 19.7805 98.0809 16.1958 98.5892 11.6896C98.6374 11.2591 98.995 10.9318 99.4291 10.9325C99.4607 10.9329 99.4911 10.9385 99.5233 10.9412C97.9165 8.96793 96.8497 6.54051 96.5489 3.88269C96.4819 3.2805 95.9797 2.82387 95.3746 2.82373C94.7695 2.8236 94.2694 3.28088 94.2002 3.88182C93.4912 10.1789 88.479 15.1899 82.1823 15.8997C81.5816 15.9676 81.1235 16.4689 81.1233 17.074C81.1232 17.6791 81.582 18.1801 82.1823 18.2469C84.8402 18.5473 87.2673 19.6153 89.241 21.2211C89.2366 21.1908 89.2323 21.1605 89.2327 21.129Z" fill="#FC5D1F"/>
<path d="M147.717 15.9006C141.42 15.1916 136.409 10.1794 135.699 3.88269C135.632 3.2805 135.13 2.82387 134.525 2.82373C133.919 2.8236 133.419 3.28088 133.35 3.88182C132.641 10.1789 127.629 15.1899 121.332 15.8997C120.732 15.9676 120.273 16.4689 120.273 17.074C120.273 17.6791 120.732 18.1801 121.332 18.2469C127.631 18.9568 132.642 23.9689 133.351 30.2672C133.419 30.8679 133.92 31.326 134.525 31.3261C135.13 31.3263 135.631 30.8675 135.699 30.268C136.408 23.9687 141.42 18.9576 147.718 18.2487C148.319 18.1808 148.777 17.6794 148.777 17.0743C148.776 16.4684 148.319 15.9683 147.717 15.9006Z" fill="#FD7E31"/>
<path d="M128.383 21.129C128.382 20.6963 128.709 20.3371 129.14 20.2883C133.645 19.7805 137.231 16.1958 137.739 11.6896C137.787 11.2591 138.145 10.9318 138.579 10.9325C138.611 10.9329 138.641 10.9385 138.673 10.9412C137.067 8.96793 136 6.54051 135.699 3.88269C135.632 3.2805 135.13 2.82387 134.525 2.82373C133.919 2.8236 133.419 3.28088 133.35 3.88182C132.641 10.1789 127.629 15.1899 121.332 15.8997C120.732 15.9676 120.273 16.4689 120.273 17.074C120.273 17.6791 120.732 18.1801 121.332 18.2469C123.99 18.5473 126.417 19.6153 128.391 21.2211C128.387 21.1908 128.382 21.1605 128.383 21.129Z" fill="#FC5D1F"/>
<path d="M186.867 15.9006C180.57 15.1916 175.559 10.1794 174.849 3.88269C174.782 3.2805 174.28 2.82387 173.675 2.82373C173.069 2.8236 172.569 3.28088 172.5 3.88182C171.791 10.1789 166.779 15.1899 160.482 15.8997C159.882 15.9676 159.423 16.4689 159.423 17.074C159.423 17.6791 159.882 18.1801 160.482 18.2469C166.781 18.9568 171.792 23.9689 172.501 30.2672C172.569 30.8679 173.07 31.326 173.675 31.3261C174.28 31.3263 174.781 30.8675 174.849 30.268C175.558 23.9687 180.57 18.9576 186.868 18.2487C187.469 18.1808 187.927 17.6794 187.927 17.0743C187.926 16.4684 187.469 15.9683 186.867 15.9006Z" fill="#FD7E31"/>
<path d="M167.533 21.129C167.532 20.6963 167.859 20.3371 168.29 20.2883C172.795 19.7805 176.381 16.1958 176.889 11.6896C176.937 11.2591 177.295 10.9318 177.729 10.9325C177.761 10.9329 177.791 10.9385 177.823 10.9412C176.216 8.96793 175.15 6.54051 174.849 3.88269C174.782 3.2805 174.28 2.82387 173.675 2.82373C173.069 2.8236 172.569 3.28088 172.5 3.88182C171.791 10.1789 166.779 15.1899 160.482 15.8997C159.882 15.9676 159.423 16.4689 159.423 17.074C159.423 17.6791 159.882 18.1801 160.482 18.2469C163.14 18.5473 165.567 19.6153 167.541 21.2211C167.537 21.1908 167.532 21.1605 167.533 21.129Z" fill="#FC5D1F"/>
</svg>
