<svg width="30" height="31" viewBox="0 0 30 31" fill="none" xmlns="http://www.w3.org/2000/svg">
<path d="M27.5 12.4475L18.5125 11.6725L15 3.39746L11.4875 11.685L2.5 12.4475L9.325 18.36L7.275 27.1475L15 22.485L22.725 27.1475L20.6875 18.36L27.5 12.4475ZM15 20.1475L10.3 22.985L11.55 17.635L7.4 14.035L12.875 13.56L15 8.52246L17.1375 13.5725L22.6125 14.0475L18.4625 17.6475L19.7125 22.9975L15 20.1475Z" fill="#4C01D5"/>
<path d="M15 20.1475L10.3 22.985L11.55 17.635L7.4 14.035L12.875 13.56L15 8.52246L17.1375 13.5725L22.6125 14.0475L18.4625 17.6475L19.7125 22.9975L15 20.1475Z" fill="#F6F2FD"/>
</svg>
