<svg width="191" height="35" viewBox="0 0 191 35" fill="none" xmlns="http://www.w3.org/2000/svg">
<path d="M30.2668 16.05C23.9698 15.341 18.9588 10.3288 18.2489 4.0321C18.1819 3.42992 17.6797 2.97328 17.0746 2.97315C16.4695 2.97301 15.9694 3.4303 15.9002 4.03123C15.1912 10.3283 10.1791 15.3393 3.88231 16.0491C3.28161 16.117 2.82349 16.6184 2.82335 17.2234C2.82322 17.8285 3.28199 18.3295 3.8823 18.3963C10.1808 19.1062 15.1918 24.1184 15.9008 30.4166C15.9687 31.0173 16.4701 31.4754 17.0751 31.4755C17.6802 31.4757 18.1812 31.0169 18.2495 30.4175C18.9579 24.1181 23.9701 19.1071 30.2683 18.3981C30.869 18.3302 31.3271 17.8288 31.3272 17.2238C31.3259 16.6178 30.8686 16.1177 30.2668 16.05Z" fill="#A2EC00"/>
<path d="M10.9327 21.2784C10.9325 20.8457 11.2589 20.4865 11.6898 20.4377C16.1954 19.9299 19.7809 16.3452 20.2892 11.8391C20.3374 11.4085 20.695 11.0813 21.1291 11.0819C21.1607 11.0823 21.1911 11.0879 21.2233 11.0906C19.6166 9.11735 18.5498 6.68992 18.2489 4.0321C18.1819 3.42992 17.6797 2.97328 17.0746 2.97315C16.4695 2.97301 15.9694 3.4303 15.9002 4.03123C15.1912 10.3283 10.1791 15.3393 3.88231 16.0491C3.28161 16.117 2.82349 16.6184 2.82335 17.2234C2.82322 17.8285 3.28199 18.3295 3.8823 18.3963C6.54022 18.6968 8.9673 19.7647 10.941 21.3705C10.9367 21.3402 10.9323 21.3099 10.9327 21.2784Z" fill="#00C82F"/>
<path d="M69.4168 16.05C63.1197 15.341 58.1087 10.3288 57.3989 4.0321C57.3319 3.42992 56.8296 2.97328 56.2246 2.97315C55.6195 2.97301 55.1194 3.4303 55.0502 4.03123C54.3412 10.3283 49.329 15.3393 43.0323 16.0491C42.4316 16.117 41.9735 16.6184 41.9733 17.2234C41.9732 17.8285 42.432 18.3295 43.0323 18.3963C49.3308 19.1062 54.3418 24.1184 55.0508 30.4166C55.1186 31.0173 55.62 31.4754 56.2251 31.4755C56.8302 31.4757 57.3312 31.0169 57.3995 30.4175C58.1079 24.1181 63.12 19.1071 69.4183 18.3981C70.0189 18.3302 70.4771 17.8288 70.4772 17.2238C70.4759 16.6178 70.0186 16.1177 69.4168 16.05Z" fill="#A2EC00"/>
<path d="M50.0826 21.2784C50.0824 20.8457 50.4088 20.4865 50.8398 20.4377C55.3453 19.9299 58.9308 16.3452 59.4392 11.8391C59.4874 11.4085 59.845 11.0813 60.2791 11.0819C60.3106 11.0823 60.3411 11.0879 60.3733 11.0906C58.7665 9.11735 57.6997 6.68992 57.3989 4.0321C57.3319 3.42992 56.8296 2.97328 56.2246 2.97315C55.6195 2.97301 55.1194 3.4303 55.0502 4.03123C54.3412 10.3283 49.329 15.3393 43.0323 16.0491C42.4316 16.117 41.9735 16.6184 41.9733 17.2234C41.9732 17.8285 42.432 18.3295 43.0323 18.3963C45.6902 18.6968 48.1173 19.7647 50.091 21.3705C50.0866 21.3402 50.0823 21.3099 50.0826 21.2784Z" fill="#00C82F"/>
<path d="M108.567 16.05C102.27 15.341 97.2587 10.3288 96.5489 4.0321C96.4819 3.42992 95.9797 2.97328 95.3746 2.97315C94.7695 2.97301 94.2694 3.4303 94.2002 4.03123C93.4912 10.3283 88.479 15.3393 82.1823 16.0491C81.5816 16.117 81.1235 16.6184 81.1233 17.2234C81.1232 17.8285 81.582 18.3295 82.1823 18.3963C88.4808 19.1062 93.4918 24.1184 94.2008 30.4166C94.2687 31.0173 94.77 31.4754 95.3751 31.4755C95.9802 31.4757 96.4812 31.0169 96.5495 30.4175C97.2579 24.1181 102.27 19.1071 108.568 18.3981C109.169 18.3302 109.627 17.8288 109.627 17.2238C109.626 16.6178 109.169 16.1177 108.567 16.05Z" fill="#A2EC00"/>
<path d="M89.2327 21.2784C89.2325 20.8457 89.5589 20.4865 89.9898 20.4377C94.4954 19.9299 98.0809 16.3452 98.5892 11.8391C98.6374 11.4085 98.995 11.0813 99.4291 11.0819C99.4607 11.0823 99.4911 11.0879 99.5233 11.0906C97.9165 9.11735 96.8497 6.68992 96.5489 4.0321C96.4819 3.42992 95.9797 2.97328 95.3746 2.97315C94.7695 2.97301 94.2694 3.4303 94.2002 4.03123C93.4912 10.3283 88.479 15.3393 82.1823 16.0491C81.5816 16.117 81.1235 16.6184 81.1233 17.2234C81.1232 17.8285 81.582 18.3295 82.1823 18.3963C84.8402 18.6968 87.2673 19.7647 89.241 21.3705C89.2366 21.3402 89.2323 21.3099 89.2327 21.2784Z" fill="#00C82F"/>
<path d="M147.717 16.05C141.42 15.341 136.409 10.3288 135.699 4.0321C135.632 3.42992 135.13 2.97328 134.525 2.97315C133.919 2.97301 133.419 3.4303 133.35 4.03123C132.641 10.3283 127.629 15.3393 121.332 16.0491C120.732 16.117 120.273 16.6184 120.273 17.2234C120.273 17.8285 120.732 18.3295 121.332 18.3963C127.631 19.1062 132.642 24.1184 133.351 30.4166C133.419 31.0173 133.92 31.4754 134.525 31.4755C135.13 31.4757 135.631 31.0169 135.699 30.4175C136.408 24.1181 141.42 19.1071 147.718 18.3981C148.319 18.3302 148.777 17.8288 148.777 17.2238C148.776 16.6178 148.319 16.1177 147.717 16.05Z" fill="#A2EC00"/>
<path d="M128.383 21.2784C128.382 20.8457 128.709 20.4865 129.14 20.4377C133.645 19.9299 137.231 16.3452 137.739 11.8391C137.787 11.4085 138.145 11.0813 138.579 11.0819C138.611 11.0823 138.641 11.0879 138.673 11.0906C137.067 9.11735 136 6.68992 135.699 4.0321C135.632 3.42992 135.13 2.97328 134.525 2.97315C133.919 2.97301 133.419 3.4303 133.35 4.03123C132.641 10.3283 127.629 15.3393 121.332 16.0491C120.732 16.117 120.273 16.6184 120.273 17.2234C120.273 17.8285 120.732 18.3295 121.332 18.3963C123.99 18.6968 126.417 19.7647 128.391 21.3705C128.387 21.3402 128.382 21.3099 128.383 21.2784Z" fill="#00C82F"/>
<path d="M186.867 16.05C180.57 15.341 175.559 10.3288 174.849 4.0321C174.782 3.42992 174.28 2.97328 173.675 2.97315C173.069 2.97301 172.569 3.4303 172.5 4.03123C171.791 10.3283 166.779 15.3393 160.482 16.0491C159.882 16.117 159.423 16.6184 159.423 17.2234C159.423 17.8285 159.882 18.3295 160.482 18.3963C166.781 19.1062 171.792 24.1184 172.501 30.4166C172.569 31.0173 173.07 31.4754 173.675 31.4755C174.28 31.4757 174.781 31.0169 174.849 30.4175C175.558 24.1181 180.57 19.1071 186.868 18.3981C187.469 18.3302 187.927 17.8288 187.927 17.2238C187.926 16.6178 187.469 16.1177 186.867 16.05Z" fill="#A2EC00"/>
<path d="M167.533 21.2784C167.532 20.8457 167.859 20.4865 168.29 20.4377C172.795 19.9299 176.381 16.3452 176.889 11.8391C176.937 11.4085 177.295 11.0813 177.729 11.0819C177.761 11.0823 177.791 11.0879 177.823 11.0906C176.216 9.11735 175.15 6.68992 174.849 4.0321C174.782 3.42992 174.28 2.97328 173.675 2.97315C173.069 2.97301 172.569 3.4303 172.5 4.03123C171.791 10.3283 166.779 15.3393 160.482 16.0491C159.882 16.117 159.423 16.6184 159.423 17.2234C159.423 17.8285 159.882 18.3295 160.482 18.3963C163.14 18.6968 165.567 19.7647 167.541 21.3705C167.537 21.3402 167.532 21.3099 167.533 21.2784Z" fill="#00C82F"/>
</svg>
