<svg width="165" height="200" viewBox="0 0 165 200" fill="none" xmlns="http://www.w3.org/2000/svg">
<g clip-path="url(#clip0_235_1992)">
<path d="M84.5422 22.0793C84.3332 22.4639 83.9929 22.7889 83.5199 22.9705C77.7704 25.1769 71.5265 26.3869 65.0003 26.3869C58.4756 26.3869 52.2318 25.1769 46.4822 22.9705C46.0077 22.7889 45.6689 22.4639 45.4599 22.0793C31.0678 29.2617 21.1816 44.1283 21.1816 61.3066V67.0134C21.9263 66.6976 22.7457 66.5236 23.6047 66.5236H106.396C107.256 66.5236 108.076 66.6976 108.82 67.0134V61.3066C108.819 44.1283 98.9328 29.2617 84.5422 22.0793Z" fill="#B9E9FD"/>
<path d="M54.7784 65.602C54.7784 36.2395 65.0003 27.307 65.0003 27.307C64.6829 26.9896 64.4296 26.6799 64.2267 26.3777C57.9813 26.2847 52.0029 25.0899 46.4822 22.9705C46.0077 22.7889 45.6689 22.4639 45.4599 22.0793C31.0678 29.2617 21.1816 44.1283 21.1816 61.3066V67.0134C21.9263 66.6976 22.7457 66.5236 23.6047 66.5236H54.7693C54.7723 66.2184 54.7784 65.9133 54.7784 65.602Z" fill="#83D3FC"/>
<path d="M83.6682 20.2728C78.0057 17.601 71.6778 16.1072 65.0006 16.1072C58.3233 16.1072 51.9971 17.6025 46.333 20.2728C44.7674 21.0114 44.8666 23.2712 46.4825 23.8907C52.232 26.0971 58.4759 27.3071 65.0006 27.3071C71.5268 27.3071 77.7707 26.0986 83.5202 23.8907C85.1361 23.2712 85.2337 21.0114 83.6682 20.2728Z" fill="#D0F6FA"/>
<path d="M65.0006 21.4799V16.1057C58.3233 16.1057 51.9971 17.6011 46.333 20.2729C44.7674 21.0114 44.8666 23.2712 46.4825 23.8907C52.232 26.0972 58.4744 27.3072 65.0006 27.3072C61.7413 24.0464 65.0006 21.4799 65.0006 21.4799Z" fill="#B9E9FD"/>
<path d="M54.77 52.4277C52.8626 52.4277 51.3169 50.882 51.3169 48.9731C51.3169 47.4548 50.0809 46.2204 48.5627 46.2204C47.0444 46.2204 45.8085 47.4548 45.8085 48.9731C45.8085 50.882 44.2628 52.4277 42.3554 52.4277C40.4481 52.4277 38.9023 50.882 38.9023 48.9731C38.9023 43.6478 43.2358 39.3127 48.5627 39.3127C53.8895 39.3127 58.223 43.6478 58.223 48.9731C58.223 50.882 56.6773 52.4277 54.77 52.4277Z" fill="#1D319B"/>
<path d="M87.6465 52.4277C85.7391 52.4277 84.1919 50.882 84.1919 48.9731C84.1919 47.4548 82.9575 46.2204 81.4392 46.2204C79.921 46.2204 78.685 47.4548 78.685 48.9731C78.685 50.882 77.1393 52.4277 75.2319 52.4277C73.3246 52.4277 71.7773 50.882 71.7773 48.9731C71.7773 43.6478 76.1108 39.3127 81.4392 39.3127C86.7661 39.3127 91.0995 43.6478 91.0995 48.9731C91.0995 50.882 89.5523 52.4277 87.6465 52.4277Z" fill="#1D319B"/>
<path d="M106.494 78.0349H23.5094C20.0762 78.0349 17.293 75.2517 17.293 71.8185C17.293 68.3853 20.0762 65.6021 23.5094 65.6021H106.494C109.928 65.6021 112.709 68.3853 112.709 71.8185C112.709 75.2517 109.928 78.0349 106.494 78.0349Z" fill="#83D3FC"/>
<path d="M48.5628 71.8185C48.5628 68.3853 51.3445 65.6021 54.7777 65.6021H23.5094C20.0762 65.6021 17.293 68.3853 17.293 71.8185C17.293 75.2517 20.0762 78.0349 23.5094 78.0349H54.7777C51.346 78.0349 48.5628 75.2517 48.5628 71.8185Z" fill="#61B6FF"/>
<path d="M149.483 111.182C141.143 98.7609 131.597 92.697 129.595 91.5129C129.653 91.96 129.685 92.4132 129.685 92.8755V113.454C129.685 115.057 129.331 116.579 128.699 117.944C134.562 124.838 140.99 136.14 141.518 152.833C141.587 154.986 142.54 156.918 144.033 158.275C150.287 149.138 154.996 138.861 157.787 127.821C155.434 121.118 152.436 115.579 149.483 111.182Z" fill="#FACE7A"/>
<path d="M129.685 102.829V113.454C129.685 115.057 129.329 116.579 128.699 117.944C134.562 124.838 140.99 136.142 141.518 152.833C141.585 154.986 142.54 156.92 144.033 158.275C147.202 153.645 149.971 148.723 152.298 143.556C147.928 120.503 133.582 106.322 129.685 102.829Z" fill="#FC9949"/>
<path d="M151.785 114.847L134.645 126.59C137.071 131.015 139.178 136.365 140.406 142.723L153.704 140.271C155.335 136.252 156.704 132.099 157.783 127.829C156.043 122.867 153.953 118.54 151.785 114.847Z" fill="#FC9949"/>
<path d="M151.681 140.643C149.845 132.753 146.868 125.983 143.656 120.415L134.645 126.59C137.071 131.015 139.176 136.365 140.406 142.723L151.681 140.643Z" fill="#FD7E31"/>
<path d="M0.316956 113.454V92.8755C0.316956 92.4132 0.348999 91.96 0.405457 91.5129C-1.59497 92.6985 -11.1409 98.7609 -19.4813 111.182C-22.4354 115.579 -25.4338 121.118 -27.7852 127.821C-24.9943 138.862 -20.2855 149.138 -14.0324 158.276C-12.5401 156.92 -11.5849 154.986 -11.5162 152.833C-10.9898 136.142 -4.55975 124.84 1.30267 117.946C0.670959 116.579 0.316956 115.057 0.316956 113.454Z" fill="#FACE7A"/>
<path d="M0.315857 102.681C0.315857 102.681 -16.861 115.562 -21.9238 144.371C-19.6762 149.24 -17.0349 153.889 -14.0335 158.276C-12.5412 156.92 -11.586 154.987 -11.5189 152.833C-10.9909 136.142 -4.56085 124.84 1.30005 117.946C0.669861 116.579 0.315857 115.057 0.315857 113.454V101.961V102.681Z" fill="#FC9949"/>
<path d="M119.874 82.1426H114.654C116.208 84.0057 117.145 86.4028 117.145 89.0136V124.187H119.873C125.801 124.187 130.606 119.382 130.606 113.454V92.8756C130.606 86.9476 125.801 82.1426 119.874 82.1426Z" fill="#C78FE8"/>
<path d="M10.1276 82.1426H15.3476C13.7927 84.0057 12.8574 86.4028 12.8574 89.0136V124.187H10.1276C4.19952 124.187 -0.605469 119.382 -0.605469 113.454V92.8756C-0.605469 86.9476 4.19952 82.1426 10.1276 82.1426Z" fill="#C78FE8"/>
<path d="M119.873 108.667H117.145V124.187H119.873C125.801 124.187 130.606 119.38 130.606 113.454V101.796C130.606 105.591 125.801 108.667 119.873 108.667Z" fill="#B26CDE"/>
<path d="M-0.605469 101.796V113.454C-0.605469 119.382 4.19952 124.187 10.1276 124.187H12.8574V108.668H10.1276C4.19952 108.667 -0.605469 105.591 -0.605469 101.796Z" fill="#B26CDE"/>
<path d="M88.6489 163.608H41.3527C30.5236 163.608 21.0799 157.706 16.043 148.947V186.539C17.3232 187.303 18.6217 188.039 19.9401 188.744H110.062C111.38 188.039 112.68 187.303 113.96 186.539V148.949C108.922 157.706 99.478 163.608 88.6489 163.608Z" fill="#83D3FC"/>
<path d="M50.1525 183.638C50.1525 183.638 50.1525 173.663 50.1525 168.845C50.1525 164.028 54.1518 164.528 54.1518 164.528L53.3095 163.608H41.3527C30.5236 163.608 21.0799 157.706 16.043 148.947V186.539C17.3232 187.303 18.6217 188.039 19.9401 188.744H53.6391C53.9427 188.445 54.1518 188.283 54.1518 188.283C49.5574 188.283 50.1525 183.638 50.1525 183.638Z" fill="#61B6FF"/>
<path d="M106.395 77.5742H23.604C17.2869 77.5742 12.166 82.6951 12.166 89.0122V135.342C12.166 151.46 25.2321 164.528 41.3515 164.528H88.6492C104.767 164.528 117.835 151.462 117.835 135.342V89.0137C117.835 82.6951 112.712 77.5742 106.395 77.5742Z" fill="#B26CDE"/>
<path d="M52.4279 77.5742H23.604C17.2869 77.5742 12.166 82.6951 12.166 89.0122V135.342C12.166 151.46 25.2321 164.528 41.3515 164.528H54.1506C48.1554 164.528 48.897 158.116 48.897 158.116C48.897 158.116 48.897 147.667 48.897 140.636C48.897 133.604 53.0809 132.84 53.0809 132.84C50.4106 132.84 50.696 129.796 50.696 129.796C50.696 129.796 50.696 98.0576 50.696 95.1279C50.696 92.1982 52.4279 91.5131 52.4279 91.5131C44.4826 83.5694 52.4279 77.5742 52.4279 77.5742Z" fill="#9D4AD3"/>
<path d="M99.6422 132.84H30.3582C28.2265 132.84 26.4824 131.096 26.4824 128.964V95.3887C26.4824 93.257 28.2265 91.5129 30.3582 91.5129H99.6422C101.774 91.5129 103.518 93.257 103.518 95.3887V128.964C103.518 131.096 101.774 132.84 99.6422 132.84Z" fill="#1D319B"/>
<path d="M26.4824 95.3887V128.964C26.4824 131.096 28.2265 132.841 30.3582 132.841H53.0815C50.4113 132.841 50.6966 129.797 50.6966 129.797C50.6966 129.797 50.6966 98.059 50.6966 95.1293C50.6966 92.1996 52.4285 91.5129 52.4285 91.5129H30.3582C28.2265 91.5129 26.4824 93.257 26.4824 95.3887Z" fill="#162680"/>
<path d="M90.5948 108.16H39.4062C37.4988 108.16 35.9531 106.615 35.9531 104.707C35.9531 102.798 37.4988 101.253 39.4062 101.253H90.5948C92.5007 101.253 94.0479 102.798 94.0479 104.707C94.0479 106.615 92.5022 108.16 90.5948 108.16Z" fill="#5294E5"/>
<path d="M48.1602 104.707C48.1602 102.8 49.7059 101.254 51.6132 101.254H39.4062C37.4988 101.254 35.9531 102.8 35.9531 104.707C35.9531 106.615 37.4988 108.16 39.4062 108.16H51.6132C49.7059 108.16 48.1602 106.615 48.1602 104.707Z" fill="#4374D3"/>
<path d="M79.3027 112.398C77.3953 112.398 75.8496 110.85 75.8496 108.943V101.483C75.8496 99.5757 77.3953 98.03 79.3027 98.03C81.21 98.03 82.7557 99.5757 82.7557 101.483V108.943C82.7557 110.852 81.21 112.398 79.3027 112.398Z" fill="#83D3FC"/>
<path d="M90.5948 122.086H39.4062C37.4988 122.086 35.9531 120.541 35.9531 118.633C35.9531 116.725 37.4988 115.179 39.4062 115.179H90.5948C92.5007 115.179 94.0479 116.725 94.0479 118.633C94.0479 120.54 92.5022 122.086 90.5948 122.086Z" fill="#F6159C"/>
<path d="M50.6987 126.324C48.7914 126.324 47.2441 124.777 47.2441 122.87V115.41C47.2441 113.503 48.7914 111.957 50.6987 111.957C52.6061 111.957 54.1518 113.503 54.1518 115.41V122.87C54.1518 124.777 52.6046 126.324 50.6987 126.324Z" fill="#FFADE5"/>
<path d="M79.3027 105.434C77.3953 105.434 75.8496 103.888 75.8496 101.98V108.945C75.8496 110.852 77.3953 112.398 79.3027 112.398C81.21 112.398 82.7557 110.852 82.7557 108.945V101.98C82.7557 103.888 81.21 105.434 79.3027 105.434Z" fill="#61B6FF"/>
<path d="M50.6987 119.36C48.7914 119.36 47.2441 117.815 47.2441 115.907V122.87C47.2441 124.777 48.7914 126.324 50.6987 126.324C52.6046 126.324 54.1518 124.777 54.1518 122.87V115.907C54.1518 117.815 52.6046 119.36 50.6987 119.36Z" fill="#F948B4"/>
<path d="M19.084 188.283C32.7147 195.75 48.361 200 64.9992 200C81.6389 200 97.2838 195.75 110.916 188.283H19.084Z" fill="#B9E9FD"/>
<path d="M53.5093 199.313C47.9918 193.034 54.1502 188.283 54.1502 188.283H19.084C29.5286 194.005 41.1573 197.835 53.5093 199.313Z" fill="#83D3FC"/>
<path d="M64.9999 21.4799C63.0926 21.4799 61.5469 19.9327 61.5469 18.0253V9.28509C61.5469 7.37775 63.0926 5.83203 64.9999 5.83203C66.9073 5.83203 68.4545 7.37775 68.4545 9.28509V18.0269C68.4545 19.9327 66.9073 21.4799 64.9999 21.4799Z" fill="#83D3FC"/>
<path d="M65.0001 12.9684C62.4579 12.9684 60.3965 10.907 60.3965 8.36334V4.6051C60.3965 2.06146 62.4579 0 65.0001 0C67.5437 0 69.6052 2.06146 69.6052 4.6051V8.36334C69.6052 10.907 67.5437 12.9684 65.0001 12.9684Z" fill="#FC7ACD"/>
<path d="M65.0001 7.15784C62.8104 7.15784 60.9809 5.62738 60.514 3.57812C60.4392 3.90924 60.3965 4.25104 60.3965 4.60504V8.36328C60.3965 10.9069 62.4564 12.9684 65.0001 12.9684C67.5437 12.9684 69.6052 10.9069 69.6052 8.36328V4.60504C69.6052 4.25104 69.5624 3.90924 69.4861 3.57812C69.0192 5.62738 67.1897 7.15784 65.0001 7.15784Z" fill="#F948B4"/>
</g>
<defs>
<clipPath id="clip0_235_1992">
<rect width="200" height="200" fill="white" transform="translate(-35)"/>
</clipPath>
</defs>
</svg>
