<svg width="80" height="80" viewBox="0 0 80 80" fill="none" xmlns="http://www.w3.org/2000/svg">
<g clip-path="url(#clip0_235_1632)">
<path d="M69.6985 65.8722C75.0635 59.2834 78.2812 50.8771 78.2812 41.7188C78.2812 20.5768 61.1426 3.4375 40 3.4375C18.858 3.4375 1.71875 20.5768 1.71875 41.7188C1.71875 50.8777 4.93652 59.2834 10.3015 65.8722H69.6985Z" fill="#EEC707"/>
<path d="M40.0476 0C56.9714 0 70.6915 14.2212 70.6915 31.7633C70.6915 42.2174 65.8185 51.4905 58.3002 57.2791C52.561 58.4961 46.4252 59.1571 40.0476 59.1571C33.67 59.1571 27.5348 58.4967 21.795 57.2791C14.2767 51.4905 9.4043 42.2168 9.4043 31.7633C9.40369 14.2212 23.1238 0 40.0476 0Z" fill="#83D3FC"/>
<path d="M40.0476 0C23.1238 0 9.4043 14.2212 9.4043 31.7633C9.4043 42.2168 14.2767 51.4905 21.795 57.2791C25.5206 58.0688 29.4135 58.623 33.4302 58.916C33.5388 58.8159 33.6469 58.7244 33.7506 58.642C34.1467 58.3264 34.3054 57.7844 34.118 57.3138C33.8617 56.6718 34.0601 56.0858 34.2871 55.6921C34.4824 55.3528 34.4812 54.9365 34.3073 54.5856C33.4717 52.8967 34.3793 51.7676 34.9316 51.2799C35.1624 51.0767 35.3082 50.7941 35.3326 50.4871L38.0518 16.1926C38.0835 15.7941 37.9517 15.4041 37.7014 15.0922C36.5735 13.689 36.933 12.5354 37.3383 11.8866C37.5989 11.4685 37.6636 10.9583 37.5018 10.4926C34.6692 2.3291 40.0476 0 40.0476 0Z" fill="#61B6FF"/>
<path d="M61.2665 62.1259C60.7416 62.8046 59.9841 63.3087 59.079 63.501C52.9474 64.8016 46.5448 65.4614 40.0476 65.4614C33.5504 65.4614 27.1472 64.8016 21.0162 63.501C20.0983 63.3063 19.3335 62.7899 18.8074 62.0966L18.8049 62.0959L10.1758 65.7153C17.1924 74.4257 27.9443 80 40 80C52.0557 80 62.8076 74.4257 69.8248 65.7153L61.2665 62.1259Z" fill="#FD7E31"/>
<path d="M18.808 62.0966L18.8049 62.0959L10.1758 65.7159C14.5978 71.2048 20.5035 75.4462 27.2833 77.8345C27.2833 77.3309 27.2833 76.7926 27.2833 76.2451C27.2833 75.0537 27.6917 74.3707 28.0853 73.9893C28.4058 73.6798 28.4503 73.1879 28.2037 72.8168C26.8762 70.8246 28.8068 69.5593 28.8068 69.5593L32.8644 66.0577C33.1134 65.8429 33.2196 65.5182 33.1671 65.2112C29.0356 64.9103 24.9695 64.3396 21.0162 63.501C20.0983 63.3063 19.3335 62.7899 18.808 62.0966Z" fill="#FC5D1F"/>
<path d="M16.8491 20.1086C17.3843 18.8733 18.3713 17.8937 19.6042 17.3505C22.7914 15.946 30.0052 13.3612 39.9295 13.3612C49.8532 13.3612 57.0669 15.946 60.2548 17.3505C61.4871 17.8937 62.4741 18.8733 63.0099 20.1086C64.4784 23.4985 66.824 31.1737 63.4347 40.5566C58.8357 53.2892 39.9295 53.6035 39.9295 53.6035C39.9295 53.6035 21.0226 53.2892 16.4236 40.5566C13.035 31.1743 15.3799 23.4985 16.8491 20.1086Z" fill="#4374D3"/>
<path d="M40.0474 65.7391C46.5446 65.7391 52.9471 65.08 59.0787 63.7787C61.1069 63.349 62.4015 61.3562 61.9718 59.328C61.5415 57.3004 59.5475 56.0052 57.5211 56.4355C51.9004 57.6276 46.0215 58.2324 40.0474 58.2324C34.0732 58.2324 28.1943 57.6276 22.5742 56.4355C20.5442 56.0052 18.5532 57.3004 18.1235 59.328C17.6932 61.3562 18.9884 63.349 21.016 63.7787C27.147 65.08 33.5502 65.7391 40.0474 65.7391Z" fill="#FC9949"/>
<path d="M22.5742 56.4355C20.5442 56.0052 18.5532 57.3004 18.1235 59.328C17.6932 61.3562 18.9884 63.349 21.016 63.7793C24.9711 64.6185 29.0397 65.1886 33.173 65.4895C33.2023 65.2789 33.1589 65.0598 33.0356 64.8712C30.9055 61.6278 32.5822 59.5703 33.7504 58.642C33.9493 58.4833 34.0879 58.2678 34.1538 58.0328C30.2109 57.7661 26.334 57.2333 22.5742 56.4355Z" fill="#FD7E31"/>
<path d="M55.1187 71.5503H23.8705C22.0992 71.5503 20.6307 72.9138 20.4629 74.6436C26.1819 78.0444 32.8616 80 39.999 80C46.7275 80 53.049 78.2617 58.5433 75.2136V74.9744C58.5433 73.0908 57.0022 71.5503 55.1187 71.5503Z" fill="#3957C9"/>
<path d="M20.4629 74.6436C22.6095 75.9198 24.8916 76.9928 27.2823 77.8351C27.2823 77.3315 27.2823 76.7932 27.2823 76.2451C27.2823 75.0537 27.6907 74.3707 28.0844 73.9893C28.4048 73.6798 28.4493 73.1879 28.2028 72.8168C27.8933 72.3529 27.7627 71.9287 27.7413 71.5503H23.8705C22.0986 71.5503 20.6307 72.9138 20.4629 74.6436Z" fill="#1D319B"/>
<path d="M60.4589 74.0778C60.0298 71.5173 57.7996 69.5593 55.1189 69.5593H23.8707C21.3945 69.5593 19.3022 71.2311 18.6602 73.5046C19.8717 74.3195 21.1327 75.0665 22.437 75.741V74.9744C22.437 74.184 23.0803 73.5406 23.8707 73.5406H55.1189C55.9093 73.5406 56.5526 74.184 56.5526 74.9744V76.2451C57.9009 75.5975 59.204 74.8724 60.4589 74.0778Z" fill="#FACE7A"/>
<path d="M23.8707 69.5593C21.3945 69.5593 19.3022 71.2311 18.6602 73.5046C19.8717 74.3195 21.1327 75.0665 22.437 75.741V74.9744C22.437 74.184 23.0803 73.5406 23.8707 73.5406H28.3354C28.3904 73.299 28.3495 73.0365 28.203 72.8168C26.8755 70.824 28.806 69.5593 28.806 69.5593H23.8707Z" fill="#EEC707"/>
<path d="M58.1907 16.5149C54.4285 15.1123 48.0985 13.3612 39.9296 13.3612C32.0206 13.3612 25.8353 15.0024 22.0353 16.38C18.9304 19.5325 17.0762 23.5181 17.0762 27.8528C17.0762 31.7407 18.5685 35.3485 21.1167 38.3252C22.6499 40.1154 23.837 42.1674 24.7117 44.3561C25.3373 45.921 26.1661 47.3694 27.158 48.667C27.551 49.649 28.054 50.575 28.6503 51.4325C34.4352 53.5114 39.929 53.6035 39.929 53.6035C39.929 53.6035 45.6388 53.5083 51.5464 51.3092C52.1073 50.4797 52.5815 49.5874 52.9545 48.6432C53.9408 47.348 54.7648 45.9039 55.3879 44.3439C56.2565 42.1667 57.4338 40.1233 58.9609 38.3447C61.5195 35.3644 63.0186 31.7493 63.0186 27.8528C63.0186 23.5791 61.2162 19.6454 58.1907 16.5149Z" fill="#BF5543"/>
<path d="M17.0762 27.8528C17.0762 31.7407 18.5685 35.3485 21.1173 38.3252C22.6499 40.1154 23.837 42.1674 24.7117 44.3561C25.3379 45.921 26.1661 47.3694 27.1586 48.667C27.5516 49.6503 28.0582 50.5762 28.6558 51.4343C30.8872 52.2357 33.0747 52.7423 34.9204 53.0615V22.5677C33.9585 19.5062 40.192 16.7371 37.4082 13.9532C37.2379 13.783 37.0957 13.6115 36.9779 13.4393C30.4764 13.7787 25.3489 15.1788 22.0359 16.38C18.931 19.5325 17.0762 23.5181 17.0762 27.8528Z" fill="#B33C37"/>
<path d="M47.6752 21.1579C46.2378 21.0969 44.8694 21.363 43.6371 21.8873C43.2013 22.0728 42.8217 22.3731 42.5574 22.7662C42.0557 23.5126 41.6638 24.5002 41.7957 25.691C41.8359 26.0541 41.4502 26.3111 41.1353 26.1249C40.4816 25.738 39.5465 25.0458 38.703 23.9155C38.4821 23.6194 38.0164 23.711 37.9315 24.0705C37.8333 24.4843 37.7631 24.8877 37.7148 25.221C37.6636 25.5738 37.2321 25.7258 36.9775 25.4761C36.1078 24.6241 35.4315 23.6207 34.9896 22.6984C34.5166 21.7115 33.4937 21.1091 32.3999 21.1585L32.3785 21.1597C27.4457 21.3917 23.526 25.5103 23.5254 30.4481C23.5248 32.7686 24.375 34.8896 25.78 36.518C26.6107 37.4805 26.9562 38.7793 26.6321 40.0086C26.3135 41.2183 26.1542 42.4921 26.178 43.8068C26.2286 46.6315 27.1375 49.256 28.6499 51.4319C34.4354 53.5114 39.9298 53.6036 39.9298 53.6036C39.9298 53.6036 45.6409 53.5077 51.5491 51.3086C53.0457 49.0943 53.9203 46.4246 53.9203 43.5505C53.9203 42.3231 53.7604 41.1329 53.4613 40.0001C53.1409 38.7873 53.4637 37.497 54.2877 36.551C55.7648 34.8542 56.637 32.6166 56.5662 30.174C56.4258 25.3296 52.5177 21.3642 47.6752 21.1579Z" fill="#FADDA0"/>
<path d="M33.6176 43.8068C33.5999 42.4921 33.7201 41.2183 33.9612 40.0085C34.2053 38.7793 33.9447 37.4805 33.3173 36.5179C32.2559 34.8895 31.6144 32.7685 31.6144 30.448C31.615 27.1515 32.9358 24.2218 34.9213 22.5684C34.4232 21.6589 33.4442 21.1114 32.4005 21.1584L32.3785 21.1597C27.4463 21.3916 23.5266 25.5102 23.5254 30.448C23.5254 32.7685 24.375 34.8895 25.7806 36.5179C26.6107 37.4805 26.9568 38.7793 26.6327 40.0085C26.3141 41.2183 26.1542 42.4921 26.178 43.8068C26.2292 46.6315 27.1375 49.256 28.6505 51.4319C31.6467 52.5091 34.563 53.053 36.6809 53.327C34.8328 50.871 33.6682 47.5122 33.6176 43.8068Z" fill="#FACE7A"/>
<path d="M39.8949 55.6891C39.0642 55.675 19.4921 55.1904 14.4622 41.2646C10.8818 31.3501 13.2219 23.2348 14.9358 19.2798C15.6786 17.5659 17.0378 16.203 18.7633 15.4425C31.3536 9.89378 48.4893 9.88707 61.0955 15.4425C62.8209 16.2024 64.1808 17.5653 64.9236 19.2798C66.6375 23.2348 68.9775 31.3501 65.3966 41.2646C60.3667 55.1904 40.7952 55.675 39.9645 55.6891C39.9327 55.6891 39.926 55.6891 39.8949 55.6891ZM20.4448 19.259C19.6837 19.5941 19.0862 20.191 18.7621 20.9381C17.2942 24.3262 15.2935 31.2872 18.3849 39.848C22.3595 50.8514 39.0355 51.4923 39.9279 51.5179C40.7921 51.4917 57.509 50.8252 61.4745 39.848C64.5659 31.2878 62.5646 24.3262 61.0967 20.9381C60.7726 20.1904 60.175 19.5941 59.4139 19.259C47.8881 14.1797 31.9799 14.176 20.4448 19.259Z" fill="#E0F9FE"/>
<path d="M18.3849 39.848C15.2935 31.2872 17.2942 24.3262 18.7621 20.9381C19.0862 20.191 19.6837 19.5941 20.4448 19.259C25.6523 16.9641 31.7516 15.7098 37.9363 15.4877C37.8771 15.3467 37.7983 15.213 37.7013 15.0922C36.5734 13.6884 36.9329 12.5354 37.3381 11.8866C37.4462 11.7133 37.5182 11.524 37.5566 11.3293C30.9246 11.593 24.3901 12.9626 18.7633 15.4425C17.0378 16.203 15.6786 17.5659 14.9358 19.2798C13.2219 23.2349 10.8818 31.3501 14.4622 41.2646C17.8832 50.7367 28.0309 53.9893 34.4341 55.1062C34.4304 54.928 34.3889 54.7498 34.3071 54.5856C33.4716 52.8967 34.3792 51.7676 34.9315 51.2799C35.0273 51.1951 35.1079 51.0962 35.172 50.9875C29.6801 50.0262 21.09 47.3383 18.3849 39.848Z" fill="#B9E9FD"/>
<path d="M9.08545 23.4107C8.38721 26.0718 8.01367 28.8727 8.01367 31.7634C8.01367 34.192 8.27795 36.5552 8.77661 38.827C9.09338 40.2692 10.8555 40.8387 11.9431 39.8408C14.1025 37.8608 15.9824 34.6363 15.9824 30.9919C15.9824 27.58 14.2637 24.535 12.288 22.5361C11.2534 21.4881 9.45898 21.9861 9.08545 23.4107Z" fill="#5294E5"/>
<path d="M70.9534 23.1995C70.5743 21.7944 68.8269 21.2976 67.7765 22.3041C65.6976 24.2963 63.877 27.4463 63.877 30.9918C63.877 34.7766 65.8691 38.1104 68.1403 40.0659C69.2438 41.015 70.9528 40.4474 71.2738 39.0277C71.8018 36.6949 72.0819 34.2633 72.0819 31.7633C72.0819 28.7958 71.6882 25.9241 70.9534 23.1995Z" fill="#61B6FF"/>
<path d="M40.0486 48.9917C36.6983 48.9917 33.6057 48.186 31.5628 46.7822C31.0294 46.4154 30.8945 45.686 31.2607 45.1525C31.6275 44.6191 32.3569 44.4842 32.8904 44.851C34.5279 45.9759 37.2037 46.6479 40.0486 46.6479C42.8934 46.6479 45.5698 45.9759 47.2068 44.851C47.7402 44.4842 48.4696 44.6191 48.8364 45.1525C49.2026 45.686 49.0677 46.4154 48.5343 46.7822C46.4914 48.186 43.3988 48.9917 40.0486 48.9917Z" fill="#FBB362"/>
<path d="M39.0087 40.6409C39.0087 41.3031 38.4716 41.8402 37.8087 41.8402C37.1465 41.8402 36.6094 41.3031 36.6094 40.6409C36.6094 39.978 37.1465 39.4409 37.8087 39.4409C38.4716 39.4409 39.0087 39.978 39.0087 40.6409Z" fill="#FBB362"/>
<path d="M43.4872 40.6409C43.4872 41.3031 42.9501 41.8402 42.2872 41.8402C41.625 41.8402 41.0879 41.3031 41.0879 40.6409C41.0879 39.978 41.625 39.4409 42.2872 39.4409C42.9501 39.4409 43.4872 39.978 43.4872 40.6409Z" fill="#FBB362"/>
<path d="M11.7686 31.1591C10.2836 31.1591 8.96033 30.4687 8.10095 29.3915C8.0448 30.1752 8.01367 30.9656 8.01367 31.7633C8.01367 34.1913 8.27795 36.5552 8.77661 38.8269C9.09338 40.2692 10.8555 40.8386 11.9437 39.8407C14.1025 37.8607 15.9824 34.6356 15.9824 30.9918C15.9824 30.282 15.9073 29.588 15.7712 28.916C14.9467 30.2618 13.4623 31.1591 11.7686 31.1591Z" fill="#4374D3"/>
<path d="M68.327 31.1591C66.5063 31.1591 64.9286 30.1215 64.1504 28.606C63.9752 29.3738 63.877 30.1721 63.877 30.9918C63.877 34.7772 65.8691 38.1104 68.1403 40.0659C69.2438 41.0156 70.9528 40.4474 71.2738 39.0277C71.8018 36.6949 72.0819 34.2633 72.0819 31.7633C72.0819 30.965 72.0526 30.1733 71.9965 29.3896C71.1365 30.4675 69.8132 31.1591 68.327 31.1591Z" fill="#5294E5"/>
<path d="M35.9983 34.7839C35.9983 32.7789 34.4712 31.1542 32.587 31.1542C30.7029 31.1542 29.1758 32.7789 29.1758 34.7839C29.1758 36.7883 30.7029 38.4137 32.587 38.4137C34.4712 38.4137 35.9983 36.7883 35.9983 34.7839Z" fill="#E0F9FE"/>
<path d="M33.9542 38.1091C33.726 38.1091 33.6497 38.0035 33.6307 37.8973C33.6039 37.7484 33.5325 37.6111 33.411 37.5201C32.0463 36.496 32.089 35.0568 32.194 34.4067C32.2269 34.2047 32.1537 33.9996 31.9968 33.8678C30.7993 32.8638 31.6428 31.2964 31.6428 31.2964C30.2183 31.7322 29.1758 33.1281 29.1758 34.7839C29.1758 36.7883 30.7029 38.4137 32.587 38.4137C33.0735 38.4137 33.5355 38.3044 33.9542 38.1091Z" fill="#B9E9FD"/>
<path d="M34.5662 36.0175C34.5662 37.1106 33.6799 37.9968 32.5868 37.9968C31.4937 37.9968 30.6074 37.1106 30.6074 36.0175C30.6074 34.9243 31.4937 34.0387 32.5868 34.0387C33.6799 34.0387 34.5662 34.9243 34.5662 36.0175Z" fill="#3957C9"/>
<path d="M33.575 37.7301C33.5371 37.6489 33.484 37.5757 33.4102 37.5201C32.0454 36.496 32.0881 35.0568 32.1931 34.4067C32.2108 34.2969 32.1968 34.1864 32.1553 34.0869C31.2697 34.2841 30.6074 35.0726 30.6074 36.0175C30.6074 37.1106 31.493 37.9968 32.5862 37.9968C32.9469 37.9968 33.2838 37.8992 33.575 37.7301Z" fill="#4347B0"/>
<path d="M50.9202 34.7839C50.9202 32.7789 49.3931 31.1542 47.5089 31.1542C45.6248 31.1542 44.0977 32.7789 44.0977 34.7839C44.0977 36.7883 45.6248 38.4137 47.5089 38.4137C49.3931 38.4137 50.9202 36.7883 50.9202 34.7839Z" fill="#E0F9FE"/>
<path d="M48.8761 38.1091C48.6478 38.1091 48.5715 38.0035 48.5526 37.8973C48.5258 37.7484 48.4543 37.6111 48.3329 37.5201C46.9675 36.496 47.0109 35.0568 47.1158 34.4067C47.1488 34.2047 47.075 33.9996 46.9187 33.8678C45.7212 32.8638 46.5647 31.2964 46.5647 31.2964C45.1401 31.7322 44.0977 33.1281 44.0977 34.7839C44.0977 36.7883 45.6248 38.4137 47.5089 38.4137C47.9954 38.4137 48.4574 38.3044 48.8761 38.1091Z" fill="#B9E9FD"/>
<path d="M49.488 36.0175C49.488 37.1106 48.6018 37.9968 47.5087 37.9968C46.4155 37.9968 45.5293 37.1106 45.5293 36.0175C45.5293 34.9243 46.4155 34.0387 47.5087 34.0387C48.6018 34.0387 49.488 34.9243 49.488 36.0175Z" fill="#3957C9"/>
<path d="M48.4968 37.7301C48.459 37.6489 48.4059 37.5757 48.332 37.5201C46.9673 36.496 47.01 35.0568 47.115 34.4067C47.1333 34.2969 47.1187 34.1864 47.0771 34.0869C46.1915 34.2841 45.5293 35.0726 45.5293 36.0175C45.5293 37.1106 46.4149 37.9968 47.5081 37.9968C47.8688 37.9968 48.2057 37.8992 48.4968 37.7301Z" fill="#4347B0"/>
</g>
<defs>
<clipPath id="clip0_235_1632">
<rect width="80" height="80" fill="white"/>
</clipPath>
</defs>
</svg>
