<svg width="172" height="167" viewBox="0 0 172 167" fill="none" xmlns="http://www.w3.org/2000/svg">
<g clip-path="url(#clip0_235_2144)">
<path d="M99.1176 0C141.004 0 174.961 35.1974 174.961 78.6142C174.961 104.488 162.9 127.439 144.293 141.766C130.088 144.778 114.902 146.414 99.1176 146.414C83.3331 146.414 68.1484 144.779 53.9425 141.766C35.3347 127.439 23.2754 104.487 23.2754 78.6142C23.2739 35.1974 57.2311 0 99.1176 0Z" fill="#83D3FC"/>
<path d="M99.1176 0C57.2311 0 23.2754 35.1974 23.2754 78.6142C23.2754 104.487 35.3347 127.439 53.9425 141.766C63.1633 143.72 72.798 145.092 82.7394 145.817C83.0083 145.569 83.2757 145.343 83.5325 145.139C84.5129 144.358 84.9057 143.016 84.4419 141.852C83.8074 140.263 84.2984 138.812 84.8604 137.838C85.3438 136.998 85.3407 135.968 84.9102 135.099C82.8422 130.919 85.0885 128.125 86.4556 126.918C87.0266 126.415 87.3876 125.715 87.448 124.955L94.1779 40.0768C94.2564 39.0903 93.9301 38.125 93.3108 37.3531C90.5191 33.8802 91.4089 31.0251 92.4119 29.4193C93.057 28.3846 93.2171 27.1217 92.8168 25.9691C85.806 5.76453 99.1176 0 99.1176 0Z" fill="#61B6FF"/>
<path d="M151.635 153.762C150.336 155.441 148.461 156.689 146.221 157.165C131.045 160.384 115.199 162.017 99.1183 162.017C83.0378 162.017 67.1898 160.384 52.0157 157.165C49.7437 156.683 47.8509 155.405 46.5487 153.689L46.5427 153.688L25.1855 162.645C42.5516 184.204 69.1627 198 99.0005 198C128.838 198 155.449 184.204 172.817 162.645L151.635 153.762Z" fill="#FD7E31"/>
<path d="M46.5502 153.689L46.5427 153.688L25.1855 162.647C36.13 176.232 50.7467 186.729 67.5267 192.64C67.5267 191.394 67.5267 190.062 67.5267 188.707C67.5267 185.758 68.5373 184.068 69.5117 183.123C70.3047 182.358 70.415 181.14 69.8047 180.222C66.5191 175.291 71.2972 172.159 71.2972 172.159L81.3398 163.493C81.9562 162.961 82.219 162.158 82.0891 161.398C71.8637 160.653 61.8 159.241 52.0157 157.165C49.7437 156.683 47.8509 155.405 46.5502 153.689Z" fill="#FC5D1F"/>
<path d="M41.7022 49.769C43.027 46.7115 45.4697 44.287 48.5212 42.9425C56.4096 39.4666 74.2637 33.0691 98.8263 33.0691C123.388 33.0691 141.242 39.4666 149.131 42.9425C152.181 44.287 154.624 46.7115 155.95 49.769C159.585 58.159 165.39 77.155 157.002 100.378C145.619 131.891 98.8263 132.669 98.8263 132.669C98.8263 132.669 52.0319 131.891 40.6493 100.378C32.2624 77.1565 38.0662 58.159 41.7022 49.769Z" fill="#4374D3"/>
<path d="M99.1181 162.704C115.199 162.704 131.045 161.073 146.221 157.852C151.24 156.789 154.445 151.856 153.381 146.837C152.316 141.818 147.381 138.613 142.366 139.678C128.454 142.628 113.904 144.125 99.1181 144.125C84.3321 144.125 69.7818 142.628 55.872 139.678C50.8477 138.613 45.9201 141.818 44.8566 146.837C43.7916 151.856 46.9971 156.789 52.0154 157.852C67.1896 161.073 83.0375 162.704 99.1181 162.704Z" fill="#FC9949"/>
<path d="M55.872 139.678C50.8477 138.613 45.9201 141.818 44.8566 146.837C43.7916 151.856 46.9971 156.789 52.0154 157.854C61.8042 159.931 71.874 161.342 82.1039 162.086C82.1764 161.565 82.0692 161.023 81.764 160.556C76.492 152.529 80.6417 147.436 83.533 145.139C84.0254 144.746 84.3684 144.213 84.5315 143.631C74.7729 142.971 65.1774 141.652 55.872 139.678Z" fill="#FD7E31"/>
<path d="M144.024 40.8745C134.713 37.4031 119.046 33.0691 98.8278 33.0691C79.2532 33.0691 63.9445 37.1311 54.5394 40.5406C46.8549 48.343 42.2656 58.2073 42.2656 68.9357C42.2656 78.5584 45.9591 87.4877 52.2659 94.855C56.0606 99.2856 58.9988 104.364 61.1635 109.781C62.7119 113.655 64.7633 117.239 67.218 120.451C68.1909 122.882 69.4356 125.173 70.9115 127.296C85.2292 132.441 98.8263 132.669 98.8263 132.669C98.8263 132.669 112.958 132.433 127.579 126.99C128.968 124.937 130.141 122.729 131.064 120.392C133.506 117.186 135.545 113.612 137.087 109.751C139.237 104.363 142.151 99.3053 145.93 94.9033C152.263 87.5269 155.973 78.5795 155.973 68.9357C155.973 58.3584 151.512 48.6224 144.024 40.8745Z" fill="#BF5543"/>
<path d="M42.2656 68.9357C42.2656 78.5584 45.9591 87.4877 52.2674 94.855C56.0606 99.2856 58.9988 104.364 61.1635 109.781C62.7134 113.655 64.7633 117.239 67.2196 120.451C68.1924 122.885 69.4462 125.176 70.9251 127.3C76.4479 129.284 81.862 130.537 86.4301 131.327V55.8553C84.0494 48.278 99.4773 41.4243 92.5874 34.5344C92.1659 34.1129 91.814 33.6884 91.5224 33.2625C75.4313 34.1024 62.7406 37.5677 54.5409 40.5406C46.8564 48.343 42.2656 58.2073 42.2656 68.9357Z" fill="#B33C37"/>
<path d="M117.995 52.3658C114.438 52.2147 111.051 52.8733 108.001 54.171C106.922 54.6302 105.983 55.3734 105.329 56.3462C104.087 58.1937 103.117 60.6379 103.444 63.5851C103.543 64.484 102.589 65.1199 101.809 64.6592C100.191 63.7015 97.8769 61.9884 95.7892 59.1907C95.2424 58.4581 94.0898 58.6847 93.8798 59.5744C93.6366 60.5986 93.4628 61.5972 93.3435 62.422C93.2166 63.2951 92.1486 63.6712 91.5187 63.0534C89.366 60.9446 87.6923 58.4611 86.5986 56.1786C85.4279 53.7359 82.8961 52.2449 80.189 52.3673L80.1362 52.3703C67.9273 52.9443 58.2261 63.138 58.2246 75.3589C58.2231 81.1023 60.3274 86.3517 63.8048 90.382C65.8608 92.7643 66.7158 95.9789 65.9137 99.0213C65.1251 102.015 64.7309 105.168 64.7898 108.422C64.9151 115.413 67.1645 121.909 70.9078 127.294C85.2269 132.441 98.8256 132.669 98.8256 132.669C98.8256 132.669 112.96 132.432 127.583 126.989C131.287 121.508 133.452 114.901 133.452 107.787C133.452 104.75 133.056 101.804 132.316 99.0001C131.523 95.9985 132.322 92.8051 134.361 90.4636C138.017 86.2641 140.176 80.7261 140.001 74.6806C139.653 62.6908 129.981 52.8764 117.995 52.3658Z" fill="#FADDA0"/>
<path d="M83.2008 108.422C83.157 105.168 83.4545 102.015 84.0512 99.021C84.6555 95.9786 84.0105 92.764 82.4575 90.3818C79.8306 86.3515 78.2429 81.1021 78.2429 75.3587C78.2444 67.1998 81.5134 59.9488 86.4274 55.8566C85.1948 53.6057 82.7717 52.2507 80.1886 52.367L80.1342 52.3701C67.9269 52.9441 58.2257 63.1378 58.2227 75.3587C58.2227 81.1021 60.3254 86.3515 63.8044 90.3818C65.8588 92.764 66.7154 95.9786 65.9132 99.021C65.1247 102.015 64.7289 105.168 64.7878 108.422C64.9147 115.413 67.1625 121.908 70.9073 127.294C78.323 129.96 85.5407 131.306 90.7826 131.984C86.2084 125.906 83.3261 117.593 83.2008 108.422Z" fill="#FACE7A"/>
<path d="M98.7401 137.83C96.6841 137.796 48.2431 136.596 35.794 102.13C26.9327 77.5914 32.7245 57.5062 36.9663 47.7174C38.8047 43.4755 42.1689 40.1023 46.4394 38.2201C77.6004 24.487 120.011 24.4704 151.211 38.2201C155.482 40.1008 158.848 43.474 160.686 47.7174C164.928 57.5062 170.72 77.5914 161.857 102.13C149.408 136.596 100.968 137.796 98.9123 137.83C98.8337 137.83 98.8171 137.83 98.7401 137.83ZM50.6011 47.666C48.7174 48.4953 47.2385 49.9727 46.4364 51.8217C42.8033 60.2072 37.8515 77.4358 45.5028 98.6237C55.34 125.857 96.6131 127.443 98.8216 127.507C100.961 127.442 142.335 125.792 152.15 98.6237C159.801 77.4373 154.848 60.2072 151.214 51.8217C150.412 49.9712 148.933 48.4953 147.05 47.666C118.523 35.0946 79.1503 35.0855 50.6011 47.666Z" fill="#E0F9FE"/>
<path d="M45.5028 98.6238C37.8515 77.4358 42.8033 60.2072 46.4364 51.8217C47.2385 49.9727 48.7174 48.4953 50.6011 47.666C63.4897 41.9861 78.5854 38.8818 93.8925 38.3319C93.746 37.9829 93.5511 37.6521 93.3109 37.353C90.5193 33.8786 91.409 31.025 92.4121 29.4192C92.6795 28.9902 92.8577 28.5219 92.9529 28.04C76.5385 28.6926 60.3658 32.0825 46.4394 38.2201C42.1689 40.1023 38.8047 43.4756 36.9663 47.7174C32.7245 57.5062 26.9327 77.5914 35.794 102.13C44.2611 125.573 69.3766 133.623 85.2246 136.388C85.2155 135.947 85.1128 135.506 84.9103 135.099C82.8423 130.919 85.0886 128.125 86.4557 126.918C86.6929 126.708 86.8923 126.463 87.0509 126.194C73.4583 123.815 52.1979 117.162 45.5028 98.6238Z" fill="#B9E9FD"/>
<path d="M22.4866 57.9415C20.7585 64.5278 19.834 71.46 19.834 78.6143C19.834 84.6251 20.4881 90.4742 21.7223 96.0967C22.5063 99.6663 26.8674 101.076 29.5594 98.6058C34.9039 93.7054 39.5566 85.7248 39.5566 76.7049C39.5566 68.2605 35.3027 60.724 30.4129 55.7767C27.8524 53.183 23.4111 54.4157 22.4866 57.9415Z" fill="#5294E5"/>
<path d="M175.608 57.4186C174.67 53.9412 170.345 52.7115 167.745 55.2026C162.6 60.1332 158.094 67.9295 158.094 76.7047C158.094 86.0721 163.024 94.3231 168.645 99.1631C171.377 101.512 175.606 100.107 176.401 96.5936C177.708 90.82 178.401 84.8016 178.401 78.6141C178.401 71.2695 177.427 64.162 175.608 57.4186Z" fill="#61B6FF"/>
<path d="M99.1192 121.254C90.8274 121.254 83.1731 119.26 78.1171 115.786C76.7968 114.878 76.4629 113.073 77.3693 111.752C78.2772 110.432 80.0824 110.098 81.4027 111.006C85.4557 113.79 92.0782 115.453 99.1192 115.453C106.16 115.453 112.784 113.79 116.836 111.006C118.156 110.098 119.961 110.432 120.869 111.752C121.775 113.073 121.442 114.878 120.121 115.786C115.065 119.26 107.411 121.254 99.1192 121.254Z" fill="#FBB362"/>
<path d="M96.5476 100.586C96.5476 102.225 95.2183 103.554 93.5777 103.554C91.9387 103.554 90.6094 102.225 90.6094 100.586C90.6094 98.9456 91.9387 97.6162 93.5777 97.6162C95.2183 97.6162 96.5476 98.9456 96.5476 100.586Z" fill="#FBB362"/>
<path d="M107.632 100.586C107.632 102.225 106.302 103.554 104.662 103.554C103.023 103.554 101.693 102.225 101.693 100.586C101.693 98.9456 103.023 97.6162 104.662 97.6162C106.302 97.6162 107.632 98.9456 107.632 100.586Z" fill="#FBB362"/>
<path d="M29.1273 77.1187C25.452 77.1187 22.177 75.4102 20.05 72.7439C19.911 74.6835 19.834 76.6398 19.834 78.6142C19.834 84.6234 20.4881 90.4741 21.7223 96.0966C22.5063 99.6662 26.8674 101.076 29.5609 98.6057C34.9039 93.7053 39.5566 85.7232 39.5566 76.7048C39.5566 74.9479 39.3708 73.2303 39.034 71.5671C36.9931 74.8981 33.3193 77.1187 29.1273 77.1187Z" fill="#4374D3"/>
<path d="M169.108 77.1187C164.602 77.1187 160.697 74.5507 158.771 70.7998C158.337 72.7002 158.094 74.6761 158.094 76.7048C158.094 86.0737 163.024 94.3232 168.645 99.1632C171.377 101.514 175.606 100.107 176.401 96.5936C177.708 90.8201 178.401 84.8017 178.401 78.6142C178.401 76.6384 178.329 74.6791 178.19 72.7394C176.061 75.4072 172.786 77.1187 169.108 77.1187Z" fill="#5294E5"/>
<path d="M89.0947 86.0903C89.0947 81.128 85.3151 77.1067 80.6518 77.1067C75.9886 77.1067 72.209 81.128 72.209 86.0903C72.209 91.0512 75.9886 95.074 80.6518 95.074C85.3151 95.074 89.0947 91.0512 89.0947 86.0903Z" fill="#E0F9FE"/>
<path d="M84.0356 94.32C83.4707 94.32 83.2818 94.0587 83.235 93.7959C83.1685 93.4273 82.9918 93.0874 82.6912 92.8623C79.3134 90.3275 79.4192 86.7654 79.679 85.1566C79.7606 84.6566 79.5793 84.149 79.1911 83.8227C76.2272 81.3378 78.3149 77.4585 78.3149 77.4585C74.7891 78.5371 72.209 81.9919 72.209 86.0902C72.209 91.0511 75.9886 95.0738 80.6518 95.0738C81.8558 95.0738 82.9993 94.8034 84.0356 94.32Z" fill="#B9E9FD"/>
<path d="M85.5498 89.1433C85.5498 91.8488 83.3564 94.0422 80.6509 94.0422C77.9454 94.0422 75.752 91.8488 75.752 89.1433C75.752 86.4378 77.9454 84.2458 80.6509 84.2458C83.3564 84.2458 85.5498 86.4378 85.5498 89.1433Z" fill="#3957C9"/>
<path d="M83.1005 93.3821C83.0068 93.1812 82.8754 92.9999 82.6926 92.8625C79.3149 90.3277 79.4206 86.7656 79.6805 85.1568C79.7243 84.8849 79.6895 84.6115 79.5868 84.3652C77.3949 84.8532 75.7559 86.8049 75.7559 89.1433C75.7559 91.8488 77.9478 94.0423 80.6533 94.0423C81.5461 94.0423 82.3799 93.8006 83.1005 93.3821Z" fill="#4347B0"/>
<path d="M126.026 86.0903C126.026 81.128 122.247 77.1067 117.583 77.1067C112.92 77.1067 109.141 81.128 109.141 86.0903C109.141 91.0512 112.92 95.074 117.583 95.074C122.247 95.074 126.026 91.0512 126.026 86.0903Z" fill="#E0F9FE"/>
<path d="M120.967 94.32C120.402 94.32 120.213 94.0587 120.167 93.7959C120.1 93.4273 119.923 93.0874 119.623 92.8623C116.244 90.3275 116.351 86.7654 116.611 85.1566C116.692 84.6566 116.509 84.149 116.123 83.8227C113.159 81.3378 115.247 77.4585 115.247 77.4585C111.721 78.5371 109.141 81.9919 109.141 86.0902C109.141 91.0511 112.92 95.0738 117.583 95.0738C118.787 95.0738 119.931 94.8034 120.967 94.32Z" fill="#B9E9FD"/>
<path d="M122.481 89.1433C122.481 91.8488 120.288 94.0422 117.583 94.0422C114.877 94.0422 112.684 91.8488 112.684 89.1433C112.684 86.4378 114.877 84.2458 117.583 84.2458C120.288 84.2458 122.481 86.4378 122.481 89.1433Z" fill="#3957C9"/>
<path d="M120.032 93.3821C119.938 93.1812 119.807 92.9999 119.624 92.8625C116.247 90.3277 116.352 86.7656 116.612 85.1568C116.657 84.8849 116.621 84.6115 116.518 84.3652C114.327 84.8532 112.688 86.8049 112.688 89.1433C112.688 91.8488 114.879 94.0423 117.585 94.0423C118.478 94.0423 119.312 93.8006 120.032 93.3821Z" fill="#4347B0"/>
</g>
<defs>
<clipPath id="clip0_235_2144">
<rect width="198" height="198" fill="white"/>
</clipPath>
</defs>
</svg>
