<svg width="151" height="150" viewBox="0 0 151 150" fill="none" xmlns="http://www.w3.org/2000/svg">
<g clip-path="url(#clip0_235_2395)">
<path d="M75.6878 10.0126C53.674 10.0126 35.8281 27.8573 35.8281 49.8711V137.934C47.2264 145.554 60.9261 150 75.6661 150C90.4243 150 104.141 145.544 115.548 137.906V49.8711C115.548 27.8573 97.7016 10.0126 75.6878 10.0126Z" fill="#A2EC00"/>
<path d="M64.0606 136.363V49.8711C64.0606 30.8019 72.7101 14.8637 84.2651 10.9407C81.5025 10.3342 78.6335 10.0126 75.6878 10.0126C53.674 10.0126 35.8281 27.8573 35.8281 49.8711V137.934C45.1264 144.151 55.9571 148.252 67.6335 149.554C65.3607 145.673 64.0606 141.155 64.0606 136.363Z" fill="#51DA18"/>
<path d="M127.779 5.50711C116.929 -3.13545 99.3745 -2.02881 90.8613 11.8494C90.0156 13.2273 89.9583 14.9038 90.7068 16.3332C92.4394 19.6417 97.2368 19.5627 98.8389 16.0952C103.53 5.94885 115.9 2.06587 125.499 7.59908C125.955 6.65609 126.757 5.89506 127.779 5.50711Z" fill="#D7F9B7"/>
<path d="M86.4455 38.0128C86.4135 38.0163 86.3826 38.0197 86.3505 38.0197H65.0245C64.9913 38.0197 64.9604 38.0163 64.9295 38.0128C63.4097 40.1609 62.5137 42.7804 62.5137 45.6117C62.5137 52.8878 68.4119 58.7861 75.6869 58.7861C82.9631 58.7861 88.8614 52.8878 88.8614 45.6117C88.8614 42.7804 87.9653 40.1609 86.4455 38.0128Z" fill="#E0F9FE"/>
<path d="M52.1492 113.344C51.8974 113.973 51.6823 114.641 51.5141 115.343C50.4097 119.933 51.6777 124.174 54.3442 124.815C57.0118 125.457 60.0685 122.256 61.1728 117.666C61.3411 116.963 61.4544 116.27 61.515 115.597C58.3244 115.028 55.199 114.274 52.1492 113.344Z" fill="#E0F9FE"/>
<path d="M56.1283 115.343C56.197 115.057 56.2748 114.776 56.3595 114.5C54.9404 114.151 53.5362 113.767 52.1492 113.344C51.8974 113.972 51.6823 114.641 51.5141 115.343C50.4097 119.933 51.6777 124.174 54.3442 124.815C55.3776 125.063 56.4682 124.734 57.4821 123.971C55.8674 122.388 55.254 118.976 56.1283 115.343Z" fill="#B9E9FD"/>
<path d="M99.2263 113.344C96.1765 114.274 93.05 115.028 89.8594 115.597C89.9212 116.27 90.0333 116.963 90.2027 117.666C91.3059 122.256 94.3626 125.457 97.0302 124.815C99.6978 124.174 100.965 119.933 99.8615 115.343C99.6933 114.641 99.4781 113.973 99.2263 113.344Z" fill="#E0F9FE"/>
<path d="M94.2848 115.809C94.1978 115.447 94.1257 115.085 94.0685 114.728C92.678 115.053 91.2762 115.344 89.8594 115.597C89.9212 116.27 90.0333 116.963 90.2027 117.666C91.3059 122.256 94.3626 125.457 97.0302 124.815C97.9961 124.583 98.7777 123.876 99.3305 122.854C97.2019 122.133 95.1477 119.395 94.2848 115.809Z" fill="#B9E9FD"/>
<path d="M49.7532 113.715C48.3856 113.243 47.6601 111.751 48.1327 110.384C48.6053 109.017 50.0965 108.292 51.4629 108.765C66.8495 114.079 83.9 114.295 99.9102 108.765C101.277 108.292 102.769 109.017 103.242 110.384C103.713 111.751 102.988 113.243 101.621 113.715C85.1154 119.417 66.8598 119.625 49.7532 113.715Z" fill="#00C82F"/>
<path d="M43.2576 91.8194C41.7516 89.6828 38.7922 89.217 36.7071 90.7677C30.1542 95.6394 15.452 95.121 11.3173 88.2774C9.48277 85.2425 9.77116 81.2783 10.7153 77.5669C11.323 75.1774 9.9783 72.7272 7.6254 71.988C5.11686 71.1995 2.44124 72.6551 1.77176 75.198C0.400761 80.4051 -0.303049 86.9591 3.38995 93.0691C10.5448 104.907 31.3467 106.075 42.024 98.354C44.0908 96.8605 44.7271 93.9045 43.2576 91.8194Z" fill="#51DA18"/>
<path d="M133.071 8.26853C132.6 6.00489 130.383 4.55264 128.119 5.02414C125.857 5.49678 124.404 7.71349 124.876 9.97599C125.347 12.2385 127.564 13.6907 129.828 13.2192C132.09 12.7477 133.543 10.531 133.071 8.26853Z" fill="#FC7ACD"/>
<path d="M133.066 8.26508C133.009 7.98928 132.924 7.72492 132.818 7.4743C132.773 8.6908 131.911 9.76655 130.665 10.0263C129.201 10.3307 127.765 9.39118 127.46 7.92634C127.201 6.68123 127.842 5.46014 128.94 4.93372C128.667 4.936 128.391 4.96347 128.116 5.02184C125.852 5.49333 124.4 7.71005 124.872 9.97254C125.344 12.2362 127.561 13.6884 129.823 13.2158C132.087 12.7454 133.538 10.5276 133.066 8.26508Z" fill="#F948B4"/>
<path d="M104.244 3.71034C104.244 2.50985 104.816 1.4467 105.7 0.768066C99.9124 2.23863 94.5417 5.84923 90.8613 11.8494C90.0156 13.2272 89.9583 14.9026 90.7068 16.3331C92.4394 19.6405 97.2368 19.5627 98.8389 16.0951C100.653 12.1721 103.616 9.1909 107.121 7.32323C105.473 6.94443 104.244 5.47272 104.244 3.71034Z" fill="#8FE98A"/>
<path d="M23.5977 5.50711C34.4478 -3.13545 52.0007 -2.02881 60.5151 11.8494C61.3596 13.2273 61.418 14.9038 60.6684 16.3332C58.9369 19.6417 54.1384 19.5627 52.5363 16.0952C47.8453 5.94885 35.4755 2.06587 25.8762 7.59908C25.4207 6.65609 24.6196 5.89506 23.5977 5.50711Z" fill="#D7F9B7"/>
<path d="M26.5035 8.26618C26.032 6.00255 23.8153 4.55029 21.5528 5.02293C19.2892 5.49443 17.8381 7.71115 18.3096 9.97364C18.7811 12.2361 20.9978 13.6884 23.2603 13.2169C25.5228 12.7454 26.975 10.5287 26.5035 8.26618Z" fill="#FC7ACD"/>
<path d="M26.5027 8.26508C26.4443 7.98928 26.3608 7.72492 26.2543 7.4743C26.2097 8.6908 25.3468 9.76655 24.1017 10.0263C22.6369 10.3307 21.2018 9.39118 20.8962 7.92634C20.6365 6.68123 21.2785 5.46014 22.3748 4.93372C22.1036 4.936 21.8278 4.96347 21.5508 5.02184C19.2883 5.49333 17.8361 7.71005 18.3076 9.97254C18.7791 12.2362 20.9958 13.6884 23.2583 13.2158C25.5219 12.7454 26.9742 10.5276 26.5027 8.26508Z" fill="#F948B4"/>
<path d="M47.1318 3.71034C47.1318 2.50985 46.5596 1.4467 45.6761 0.768066C51.4645 2.23863 56.8352 5.84923 60.5156 11.8494C61.3613 13.2272 61.4185 14.9026 60.6689 16.3331C58.9375 19.6405 54.1401 19.5627 52.5379 16.0951C50.724 12.1721 47.76 9.1909 44.2559 7.32323C45.9027 6.94443 47.1318 5.47272 47.1318 3.71034Z" fill="#8FE98A"/>
<path d="M82.8887 56.6415C75.8426 55.1778 77.7217 48.7668 77.7217 48.7668L75.6869 42.3993C73.9371 39.8038 76.2557 38.4134 76.2557 38.4134L76.2694 38.0197H65.0245C64.9913 38.0197 64.9604 38.0163 64.9295 38.0128C63.4086 40.1609 62.5137 42.7804 62.5137 45.6117C62.5137 52.8878 68.4108 58.7861 75.6869 58.7861C78.3454 58.7861 80.8185 57.9953 82.8887 56.6415Z" fill="#B9E9FD"/>
<path d="M79.1987 45.9092C79.1987 47.8478 77.6263 49.4202 75.6876 49.4202C73.749 49.4202 72.1777 47.8478 72.1777 45.9092C72.1777 43.9706 73.749 42.3993 75.6876 42.3993C77.6263 42.3993 79.1987 43.9706 79.1987 45.9092Z" fill="#61B6FF"/>
<path d="M87.0885 36.826C84.3682 33.5576 80.2724 31.4771 75.6879 31.4771C71.1046 31.4771 67.0076 33.5576 64.2873 36.826C63.7632 37.4566 64.2049 38.4133 65.0255 38.4133H86.3515C87.172 38.4133 87.6138 37.4566 87.0885 36.826Z" fill="#51DA18"/>
<path d="M74.5578 35.13C74.5578 33.5473 75.4733 32.1809 76.8019 31.5228C76.4334 31.4954 76.0638 31.4771 75.6884 31.4771C71.1039 31.4771 67.0081 33.5576 64.2878 36.826C63.7626 37.4566 64.2054 38.4133 65.026 38.4133H76.2561C75.2295 37.6832 74.5578 36.4861 74.5578 35.13Z" fill="#00C82F"/>
<path d="M85.6673 100.935C75.9032 98.9067 78.5067 90.0238 78.5067 90.0238L75.688 81.1993C73.2642 77.6047 76.4754 75.6764 76.4754 75.6764L76.4948 75.1316H60.9126C60.868 75.1316 60.8245 75.1259 60.781 75.1213C58.6753 78.0979 57.4336 81.728 57.4336 85.651C57.4336 95.7332 65.6058 103.907 75.688 103.907C79.3719 103.907 82.7994 102.811 85.6673 100.935Z" fill="#B9E9FD"/>
<path d="M80.5528 86.0641C80.5528 88.75 78.375 90.9278 75.6879 90.9278C73.002 90.9278 70.8242 88.75 70.8242 86.0641C70.8242 83.377 73.002 81.1992 75.6879 81.1992C78.375 81.1992 80.5528 83.377 80.5528 86.0641Z" fill="#61B6FF"/>
<path d="M91.4855 73.4768C87.7169 68.9484 82.0407 66.0645 75.6881 66.0645C69.3366 66.0645 63.6604 68.9484 59.8907 73.4768C59.164 74.35 59.7762 75.6763 60.9126 75.6763H90.4635C91.6011 75.6763 92.2133 74.35 91.4855 73.4768Z" fill="#51DA18"/>
<path d="M74.1199 71.1273C74.1199 68.9335 75.3879 67.0406 77.2293 66.1285C76.7189 66.0908 76.2062 66.0645 75.6866 66.0645C69.334 66.0645 63.6578 68.9484 59.8892 73.4768C59.1614 74.35 59.7748 75.6763 60.9112 75.6763H76.474C75.0503 74.6647 74.1199 73.0064 74.1199 71.1273Z" fill="#00C82F"/>
<path d="M43.2567 91.8193C41.7507 89.6827 38.7912 89.2169 36.7061 90.7676C32.1811 94.1321 23.7743 94.9241 17.6403 92.8413C21.6824 95.5981 19.413 102 14.4863 101.512C23.5203 104.673 34.9758 103.451 42.023 98.355C44.0898 96.8604 44.7261 93.9044 43.2567 91.8193Z" fill="#00C82F"/>
<path d="M108.074 91.8194C109.58 89.6828 112.539 89.217 114.624 90.7677C121.177 95.6394 135.879 95.121 140.014 88.2774C141.849 85.2425 141.56 81.2783 140.616 77.5669C140.008 75.1774 141.353 72.7272 143.706 71.988C146.216 71.1995 148.89 72.6551 149.56 75.198C150.931 80.4051 151.635 86.9591 147.942 93.0691C140.787 104.907 119.985 106.075 109.309 98.354C107.241 96.8605 106.604 93.9045 108.074 91.8194Z" fill="#51DA18"/>
<path d="M108.074 91.8193C109.58 89.6827 112.539 89.2169 114.624 90.7676C119.149 94.1321 127.556 94.9241 133.69 92.8413C129.648 95.5981 131.918 102 136.844 101.512C127.81 104.673 116.355 103.451 109.308 98.355C107.241 96.8604 106.604 93.9044 108.074 91.8193Z" fill="#00C82F"/>
</g>
<defs>
<clipPath id="clip0_235_2395">
<rect width="150" height="150" fill="white" transform="translate(0.666016)"/>
</clipPath>
</defs>
</svg>
