<svg width="151" height="150" viewBox="0 0 151 150" fill="none" xmlns="http://www.w3.org/2000/svg">
<g clip-path="url(#clip0_235_2427)">
<path d="M138.15 112.967C143.856 102.671 147.109 90.8272 147.109 78.2227C147.109 38.5815 114.974 6.44531 75.3321 6.44531C35.6909 6.44531 3.55469 38.5815 3.55469 78.2227C3.55469 90.8272 6.8071 102.67 12.5131 112.965L138.15 112.967Z" fill="#EEC707"/>
<path d="M131.237 123.237C126.786 121.438 123.645 117.079 123.645 111.984C123.645 106.474 127.32 101.826 132.352 100.346C125.934 89.0957 120.244 84.6279 120.244 84.6279H119.506C104.999 106.491 113.913 127.123 113.913 127.123C114.218 128.111 114.388 129.212 114.46 130.394C114.46 130.394 113.873 133.018 114.587 138.318C120.897 134.188 126.516 129.091 131.237 123.237Z" fill="#FD7E31"/>
<path d="M128.607 126.314C127.866 123.785 127.03 121.463 126.13 119.338C125.119 118.014 124.372 116.476 123.974 114.801C119.878 107.093 115.168 102.681 112.487 100.599C108.923 115.573 113.911 127.123 113.911 127.123C114.217 128.111 114.387 129.212 114.458 130.394C114.458 130.394 113.872 133.018 114.587 138.318C119.764 134.929 124.474 130.89 128.607 126.314Z" fill="#FC5D1F"/>
<path d="M30.4198 84.6279C30.4198 84.6279 20.7084 92.2508 12.3496 112.672C18.0373 123.048 26.2141 131.862 36.0767 138.318C36.7908 133.018 36.2048 130.394 36.2048 130.394C36.2758 129.212 36.4463 128.111 36.7519 127.123C36.7519 127.123 45.6645 106.491 31.158 84.6279H30.4198Z" fill="#FD7E31"/>
<path d="M36.2041 130.394C36.2751 129.212 36.4456 128.111 36.7511 127.123C36.7511 127.123 41.5634 115.981 38.359 101.397C34.2071 104.9 26.9664 112.758 22.9473 127.28C26.8623 131.457 31.2671 135.17 36.0759 138.318C36.79 133.018 36.2041 130.394 36.2041 130.394Z" fill="#FC5D1F"/>
<path d="M103.314 73.9449C99.009 80.2804 87.1678 87.457 75.3323 87.457C63.5048 87.457 53.3699 83.011 49.0589 76.6824L30.4199 84.628C44.9276 106.491 36.0138 127.123 36.0138 127.123C35.0983 130.082 35.3947 134.036 35.9337 138.224C47.2439 145.666 60.7811 150 75.3323 150C89.8835 150 103.421 145.666 114.731 138.224C115.27 134.036 115.566 130.082 114.651 127.123C114.651 127.123 105.737 106.491 120.245 84.628L103.314 73.9449Z" fill="#FC9949"/>
<path d="M98.6657 139.197H52.3526C44.6278 139.197 38.1173 134.023 36.0825 126.953C36.0379 127.064 36.0127 127.123 36.0127 127.123C35.0972 130.082 35.3924 134.036 35.9326 138.224C47.2428 145.666 60.78 150 75.3312 150C89.8824 150 103.42 145.666 114.73 138.224C115.245 134.221 115.535 130.434 114.761 127.524C112.549 134.3 106.181 139.197 98.6657 139.197Z" fill="#FD7E31"/>
<path d="M72.2266 87.7442V149.929C73.2565 149.973 74.2911 150 75.3313 150C76.7664 150 78.1889 149.953 79.6034 149.87V87.6515C78.2095 87.7808 76.7836 87.8518 75.3313 87.8518C74.2819 87.8518 73.2474 87.8129 72.2266 87.7442Z" fill="#FACE7A"/>
<path d="M79.6034 139.197H72.2266V149.929C74.6928 150.034 76.8969 150.029 79.6034 149.87V139.197Z" fill="#EEC707"/>
<path d="M101.022 68.8237C97.3469 66.853 89.6336 63.7768 76.9718 63.5296C76.4248 63.5205 75.8789 63.5125 75.3319 63.5125C74.7849 63.5125 74.2379 63.5205 73.6897 63.5296C60.8723 63.7802 53.0857 66.9297 49.4408 68.8958C49.3252 68.9633 48.2392 69.6225 47.6406 70.9488C55.4592 76.5015 65.0116 79.7757 75.3319 79.7757C85.6156 79.7757 95.1359 76.5244 102.939 71.0072C102.284 69.6259 101.149 68.9003 101.022 68.8237Z" fill="#FC5D1F"/>
<path d="M75.331 80.5138C85.0161 80.5138 94.7596 77.583 101.564 71.9536C84.3672 67.4412 66.2947 67.4412 49.0977 71.9536C56.3109 77.583 65.6458 80.5138 75.331 80.5138Z" fill="#162680"/>
<path d="M95.054 76.2132C91.987 74.587 88.651 71.7877 88.651 67.2891H75.916V80.4509C82.7344 80.3685 89.2072 78.8636 95.054 76.2132Z" fill="#FE9D9A"/>
<path d="M75.3309 80.4624C75.5266 80.4624 75.72 80.4532 75.9146 80.4509V67.2891H63.1796C63.1796 72.051 59.442 74.9097 56.2422 76.4867C62.0913 79.0376 68.5423 80.4624 75.3309 80.4624Z" fill="#F98F8F"/>
<path d="M102.939 71.006C95.1359 76.5244 85.6167 79.7757 75.3319 79.7757C65.0105 79.7757 55.4604 76.5004 47.6418 70.9465C47.2573 71.7991 47.0753 72.9252 47.4827 74.3477C50.2579 82.2625 61.6688 88.1939 75.3319 88.1939C89.2251 88.1939 100.79 82.061 103.314 73.9449C103.522 72.757 103.306 71.7808 102.939 71.006Z" fill="#FD7E31"/>
<path d="M92.125 76.7383C86.8996 78.6999 81.2428 79.7756 75.3319 79.7756C65.0105 79.7756 55.4604 76.5015 47.6418 70.9476C47.2573 71.7991 47.0753 72.9263 47.4827 74.3488C50.2579 82.2636 61.6688 88.195 75.3319 88.195C82.6035 88.195 89.2354 86.5116 94.2696 83.7456C91.079 83.044 89.8671 79.1164 92.125 76.7383Z" fill="#FC5D1F"/>
<path d="M70.5899 0.313523C55.4665 2.37461 54.0291 10.9485 54.0222 14.0945C54.0211 14.7548 53.656 15.3659 53.0621 15.6543C45.1954 19.4812 49.4366 38.4716 49.4366 38.4716C50.2274 38.5242 51.0536 38.8435 51.6705 39.1422C51.8215 38.2026 52.6146 36.7309 52.9625 35.836C53.228 35.1551 53.5599 34.4661 53.9742 33.8161C54.694 32.6877 55.0213 31.3556 54.924 30.0247C54.6402 26.1772 54.2305 19.1425 59.3094 16.8571C63.6112 14.9208 68.8904 16.0423 72.2561 17.1615C74.4419 17.8882 76.8097 17.8882 78.9955 17.1615C82.3613 16.0423 87.6393 14.9208 91.9411 16.8571C97.0063 19.1356 96.6092 26.1337 96.3299 29.9915C96.2326 31.3328 96.5519 32.6786 97.2763 33.8161C97.7044 34.4867 98.0442 35.1997 98.3132 35.9024C98.6485 36.7756 99.4336 38.2255 99.5812 39.1422C100.358 38.7657 101.469 38.3549 102.419 38.4899C102.536 34.457 102.908 29.5624 102.908 29.5624C107.389 7.61371 86.8725 -1.90434 70.5899 0.313523Z" fill="#B33C37"/>
<path d="M74.72 0.0057373C73.325 0.0274811 71.9425 0.129334 70.5899 0.313583C55.4665 2.37467 54.0291 10.9486 54.0222 14.0946C54.0211 14.7537 53.656 15.366 53.0621 15.6544C45.1954 19.4813 49.4366 38.4705 49.4366 38.4705C50.2274 38.5231 51.0536 38.8436 51.6705 39.1423C51.8215 38.2027 52.6146 36.7299 52.9625 35.8361C53.228 35.1551 53.5599 34.4662 53.9742 33.8162C54.694 32.6878 55.0213 31.3557 54.924 30.0248C54.6414 26.1772 54.2305 19.1414 59.3094 16.8572C62.928 15.2287 67.2367 15.7631 70.5178 16.6397C70.4708 16.5299 70.4262 16.4189 70.3758 16.3101C64.4318 3.36687 74.2314 0.156799 74.72 0.0057373Z" fill="#A33131"/>
<path d="M104.088 38.467C102.882 37.3879 100.479 37.9349 99.4396 38.5952C99.6674 39.9799 99.6811 41.3956 99.4843 42.794L98.2574 51.5122C98.2574 52.216 98.2346 52.9049 98.1934 53.5824C101.183 54.4625 102.668 51.8429 102.919 50.0439C103.026 49.2691 103.202 48.5069 103.446 47.7619C104.243 45.3369 107.112 41.1713 104.088 38.467Z" fill="#FE9D9A"/>
<path d="M101.818 46.7903C100.751 46.7903 99.7852 46.3635 99.0791 45.6722L98.2574 51.5122C98.2574 52.216 98.2346 52.9049 98.1934 53.5824C101.183 54.4625 102.668 51.8429 102.919 50.0439C103.026 49.2691 103.202 48.5069 103.446 47.7619C103.616 47.2458 103.879 46.6507 104.159 46.0087C103.506 46.4974 102.697 46.7903 101.818 46.7903Z" fill="#F98F8F"/>
<path d="M47.1642 38.467C48.3715 37.3879 50.7748 37.9349 51.8139 38.5952C51.5862 39.9799 51.5736 41.3956 51.7704 42.794L52.9972 51.5122C52.9972 52.216 53.0201 52.9049 53.0613 53.5824C50.071 54.4625 48.5855 51.8429 48.3349 50.0439C48.2273 49.2691 48.0511 48.5069 47.8073 47.7619C47.0108 45.3369 44.1418 41.1713 47.1642 38.467Z" fill="#FE9D9A"/>
<path d="M52.1794 45.7031C51.4756 46.3749 50.5246 46.7903 49.4752 46.7903C48.5688 46.7903 47.738 46.4802 47.0742 45.9652C47.3615 46.6244 47.6327 47.2343 47.8066 47.7619C48.0504 48.5069 48.2266 49.2703 48.3342 50.0439C48.5848 51.8429 50.0703 54.4636 53.0606 53.5824C53.0194 52.9049 52.9965 52.216 52.9965 51.5133L52.1794 45.7031Z" fill="#F98F8F"/>
<path d="M98.8606 35.9024C98.5917 35.1998 98.2518 34.4868 97.8238 33.8162C97.0994 32.6786 96.7801 31.3328 96.8774 29.9916C97.1566 26.1338 97.0067 18.5887 91.9427 16.3101C87.6397 14.3749 82.3617 15.4953 78.996 16.6146C76.8101 17.3413 74.4412 17.3413 72.2554 16.6146C68.8897 15.4953 63.6117 14.3749 59.3098 16.3101C54.2309 18.5955 54.0948 26.1772 54.3774 30.0248C54.4747 31.3557 54.1474 32.6878 53.4276 33.8162C53.0133 34.4662 52.6814 35.1551 52.417 35.8361C51.5565 38.0471 51.3047 40.4446 51.6274 42.7918L52.8256 51.5122C52.8256 64.0504 59.5181 72.5716 65.2104 76.9925C68.1824 79.2996 71.8491 80.5539 75.6257 80.5539C79.4022 80.5539 83.0701 79.2996 86.041 76.9925C91.7344 72.5716 98.4269 64.0504 98.4269 51.5122L99.624 42.7929C99.9432 40.4686 99.7018 38.0951 98.8606 35.9024Z" fill="#FFBAAE"/>
<path d="M74.6633 76.9925C70.5285 72.5717 65.6659 64.0504 65.6659 51.5122L64.7962 42.7918C64.5627 40.4446 64.7447 38.0471 65.3695 35.8361C65.5618 35.1552 65.8032 34.4662 66.1042 33.8162C66.6272 32.6878 66.8652 31.3557 66.7943 30.0248C66.5883 26.1773 66.6879 18.5956 70.3763 16.3102C70.4759 16.2495 70.5743 16.1912 70.675 16.1362C67.3757 15.2344 62.9868 14.6565 59.3099 16.3102C54.231 18.5956 54.0948 26.1773 54.3774 30.0248C54.4747 31.3557 54.1474 32.6878 53.4276 33.8162C53.0133 34.4662 52.6814 35.1552 52.4159 35.8361C51.5565 38.0471 51.3047 40.4446 51.6274 42.7918L52.8245 51.5122C52.8245 64.0504 59.517 72.5717 65.2104 76.9925C68.1825 79.2997 71.8492 80.5539 75.6257 80.5539C76.9223 80.5539 78.2041 80.4029 79.4503 80.1156C77.7177 79.5663 76.0812 78.5089 74.6633 76.9925Z" fill="#FE9D9A"/>
<path d="M132.334 100.317C127.196 101.784 123.432 106.51 123.432 112.12C123.432 117.248 126.578 121.639 131.043 123.475C133.777 120.113 136.215 116.5 138.312 112.673C136.346 107.87 134.306 103.772 132.334 100.317Z" fill="#E0F9FE"/>
<path d="M130.861 112.587C128.536 109.3 128.055 105.265 129.207 101.708C125.739 103.877 123.432 107.728 123.432 112.12C123.432 117.248 126.578 121.639 131.043 123.476C132.793 121.323 134.419 119.068 135.915 116.721C133.952 115.855 132.191 114.466 130.861 112.587Z" fill="#B9E9FD"/>
<path d="M95.6504 136.906H55.2653C52.8311 136.906 50.8398 134.915 50.8398 132.48V103.527C50.8398 101.093 52.8311 99.1002 55.2653 99.1002H95.6504C98.0845 99.1002 100.076 101.093 100.076 103.527V132.48C100.076 134.915 98.0845 136.906 95.6504 136.906Z" fill="#1D319B"/>
<path d="M66.5549 132.48V103.527C66.5549 101.093 68.5462 99.1013 70.9803 99.1013H55.2664C52.8311 99.1013 50.8398 101.093 50.8398 103.527V132.48C50.8398 134.914 52.8311 136.906 55.2664 136.906H70.9803C68.5462 136.906 66.5549 134.914 66.5549 132.48Z" fill="#162680"/>
<path d="M95.6507 139.478H55.2668C51.4067 139.478 48.2676 136.339 48.2676 132.48V103.527C48.2676 99.6678 51.4067 96.5276 55.2668 96.5276H95.6507C99.5108 96.5276 102.65 99.6678 102.65 103.527V132.48C102.65 136.339 99.5097 139.478 95.6507 139.478ZM55.2668 101.673C54.2448 101.673 53.4128 102.505 53.4128 103.527V132.48C53.4128 133.502 54.2448 134.333 55.2668 134.333H95.6507C96.6727 134.333 97.5047 133.502 97.5047 132.48V103.527C97.5047 102.505 96.6727 101.673 95.6507 101.673H55.2668Z" fill="#83D3FC"/>
<path d="M99.575 145.797V139.357C99.575 137.936 98.4237 136.784 97.0023 136.784C95.581 136.784 94.4297 137.936 94.4297 139.357V147.426C96.1726 146.946 97.8881 146.402 99.575 145.797Z" fill="#B9E9FD"/>
<path d="M89.8933 148.52V139.357C89.8933 137.936 88.742 136.784 87.3207 136.784C85.8993 136.784 84.748 137.936 84.748 139.357V149.387C86.4841 149.159 88.1996 148.869 89.8933 148.52Z" fill="#B9E9FD"/>
<path d="M97.0023 143.887C95.581 143.887 94.4297 142.735 94.4297 141.314V147.425C96.1726 146.946 97.8881 146.402 99.575 145.797V141.314C99.575 142.735 98.4237 143.887 97.0023 143.887Z" fill="#83D3FC"/>
<path d="M87.3207 143.887C85.8993 143.887 84.748 142.735 84.748 141.314V149.387C86.4841 149.159 88.1996 148.869 89.8933 148.52V141.315C89.8933 142.735 88.742 143.887 87.3207 143.887Z" fill="#83D3FC"/>
<path d="M91.4941 118.003C91.4941 122.629 87.7438 126.379 83.1181 126.379C78.4924 126.379 74.7422 122.629 74.7422 118.003C74.7422 113.377 78.4924 109.628 83.1181 109.628C87.7438 109.628 91.4941 113.377 91.4941 118.003Z" fill="#4374D3"/>
<path d="M85.9688 120.679C82.9167 120.679 80.4425 118.205 80.4425 115.153C80.4425 112.538 82.2621 110.352 84.702 109.779C79.5041 108.783 74.7422 112.771 74.7422 118.003C74.7422 122.629 78.4924 126.379 83.1181 126.379C88.3481 126.379 92.3386 121.62 91.343 116.42C90.7696 118.86 88.5838 120.679 85.9688 120.679Z" fill="#3957C9"/>
<path d="M63.1251 115.799C61.2677 115.799 59.6953 114.288 59.6953 112.365C59.6953 110.163 61.7244 108.587 63.7946 109.004C65.4219 109.336 66.556 110.743 66.556 112.365C66.556 114.282 64.9905 115.799 63.1251 115.799Z" fill="#FACE7A"/>
<path d="M63.1251 127.072C61.2757 127.072 59.6953 125.57 59.6953 123.637C59.6953 121.449 61.7141 119.856 63.7946 120.276C65.4162 120.605 66.556 122.012 66.556 123.637C66.556 125.537 65.0054 127.072 63.1251 127.072Z" fill="#F948B4"/>
<path d="M65.1694 136.906C65.1694 135.712 65.9441 134.698 67.0153 134.333H55.2668C54.2448 134.333 53.4128 133.502 53.4128 132.48V103.527C53.4128 102.505 54.2448 101.673 55.2668 101.673H67.0164C65.9441 101.309 65.1705 100.294 65.1705 99.1002C65.1705 97.9066 65.9441 96.8927 67.0164 96.5276H55.2668C51.4067 96.5276 48.2676 99.6678 48.2676 103.527V132.48C48.2676 136.339 51.4067 139.478 55.2668 139.478H67.0153C65.9441 139.113 65.1694 138.099 65.1694 136.906Z" fill="#61B6FF"/>
</g>
<defs>
<clipPath id="clip0_235_2427">
<rect width="150" height="150" fill="white" transform="translate(0.332031)"/>
</clipPath>
</defs>
</svg>
