<svg width="161" height="286" viewBox="0 0 161 286" fill="none" xmlns="http://www.w3.org/2000/svg">
<g clip-path="url(#clip0_235_2063)">
<path d="M105.636 198.796C105.636 198.796 100.624 215.795 107.846 246.637C123.136 254.038 140.036 257.541 156.945 256.881C153.369 250.088 150.499 247.507 150.499 247.507C149.598 246.065 148.881 244.636 148.416 243.226C148.416 243.226 141.665 211.676 106.5 198.181L105.636 198.796Z" fill="#FD7E31"/>
<path d="M150.498 247.507C149.597 246.065 148.88 244.636 148.415 243.226C148.415 243.226 144.769 226.189 128.881 211.799C126.941 219.352 125.013 234.569 132.401 254.9C140.457 256.527 148.699 257.202 156.944 256.881C153.368 250.088 150.498 247.507 150.498 247.507Z" fill="#FC5D1F"/>
<path d="M181.997 125.623C182.236 136.616 174.361 154.867 160.518 164.719C146.685 174.564 131.131 177.801 120.821 173.987L105.635 198.796C140.802 212.29 147.551 243.841 147.551 243.841C148.943 248.063 152.581 252.441 156.698 256.891C176.121 256.18 195.562 249.98 212.58 237.867C229.599 225.755 241.824 209.417 248.857 191.298C246.001 185.951 243.056 181.08 239.523 178.382C239.523 178.382 211.923 161.671 210.691 124.024L181.997 125.623Z" fill="#FC9949"/>
<path d="M230.879 205.808L176.712 244.36C167.678 250.79 155.756 250.159 147.491 243.583C147.531 243.75 147.551 243.841 147.551 243.841C148.943 248.063 152.58 252.442 156.698 256.891C176.121 256.18 195.562 249.98 212.58 237.867C229.599 225.755 241.824 209.417 248.857 191.298C246.127 186.188 243.315 181.517 239.986 178.758C243.04 188.525 239.669 199.552 230.879 205.808Z" fill="#FD7E31"/>
<path d="M157.126 167.639L208.89 240.369C210.131 239.562 211.364 238.733 212.58 237.867C214.259 236.673 215.883 235.434 217.468 234.158L165.677 161.39C164.154 162.701 162.545 163.971 160.847 165.18C159.619 166.054 158.377 166.869 157.126 167.639Z" fill="#FACE7A"/>
<path d="M175.053 121.541C169.115 122.295 157.533 125.118 142.518 135.369C141.871 135.814 141.226 136.259 140.586 136.714C139.946 137.169 139.313 137.634 138.68 138.101C123.898 149.064 117.412 159.229 114.786 164.562C114.707 164.738 113.985 166.413 114.389 168.462C128.156 168.448 142.054 164.326 154.124 155.735C166.151 147.175 174.58 135.447 179.113 122.499C177.197 121.429 175.266 121.525 175.053 121.541Z" fill="#FC5D1F"/>
<path d="M154.74 156.598C166.067 148.536 175.023 136.997 178.296 124.749C154.426 133.787 133.289 148.831 116.932 168.423C130.055 169.003 143.412 164.66 154.74 156.598Z" fill="#162680"/>
<path d="M174.226 135.151C169.285 135.802 163.053 135.305 159.309 130.044L144.414 140.645L155.37 156.039C163.276 150.266 169.594 143.118 174.226 135.151Z" fill="#FE9D9A"/>
<path d="M154.696 156.538C154.925 156.375 155.143 156.203 155.369 156.039L144.413 140.645L129.518 151.246C133.482 156.815 131.49 163.27 129.061 167.778C138.025 165.893 146.756 162.189 154.696 156.538Z" fill="#F98F8F"/>
<path d="M179.113 122.498C174.58 135.447 166.154 147.173 154.125 155.735C142.053 164.326 128.157 168.445 114.39 168.458C114.65 169.775 115.374 171.244 117.035 172.569C126.869 179.515 145.152 176.954 161.132 165.581C177.381 154.016 185.803 137.216 181.998 125.623C181.253 124.06 180.187 123.098 179.113 122.498Z" fill="#FD7E31"/>
<path d="M171.236 138.204C166.758 144.848 161.037 150.815 154.124 155.735C142.052 164.327 128.157 168.447 114.39 168.46C114.649 169.776 115.374 171.245 117.035 172.57C126.869 179.517 145.152 176.955 161.132 165.582C169.637 159.529 175.992 152.04 179.577 144.614C175.262 146.449 170.575 142.865 171.236 138.204Z" fill="#FC5D1F"/>
<path d="M82.4344 66.745C66.4622 81.7446 71.9181 92.9689 74.5289 96.6541C75.0772 97.4273 75.1589 98.446 74.7043 99.2777C68.6893 110.302 89.4576 128.982 89.4576 128.982C90.4263 128.385 91.6584 128.071 92.6285 127.907C92.0231 126.682 91.7255 124.301 91.3875 122.964C91.1312 121.947 90.9459 120.865 90.8893 119.76C90.7919 117.841 90.0659 116.011 88.8442 114.535C85.3095 110.271 78.9745 102.385 83.0123 95.484C86.4317 89.6384 93.5397 86.5556 98.4078 85.063C101.569 84.0934 104.338 82.1224 106.29 79.4529C109.295 75.3422 114.534 69.637 121.177 68.3208C128.998 66.7693 134.359 75.2847 137.244 80.0291C138.246 81.6787 139.74 82.987 141.534 83.7144C142.593 84.1425 143.584 84.6934 144.484 85.2914C145.603 86.0335 147.728 87.0758 148.664 88.0251C149.259 86.9379 150.217 85.5324 151.44 84.8996C148.219 80.0857 144.58 74.0514 144.58 74.0514C131.551 44.6504 99.6319 50.5971 82.4344 66.745Z" fill="#B33C37"/>
<path d="M87.0076 62.9469C85.3941 64.1336 83.8621 65.4034 82.4334 66.7449C66.4612 81.7445 71.9171 92.9688 74.5279 96.654C75.0752 97.4259 75.1579 98.4459 74.7033 99.2776C68.6883 110.302 89.4556 128.981 89.4556 128.981C90.4243 128.384 91.6574 128.071 92.6275 127.907C92.022 126.682 91.7236 124.299 91.3865 122.964C91.1302 121.947 90.9448 120.865 90.8883 119.76C90.7909 117.841 90.0648 116.01 88.8432 114.535C85.3098 110.27 78.9726 102.383 83.0112 95.4839C85.8879 90.5671 91.3721 87.6055 95.9392 85.8996C95.7929 85.8101 95.6483 85.7175 95.4989 85.6322C77.7727 75.4421 86.5619 63.5303 87.0076 62.9469Z" fill="#A33131"/>
<path d="M153.37 83.4846C151.061 83.2264 148.706 85.8668 148.04 87.504C149.459 88.934 150.654 90.5783 151.588 92.3777L157.41 103.595C157.996 104.419 158.542 105.243 159.058 106.07C163.287 104.611 162.844 100.311 161.639 97.9981C161.12 97.0024 160.692 95.9643 160.357 94.89C159.27 91.3908 159.158 84.1305 153.37 83.4846Z" fill="#FE9D9A"/>
<path d="M157.644 95.1093C156.397 95.9972 154.912 96.3019 153.511 96.0813L157.411 103.595C157.997 104.419 158.543 105.243 159.059 106.07C163.288 104.611 162.845 100.311 161.64 97.9982C161.121 97.0025 160.693 95.9643 160.358 94.8901C160.126 94.1455 159.939 93.2303 159.732 92.2461C159.375 93.3615 158.672 94.3777 157.644 95.1093Z" fill="#F98F8F"/>
<path d="M86.7954 130.868C87.3091 128.601 90.5753 127.24 92.3403 127.148C93.2266 128.957 94.3903 130.623 95.7846 132.095L104.477 141.27C105.062 142.093 105.663 142.88 106.275 143.638C103.51 147.156 99.5921 145.329 97.8014 143.434C97.0307 142.617 96.1901 141.872 95.2848 141.204C92.3346 139.031 85.5115 136.547 86.7954 130.868Z" fill="#FE9D9A"/>
<path d="M98.6838 135.156C98.4198 136.528 97.6534 137.805 96.426 138.679C95.3659 139.433 94.136 139.762 92.931 139.713C93.8157 140.244 94.6407 140.732 95.2833 141.204C96.1885 141.873 97.0301 142.619 97.7999 143.434C99.5905 145.329 103.509 147.158 106.273 143.638C105.661 142.88 105.061 142.093 104.476 141.272L98.6838 135.156Z" fill="#F98F8F"/>
<path d="M145.122 84.836C144.223 84.238 143.232 83.6871 142.173 83.259C140.379 82.5316 138.885 81.2233 137.882 79.5737C134.997 74.8292 128.541 66.1295 120.722 67.68C114.079 68.9985 108.838 74.7024 105.833 78.8131C103.882 81.4825 101.111 83.4545 97.9497 84.4241C93.0816 85.9167 85.976 88.9999 82.5556 94.8442C78.5178 101.745 84.6697 110.726 88.2031 114.99C89.4247 116.466 90.1508 118.296 90.2482 120.215C90.3047 121.32 90.4901 122.402 90.7477 123.419C91.5816 126.721 93.2829 129.735 95.6142 132.211L104.275 141.413C114.712 156.077 129.632 160.473 139.97 160.905C145.366 161.129 150.699 159.544 155.116 156.4C159.533 153.257 162.778 148.736 164.333 143.565C167.312 133.655 168.046 118.118 157.609 103.454L151.751 92.2595C150.189 89.2753 147.931 86.7003 145.122 84.836Z" fill="#FFBAAE"/>
<path d="M151.025 153.036C142.51 151.307 129.729 145.389 119.292 130.725L111.016 121.249C108.789 118.699 107.006 115.743 105.896 112.637C105.554 111.681 105.263 110.674 105.074 109.663C104.747 107.908 103.916 106.152 102.725 104.654C99.2817 100.326 93.0869 91.3755 95.4984 85.6322C95.5644 85.4784 95.6309 85.3282 95.703 85.1802C91.0935 86.8719 85.4794 89.8493 82.5554 94.8441C78.5177 101.745 84.6696 110.726 88.2029 114.99C89.4246 116.466 90.1506 118.296 90.248 120.215C90.3046 121.32 90.4899 122.402 90.7462 123.42C91.5815 126.721 93.2828 129.735 95.6141 132.211L104.273 141.414C114.71 156.078 129.631 160.474 139.97 160.905C145.366 161.129 150.699 159.544 155.116 156.4C156.632 155.321 158.005 154.077 159.224 152.704C156.74 153.504 153.946 153.629 151.025 153.036Z" fill="#FE9D9A"/>
<path d="M225.446 205.639L178.212 239.256C175.365 241.282 171.379 240.611 169.353 237.764L145.251 203.901C143.225 201.054 143.895 197.066 146.742 195.04L193.976 161.423C196.822 159.396 200.81 160.069 202.836 162.916L226.938 196.779C228.964 199.626 228.293 203.613 225.446 205.639Z" fill="#1D319B"/>
<path d="M187.732 224.683L163.63 190.819C161.604 187.972 162.275 183.986 165.122 181.96L146.744 195.04C143.895 197.067 143.224 201.054 145.25 203.901L169.352 237.764C171.378 240.611 175.364 241.282 178.213 239.255L196.591 226.175C193.744 228.201 189.758 227.529 187.732 224.683Z" fill="#162680"/>
<path d="M227.587 208.648L180.355 242.264C175.841 245.477 169.556 244.419 166.344 239.906L142.242 206.042C139.03 201.529 140.087 195.243 144.602 192.03L191.834 158.414C196.349 155.2 202.634 156.26 205.846 160.773L229.948 194.637C233.16 199.15 232.1 205.435 227.587 208.648ZM148.885 198.048C147.69 198.898 147.409 200.564 148.26 201.759L172.362 235.623C173.212 236.818 174.877 237.097 176.072 236.246L223.304 202.63C224.499 201.779 224.781 200.115 223.93 198.92L199.829 165.056C198.978 163.861 197.312 163.581 196.117 164.431L148.885 198.048Z" fill="#83D3FC"/>
<path d="M169.833 208.029C167.661 209.575 164.563 209.116 162.963 206.867C161.13 204.292 162.191 200.76 164.96 199.524C167.139 198.557 169.637 199.26 170.987 201.156C172.583 203.398 172.015 206.476 169.833 208.029Z" fill="#FACE7A"/>
<path d="M189.795 231.012C188.802 229.616 188.864 227.785 189.813 226.467L176.072 236.246C174.877 237.097 173.212 236.818 172.362 235.623L148.26 201.759C147.409 200.564 147.69 198.898 148.885 198.048L162.627 188.267C161.07 188.734 159.32 188.191 158.327 186.795C157.333 185.399 157.394 183.569 158.344 182.249L144.602 192.03C140.087 195.243 139.03 201.529 142.242 206.042L166.344 239.906C169.556 244.419 175.841 245.477 180.355 242.264L194.096 232.484C192.539 232.949 190.789 232.408 189.795 231.012Z" fill="#61B6FF"/>
</g>
<defs>
<clipPath id="clip0_235_2063">
<rect width="215.333" height="215.333" fill="white" transform="translate(0 124.863) rotate(-35.4405)"/>
</clipPath>
</defs>
</svg>
