<svg width="150" height="150" viewBox="0 0 150 150" fill="none" xmlns="http://www.w3.org/2000/svg">
<g clip-path="url(#clip0_235_2307)">
<path d="M89.6572 16.5596C89.5004 16.848 89.2452 17.0917 88.8904 17.2279C84.5783 18.8827 79.8954 19.7902 75.0007 19.7902C70.1072 19.7902 65.4243 18.8827 61.1122 17.2279C60.7563 17.0917 60.5022 16.848 60.3454 16.5596C49.5513 21.9463 42.1367 33.0963 42.1367 45.98V50.2601C42.6952 50.0232 43.3097 49.8928 43.954 49.8928H106.047C106.693 49.8928 107.307 50.0232 107.866 50.2601V45.98C107.865 33.0963 100.45 21.9463 89.6572 16.5596Z" fill="#B9E9FD"/>
<path d="M67.3343 49.2016C67.3343 27.1797 75.0007 20.4803 75.0007 20.4803C74.7627 20.2423 74.5727 20.01 74.4205 19.7834C69.7364 19.7136 65.2526 18.8175 61.1122 17.2279C60.7563 17.0917 60.5022 16.848 60.3454 16.5596C49.5513 21.9463 42.1367 33.0963 42.1367 45.98V50.2601C42.6952 50.0232 43.3097 49.8928 43.954 49.8928H67.3275C67.3297 49.6639 67.3343 49.435 67.3343 49.2016Z" fill="#83D3FC"/>
<path d="M89.0016 15.2046C84.7547 13.2007 80.0089 12.0803 75.0009 12.0803C69.993 12.0803 65.2483 13.2018 61.0002 15.2046C59.8261 15.7585 59.9005 17.4533 61.1124 17.918C65.4245 19.5728 70.1074 20.4803 75.0009 20.4803C79.8956 20.4803 84.5785 19.5739 88.8906 17.918C90.1026 17.4533 90.1758 15.7585 89.0016 15.2046Z" fill="#D0F6FA"/>
<path d="M75.0009 16.1098V12.0792C69.993 12.0792 65.2483 13.2007 61.0002 15.2046C59.8261 15.7585 59.9005 17.4534 61.1124 17.918C65.4245 19.5728 70.1063 20.4803 75.0009 20.4803C72.5565 18.0347 75.0009 16.1098 75.0009 16.1098Z" fill="#B9E9FD"/>
<path d="M67.3265 39.3208C65.896 39.3208 64.7367 38.1615 64.7367 36.7299C64.7367 35.5912 63.8097 34.6654 62.671 34.6654C61.5323 34.6654 60.6054 35.5912 60.6054 36.7299C60.6054 38.1615 59.4461 39.3208 58.0156 39.3208C56.5851 39.3208 55.4258 38.1615 55.4258 36.7299C55.4258 32.7359 58.6759 29.4846 62.671 29.4846C66.6662 29.4846 69.9163 32.7359 69.9163 36.7299C69.9163 38.1615 68.757 39.3208 67.3265 39.3208Z" fill="#1D319B"/>
<path d="M91.9858 39.3208C90.5553 39.3208 89.3949 38.1615 89.3949 36.7299C89.3949 35.5912 88.4691 34.6654 87.3304 34.6654C86.1917 34.6654 85.2647 35.5912 85.2647 36.7299C85.2647 38.1615 84.1054 39.3208 82.6749 39.3208C81.2444 39.3208 80.084 38.1615 80.084 36.7299C80.084 32.7359 83.3341 29.4846 87.3304 29.4846C91.3255 29.4846 94.5756 32.7359 94.5756 36.7299C94.5756 38.1615 93.4152 39.3208 91.9858 39.3208Z" fill="#1D319B"/>
<path d="M106.12 58.5262H43.8811C41.3062 58.5262 39.2188 56.4388 39.2188 53.8639C39.2188 51.2889 41.3062 49.2015 43.8811 49.2015H106.12C108.695 49.2015 110.781 51.2889 110.781 53.8639C110.781 56.4388 108.695 58.5262 106.12 58.5262Z" fill="#83D3FC"/>
<path d="M62.6711 53.8639C62.6711 51.2889 64.7574 49.2015 67.3323 49.2015H43.8811C41.3062 49.2015 39.2188 51.2889 39.2188 53.8639C39.2188 56.4388 41.3062 58.5262 43.8811 58.5262H67.3323C64.7585 58.5262 62.6711 56.4388 62.6711 53.8639Z" fill="#61B6FF"/>
<path d="M138.363 83.3862C132.108 74.0707 124.949 69.5228 123.447 68.6348C123.491 68.9701 123.515 69.31 123.515 69.6567V85.0902C123.515 86.293 123.249 87.434 122.775 88.4582C127.172 93.6287 131.994 102.105 132.39 114.625C132.441 116.24 133.156 117.689 134.276 118.706C138.966 111.853 142.498 104.146 144.591 95.866C142.827 90.8386 140.578 86.6844 138.363 83.3862Z" fill="#FACE7A"/>
<path d="M123.515 77.1217V85.0902C123.515 86.293 123.248 87.434 122.775 88.4582C127.172 93.6287 131.994 102.106 132.39 114.625C132.44 116.24 133.156 117.69 134.276 118.706C136.652 115.234 138.73 111.542 140.475 107.667C137.197 90.3774 126.437 79.7413 123.515 77.1217Z" fill="#FC9949"/>
<path d="M140.09 86.1351L127.234 94.9425C129.054 98.2613 130.634 102.274 131.556 107.042L141.529 105.203C142.753 102.189 143.779 99.0738 144.588 95.8718C143.284 92.1501 141.716 88.9046 140.09 86.1351Z" fill="#FC9949"/>
<path d="M140.012 105.482C138.635 99.5647 136.402 94.487 133.993 90.311L127.234 94.9425C129.054 98.2612 130.633 102.274 131.556 107.042L140.012 105.482Z" fill="#FD7E31"/>
<path d="M26.4867 85.0902V69.6567C26.4867 69.31 26.5108 68.9701 26.5531 68.6348C25.0528 69.524 17.8934 74.0707 11.638 83.3862C9.42245 86.6844 7.17369 90.8386 5.41016 95.866C7.50328 104.147 11.0349 111.853 15.7247 118.707C16.8439 117.69 17.5603 116.24 17.6118 114.625C18.0067 102.106 22.8292 93.6298 27.226 88.4594C26.7522 87.434 26.4867 86.293 26.4867 85.0902Z" fill="#FACE7A"/>
<path d="M26.4864 77.0107C26.4864 77.0107 13.6038 86.6718 9.80664 108.278C11.4924 111.93 13.4733 115.417 15.7244 118.707C16.8436 117.69 17.56 116.24 17.6104 114.625C18.0063 102.106 22.8289 93.6299 27.2245 88.4594C26.7519 87.434 26.4864 86.293 26.4864 85.0903V76.4706V77.0107Z" fill="#FC9949"/>
<path d="M5.41211 95.8718C6.22121 99.0738 7.24774 102.189 8.47226 105.203L18.4458 107.042C19.367 102.274 20.9463 98.2613 22.7671 94.9425L9.91193 86.1351C8.28572 88.9046 6.71674 92.1501 5.41211 95.8718Z" fill="#FC9949"/>
<path d="M15.9732 90.287C13.7645 94.3691 11.6989 99.4365 10.3496 105.549L18.4463 107.042C18.7015 106.123 19.466 100.967 22.7676 94.9424L15.9732 90.287Z" fill="#FD7E31"/>
<path d="M116.155 61.6069H112.24C113.405 63.0043 114.108 64.8021 114.108 66.7602V93.14H116.154C120.6 93.14 124.204 89.5362 124.204 85.0902V69.6567C124.204 65.2107 120.6 61.6069 116.155 61.6069Z" fill="#C78FE8"/>
<path d="M33.8466 61.6069H37.7617C36.5955 63.0043 35.894 64.8021 35.894 66.7602V93.14H33.8466C29.4006 93.14 25.7969 89.5362 25.7969 85.0902V69.6567C25.7969 65.2107 29.4006 61.6069 33.8466 61.6069Z" fill="#C78FE8"/>
<path d="M116.154 81.5002H114.107V93.14H116.154C120.6 93.14 124.203 89.5351 124.203 85.0902V76.3469C124.203 79.1931 120.6 81.5002 116.154 81.5002Z" fill="#B26CDE"/>
<path d="M25.7969 76.3469V85.0902C25.7969 89.5362 29.4006 93.14 33.8466 93.14H35.894V81.5013H33.8466C29.4006 81.5002 25.7969 79.1931 25.7969 76.3469Z" fill="#B26CDE"/>
<path d="M92.7357 122.706H57.2636C49.1417 122.706 42.0589 118.279 38.2812 111.71V139.904C39.2414 140.477 40.2153 141.029 41.2041 141.558H108.795C109.784 141.029 110.759 140.477 111.719 139.904V111.711C107.94 118.279 100.858 122.706 92.7357 122.706Z" fill="#83D3FC"/>
<path d="M63.8634 137.728C63.8634 137.728 63.8634 130.247 63.8634 126.633C63.8634 123.021 66.8629 123.396 66.8629 123.396L66.2312 122.706H57.2636C49.1417 122.706 42.0589 118.279 38.2812 111.71V139.904C39.2414 140.477 40.2153 141.029 41.2041 141.558H66.4783C66.7061 141.333 66.8629 141.212 66.8629 141.212C63.4171 141.212 63.8634 137.728 63.8634 137.728Z" fill="#61B6FF"/>
<path d="M106.047 58.1807H43.9535C39.2156 58.1807 35.375 62.0213 35.375 66.7592V101.507C35.375 113.595 45.1746 123.396 57.2641 123.396H92.7374C104.826 123.396 114.626 113.596 114.626 101.507V66.7603C114.626 62.0213 110.785 58.1807 106.047 58.1807Z" fill="#B26CDE"/>
<path d="M65.5714 58.1807H43.9535C39.2156 58.1807 35.375 62.0213 35.375 66.7592V101.507C35.375 113.595 45.1746 123.396 57.2641 123.396H66.8634C62.367 123.396 62.9232 118.587 62.9232 118.587C62.9232 118.587 62.9232 110.75 62.9232 105.477C62.9232 100.203 66.0612 99.63 66.0612 99.63C64.0585 99.63 64.2725 97.3469 64.2725 97.3469C64.2725 97.3469 64.2725 73.5432 64.2725 71.3459C64.2725 69.1487 65.5714 68.6348 65.5714 68.6348C59.6124 62.677 65.5714 58.1807 65.5714 58.1807Z" fill="#9D4AD3"/>
<path d="M100.981 99.6299H49.0181C47.4194 99.6299 46.1113 98.3219 46.1113 96.7231V71.5416C46.1113 69.9428 47.4194 68.6348 49.0181 68.6348H100.981C102.58 68.6348 103.888 69.9428 103.888 71.5416V96.7231C103.888 98.3219 102.58 99.6299 100.981 99.6299Z" fill="#1D319B"/>
<path d="M46.1113 71.5416V96.7231C46.1113 98.3219 47.4194 99.6311 49.0181 99.6311H66.0607C64.058 99.6311 64.272 97.348 64.272 97.348C64.272 97.348 64.272 73.5443 64.272 71.347C64.272 69.1497 65.5709 68.6348 65.5709 68.6348H49.0181C47.4194 68.6348 46.1113 69.9428 46.1113 71.5416Z" fill="#162680"/>
<path d="M94.1961 81.1203H55.8046C54.3741 81.1203 53.2148 79.961 53.2148 78.5305C53.2148 77.0989 54.3741 75.9396 55.8046 75.9396H94.1961C95.6255 75.9396 96.7859 77.0989 96.7859 78.5305C96.7859 79.961 95.6266 81.1203 94.1961 81.1203Z" fill="#5294E5"/>
<path d="M62.3701 78.5305C62.3701 77.1 63.5294 75.9407 64.9599 75.9407H55.8046C54.3741 75.9407 53.2148 77.1 53.2148 78.5305C53.2148 79.961 54.3741 81.1203 55.8046 81.1203H64.9599C63.5294 81.1203 62.3701 79.961 62.3701 78.5305Z" fill="#4374D3"/>
<path d="M85.7285 84.2983C84.298 84.2983 83.1387 83.1379 83.1387 81.7074V76.1124C83.1387 74.6819 84.298 73.5226 85.7285 73.5226C87.159 73.5226 88.3183 74.6819 88.3183 76.1124V81.7074C88.3183 83.1391 87.159 84.2983 85.7285 84.2983Z" fill="#83D3FC"/>
<path d="M94.1961 91.5642H55.8046C54.3741 91.5642 53.2148 90.4061 53.2148 88.9744C53.2148 87.5439 54.3741 86.3846 55.8046 86.3846H94.1961C95.6255 86.3846 96.7859 87.5439 96.7859 88.9744C96.7859 90.405 95.6266 91.5642 94.1961 91.5642Z" fill="#F6159C"/>
<path d="M64.2745 94.7434C62.844 94.7434 61.6836 93.583 61.6836 92.1525V86.5574C61.6836 85.1269 62.844 83.9677 64.2745 83.9677C65.705 83.9677 66.8643 85.1269 66.8643 86.5574V92.1525C66.8643 93.583 65.7039 94.7434 64.2745 94.7434Z" fill="#FFADE5"/>
<path d="M85.7285 79.0753C84.298 79.0753 83.1387 77.916 83.1387 76.4855V81.7086C83.1387 83.1391 84.298 84.2984 85.7285 84.2984C87.159 84.2984 88.3183 83.1391 88.3183 81.7086V76.4855C88.3183 77.916 87.159 79.0753 85.7285 79.0753Z" fill="#61B6FF"/>
<path d="M64.2745 89.5202C62.844 89.5202 61.6836 88.3609 61.6836 86.9304V92.1524C61.6836 93.5829 62.844 94.7433 64.2745 94.7433C65.7039 94.7433 66.8643 93.5829 66.8643 92.1524V86.9304C66.8643 88.3609 65.7039 89.5202 64.2745 89.5202Z" fill="#F948B4"/>
<path d="M40.5645 141.212C50.7875 146.813 62.5222 150 75.0009 150C87.4807 150 99.2143 146.813 109.438 141.212H40.5645Z" fill="#B9E9FD"/>
<path d="M66.3835 149.485C62.2453 144.776 66.8641 141.212 66.8641 141.212H40.5645C48.3979 145.504 57.1195 148.376 66.3835 149.485Z" fill="#83D3FC"/>
<path d="M75 16.1098C73.5694 16.1098 72.4102 14.9494 72.4102 13.5189V6.9637C72.4102 5.53319 73.5694 4.3739 75 4.3739C76.4305 4.3739 77.5909 5.53319 77.5909 6.9637V13.52C77.5909 14.9494 76.4305 16.1098 75 16.1098Z" fill="#83D3FC"/>
<path d="M74.9996 9.72633C73.093 9.72633 71.5469 8.18024 71.5469 6.27251V3.45383C71.5469 1.5461 73.093 0 74.9996 0C76.9073 0 78.4534 1.5461 78.4534 3.45383V6.27251C78.4534 8.18024 76.9073 9.72633 74.9996 9.72633Z" fill="#FC7ACD"/>
<path d="M74.9996 5.36838C73.3573 5.36838 71.9852 4.22054 71.635 2.68359C71.5789 2.93193 71.5469 3.18828 71.5469 3.45378V6.27246C71.5469 8.18019 73.0918 9.72629 74.9996 9.72629C76.9073 9.72629 78.4534 8.18019 78.4534 6.27246V3.45378C78.4534 3.18828 78.4213 2.93193 78.3641 2.68359C78.0139 4.22054 76.6418 5.36838 74.9996 5.36838Z" fill="#F948B4"/>
</g>
<defs>
<clipPath id="clip0_235_2307">
<rect width="150" height="150" fill="white"/>
</clipPath>
</defs>
</svg>
