<svg width="144" height="278" viewBox="0 0 144 278" fill="none" xmlns="http://www.w3.org/2000/svg">
<g clip-path="url(#clip0_235_2101)">
<path d="M25.3864 232.947C28.2286 226.378 30.2632 220.443 31.7063 215.235C31.7095 215.221 31.7138 215.206 31.7181 215.193C36.1299 199.236 35.0534 190.052 35.0534 190.052L34.3877 189.382C1.43978 195.939 -9.25522 222.654 -9.25522 222.654C-9.87577 223.825 -10.7231 224.971 -11.7325 226.103C-11.7325 226.103 -14.7147 227.98 -18.9666 233.568C-4.36933 236.881 10.8644 236.675 25.3864 232.947Z" fill="#83D3FC"/>
<path d="M2.40988 235.898C19.2614 214.404 14.1732 197.435 14.0725 197.108C-3.14115 207.392 -9.25408 222.655 -9.25408 222.655C-9.8757 223.824 -10.7219 224.971 -11.7314 226.103C-11.7314 226.103 -14.7146 227.98 -18.9655 233.569C-11.938 235.163 -4.76268 235.934 2.40988 235.898Z" fill="#61B6FF"/>
<path d="M35.0534 190.052L34.3877 189.382C1.43978 195.939 -9.25522 222.654 -9.25522 222.654C-9.40982 222.945 -9.5782 223.235 -9.76035 223.524C7.67432 214.062 23.0717 211.018 32.9879 210.143C35.9017 197.317 35.0534 190.052 35.0534 190.052Z" fill="#61B6FF"/>
<path d="M13.6377 213.845C16.0901 203.834 14.1339 197.311 14.072 197.108C-3.14055 207.393 -9.25454 222.655 -9.25454 222.655C-9.40914 222.946 -9.57752 223.236 -9.75968 223.524C-1.35927 218.966 6.5669 215.899 13.6377 213.845Z" fill="#5294E5"/>
<path d="M29.4774 165.034C19.8382 166.842 2.63336 162.564 -8.0485 151.815C-18.723 141.073 -23.8314 127.855 -21.9749 118.228L-46.0137 108.472C-52.7769 141.379 -79.5602 151.904 -79.5602 151.904C-83.139 153.776 -86.5209 157.722 -89.8989 162.089C-86.2073 178.957 -77.8305 195.01 -64.7566 208.167C-51.6827 221.323 -35.6825 229.801 -18.8376 233.6C-14.4506 230.248 -10.4834 226.891 -8.58866 223.324C-8.58866 223.324 2.10634 196.609 35.0543 190.052L29.4774 165.034Z" fill="#B9E9FD"/>
<path d="M32.0624 158.33C30.5342 153.213 26.3678 143.432 15.1643 131.709C14.6794 131.204 14.1924 130.701 13.7 130.206L13.699 130.205C13.2056 129.708 12.7047 129.217 12.2028 128.729C0.405894 117.312 -9.48144 113.083 -14.5568 111.548C-14.723 111.504 -16.3021 111.112 -18.0456 111.765C-16.0329 123.879 -10.3852 135.508 -1.07053 144.881C8.21138 154.222 19.7549 159.935 31.809 162.041C32.4731 160.2 32.1063 158.515 32.0624 158.33Z" fill="#61B6FF"/>
<path d="M-1.74258 145.548C6.99943 154.346 18.4545 160.548 29.7084 161.649C18.2842 141.957 1.97504 125.545 -17.6436 113.998C-16.2462 125.628 -10.4835 136.752 -1.74258 145.548Z" fill="#5294E5"/>
<path d="M19.9623 159.579C18.671 155.325 18.2041 149.769 22.2902 145.709L10.7969 134.143L-1.15718 146.022C5.07068 152.14 12.2797 156.66 19.9623 159.579Z" fill="#00C82F"/>
<path d="M-1.69534 145.502C-1.5189 145.679 -1.33606 145.846 -1.15854 146.021L10.7955 134.142L-0.697788 122.576C-5.02307 126.874 -10.9921 126.06 -15.314 124.577C-12.3511 132.191 -7.82236 139.336 -1.69534 145.502Z" fill="#04AD24"/>
<path d="M31.8078 162.041C19.7548 159.934 8.20911 154.223 -1.0728 144.882C-10.3875 135.509 -16.032 123.879 -18.0447 111.765C-19.1653 112.185 -20.353 113.036 -21.2782 114.691C-25.9606 124.354 -21.0487 140.072 -8.71753 152.481C3.82177 165.1 19.8299 170.068 29.4783 165.034C30.7445 164.15 31.4368 163.073 31.8078 162.041Z" fill="#83D3FC"/>
<path d="M12.2241 158.693C13.3639 157.56 14.8938 157.058 16.3794 157.182C10.0568 154.221 4.13637 150.122 -1.07144 144.881C-10.3861 135.508 -16.0317 123.879 -18.0444 111.765C-19.1661 112.184 -20.3527 113.036 -21.2779 114.691C-25.9603 124.354 -21.0494 140.071 -8.71829 152.48C-2.40849 158.83 4.77867 163.241 11.5934 165.416C10.1775 163.355 10.3878 160.517 12.2241 158.693Z" fill="#61B6FF"/>
<path d="M75.5768 127.857C75.5758 127.854 75.5747 127.853 75.5737 127.85C75.3803 127.313 75.5136 126.716 75.8765 126.275C89.887 109.273 89.8923 85.0638 75.1891 70.2677C60.504 55.4897 36.3352 55.3256 19.2492 69.1789C18.8029 69.54 18.2037 69.6536 17.6616 69.4653C17.614 69.4493 17.5663 69.4332 17.5187 69.4151C13.9954 68.1024 9.86048 68.8493 7.03118 71.6608L1.04406 77.6103C-1.74909 80.3859 -2.53774 84.445 -1.32032 87.9455C-0.790918 89.465 -0.808868 91.1248 -1.40712 92.6174C-2.56837 95.5126 -3.39079 98.5127 -3.87098 101.557C-5.3461 110.886 -7.27781 120.139 -9.91378 129.21L-10.9939 132.924C-15.0625 146.918 -2.14176 159.921 11.8775 155.94L16.0457 154.757C24.9813 152.221 34.0949 150.409 43.2781 149.017C46.329 148.555 49.3385 147.752 52.2462 146.608C53.7415 146.018 55.4014 146.013 56.9164 146.55C60.4102 147.791 64.4732 147.027 67.2652 144.252L73.2524 138.303C76.0753 135.498 76.8514 131.383 75.5768 127.857Z" fill="#A2EC00"/>
<path d="M77.6427 72.9899C76.8762 72.0527 76.0587 71.1428 75.1891 70.2677C60.504 55.4897 36.3352 55.3256 19.2492 69.1789C18.8029 69.5399 18.2037 69.6536 17.6616 69.4653C17.614 69.4493 17.5663 69.4332 17.5187 69.4151C13.9954 68.1024 9.86048 68.8493 7.03118 71.6608L1.04406 77.6103C-1.74909 80.3859 -2.53774 84.445 -1.32032 87.9455C-0.790918 89.465 -0.808868 91.1248 -1.40712 92.6174C-2.56837 95.5126 -3.39078 98.5127 -3.87098 101.557C-5.3461 110.886 -7.27781 120.139 -9.91378 129.21L-10.9939 132.924C-13.2387 140.647 -10.3081 148.066 -4.87521 152.498C-10.4594 143.249 -2.01153 140.122 1.82109 127.687C4.86984 117.794 11.2498 114.662 13.8579 113.772C14.4181 113.58 14.7685 113.05 14.7894 112.457C14.8116 111.805 15.1978 111.371 15.5632 111.105C15.934 110.836 16.1537 110.4 16.1339 109.942C16.0161 107.312 17.727 105.901 18.843 105.266C19.3579 104.971 19.6269 104.385 19.5196 103.801C18.5005 98.2521 23.0599 95.3252 24.6864 94.4697C25.0389 94.2842 25.2837 93.9522 25.3813 93.5677C26.6242 88.6537 31.0225 90.126 31.0225 90.126C35.0687 90.9485 35.8402 86.2915 35.8402 86.2915C51.9457 57.0081 77.6427 72.9899 77.6427 72.9899Z" fill="#00C82F"/>
<path d="M15.4091 138.931C15.3996 138.921 14.4235 137.896 14.0525 136.557C13.8712 135.899 13.3938 135.361 12.7619 135.101L11.2566 134.484L10.6477 132.974C10.3921 132.34 9.85733 131.859 9.19865 131.673C7.87811 131.299 6.86682 130.332 6.82561 130.293C5.96447 129.437 4.57175 129.435 3.7084 130.292C2.84186 131.154 2.83638 132.554 3.69748 133.42C3.85174 133.575 5.07007 134.765 6.9161 135.547L7.50189 137.002C7.72695 137.56 8.15908 137.995 8.71377 138.222L10.165 138.816C10.9351 140.667 12.1172 141.893 12.2715 142.048C13.1326 142.915 14.5327 142.918 15.3993 142.057C16.2648 141.197 16.2692 139.796 15.4091 138.931Z" fill="#00C82F"/>
<path d="M64.3023 123.698C63.8699 117.639 55.8898 113.27 46.4777 113.94C37.0657 114.61 29.786 120.067 30.2163 126.126C30.6487 132.186 38.6288 136.555 48.0409 135.885C57.4529 135.215 64.7337 129.759 64.3023 123.698Z" fill="#D7F9B7"/>
<path d="M49.1166 133.4C53.6375 128.907 53.6616 121.599 49.167 117.076C47.7797 115.68 46.124 114.714 44.3641 114.176C36.0027 115.448 29.8201 120.527 30.2179 126.124C30.6067 131.577 37.1081 135.659 45.2633 135.934C46.6641 135.374 47.9789 134.53 49.1166 133.4Z" fill="#4374D3"/>
<path d="M32.0244 99.3863C32.7536 89.9786 28.4342 81.9701 22.3772 81.5016C16.3203 81.031 10.8187 88.2773 10.0895 97.6849C9.35928 107.094 13.6786 115.1 19.7356 115.571C25.7926 116.039 31.2941 108.795 32.0244 99.3863Z" fill="#D7F9B7"/>
<path d="M14.6342 113.078C14.727 112.889 14.7807 112.677 14.7877 112.457C14.8099 111.805 15.196 111.371 15.5625 111.104C15.9333 110.834 16.153 110.398 16.1333 109.94C16.0154 107.31 17.7263 105.9 18.8423 105.264C19.3573 104.97 19.6252 104.385 19.5178 103.8C18.4987 98.2518 23.0592 95.3238 24.6857 94.4683C25.0371 94.2839 25.283 93.9508 25.3807 93.5664C26.6236 88.6523 31.0207 90.1257 31.0207 90.1257C29.4431 85.225 26.271 81.8052 22.3767 81.5036C16.3198 81.033 10.8182 88.2792 10.089 97.6869C9.58752 104.134 11.458 109.92 14.6342 113.078Z" fill="#8FE98A"/>
<path d="M12.5786 96.6294C17.0996 92.1369 24.4076 92.1589 28.9022 96.6819C30.2895 98.078 31.2445 99.7387 31.7711 101.502C30.4474 109.856 25.3298 116.007 19.7338 115.573C14.284 115.149 10.244 108.623 10.0206 100.467C10.5879 99.0684 11.441 97.76 12.5786 96.6294Z" fill="#4374D3"/>
<path d="M14.6346 113.076C14.7264 112.888 14.78 112.676 14.7881 112.457C14.8103 111.805 15.1964 111.371 15.5629 111.104C15.9337 110.834 16.1534 110.398 16.1337 109.94C16.0158 107.31 17.7267 105.9 18.8427 105.264C19.3577 104.97 19.6256 104.385 19.5182 103.8C18.4991 98.2518 23.0596 95.3238 24.6861 94.4683C24.8464 94.3851 24.9814 94.27 25.0931 94.1336C20.9298 92.4299 15.97 93.259 12.5783 96.6295C11.4395 97.761 10.5875 99.0684 10.0203 100.467C10.1657 105.77 11.9244 110.381 14.6346 113.076Z" fill="#3957C9"/>
<path d="M19.7511 109.867C18.3572 111.252 16.1049 111.246 14.7198 109.852C13.3336 108.457 13.3417 106.205 14.7356 104.82C16.1295 103.435 18.3818 103.441 19.768 104.836C21.1532 106.23 21.145 108.482 19.7511 109.867Z" fill="#61B6FF"/>
<path d="M49.0998 77.1481C47.7059 78.5333 45.4526 78.5262 44.0674 77.1323C42.6823 75.7383 42.6894 73.485 44.0833 72.0998C45.4772 70.7147 47.7305 70.7218 49.1157 72.1157C50.5009 73.5096 50.4938 75.763 49.0998 77.1481Z" fill="#00C82F"/>
<path d="M59.8889 83.8288C58.495 85.2139 56.2416 85.2068 54.8565 83.8129C53.4713 82.419 53.4784 80.1657 54.8723 78.7805C56.2663 77.3953 58.5196 77.4024 59.9048 78.7964C61.2899 80.1903 61.2828 82.4436 59.8889 83.8288Z" fill="#00C82F"/>
<path d="M40.3147 84.4191C38.9208 85.8043 36.6674 85.7972 35.2823 84.4033C33.8971 83.0093 33.9042 80.756 35.2981 79.3708C36.692 77.9857 38.9454 77.9928 40.3305 79.3867C41.7157 80.7806 41.7086 83.034 40.3147 84.4191Z" fill="#00C82F"/>
<path d="M58.2931 73.3793C55.8509 75.8062 51.9038 75.7937 49.4769 73.3515C47.0499 70.9092 47.0624 66.9621 49.5046 64.5352C51.9469 62.1083 55.8951 62.1197 58.322 64.5619C60.7489 67.0042 60.7354 70.9523 58.2931 73.3793Z" fill="#00C82F"/>
<path d="M30.2205 126.125C30.4894 129.903 33.6954 133.023 38.3517 134.674C36.9813 133.293 38.8142 132.205 38.8142 132.205L40.9573 126.159C37.632 119.213 44.3656 114.176 44.3656 114.176C36.0041 115.448 29.8216 120.527 30.2205 126.125Z" fill="#3957C9"/>
<path d="M40.9416 131.191C39.5477 132.576 37.2944 132.569 35.9092 131.175C34.5241 129.782 34.5312 127.528 35.9251 126.143C37.319 124.758 39.5723 124.765 40.9575 126.159C42.3427 127.553 42.3356 129.806 40.9416 131.191Z" fill="#61B6FF"/>
</g>
<defs>
<clipPath id="clip0_235_2101">
<rect width="196.469" height="196.469" fill="white" transform="translate(5.36133) rotate(45.1806)"/>
</clipPath>
</defs>
</svg>
