<svg width="30" height="30" viewBox="0 0 30 30" fill="none" xmlns="http://www.w3.org/2000/svg">
<g clip-path="url(#clip0_1_195)">
<path d="M26.2836 24.5201C28.2074 22.0775 29.3555 18.9951 29.3555 15.6448C29.3555 7.71654 22.9282 1.28931 15 1.28931C7.07176 1.28931 0.644531 7.71631 0.644531 15.6448C0.644531 18.9954 1.7926 22.0775 3.71635 24.5201H26.2836Z" fill="#4C01D5"/>
<path d="M26.1065 24.2276C24.5172 22.8692 22.5886 23.2221 19.9281 22.4265C19.2265 22.2168 18.7367 21.9358 18.3952 21.6572L18.2721 21.8799C16.7967 24.5441 12.9664 24.5441 11.491 21.8799L11.4382 21.7843C11.1093 22.0195 10.6666 22.2487 10.072 22.4265C7.41144 23.2221 5.48288 22.8692 3.89352 24.2276C3.81479 24.2951 3.74086 24.3736 3.67105 24.461C6.29793 27.8315 10.3956 29.9997 15 29.9997C19.6044 29.9997 23.7021 27.8315 26.329 24.461C26.2592 24.3736 26.1852 24.2951 26.1065 24.2276Z" fill="#51DA18"/>
<path d="M12.388 26.7855C12.088 26.1446 12.897 25.9986 12.897 25.9986C14.1774 25.4795 14.6343 24.5383 14.7959 23.8769C13.4983 23.8487 12.2129 23.1833 11.491 21.8799L11.4382 21.7844C11.109 22.0197 10.6666 22.2488 10.072 22.4267C7.41144 23.2223 5.48288 22.8691 3.89352 24.2277C3.81479 24.295 3.74086 24.3735 3.67105 24.4612C4.96927 26.127 6.62729 27.4985 8.52792 28.4602C9.67783 27.0979 12.388 26.7855 12.388 26.7855Z" fill="#00C82F"/>
<path d="M23.4924 8.42607C23.4918 8.42584 23.4911 8.42538 23.4906 8.42516C23.3826 8.3748 23.3135 8.267 23.3018 8.14844C22.8454 3.56737 19.2577 0.000244141 14.8984 0.000244141C10.5446 0.000244141 6.96008 3.5589 6.49683 8.13196C6.4847 8.25143 6.41328 8.35695 6.30525 8.40982C6.29587 8.4144 6.28648 8.41898 6.27687 8.42332C5.56345 8.75246 5.06494 9.47504 5.06494 10.3089V12.0726C5.06494 12.8954 5.5504 13.6102 6.24872 13.9453C6.55199 14.0907 6.79529 14.3379 6.9285 14.6464C7.18668 15.2451 7.51031 15.8089 7.89072 16.3287C9.05641 17.9217 10.1434 19.5708 11.0996 21.2977L11.491 22.0049C12.9664 24.6691 16.7967 24.6691 18.2721 22.0049L18.7106 21.2126C19.6511 19.5145 20.7246 17.8965 21.8713 16.3305C22.2521 15.81 22.5765 15.2456 22.8349 14.6459C22.9678 14.3374 23.2116 14.0907 23.5144 13.9453C24.213 13.6102 24.6982 12.8954 24.6982 12.0726V10.3089C24.6982 9.47755 24.2027 8.75635 23.4924 8.42607Z" fill="#A2EC00"/>
<path d="M15.6633 0.0375519C15.4113 0.0130615 15.1563 0.000244141 14.8984 0.000244141C10.5446 0.000244141 6.96008 3.5589 6.49683 8.13196C6.4847 8.25143 6.41328 8.35695 6.30525 8.40982C6.29587 8.4144 6.28648 8.41898 6.27687 8.42332C5.56345 8.75246 5.06494 9.47504 5.06494 10.3089V12.0728C5.06494 12.8954 5.5504 13.6105 6.24872 13.9453C6.55199 14.0909 6.79529 14.3379 6.9285 14.6466C7.18645 15.2451 7.51031 15.8091 7.89072 16.3287C9.05641 17.9217 10.1434 19.5708 11.0996 21.2977L11.491 22.0049C12.3054 23.4753 13.8368 24.1338 15.2939 23.9811C13.1003 23.4464 13.8812 21.7337 12.6025 19.3339C11.5849 17.4248 12.0607 16.0174 12.3127 15.4999C12.3672 15.3884 12.34 15.2584 12.255 15.168C12.1619 15.0687 12.1546 14.9476 12.1687 14.854C12.1834 14.7595 12.1514 14.6624 12.0806 14.5983C11.6732 14.2282 11.7162 13.7668 11.7863 13.5077C11.8186 13.388 11.7712 13.2619 11.6689 13.1918C10.6964 12.5256 10.9337 11.4182 11.0468 11.0511C11.071 10.9719 11.0578 10.8866 11.0152 10.8154C10.47 9.90739 11.3361 9.47252 11.3361 9.47252C12.0541 8.9937 11.4773 8.1933 11.4773 8.1933C9.50914 1.49255 15.6633 0.0375519 15.6633 0.0375519Z" fill="#00C82F"/>
<path d="M15.8515 28.8421C15.5956 28.8421 15.388 28.6345 15.388 28.3784C15.388 27.1436 16.2271 26.0818 17.4285 25.7964L19.6491 25.2693C19.8981 25.21 20.148 25.364 20.2071 25.6133C20.2664 25.8623 20.1123 26.1123 19.8633 26.1713L17.6429 26.6987C16.8613 26.8843 16.3152 27.575 16.3152 28.3784C16.3152 28.6345 16.1076 28.8421 15.8515 28.8421Z" fill="#00C82F"/>
<path d="M13.9117 28.8421C13.6556 28.8421 13.448 28.6345 13.448 28.3784C13.448 27.575 12.9021 26.8843 12.1205 26.6987L9.9001 26.1713C9.65085 26.1123 9.49681 25.8623 9.55609 25.6133C9.61514 25.364 9.86508 25.21 10.1143 25.2693L12.3347 25.7966C13.5361 26.0818 14.3754 27.1436 14.3754 28.3786C14.3754 28.6345 14.1678 28.8421 13.9117 28.8421Z" fill="#00C82F"/>
<path d="M12.8971 25.9987C12.7208 25.912 12.5329 25.8435 12.3347 25.7964L10.1143 25.2693C9.86507 25.21 9.61513 25.364 9.55608 25.6133C9.4968 25.8623 9.65106 26.1123 9.90009 26.1713L12.1205 26.6987C12.2129 26.7206 12.302 26.7501 12.3873 26.7859C12.3876 26.7859 12.3883 26.7856 12.3883 26.7856C12.088 26.1448 12.8971 25.9987 12.8971 25.9987Z" fill="#04AD24"/>
<path d="M16.271 18.9756C16.268 18.9756 15.9723 18.9692 15.7196 18.8271C15.5951 18.757 15.4449 18.7486 15.3133 18.804L15 18.9363L14.6867 18.804C14.5551 18.7484 14.4049 18.7568 14.2804 18.8271C14.0302 18.9678 13.7379 18.9754 13.7263 18.9756C13.4724 18.977 13.2669 19.1835 13.2669 19.4377C13.2669 19.6929 13.4738 19.8999 13.729 19.8999C13.7748 19.8999 14.1305 19.8946 14.5184 19.7362L14.8203 19.8635C14.9361 19.9124 15.0641 19.9124 15.1794 19.8635L15.4813 19.7362C15.8693 19.8946 16.225 19.8999 16.2708 19.8999C16.526 19.8999 16.7329 19.6929 16.7329 19.4377C16.7331 19.1825 16.5262 18.9756 16.271 18.9756Z" fill="#00C82F"/>
<path d="M21.2153 9.48414C20.2533 8.65536 18.4302 9.1946 17.143 10.6887C15.856 12.1827 15.5923 14.0654 16.5541 14.8942C17.5161 15.7228 19.3391 15.1835 20.6264 13.6896C21.9134 12.1957 22.177 10.3127 21.2153 9.48414Z" fill="#D7F9B7"/>
<path d="M20.4165 13.1646C20.4165 11.8323 19.3366 10.7524 18.0043 10.7524C17.593 10.7524 17.2057 10.8554 16.867 11.0372C15.8238 12.464 15.6658 14.1287 16.5544 14.8941C17.4198 15.6395 18.9823 15.2772 20.2245 14.1088C20.3481 13.8188 20.4165 13.4997 20.4165 13.1646Z" fill="#4374D3"/>
<path d="M12.8567 10.6877C11.5695 9.19381 9.74646 8.65433 8.78447 9.48311C7.82271 10.3119 8.08638 12.1947 9.37338 13.6886C10.6606 15.1827 12.4837 15.722 13.4456 14.8932C14.4074 14.0646 14.1437 12.1816 12.8567 10.6877Z" fill="#D7F9B7"/>
<path d="M12.3246 15.2823C12.3102 15.2409 12.2866 15.2015 12.255 15.1679C12.1619 15.0688 12.1545 14.9475 12.169 14.8538C12.1834 14.7593 12.1513 14.6625 12.0806 14.5982C11.6732 14.2281 11.7162 13.7667 11.7863 13.5078C11.8185 13.3879 11.7712 13.262 11.6689 13.1917C10.6963 12.5254 10.9339 11.4181 11.0468 11.0512C11.071 10.9718 11.058 10.8864 11.0152 10.8152C10.47 9.90725 11.3361 9.47237 11.3361 9.47237C10.377 8.9844 9.40292 8.95098 8.78471 9.48359C7.82272 10.3124 8.08639 12.1951 9.3734 13.6893C10.2553 14.7129 11.3889 15.288 12.3246 15.2823Z" fill="#8FE98A"/>
<path d="M9.58353 13.1646C9.58353 11.8323 10.6634 10.7524 11.9957 10.7524C12.407 10.7524 12.7943 10.8554 13.133 11.0372C14.1763 12.464 14.3342 14.1287 13.4457 14.8941C12.58 15.6395 11.0175 15.2772 9.77556 14.1088C9.65196 13.8188 9.58353 13.4997 9.58353 13.1646Z" fill="#4374D3"/>
<path d="M12.3244 15.2822C12.3102 15.2407 12.2866 15.2016 12.255 15.168C12.1619 15.0688 12.1546 14.9475 12.169 14.8539C12.1834 14.7594 12.1514 14.6626 12.0806 14.5983C11.6732 14.2282 11.7162 13.7667 11.7863 13.5079C11.8186 13.3879 11.7712 13.2621 11.6689 13.1918C10.6964 12.5255 10.9339 11.4182 11.0468 11.0513C11.0578 11.0154 11.0607 10.9783 11.0571 10.9417C10.1912 11.3079 9.58353 12.1653 9.58353 13.1646C9.58353 13.4996 9.65196 13.8189 9.77556 14.1089C10.5831 14.8683 11.5256 15.2867 12.3244 15.2822Z" fill="#3957C9"/>
<path d="M12.6025 14.051C12.6025 14.4616 12.2695 14.7944 11.8588 14.7944C11.4482 14.7944 11.1152 14.4616 11.1152 14.051C11.1152 13.6402 11.4482 13.3074 11.8588 13.3074C12.2695 13.3074 12.6025 13.6402 12.6025 14.051Z" fill="#61B6FF"/>
<path d="M12.0752 4.88084C12.0752 5.29146 11.7421 5.62425 11.3315 5.62425C10.9209 5.62425 10.5879 5.29146 10.5879 4.88084C10.5879 4.47 10.9209 4.13721 11.3315 4.13721C11.7421 4.13721 12.0752 4.47 12.0752 4.88084Z" fill="#00C82F"/>
<path d="M14.6547 4.26561C14.6547 4.67622 14.3219 5.00902 13.911 5.00902C13.5004 5.00902 13.1674 4.67622 13.1674 4.26561C13.1674 3.85477 13.5004 3.52197 13.911 3.52197C14.3219 3.52197 14.6547 3.85477 14.6547 4.26561Z" fill="#00C82F"/>
<path d="M11.2203 27.4121C11.2203 27.8227 10.8873 28.1555 10.4766 28.1555C10.066 28.1555 9.733 27.8227 9.733 27.4121C9.733 27.0013 10.066 26.6685 10.4766 26.6685C10.8873 26.6685 11.2203 27.0013 11.2203 27.4121Z" fill="#00C82F"/>
<path d="M9.9754 29.0946C10.0834 28.9078 10.1457 28.6915 10.1457 28.4604C10.1457 27.76 9.57784 27.1921 8.87746 27.1921C8.33844 27.1921 7.87839 27.5286 7.69482 28.0026C8.41672 28.4304 9.17935 28.7968 9.9754 29.0946Z" fill="#00C82F"/>
<path d="M11.8589 7.25389C11.8589 7.66451 11.5258 7.9973 11.1152 7.9973C10.7046 7.9973 10.3716 7.66451 10.3716 7.25389C10.3716 6.84305 10.7046 6.51025 11.1152 6.51025C11.5258 6.51025 11.8589 6.84305 11.8589 7.25389Z" fill="#00C82F"/>
<path d="M12.8708 2.96271C12.8708 3.68231 12.2876 4.2655 11.568 4.2655C10.8484 4.2655 10.2652 3.68231 10.2652 2.96271C10.2652 2.2431 10.8484 1.65991 11.568 1.65991C12.2876 1.65991 12.8708 2.2431 12.8708 2.96271Z" fill="#00C82F"/>
<path d="M16.5544 14.8938C17.154 15.4103 18.0888 15.3945 19.0194 14.9475C18.6127 14.9473 18.7216 14.5154 18.7216 14.5154L18.1412 13.3074C16.6214 12.7771 16.867 11.0369 16.867 11.0369C15.8238 12.4637 15.6658 14.1284 16.5544 14.8938Z" fill="#3957C9"/>
<path d="M18.8848 14.051C18.8848 14.4616 18.5518 14.7944 18.1412 14.7944C17.7306 14.7944 17.3976 14.4616 17.3976 14.051C17.3976 13.6402 17.7306 13.3074 18.1412 13.3074C18.5518 13.3074 18.8848 13.6402 18.8848 14.051Z" fill="#61B6FF"/>
</g>
<defs>
<clipPath id="clip0_1_195">
<rect width="30" height="30" fill="white"/>
</clipPath>
</defs>
</svg>
