<svg width="30" height="30" viewBox="0 0 30 30" fill="none" xmlns="http://www.w3.org/2000/svg">
<g clip-path="url(#clip0_107_1454)">
<path d="M29.8064 18.0011C29.9329 17.2343 30 16.4472 30 15.6445C30 7.71629 23.5728 1.28906 15.6445 1.28906C11.8533 1.28906 8.40614 2.7594 5.84015 5.15991C2.60187 8.91934 1.61694 11.0012 1.29936 15.1259C1.29318 15.2982 1.28906 15.4708 1.28906 15.6445C1.28906 22.3215 5.84747 27.9332 12.022 29.5386L29.8064 18.0011Z" fill="white"/>
<path d="M25.6954 5.3802L25.7177 5.44933L25.79 5.45139C25.9278 5.45528 26.0891 5.54156 26.1386 5.72559C26.3203 6.39896 26.4123 7.09773 26.4123 7.80269C26.4123 8.39709 26.3464 8.9899 26.2164 9.56462C26.1738 9.75253 26.0147 9.84523 25.876 9.85393L25.803 9.85828L25.7836 9.92877C25.3613 11.4561 24.5041 12.7939 23.3048 13.7976L23.1542 13.9234L23.3437 13.9749C23.6422 14.0562 23.8671 14.294 23.9312 14.5954C23.9772 14.8129 23.9347 15.0347 23.8106 15.2203L23.7417 15.3235L26.9117 16.6533L26.9218 16.657C26.93 16.6595 27.3889 16.8014 28.0577 17.1678V5.274C28.0577 4.35001 27.3017 3.59424 26.378 3.59424H24.866C25.2093 4.14104 25.4906 4.73865 25.6954 5.3802Z" fill="#F948B4"/>
<path d="M26.6252 13.4733C25.635 13.4733 24.8946 12.5523 25.1189 11.5786C24.3114 13.0673 23.2393 13.8388 23.1542 13.9235C23.21 13.9526 23.8044 13.9979 23.931 14.5955C24.0193 15.0107 23.7657 15.2716 23.7417 15.3236C28.2548 17.216 27.5981 16.9159 28.0577 17.1677V12.5095C27.8275 13.0748 27.2731 13.4733 26.6252 13.4733Z" fill="#F6159C"/>
<path d="M11.3891 16.6497L14.5674 15.3164L14.5001 15.2137C14.3799 15.0296 14.339 14.8101 14.3845 14.5954C14.4486 14.2938 14.6736 14.056 14.972 13.9749L15.1613 13.9234L15.011 13.7976C13.7981 12.7825 12.9364 11.4286 12.5191 9.88208L12.4999 9.81158L12.4271 9.80655C12.2882 9.79716 12.1296 9.70355 12.0884 9.51587C11.9655 8.95648 11.9032 8.38016 11.9032 7.80269C11.9032 7.11581 11.9906 6.4342 12.1632 5.77686C12.2113 5.59329 12.3722 5.50632 12.5104 5.50151L12.583 5.49899L12.6045 5.42964C12.8107 4.76955 13.097 4.155 13.4486 3.59424H11.6146C10.6906 3.59424 9.93481 4.35023 9.93481 5.274V17.7444C10.6956 17.1212 11.2898 16.7167 11.3891 16.6497Z" fill="#F948B4"/>
<path d="M13.1868 11.561C13.3305 12.5796 12.5395 13.4733 11.5276 13.4733C10.7842 13.4733 10.1541 12.989 9.93481 12.3189V17.7443C10.6956 17.1213 11.2898 16.7168 11.3891 16.6498L14.5674 15.3165C14.544 15.2648 14.2973 15.0059 14.3845 14.5956C14.5113 13.9977 15.1055 13.9526 15.1613 13.9236C15.1613 13.9236 13.9991 13.0678 13.1868 11.561Z" fill="#F6159C"/>
<path d="M0.805002 14.8203C1.84023 16.2202 3.67838 16.4559 4.79853 16.4559C5.33022 16.4559 5.7001 16.4028 5.74565 16.3959C5.77288 16.3918 5.79943 16.3863 5.8253 16.3795C5.21533 18.7672 5.88847 21.4236 5.88847 21.4236C7.25443 18.8621 10.7263 16.5591 10.7263 16.5591H10.863C13.5494 20.6078 11.8989 24.4288 11.8989 24.4288C11.8424 24.6119 11.8108 24.8156 11.7975 25.0344C9.31346 27.1509 7.37528 28.6265 5.73054 29.0224C2.98213 29.6846 0.290018 27.7029 0.0810487 24.8836C-0.258841 20.2988 0.565134 15.9569 0.805002 14.8203Z" fill="#B9E9FD"/>
<path d="M27.361 16.5591H27.2244C24.538 20.608 26.1884 24.4287 26.1884 24.4287C26.2452 24.6118 26.2766 24.8155 26.2898 25.0346C26.2898 25.0346 26.3278 25.0749 26.3965 25.155C28.1591 23.1639 29.377 20.6799 29.8171 17.9356C28.4896 16.8981 27.361 16.5591 27.361 16.5591Z" fill="#B9E9FD"/>
<path d="M19.0553 0C23.2127 0 26.583 3.49342 26.583 7.80281C26.583 10.3709 25.3859 12.6487 23.5391 14.0707C22.1292 14.3699 20.622 14.5322 19.0553 14.5322C17.4886 14.5322 15.9814 14.3699 14.5715 14.0707C12.7246 12.6489 11.5276 10.3709 11.5276 7.80281C11.5276 3.49342 14.8979 0 19.0553 0Z" fill="#E0F9FE"/>
<path d="M11.5276 7.80281C11.5276 10.3709 12.7244 12.6487 14.5715 14.0707C15.2909 14.2234 16.0359 14.3401 16.8008 14.4182C16.8207 14.3971 16.8404 14.3774 16.8596 14.3596C16.9537 14.2719 16.9871 14.1344 16.9429 14.0135C16.8729 13.8222 16.9313 13.6736 17.004 13.575C17.0752 13.4779 17.089 13.3518 17.0375 13.2429C16.8745 12.8982 17.0056 12.6695 17.1373 12.5411C17.2336 12.4475 17.2631 12.3049 17.2075 12.1827C14.9713 7.26883 16.6781 4.6756 17.1929 4.05258C17.2666 3.96332 17.2853 3.84155 17.2428 3.73398C17.0574 3.26614 17.3751 3.00613 17.5849 2.89169C17.6831 2.83791 17.7465 2.73811 17.7516 2.62619C17.8337 0.808869 19.0553 0 19.0553 0C14.8979 0 11.5276 3.49342 11.5276 7.80281Z" fill="#B9E9FD"/>
<path d="M27.361 16.559L24.2677 15.2615C24.1388 15.4283 23.9527 15.5522 23.7305 15.5993C22.2242 15.9191 20.6513 16.0809 19.0553 16.0809C17.4593 16.0809 15.8862 15.9191 14.3802 15.5993C14.1547 15.5515 13.9668 15.4247 13.8377 15.2544H13.8371L10.7263 16.559C13.4127 20.6079 11.7622 24.4289 11.7622 24.4289C11.3633 25.7175 12.2042 28.0258 11.9582 29.5215C13.1346 29.8333 14.3701 30.0001 15.6445 30.0001C19.9427 30.0001 23.7991 28.1105 26.4301 25.1174C26.4201 24.867 26.3889 24.6347 26.3251 24.4287C26.3251 24.4287 24.6746 20.6077 27.361 16.559Z" fill="#E0F9FE"/>
<path d="M17.3149 19.5711C17.3149 19.5251 17.3044 19.4795 17.2849 19.4379C16.5623 17.8838 16.7873 16.618 16.8963 16.1999C16.916 16.1246 16.9061 16.0463 16.872 15.9779C16.0265 15.8978 15.1936 15.7716 14.3802 15.5991C14.1547 15.5512 13.9668 15.4244 13.8375 15.2541L13.8368 15.2539L10.7263 16.5588C13.4127 20.6077 11.7622 24.4284 11.7622 24.4284C11.3633 25.7172 12.2042 28.0255 11.9582 29.5213C13.1346 29.833 14.3701 29.9998 15.6445 29.9998C16.2096 29.9998 16.767 29.9664 17.3151 29.9028V19.5711H17.3149Z" fill="#B9E9FD"/>
<path d="M6.52379 23.0915C6.86322 23.1354 7.14932 22.8404 7.09576 22.5028L6.80737 20.6914C6.78403 20.5452 6.70071 20.4236 6.58696 20.3472C6.32214 20.6967 6.08365 21.0574 5.88841 21.4234C5.88841 21.4234 5.88635 21.4154 5.88269 21.4005L6.08388 22.6639C6.1205 22.8935 6.30429 23.0631 6.52379 23.0915Z" fill="#83D3FC"/>
<path d="M17.2583 29.3365H15.8924C15.6095 29.3365 15.3801 29.1071 15.3801 28.8242C15.3801 28.5414 15.6095 28.312 15.8924 28.312H17.2583C17.5412 28.312 17.7706 28.5414 17.7706 28.8242C17.7706 29.1071 17.5412 29.3365 17.2583 29.3365Z" fill="#83D3FC"/>
<path d="M13.3566 4.93979C13.488 4.63629 13.7306 4.39574 14.0334 4.2623C14.8164 3.91714 16.5884 3.28223 19.0262 3.28223C21.4643 3.28223 23.2363 3.91737 24.0193 4.2623C24.3221 4.39574 24.5645 4.63629 24.6961 4.93979C25.057 5.77246 25.6331 7.65799 24.8007 9.96283C23.6709 13.0907 19.0262 13.1681 19.0262 13.1681C19.0262 13.1681 14.3818 13.0907 13.252 9.96283C12.4196 7.65799 12.9957 5.77269 13.3566 4.93979Z" fill="#1D319B"/>
<path d="M14.0334 4.26218C13.7306 4.39561 13.488 4.63617 13.3566 4.93967C12.9957 5.77257 12.4196 7.65787 13.252 9.96271C13.8764 11.6912 15.5738 12.488 16.9679 12.8551C16.9894 12.7168 17.0634 12.6132 17.1373 12.5411C17.2336 12.4474 17.2632 12.3049 17.2075 12.1824C14.9711 7.26877 16.6781 4.67554 17.1927 4.05229C17.2664 3.96326 17.2854 3.84149 17.2428 3.73392C17.1936 3.60986 17.1805 3.50069 17.1908 3.40479C15.6976 3.60666 14.6033 4.01109 14.0334 4.26218Z" fill="#162680"/>
<path d="M19.0178 13.6802C18.8139 13.6768 14.0058 13.5578 12.7703 10.1369C11.8907 7.70114 12.4656 5.70758 12.8865 4.73597C13.0689 4.31506 13.4029 3.98021 13.8268 3.79344C16.9197 2.43045 21.129 2.42862 24.2258 3.79344C24.6497 3.98021 24.9836 4.31483 25.166 4.73597C25.5872 5.70758 26.1621 7.70114 25.2823 10.1367C24.0468 13.5575 19.2389 13.6766 19.0348 13.68C19.0272 13.6802 19.0254 13.6802 19.0178 13.6802ZM14.2399 4.73094C14.0529 4.81334 13.9062 4.95982 13.8265 5.14338C13.4661 5.9756 12.9744 7.6858 13.7338 9.78877C14.7103 12.4919 18.807 12.6493 19.0261 12.6555C19.2382 12.6491 23.3448 12.4855 24.3189 9.78877C25.0784 7.6858 24.5867 5.9756 24.2263 5.14338C24.1466 4.95982 23.9999 4.81334 23.8129 4.73094C20.9814 3.4833 17.0735 3.48239 14.2399 4.73094Z" fill="#83D3FC"/>
<path d="M17.2241 12.3919C15.9224 12.0705 14.3012 11.3594 13.7338 9.78859C12.9744 7.68562 13.4661 5.97542 13.8265 5.1432C13.9062 4.95964 14.0529 4.81316 14.2399 4.73076C15.1577 4.32632 16.1886 4.05373 17.2589 3.91159C17.2703 3.853 17.2657 3.79143 17.2428 3.73375C17.0574 3.26569 17.3751 3.00591 17.585 2.89124C17.6129 2.87613 17.6379 2.85667 17.6596 2.83447C16.3033 2.96265 14.9865 3.28217 13.8268 3.79326C13.4029 3.98026 13.0689 4.31488 12.8865 4.73602C12.4656 5.70763 11.8907 7.70096 12.7703 10.1367C13.5086 12.1806 15.5221 13.0458 17.0668 13.4118C17.0725 13.355 17.0632 13.2967 17.0375 13.2426C16.8746 12.8979 17.0057 12.6693 17.1373 12.5409C17.1804 12.499 17.2092 12.4471 17.2241 12.3919Z" fill="#61B6FF"/>
<path d="M19.0553 16.1492C20.6513 16.1492 22.2241 15.9871 23.7304 15.6676C24.2285 15.5618 24.5466 15.0723 24.4411 14.5742C24.3353 14.0759 23.8455 13.758 23.3477 13.8635C21.9671 14.1565 20.5229 14.3051 19.0553 14.3051C17.5877 14.3051 16.1434 14.1565 14.7628 13.8635C14.2643 13.7578 13.7752 14.0759 13.6695 14.5742C13.5637 15.0723 13.8819 15.5618 14.3801 15.6676C15.8864 15.9871 17.4593 16.1492 19.0553 16.1492Z" fill="#83D3FC"/>
<path d="M16.8596 14.3593C16.9061 14.3163 16.9374 14.2609 16.9523 14.2014C16.2094 14.1277 15.4774 14.0151 14.7628 13.8635C14.2643 13.7578 13.7752 14.0759 13.6695 14.5742C13.5637 15.0723 13.8819 15.5618 14.3801 15.6676C15.2018 15.8418 16.0434 15.9688 16.8976 16.0487C16.8875 16.0059 16.869 15.9649 16.8422 15.9285C16.2487 15.1258 16.6028 14.5985 16.8596 14.3593Z" fill="#61B6FF"/>
<path d="M25.9252 25.6622C26.3013 25.2765 26.6558 24.87 26.9868 24.4441C26.5416 22.727 26.5517 21.052 27.0186 19.4549C27.4219 18.0764 28.0346 17.2693 28.0479 17.2522C28.2793 16.9557 28.2273 16.5275 27.9311 16.295C27.6347 16.0617 27.2051 16.1135 26.9721 16.4101C26.8531 16.5618 24.0788 20.1834 25.9252 25.6622Z" fill="#83D3FC"/>
<path d="M11.2562 26.1543C11.1834 26.1543 11.1092 26.1426 11.0364 26.1179C10.6794 25.9966 10.488 25.6088 10.6093 25.2515C11.2882 23.252 11.3587 21.3017 10.8188 19.4551C10.4132 18.0685 9.79566 17.2601 9.78948 17.2521C9.55923 16.9546 9.61233 16.5259 9.90896 16.2947C10.2058 16.0633 10.6329 16.1146 10.8652 16.4103C10.9847 16.5623 13.7684 20.196 11.9028 25.6908C11.8062 25.9753 11.5407 26.1543 11.2562 26.1543Z" fill="#83D3FC"/>
<path d="M9.93483 1.19291C9.60112 1.19291 9.33813 0.920773 9.33813 0.596219C9.33813 0.322705 9.52673 0.0723083 9.81856 0.0116546C10.18 -0.0611298 10.5313 0.215817 10.5313 0.596219C10.5313 0.930157 10.2596 1.19291 9.93483 1.19291Z" fill="#FACE7A"/>
<path d="M7.63004 3.86032C7.13451 3.86032 6.75022 3.40645 6.84978 2.90886C6.95347 2.40509 7.48195 2.14165 7.93377 2.33002C8.18714 2.4353 8.35674 2.65297 8.40961 2.90886C8.50826 3.40393 8.12717 3.86032 7.63004 3.86032Z" fill="#B9E9FD"/>
<path d="M2.85075 16.2565C2.83839 16.2295 2.82786 16.2034 2.8171 16.1776C2.07209 15.9462 1.33395 15.5353 0.805002 14.8203C0.565134 15.9569 -0.258841 20.2988 0.0810487 24.8836C0.290247 27.7029 2.98213 29.6846 5.73054 29.0227C0.612512 28.8663 2.85075 16.2565 2.85075 16.2565Z" fill="#83D3FC"/>
<path d="M11.1662 21.5266C11.2248 22.7395 11.0392 23.9855 10.6093 25.2515C10.488 25.6087 10.6794 25.9965 11.0364 26.1178C11.3937 26.2391 11.7817 26.0477 11.9027 25.6907C12.4619 24.0441 12.6031 22.5651 12.5239 21.2964C12.3587 21.924 11.5299 22.0645 11.1662 21.5266Z" fill="#61B6FF"/>
<path d="M26.6782 21.418C26.4095 22.0032 25.5805 22.0069 25.3067 21.4239C25.2449 22.6564 25.3928 24.0817 25.9252 25.6619C26.3012 25.2762 26.6558 24.8697 26.9867 24.4438C26.7208 23.4175 26.6184 22.4065 26.6782 21.418Z" fill="#61B6FF"/>
<path d="M2.85071 16.256C2.30986 15.0841 3.52087 14.82 3.52179 14.82C2.93608 14.6787 2.35975 14.4022 2.01254 13.8795C1.77267 13.5188 1.28607 13.4208 0.925352 13.6604C0.564634 13.9001 0.466444 14.3867 0.706312 14.7474C1.24693 15.5613 2.04664 16.0122 2.85071 16.256Z" fill="#61B6FF"/>
<path d="M22.758 27.1762H15.0817C14.6189 27.1762 14.2404 26.7976 14.2404 26.3348V20.8316C14.2404 20.3688 14.6189 19.9902 15.0817 19.9902H22.758C23.2205 19.9902 23.5991 20.3688 23.5991 20.8316V26.3348C23.5991 26.7976 23.2205 27.1762 22.758 27.1762Z" fill="#1D319B"/>
<path d="M17.2275 26.3348V20.8316C17.2275 20.3688 17.6061 19.9902 18.0686 19.9902H15.0817C14.6189 19.9902 14.2404 20.3688 14.2404 20.8316V26.3348C14.2404 26.7976 14.6189 27.1762 15.0817 27.1762H18.0686C17.6061 27.1762 17.2275 26.7976 17.2275 26.3348Z" fill="#162680"/>
<path d="M22.758 27.6652H15.0817C14.3482 27.6652 13.7515 27.0685 13.7515 26.335V20.8317C13.7515 20.0982 14.3482 19.5015 15.0817 19.5015H22.758C23.4913 19.5015 24.0882 20.0982 24.0882 20.8317V26.335C24.0882 27.0685 23.4913 27.6652 22.758 27.6652ZM15.0817 20.4795C14.8874 20.4795 14.7295 20.6374 14.7295 20.8317V26.335C14.7295 26.5293 14.8874 26.6872 15.0817 26.6872H22.758C22.9521 26.6872 23.1102 26.5293 23.1102 26.335V20.8317C23.1102 20.6374 22.9521 20.4795 22.758 20.4795H15.0817Z" fill="#83D3FC"/>
<path d="M21.9679 23.5833C21.9679 24.4627 21.2552 25.1754 20.3758 25.1754C19.4964 25.1754 18.7837 24.4627 18.7837 23.5833C18.7837 22.7039 19.4964 21.9912 20.3758 21.9912C21.2552 21.9912 21.9679 22.7039 21.9679 23.5833Z" fill="#4374D3"/>
<path d="M20.9176 24.0917C20.3373 24.0917 19.8672 23.6216 19.8672 23.0413C19.8672 22.5442 20.2128 22.1288 20.6768 22.0198C19.6887 21.8306 18.7837 22.5886 18.7837 23.5831C18.7837 24.4625 19.4964 25.1752 20.3758 25.1752C21.3698 25.1752 22.1283 24.2704 21.9391 23.2821C21.8301 23.7458 21.4147 24.0917 20.9176 24.0917Z" fill="#3957C9"/>
<path d="M16.5754 23.1644C16.2225 23.1644 15.9236 22.8769 15.9236 22.5116C15.9236 22.093 16.309 21.7934 16.7027 21.8726C17.0119 21.9355 17.2275 22.2033 17.2275 22.5116C17.2275 22.876 16.93 23.1644 16.5754 23.1644Z" fill="#FACE7A"/>
<path d="M16.5754 25.307C16.2241 25.307 15.9236 25.0216 15.9236 24.6542C15.9236 24.2384 16.3072 23.9356 16.7027 24.0152C17.011 24.0779 17.2275 24.3453 17.2275 24.6542C17.2275 25.0154 16.9327 25.307 16.5754 25.307Z" fill="#F948B4"/>
<path d="M16.9641 27.1763C16.9641 26.9495 17.1112 26.7566 17.3149 26.6872H15.0817C14.8874 26.6872 14.7295 26.5293 14.7295 26.335V20.8317C14.7295 20.6374 14.8874 20.4795 15.0817 20.4795H17.3152C17.1112 20.4101 16.9641 20.2172 16.9641 19.9904C16.9641 19.7635 17.1112 19.5708 17.3149 19.5015H15.0817C14.3482 19.5015 13.7515 20.0982 13.7515 20.8317V26.335C13.7515 27.0685 14.3482 27.6652 15.0817 27.6652H17.3149C17.1112 27.5959 16.9641 27.4032 16.9641 27.1763Z" fill="#61B6FF"/>
<path d="M22.0948 27.1533C21.8248 27.1533 21.6057 27.3721 21.6057 27.6422V28.707C21.939 28.5548 22.2649 28.39 22.584 28.2135V27.6422C22.584 27.3721 22.3649 27.1533 22.0948 27.1533Z" fill="#B9E9FD"/>
<path d="M20.2546 27.1533C19.9845 27.1533 19.7655 27.3721 19.7655 27.6422V29.3987C20.0967 29.2995 20.4229 29.1888 20.7435 29.067V27.6422C20.7435 27.3721 20.5247 27.1533 20.2546 27.1533Z" fill="#B9E9FD"/>
<path d="M22.0948 28.3739C21.8248 28.3739 21.6057 28.1551 21.6057 27.885V28.7071C21.939 28.5547 22.2649 28.3899 22.584 28.2134V27.8848C22.584 28.1551 22.3649 28.3739 22.0948 28.3739Z" fill="#83D3FC"/>
<path d="M20.2546 28.3739C19.9845 28.3739 19.7655 28.1551 19.7655 27.885V29.3986C20.0967 29.2997 20.4229 29.1889 20.7435 29.0669V27.8848C20.7435 28.1551 20.5247 28.3739 20.2546 28.3739Z" fill="#83D3FC"/>
<path d="M11.4494 5.75077C11.2779 6.40468 11.1862 7.09247 11.1862 7.80269C11.1862 8.39916 11.2512 8.97983 11.3736 9.53785C11.4514 9.89216 11.8842 10.032 12.1516 9.78687C12.6819 9.3005 13.1438 8.50834 13.1438 7.61318C13.1438 6.77502 12.7215 6.02703 12.2363 5.53585C11.982 5.27859 11.5414 5.40081 11.4494 5.75077Z" fill="#61B6FF"/>
<path d="M12.1086 7.65443C11.7437 7.65443 11.4187 7.4846 11.2074 7.22025C11.1937 7.41251 11.1862 7.6066 11.1862 7.80275C11.1862 8.39922 11.2512 8.97989 11.3736 9.5379C11.4514 9.89221 11.8842 10.0321 12.1516 9.78693C12.6819 9.30078 13.1438 8.50839 13.1438 7.61324C13.1438 7.43906 13.1252 7.26854 13.0921 7.10352C12.8893 7.43379 12.5247 7.65443 12.1086 7.65443Z" fill="#5294E5"/>
<path d="M26.6323 5.75077C26.8039 6.40468 26.8957 7.09247 26.8957 7.80269C26.8957 8.39916 26.8307 8.97983 26.708 9.53785C26.6304 9.89216 26.1974 10.032 25.9301 9.78687C25.3997 9.3005 24.9379 8.50834 24.9379 7.61318C24.9379 6.77502 25.3602 6.02703 25.8454 5.53585C26.0997 5.27859 26.5405 5.40081 26.6323 5.75077Z" fill="#61B6FF"/>
<path d="M25.9731 7.65443C26.3379 7.65443 26.6629 7.4846 26.8742 7.22025C26.8879 7.41251 26.8957 7.6066 26.8957 7.80275C26.8957 8.39922 26.8307 8.97989 26.708 9.5379C26.6304 9.89221 26.1974 10.0321 25.9301 9.78693C25.3997 9.30078 24.9379 8.50839 24.9379 7.61324C24.9379 7.43906 24.9564 7.26854 24.9898 7.10352C25.1926 7.43379 25.557 7.65443 25.9731 7.65443Z" fill="#5294E5"/>
<path d="M23.1494 6.42223C23.1494 6.98756 22.6909 7.44601 22.1256 7.44601C21.56 7.44601 21.1018 6.98756 21.1018 6.42223C21.1018 5.85666 21.56 5.39844 22.1256 5.39844C22.6909 5.39844 23.1494 5.85666 23.1494 6.42223Z" fill="#3957C9"/>
<path d="M20.8942 7.91634C20.8942 8.2029 20.6619 8.43521 20.3756 8.43521C20.089 8.43521 19.8567 8.2029 19.8567 7.91634C19.8567 7.62978 20.089 7.39746 20.3756 7.39746C20.6619 7.39746 20.8942 7.62978 20.8942 7.91634Z" fill="#3957C9"/>
<path d="M6.85898 7.97261L6.66075 8.18545C6.82756 8.11332 7.0141 8.10075 7.18907 8.14985C7.36405 8.19894 7.51682 8.30672 7.62175 8.4551C7.72669 8.60348 7.7774 8.78343 7.76539 8.96476C7.75338 9.1461 7.67937 9.31779 7.55578 9.45103L7.15933 9.87671C7.29572 9.72623 7.48509 9.63441 7.68771 9.62051C7.89034 9.60661 8.09047 9.67171 8.24614 9.80216C8.40181 9.93261 8.50091 10.1183 8.52267 10.3202C8.54443 10.5221 8.48715 10.7246 8.36285 10.8853C8.52873 10.8259 8.70978 10.8241 8.87678 10.8803C9.04377 10.9365 9.18696 11.0473 9.28321 11.1949C9.37947 11.3425 9.42319 11.5182 9.40729 11.6936C9.3914 11.8691 9.31684 12.0341 9.19563 12.162L7.35127 14.1423C7.27802 14.2241 7.20011 14.3016 7.11794 14.3743C6.68859 14.7974 6.20887 15.166 5.68957 15.472L4.3262 16.2587L1.66304 14.2104L1.86208 13.8946L1.17465 14.1424C1.79668 13.2093 2.12333 10.9665 2.26419 9.85393C2.36058 8.97664 2.111 8.09635 1.56851 7.40019C1.44023 7.25265 1.37054 7.06316 1.37266 6.86766C1.37478 6.67216 1.44856 6.48423 1.58 6.3395L1.63602 6.27935C1.77062 6.13333 1.95573 6.04399 2.15379 6.02947C2.35185 6.01495 2.54802 6.07633 2.70247 6.20116C3.39763 6.69985 3.92605 7.39676 4.21861 8.20071L4.24107 8.45492L5.6976 6.89099C5.84103 6.73698 6.03977 6.64626 6.25009 6.63878C6.46041 6.6313 6.66509 6.70768 6.8191 6.85111C6.97311 6.99454 7.06383 7.19328 7.07131 7.4036C7.07879 7.61392 7.00241 7.8186 6.85898 7.97261Z" fill="#F948B4"/>
<path d="M6.85911 7.9722L6.66088 8.18505C6.82769 8.11292 7.01423 8.10034 7.1892 8.14944C7.36418 8.19854 7.51695 8.30631 7.62188 8.45469C7.72682 8.60307 7.77753 8.78302 7.76552 8.96436C7.75351 9.14569 7.6795 9.31738 7.55591 9.45062L7.15946 9.8763C7.29585 9.72582 7.48522 9.634 7.68784 9.6201C7.89047 9.6062 8.0906 9.6713 8.24627 9.80175C8.40194 9.9322 8.50104 10.1179 8.5228 10.3198C8.54456 10.5217 8.48728 10.7242 8.36298 10.8848C8.52886 10.8255 8.70991 10.8237 8.87691 10.8799C9.0439 10.9361 9.18709 11.0469 9.28334 11.1945C9.3796 11.3421 9.42331 11.5178 9.40742 11.6932C9.39153 11.8687 9.31697 12.0337 9.19576 12.1616L7.3514 14.1419C7.27815 14.2237 7.20024 14.3012 7.11807 14.3739L2.26432 9.85353C2.36071 8.97624 2.11113 8.09594 1.56864 7.39979C1.44036 7.25224 1.37067 7.06276 1.37279 6.86726C1.37491 6.67175 1.44869 6.48382 1.58013 6.33909L1.63615 6.27894C1.77075 6.13292 1.95586 6.04359 2.15392 6.02907C2.35198 6.01455 2.54815 6.07593 2.7026 6.20075C3.39775 6.69944 3.92618 7.39636 4.21874 8.20031L4.2412 8.45452L5.69773 6.89058C5.84116 6.73657 6.0399 6.64585 6.25022 6.63837C6.46054 6.63089 6.66522 6.70727 6.81923 6.8507C6.97324 6.99413 7.06396 7.19287 7.07144 7.40319C7.07892 7.61352 7.00254 7.8182 6.85911 7.9722Z" fill="#FC7ACD"/>
<path d="M4.79855 16.5239C5.33024 16.5239 5.70011 16.4708 5.74566 16.4639C6.1739 16.3994 6.46847 15.9998 6.40392 15.5715C6.33915 15.1433 5.93952 14.8485 5.51129 14.9133C5.48748 14.9167 2.93774 15.2722 2.01237 13.8796C1.77273 13.5189 1.28613 13.4207 0.925409 13.6604C0.564692 13.9 0.466501 14.3868 0.70614 14.7476C1.71963 16.2726 3.64178 16.5239 4.79855 16.5239Z" fill="#83D3FC"/>
</g>
<defs>
<clipPath id="clip0_107_1454">
<rect width="30" height="30" fill="white"/>
</clipPath>
</defs>
</svg>
