<svg width="30" height="30" viewBox="0 0 30 30" fill="none" xmlns="http://www.w3.org/2000/svg">
<g clip-path="url(#clip0_1_142)">
<path d="M29.8064 18.0011C29.9329 17.2343 30 16.4472 30 15.6445C30 7.71629 23.5728 1.28906 15.6445 1.28906C11.8533 1.28906 8.40614 2.7594 5.84015 5.15991C2.60187 8.91934 1.61694 11.0012 1.29936 15.1259C1.29318 15.2982 1.28906 15.4708 1.28906 15.6445C1.28906 22.3215 5.84747 27.9332 12.022 29.5386L29.8064 18.0011Z" fill="#162680"/>
<path d="M25.6954 5.38045L25.7176 5.44957L25.7899 5.45163C25.9277 5.45552 26.0891 5.54181 26.1385 5.72583C26.3203 6.3992 26.4123 7.09798 26.4123 7.80293C26.4123 8.39734 26.3464 8.99014 26.2164 9.56487C26.1738 9.75278 26.0147 9.84547 25.876 9.85417L25.803 9.85852L25.7835 9.92902C25.3613 11.4563 24.5041 12.7942 23.3047 13.7978L23.1541 13.9237L23.3437 13.9752C23.6421 14.0564 23.8671 14.2943 23.9312 14.5957C23.9772 14.8131 23.9346 15.0349 23.8106 15.2205L23.7417 15.3238L26.9117 16.6536L26.9218 16.6572C26.93 16.6597 27.3889 16.8017 28.0577 17.1681V5.27425C28.0577 4.35025 27.3017 3.59448 26.3779 3.59448H24.866C25.2093 4.14128 25.4906 4.73889 25.6954 5.38045Z" fill="#F948B4"/>
<path d="M26.6251 13.4733C25.635 13.4733 24.8946 12.5523 25.1189 11.5786C24.3114 13.0673 23.2393 13.8388 23.1541 13.9235C23.21 13.9526 23.8044 13.9979 23.931 14.5955C24.0193 15.0107 23.7657 15.2716 23.7417 15.3236C28.2548 17.216 27.5981 16.9159 28.0577 17.1677V12.5095C27.8275 13.0748 27.2731 13.4733 26.6251 13.4733Z" fill="#F6159C"/>
<path d="M11.3892 16.6499L14.5674 15.3167L14.5001 15.2139C14.38 15.0299 14.339 14.8104 14.3845 14.5957C14.4486 14.294 14.6736 14.0562 14.9721 13.9752L15.1614 13.9237L15.011 13.7978C13.7981 12.7827 12.9364 11.4289 12.5191 9.88232L12.4999 9.81183L12.4271 9.80679C12.2882 9.79741 12.1296 9.7038 12.0884 9.51611C11.9655 8.95673 11.9032 8.3804 11.9032 7.80293C11.9032 7.11606 11.9907 6.43445 12.1632 5.7771C12.2113 5.59354 12.3722 5.50656 12.5105 5.50175L12.583 5.49924L12.6045 5.42989C12.8107 4.76979 13.0971 4.15524 13.4486 3.59448H11.6146C10.6906 3.59448 9.93484 4.35048 9.93484 5.27425V17.7446C10.6956 17.1214 11.2898 16.717 11.3892 16.6499Z" fill="#F948B4"/>
<path d="M13.1868 11.561C13.3305 12.5796 12.5395 13.4733 11.5276 13.4733C10.7842 13.4733 10.1541 12.989 9.93484 12.3189V17.7443C10.6956 17.1213 11.2898 16.7168 11.3892 16.6498L14.5674 15.3165C14.5441 15.2648 14.2973 15.0059 14.3845 14.5956C14.5113 13.9977 15.1055 13.9526 15.1614 13.9236C15.1614 13.9236 13.9991 13.0678 13.1868 11.561Z" fill="#F6159C"/>
<path d="M0.804971 14.8201C1.8402 16.2199 3.67835 16.4557 4.7985 16.4557C5.33019 16.4557 5.70007 16.4026 5.74562 16.3957C5.77285 16.3916 5.7994 16.3861 5.82527 16.3792C5.2153 18.7669 5.88844 21.4233 5.88844 21.4233C7.2544 18.8619 10.7263 16.5589 10.7263 16.5589H10.863C13.5493 20.6076 11.8989 24.4285 11.8989 24.4285C11.8423 24.6116 11.8108 24.8153 11.7975 25.0341C9.31343 27.1506 7.37525 28.6262 5.73051 29.0222C2.9821 29.6843 0.289987 27.7027 0.0810182 24.8833C-0.258871 20.2986 0.565103 15.9567 0.804971 14.8201Z" fill="#B9E9FD"/>
<path d="M27.361 16.5588H27.2244C24.538 20.6078 26.1884 24.4285 26.1884 24.4285C26.2452 24.6116 26.2766 24.8153 26.2898 25.0343C26.2898 25.0343 26.3278 25.0746 26.3965 25.1547C28.1591 23.1637 29.377 20.6796 29.8171 17.9353C28.4896 16.8978 27.361 16.5588 27.361 16.5588Z" fill="#B9E9FD"/>
<path d="M19.0553 0C23.2127 0 26.583 3.49342 26.583 7.80281C26.583 10.3709 25.386 12.6487 23.5391 14.0707C22.1292 14.3699 20.622 14.5322 19.0553 14.5322C17.4886 14.5322 15.9814 14.3699 14.5715 14.0707C12.7247 12.6489 11.5276 10.3709 11.5276 7.80281C11.5276 3.49342 14.8979 0 19.0553 0Z" fill="#E0F9FE"/>
<path d="M11.5276 7.80281C11.5276 10.3709 12.7245 12.6487 14.5715 14.0707C15.2909 14.2234 16.0359 14.3401 16.8008 14.4182C16.8208 14.3971 16.8404 14.3774 16.8597 14.3596C16.9537 14.2719 16.9872 14.1344 16.943 14.0135C16.8729 13.8222 16.9313 13.6736 17.0041 13.575C17.0753 13.4779 17.089 13.3518 17.0375 13.2429C16.8745 12.8982 17.0057 12.6695 17.1373 12.5411C17.2337 12.4475 17.2632 12.3049 17.2076 12.1827C14.9714 7.26883 16.6782 4.6756 17.1929 4.05258C17.2666 3.96332 17.2854 3.84155 17.2428 3.73398C17.0574 3.26614 17.3751 3.00613 17.585 2.89169C17.6832 2.83791 17.7466 2.73811 17.7516 2.62619C17.8338 0.808869 19.0553 0 19.0553 0C14.8979 0 11.5276 3.49342 11.5276 7.80281Z" fill="#B9E9FD"/>
<path d="M27.361 16.559L24.2677 15.2615C24.1388 15.4283 23.9527 15.5522 23.7305 15.5993C22.2242 15.9191 20.6513 16.0809 19.0553 16.0809C17.4593 16.0809 15.8862 15.9191 14.3802 15.5993C14.1547 15.5515 13.9668 15.4247 13.8377 15.2544H13.8371L10.7263 16.559C13.4127 20.6079 11.7622 24.4289 11.7622 24.4289C11.3633 25.7175 12.2042 28.0258 11.9582 29.5215C13.1346 29.8333 14.3701 30.0001 15.6445 30.0001C19.9427 30.0001 23.7991 28.1105 26.4301 25.1174C26.4201 24.867 26.3889 24.6347 26.3251 24.4287C26.3251 24.4287 24.6746 20.6077 27.361 16.559Z" fill="#E0F9FE"/>
<path d="M17.3149 19.5713C17.3149 19.5253 17.3044 19.4798 17.2849 19.4381C16.5623 17.884 16.7873 16.6183 16.8963 16.2001C16.916 16.1248 16.9061 16.0465 16.872 15.9781C16.0265 15.898 15.1936 15.7719 14.3802 15.5993C14.1547 15.5515 13.9668 15.4247 13.8375 15.2544L13.8368 15.2542L10.7263 16.559C13.4127 20.6079 11.7622 24.4286 11.7622 24.4286C11.3633 25.7175 12.2042 28.0258 11.9582 29.5215C13.1346 29.8332 14.3701 30.0001 15.6445 30.0001C16.2096 30.0001 16.767 29.9667 17.3151 29.903V19.5713H17.3149Z" fill="#B9E9FD"/>
<path d="M6.52382 23.0915C6.86325 23.1354 7.14935 22.8404 7.09579 22.5028L6.8074 20.6914C6.78406 20.5452 6.70074 20.4236 6.58699 20.3472C6.32217 20.6967 6.08368 21.0574 5.88844 21.4234C5.88844 21.4234 5.88638 21.4154 5.88272 21.4005L6.08391 22.6639C6.12053 22.8935 6.30432 23.0631 6.52382 23.0915Z" fill="#83D3FC"/>
<path d="M17.2584 29.3367H15.8924C15.6095 29.3367 15.3802 29.1074 15.3802 28.8245C15.3802 28.5416 15.6095 28.3123 15.8924 28.3123H17.2584C17.5413 28.3123 17.7706 28.5416 17.7706 28.8245C17.7706 29.1074 17.5413 29.3367 17.2584 29.3367Z" fill="#83D3FC"/>
<path d="M13.3566 4.93979C13.488 4.63629 13.7306 4.39574 14.0334 4.2623C14.8164 3.91714 16.5884 3.28223 19.0263 3.28223C21.4643 3.28223 23.2363 3.91737 24.0193 4.2623C24.3221 4.39574 24.5645 4.63629 24.6961 4.93979C25.0571 5.77246 25.6332 7.65799 24.8007 9.96283C23.671 13.0907 19.0263 13.1681 19.0263 13.1681C19.0263 13.1681 14.3818 13.0907 13.252 9.96283C12.4196 7.65799 12.9957 5.77269 13.3566 4.93979Z" fill="#1D319B"/>
<path d="M14.0334 4.26218C13.7306 4.39561 13.488 4.63617 13.3566 4.93967C12.9957 5.77257 12.4196 7.65787 13.252 9.96271C13.8764 11.6912 15.5738 12.488 16.9679 12.8551C16.9894 12.7168 17.0634 12.6132 17.1373 12.5411C17.2337 12.4474 17.2632 12.3049 17.2076 12.1824C14.9712 7.26877 16.6782 4.67554 17.1927 4.05229C17.2664 3.96326 17.2854 3.84149 17.2428 3.73392C17.1936 3.60986 17.1806 3.50069 17.1909 3.40479C15.6976 3.60666 14.6033 4.01109 14.0334 4.26218Z" fill="#162680"/>
<path d="M19.0178 13.6802C18.8139 13.6768 14.0057 13.5578 12.7702 10.1369C11.8906 7.70114 12.4656 5.70758 12.8865 4.73597C13.0689 4.31506 13.4029 3.98021 13.8267 3.79344C16.9196 2.43045 21.129 2.42862 24.2258 3.79344C24.6497 3.98021 24.9836 4.31483 25.166 4.73597C25.5872 5.70758 26.1621 7.70114 25.2823 10.1367C24.0468 13.5575 19.2389 13.6766 19.0347 13.68C19.0272 13.6802 19.0253 13.6802 19.0178 13.6802ZM14.2399 4.73094C14.0529 4.81334 13.9062 4.95982 13.8265 5.14338C13.466 5.9756 12.9744 7.6858 13.7338 9.78877C14.7102 12.4919 18.807 12.6493 19.026 12.6555C19.2382 12.6491 23.3448 12.4855 24.3189 9.78877C25.0783 7.6858 24.5867 5.9756 24.2262 5.14338C24.1466 4.95982 23.9999 4.81334 23.8129 4.73094C20.9814 3.4833 17.0734 3.48239 14.2399 4.73094Z" fill="#83D3FC"/>
<path d="M17.224 12.3921C15.9224 12.0708 14.3012 11.3596 13.7338 9.78883C12.9744 7.68587 13.466 5.97566 13.8265 5.14345C13.9062 4.95988 14.0529 4.8134 14.2399 4.731C15.1577 4.32657 16.1886 4.05397 17.2588 3.91183C17.2703 3.85324 17.2657 3.79167 17.2428 3.73399C17.0574 3.26593 17.3751 3.00615 17.585 2.89148C17.6129 2.87637 17.6379 2.85692 17.6596 2.83472C16.3032 2.96289 14.9865 3.28241 13.8267 3.7935C13.4029 3.9805 13.0689 4.31512 12.8865 4.73627C12.4656 5.70787 11.8906 7.7012 12.7702 10.137C13.5086 12.1809 15.5221 13.0461 17.0668 13.412C17.0725 13.3553 17.0631 13.2969 17.0375 13.2429C16.8745 12.8982 17.0057 12.6695 17.1373 12.5411C17.1803 12.4993 17.2092 12.4473 17.224 12.3921Z" fill="#61B6FF"/>
<path d="M19.0553 16.1492C20.6513 16.1492 22.2242 15.9871 23.7305 15.6676C24.2285 15.5618 24.5467 15.0723 24.4412 14.5742C24.3354 14.0759 23.8456 13.758 23.3478 13.8635C21.9672 14.1565 20.5229 14.3051 19.0553 14.3051C17.5877 14.3051 16.1435 14.1565 14.7629 13.8635C14.2644 13.7578 13.7753 14.0759 13.6695 14.5742C13.5638 15.0723 13.8819 15.5618 14.3802 15.6676C15.8865 15.9871 17.4593 16.1492 19.0553 16.1492Z" fill="#83D3FC"/>
<path d="M16.8597 14.3593C16.9061 14.3163 16.9375 14.2609 16.9524 14.2014C16.2094 14.1277 15.4775 14.0151 14.7629 13.8635C14.2644 13.7578 13.7753 14.0759 13.6695 14.5742C13.5638 15.0723 13.8819 15.5618 14.3802 15.6676C15.2019 15.8418 16.0435 15.9688 16.8977 16.0487C16.8876 16.0059 16.8691 15.9649 16.8423 15.9285C16.2488 15.1258 16.6029 14.5985 16.8597 14.3593Z" fill="#61B6FF"/>
<path d="M25.9252 25.6622C26.3013 25.2765 26.6558 24.87 26.9868 24.4441C26.5416 22.727 26.5517 21.052 27.0186 19.4549C27.4219 18.0764 28.0346 17.2693 28.0479 17.2522C28.2793 16.9557 28.2273 16.5275 27.9311 16.295C27.6347 16.0617 27.2051 16.1135 26.9721 16.4101C26.8531 16.5618 24.0788 20.1834 25.9252 25.6622Z" fill="#83D3FC"/>
<path d="M11.2562 26.154C11.1834 26.154 11.1092 26.1423 11.0364 26.1176C10.6794 25.9963 10.488 25.6086 10.6094 25.2513C11.2882 23.2518 11.3587 21.3015 10.8188 19.4549C10.4132 18.0683 9.79568 17.2599 9.7895 17.2519C9.55924 16.9543 9.61234 16.5256 9.90898 16.2945C10.2058 16.0631 10.6329 16.1143 10.8652 16.4101C10.9847 16.562 13.7684 20.1958 11.9028 25.6905C11.8062 25.975 11.5407 26.154 11.2562 26.154Z" fill="#83D3FC"/>
<path d="M9.93484 1.19291C9.60114 1.19291 9.33815 0.920773 9.33815 0.596219C9.33815 0.322705 9.52675 0.0723083 9.81857 0.0116546C10.18 -0.0611298 10.5313 0.215817 10.5313 0.596219C10.5313 0.930157 10.2596 1.19291 9.93484 1.19291Z" fill="#FACE7A"/>
<path d="M7.63001 3.86032C7.13448 3.86032 6.75019 3.40645 6.84975 2.90886C6.95343 2.40509 7.48192 2.14165 7.93374 2.33002C8.18711 2.4353 8.35671 2.65297 8.40958 2.90886C8.50823 3.40393 8.12714 3.86032 7.63001 3.86032Z" fill="#B9E9FD"/>
<path d="M2.85072 16.2563C2.83836 16.2293 2.82783 16.2032 2.81707 16.1773C2.07206 15.9459 1.33392 15.5351 0.804972 14.8201C0.565103 15.9567 -0.258871 20.2986 0.0810182 24.8833C0.290216 27.7027 2.9821 29.6843 5.73051 29.0224C0.612482 28.8661 2.85072 16.2563 2.85072 16.2563Z" fill="#83D3FC"/>
<path d="M11.1662 21.5266C11.2248 22.7395 11.0392 23.9855 10.6094 25.2515C10.4881 25.6087 10.6794 25.9965 11.0365 26.1178C11.3937 26.2391 11.7817 26.0477 11.9028 25.6907C12.4619 24.0441 12.6031 22.5651 12.524 21.2964C12.3587 21.924 11.5299 22.0645 11.1662 21.5266Z" fill="#61B6FF"/>
<path d="M26.6782 21.4185C26.4095 22.0037 25.5805 22.0074 25.3068 21.4244C25.245 22.6569 25.3928 24.0822 25.9252 25.6624C26.3013 25.2767 26.6558 24.8702 26.9868 24.4443C26.7208 23.418 26.6185 22.407 26.6782 21.4185Z" fill="#61B6FF"/>
<path d="M2.85072 16.2562C2.30987 15.0843 3.52089 14.8202 3.5218 14.8202C2.93609 14.679 2.35977 14.4025 2.01256 13.8797C1.77269 13.519 1.28609 13.421 0.925367 13.6607C0.56465 13.9003 0.466459 14.3869 0.706327 14.7476C1.24695 15.5615 2.04666 16.0124 2.85072 16.2562Z" fill="#61B6FF"/>
<path d="M22.7579 27.1762H15.0817C14.6189 27.1762 14.2403 26.7976 14.2403 26.3348V20.8316C14.2403 20.3688 14.6189 19.9902 15.0817 19.9902H22.7579C23.2205 19.9902 23.5991 20.3688 23.5991 20.8316V26.3348C23.5991 26.7976 23.2205 27.1762 22.7579 27.1762Z" fill="#1D319B"/>
<path d="M17.2275 26.3348V20.8316C17.2275 20.3688 17.606 19.9902 18.0686 19.9902H15.0817C14.6189 19.9902 14.2403 20.3688 14.2403 20.8316V26.3348C14.2403 26.7976 14.6189 27.1762 15.0817 27.1762H18.0686C17.606 27.1762 17.2275 26.7976 17.2275 26.3348Z" fill="#162680"/>
<path d="M22.7579 27.6652H15.0817C14.3481 27.6652 13.7514 27.0685 13.7514 26.335V20.8317C13.7514 20.0982 14.3481 19.5015 15.0817 19.5015H22.7579C23.4913 19.5015 24.0882 20.0982 24.0882 20.8317V26.335C24.0882 27.0685 23.4913 27.6652 22.7579 27.6652ZM15.0817 20.4795C14.8874 20.4795 14.7295 20.6374 14.7295 20.8317V26.335C14.7295 26.5293 14.8874 26.6872 15.0817 26.6872H22.7579C22.952 26.6872 23.1102 26.5293 23.1102 26.335V20.8317C23.1102 20.6374 22.952 20.4795 22.7579 20.4795H15.0817Z" fill="#83D3FC"/>
<path d="M21.9678 23.5833C21.9678 24.4627 21.2551 25.1754 20.3757 25.1754C19.4964 25.1754 18.7836 24.4627 18.7836 23.5833C18.7836 22.7039 19.4964 21.9912 20.3757 21.9912C21.2551 21.9912 21.9678 22.7039 21.9678 23.5833Z" fill="#4374D3"/>
<path d="M20.9175 24.0919C20.3373 24.0919 19.8672 23.6218 19.8672 23.0416C19.8672 22.5445 20.2128 22.129 20.6767 22.0201C19.6886 21.8308 18.7836 22.5889 18.7836 23.5833C18.7836 24.4627 19.4964 25.1754 20.3757 25.1754C21.3698 25.1754 22.1283 24.2707 21.939 23.2824C21.8301 23.7461 21.4146 24.0919 20.9175 24.0919Z" fill="#3957C9"/>
<path d="M16.5754 23.1644C16.2225 23.1644 15.9235 22.8769 15.9235 22.5116C15.9235 22.093 16.309 21.7934 16.7027 21.8726C17.0119 21.9355 17.2275 22.2033 17.2275 22.5116C17.2275 22.876 16.9299 23.1644 16.5754 23.1644Z" fill="#FACE7A"/>
<path d="M16.5754 25.307C16.2241 25.307 15.9235 25.0216 15.9235 24.6542C15.9235 24.2384 16.3071 23.9356 16.7027 24.0152C17.011 24.0779 17.2275 24.3453 17.2275 24.6542C17.2275 25.0154 16.9327 25.307 16.5754 25.307Z" fill="#F948B4"/>
<path d="M16.964 27.1763C16.964 26.9495 17.1112 26.7566 17.3149 26.6872H15.0817C14.8874 26.6872 14.7295 26.5293 14.7295 26.335V20.8317C14.7295 20.6374 14.8874 20.4795 15.0817 20.4795H17.3151C17.1112 20.4101 16.964 20.2172 16.964 19.9904C16.964 19.7635 17.1112 19.5708 17.3149 19.5015H15.0817C14.3481 19.5015 13.7514 20.0982 13.7514 20.8317V26.335C13.7514 27.0685 14.3481 27.6652 15.0817 27.6652H17.3149C17.1112 27.5959 16.964 27.4032 16.964 27.1763Z" fill="#61B6FF"/>
<path d="M22.0949 27.1531C21.8248 27.1531 21.6058 27.3719 21.6058 27.642V28.7067C21.939 28.5545 22.2649 28.3897 22.584 28.2133V27.642C22.584 27.3719 22.365 27.1531 22.0949 27.1531Z" fill="#B9E9FD"/>
<path d="M20.2547 27.1531C19.9846 27.1531 19.7655 27.3719 19.7655 27.642V29.3984C20.0967 29.2993 20.4229 29.1885 20.7436 29.0668V27.642C20.7436 27.3719 20.5247 27.1531 20.2547 27.1531Z" fill="#B9E9FD"/>
<path d="M22.0949 28.3739C21.8248 28.3739 21.6058 28.1551 21.6058 27.885V28.7071C21.939 28.5547 22.2649 28.3899 22.584 28.2134V27.8848C22.584 28.1551 22.365 28.3739 22.0949 28.3739Z" fill="#83D3FC"/>
<path d="M20.2547 28.3739C19.9846 28.3739 19.7655 28.1551 19.7655 27.885V29.3986C20.0967 29.2997 20.4229 29.1889 20.7436 29.0669V27.8848C20.7436 28.1551 20.5247 28.3739 20.2547 28.3739Z" fill="#83D3FC"/>
<path d="M11.4494 5.75101C11.2779 6.40493 11.1861 7.09272 11.1861 7.80294C11.1861 8.39941 11.2511 8.98008 11.3736 9.53809C11.4514 9.8924 11.8842 10.0322 12.1516 9.78712C12.6819 9.30074 13.1438 8.50858 13.1438 7.61342C13.1438 6.77526 12.7215 6.02727 12.2363 5.53609C11.982 5.27883 11.5414 5.40105 11.4494 5.75101Z" fill="#61B6FF"/>
<path d="M12.1085 7.65443C11.7437 7.65443 11.4187 7.4846 11.2074 7.22025C11.1937 7.41251 11.1861 7.6066 11.1861 7.80275C11.1861 8.39922 11.2511 8.97989 11.3736 9.5379C11.4514 9.89221 11.8842 10.0321 12.1516 9.78693C12.6819 9.30078 13.1438 8.50839 13.1438 7.61324C13.1438 7.43906 13.1252 7.26854 13.092 7.10352C12.8893 7.43379 12.5246 7.65443 12.1085 7.65443Z" fill="#5294E5"/>
<path d="M26.6322 5.75101C26.8039 6.40493 26.8957 7.09272 26.8957 7.80294C26.8957 8.39941 26.8307 8.98008 26.708 9.53809C26.6304 9.8924 26.1974 10.0322 25.93 9.78712C25.3997 9.30074 24.9378 8.50858 24.9378 7.61342C24.9378 6.77526 25.3601 6.02727 25.8453 5.53609C26.0996 5.27883 26.5405 5.40105 26.6322 5.75101Z" fill="#61B6FF"/>
<path d="M25.9731 7.65443C26.3379 7.65443 26.6629 7.4846 26.8742 7.22025C26.8879 7.41251 26.8957 7.6066 26.8957 7.80275C26.8957 8.39922 26.8307 8.97989 26.708 9.5379C26.6304 9.89221 26.1974 10.0321 25.93 9.78693C25.3997 9.30078 24.9378 8.50839 24.9378 7.61324C24.9378 7.43906 24.9564 7.26854 24.9898 7.10352C25.1926 7.43379 25.5569 7.65443 25.9731 7.65443Z" fill="#5294E5"/>
<path d="M23.1493 6.42247C23.1493 6.98781 22.6909 7.44626 22.1255 7.44626C21.56 7.44626 21.1018 6.98781 21.1018 6.42247C21.1018 5.8569 21.56 5.39868 22.1255 5.39868C22.6909 5.39868 23.1493 5.8569 23.1493 6.42247Z" fill="#3957C9"/>
<path d="M20.8942 7.91609C20.8942 8.20265 20.6618 8.43497 20.3755 8.43497C20.089 8.43497 19.8566 8.20265 19.8566 7.91609C19.8566 7.62953 20.089 7.39722 20.3755 7.39722C20.6618 7.39722 20.8942 7.62953 20.8942 7.91609Z" fill="#3957C9"/>
<path d="M6.85896 7.97237L6.66074 8.18521C6.82754 8.11308 7.01408 8.10051 7.18906 8.1496C7.36403 8.1987 7.5168 8.30648 7.62174 8.45485C7.72667 8.60323 7.77738 8.78318 7.76537 8.96452C7.75336 9.14585 7.67935 9.31754 7.55576 9.45078L7.15931 9.87647C7.29571 9.72598 7.48507 9.63416 7.6877 9.62026C7.89032 9.60636 8.09045 9.67146 8.24612 9.80191C8.40179 9.93236 8.5009 10.118 8.52266 10.32C8.54442 10.5219 8.48714 10.7244 8.36283 10.885C8.52871 10.8256 8.70977 10.8239 8.87676 10.8801C9.04375 10.9362 9.18694 11.0471 9.2832 11.1946C9.37946 11.3422 9.42317 11.5179 9.40728 11.6934C9.39139 11.8689 9.31682 12.0339 9.19562 12.1617L7.35126 14.1421C7.27801 14.2239 7.2001 14.3013 7.11792 14.3741C6.68858 14.7971 6.20886 15.1658 5.68955 15.4717L4.32618 16.2584L1.66302 14.2102L1.86206 13.8944L1.17464 14.1421C1.79666 13.2091 2.12331 10.9662 2.26418 9.85369C2.36056 8.9764 2.11098 8.0961 1.56849 7.39995C1.44021 7.2524 1.37053 7.06292 1.37265 6.86742C1.37477 6.67192 1.44854 6.48399 1.57998 6.33925L1.636 6.2791C1.7706 6.13308 1.95572 6.04375 2.15378 6.02923C2.35184 6.01471 2.548 6.07609 2.70246 6.20092C3.39761 6.6996 3.92604 7.39652 4.21859 8.20047L4.24106 8.45468L5.69758 6.89075C5.84101 6.73674 6.03975 6.64601 6.25007 6.63853C6.4604 6.63106 6.66507 6.70743 6.81908 6.85087C6.97309 6.9943 7.06382 7.19303 7.07129 7.40336C7.07877 7.61368 7.0024 7.81836 6.85896 7.97237Z" fill="#F948B4"/>
<path d="M6.85914 7.97196L6.66092 8.1848C6.82772 8.11267 7.01426 8.1001 7.18923 8.1492C7.36421 8.19829 7.51698 8.30607 7.62191 8.45445C7.72685 8.60282 7.77756 8.78278 7.76555 8.96411C7.75354 9.14545 7.67953 9.31714 7.55594 9.45037L7.15949 9.87606C7.29588 9.72558 7.48525 9.63376 7.68787 9.61986C7.8905 9.60596 8.09063 9.67106 8.2463 9.80151C8.40197 9.93195 8.50108 10.1176 8.52283 10.3195C8.54459 10.5215 8.48731 10.724 8.36301 10.8846C8.52889 10.8252 8.70994 10.8235 8.87694 10.8797C9.04393 10.9358 9.18712 11.0467 9.28338 11.1942C9.37963 11.3418 9.42334 11.5175 9.40745 11.693C9.39156 11.8685 9.317 12.0335 9.19579 12.1613L7.35144 14.1417C7.27818 14.2235 7.20027 14.3009 7.1181 14.3737L2.26436 9.85328C2.36074 8.97599 2.11116 8.0957 1.56867 7.39954C1.44039 7.252 1.3707 7.06251 1.37282 6.86701C1.37494 6.67151 1.44872 6.48358 1.58016 6.33885L1.63618 6.2787C1.77078 6.13268 1.95589 6.04334 2.15395 6.02882C2.35201 6.0143 2.54818 6.07568 2.70263 6.20051C3.39779 6.6992 3.92621 7.39611 4.21877 8.20006L4.24123 8.45427L5.69776 6.89034C5.84119 6.73633 6.03993 6.64561 6.25025 6.63813C6.46057 6.63065 6.66525 6.70703 6.81926 6.85046C6.97327 6.99389 7.06399 7.19263 7.07147 7.40295C7.07895 7.61327 7.00257 7.81795 6.85914 7.97196Z" fill="#FC7ACD"/>
<path d="M4.7985 16.5239C5.33019 16.5239 5.70007 16.4708 5.74562 16.4639C6.17385 16.3994 6.46842 15.9998 6.40388 15.5715C6.33911 15.1433 5.93948 14.8485 5.51124 14.9133C5.48744 14.9167 2.93769 15.2722 2.01232 13.8796C1.77268 13.5189 1.28608 13.4207 0.925364 13.6604C0.564646 13.9 0.466455 14.3868 0.706095 14.7476C1.71958 16.2726 3.64173 16.5239 4.7985 16.5239Z" fill="#83D3FC"/>
</g>
<defs>
<clipPath id="clip0_1_142">
<rect width="30" height="30" fill="white"/>
</clipPath>
</defs>
</svg>
