<svg width="30" height="30" viewBox="0 0 30 30" fill="none" xmlns="http://www.w3.org/2000/svg">
<g clip-path="url(#clip0_1_223)">
<path d="M27.5636 22.5934C28.7048 20.5341 29.3555 18.1654 29.3555 15.6445C29.3555 7.7163 22.9285 1.28906 15 1.28906C7.07177 1.28906 0.644531 7.7163 0.644531 15.6445C0.644531 18.1654 1.29501 20.5339 2.43622 22.5929L27.5636 22.5934Z" fill="#EEC707"/>
<path d="M26.1811 24.6473C25.291 24.2875 24.6627 23.4157 24.6627 22.3967C24.6627 21.2947 25.3977 20.3652 26.4041 20.0692C25.1205 17.8191 23.9825 16.9255 23.9825 16.9255H23.8349C20.9336 21.2981 22.7163 25.4246 22.7163 25.4246C22.7774 25.6221 22.8113 25.8423 22.8257 26.0788C22.8257 26.0788 22.7083 26.6036 22.8511 27.6635C24.1132 26.8375 25.237 25.8181 26.1811 24.6473Z" fill="#FD7E31"/>
<path d="M25.6552 25.2629C25.5071 24.757 25.3398 24.2926 25.1599 23.8676C24.9575 23.6028 24.8083 23.2952 24.7286 22.9603C23.9095 21.4185 22.9674 20.5362 22.4311 20.1199C21.7184 23.1146 22.7161 25.4247 22.7161 25.4247C22.7772 25.6222 22.8113 25.8424 22.8255 26.0788C22.8255 26.0788 22.7083 26.6036 22.8511 27.6636C23.8866 26.9859 24.8287 26.1779 25.6552 25.2629Z" fill="#FC5D1F"/>
<path d="M6.01755 16.9255C6.01755 16.9255 4.07526 18.4501 2.4035 22.5343C3.54105 24.6096 5.17641 26.3724 7.14891 27.6635C7.29174 26.6036 7.17455 26.0788 7.17455 26.0788C7.18874 25.8423 7.22284 25.6221 7.28395 25.4246C7.28395 25.4246 9.06649 21.2981 6.16518 16.9255H6.01755Z" fill="#FD7E31"/>
<path d="M7.1745 26.0787C7.18869 25.8423 7.2228 25.6221 7.28391 25.4246C7.28391 25.4246 8.24636 23.1962 7.60549 20.2793C6.7751 20.9799 5.32697 22.5514 4.52313 25.4559C5.30614 26.2913 6.1871 27.0338 7.14887 27.6635C7.29169 26.6035 7.1745 26.0787 7.1745 26.0787Z" fill="#FC5D1F"/>
<path d="M20.5964 14.7891C19.7353 16.0562 17.3671 17.4915 15 17.4915C12.6345 17.4915 10.6075 16.6023 9.74532 15.3365L6.01752 16.9257C8.91905 21.2982 7.13629 25.4247 7.13629 25.4247C6.95319 26.0164 7.01247 26.8072 7.12027 27.6449C9.38231 29.1333 12.0898 30.0001 15 30.0001C17.9102 30.0001 20.6177 29.1333 22.8797 27.6449C22.9875 26.8072 23.0468 26.0164 22.8637 25.4247C22.8637 25.4247 21.0809 21.2982 23.9825 16.9257L20.5964 14.7891Z" fill="#FC9949"/>
<path d="M19.6669 27.8394H10.4043C8.85935 27.8394 7.55724 26.8047 7.15029 25.3906C7.14136 25.4128 7.13633 25.4247 7.13633 25.4247C6.95322 26.0164 7.01228 26.8072 7.12031 27.6449C9.38235 29.1333 12.0898 30.0001 15 30.0001C17.9103 30.0001 20.6177 29.1333 22.8797 27.6449C22.9827 26.8443 23.0409 26.0869 22.8859 25.5048C22.4435 26.86 21.17 27.8394 19.6669 27.8394Z" fill="#FD7E31"/>
<path d="M14.379 17.5488V29.9858C14.585 29.9945 14.7919 30 15 30C15.287 30 15.5715 29.9906 15.8544 29.9739V17.5303C15.5756 17.5561 15.2904 17.5703 15 17.5703C14.7901 17.5703 14.5832 17.5625 14.379 17.5488Z" fill="#FACE7A"/>
<path d="M15.8544 27.8394H14.379V29.9858C14.8723 30.0069 15.3131 30.0057 15.8544 29.9739V27.8394Z" fill="#EEC707"/>
<path d="M20.1379 13.7646C19.403 13.3705 17.8603 12.7553 15.328 12.7058C15.2186 12.704 15.1094 12.7024 15 12.7024C14.8906 12.7024 14.7812 12.704 14.6715 12.7058C12.1081 12.756 10.5508 13.3858 9.82176 13.7791C9.79865 13.7926 9.58144 13.9244 9.46173 14.1897C11.0255 15.3002 12.9359 15.955 15 15.955C17.0567 15.955 18.9608 15.3048 20.5213 14.2013C20.3904 13.9251 20.1633 13.78 20.1379 13.7646Z" fill="#FC5D1F"/>
<path d="M15 16.1028C16.937 16.1028 18.8857 15.5166 20.2467 14.3907C16.8073 13.4882 13.1928 13.4882 9.75336 14.3907C11.196 15.5166 13.063 16.1028 15 16.1028Z" fill="#162680"/>
<path d="M18.9444 15.2426C18.331 14.9173 17.6638 14.3575 17.6638 13.4578H15.1168V16.0901C16.4804 16.0737 17.775 15.7727 18.9444 15.2426Z" fill="#FE9D9A"/>
<path d="M15 16.0924C15.0391 16.0924 15.0778 16.0906 15.1167 16.0901V13.4578H12.5697C12.5697 14.4101 11.8222 14.9819 11.1823 15.2973C12.3521 15.8075 13.6423 16.0924 15 16.0924Z" fill="#F98F8F"/>
<path d="M20.5213 14.2011C18.9608 15.3048 17.057 15.955 15 15.955C12.9357 15.955 11.0257 15.3 9.462 14.1892C9.3851 14.3597 9.3487 14.5849 9.43018 14.8694C9.98522 16.4524 12.2674 17.6387 15 17.6387C17.7787 17.6387 20.0917 16.4121 20.5964 14.7889C20.6381 14.5513 20.5948 14.3561 20.5213 14.2011Z" fill="#FD7E31"/>
<path d="M18.3586 15.3476C17.3136 15.7399 16.1822 15.955 15 15.955C12.9357 15.955 11.0257 15.3002 9.462 14.1895C9.3851 14.3597 9.3487 14.5852 9.43018 14.8697C9.98522 16.4526 12.2674 17.6389 15 17.6389C16.4543 17.6389 17.7807 17.3022 18.7876 16.749C18.1494 16.6087 17.9071 15.8232 18.3586 15.3476Z" fill="#FC5D1F"/>
<path d="M14.0518 0.0627535C11.0271 0.47497 10.7396 2.18975 10.7382 2.81895C10.738 2.95102 10.665 3.07324 10.5462 3.13092C8.97287 3.8963 9.82111 7.69437 9.82111 7.69437C9.97926 7.70489 10.1445 7.76875 10.2679 7.82849C10.2981 7.64058 10.4567 7.34624 10.5263 7.16725C10.5794 7.03107 10.6458 6.89328 10.7286 6.76327C10.8726 6.5376 10.938 6.27118 10.9186 6.00499C10.8618 5.23549 10.7799 3.82855 11.7957 3.37147C12.656 2.9842 13.7119 3.20851 14.385 3.43235C14.8222 3.57769 15.2957 3.57769 15.7329 3.43235C16.406 3.20851 17.4616 2.9842 18.322 3.37147C19.335 3.82718 19.2556 5.22679 19.1998 5.99835C19.1803 6.2666 19.2442 6.53576 19.3891 6.76327C19.4747 6.8974 19.5426 7.03999 19.5964 7.18053C19.6635 7.35516 19.8205 7.64516 19.85 7.82849C20.0054 7.75319 20.2277 7.67102 20.4177 7.69803C20.441 6.89145 20.5154 5.91252 20.5154 5.91252C21.4117 1.52279 17.3083 -0.38082 14.0518 0.0627535Z" fill="#B33C37"/>
<path d="M14.8778 0.0012207C14.5988 0.00556946 14.3223 0.0259399 14.0518 0.0627899C11.0271 0.475006 10.7396 2.18979 10.7382 2.81899C10.738 2.95082 10.665 3.07327 10.5462 3.13095C8.97287 3.89633 9.82111 7.69417 9.82111 7.69417C9.97926 7.7047 10.1445 7.76879 10.2679 7.82853C10.2981 7.64061 10.4567 7.34604 10.5263 7.16729C10.5794 7.0311 10.6458 6.89332 10.7286 6.76331C10.8726 6.53763 10.938 6.27121 10.9186 6.00502C10.8621 5.23552 10.7799 3.82836 11.7957 3.37151C12.5194 3.04581 13.3811 3.1527 14.0373 3.32802C14.028 3.30605 14.019 3.28385 14.009 3.2621C12.8201 0.673447 14.7801 0.0314331 14.8778 0.0012207Z" fill="#A33131"/>
<path d="M20.7511 7.69336C20.5099 7.47752 20.0292 7.58693 19.8214 7.71899C19.8669 7.99594 19.8697 8.27907 19.8303 8.55876L19.585 10.3024C19.585 10.4431 19.5804 10.5809 19.5721 10.7164C20.17 10.8924 20.4671 10.3685 20.5172 10.0087C20.5387 9.85378 20.574 9.70134 20.6227 9.55234C20.782 9.06734 21.3558 8.23421 20.7511 7.69336Z" fill="#FE9D9A"/>
<path d="M20.297 9.35814C20.0837 9.35814 19.8905 9.27277 19.7493 9.13452L19.585 10.3025C19.585 10.4433 19.5804 10.5811 19.5721 10.7166C20.17 10.8926 20.4671 10.3687 20.5172 10.0089C20.5387 9.8539 20.574 9.70146 20.6227 9.55246C20.6566 9.44923 20.7092 9.33022 20.7653 9.20181C20.6346 9.29955 20.4728 9.35814 20.297 9.35814Z" fill="#F98F8F"/>
<path d="M9.36655 7.69336C9.60802 7.47752 10.0887 7.58693 10.2965 7.71899C10.251 7.99594 10.2484 8.27907 10.2878 8.55876L10.5332 10.3024C10.5332 10.4431 10.5377 10.5809 10.546 10.7164C9.94791 10.8924 9.65082 10.3685 9.6007 10.0087C9.57918 9.85378 9.54394 9.70134 9.49518 9.55234C9.33588 9.06734 8.76208 8.23421 9.36655 7.69336Z" fill="#FE9D9A"/>
<path d="M10.3697 9.14062C10.229 9.27498 10.0388 9.35806 9.82889 9.35806C9.64761 9.35806 9.48145 9.29604 9.34869 9.19304C9.40614 9.32487 9.46039 9.44687 9.49518 9.55238C9.54393 9.70139 9.57918 9.85405 9.60069 10.0088C9.65082 10.3686 9.94791 10.8927 10.546 10.7165C10.5377 10.581 10.5332 10.4432 10.5332 10.3027L10.3697 9.14062Z" fill="#F98F8F"/>
<path d="M19.7058 7.18049C19.652 7.03996 19.584 6.89736 19.4984 6.76324C19.3536 6.53573 19.2897 6.26656 19.3092 5.99831C19.365 5.22675 19.335 3.71773 18.3222 3.26203C17.4616 2.87499 16.406 3.09907 15.7329 3.32291C15.2957 3.46825 14.8219 3.46825 14.3848 3.32291C13.7116 3.09907 12.656 2.87499 11.7956 3.26203C10.7799 3.71911 10.7526 5.23545 10.8092 6.00495C10.8286 6.27114 10.7632 6.53756 10.6192 6.76324C10.5363 6.89324 10.47 7.03103 10.4171 7.16721C10.245 7.60941 10.1946 8.08892 10.2592 8.55836L10.4988 10.3024C10.4988 12.8101 11.8373 14.5143 12.9758 15.3985C13.5702 15.8599 14.3035 16.1108 15.0588 16.1108C15.8141 16.1108 16.5477 15.8599 17.1419 15.3985C18.2806 14.5143 19.6191 12.8101 19.6191 10.3024L19.8585 8.55859C19.9223 8.09373 19.874 7.61903 19.7058 7.18049Z" fill="#FFBAAE"/>
<path d="M14.8663 15.3985C14.0394 14.5143 13.0669 12.81 13.0669 10.3024L12.8929 8.55832C12.8462 8.08888 12.8826 7.60937 13.0076 7.16717C13.046 7.03099 13.0943 6.8932 13.1545 6.7632C13.2591 6.53752 13.3067 6.2711 13.2925 6.00491C13.2513 5.23541 13.2713 3.71907 14.0089 3.26199C14.0289 3.24986 14.0485 3.23818 14.0687 3.2272C13.4088 3.04684 12.531 2.93125 11.7956 3.26199C10.7799 3.71907 10.7526 5.23541 10.8092 6.00491C10.8286 6.2711 10.7632 6.53752 10.6192 6.7632C10.5363 6.8932 10.47 7.03099 10.4169 7.16717C10.245 7.60937 10.1946 8.08888 10.2592 8.55832L10.4986 10.3024C10.4986 12.81 11.8371 14.5143 12.9758 15.3985C13.5702 15.8599 14.3035 16.1107 15.0588 16.1107C15.3181 16.1107 15.5745 16.0805 15.8237 16.0231C15.4772 15.9132 15.1499 15.7017 14.8663 15.3985Z" fill="#FE9D9A"/>
<path d="M26.4006 20.0632C25.3729 20.3567 24.6201 21.3019 24.6201 22.4239C24.6201 23.4495 25.2493 24.3278 26.1424 24.6949C26.6892 24.0224 27.1767 23.2999 27.5963 22.5345C27.2031 21.5739 26.795 20.7542 26.4006 20.0632Z" fill="#E0F9FE"/>
<path d="M26.106 22.5173C25.6409 21.86 25.5448 21.0529 25.7753 20.3416C25.0815 20.7753 24.6201 21.5455 24.6201 22.4239C24.6201 23.4495 25.2493 24.3278 26.1424 24.6951C26.4924 24.2646 26.8176 23.8135 27.1168 23.344C26.7242 23.171 26.372 22.8931 26.106 22.5173Z" fill="#B9E9FD"/>
<path d="M19.0638 27.3812H10.9868C10.4999 27.3812 10.1017 26.9829 10.1017 26.4961V20.7054C10.1017 20.2186 10.4999 19.8201 10.9868 19.8201H19.0638C19.5506 19.8201 19.9489 20.2186 19.9489 20.7054V26.4961C19.9489 26.9829 19.5506 27.3812 19.0638 27.3812Z" fill="#1D319B"/>
<path d="M13.2447 26.4961V20.7054C13.2447 20.2186 13.6429 19.8203 14.1298 19.8203H10.987C10.4999 19.8203 10.1017 20.2186 10.1017 20.7054V26.4961C10.1017 26.9829 10.4999 27.3812 10.987 27.3812H14.1298C13.6429 27.3812 13.2447 26.9829 13.2447 26.4961Z" fill="#162680"/>
<path d="M19.0638 27.8956H10.987C10.215 27.8956 9.58716 27.2678 9.58716 26.496V20.7053C9.58716 19.9335 10.215 19.3054 10.987 19.3054H19.0638C19.8358 19.3054 20.4636 19.9335 20.4636 20.7053V26.496C20.4636 27.2678 19.8356 27.8956 19.0638 27.8956ZM10.987 20.3345C10.7826 20.3345 10.6162 20.5009 10.6162 20.7053V26.496C10.6162 26.7004 10.7826 26.8665 10.987 26.8665H19.0638C19.2682 26.8665 19.4346 26.7004 19.4346 26.496V20.7053C19.4346 20.5009 19.2682 20.3345 19.0638 20.3345H10.987Z" fill="#83D3FC"/>
<path d="M19.8489 29.1594V27.8715C19.8489 27.5872 19.6186 27.3569 19.3344 27.3569C19.0501 27.3569 18.8198 27.5872 18.8198 27.8715V29.4853C19.1684 29.3892 19.5115 29.2805 19.8489 29.1594Z" fill="#B9E9FD"/>
<path d="M17.9125 29.7041V27.8715C17.9125 27.5872 17.6823 27.3569 17.398 27.3569C17.1137 27.3569 16.8835 27.5872 16.8835 27.8715V29.8774C17.2307 29.8318 17.5738 29.7739 17.9125 29.7041Z" fill="#B9E9FD"/>
<path d="M19.3344 28.7772C19.0501 28.7772 18.8198 28.547 18.8198 28.2627V29.4849C19.1684 29.389 19.5115 29.2803 19.8489 29.1592V28.2627C19.8489 28.547 19.6186 28.7772 19.3344 28.7772Z" fill="#83D3FC"/>
<path d="M17.398 28.7772C17.1137 28.7772 16.8835 28.547 16.8835 28.2627V29.8772C17.2307 29.8317 17.5738 29.7738 17.9125 29.704V28.2629C17.9125 28.547 17.6823 28.7772 17.398 28.7772Z" fill="#83D3FC"/>
<path d="M18.2325 23.6007C18.2325 24.5259 17.4825 25.2759 16.5573 25.2759C15.6322 25.2759 14.8821 24.5259 14.8821 23.6007C14.8821 22.6754 15.6322 21.9255 16.5573 21.9255C17.4825 21.9255 18.2325 22.6754 18.2325 23.6007Z" fill="#4374D3"/>
<path d="M17.1275 24.1358C16.517 24.1358 16.0222 23.6409 16.0222 23.0305C16.0222 22.5075 16.3861 22.0703 16.8741 21.9557C15.8345 21.7565 14.8821 22.5542 14.8821 23.6006C14.8821 24.5258 15.6322 25.2758 16.5573 25.2758C17.6033 25.2758 18.4014 24.3239 18.2023 23.2839C18.0876 23.7719 17.6505 24.1358 17.1275 24.1358Z" fill="#3957C9"/>
<path d="M12.5585 23.1598C12.187 23.1598 11.8726 22.8575 11.8726 22.473C11.8726 22.0326 12.2784 21.7174 12.6924 21.8007C13.0179 21.8671 13.2447 22.1486 13.2447 22.473C13.2447 22.8564 12.9316 23.1598 12.5585 23.1598Z" fill="#FACE7A"/>
<path d="M12.5585 25.4143C12.1886 25.4143 11.8726 25.114 11.8726 24.7275C11.8726 24.2898 12.2763 23.9712 12.6924 24.0552C13.0167 24.1209 13.2447 24.4024 13.2447 24.7275C13.2447 25.1074 12.9346 25.4143 12.5585 25.4143Z" fill="#F948B4"/>
<path d="M12.9675 27.3811C12.9675 27.1423 13.1225 26.9395 13.3367 26.8665H10.987C10.7826 26.8665 10.6162 26.7004 10.6162 26.496V20.7053C10.6162 20.5009 10.7826 20.3345 10.987 20.3345H13.3369C13.1225 20.2617 12.9677 20.0587 12.9677 19.8199C12.9677 19.5812 13.1225 19.3784 13.3369 19.3054H10.987C10.215 19.3054 9.58716 19.9335 9.58716 20.7053V26.496C9.58716 27.2678 10.215 27.8956 10.987 27.8956H13.3367C13.1225 27.8226 12.9675 27.6198 12.9675 27.3811Z" fill="#61B6FF"/>
</g>
<defs>
<clipPath id="clip0_1_223">
<rect width="30" height="30" fill="white"/>
</clipPath>
</defs>
</svg>
