<svg width="30" height="30" viewBox="0 0 30 30" fill="none" xmlns="http://www.w3.org/2000/svg">
<g clip-path="url(#clip0_107_2444)">
<path d="M26.2836 24.5199C28.2074 22.0773 29.3555 18.9949 29.3555 15.6445C29.3555 7.71629 22.9282 1.28906 15 1.28906C7.07176 1.28906 0.644531 7.71606 0.644531 15.6445C0.644531 18.9951 1.7926 22.0773 3.71635 24.5199H26.2836Z" fill="white"/>
<path d="M26.1065 24.2276C24.5171 22.8692 22.5886 23.2221 19.928 22.4265C19.2265 22.2168 18.7367 21.9358 18.3952 21.6572L18.2721 21.8799C16.7967 24.5441 12.9664 24.5441 11.491 21.8799L11.4381 21.7843C11.1092 22.0195 10.6666 22.2487 10.0719 22.4265C7.41141 23.2221 5.48285 22.8692 3.89349 24.2276C3.81476 24.2951 3.74083 24.3736 3.67102 24.461C6.2979 27.8315 10.3956 29.9997 15 29.9997C19.6044 29.9997 23.7021 27.8315 26.3289 24.461C26.2591 24.3736 26.1852 24.2951 26.1065 24.2276Z" fill="#51DA18"/>
<path d="M12.388 26.7857C12.0879 26.1449 12.897 25.9988 12.897 25.9988C14.1774 25.4797 14.6342 24.5386 14.7958 23.8771C13.4983 23.849 12.2129 23.1836 11.491 21.8801L11.4381 21.7847C11.109 22.02 10.6666 22.2491 10.0719 22.4269C7.41141 23.2225 5.48285 22.8693 3.89349 24.228C3.81476 24.2953 3.74083 24.3738 3.67102 24.4614C4.96924 26.1272 6.62726 27.4987 8.52789 28.4605C9.6778 27.0982 12.388 26.7857 12.388 26.7857Z" fill="#00C82F"/>
<path d="M23.4924 8.42583C23.4918 8.4256 23.4911 8.42514 23.4906 8.42491C23.3826 8.37456 23.3135 8.26675 23.3018 8.14819C22.8454 3.56712 19.2577 0 14.8984 0C10.5446 0 6.96008 3.55865 6.49683 8.13171C6.4847 8.25119 6.41328 8.3567 6.30525 8.40958C6.29587 8.41415 6.28648 8.41873 6.27687 8.42308C5.56345 8.75221 5.06494 9.47479 5.06494 10.3086V12.0724C5.06494 12.8952 5.5504 13.61 6.24872 13.9451C6.55199 14.0904 6.79529 14.3376 6.9285 14.6461C7.18668 15.2449 7.51031 15.8086 7.89072 16.3284C9.05641 17.9214 10.1434 19.5705 11.0996 21.2975L11.491 22.0047C12.9664 24.6689 16.7967 24.6689 18.2721 22.0047L18.7106 21.2123C19.6511 19.5142 20.7246 17.8963 21.8713 16.3303C22.2521 15.8098 22.5765 15.2454 22.8349 14.6457C22.9678 14.3372 23.2116 14.0904 23.5144 13.9451C24.213 13.61 24.6982 12.8952 24.6982 12.0724V10.3086C24.6982 9.47731 24.2027 8.7561 23.4924 8.42583Z" fill="#A2EC00"/>
<path d="M15.6633 0.0373078C15.4113 0.0128174 15.1563 0 14.8984 0C10.5446 0 6.96008 3.55865 6.49683 8.13171C6.4847 8.25119 6.41328 8.3567 6.30525 8.40958C6.29587 8.41415 6.28648 8.41873 6.27687 8.42308C5.56345 8.75221 5.06494 9.47479 5.06494 10.3086V12.0726C5.06494 12.8952 5.5504 13.6102 6.24872 13.9451C6.55199 14.0907 6.79529 14.3376 6.9285 14.6464C7.18645 15.2449 7.51031 15.8089 7.89072 16.3284C9.05641 17.9214 10.1434 19.5705 11.0996 21.2975L11.491 22.0047C12.3054 23.475 13.8368 24.1335 15.2939 23.9809C13.1003 23.4462 13.8812 21.7335 12.6025 19.3336C11.5849 17.4245 12.0607 16.0172 12.3127 15.4996C12.3672 15.3882 12.34 15.2582 12.255 15.1678C12.1619 15.0684 12.1546 14.9474 12.1687 14.8537C12.1834 14.7592 12.1514 14.6622 12.0806 14.5981C11.6732 14.228 11.7162 13.7666 11.7863 13.5075C11.8186 13.3878 11.7712 13.2616 11.6689 13.1916C10.6964 12.5253 10.9337 11.418 11.0468 11.0509C11.071 10.9717 11.0578 10.8863 11.0152 10.8151C10.47 9.90715 11.3361 9.47227 11.3361 9.47227C12.0541 8.99345 11.4773 8.19305 11.4773 8.19305C9.50914 1.49231 15.6633 0.0373078 15.6633 0.0373078Z" fill="#00C82F"/>
<path d="M15.8514 28.8424C15.5955 28.8424 15.3879 28.6348 15.3879 28.3787C15.3879 27.1438 16.227 26.0821 17.4284 25.7966L19.649 25.2695C19.8981 25.2102 20.148 25.3643 20.207 25.6135C20.2663 25.8626 20.1123 26.1125 19.8633 26.1716L17.6429 26.6989C16.8613 26.8845 16.3151 27.5753 16.3151 28.3787C16.3151 28.6348 16.1075 28.8424 15.8514 28.8424Z" fill="#00C82F"/>
<path d="M13.9118 28.8424C13.6557 28.8424 13.4481 28.6348 13.4481 28.3787C13.4481 27.5753 12.9022 26.8845 12.1205 26.6989L9.90016 26.1716C9.65091 26.1125 9.49687 25.8626 9.55615 25.6135C9.6152 25.3643 9.86514 25.2102 10.1144 25.2695L12.3348 25.7969C13.5362 26.0821 14.3755 27.1438 14.3755 28.3789C14.3755 28.6348 14.1679 28.8424 13.9118 28.8424Z" fill="#00C82F"/>
<path d="M12.8971 25.999C12.7209 25.9122 12.533 25.8438 12.3348 25.7966L10.1144 25.2695C9.86513 25.2102 9.61519 25.3643 9.55614 25.6135C9.49686 25.8626 9.65112 26.1125 9.90015 26.1716L12.1205 26.6989C12.213 26.7209 12.302 26.7504 12.3874 26.7861C12.3876 26.7861 12.3883 26.7859 12.3883 26.7859C12.088 26.145 12.8971 25.999 12.8971 25.999Z" fill="#04AD24"/>
<path d="M16.271 18.9756C16.2681 18.9756 15.9724 18.9692 15.7197 18.8271C15.5952 18.757 15.445 18.7486 15.3134 18.804L15.0001 18.9363L14.6867 18.804C14.5551 18.7484 14.405 18.7568 14.2805 18.8271C14.0303 18.9678 13.738 18.9754 13.7263 18.9756C13.4725 18.977 13.267 19.1835 13.267 19.4377C13.267 19.6929 13.4739 19.8999 13.7291 19.8999C13.7749 19.8999 14.1305 19.8946 14.5185 19.7362L14.8204 19.8635C14.9362 19.9124 15.0641 19.9124 15.1795 19.8635L15.4814 19.7362C15.8694 19.8946 16.225 19.8999 16.2708 19.8999C16.526 19.8999 16.7329 19.6929 16.7329 19.4377C16.7332 19.1825 16.5262 18.9756 16.271 18.9756Z" fill="#00C82F"/>
<path d="M21.2152 9.48414C20.2533 8.65536 18.4302 9.1946 17.143 10.6887C15.856 12.1827 15.5923 14.0654 16.5541 14.8942C17.5161 15.7228 19.3391 15.1835 20.6263 13.6896C21.9133 12.1957 22.177 10.3127 21.2152 9.48414Z" fill="#D7F9B7"/>
<path d="M20.4165 13.1646C20.4165 11.8323 19.3367 10.7524 18.0043 10.7524C17.593 10.7524 17.2058 10.8554 16.867 11.0372C15.8238 12.464 15.6659 14.1287 16.5544 14.8941C17.4198 15.6395 18.9824 15.2772 20.2245 14.1088C20.3481 13.8188 20.4165 13.4997 20.4165 13.1646Z" fill="#4374D3"/>
<path d="M12.8568 10.6877C11.5696 9.19381 9.74652 8.65433 8.78453 9.48311C7.82277 10.3119 8.08644 12.1947 9.37344 13.6886C10.6607 15.1827 12.4837 15.722 13.4457 14.8932C14.4075 14.0646 14.1438 12.1816 12.8568 10.6877Z" fill="#D7F9B7"/>
<path d="M12.3246 15.2823C12.3102 15.2409 12.2866 15.2015 12.255 15.1679C12.1619 15.0688 12.1545 14.9475 12.169 14.8538C12.1834 14.7593 12.1513 14.6625 12.0806 14.5982C11.6732 14.2281 11.7162 13.7667 11.7863 13.5078C11.8185 13.3879 11.7712 13.262 11.6689 13.1917C10.6963 12.5254 10.9339 11.4181 11.0468 11.0512C11.071 10.9718 11.058 10.8864 11.0152 10.8152C10.47 9.90725 11.3361 9.47237 11.3361 9.47237C10.377 8.9844 9.40292 8.95098 8.78471 9.48359C7.82272 10.3124 8.08639 12.1951 9.3734 13.6893C10.2553 14.7129 11.3889 15.288 12.3246 15.2823Z" fill="#8FE98A"/>
<path d="M9.5835 13.1646C9.5835 11.8323 10.6634 10.7524 11.9957 10.7524C12.407 10.7524 12.7943 10.8554 13.133 11.0372C14.1762 12.464 14.3342 14.1287 13.4456 14.8941C12.58 15.6395 11.0174 15.2772 9.77553 14.1088C9.65193 13.8188 9.5835 13.4997 9.5835 13.1646Z" fill="#4374D3"/>
<path d="M12.3244 15.2824C12.3102 15.241 12.2866 15.2018 12.255 15.1682C12.1618 15.0691 12.1545 14.9478 12.1689 14.8542C12.1834 14.7596 12.1513 14.6628 12.0806 14.5985C11.6732 14.2284 11.7162 13.767 11.7863 13.5081C11.8185 13.3882 11.7711 13.2623 11.6688 13.192C10.6963 12.5258 10.9339 11.4184 11.0467 11.0515C11.0577 11.0156 11.0607 10.9785 11.057 10.9419C10.1912 11.3081 9.5835 12.1655 9.5835 13.1648C9.5835 13.4999 9.65193 13.8192 9.77553 14.1092C10.583 14.8686 11.5256 15.287 12.3244 15.2824Z" fill="#3957C9"/>
<path d="M12.6025 14.0513C12.6025 14.4619 12.2695 14.7947 11.8589 14.7947C11.4483 14.7947 11.1152 14.4619 11.1152 14.0513C11.1152 13.6404 11.4483 13.3076 11.8589 13.3076C12.2695 13.3076 12.6025 13.6404 12.6025 14.0513Z" fill="#61B6FF"/>
<path d="M12.0752 4.88084C12.0752 5.29146 11.7421 5.62425 11.3315 5.62425C10.9209 5.62425 10.5879 5.29146 10.5879 4.88084C10.5879 4.47 10.9209 4.13721 11.3315 4.13721C11.7421 4.13721 12.0752 4.47 12.0752 4.88084Z" fill="#00C82F"/>
<path d="M14.6546 4.26561C14.6546 4.67622 14.3218 5.00902 13.911 5.00902C13.5004 5.00902 13.1674 4.67622 13.1674 4.26561C13.1674 3.85477 13.5004 3.52197 13.911 3.52197C14.3218 3.52197 14.6546 3.85477 14.6546 4.26561Z" fill="#00C82F"/>
<path d="M11.2203 27.4116C11.2203 27.8222 10.8873 28.155 10.4767 28.155C10.0661 28.155 9.73303 27.8222 9.73303 27.4116C9.73303 27.0008 10.0661 26.668 10.4767 26.668C10.8873 26.668 11.2203 27.0008 11.2203 27.4116Z" fill="#00C82F"/>
<path d="M9.9754 29.0944C10.0834 28.9076 10.1457 28.6913 10.1457 28.4601C10.1457 27.7598 9.57784 27.1919 8.87746 27.1919C8.33844 27.1919 7.87839 27.5284 7.69482 28.0024C8.41672 28.4301 9.17935 28.7966 9.9754 29.0944Z" fill="#00C82F"/>
<path d="M11.8589 7.25389C11.8589 7.66451 11.5258 7.9973 11.1152 7.9973C10.7046 7.9973 10.3716 7.66451 10.3716 7.25389C10.3716 6.84305 10.7046 6.51025 11.1152 6.51025C11.5258 6.51025 11.8589 6.84305 11.8589 7.25389Z" fill="#00C82F"/>
<path d="M12.8707 2.96246C12.8707 3.68207 12.2875 4.26526 11.5679 4.26526C10.8483 4.26526 10.2651 3.68207 10.2651 2.96246C10.2651 2.24286 10.8483 1.65967 11.5679 1.65967C12.2875 1.65967 12.8707 2.24286 12.8707 2.96246Z" fill="#00C82F"/>
<path d="M16.5544 14.894C17.1541 15.4106 18.0888 15.3948 19.0194 14.9478C18.6127 14.9476 18.7217 14.5157 18.7217 14.5157L18.1412 13.3076C16.6214 12.7773 16.867 11.0371 16.867 11.0371C15.8238 12.464 15.6659 14.1286 16.5544 14.894Z" fill="#3957C9"/>
<path d="M18.8849 14.0513C18.8849 14.4619 18.5518 14.7947 18.1412 14.7947C17.7306 14.7947 17.3976 14.4619 17.3976 14.0513C17.3976 13.6404 17.7306 13.3076 18.1412 13.3076C18.5518 13.3076 18.8849 13.6404 18.8849 14.0513Z" fill="#61B6FF"/>
</g>
<defs>
<clipPath id="clip0_107_2444">
<rect width="30" height="30" fill="white"/>
</clipPath>
</defs>
</svg>
