<svg width="80" height="80" viewBox="0 0 80 80" fill="none" xmlns="http://www.w3.org/2000/svg">
<g clip-path="url(#clip0_1_335)">
<path d="M74.5026 53.5236C74.5776 53.5028 74.6503 53.4839 74.7247 53.4631C75.9161 49.762 76.5631 45.816 76.5631 41.7188C76.5625 20.5768 59.4232 3.4375 38.2812 3.4375C17.1393 3.4375 0 20.5768 0 41.7188C0 45.1904 0.465088 48.5535 1.33118 51.7511C2.72949 52.2693 35.9308 64.3024 74.5026 53.5236Z" fill="#A2EC00"/>
<path d="M6.2207 59.5674L12.8912 70.3645C19.6478 76.3588 28.5382 80.0001 38.2812 80.0001C52.9773 80.0001 65.7367 71.7177 72.1527 59.5674H6.2207Z" fill="#1D319B"/>
<path d="M50.2435 59.5674H6.2207L12.8912 70.3645C19.6478 76.3588 28.5382 80.0001 38.2812 80.0001C41.4874 80.0001 44.6008 79.6058 47.5769 78.863C39.2352 75.0752 40.3302 61.183 50.2435 59.5674Z" fill="#162680"/>
<path d="M9.89319 55.124H20.4584V63.8105H9.89319V55.124Z" fill="#5294E5"/>
<path d="M33.8818 23.7141H38.0499V39.5955H33.8818V23.7141Z" fill="#E0F9FE"/>
<path d="M35.9662 35.1808C35.0018 35.1808 34.184 34.5625 33.8818 33.7019V39.5948H38.0499V33.7019C37.7478 34.5631 36.9299 35.1808 35.9662 35.1808Z" fill="#B9E9FD"/>
<path d="M32.7856 20.3022L33.8818 23.9692H38.0499L39.1461 20.3022H32.7856Z" fill="#83D3FC"/>
<path d="M38.8721 20.5396H32.9858C31.9629 20.5396 31.134 19.7107 31.134 18.6877C31.134 17.6648 31.9629 16.8359 32.9858 16.8359H38.8721C39.895 16.8359 40.7239 17.6648 40.7239 18.6877C40.7239 19.7107 39.895 20.5396 38.8721 20.5396Z" fill="#E0F9FE"/>
<path d="M35.929 18.6877C35.929 17.6648 36.7584 16.8359 37.7808 16.8359H32.9858C31.9629 16.8359 31.134 17.6648 31.134 18.6877C31.134 19.7107 31.9629 20.5396 32.9858 20.5396H37.7808C36.7584 20.5396 35.929 19.7107 35.929 18.6877Z" fill="#B9E9FD"/>
<path d="M28.9929 43.7842V41.3141C28.9929 40.2118 29.8328 39.3103 30.86 39.3103H41.0724C42.099 39.3103 42.9395 40.2118 42.9395 41.3141V43.7842H28.9929Z" fill="#61B6FF"/>
<path d="M37.8333 39.3103H30.86C29.8328 39.3103 28.9929 40.2118 28.9929 41.3141V43.7842H35.9662V41.3141C35.9662 40.2118 36.806 39.3103 37.8333 39.3103Z" fill="#5294E5"/>
<path d="M51.7096 41.394V43.7842H47.5415V41.394C47.5415 40.2429 48.4747 39.3103 49.6252 39.3103C50.7764 39.3103 51.7096 40.2429 51.7096 41.394Z" fill="#FC7ACD"/>
<path d="M49.6252 42.3976C48.6615 42.3976 47.8534 41.7421 47.6147 40.854C47.5684 41.0261 47.5415 41.2068 47.5415 41.3942V43.7843H51.7096V41.3942C51.7096 41.2068 51.6827 41.0261 51.6364 40.854C51.3977 41.7421 50.589 42.3976 49.6252 42.3976Z" fill="#F948B4"/>
<path d="M17.7625 43.4663H54.1699C55.5981 43.4663 56.7566 44.6248 56.7566 46.053V57.2462C56.2738 58.0208 55.8746 58.8514 55.5695 59.7273C55.166 59.9873 54.6863 60.1405 54.1699 60.1405C53.5712 60.1405 45.8899 60.1405 37.6318 60.1405C36.062 55.0648 31.3251 51.3667 25.7404 51.3667H15.1758C15.1758 49.3165 15.1758 47.2926 15.1758 46.0536C15.1758 44.6248 16.3336 43.4663 17.7625 43.4663Z" fill="#5294E5"/>
<path d="M25.5438 43.4663H17.7625C16.3336 43.4663 15.1758 44.6248 15.1758 46.053V51.3661H22.9572C22.9572 49.3159 22.9572 47.2926 22.9572 46.053C22.9572 44.6248 24.115 43.4663 25.5438 43.4663Z" fill="#4374D3"/>
<path d="M19.729 55.124H25.7404C30.5298 55.124 34.4269 59.0205 34.4269 63.8105C34.4269 64.7896 35.1801 65.5952 36.1371 65.6807C35.2533 70.6227 30.9369 74.3751 25.7404 74.3751C19.9054 74.3751 15.1758 69.6449 15.1758 63.8099C15.1758 60.2095 16.9781 57.0314 19.729 55.124Z" fill="#4374D3"/>
<path d="M27.7722 69.142C27.8772 68.8234 27.7765 68.4742 27.5165 68.2625C26.5784 67.4958 26.5967 66.5083 26.723 65.915C26.7877 65.6099 26.6681 65.2894 26.413 65.1094C25.2527 64.2927 25.1416 63.152 25.199 62.4745C25.2264 62.1449 25.0562 61.8354 24.7644 61.6792C23.6261 61.0682 23.7158 60.0294 23.9221 59.3702C24.0289 59.0297 23.9014 58.6537 23.5999 58.4626C22.2961 57.6375 22.514 56.4283 22.7539 55.7905C22.8369 55.569 22.8156 55.3279 22.7063 55.124H19.729C16.9781 57.0314 15.1758 60.2095 15.1758 63.8105C15.1758 69.6449 19.9054 74.3751 25.7404 74.3751C27.3303 74.3751 28.8373 74.0223 30.1898 73.3931C27.0813 72.491 27.4219 70.2028 27.7722 69.142Z" fill="#3957C9"/>
<path d="M58.6353 63.8099C58.6353 59.0205 62.5317 55.124 67.3212 55.124C72.1112 55.124 76.0077 59.0205 76.0077 63.8099C76.0077 64.7896 76.7609 65.5946 77.7179 65.6807C76.8347 70.6227 72.5177 74.3751 67.3212 74.3751C62.1252 74.3751 57.8082 70.6227 56.925 65.6807C57.8821 65.5952 58.6353 64.7896 58.6353 63.8099Z" fill="#4374D3"/>
<path d="M72.1509 73.2063C69.4525 72.2139 69.5306 70.1375 69.7864 69.0516C69.8779 68.6635 69.6863 68.271 69.3365 68.08C68.2709 67.4958 68.2166 66.5614 68.3173 65.9602C68.374 65.6215 68.2239 65.2827 67.9382 65.0911C66.8469 64.3593 66.6821 63.2283 66.698 62.5374C66.7059 62.2035 66.5161 61.8904 66.214 61.7463C65.1471 61.2361 65.1831 60.182 65.3467 59.4899C65.4364 59.1127 65.2637 58.73 64.9323 58.5286C64.0332 57.9811 63.927 57.2029 63.996 56.6475C64.0308 56.3649 63.9331 56.0902 63.7396 55.9004C60.7324 57.267 58.6353 60.2974 58.6353 63.8105C58.6353 64.7896 57.8821 65.5952 56.9244 65.6807C57.8082 70.6227 62.1252 74.3751 67.3212 74.3751C69.0625 74.3751 70.7037 73.9521 72.1509 73.2063Z" fill="#3957C9"/>
<path d="M10.6226 55.124H4.6106C3.88794 55.124 3.18542 55.2144 2.51343 55.3816C2.9303 56.4723 3.39539 57.5392 3.90686 58.5792L9.11987 66.5107C10.2863 67.8816 11.5454 69.1719 12.8925 70.3663C14.3207 68.5646 15.1758 66.288 15.1758 63.8105C15.1758 60.2095 13.3728 57.0314 10.6226 55.124Z" fill="#3957C9"/>
<path d="M31.0229 63.8099C31.0229 66.7274 28.6578 69.0925 25.7404 69.0925C22.8229 69.0925 20.4578 66.7274 20.4578 63.8099C20.4578 60.8925 22.8229 58.5273 25.7404 58.5273C28.6578 58.5273 31.0229 60.8925 31.0229 63.8099Z" fill="#E0F9FE"/>
<path d="M25.7404 69.0925C26.4655 69.0925 27.1564 68.946 27.7856 68.6818C27.7429 68.5206 27.652 68.3729 27.5165 68.2625C26.5784 67.4958 26.5967 66.5083 26.723 65.915C26.7877 65.6099 26.6681 65.2894 26.413 65.1094C25.2527 64.2927 25.1416 63.152 25.199 62.4745C25.2264 62.1449 25.0562 61.8354 24.7644 61.6792C23.6261 61.0682 23.7158 60.0294 23.9221 59.3702C23.9764 59.1975 23.9697 59.0156 23.9111 58.8533C21.8951 59.5979 20.4578 61.5358 20.4578 63.8099C20.4584 66.7274 22.8229 69.0925 25.7404 69.0925Z" fill="#83D3FC"/>
<path d="M72.6038 63.8099C72.6038 66.7274 70.2386 69.0925 67.3212 69.0925C64.4037 69.0925 62.0392 66.7274 62.0392 63.8099C62.0392 60.8925 64.4037 58.5273 67.3212 58.5273C70.2386 58.5273 72.6038 60.8925 72.6038 63.8099Z" fill="#E0F9FE"/>
<path d="M62.0392 63.8099C62.0392 66.7274 64.4037 69.0925 67.3212 69.0925C68.1909 69.0925 69.01 68.8813 69.7333 68.5096C69.6545 68.3314 69.5172 68.1788 69.3365 68.08C68.2709 67.4958 68.2166 66.5614 68.3173 65.9602C68.374 65.6215 68.2239 65.2827 67.9382 65.0911C66.8469 64.3593 66.6821 63.2283 66.698 62.5374C66.7059 62.2035 66.5161 61.8904 66.214 61.7463C65.1471 61.2361 65.1831 60.182 65.3467 59.4899C65.3925 59.297 65.3687 59.1035 65.2917 58.9326C63.382 59.7279 62.0392 61.6121 62.0392 63.8099Z" fill="#83D3FC"/>
<path d="M51.7096 51.803C51.7096 54.7205 49.3445 57.0856 46.427 57.0856C43.5095 57.0856 41.1444 54.7205 41.1444 51.803C41.1444 48.8861 43.5095 46.521 46.427 46.521C49.3445 46.521 51.7096 48.8861 51.7096 51.803Z" fill="#4374D3"/>
<path d="M41.1444 51.803C41.1444 54.7211 43.5095 57.0856 46.427 57.0856C47.6123 57.0856 48.7054 56.6956 49.5868 56.037L49.5959 56.0303L46.427 51.5387C44.0912 49.2029 46.427 46.521 46.427 46.521C43.5101 46.521 41.1444 48.8861 41.1444 51.803Z" fill="#3957C9"/>
<path d="M67.3218 65.7665C66.2543 65.7665 65.365 64.9041 65.365 63.8097C65.365 62.6519 66.3629 61.7492 67.5146 61.8615C68.5162 61.9622 69.2792 62.8106 69.2792 63.8097C69.2792 64.8864 68.4027 65.7665 67.3218 65.7665Z" fill="#61B6FF"/>
<path d="M25.7404 65.7667C24.6625 65.7667 23.7836 64.8884 23.7836 63.8099C23.7836 62.635 24.8053 61.7494 25.9332 61.8617C26.9336 61.9624 27.6978 62.8053 27.6978 63.8099C27.6978 64.8823 26.825 65.7667 25.7404 65.7667Z" fill="#61B6FF"/>
<path d="M4.6106 58.5278C4.37134 58.5278 4.13574 58.5449 3.90442 58.576C5.31677 61.4508 7.07947 64.1223 9.13635 66.5356C9.6167 65.7397 9.89319 64.8071 9.89319 63.8104C9.89319 60.8929 7.52808 58.5278 4.6106 58.5278Z" fill="#83D3FC"/>
<path d="M44.5886 50.7606C45.1642 49.7456 46.4545 49.3891 47.4701 49.9647L57.793 55.8186C56.8878 56.8964 56.1615 58.1281 55.6604 59.4697L45.3845 53.6421C44.3689 53.0659 44.0124 51.7762 44.5886 50.7606Z" fill="#83D3FC"/>
<path d="M51.8622 52.4556C52.4646 53.1007 52.6605 54.1115 52.0892 55.1014C51.6138 55.9248 50.6836 56.3228 49.8016 56.147L55.6604 59.4691C56.1615 58.1282 56.8872 56.8965 57.7924 55.8186L51.8622 52.4556Z" fill="#61B6FF"/>
<path d="M36.8097 50.8638H30.6519C30.0031 50.8638 29.4775 50.3383 29.4775 49.6895C29.4775 49.0406 30.0031 48.5151 30.6519 48.5151H36.8097C37.4585 48.5151 37.984 49.0406 37.984 49.6895C37.984 50.3383 37.4585 50.8638 36.8097 50.8638Z" fill="#4374D3"/>
<path d="M33.4613 49.6895C33.4613 49.0406 33.9874 48.5151 34.6356 48.5151H30.6512C30.0031 48.5151 29.4769 49.0406 29.4769 49.6895C29.4769 50.3383 30.0031 50.8638 30.6512 50.8638H34.6356C33.9874 50.8638 33.4613 50.3383 33.4613 49.6895Z" fill="#3957C9"/>
<path d="M56.7566 65.9235C57.9242 65.9235 58.8702 64.9774 58.8702 63.8104C58.8702 59.1504 62.6611 55.3589 67.3212 55.3589C71.9818 55.3589 75.7727 59.1498 75.7727 63.8104C75.7727 64.9774 76.7188 65.9235 77.8864 65.9235C79.054 65.9235 80 64.9774 80 63.8104C80 56.8195 74.3127 51.1316 67.3212 51.1316C60.3302 51.1316 54.6429 56.8188 54.6429 63.8104C54.6429 64.9774 55.589 65.9235 56.7566 65.9235Z" fill="#E0F9FE"/>
<path d="M63.8873 56.0907C63.7982 55.9326 63.6609 55.8026 63.4851 55.7251C61.1279 54.6857 62.2565 52.2284 62.2791 52.1802C57.7905 54.1339 54.6429 58.6102 54.6429 63.8098C54.6429 64.9774 55.589 65.9235 56.7566 65.9235C57.9242 65.9235 58.8702 64.9774 58.8702 63.8098C58.8702 60.3723 60.9344 57.4097 63.8873 56.0907Z" fill="#83D3FC"/>
<path d="M25.7404 51.1316H4.6106C3.45947 51.1316 2.34497 51.2885 1.28418 51.5771C1.64917 52.951 2.08801 54.2944 2.59766 55.603C3.24341 55.4449 3.91724 55.3589 4.6106 55.3589H25.7404C30.4004 55.3589 34.1919 59.1498 34.1919 63.8104C34.1919 64.9774 35.1379 65.9235 36.3055 65.9235C37.4731 65.9235 38.4192 64.9774 38.4192 63.8104C38.4192 56.8188 32.7313 51.1316 25.7404 51.1316Z" fill="#E0F9FE"/>
<path d="M22.6135 54.9841C21.5558 53.7103 21.781 52.6617 22.1887 51.9818C22.3553 51.7041 22.3322 51.377 22.1735 51.1316H4.6106C3.45947 51.1316 2.34497 51.2885 1.28418 51.5778C1.64917 52.951 2.08801 54.295 2.59766 55.603C3.24341 55.4449 3.91724 55.3589 4.6106 55.3589H22.7905C22.7649 55.2234 22.7051 55.094 22.6135 54.9841Z" fill="#83D3FC"/>
<path d="M42.9395 3.53027V1.86707C42.9395 0.840454 42.099 0 41.0724 0H30.86C29.8328 0 28.9929 0.840454 28.9929 1.86707V3.53027H42.9395Z" fill="#61B6FF"/>
<path d="M36.0382 0H30.86C29.8328 0 28.9929 0.840454 28.9929 1.86707V3.53027H34.1711V1.86707C34.1711 0.840454 35.0116 0 36.0382 0Z" fill="#5294E5"/>
<path d="M24.7882 17.1492H47.1436C47.8601 17.1492 48.446 16.5632 48.446 15.8467V4.51978C48.446 3.80322 47.8601 3.21729 47.1436 3.21729H24.7882C24.0723 3.21729 23.4863 3.80383 23.4863 4.51978V15.8467C23.4863 16.5632 24.0723 17.1492 24.7882 17.1492Z" fill="#5294E5"/>
<path d="M32.9651 15.8467V4.51978C32.9651 3.80322 33.551 3.21729 34.2676 3.21729H24.7882C24.0723 3.21729 23.4863 3.80322 23.4863 4.51978V15.8467C23.4863 16.5632 24.0723 17.1492 24.7882 17.1492H34.2676C33.551 17.1492 32.9651 16.5632 32.9651 15.8467Z" fill="#4374D3"/>
<path d="M44.0711 8.49305C43.1372 6.87623 41.0706 6.32264 39.4537 7.25587C37.8369 8.18909 37.2833 10.2564 38.2166 11.8726C39.1498 13.4894 41.217 14.043 42.8339 13.1097C44.4501 12.1765 45.0043 10.1093 44.0711 8.49305Z" fill="#83D3FC"/>
<path d="M42.1649 12.4957C42.1887 12.2443 42.0935 11.9946 41.897 11.8365C40.5982 10.7922 40.2069 9.36523 40.0903 8.67676C40.0495 8.43506 39.8822 8.23914 39.66 8.1366C39.339 7.98828 39.1315 7.78931 38.9996 7.57568C37.7442 8.60657 37.3792 10.4205 38.2178 11.8732C39.054 13.3221 40.8002 13.9136 42.3181 13.3496C42.16 13.0518 42.1423 12.7362 42.1649 12.4957Z" fill="#61B6FF"/>
<path d="M43.4216 14.1273C41.2469 15.3828 38.4558 14.6351 37.2003 12.4604C35.9448 10.2857 36.6925 7.49459 38.8678 6.2391C41.0425 4.9836 43.833 5.73128 45.0885 7.90597C46.3446 10.0806 45.5969 12.8718 43.4216 14.1273ZM40.0421 8.27279C38.9886 8.88131 38.6261 10.2326 39.2346 11.2861C39.8425 12.3396 41.1945 12.7015 42.2479 12.0936C43.3014 11.4857 43.6633 10.1337 43.0554 9.08028C42.4469 8.02682 41.095 7.66488 40.0421 8.27279Z" fill="#E0F9FE"/>
<path d="M37.2009 12.4603C38.4564 14.635 41.2469 15.3827 43.4222 14.1272C42.2388 13.8104 42.1185 12.9919 42.1649 12.4951C42.1759 12.3792 42.16 12.2638 42.1222 12.1576C41.0895 12.6697 39.8187 12.2986 39.2346 11.286C38.6481 10.2704 38.9661 8.9801 39.9329 8.34351C39.8596 8.25684 39.7668 8.18604 39.66 8.1366C38.4198 7.56348 38.8678 6.23901 38.8678 6.23901C36.6925 7.49451 35.9448 10.2856 37.2009 12.4603Z" fill="#B9E9FD"/>
<path d="M33.714 8.49305C32.7802 6.87623 30.7135 6.32264 29.0967 7.25587C27.4799 8.18909 26.9263 10.2564 27.8595 11.8726C28.7927 13.4894 30.86 14.0436 32.4768 13.1097C34.093 12.1765 34.6472 10.1093 33.714 8.49305Z" fill="#83D3FC"/>
<path d="M31.8078 12.4957C31.831 12.2443 31.7358 11.9946 31.5393 11.8365C30.2411 10.7922 29.8492 9.36523 29.7326 8.67676C29.6918 8.43506 29.5251 8.23914 29.303 8.1366C28.9813 7.98828 28.7738 7.78931 28.6419 7.57568C27.3871 8.60657 27.0215 10.4205 27.8601 11.8732C28.6969 13.3221 30.4431 13.9136 31.9604 13.3496C31.803 13.0518 31.7853 12.7362 31.8078 12.4957Z" fill="#61B6FF"/>
<path d="M33.0646 14.1273C30.8899 15.3828 28.0988 14.6351 26.8433 12.4604C25.5878 10.2857 26.3355 7.49459 28.5102 6.2391C30.6848 4.9836 33.476 5.73128 34.7315 7.90597C35.987 10.0806 35.2393 12.8718 33.0646 14.1273ZM29.6845 8.27279C28.631 8.88131 28.2691 10.2326 28.877 11.2861C29.4855 12.3396 30.8368 12.7015 31.8903 12.0936C32.9437 11.4857 33.3057 10.1337 32.6978 9.08028C32.0899 8.02682 30.7379 7.66488 29.6845 8.27279Z" fill="#E0F9FE"/>
<path d="M26.8433 12.4603C28.0988 14.635 30.8899 15.3827 33.0646 14.1272C31.8811 13.8104 31.7615 12.9919 31.8079 12.4951C31.8189 12.3792 31.803 12.2638 31.7652 12.1576C30.7318 12.6697 29.4617 12.2986 28.877 11.286C28.291 10.2704 28.6084 8.9801 29.5758 8.34351C29.5026 8.25684 29.4092 8.18604 29.303 8.1366C28.0622 7.56348 28.5102 6.23901 28.5102 6.23901C26.3355 7.49451 25.5878 10.2856 26.8433 12.4603Z" fill="#B9E9FD"/>
</g>
<defs>
<clipPath id="clip0_1_335">
<rect width="80" height="80" fill="white"/>
</clipPath>
</defs>
</svg>
