<svg width="121" height="121" viewBox="0 0 121 121" fill="none" xmlns="http://www.w3.org/2000/svg">
<g clip-path="url(#clip0_1_532)">
<path d="M3.00002 91C4.5 95 2.91853 91.0549 3.00002 91C9.84541 115.058 31.6691 120.149 57.9219 120.149C80.94 120.149 100.843 119.054 110 99.5C81.4529 72.3555 36.934 67.9836 3.00002 91Z" fill="#A2EC00"/>
<path d="M57.9219 120.149C80.9373 120.149 100.842 119.05 110 99.5C108 97 98.5 90 95.5 88.5C93.5994 92.6574 99.214 89.1405 99.1417 93.6989C99.0666 98.5109 96.7064 102.999 92.7229 105.701C88.7358 108.405 83.6903 108.932 79.1868 107.223C69.4996 103.546 58.235 104.487 49.0083 110.745C46.0768 112.734 43.5701 115.112 41.5056 117.764C46.7076 119.313 52.2172 120.149 57.9219 120.149Z" fill="#D7F9B7"/>
<path d="M3 90.706C5.69257 100.172 10.4399 96.4052 17.1873 103.197C20.6443 99.7093 22.8453 95.3514 23.585 90.706C24.2195 86.7226 26.4296 83.1318 29.8188 80.833C33.8051 78.1294 38.8505 77.6021 43.354 79.3113C53.0412 82.9881 62.2733 87.7576 71.5 81.5C74.3711 79.5527 79.4602 84.0854 81.5 81.5C54.426 71.432 25.2006 75.5678 3 90.706Z" fill="#48D85C"/>
<path d="M14.4618 13.398H10.3502C8.58228 13.398 7.13574 11.9515 7.13574 10.1836V6.91058C7.13574 5.1427 8.58228 3.69617 10.3502 3.69617H14.4618C16.2297 3.69617 17.6762 5.1427 17.6762 6.91058V10.1836C17.6762 11.9515 16.2297 13.398 14.4618 13.398Z" fill="#FC9949"/>
<path d="M13.9271 0.149414H10.1158C8.47699 0.149414 7.13666 1.49066 7.13666 3.12946V4.5119C7.13666 6.1507 8.47699 7.49194 10.1158 7.49194H13.9271C15.5659 7.49194 16.9072 6.1507 16.9072 4.5119V3.12946C16.9072 1.49066 15.5659 0.149414 13.9271 0.149414Z" fill="#FBB362"/>
<path d="M16.7689 3.12573C15.4176 3.12573 14.3126 4.23077 14.3126 5.58209V7.51385C14.3126 7.51385 12.0219 9.00433 12.0219 12.4824H17.2935C17.2935 12.4824 19.2253 9.91528 19.2253 7.51385V5.58209C19.2253 4.23077 18.1202 3.12573 16.7689 3.12573Z" fill="#FACE7A"/>
<path d="M79.4981 67.2145L78.6787 71.2428C78.3272 72.975 79.456 74.6806 81.1891 75.0331L84.3953 75.685C86.1284 76.0374 87.834 74.9077 88.1865 73.1755L89.005 69.1472C89.3574 67.4141 88.2277 65.7085 86.4955 65.3569L83.2884 64.7041C81.5562 64.3526 79.8497 65.4814 79.4981 67.2145Z" fill="#FC9949"/>
<path d="M57.7168 21.7614C33.773 21.7614 40.6944 21.7614 25.373 21.7614C22.9872 21.7614 21.0362 23.7123 21.0362 26.0973V41.9323C21.3072 41.8911 21.5846 41.87 21.8675 41.87H61.2224C61.5052 41.87 61.7827 41.8911 62.0536 41.9323V26.0973C62.0536 23.7133 60.1027 21.7614 57.7168 21.7614Z" fill="#FACE7A"/>
<path d="M58.549 34.4405C56.0981 34.4405 54.1115 32.4538 54.1115 30.0038C54.1115 29.7338 54.1398 29.4701 54.1865 29.2137H28.8859C28.3183 31.0118 26.6392 32.3156 24.6534 32.3156C23.1593 32.3156 21.84 31.5749 21.0362 30.4424V41.9323C21.3072 41.8911 21.5846 41.87 21.8675 41.87H61.2224C61.5052 41.87 61.7827 41.8911 62.0536 41.9323V32.7175C61.2425 33.7639 59.9754 34.4405 58.549 34.4405Z" fill="#FBB362"/>
<path d="M27.3954 81.5278V111.368C29.3931 112.624 31.4732 113.76 33.6265 114.767H38.4532V82.3262C38.4532 80.7322 39.5948 79.3223 41.1741 79.1026C43.04 78.8417 44.6367 80.2836 44.6367 82.0982V114.767H55.6944V36.808C49.153 36.808 33.9845 36.808 27.3964 36.808V81.5278H27.3954Z" fill="#E0F9FE"/>
<path d="M27.3954 36.808L27 116C29 117 30.5 117.5 32.5 118L38.5 119L38.4532 82.3262C38.4532 80.7322 39.5958 79.3223 41.1741 79.1026C41.6301 79.0385 42.0686 79.0779 42.4733 79.1978C40.1414 76.6682 41.23 73.0793 41.23 73.0793L37.6109 68.1236V39.8018C37.6109 39.5738 37.5523 39.3495 37.4415 39.1508C36.873 38.1346 36.8913 37.3655 37.1138 36.808C33.2951 36.808 29.7822 36.808 27.3954 36.808Z" fill="#B9E9FD"/>
<path d="M55.6944 114.947V114.767H44.6367V118.601C48.9012 119.612 53.3488 120.149 57.9219 120.149C58.6909 120.149 59.4554 120.129 60.2171 120.1C59.6522 119.689 59.0278 119.327 58.3522 119.015C56.7518 118.274 55.6944 116.711 55.6944 114.947Z" fill="#83D3FC"/>
<path d="M38.5 119V116H27C30.5 117.5 34.5 118.5 38.5 119Z" fill="#83D3FC"/>
<path d="M41.2785 6.00146C49.9211 6.00146 56.9276 13.2643 56.9276 22.2219C56.9276 27.5603 54.4392 32.2963 50.5995 35.2526C47.6689 35.8742 44.535 36.2111 41.2785 36.2111C38.0211 36.2111 34.8881 35.8742 31.9575 35.2526C28.1178 32.2963 25.6294 27.5603 25.6294 22.2219C25.6303 13.2643 32.6359 6.00146 41.2785 6.00146Z" fill="#E0F9FE"/>
<path d="M25.6303 22.2227C25.6303 27.5612 28.1187 32.2963 31.9575 35.2525C33.7712 35.637 35.6627 35.9126 37.6118 36.0673C37.6146 36.0646 37.6173 36.0609 37.6201 36.0582C37.8883 35.7945 37.9954 35.4219 37.9652 35.0465C37.9506 34.8607 38.0046 34.7078 38.087 34.5842C38.3085 34.2555 38.3314 33.8408 38.2225 33.459C38.1163 33.0854 38.1959 32.7852 38.3305 32.5599C38.5814 32.1397 38.6015 31.6261 38.3671 31.1976C33.5734 22.4333 37.1522 16.6105 38.7288 14.6751C39.0336 14.3007 39.1179 13.7907 38.9384 13.343C38.7617 12.9017 38.8972 12.5319 39.095 12.2618C39.3605 11.8983 39.4557 11.4314 39.2863 11.0148C37.8654 7.50928 41.2794 6.00232 41.2794 6.00232C32.6359 6.0014 25.6303 13.2643 25.6303 22.2227Z" fill="#B9E9FD"/>
<path d="M29.4315 16.2709C29.7053 15.6401 30.2097 15.1393 30.8387 14.8619C32.4665 14.145 36.1506 12.8248 41.218 12.8248C46.2864 12.8248 49.9705 14.145 51.5983 14.8619C52.2273 15.1393 52.7317 15.6401 53.0055 16.2709C53.7553 18.0021 54.9528 21.9215 53.2224 26.7125C50.8741 33.2155 41.219 33.3757 41.219 33.3757C41.219 33.3757 31.5638 33.2155 29.2146 26.7125C27.4842 21.9215 28.6817 18.0021 29.4315 16.2709Z" fill="#1D319B"/>
<path d="M38.1803 33.0104C38.1977 32.8365 38.2554 32.6863 38.3305 32.56C38.5813 32.1398 38.6015 31.6262 38.3671 31.1968C33.5734 22.4333 37.1522 16.6106 38.7287 14.6743C39.0336 14.3007 39.1178 13.7908 38.9384 13.3431C38.8789 13.1948 38.8569 13.0556 38.8578 12.9247C35.009 13.2424 32.2019 14.2623 30.8396 14.8629C30.2098 15.1393 29.7053 15.6401 29.4325 16.2709C28.6817 18.0022 27.4842 21.9216 29.2146 26.7134C30.7051 30.8406 35.1399 32.4117 38.1803 33.0104Z" fill="#162680"/>
<path d="M41.2007 34.4404C40.7768 34.4331 30.7811 34.1859 28.213 27.075C26.3838 22.0112 27.5795 17.8676 28.4547 15.8479C28.8338 14.9718 29.5277 14.276 30.4094 13.8878C36.8391 11.0542 45.5897 11.0506 52.0277 13.8878C52.9085 14.276 53.6024 14.9718 53.9824 15.8479C54.8576 17.8676 56.0524 22.0112 54.2241 27.075C51.6551 34.1859 41.6603 34.4331 41.2364 34.4404C41.2208 34.4404 41.2163 34.4404 41.2007 34.4404ZM31.2681 15.8369C30.879 16.0081 30.5742 16.313 30.4094 16.6939C29.6596 18.4242 28.6369 21.9792 30.2162 26.3508C32.2459 31.9704 40.7622 32.2981 41.2181 32.3109C41.6594 32.2972 50.1958 31.9566 52.2209 26.3508C53.7993 21.9792 52.7775 18.4242 52.0277 16.6939C51.862 16.313 51.5571 16.0081 51.169 15.8369C45.283 13.2432 37.1586 13.2414 31.2681 15.8369Z" fill="#83D3FC"/>
<path d="M38.2664 34.1172C38.3012 33.9012 38.2838 33.675 38.2225 33.459C38.1154 33.0854 38.1959 32.7852 38.3305 32.5599C38.4358 32.3823 38.4981 32.1882 38.52 31.9905C35.7121 31.4604 31.5547 30.056 30.2162 26.3508C28.6369 21.9792 29.6596 18.4242 30.4085 16.6938C30.5742 16.313 30.879 16.0081 31.2681 15.8369C33.5954 14.8115 36.2715 14.1926 39.0199 13.9775C39.0446 13.766 39.0199 13.5481 38.9375 13.343C38.7608 12.9008 38.8963 12.5319 39.0932 12.2618C39.192 12.1272 39.2662 11.978 39.3138 11.8232C36.1662 12.021 33.0864 12.7076 30.4094 13.8878C29.5277 14.2759 28.8338 14.9717 28.4547 15.8479C27.5795 17.8676 26.3838 22.0112 28.213 27.075C29.9342 31.8403 34.9898 33.5231 38.2664 34.1172Z" fill="#61B6FF"/>
<path d="M41.2785 39.5729C44.5964 39.5729 47.8666 39.2359 50.9977 38.5722C52.0332 38.3525 52.6942 37.3344 52.4745 36.2989C52.2557 35.2635 51.2367 34.6025 50.2021 34.8222C47.3319 35.431 44.3299 35.7395 41.2785 35.7395C38.227 35.7395 35.225 35.431 32.3548 34.8222C31.3185 34.6025 30.3022 35.2635 30.0825 36.2989C29.8628 37.3344 30.5238 38.3525 31.5592 38.5722C34.6913 39.2359 37.9606 39.5729 41.2785 39.5729Z" fill="#83D3FC"/>
<path d="M31.5602 38.5722C33.5121 38.986 35.518 39.2726 37.556 39.43C37.5276 39.3339 37.49 39.2396 37.4406 39.1508C36.5498 37.5569 37.1009 36.5672 37.6201 36.0581C37.7501 35.9309 37.8407 35.778 37.8984 35.6114C36.0124 35.4685 34.1575 35.2049 32.3558 34.8222C31.3194 34.6025 30.3022 35.2635 30.0825 36.2989C29.8628 37.3344 30.5247 38.3525 31.5602 38.5722Z" fill="#61B6FF"/>
<path d="M38.4514 61.7937H35.9071C35.3807 61.7937 34.9531 61.3671 34.9531 60.8397C34.9531 60.3133 35.3798 59.8857 35.9071 59.8857H38.4514C38.9778 59.8857 39.4053 60.3133 39.4053 60.8397C39.4053 61.3671 38.9778 61.7937 38.4514 61.7937Z" fill="#83D3FC"/>
<path d="M48.6924 57.7708H34.3974C33.5359 57.7708 32.8309 57.0659 32.8309 56.2043V45.955C32.8309 45.0935 33.5359 44.3885 34.3974 44.3885H48.6924C49.554 44.3885 50.2589 45.0935 50.2589 45.955V56.2043C50.2589 57.0659 49.554 57.7708 48.6924 57.7708Z" fill="#1D319B"/>
<path d="M37.3756 56.2043V45.955C37.3756 45.0935 38.0806 44.3885 38.9421 44.3885H34.3974C33.5359 44.3885 32.8309 45.0935 32.8309 45.955V56.2043C32.8309 57.0659 33.5359 57.7708 34.3974 57.7708H38.9421C38.0806 57.7708 37.3756 57.0659 37.3756 56.2043Z" fill="#162680"/>
<path d="M48.6924 58.6809H34.3974C33.0314 58.6809 31.92 57.5704 31.92 56.2035V45.9551C31.92 44.5891 33.0314 43.4777 34.3974 43.4777H48.6924C50.0584 43.4777 51.1699 44.5891 51.1699 45.9551V56.2035C51.1699 57.5704 50.0584 58.6809 48.6924 58.6809ZM34.3974 45.2996C34.0358 45.2996 33.741 45.5934 33.741 45.9551V56.2044C33.741 56.566 34.0358 56.8599 34.3974 56.8599H48.6924C49.0541 56.8599 49.3489 56.566 49.3489 56.2044V45.9551C49.3489 45.5934 49.0541 45.2996 48.6924 45.2996H34.3974Z" fill="#61B6FF"/>
<path d="M37.5935 56.8599H34.3974C34.0358 56.8599 33.741 56.566 33.741 56.2044V45.9551C33.741 45.5934 34.0358 45.2996 34.3974 45.2996H37.588C36.5269 44.2266 37.2227 43.6479 37.501 43.4777H34.3965C33.0305 43.4777 31.9191 44.5891 31.9191 45.9551V56.2044C31.9191 57.5704 33.0305 58.6818 34.3965 58.6818H37.5944C36.2724 57.6042 37.4891 56.9158 37.5935 56.8599Z" fill="#5294E5"/>
<path d="M49.1713 61.7937C48.6686 61.7937 48.2603 61.3863 48.2603 60.8828V58.6379C48.2603 58.1353 48.6677 57.7269 49.1713 57.7269C49.6739 57.7269 50.0822 58.1353 50.0822 58.6379V60.8828C50.0822 61.3863 49.6748 61.7937 49.1713 61.7937Z" fill="#B9E9FD"/>
<path d="M45.7444 61.7937C45.2418 61.7937 44.8335 61.3863 44.8335 60.8828V58.6379C44.8335 58.1353 45.2409 57.7269 45.7444 57.7269C46.248 57.7269 46.6554 58.1353 46.6554 58.6379V60.8828C46.6554 61.3863 46.2471 61.7937 45.7444 61.7937Z" fill="#B9E9FD"/>
<path d="M37.1797 50.2993C36.5223 50.2993 35.9648 49.7646 35.9648 49.0844C35.9648 48.3043 36.6835 47.7468 37.4159 47.8942C37.9918 48.0114 38.3937 48.5094 38.3937 49.0844C38.3937 49.7628 37.8389 50.2993 37.1797 50.2993Z" fill="#FACE7A"/>
<path d="M37.1797 54.29C36.5251 54.29 35.9648 53.7581 35.9648 53.0742C35.9648 52.2996 36.6789 51.7357 37.4159 51.884C37.9899 52.0003 38.3937 52.4992 38.3937 53.0742C38.3937 53.7462 37.8444 54.29 37.1797 54.29Z" fill="#FC7EA8"/>
<path d="M117.867 40.0005H110.731V43.8576C110.731 46.2361 108.803 48.1642 106.424 48.1642V48.1707C104.001 48.1707 102.046 50.1711 102.119 52.61C102.189 54.9675 104.247 56.7849 106.604 56.7849H117.867C119.321 56.7849 120.5 55.6057 120.5 54.1518V42.6335C120.5 41.1788 119.321 40.0005 117.867 40.0005Z" fill="#F948B4"/>
<path d="M112.746 54.1517V42.6326C112.746 41.1787 113.926 39.9995 115.379 39.9995H110.731V43.8575C110.731 46.2361 108.803 48.1642 106.424 48.1642V48.1706C104.001 48.1706 102.046 50.171 102.119 52.61C102.189 54.9675 104.246 56.7848 106.604 56.7848H115.379C113.926 56.7848 112.746 55.6056 112.746 54.1517Z" fill="#F6159C"/>
<path d="M106.424 39.55H102.117V52.4773C102.117 50.0988 104.045 48.1697 106.424 48.1697V48.1642C108.803 48.1642 110.731 46.2361 110.731 43.8567C110.731 41.4781 108.803 39.55 106.424 39.55Z" fill="#F948B4"/>
<path d="M105.549 22.7656H90.3929C90.4249 23.0934 90.4121 23.4312 90.3462 23.7718L88.9601 39.55H106.424C108.803 39.55 110.731 41.4781 110.731 43.8575C110.731 42.3076 110.731 28.6497 110.731 27.9484C110.731 25.0856 108.411 22.7656 105.549 22.7656Z" fill="#FC7ACD"/>
<path d="M98.975 34.3553L99.6562 25.9481C99.9336 24.5171 100.877 23.3599 102.124 22.7648H90.3929C90.4249 23.0934 90.413 23.4313 90.3462 23.7719L88.9601 39.55H102.297C100.043 39.0007 98.5099 36.7522 98.975 34.3553Z" fill="#F948B4"/>
<path d="M88.8575 38.7361C87.6426 38.6436 86.5815 39.5564 86.49 40.7722L80.8751 115.373C82.4461 114.688 83.9805 113.936 85.4738 113.117L90.8937 41.1036C90.9852 39.8878 90.0743 38.8276 88.8575 38.7361Z" fill="#E0F9FE"/>
<path d="M87.5218 58.2909C86.5422 58.2103 85.7219 57.6381 85.2815 56.837L80.876 115.373C82.4461 114.687 83.9805 113.936 85.4738 113.117L89.6559 57.5566C89.0965 58.0693 88.3366 58.3577 87.5218 58.2909Z" fill="#B9E9FD"/>
<path d="M88.6955 43.6983C88.6259 43.6983 88.5554 43.6956 88.4849 43.6901C86.9651 43.5756 85.8253 42.2509 85.9397 40.7311L87.3982 21.353C87.5126 19.8323 88.842 18.6953 90.3581 18.8079C91.8779 18.9223 93.0168 20.2471 92.9032 21.7668L91.4439 41.1449C91.3349 42.5951 90.1255 43.6983 88.6955 43.6983Z" fill="#B9E9FD"/>
<path d="M89.4966 34.587C89.4206 34.587 89.3446 34.5833 89.2686 34.5778C87.9264 34.4771 86.8589 33.5048 86.5779 32.257L85.9397 40.7311C85.8262 42.2509 86.9651 43.5756 88.4849 43.6901C88.5554 43.6956 88.6259 43.6983 88.6955 43.6983C90.1255 43.6983 91.3359 42.5951 91.4448 41.1449L92.0463 33.1514C91.5171 34.0184 90.5632 34.587 89.4966 34.587Z" fill="#83D3FC"/>
<path d="M55.6944 36.808C55.6944 36.808 64.7847 37.6631 66.6981 55.6221L67.4424 60.0203C67.4434 60.0258 67.4443 60.0313 67.4452 60.0358C67.5706 60.7435 68.1181 61.3029 68.8093 61.4998L78.2905 64.2885L77.0756 73.1764L66.1131 70.5223C62.7614 69.7239 59.9836 67.3051 58.8768 64.0422C58.8347 63.9177 58.7944 63.7932 58.7568 63.6677L55.6935 53.5164V36.808H55.6944Z" fill="#E0F9FE"/>
<path d="M66.5379 54.2891C64.3278 37.6238 55.6944 36.809 55.6944 36.809V53.5164L58.192 61.7946C58.766 51.0829 66.5159 54.28 66.5379 54.2891Z" fill="#B9E9FD"/>
<path d="M16.9117 30.1631L16.9676 12.8248H7.9057V34.77C7.9057 37.2648 9.073 39.615 11.0606 41.1229L27.3964 53.5164V36.8089L18.329 32.429C17.4601 32.0088 16.909 31.1281 16.9117 30.1631Z" fill="#E0F9FE"/>
<path d="M16.8522 45.5175L27.3954 53.5164V36.809L18.329 32.4291C18.329 32.4291 23.0998 40.8583 16.8522 45.5175Z" fill="#B9E9FD"/>
<path d="M16.9676 14.481H7.9057C6.99109 14.481 6.24951 13.7394 6.24951 12.8248C6.24951 11.9102 6.99109 11.1696 7.9057 11.1696H16.9676C17.8822 11.1696 18.6229 11.9102 18.6229 12.8248C18.6229 13.7394 17.8822 14.481 16.9676 14.481Z" fill="#83D3FC"/>
<path d="M10.72 12.8249C10.72 11.9103 11.4616 11.1687 12.3762 11.1687H7.9057C6.99109 11.1687 6.24951 11.9103 6.24951 12.8249C6.24951 13.7395 6.99109 14.4811 7.9057 14.4811H12.3762C11.4616 14.4811 10.72 13.7395 10.72 12.8249Z" fill="#61B6FF"/>
<path d="M55.6944 55.1725C54.7798 55.1725 54.0382 54.431 54.0382 53.5164V36.808C54.0382 35.8943 54.7798 35.1527 55.6944 35.1527C56.609 35.1527 57.3506 35.8934 57.3506 36.808V53.5164C57.3497 54.431 56.609 55.1725 55.6944 55.1725Z" fill="#83D3FC"/>
<path d="M27.3954 55.1725C26.4808 55.1725 25.7402 54.431 25.7402 53.5164V36.8089C25.7402 35.8943 26.4808 35.1527 27.3954 35.1527C28.311 35.1527 29.0516 35.8943 29.0516 36.8089V53.5164C29.0516 54.431 28.311 55.1725 27.3954 55.1725Z" fill="#83D3FC"/>
<path d="M55.6944 45.1622C54.7798 45.1622 54.0382 44.4216 54.0382 43.507V53.5164C54.0382 54.431 54.7798 55.1726 55.6944 55.1726C56.609 55.1726 57.3506 54.431 57.3506 53.5164V43.507C57.3497 44.4216 56.609 45.1622 55.6944 45.1622Z" fill="#61B6FF"/>
<path d="M27.3954 45.1622C26.4808 45.1622 25.7402 44.4216 25.7402 43.507V53.5164C25.7402 54.431 26.4808 55.1726 27.3954 55.1726C28.311 55.1726 29.0516 54.431 29.0516 53.5164V43.507C29.0516 44.4216 28.311 45.1622 27.3954 45.1622Z" fill="#61B6FF"/>
<path d="M55.4738 65.9612H27.6161C26.7967 65.9612 26.1256 66.6313 26.1256 67.4507V69.7167C26.1256 70.5361 26.7967 71.2062 27.6161 71.2062H55.4738C56.2932 71.2062 56.9642 70.5361 56.9642 69.7167V67.4507C56.9642 66.6313 56.2932 65.9612 55.4738 65.9612Z" fill="#83D3FC"/>
<path d="M48.2603 69.7167V67.4507C48.2603 66.6313 48.9314 65.9612 49.7508 65.9612H27.6161C26.7967 65.9612 26.1256 66.6313 26.1256 67.4507V69.7167C26.1256 70.5361 26.7967 71.2062 27.6161 71.2062H49.7508C48.9314 71.2062 48.2603 70.5361 48.2603 69.7167Z" fill="#61B6FF"/>
<path d="M92.3741 70.3776L91.6151 74.1121C91.2883 75.7179 89.7072 76.7653 88.1013 76.4384L84.6956 75.7463C83.0897 75.4203 82.0424 73.8392 82.3692 72.2325L83.1282 68.498C83.4541 66.8922 85.0352 65.8448 86.642 66.1717L90.0477 66.8638C91.6536 67.1907 92.7009 68.7709 92.3741 70.3776Z" fill="#FBB362"/>
<path d="M90.0239 66.9994C89.7548 68.3241 88.451 69.1866 87.1272 68.9174L85.2339 68.5329C85.2339 68.5329 83.3168 70.4811 79.9083 69.7881L80.9593 64.6218C80.9593 64.6218 83.8597 63.2402 86.2126 63.7181L88.1059 64.1036C89.4297 64.3727 90.2931 65.6755 90.0239 66.9994Z" fill="#FACE7A"/>
<path d="M77.6744 74.861C77.4107 74.9242 77.1269 74.9223 76.8467 74.8445C75.9651 74.5991 75.4496 73.6864 75.6959 72.8056L78.1788 63.8911C78.4242 63.0104 79.3379 62.495 80.2186 62.7403C81.0993 62.9857 81.6148 63.8994 81.3694 64.7801L78.8865 73.6937C78.719 74.2943 78.2411 74.7255 77.6744 74.861Z" fill="#83D3FC"/>
<path d="M79.2088 69.6535C78.9204 69.7222 78.611 69.7213 78.3061 69.6361C77.5838 69.4347 77.0885 68.8231 76.9997 68.1237L75.695 72.8047C75.4497 73.6864 75.9651 74.5992 76.8458 74.8445C77.126 74.9233 77.4098 74.9242 77.6744 74.861C78.2402 74.7255 78.7181 74.2943 78.8856 73.6937L80.1802 69.0465C79.9303 69.3486 79.5879 69.5629 79.2088 69.6535Z" fill="#61B6FF"/>
<path d="M78.2905 32.3961C76.5666 32.3961 75.1091 30.9945 75.1091 29.2147C75.1091 27.737 76.129 26.4104 77.6671 26.0936C79.6006 25.7064 81.472 27.1831 81.472 29.2147C81.472 30.9633 80.0474 32.3961 78.2905 32.3961Z" fill="#4374D3"/>
<path d="M78.2905 11.729C76.5666 11.729 75.1091 10.3273 75.1091 8.54756C75.1091 7.06989 76.129 5.7433 77.6671 5.42652C79.6006 5.03925 81.472 6.516 81.472 8.54756C81.472 10.2962 80.0474 11.729 78.2905 11.729Z" fill="#FADDA0"/>
<path d="M66.992 17.9765C65.6581 17.9765 64.6061 16.888 64.6061 15.5897C64.6061 14.4948 65.3605 13.4941 66.5278 13.2515C67.9734 12.9603 69.3788 14.0672 69.3788 15.5897C69.3788 16.9255 68.2911 17.9765 66.992 17.9765Z" fill="#83D3FC"/>
<path d="M49.4771 19.6574C49.4771 21.0197 48.3729 22.1238 47.0106 22.1238C45.6483 22.1238 44.5442 21.0197 44.5442 19.6574C44.5442 18.2951 45.6483 17.1901 47.0106 17.1901C48.3729 17.1901 49.4771 18.2951 49.4771 19.6574Z" fill="#3957C9"/>
<path d="M44.0443 23.2554C44.0443 23.9457 43.4849 24.5051 42.7946 24.5051C42.1043 24.5051 41.5449 23.9457 41.5449 23.2554C41.5449 22.566 42.1043 22.0057 42.7946 22.0057C43.4849 22.0057 44.0443 22.566 44.0443 23.2554Z" fill="#3957C9"/>
<path d="M25.4683 18.0315C25.1112 19.3929 24.9199 20.8257 24.9199 22.3052C24.9199 23.5476 25.0554 24.757 25.3099 25.9188C25.4719 26.6567 26.3737 26.9478 26.9304 26.437C28.0345 25.4244 28.9967 23.7746 28.9967 21.9106C28.9967 20.1647 28.1169 18.6074 27.1071 17.5838C26.5779 17.0473 25.6596 17.3027 25.4683 18.0315Z" fill="#61B6FF"/>
<path d="M26.8416 21.9957C26.0817 21.9957 25.4042 21.6423 24.9647 21.0912C24.9354 21.4922 24.9199 21.8969 24.9199 22.3043C24.9199 23.5466 25.0554 24.756 25.3108 25.9188C25.4719 26.6558 26.3737 26.9478 26.9304 26.437C28.0354 25.4244 28.9967 23.7737 28.9967 21.9097C28.9967 21.5471 28.9583 21.1919 28.8887 20.8477C28.4666 21.5361 27.7076 21.9957 26.8416 21.9957Z" fill="#5294E5"/>
<path d="M57.0887 18.0315C57.4467 19.3929 57.6371 20.8257 57.6371 22.3052C57.6371 23.5476 57.5026 24.757 57.2471 25.9188C57.0851 26.6567 56.1833 26.9478 55.6266 26.437C54.5225 25.4244 53.5603 23.7746 53.5603 21.9106C53.5603 20.1647 54.4401 18.6074 55.4509 17.5838C55.98 17.0473 56.8983 17.3027 57.0887 18.0315Z" fill="#61B6FF"/>
<path d="M55.7164 21.9957C56.4763 21.9957 57.1528 21.6423 57.5932 21.0912C57.6216 21.4922 57.6371 21.8969 57.6371 22.3043C57.6371 23.5466 57.5026 24.756 57.2471 25.9188C57.0851 26.6558 56.1833 26.9478 55.6266 26.437C54.5225 25.4244 53.5603 23.7737 53.5603 21.9097C53.5603 21.5471 53.5988 21.1919 53.6683 20.8477C54.0904 21.5361 54.8494 21.9957 55.7164 21.9957Z" fill="#5294E5"/>
<path d="M46.1546 71.2502V66.0097C46.1546 65.0035 45.3306 64.1796 44.3245 64.1796H38.7663C37.7592 64.1796 36.9362 65.0035 36.9362 66.0097V71.2502C36.9362 72.2563 37.7592 73.0794 38.7663 73.0794H44.3245C45.3306 73.0794 46.1546 72.2563 46.1546 71.2502Z" fill="#61B6FF"/>
<path d="M41.2291 64.1796H38.7654C37.7592 64.1796 36.9362 65.0035 36.9362 66.0097V71.2502C36.9362 72.2563 37.7592 73.0794 38.7654 73.0794H41.2291C40.0554 72.1712 41.2291 71.2987 41.2291 71.2987V65.9612C40.1762 64.9083 41.2291 64.1796 41.2291 64.1796Z" fill="#5294E5"/>
<path d="M43.6754 65.9612H39.4145C39.0657 65.9612 38.78 66.2459 38.78 66.5956V70.6642C38.78 71.014 39.0657 71.2996 39.4145 71.2996H43.6754C44.0242 71.2996 44.3089 71.014 44.3089 70.6642V66.5956C44.3098 66.2459 44.0242 65.9612 43.6754 65.9612Z" fill="#5294E5"/>
<path d="M38.78 66.5956V70.6642C38.78 71.014 39.0657 71.2996 39.4145 71.2996H41.2291V65.9612H39.4145C39.0657 65.9612 38.78 66.2459 38.78 66.5956Z" fill="#4374D3"/>
<path d="M47.44 51.0802C47.44 52.838 46.0145 54.2635 44.2558 54.2635C42.498 54.2635 41.0725 52.838 41.0725 51.0802C41.0725 49.3215 42.498 47.896 44.2558 47.896C46.0145 47.896 47.44 49.3215 47.44 51.0802Z" fill="#4374D3"/>
<path d="M45.3398 52.0973C44.1789 52.0973 43.2386 51.1561 43.2386 49.9961C43.2386 49.0019 43.9308 48.1715 44.8582 47.9536C42.8825 47.5746 41.0725 49.0916 41.0725 51.0801C41.0725 52.8389 42.498 54.2634 44.2558 54.2634C46.2443 54.2634 47.7614 52.4552 47.3823 50.4777C47.1644 51.4051 46.3331 52.0973 45.3398 52.0973Z" fill="#3957C9"/>
</g>
<defs>
<clipPath id="clip0_1_532">
<rect width="120" height="120" fill="white" transform="translate(0.5 0.149414)"/>
</clipPath>
</defs>
</svg>
