<svg width="101" height="101" viewBox="0 0 101 101" fill="none" xmlns="http://www.w3.org/2000/svg">
<g clip-path="url(#clip0_1_429)">
<path d="M82.4191 86.5043C91.3058 77.8136 96.8242 65.6928 96.8242 52.2803C96.8242 25.8437 75.3924 4.41199 48.955 4.41199C22.5177 4.41199 1.08594 25.8437 1.08594 52.2803C1.08594 58.7302 2.36462 64.8795 4.67633 70.4947L82.4191 86.5043Z" fill="#162680"/>
<path d="M41.1273 11.1716C40.5169 11.1716 39.9333 10.8237 39.6617 10.2324C39.2894 9.42368 39.6434 8.46695 40.4521 8.09464C45.8278 5.62272 51.5437 4.22959 57.4427 3.95417C58.3362 3.91755 59.0869 4.59961 59.1288 5.4892C59.17 6.37803 58.4826 7.13257 57.5938 7.17453C52.1098 7.43012 46.7967 8.72483 41.7994 11.0236C41.5812 11.1235 41.3524 11.1716 41.1273 11.1716Z" fill="#9D4AD3"/>
<path d="M15.5917 52.9494C14.7334 52.9494 14.0193 52.2726 13.9819 51.4067C13.7874 46.8649 14.2726 42.3369 15.4254 37.9492C15.6512 37.0886 16.5332 36.5736 17.3938 36.7995C18.2544 37.0261 18.7694 37.9072 18.5428 38.7678C17.4724 42.8435 17.0215 47.0488 17.203 51.2686C17.2412 52.1582 16.5507 52.9097 15.6611 52.9478C15.6383 52.9494 15.6154 52.9494 15.5917 52.9494Z" fill="#DCB1F3"/>
<path d="M51.9282 52.2986C52.7384 51.1381 53.3137 49.787 53.57 48.3C54.5024 42.8885 50.8715 37.7463 45.46 36.8132C40.0485 35.8809 34.9063 39.5125 33.9739 44.924C33.5917 47.1434 33.9778 49.317 34.9383 51.1732C40.6207 50.3775 46.4129 50.7643 51.9282 52.2986Z" fill="#FACE7A"/>
<path d="M46.6639 51.1939C47.0507 49.3308 48.2424 47.6195 45.5317 45.8456C40.2178 42.3666 43.6938 36.7918 43.7701 36.6705C39.0162 36.666 34.8078 40.0801 33.9739 44.924C33.5917 47.1434 33.9778 49.317 34.9383 51.1733C38.8369 50.627 42.7867 50.6377 46.6639 51.1939Z" fill="#FBB362"/>
<path d="M41.1929 50.7727C41.3898 50.3653 41.5355 49.9243 41.6164 49.4551C42.0802 46.762 40.2728 44.2023 37.5796 43.7384C36.3101 43.5195 35.0719 43.8063 34.0671 44.4518C34.0327 44.6074 34.0015 44.7646 33.974 44.924C33.5918 47.1434 33.9793 49.3163 34.9406 51.1733C37.0166 50.8826 39.1063 50.7491 41.1929 50.7727Z" fill="#FC9949"/>
<path d="M4.58856 70.2795C11.7022 87.7959 28.8851 100.149 48.955 100.149C62.0646 100.149 73.942 94.8775 82.5869 86.3402C81.8118 81.2674 80.099 76.2511 77.3783 71.5399C65.6535 51.232 39.6868 44.2748 19.3797 55.9988C13.1342 59.6045 8.15378 64.559 4.58856 70.2795Z" fill="#61B6FF"/>
<path d="M46.6776 50.746C37.5697 49.4238 27.9681 51.0405 19.3797 55.9988C13.1342 59.6052 8.15378 64.559 4.58856 70.2795C8.33841 79.5126 14.886 87.3091 23.1783 92.6199C23.2592 84.8341 30.2615 82.6841 30.2615 82.6841C30.2615 82.6841 34.0853 81.2094 33.6298 76.9095C33.3949 74.6954 34.791 73.1207 36.2002 72.1144C37.3766 71.2744 37.868 69.792 37.5018 68.3943C36.9563 66.3099 37.8619 64.1897 38.5104 63.0285C38.8461 62.4289 38.9979 61.7415 38.9292 61.0579C38.1037 52.8425 45.8338 50.9298 46.6776 50.746Z" fill="#5294E5"/>
<path d="M77.3784 71.5399C65.7611 51.4173 40.1599 44.4059 19.9374 55.6868C19.3667 58.473 20.1655 61.5652 22.1973 63.5801C22.7809 64.1592 23.482 64.7062 23.685 65.5027C23.8444 66.1283 23.6606 66.7822 23.5217 67.4124C23.5194 67.4208 23.5179 67.4292 23.5164 67.4375C23.2265 68.7651 24.9545 69.5715 25.7976 68.5057C27.5058 66.3473 27.7408 62.7478 29.9129 64.4247C33.3957 67.1141 35.7181 64.2904 35.7181 64.2904C36.7671 62.6287 38.9056 62.1015 40.8328 61.7147C42.8287 61.3134 45.7164 61.4325 45.4257 64.0409C45.3792 64.4567 45.2281 64.8451 45.0015 65.1876C44.3767 66.1322 44.4705 67.4093 45.2563 68.2241C45.9003 68.8917 47.0141 69.2694 48.9429 68.572C52.106 67.4093 55.6941 67.4482 58.8321 68.6796C59.2723 68.852 59.727 69.0664 59.9895 69.4601C60.377 70.0415 60.2275 70.8189 60.0024 71.4804C58.5513 75.7566 54.5711 79.3142 54.8579 83.8209C55.041 86.7041 57.0018 89.1767 59.2105 91.0398C61.2231 92.7381 63.5135 94.1061 65.9625 95.0727C66.7544 95.3855 67.5868 95.6739 68.3513 96.0539C73.6796 93.6888 78.4953 90.3807 82.587 86.3401C81.8118 81.2674 80.099 76.251 77.3784 71.5399Z" fill="#A2EC00"/>
<path d="M19.9374 55.6868C19.3667 58.4731 20.1655 61.5653 22.1973 63.5802C22.7809 64.1593 23.482 64.7063 23.685 65.5028C23.8444 66.1284 23.6606 66.7823 23.5217 67.4124C23.5194 67.4208 23.5179 67.4292 23.5164 67.4376C23.2265 68.7644 24.9545 69.5716 25.7976 68.5057C27.5058 66.3474 27.7408 62.7478 29.9129 64.4248C33.3957 67.1141 35.7181 64.2905 35.7181 64.2905C36.4093 63.1957 37.5743 62.5945 38.8392 62.2008C38.9339 61.8293 38.9674 61.4432 38.9285 61.0579C38.1076 52.8754 45.7728 50.9444 46.667 50.7476C37.7589 49.4582 28.3793 50.9772 19.9374 55.6868Z" fill="#00C82F"/>
<path d="M43.8769 76.9087C43.4962 76.8187 43.1216 76.7096 42.7623 76.5532C41.7186 76.0985 40.7893 75.0266 41.0495 73.9188C41.1181 73.6243 41.2669 73.3496 41.3028 73.049C41.3592 72.5752 41.1242 72.1076 40.8069 71.752C39.7479 70.5634 37.8932 70.4314 36.3688 70.8914C34.8445 71.3515 33.5147 72.2861 32.0804 72.9773C30.9268 73.5327 30.0509 73.503 28.9813 73.1665C28.4427 72.9972 27.8552 73.0696 27.3822 73.3794C26.0119 74.4124 25.9471 76.4266 26.1592 78.1294C26.2858 79.1442 26.578 80.3069 27.5088 80.7311C27.8583 80.8898 28.2565 80.9195 28.6029 81.0828C29.3025 81.4131 29.6519 82.2081 30.2608 82.6842C31.4448 83.6096 33.1958 83.0809 34.4569 82.2646C35.7181 81.4475 36.8968 80.3465 38.3861 80.1505C39.6571 79.9834 40.906 80.5167 42.0688 81.0576C42.1756 81.1072 42.2832 81.1575 42.3915 81.2071C43.5832 81.7572 44.9916 81.1759 45.4616 79.9498C45.9544 78.6666 45.2151 77.2261 43.8769 76.9087Z" fill="#A2EC00"/>
<path d="M36.2002 72.1144C36.7198 71.7436 37.1051 71.2469 37.3424 70.6885C37.0105 70.7289 36.6824 70.7968 36.3688 70.8914C34.8445 71.3515 33.5147 72.2861 32.0804 72.9773C30.9268 73.5327 30.0509 73.503 28.9813 73.1665C28.4427 72.9971 27.8552 73.0696 27.3822 73.3794C26.0119 74.4124 25.9471 76.4265 26.1592 78.1294C26.2858 79.1441 26.578 80.3069 27.5088 80.731C27.8583 80.8897 28.2565 80.9195 28.6029 81.0828C29.3025 81.4131 29.6519 82.2081 30.2608 82.6842C30.2608 82.6842 34.0854 81.2094 33.6299 76.9095C33.3949 74.6954 34.7911 73.1207 36.2002 72.1144Z" fill="#00C82F"/>
<path d="M14.9409 61.6889C14.5541 61.3967 14.0719 61.2502 13.6897 60.9527C13.4776 60.7879 13.309 60.5865 13.1617 60.366C9.74683 63.2522 6.87741 66.6091 4.58936 70.2811C4.63895 70.4032 4.68854 70.5253 4.73889 70.6466C5.54456 70.4131 6.34869 70.1682 7.16351 69.979C8.73898 69.6128 9.80939 69.892 11.0339 70.6016C11.6519 70.9594 12.395 71.0326 13.0633 70.7824C15.037 69.8882 15.6749 67.4247 15.8839 65.2679C16.009 63.9823 15.9701 62.4694 14.9409 61.6889Z" fill="#4374D3"/>
<path d="M77.3783 71.5399C75.7159 68.6606 73.7666 66.0513 71.5884 63.7244C69.8794 67.4254 66.7308 70.6946 66.9863 74.7214C67.1694 77.6053 69.131 80.078 71.3389 81.9411C73.3515 83.6386 75.6419 85.0066 78.0917 85.974C79.2124 86.4157 80.4133 86.8101 81.3876 87.4846C81.7927 87.1107 82.1917 86.73 82.5839 86.3432C81.8087 81.2697 80.099 76.2526 77.3783 71.5399Z" fill="#D7F9B7"/>
<path d="M84.534 38.2071C83.948 37.7486 83.6757 37.0001 83.1889 36.4371C82.352 35.4689 80.9771 35.1546 79.6969 35.1378C78.4167 35.1202 77.1327 35.3415 75.8601 35.1988C74.5875 35.0569 73.257 34.4466 72.7359 33.2762C72.3155 32.334 72.5032 31.2499 72.5535 30.2191C72.6039 29.1884 72.4261 28.0043 71.5678 27.4329C70.8651 26.9652 69.9473 27.0667 69.1127 26.9461C67.2107 26.6715 65.71 25.2219 64.4648 23.7578C63.9811 23.1886 63.4974 22.592 62.8444 22.2296C61.8731 21.6902 60.6906 21.7543 59.5851 21.8619C59.5805 21.8619 59.5759 21.8626 59.5714 21.8634C59.6156 22.2968 59.6721 22.7316 59.7453 23.1673C61.5489 33.924 71.7311 41.181 82.4878 39.3774C83.5269 39.2027 84.5332 38.9494 85.5021 38.6259C85.1504 38.5619 84.8193 38.4306 84.534 38.2071Z" fill="#F948B4"/>
<path d="M64.4648 23.7578C63.9811 23.1886 63.4967 22.592 62.8444 22.2296C61.8724 21.6902 60.6906 21.7543 59.5843 21.8619C59.5805 21.8626 59.5759 21.8626 59.5714 21.8634C59.6148 22.2968 59.6721 22.7316 59.7445 23.1673C60.4609 27.4352 62.4965 31.1514 65.3628 33.9705C64.5053 30.4434 66.2959 28.6635 67.6539 27.8494C68.0659 27.6022 68.3871 27.249 68.5931 26.837C66.9345 26.3983 65.594 25.0861 64.4648 23.7578Z" fill="#C6237C"/>
<path d="M93.7876 30.0002C92.4243 28.4225 90.185 27.9113 88.0999 27.8831C86.014 27.8548 83.9228 28.2157 81.8499 27.9838C79.777 27.7511 77.6095 26.757 76.7604 24.8519C76.0768 23.3169 76.3812 21.5507 76.4636 19.8722C76.5452 18.193 76.2568 16.2643 74.8576 15.3335C73.7139 14.5721 72.2186 14.7361 70.859 14.54C67.76 14.0929 65.3155 11.7316 63.2876 9.34668C63.1465 9.18036 63.0015 9.01327 62.8573 8.84619C60.2771 12.6647 59.0213 17.3865 59.6163 22.2732C59.6278 22.2716 59.64 22.2701 59.6522 22.2693C60.7356 22.1641 61.8945 22.1007 62.8466 22.6295C63.4867 22.985 63.9613 23.5702 64.4351 24.1279C65.6558 25.563 67.1267 26.9835 68.9913 27.2529C69.81 27.3711 70.7095 27.2719 71.3977 27.7305C72.2399 28.2905 72.4131 29.4509 72.3635 30.4618C72.3147 31.4719 72.1308 32.5347 72.5428 33.4586C73.0532 34.6045 74.3579 35.2027 75.6053 35.3431C76.8527 35.4827 78.1115 35.2653 79.3666 35.282C80.6216 35.2996 81.9682 35.6071 82.7891 36.5561C83.2659 37.1078 83.5337 37.8417 84.1075 38.2911C84.4256 38.5398 84.801 38.6725 85.1985 38.7244C89.2077 37.4564 92.5898 34.9761 95.0007 31.7718C94.6009 31.182 94.2538 30.5396 93.7876 30.0002Z" fill="#FC7ACD"/>
<path d="M70.859 14.54C67.76 14.0929 65.3163 11.7316 63.2884 9.34668C63.1465 9.1796 63.0015 9.01327 62.8573 8.84619C60.2778 12.6639 59.0213 17.3865 59.6164 22.2732C59.6286 22.2716 59.64 22.2701 59.6522 22.2693C60.7364 22.1633 61.8945 22.1007 62.8466 22.6295C63.4867 22.985 63.9613 23.5702 64.4351 24.1279C65.5284 25.4127 66.8231 26.6837 68.4199 27.1293C68.7167 26.6974 68.8731 26.1764 68.8479 25.6324C68.5565 19.419 71.6105 17.0623 73.4202 16.2154C73.9054 15.9888 74.2884 15.6074 74.525 15.1443C73.4332 14.6018 72.0912 14.7178 70.859 14.54Z" fill="#F948B4"/>
<path d="M98.5919 18.7499C97.6664 18.9955 96.5922 19.052 95.8377 18.4615C95.2601 18.0091 94.9908 17.2713 94.5109 16.7159C93.6847 15.7599 92.3282 15.4502 91.0655 15.4334C89.8021 15.4166 88.5348 15.6348 87.2798 15.4936C86.024 15.3533 84.711 14.7513 84.1967 13.597C83.7825 12.667 83.9671 11.5973 84.0167 10.5803C84.0663 9.56407 83.8916 8.39601 83.0439 7.83144C82.3512 7.37062 81.4456 7.46981 80.6216 7.35079C78.7448 7.07994 77.2647 5.6502 76.0363 4.20519C75.5587 3.64367 75.0811 3.05544 74.4372 2.69762C73.4782 2.16585 72.3124 2.22841 71.2214 2.33522C70.7858 2.37719 70.3509 2.42601 69.916 2.47789C66.9536 4.06023 64.4786 6.35973 62.6826 9.11089C62.9161 9.37487 63.1434 9.64418 63.3708 9.91121C65.3567 12.2473 67.7508 14.5598 70.7858 14.9977C72.1179 15.19 73.582 15.029 74.7027 15.7744C76.073 16.6869 76.356 18.5759 76.2751 20.2201C76.195 21.8642 75.8967 23.5938 76.5666 25.0975C77.3974 26.9637 79.5207 27.9372 81.5509 28.1645C83.5811 28.3919 85.6303 28.0387 87.6727 28.0669C89.7151 28.0944 91.9078 28.5948 93.2437 30.1398C93.7892 30.7707 94.1668 31.5467 94.6666 32.2066C97.639 28.4728 99.2549 23.6807 98.9299 18.6514C98.8185 18.6865 98.7056 18.7201 98.5919 18.7499Z" fill="#B26CDE"/>
<path d="M76.0363 4.20521C75.5587 3.64369 75.0819 3.0547 74.4372 2.69764C73.479 2.16511 72.3124 2.22843 71.2214 2.33448C70.7858 2.37721 70.3509 2.42604 69.916 2.47792C66.9536 4.05949 64.4786 6.35975 62.6826 9.11015C62.9161 9.37413 63.1442 9.64421 63.3708 9.91123C65.3567 12.2466 67.7508 14.5598 70.7858 14.997C71.9531 15.1656 73.2211 15.0634 74.2709 15.5364C74.5471 15.187 74.7279 14.7635 74.776 14.3065C75.1887 10.3247 77.2723 8.71952 78.7776 8.0756C79.2247 7.88487 79.5886 7.56062 79.8365 7.16313C78.3252 6.66569 77.0877 5.44194 76.0363 4.20521Z" fill="#9D4AD3"/>
<path d="M98.3554 18.7956C97.4361 19.0398 96.3687 19.0947 95.6195 18.5088C95.0458 18.0594 94.778 17.3262 94.3011 16.7738C93.4802 15.8248 92.1336 15.5173 90.8786 15.5005C89.6533 15.4837 88.425 15.6874 87.2066 15.5676L86.9899 15.7393C86.9899 15.7393 89.8578 18.8735 87.1501 20.8571C84.4432 22.8415 85.6769 26.6432 87.6735 28.0661C89.7159 28.0943 91.9086 28.5941 93.2445 30.1398C93.79 30.7707 94.1669 31.5459 94.6666 32.2066C97.6466 28.4636 99.2625 23.6586 98.9284 18.6163C98.7392 18.6827 98.5492 18.7445 98.3554 18.7956Z" fill="#C78FE8"/>
<path d="M75.9547 0.424861C73.5049 0.835322 71.2367 1.68218 69.2149 2.87084C69.8214 2.79379 70.4287 2.72512 71.0368 2.66561C72.1209 2.56033 73.2791 2.49777 74.2312 3.02572C74.8713 3.38125 75.3459 3.96643 75.8197 4.52413C77.0404 5.95922 78.5113 7.37982 80.3759 7.64913C81.1946 7.76739 82.0941 7.66821 82.7823 8.12673C83.6245 8.68673 83.7977 9.84716 83.7489 10.8581C83.6993 11.8682 83.5162 12.931 83.9274 13.8549C84.4386 15.0016 85.7425 15.5997 86.9899 15.7393C88.2373 15.879 89.4961 15.6615 90.7512 15.6791C92.0062 15.6959 93.3535 16.0033 94.1737 16.9532C94.6513 17.5048 94.9183 18.238 95.4928 18.6881C96.2413 19.274 97.3086 19.2183 98.2287 18.9742C98.4683 18.9109 98.7048 18.8346 98.9367 18.7476C98.8948 18.0472 98.8162 17.343 98.6979 16.635C96.8943 5.87835 86.7114 -1.37949 75.9547 0.424861Z" fill="#DCB1F3"/>
<path d="M84.0754 0.754402C81.4982 0.0998002 78.7463 -0.0436325 75.9547 0.424812C73.5041 0.835274 71.2367 1.68214 69.2149 2.8708C69.8214 2.79374 70.428 2.72507 71.0368 2.66557C72.1202 2.56028 73.2791 2.49772 74.2312 3.02567C74.8713 3.3812 75.3459 3.96638 75.8197 4.52409C76.8679 5.757 78.1024 6.97694 79.6115 7.46751C79.9922 7.0311 80.2104 6.45814 80.1997 5.85694C80.1104 0.802467 84.0747 0.754402 84.0754 0.754402Z" fill="#C78FE8"/>
<path d="M46.5106 44.2526C45.3082 44.2526 44.3614 43.273 44.3614 42.1034C44.3614 41.1101 45.0541 40.2083 46.0917 39.9977C47.3864 39.7368 48.6598 40.721 48.6598 42.1034C48.6598 43.2715 47.7137 44.2526 46.5106 44.2526Z" fill="#FADDA0"/>
<path d="M22.6542 23.1642L19.3934 27.3146C19.1241 27.2398 18.8319 27.294 18.6053 27.4641C18.5366 27.5107 18.4733 27.5679 18.4191 27.6365L17.1427 29.2616C16.5003 29.5057 15.7939 29.5248 15.1385 29.3158L10.3877 27.7945C9.86887 27.6289 9.67508 26.9964 10.0115 26.5684L12.0608 23.9599L22.6542 23.1642Z" fill="#B9E9FD"/>
<path d="M18.6053 27.4641C18.5367 27.5107 18.4733 27.5679 18.4192 27.6365L17.1428 29.2616C16.5004 29.5057 15.7939 29.5248 15.1385 29.3158L13.9201 28.9251C14.1848 28.8847 15.0149 28.6322 16.1281 27.0849C17.2267 25.5575 18.2727 24.0065 18.6343 23.4663L22.6535 23.1642L19.3934 27.3146C19.1241 27.2398 18.8319 27.294 18.6053 27.4641Z" fill="#61B6FF"/>
<path d="M28.5418 41.1268C28.2054 41.5548 27.5454 41.5159 27.2616 41.0513L24.6592 36.7956C24.3007 36.2089 24.1519 35.5177 24.2373 34.8356L25.5137 33.2106C25.5679 33.1419 25.6083 33.0671 25.6373 32.9893C25.7487 32.7284 25.7327 32.4316 25.5961 32.1875L28.8569 28.0378L30.5911 38.5183L28.5418 41.1268Z" fill="#B9E9FD"/>
<path d="M25.6373 32.9893C25.7487 32.7284 25.7327 32.4316 25.5961 32.1875L28.8569 28.0371L29.5024 31.9373C28.9142 32.6155 27.9483 33.721 26.7718 35.0294C25.6976 36.225 25.3543 37.1703 25.2635 37.7837L24.6592 36.7957C24.3007 36.209 24.1519 35.5177 24.2373 34.8357L25.5137 33.2106C25.5679 33.1412 25.6083 33.0672 25.6373 32.9893Z" fill="#61B6FF"/>
<path d="M30.4988 38.6351L28.7646 28.1546L30.5255 25.9138L32.1651 35.8236C32.2253 36.1876 32.13 36.5599 31.9026 36.849L30.4988 38.6351Z" fill="#D0F6FA"/>
<path d="M30.1219 31.2178C30.1219 31.2178 29.8625 31.5222 29.4086 32.0456L28.7646 28.1546L30.5255 25.9138L31.3739 31.0431C30.7468 30.4129 30.1219 31.2178 30.1219 31.2178Z" fill="#B9E9FD"/>
<path d="M22.5619 23.2818L11.9685 24.0775L13.3723 22.2915C13.5997 22.0016 13.9384 21.8207 14.3062 21.7933L24.3228 21.041L22.5619 23.2818Z" fill="#D0F6FA"/>
<path d="M18.1773 21.5026L24.3228 21.041L22.5619 23.2818L18.5573 23.5831C18.6923 23.3817 18.7686 23.2665 18.7686 23.2665C18.7686 23.2665 20.1648 21.6582 18.1773 21.5026Z" fill="#B9E9FD"/>
<path d="M35.9484 11.0854L35.0344 12.2496C34.7094 12.6624 34.7812 13.2605 35.1939 13.5847C35.6074 13.909 36.2048 13.8373 36.529 13.4245L37.4438 12.2603C37.7681 11.8475 37.6963 11.2494 37.2836 10.9251C36.8701 10.6009 36.2727 10.6734 35.9484 11.0854Z" fill="#FC7ACD"/>
<path d="M28.1016 15.843C29.9601 14.4476 32.7556 12.7768 35.2877 12.2893C35.7959 12.1908 36.407 12.6715 36.4322 13.1888C36.558 15.7645 35.5967 18.8757 34.6804 21.0112L28.1016 15.843Z" fill="#F948B4"/>
<path d="M36.4322 13.1888C36.4391 13.3192 36.4413 13.4512 36.4429 13.584C31.3022 15.6355 32.1429 17.4055 32.1429 17.4055L31.9698 17.3888L29.0988 15.1335C30.881 13.9265 33.1752 12.6959 35.2878 12.2893C35.7959 12.1908 36.407 12.6715 36.4322 13.1888Z" fill="#F6159C"/>
<path d="M25.3764 32.0654L19.5643 27.4992C19.4629 27.4191 19.3477 27.368 19.2286 27.3436L28.2023 15.9216L34.5805 20.9326L25.6076 32.3546C25.5549 32.2447 25.4779 32.1455 25.3764 32.0654Z" fill="#B9E9FD"/>
<path d="M22.4704 29.7819L19.5643 27.4992C19.4629 27.4191 19.3477 27.3687 19.2286 27.3436L28.2023 15.9224L31.3914 18.4271L22.4704 29.7819Z" fill="#83D3FC"/>
<path d="M19.6429 27.3993L25.455 31.9662C25.8639 32.2874 25.9349 32.8795 25.6137 33.2884L23.6987 35.726C23.3775 36.1357 22.7855 36.2066 22.3758 35.8847L16.5637 31.3192C16.1548 30.9973 16.0838 30.4052 16.405 29.9963L18.32 27.5587C18.6412 27.149 19.2332 27.0781 19.6429 27.3993Z" fill="#D0F6FA"/>
<path d="M22.481 29.8178L19.5857 33.5036C19.5544 33.5433 19.5254 33.5829 19.498 33.6234L16.5637 31.3185C16.1548 30.9973 16.0838 30.4045 16.405 29.9956L18.32 27.558C18.6412 27.1491 19.2332 27.0781 19.6429 27.3993L22.5764 29.7049C22.5436 29.7408 22.5123 29.7789 22.481 29.8178Z" fill="#B9E9FD"/>
<path d="M27.5607 20.1972C27.1281 20.748 27.2235 21.5453 27.7743 21.9779L28.7982 22.782C29.3483 23.2146 30.1456 23.1185 30.5781 22.5684C31.0107 22.0176 30.9154 21.2211 30.3645 20.7885L29.3407 19.9836C28.7898 19.551 27.9925 19.6471 27.5607 20.1972Z" fill="#FBB362"/>
<path d="M27.1045 15.0596C26.6719 15.6104 26.768 16.4077 27.3181 16.8403L33.8977 22.0084C34.4485 22.441 35.245 22.3456 35.6776 21.7948C36.1102 21.2439 36.0149 20.4474 35.464 20.0148L28.8844 14.8459C28.3321 14.4118 27.5355 14.511 27.1045 15.0596Z" fill="#FC7ACD"/>
<path d="M30.6506 17.842C30.2844 18.3082 30.2783 18.9422 30.5904 19.4106L27.3181 16.8395C26.768 16.4069 26.6719 15.6104 27.1045 15.0596C27.5355 14.511 28.3321 14.4118 28.8844 14.8459L32.1429 17.4056C31.6173 17.2225 31.0123 17.3819 30.6506 17.842Z" fill="#F948B4"/>
<path d="M27.6789 25.2043L20.1769 34.754C19.7505 35.2965 18.9677 35.3987 18.4168 34.9829C17.85 34.5556 17.7447 33.7454 18.1826 33.1877L25.7121 23.6044C26.1592 23.0345 26.9991 22.9498 27.5523 23.4404C28.0589 23.8905 28.0978 24.6718 27.6789 25.2043Z" fill="#61B6FF"/>
<path d="M21.667 30.8539C22.111 31.1895 22.6931 31.214 23.1539 30.9645L20.1769 34.754C19.7505 35.2972 18.9677 35.3987 18.4168 34.9829C17.85 34.5556 17.7447 33.7462 18.1826 33.1877L21.1688 29.3867C21.023 29.9154 21.2016 30.5029 21.667 30.8539Z" fill="#5294E5"/>
</g>
<defs>
<clipPath id="clip0_1_429">
<rect width="100" height="100" fill="white" transform="translate(0.5 0.149414)"/>
</clipPath>
</defs>
</svg>
