<svg width="101" height="101" viewBox="0 0 101 101" fill="none" xmlns="http://www.w3.org/2000/svg">
<g clip-path="url(#clip0_1_478)">
<path d="M95.5211 68.5424C97.3521 63.4703 98.3516 58.0008 98.3516 52.2979C98.3516 25.8704 76.9275 4.44629 50.5 4.44629C24.0725 4.44629 2.64844 25.8704 2.64844 52.2979C2.64844 58.0008 3.64789 63.4703 5.47894 68.5424H95.5211Z" fill="#162680"/>
<path d="M27.4318 94.229C34.2738 98.001 42.1351 100.149 50.5 100.149C58.8649 100.149 66.7262 98.001 73.5682 94.229H27.4318Z" fill="#4374D3"/>
<path d="M48.1608 100.093C44.3614 99.9099 44.5216 94.229 48.3256 94.229H27.4318C33.9175 97.8041 41.3195 99.9198 49.1977 100.13C48.8513 100.121 48.5057 100.11 48.1608 100.093Z" fill="#3957C9"/>
<path d="M95.5905 60.427V7.78491C95.5905 3.56815 92.1718 0.149414 87.955 0.149414H13.045C8.82825 0.149414 5.40952 3.56815 5.40952 7.78491V68.347C9.45004 79.6973 17.6532 89.0708 28.1825 94.6334H72.8175C83.3468 89.0708 91.55 79.6973 95.5897 68.347V60.427H95.5905Z" fill="#5294E5"/>
<path d="M22.8755 4.45087C23.0449 4.2258 23.0334 3.91681 22.8549 3.70013C21.0536 1.51202 23.2104 0.149414 23.2104 0.149414H13.045C8.82825 0.149414 5.40952 3.56815 5.40952 7.78491V68.347C8.78934 77.8403 15.0813 85.9488 23.2104 91.603V7.12192C22.0515 5.96301 22.491 4.96127 22.8755 4.45087Z" fill="#4374D3"/>
<path d="M90.1332 68.299C90.1332 66.9654 89.0521 65.8843 87.7185 65.8843H13.2815C11.9479 65.8843 10.8668 66.9654 10.8668 68.299V79.1182C13.4242 82.8902 16.5057 86.2776 20.0076 89.1761H80.9924C84.4943 86.2776 87.5758 82.8902 90.1339 79.1182V68.299H90.1332Z" fill="#61B6FF"/>
<path d="M23.2104 65.8843H13.2815C11.9479 65.8843 10.8668 66.9654 10.8668 68.299V79.1182C13.4242 82.8902 16.5057 86.2776 20.0076 89.1761H23.2112V65.8843H23.2104Z" fill="#5294E5"/>
<path d="M13.2815 54.9704H87.7185C89.0521 54.9704 90.1332 53.8893 90.1332 52.5557V8.02142C90.1332 6.6878 89.0521 5.60596 87.7185 5.60596H13.2815C11.9479 5.60596 10.8668 6.6878 10.8668 8.02142V52.5557C10.8668 53.8893 11.9479 54.9704 13.2815 54.9704Z" fill="#1D319B"/>
<path d="M23.2104 5.60596H13.2815C11.9479 5.60596 10.8668 6.6878 10.8668 8.02142V52.5557C10.8668 53.8893 11.9479 54.9704 13.2815 54.9704H23.2104V5.60596Z" fill="#162680"/>
<path d="M87.7185 5.60596H13.2815C11.9479 5.60596 10.8668 6.6878 10.8668 8.02142V15.6943H90.1332V8.02142C90.1332 6.6878 89.0521 5.60596 87.7185 5.60596Z" fill="#4374D3"/>
<path d="M23.2104 5.60596H13.2815C11.9479 5.60596 10.8668 6.6878 10.8668 8.02142V15.6935H23.2104V5.60596Z" fill="#3957C9"/>
<path d="M88.4959 62.7516H81.0557C80.218 62.7516 79.5398 62.0726 79.5398 61.2357C79.5398 60.398 80.218 59.7197 81.0557 59.7197H88.4959C89.3329 59.7197 90.0119 60.398 90.0119 61.2357C90.0119 62.0726 89.3329 62.7516 88.4959 62.7516Z" fill="#61B6FF"/>
<path d="M84.7758 12.9599H74.0794C73.2417 12.9599 72.5634 12.2809 72.5634 11.4439C72.5634 10.6062 73.2417 9.92798 74.0794 9.92798H84.7758C85.6128 9.92798 86.2918 10.6062 86.2918 11.4439C86.2918 12.2809 85.6128 12.9599 84.7758 12.9599Z" fill="#5294E5"/>
<path d="M62.6262 12.9599H38.1892C37.3523 12.9599 36.6732 12.2809 36.6732 11.4439C36.6732 10.6062 37.3523 9.92798 38.1892 9.92798H62.6262C63.4639 9.92798 64.1421 10.6062 64.1421 11.4439C64.1421 12.2809 63.4631 12.9599 62.6262 12.9599Z" fill="#5294E5"/>
<path d="M19.9443 62.7516H13.0099C12.1722 62.7516 11.494 62.0726 11.494 61.2357C11.494 60.398 12.1722 59.7197 13.0099 59.7197H19.9443C20.7812 59.7197 21.4602 60.398 21.4602 61.2357C21.4602 62.0726 20.7812 62.7516 19.9443 62.7516Z" fill="#61B6FF"/>
<path d="M37.7063 73.741H46.075V81.23H37.7063V73.741Z" fill="#B9E9FD"/>
<path d="M15.6062 72.647C14.5015 72.647 13.5875 71.746 13.5875 70.626C13.5875 69.3381 14.7715 68.3944 16.0029 68.6431C16.9619 68.8376 17.6272 69.6692 17.6272 70.626C17.6272 71.7475 16.7132 72.647 15.6062 72.647Z" fill="#61B6FF"/>
<path d="M85.3915 72.6469C84.2715 72.6469 83.3705 71.7284 83.3705 70.6259C83.3705 69.3159 84.579 68.3981 85.7875 68.643C86.7732 68.8429 87.4148 69.702 87.4148 70.6259C87.4148 71.7368 86.5023 72.6469 85.3915 72.6469Z" fill="#83D3FC"/>
<path d="M85.7875 82.453C84.5485 82.2028 83.372 83.1549 83.372 84.4359C83.372 85.1668 83.7573 85.7932 84.3226 86.1472C85.2588 85.2118 86.1529 84.2368 87.0089 83.2274C86.7198 82.8406 86.2941 82.556 85.7875 82.453Z" fill="#83D3FC"/>
<path d="M17.3648 13.0607C16.4729 13.0607 15.7481 12.3359 15.7481 11.444C15.7481 10.4018 16.7094 9.66329 17.6806 9.85784C18.4825 10.0295 18.9822 10.7146 18.9822 11.444C18.9814 12.3275 18.2582 13.0607 17.3648 13.0607Z" fill="#F6159C"/>
<path d="M22.9792 13.0606C22.095 13.0606 21.3626 12.3427 21.3626 11.4439C21.3626 10.5589 22.0805 9.82727 22.9792 9.82727C23.881 9.82727 24.5959 10.5627 24.5959 11.4439C24.5959 12.3305 23.8711 13.0606 22.9792 13.0606Z" fill="#FBB362"/>
<path d="M28.5937 13.0606C27.7163 13.0606 26.9771 12.348 26.9771 11.4439C26.9771 10.5421 27.7095 9.82727 28.5937 9.82727C29.4879 9.82727 30.2104 10.5513 30.2104 11.4439C30.2104 11.8681 30.0387 12.2862 29.7374 12.5861C29.4284 12.8951 29.0095 13.0606 28.5937 13.0606Z" fill="#48D85C"/>
<path d="M16.0029 82.453C15.2079 82.2928 14.4397 82.6277 13.9911 83.2266C14.8471 84.236 15.7412 85.2118 16.6774 86.1472C17.2458 85.7901 17.628 85.1592 17.628 84.4359C17.6272 83.4784 16.9597 82.6476 16.0029 82.453Z" fill="#61B6FF"/>
<path d="M61.7839 82.746C60.9469 82.746 60.2687 82.0678 60.2687 81.2301V73.7411C60.2687 72.9034 60.9469 72.2251 61.7839 72.2251C62.6216 72.2251 63.2998 72.9034 63.2998 73.7411V81.2301C63.2998 82.0678 62.6216 82.746 61.7839 82.746Z" fill="#48D85C"/>
<path d="M69.3972 82.746C68.5595 82.746 67.8813 82.0678 67.8813 81.2301V73.7411C67.8813 72.9034 68.5595 72.2251 69.3972 72.2251C70.2342 72.2251 70.9124 72.9034 70.9124 73.7411V81.2301C70.9124 82.0678 70.2342 82.746 69.3972 82.746Z" fill="#F948B4"/>
<path d="M77.0099 82.746C76.1721 82.746 75.4939 82.0678 75.4939 81.2301V73.7411C75.4939 72.9034 76.1721 72.2251 77.0099 72.2251C77.8468 72.2251 78.5251 72.9034 78.5251 73.7411V81.2301C78.5251 82.0678 77.8468 82.746 77.0099 82.746Z" fill="#FBB362"/>
<path d="M78.2893 76.7982H75.7129C74.8752 76.7982 74.1969 76.1191 74.1969 75.2822C74.1969 74.4445 74.8752 73.7662 75.7129 73.7662H78.2893C79.127 73.7662 79.8053 74.4445 79.8053 75.2822C79.8053 76.1191 79.127 76.7982 78.2893 76.7982Z" fill="#FACE7A"/>
<path d="M70.6851 79.0457H68.1086C67.2709 79.0457 66.5927 78.3674 66.5927 77.5305C66.5927 76.6928 67.2709 76.0145 68.1086 76.0145H70.6851C71.5228 76.0145 72.201 76.6928 72.201 77.5305C72.201 78.3674 71.5228 79.0457 70.6851 79.0457Z" fill="#F6159C"/>
<path d="M63.0725 81.2049H60.496C59.6583 81.2049 58.9801 80.5259 58.9801 79.6889C58.9801 78.8512 59.6583 78.173 60.496 78.173H63.0725C63.9094 78.173 64.5884 78.8512 64.5884 79.6889C64.5884 80.5259 63.9094 81.2049 63.0725 81.2049Z" fill="#A2EC00"/>
<path d="M76.0569 24.7519H69.9977C69.1607 24.7519 68.4817 24.0736 68.4817 23.2359C68.4817 22.399 69.1607 21.7207 69.9977 21.7207H76.0569C76.8947 21.7207 77.5729 22.399 77.5729 23.2359C77.5729 24.0736 76.8947 24.7519 76.0569 24.7519Z" fill="#4374D3"/>
<path d="M73.0273 23.2359C73.0273 22.399 73.7063 21.7207 74.5433 21.7207H69.9977C69.1607 21.7207 68.4817 22.399 68.4817 23.2359C68.4817 24.0736 69.1607 24.7519 69.9977 24.7519H74.5433C73.7063 24.7519 73.0273 24.0736 73.0273 23.2359Z" fill="#3957C9"/>
<path d="M82.117 30.741H69.9977C69.1607 30.741 68.4817 30.0627 68.4817 29.225C68.4817 28.3881 69.1607 27.7098 69.9977 27.7098H82.117C82.9539 27.7098 83.6322 28.3881 83.6322 29.225C83.6322 30.0627 82.9539 30.741 82.117 30.741Z" fill="#4374D3"/>
<path d="M82.117 36.7308H69.9977C69.1607 36.7308 68.4817 36.0518 68.4817 35.2148C68.4817 34.3771 69.1607 33.6989 69.9977 33.6989H82.117C82.9539 33.6989 83.6322 34.3771 83.6322 35.2148C83.6322 36.0518 82.9539 36.7308 82.117 36.7308Z" fill="#4374D3"/>
<path d="M82.117 42.7199H69.9977C69.1607 42.7199 68.4817 42.0409 68.4817 41.2039C68.4817 40.3662 69.1607 39.688 69.9977 39.688H82.117C82.9539 39.688 83.6322 40.3662 83.6322 41.2039C83.6322 42.0409 82.9539 42.7199 82.117 42.7199Z" fill="#4374D3"/>
<path d="M82.117 48.7089H69.9977C69.1607 48.7089 68.4817 48.0299 68.4817 47.193C68.4817 46.3553 69.1607 45.677 69.9977 45.677H82.117C82.9539 45.677 83.6322 46.3553 83.6322 47.193C83.6322 48.0299 82.9539 48.7089 82.117 48.7089Z" fill="#4374D3"/>
<path d="M76.0569 29.2258C76.0569 28.3881 76.736 27.7098 77.5729 27.7098H69.9977C69.1607 27.7098 68.4817 28.3881 68.4817 29.2258C68.4817 30.0627 69.1607 30.7418 69.9977 30.7418H77.5729C76.736 30.741 76.0569 30.0627 76.0569 29.2258Z" fill="#3957C9"/>
<path d="M76.0569 35.2148C76.0569 34.3771 76.736 33.6989 77.5729 33.6989H69.9977C69.1607 33.6989 68.4817 34.3771 68.4817 35.2148C68.4817 36.0518 69.1607 36.7308 69.9977 36.7308H77.5729C76.736 36.7308 76.0569 36.0518 76.0569 35.2148Z" fill="#3957C9"/>
<path d="M76.0569 41.2039C76.0569 40.3662 76.736 39.688 77.5729 39.688H69.9977C69.1607 39.688 68.4817 40.3662 68.4817 41.2039C68.4817 42.0409 69.1607 42.7199 69.9977 42.7199H77.5729C76.736 42.7199 76.0569 42.0409 76.0569 41.2039Z" fill="#3957C9"/>
<path d="M76.0569 47.193C76.0569 46.3553 76.736 45.677 77.5729 45.677H69.9977C69.1607 45.677 68.4817 46.3553 68.4817 47.193C68.4817 48.0299 69.1607 48.7089 69.9977 48.7089H77.5729C76.736 48.7089 76.0569 48.0299 76.0569 47.193Z" fill="#3957C9"/>
<path d="M26.8115 46.3301C25.088 46.3301 23.8826 45.7503 23.218 44.5998C21.8394 42.2125 24.1168 39.6513 24.8652 38.8098C26.2088 37.2992 28.2397 35.5597 30.7391 33.7798C31.7691 33.0466 33.1973 33.2861 33.9305 34.3161C34.6644 35.3461 34.4241 36.7751 33.3941 37.5082C30.8062 39.3515 29.243 40.7958 28.3549 41.7769C29.2048 42.021 29.8709 42.7481 29.9929 43.6804C30.1562 44.9339 29.2727 46.0829 28.02 46.2462C27.5927 46.3019 27.1891 46.3301 26.8115 46.3301Z" fill="#C78FE8"/>
<path d="M42.8828 31.6595C42.0176 31.6595 41.1906 31.1667 40.8038 30.3305C40.2736 29.1838 40.7733 27.8235 41.9208 27.2925C44.7703 25.9749 47.3491 25.051 49.3792 24.6199C50.6144 24.3567 51.8306 25.1471 52.093 26.3831C52.3555 27.6198 51.5658 28.8351 50.3299 29.0976C48.6537 29.4531 46.3489 30.2878 43.8418 31.4475C43.5306 31.5909 43.204 31.6595 42.8828 31.6595Z" fill="#C78FE8"/>
<path d="M46.7807 30.4968C44.3011 26.2022 38.8102 24.7305 34.5157 27.2101C30.2211 29.6896 28.7494 35.1812 31.2289 39.4758C33.7085 43.7704 39.2001 45.2414 43.4947 42.7618C47.7893 40.2823 49.2602 34.7914 46.7807 30.4968Z" fill="#F948B4"/>
<path d="M46.3084 38.877C42.9507 40.8156 38.6577 39.6651 36.719 36.3074C34.7804 32.9497 35.9309 28.6567 39.2886 26.718C39.6991 26.4808 40.1248 26.2908 40.5574 26.1443C38.5524 25.7911 36.4169 26.1138 34.5164 27.2109C30.2218 29.6904 28.7501 35.1821 31.2297 39.4767C33.7092 43.7713 39.2009 45.243 43.4955 42.7634C45.3959 41.6655 46.7425 39.9779 47.4398 38.0652C47.0965 38.3666 46.7196 38.6397 46.3084 38.877Z" fill="#F6159C"/>
<path d="M27.7201 46.2661C26.5887 46.2661 25.6045 45.4261 25.4542 44.2733C25.2902 43.0205 26.1729 41.8715 27.4264 41.7075C30.1539 41.3512 35.0634 39.3035 39.9356 36.4905C45.016 33.557 48.3149 30.8669 49.9614 29.1449C48.8574 29.193 47.8518 28.4468 47.6153 27.3337C47.3536 26.097 48.1433 24.8824 49.38 24.6199C50.5038 24.3811 53.9241 23.6556 55.3172 26.068C56.8118 28.6574 54.1652 31.5474 52.0449 33.4952C49.6096 35.7321 46.1222 38.2041 42.2244 40.4547C36.7076 43.6393 31.3975 45.8045 28.02 46.2462C27.9193 46.2592 27.8193 46.2661 27.7201 46.2661Z" fill="#DCB1F3"/>
<path d="M87.7185 56.4863H13.2815C11.114 56.4863 9.35086 54.7224 9.35086 52.5549V8.02136C9.35086 5.85385 11.114 4.0907 13.2815 4.0907H87.7185C89.886 4.0907 91.6491 5.85385 91.6491 8.02136V52.5557C91.6491 54.7232 89.886 56.4863 87.7185 56.4863ZM13.2815 7.12186C12.7856 7.12186 12.3828 7.52545 12.3828 8.02136V52.5557C12.3828 53.0508 12.7856 53.4544 13.2815 53.4544H87.7185C88.2144 53.4544 88.6172 53.0508 88.6172 52.5557V8.02136C88.6172 7.52545 88.2144 7.12186 87.7185 7.12186H13.2815Z" fill="#61B6FF"/>
<path d="M51.6971 81.23H45.6782V73.741H51.6971C52.5088 73.741 53.1672 74.3994 53.1672 75.2112V79.7598C53.1672 80.5716 52.5088 81.23 51.6971 81.23Z" fill="#83D3FC"/>
<path d="M30.1219 73.741H38.1892V81.23H30.1219V73.741Z" fill="#83D3FC"/>
<path d="M30.6994 81.23H24.6814C23.8688 81.23 23.2104 80.5716 23.2104 79.7598V75.2112C23.2104 74.3994 23.8688 73.741 24.6814 73.741H30.6994V81.23Z" fill="#B9E9FD"/>
<path d="M23.2104 53.4544H13.2815C12.7856 53.4544 12.3828 53.0508 12.3828 52.5557V8.02136C12.3828 7.52545 12.7856 7.12186 13.2815 7.12186H23.2104C22.0523 5.96295 22.491 4.96121 22.8755 4.45081C22.9564 4.34323 22.9945 4.21658 22.9945 4.0907H13.2815C11.114 4.0907 9.35086 5.85385 9.35086 8.02136V52.5557C9.35086 54.7232 11.114 56.4863 13.2815 56.4863H23.2104C21.2375 54.991 23.2104 53.4544 23.2104 53.4544Z" fill="#5294E5"/>
</g>
<defs>
<clipPath id="clip0_1_478">
<rect width="100" height="100" fill="white" transform="translate(0.5 0.149414)"/>
</clipPath>
</defs>
</svg>
