<svg width="580" height="517" viewBox="0 0 580 517" fill="none" xmlns="http://www.w3.org/2000/svg">
<path d="M111.587 321.327C88.8202 314.607 75.1569 302.248 70.8643 284.459C61.9599 247.548 102.03 222.594 115.198 214.395C138.835 199.678 172.446 184.618 212.403 170.849C228.867 165.18 246.8 173.913 252.47 190.377C258.15 206.845 249.404 224.784 232.939 230.454C191.566 244.714 165.285 257.698 149.728 267.196C160.004 273.735 165.968 285.936 163.945 298.728C161.215 315.924 145.064 327.657 127.879 324.93C122.018 324 116.576 322.799 111.587 321.327Z" fill="#C78FE8"/>
<path d="M381.088 190.188C369.659 186.815 360.656 177.08 358.806 164.526C356.272 147.311 368.177 131.289 385.405 128.748C428.186 122.453 465.853 120.302 494.352 122.523C511.695 123.862 524.679 139.044 523.327 156.395C521.972 173.755 506.803 186.731 489.452 185.38C465.924 183.541 432.223 185.581 394.584 191.126C389.912 191.807 385.331 191.441 381.088 190.188Z" fill="#C78FE8"/>
<path d="M437.113 190.025C421.102 123.626 354.305 82.777 287.906 98.7881C221.507 114.799 180.655 181.606 196.666 248.005C212.677 314.404 279.487 355.246 345.886 339.235C412.285 323.224 453.124 256.424 437.113 190.025Z" fill="#F948B4"/>
<path d="M398.201 298.886C346.287 311.404 294.061 279.468 281.543 227.554C269.025 175.641 300.961 123.415 352.875 110.897C359.222 109.362 365.586 108.513 371.872 108.264C346.763 95.7807 317.295 91.7181 287.912 98.8013C221.513 114.812 180.661 181.619 196.672 248.018C212.683 314.417 279.49 355.269 345.889 339.258C375.275 332.165 399.643 315.121 416.312 292.573C410.602 295.216 404.558 297.355 398.201 298.886Z" fill="#F6159C"/>
<path d="M123.842 324.023C108.896 319.612 99.1696 304.678 101.679 288.864C104.396 271.675 120.537 259.939 137.735 262.659C175.155 268.587 247.993 260.677 323.321 242.514C401.871 223.57 455.938 200.895 484.401 184.567C469.63 180.898 459.256 167.121 460.471 151.494C461.836 134.137 477.003 121.171 494.363 122.525C510.14 123.752 558.151 127.503 567.148 164.802C576.796 204.836 530.566 232.694 494.964 250.158C454.073 270.213 398.366 289.271 338.101 303.805C252.808 324.363 174.22 332.263 127.88 324.93C126.499 324.709 125.152 324.41 123.842 324.023Z" fill="#DCB1F3"/>
<path d="M257.864 459.71C268.406 441.46 291.739 435.21 309.989 445.747C328.239 456.283 334.494 479.622 323.958 497.872C313.421 516.122 290.083 522.377 271.833 511.835C253.583 501.299 247.328 477.966 257.864 459.71Z" fill="#FD7E31"/>
<path d="M253.552 471.002C255.14 477.013 259.031 482.409 264.838 485.763C276.401 492.44 291.187 488.476 297.864 476.914C304.541 465.351 300.578 450.565 289.015 443.888C287.104 442.789 285.109 442.002 283.078 441.466C291.948 439.601 301.515 440.872 309.984 445.763C328.239 456.299 334.489 479.638 323.953 497.888C313.416 516.138 290.078 522.388 271.828 511.851C257.182 503.398 250.27 486.7 253.552 471.002Z" fill="#FC5D1F"/>
<path d="M25.0619 163.304C34.8171 146.403 56.4317 140.611 73.3327 150.372C90.2285 160.127 96.0202 181.736 86.265 198.637C76.5046 215.538 54.8952 221.33 37.9942 211.569C21.0931 201.814 15.3015 180.205 25.0619 163.304Z" fill="#A2EC00"/>
<path d="M25.0467 163.309C26.2707 161.194 27.6769 159.252 29.2394 157.491C26.4946 167.22 30.5311 177.934 39.6873 183.22C50.5103 189.47 64.3488 185.762 70.5988 174.934C75.8852 165.783 74.0259 154.486 66.7811 147.429C69.0155 148.174 71.203 149.153 73.3175 150.371C90.2186 160.132 96.0102 181.741 86.2498 198.642C76.4946 215.543 54.88 221.335 37.979 211.575C21.0832 201.819 15.2915 180.21 25.0467 163.309Z" fill="#00C82F"/>
<path d="M264.485 8.42933C269.141 0.366829 279.449 -2.39359 287.506 2.26266C295.568 6.9137 298.329 17.2262 293.678 25.2835C289.021 33.346 278.714 36.1064 270.652 31.4554C262.594 26.7991 259.829 16.4918 264.485 8.42933Z" fill="#D7F9B7"/>
<path d="M1.69793 333.856C5.18751 327.804 12.9219 325.736 18.974 329.226C25.0208 332.721 27.0938 340.455 23.599 346.502C20.1094 352.549 12.375 354.622 6.32813 351.132C0.276051 347.637 -1.79686 339.903 1.69793 333.856Z" fill="#FACE7A"/>
<path d="M441.38 70.7523C441.38 73.3676 440.5 75.8172 438.9 77.659L426.34 92.117C426.276 92.1907 426.1 92.3564 426.02 92.4117C425.828 92.559 425.604 92.6327 425.38 92.6327C425.156 92.6327 424.916 92.559 424.724 92.4117C424.628 92.338 424.548 92.2644 424.452 92.1539L411.876 77.659C410.26 75.8172 409.38 73.3676 409.38 70.7523C409.38 68.1369 410.26 65.6874 411.876 63.8456C415.188 60.0515 420.564 60.0515 423.876 63.8456L425.38 65.5953L426.9 63.8456C430.212 60.0515 435.588 60.0515 438.884 63.8456C440.5 65.6874 441.38 68.1369 441.38 70.7523Z" fill="#D7F9B7"/>
<path d="M109.834 71.4742C109.834 73.2105 109.162 74.8367 107.939 76.0594L98.3408 85.6576C98.2919 85.7066 98.1574 85.8166 98.0963 85.8533C97.9496 85.9511 97.7784 86 97.6072 86C97.436 86 97.2526 85.9511 97.1059 85.8533C97.0325 85.8044 96.9714 85.7555 96.898 85.6821L87.2875 76.0594C86.0526 74.8367 85.3801 73.2105 85.3801 71.4742C85.3801 69.738 86.0526 68.1118 87.2875 66.8891C89.8186 64.3703 93.9269 64.3703 96.4579 66.8891L97.6072 68.0507L98.7688 66.8891C101.3 64.3703 105.408 64.3703 107.927 66.8891C109.162 68.1118 109.834 69.738 109.834 71.4742Z" fill="#4374D3"/>
<path d="M425.857 420.392C425.857 422.911 424.881 425.27 423.107 427.044L409.183 440.969C409.112 441.04 408.917 441.199 408.828 441.252C408.615 441.394 408.367 441.465 408.118 441.465C407.87 441.465 407.604 441.394 407.391 441.252C407.285 441.182 407.196 441.111 407.089 441.004L393.147 427.044C391.356 425.27 390.38 422.911 390.38 420.392C390.38 417.874 391.356 415.514 393.147 413.741C396.819 410.086 402.779 410.086 406.451 413.741L408.118 415.426L409.803 413.741C413.475 410.086 419.435 410.086 423.089 413.741C424.881 415.514 425.857 417.874 425.857 420.392Z" fill="#4374D3"/>
<path d="M144.834 377.474C144.834 379.21 144.162 380.837 142.939 382.059L133.341 391.658C133.292 391.707 133.157 391.817 133.096 391.853C132.95 391.951 132.778 392 132.607 392C132.436 392 132.253 391.951 132.106 391.853C132.033 391.804 131.971 391.755 131.898 391.682L122.288 382.059C121.053 380.837 120.38 379.21 120.38 377.474C120.38 375.738 121.053 374.112 122.288 372.889C124.819 370.37 128.927 370.37 131.458 372.889L132.607 374.051L133.769 372.889C136.3 370.37 140.408 370.37 142.927 372.889C144.162 374.112 144.834 375.738 144.834 377.474Z" fill="#FACE7A"/>
</svg>
