<svg width="287" height="331" viewBox="0 0 287 331" fill="none" xmlns="http://www.w3.org/2000/svg">
<g clip-path="url(#clip0_242_1644)">
<path d="M165.439 41.0442C235.353 23.6578 306.641 68.3116 324.663 140.779C335.403 183.966 324.798 227.28 299.686 258.917C277.228 269.84 252.559 278.875 226.213 285.426C199.867 291.978 173.843 295.553 148.881 296.42C111.876 280.23 82.2201 246.926 71.481 203.741C53.4569 131.274 95.5258 58.4305 165.439 41.0442Z" fill="#83D3FC"/>
<path d="M165.439 41.0442C95.5258 58.4305 53.4594 131.274 71.481 203.741C82.2201 246.926 111.876 280.23 148.881 296.42C165.083 295.855 181.734 294.145 198.628 291.229C198.974 290.704 199.327 290.214 199.671 289.768C200.983 288.057 201.082 285.655 199.824 283.903C198.105 281.514 198.323 278.89 198.856 277.03C199.315 275.428 198.882 273.709 197.803 272.438C192.616 266.32 195.205 260.723 196.986 258.141C197.731 257.064 198.043 255.747 197.828 254.454L173.83 109.987C173.551 108.308 172.606 106.833 171.252 105.801C165.151 101.163 165.451 96.0286 166.458 92.932C167.105 90.937 166.848 88.7627 165.702 87.005C145.613 56.1912 165.439 41.0442 165.439 41.0442Z" fill="#61B6FF"/>
<path d="M316.92 275.892C315.449 279.235 312.838 282.096 309.296 283.82C285.302 295.492 259.531 304.795 232.69 311.47C205.85 318.145 178.72 321.998 152.056 322.923C148.064 323.062 144.374 321.714 141.488 319.39L141.478 319.39L109.548 343.207C147.483 371.982 197.627 383.964 247.429 371.579C297.232 359.194 335.923 325.12 355.963 281.928L316.92 275.892Z" fill="#FD7E31"/>
<path d="M141.491 319.39L141.478 319.39L109.549 343.21C133.455 361.342 162.21 372.796 192.671 375.697C192.154 373.617 191.601 371.393 191.038 369.132C189.814 364.21 190.8 360.969 192.034 358.989C193.04 357.381 192.719 355.303 191.319 354.023C183.788 347.157 190.463 339.947 190.463 339.947L203.628 321.313C204.436 320.17 204.542 318.719 204.009 317.505C186.633 320.506 169.249 322.326 152.056 322.923C148.064 323.062 144.374 321.714 141.491 319.39Z" fill="#FC5D1F"/>
<path d="M90.2645 147.947C91.2066 142.294 94.2774 137.233 98.8126 133.722C110.537 124.646 137.682 106.557 178.68 96.3615C219.675 86.1666 252.131 89.4338 266.743 91.9606C272.392 92.9387 277.476 95.9716 280.958 100.524C290.508 113.02 308.082 142.317 303.72 184.56C297.802 241.884 220.022 262.605 220.022 262.605C220.022 262.605 141.593 280.73 109.514 232.856C85.8763 197.578 87.678 163.46 90.2645 147.947Z" fill="#4374D3"/>
<path d="M232.975 312.617C259.816 305.943 285.588 296.642 309.581 284.967C317.518 281.108 320.819 271.546 316.96 263.609C313.1 255.675 303.532 252.373 295.603 256.232C273.608 266.931 249.943 275.469 225.263 281.607C200.584 287.744 175.676 291.285 151.235 292.134C142.406 292.442 135.512 299.838 135.82 308.656C136.126 317.476 143.524 324.378 152.341 324.07C179.006 323.147 206.135 319.292 232.975 312.617Z" fill="#FC9949"/>
<path d="M151.235 292.134C142.406 292.442 135.512 299.838 135.82 308.656C136.126 317.476 143.524 324.378 152.342 324.073C169.543 323.476 186.936 321.652 204.32 318.648C204.225 317.748 203.821 316.888 203.118 316.235C190.986 305.025 195.799 294.803 199.671 289.768C200.33 288.908 200.681 287.875 200.712 286.837C184.149 289.785 167.586 291.567 151.235 292.134Z" fill="#FD7E31"/>
<path d="M301.208 321.14L172.12 353.242C164.803 355.062 160.137 362.203 161.221 369.521C188.34 377.695 217.943 378.912 247.429 371.579C275.225 364.667 299.553 350.991 319.12 332.755L318.874 331.767C316.939 323.986 308.99 319.205 301.208 321.14Z" fill="#3957C9"/>
<path d="M325.865 326.095C321.462 315.959 310.238 310.161 299.164 312.915L170.075 345.017C159.846 347.561 152.92 356.617 152.603 366.668C158.445 368.79 164.422 370.581 170.503 372.027L169.715 368.86C168.903 365.595 170.9 362.276 174.165 361.464L303.254 329.362C306.519 328.55 309.837 330.547 310.649 333.812L311.955 339.062C316.859 335.001 321.498 330.667 325.865 326.095Z" fill="#FACE7A"/>
<path d="M257.357 90.6294C240.375 88.7002 212.426 87.9692 178.68 96.3614C146.007 104.486 122.141 117.621 107.858 127.216C98.2705 143.428 94.7049 161.798 99.1581 179.705C103.152 195.766 113.024 209.137 126.608 218.816C134.781 224.637 141.794 231.894 147.655 240.037C151.847 245.859 156.759 250.991 162.19 255.333C164.822 258.986 167.851 262.294 171.196 265.224C197.229 267.869 220.019 262.606 220.019 262.606C220.019 262.606 243.509 256.347 265.655 241.193C267.12 237.19 268.162 233.017 268.733 228.733C271.477 222.369 273.397 215.557 274.369 208.472C275.72 198.586 278.484 188.935 282.966 180.019C290.474 165.078 292.952 148.604 288.949 132.507C284.559 114.852 273.072 100.453 257.357 90.6294Z" fill="#BF5543"/>
<path d="M99.1579 179.705C103.152 195.766 113.023 209.137 126.611 218.816C134.781 224.637 141.793 231.894 147.655 240.037C151.85 245.859 156.759 250.991 162.192 255.332C164.826 258.99 167.87 262.295 171.22 265.226C181.262 266.244 190.819 266.09 198.771 265.512L167.444 139.54C160.325 127.881 183.232 110.038 168.872 101.397C167.993 100.869 167.23 100.307 166.566 99.7165C140.057 107.798 120.313 118.849 107.861 127.215C98.2728 143.428 94.7048 161.798 99.1579 179.705Z" fill="#B33C37"/>
<path d="M218.685 120.613C212.685 121.837 207.305 124.343 202.753 127.774C201.143 128.989 199.884 130.619 199.196 132.515C197.89 136.114 197.286 140.596 199.054 145.38C199.593 146.839 198.264 148.296 196.771 147.851C193.673 146.924 189.1 145.025 184.454 141.222C183.237 140.226 181.407 141.083 181.426 142.655C181.445 144.466 181.57 146.204 181.713 147.631C181.863 149.141 180.237 150.212 178.929 149.442C174.461 146.816 170.636 143.365 167.863 140.009C164.895 136.418 160.05 134.98 155.583 136.308L155.496 136.335C135.356 142.361 123.395 163.402 128.465 183.801C130.846 193.388 136.538 201.277 144.015 206.56C148.435 209.683 151.197 214.694 151.121 220.105C151.047 225.43 151.698 230.855 153.147 236.262C156.258 247.879 162.709 257.787 171.192 265.222C197.229 267.869 220.021 262.605 220.021 262.605C220.021 262.605 243.516 256.342 265.664 241.188C269.571 230.503 270.442 218.576 267.489 206.703C266.228 201.632 264.345 196.88 261.945 192.507C259.376 187.826 259.384 182.164 261.816 177.41C266.175 168.883 267.479 158.743 264.677 148.725C259.121 128.857 238.902 116.49 218.685 120.613Z" fill="#FADDA0"/>
<path d="M183.879 228.62C182.455 223.207 181.643 217.821 181.396 212.576C181.142 207.247 178.731 202.149 175.15 198.817C169.092 193.181 164.263 185.078 161.879 175.491C158.495 161.873 160.942 148.413 167.446 139.543C164.454 136.298 159.847 135.042 155.584 136.308L155.494 136.336C135.357 142.361 123.396 163.402 128.463 183.801C130.847 193.388 136.536 201.277 144.016 206.56C148.434 209.683 151.198 214.693 151.122 220.105C151.048 225.429 151.696 230.856 153.145 236.262C156.259 247.879 162.707 257.788 171.193 265.222C184.677 266.594 197.283 265.845 206.314 264.801C196.156 256.554 187.895 243.875 183.879 228.62Z" fill="#FACE7A"/>
<path d="M222.021 271.257C218.575 272.052 137.223 290.157 102.138 237.796C77.1615 200.516 78.4915 164.588 81.5085 146.488C82.8163 138.645 87.0313 131.618 93.3781 126.704C139.689 90.8477 210.471 73.216 268.255 83.2152C276.164 84.5817 283.182 88.815 288.012 95.1345C299.155 109.713 317.159 140.833 312.551 185.47C306.079 248.165 225.725 270.274 222.308 271.185C222.177 271.218 222.149 271.225 222.021 271.257ZM104.245 140.743C101.445 142.909 99.5902 145.989 99.0188 149.408C96.4355 164.913 95.3216 195.725 116.887 227.914C144.611 269.287 214.159 254.802 217.872 253.992C221.415 252.995 289.789 233.068 294.894 183.647C298.87 145.108 283.451 118.405 273.906 105.917C271.799 103.161 268.718 101.311 265.23 100.709C212.397 91.5667 146.676 107.895 104.245 140.743Z" fill="#E0F9FE"/>
<path d="M116.887 227.914C95.3211 195.725 96.435 164.913 99.0183 149.408C99.5897 145.989 101.445 142.909 104.245 140.743C123.4 125.913 147.308 114.465 172.629 107.194C172.239 106.672 171.777 106.201 171.252 105.801C165.15 101.161 165.451 96.0286 166.458 92.932C166.727 92.1049 166.83 91.2493 166.789 90.4055C139.662 98.3081 114.075 110.679 93.3775 126.704C87.0308 131.618 82.8158 138.645 81.5079 146.488C78.491 164.588 77.1609 200.516 102.137 237.796C126 273.411 171.263 276.423 198.862 274.459C198.664 273.726 198.31 273.033 197.803 272.438C192.616 266.32 195.206 260.723 196.986 258.141C197.295 257.692 197.526 257.201 197.679 256.686C174.004 258.357 135.757 256.078 116.887 227.914Z" fill="#B9E9FD"/>
<path d="M61.5838 169.563C61.4332 181.274 62.7675 193.228 65.7371 205.17C68.2321 215.202 71.7517 224.694 76.1455 233.566C78.9358 239.199 86.8001 239.741 90.2681 234.501C97.1547 224.103 101.608 208.852 97.8641 193.796C94.3589 179.702 84.1304 168.888 73.9151 162.66C68.5647 159.394 61.6634 163.295 61.5838 169.563Z" fill="#5294E5"/>
<path d="M316.945 105.133C313.936 99.7182 306.206 99.461 302.901 104.698C296.36 115.063 292.075 129.947 295.717 144.594C299.605 160.229 311.26 171.954 322.651 177.7C328.185 180.487 334.662 176.386 334.529 170.192C334.314 160.012 332.973 149.679 330.405 139.352C327.356 127.093 322.78 115.634 316.945 105.133Z" fill="#61B6FF"/>
<path d="M215.771 243.432C201.931 246.874 188.327 246.723 178.446 243.022C175.865 242.055 174.559 239.181 175.523 236.601C176.491 234.02 179.365 232.713 181.946 233.681C189.866 236.645 201.611 236.673 213.363 233.75C225.115 230.827 235.481 225.302 241.088 218.973C242.915 216.91 246.066 216.718 248.13 218.545C250.191 220.372 250.383 223.524 248.556 225.587C241.559 233.485 229.611 239.99 215.771 243.432Z" fill="#FBB362"/>
<path d="M202.898 210.002C203.579 212.738 201.912 215.509 199.173 216.19C196.438 216.87 193.667 215.203 192.987 212.467C192.306 209.729 193.973 206.958 196.708 206.278C199.447 205.597 202.217 207.264 202.898 210.002Z" fill="#FBB362"/>
<path d="M221.4 205.401C222.081 208.137 220.414 210.908 217.675 211.588C214.94 212.269 212.169 210.602 211.489 207.866C210.808 205.128 212.475 202.357 215.21 201.677C217.949 200.996 220.719 202.663 221.4 205.401Z" fill="#FBB362"/>
<path d="M80.6285 198.816C74.494 200.342 68.3184 198.849 63.6615 195.282C64.2347 198.577 64.9181 201.874 65.7376 205.17C68.2319 215.2 71.7522 224.694 76.146 233.566C78.9363 239.199 86.8006 239.741 90.2711 234.501C97.1552 224.103 101.608 208.849 97.8645 193.796C97.1353 190.864 96.1122 188.074 94.8596 185.438C92.8358 191.845 87.6254 197.076 80.6285 198.816Z" fill="#4374D3"/>
<path d="M184.444 188.899C182.385 180.617 174.407 175.473 166.623 177.409C158.84 179.345 154.2 187.626 156.26 195.908C158.319 204.189 166.298 209.334 174.081 207.399C181.865 205.463 186.504 197.18 184.444 188.899Z" fill="#E0F9FE"/>
<path d="M179.417 204.736C178.474 204.971 178.05 204.613 177.863 204.194C177.599 203.606 177.163 203.112 176.568 202.861C169.878 200.032 168.576 194.043 168.341 191.25C168.27 190.381 167.757 189.609 166.973 189.226C160.995 186.308 162.869 178.967 162.869 178.967C157.432 182.231 154.559 189.068 156.261 195.909C158.32 204.189 166.298 209.335 174.082 207.399C176.091 206.899 177.888 205.973 179.417 204.736Z" fill="#B9E9FD"/>
<path d="M179.797 195.466C180.92 199.982 178.169 204.554 173.653 205.677C169.138 206.8 164.566 204.049 163.443 199.533C162.32 195.017 165.071 190.448 169.587 189.325C174.103 188.202 178.674 190.951 179.797 195.466Z" fill="#3957C9"/>
<path d="M177.464 203.559C177.224 203.263 176.929 203.015 176.567 202.861C169.877 200.032 168.575 194.043 168.341 191.25C168.301 190.778 168.13 190.336 167.856 189.967C164.4 191.691 162.475 195.629 163.445 199.533C164.568 204.048 169.137 206.8 173.653 205.677C175.143 205.306 176.435 204.557 177.464 203.559Z" fill="#4347B0"/>
<path d="M246.088 173.57C244.028 165.287 236.051 160.144 228.267 162.08C220.483 164.015 215.844 172.296 217.904 180.579C219.963 188.859 227.941 194.005 235.725 192.069C243.508 190.133 248.147 181.85 246.088 173.57Z" fill="#E0F9FE"/>
<path d="M241.06 189.407C240.117 189.641 239.694 189.283 239.506 188.864C239.242 188.276 238.806 187.782 238.211 187.531C231.519 184.703 230.219 178.713 229.985 175.92C229.914 175.052 229.398 174.28 228.617 173.896C222.638 170.979 224.513 163.637 224.513 163.637C219.076 166.901 216.203 173.738 217.904 180.579C219.963 188.859 227.942 194.005 235.725 192.069C237.735 191.57 239.531 190.644 241.06 189.407Z" fill="#B9E9FD"/>
<path d="M241.44 180.137C242.563 184.653 239.813 189.224 235.297 190.347C230.781 191.47 226.21 188.72 225.087 184.204C223.964 179.688 226.715 175.119 231.231 173.996C235.746 172.873 240.317 175.621 241.44 180.137Z" fill="#3957C9"/>
<path d="M239.107 188.229C238.868 187.933 238.573 187.685 238.211 187.531C231.521 184.702 230.219 178.713 229.985 175.92C229.947 175.447 229.773 175.006 229.5 174.638C226.044 176.362 224.118 180.3 225.089 184.203C226.212 188.719 230.781 191.47 235.297 190.347C236.787 189.977 238.078 189.227 239.107 188.229Z" fill="#4347B0"/>
</g>
<defs>
<clipPath id="clip0_242_1644">
<rect width="340.552" height="340.552" fill="white" transform="translate(0 82.1863) rotate(-13.9652)"/>
</clipPath>
</defs>
</svg>
