<svg width="304" height="282" viewBox="0 0 304 282" fill="none" xmlns="http://www.w3.org/2000/svg">
<g clip-path="url(#clip0_242_2037)">
<path d="M203.862 76.634C203.721 77.3602 203.339 78.0575 202.67 78.5915C194.533 85.0805 185.091 90.2165 174.576 93.5472C164.064 96.8771 153.387 98.1142 142.998 97.4937C142.141 97.4433 141.429 97.0926 140.896 96.5798C121.375 115.496 113.034 144.493 121.801 172.169L124.714 181.363C125.752 180.475 126.984 179.776 128.368 179.338L261.752 137.085C263.139 136.646 264.548 136.508 265.909 136.637L262.996 127.443C254.227 99.7674 230.712 80.8612 203.862 76.634Z" fill="#B9E9FD"/>
<path d="M178.121 161.943C163.136 114.637 175.046 95.0296 175.046 95.0296C174.373 94.6802 173.806 94.3104 173.325 93.9273C163.216 96.9647 152.974 98.0909 142.998 97.4937C142.141 97.4433 141.429 97.0926 140.896 96.5798C121.375 115.496 113.034 144.493 121.801 172.169L124.714 181.363C125.752 180.475 126.984 179.776 128.368 179.338L178.577 163.433C178.426 162.94 178.28 162.445 178.121 161.943Z" fill="#83D3FC"/>
<path d="M201.531 74.1695C191.045 72.7549 180.088 73.5776 169.33 76.9853C158.572 80.393 149.143 86.0308 141.381 93.2236C139.235 95.2124 140.548 98.8026 143.468 98.976C153.857 99.5965 164.534 98.3594 175.046 95.0295C185.56 91.6989 195.003 86.5653 203.139 80.0738C205.427 78.251 204.431 74.5604 201.531 74.1695Z" fill="#D0F6FA"/>
<path d="M172.072 85.6411L169.329 76.9829C158.571 80.3906 149.142 86.0284 141.381 93.2236C139.235 95.2124 140.548 98.8026 143.468 98.976C153.857 99.5965 164.532 98.3602 175.046 95.0295C168.131 91.4394 172.072 85.6411 172.072 85.6411Z" fill="#B9E9FD"/>
<path d="M171.383 140.723C168.31 141.696 165.031 139.995 164.057 136.919C163.282 134.473 160.661 133.115 158.215 133.89C155.769 134.665 154.407 137.285 155.182 139.731C156.156 142.806 154.455 146.085 151.382 147.059C148.309 148.032 145.03 146.331 144.056 143.255C141.338 134.676 146.107 125.48 154.689 122.761C163.271 120.043 172.465 124.815 175.183 133.395C176.157 136.47 174.456 139.749 171.383 140.723Z" fill="#1D319B"/>
<path d="M224.353 123.943C221.28 124.917 217.999 123.216 217.024 120.141C216.25 117.695 213.631 116.336 211.185 117.111C208.739 117.885 207.377 120.505 208.152 122.951C209.127 126.026 207.425 129.306 204.352 130.279C201.279 131.252 197.998 129.552 197.023 126.476C194.306 117.897 199.075 108.701 207.659 105.982C216.242 103.263 225.436 108.036 228.153 116.615C229.128 119.691 227.424 122.971 224.353 123.943Z" fill="#1D319B"/>
<path d="M267.785 155.581L134.088 197.932C128.557 199.685 122.652 196.621 120.9 191.09C119.148 185.558 122.212 179.654 127.743 177.902L261.44 135.55C266.971 133.798 272.873 136.863 274.625 142.394C276.377 147.925 273.316 153.829 267.785 155.581Z" fill="#83D3FC"/>
<path d="M171.279 175.131C169.527 169.6 172.588 163.696 178.119 161.944L127.743 177.902C122.212 179.654 119.148 185.558 120.9 191.09C122.652 196.621 128.557 199.685 134.088 197.932L184.464 181.975C178.935 183.726 173.031 180.662 171.279 175.131Z" fill="#61B6FF"/>
<path d="M114.799 266.831L104.297 233.678C104.061 232.933 103.882 232.187 103.745 231.438C101.127 234.369 88.8412 249.008 81.7428 273.275C79.2278 281.868 77.224 292.322 76.8567 304.321C86.9879 320.685 99.8183 334.837 114.556 346.368C116.268 343.421 116.821 339.819 115.833 336.315C108.162 309.155 112.753 287.664 118.68 273.566C116.965 271.685 115.618 269.415 114.799 266.831Z" fill="#FACE7A"/>
<path d="M109.302 249.476C109.302 249.476 88.2024 278.995 94.7482 327.992C100.854 334.69 107.482 340.832 114.557 346.368C116.269 343.421 116.821 339.819 115.83 336.316C108.162 309.155 112.754 287.664 118.678 273.567C116.965 271.685 115.618 269.415 114.8 266.831L108.934 248.315L109.302 249.476Z" fill="#FC9949"/>
<path d="M76.8633 304.333C80.7802 310.661 85.1051 316.654 89.7867 322.296L112.463 319.46C111.197 308.589 111.859 298.895 113.512 290.527L79.904 280.355C78.2952 287.411 77.1333 295.451 76.8633 304.333Z" fill="#FC9949"/>
<path d="M95.7483 285.15C93.7814 295.422 92.7923 307.713 94.0532 321.761L112.462 319.46C112.385 317.312 110.518 305.714 113.511 290.527L95.7483 285.15Z" fill="#FD7E31"/>
<path d="M291.438 155.37L283.028 158.034C286.482 160.243 289.215 163.627 290.547 167.833L308.498 224.5L312.893 223.108C322.444 220.083 327.733 209.889 324.707 200.338L314.205 167.185C311.18 157.635 300.987 152.346 291.438 155.37Z" fill="#C78FE8"/>
<path d="M114.627 211.379L123.037 208.715C121.483 212.51 121.199 216.85 122.532 221.056L140.482 277.723L136.084 279.116C126.534 282.142 116.34 276.853 113.315 267.302L102.813 234.149C99.7872 224.598 105.076 214.404 114.627 211.379Z" fill="#C78FE8"/>
<path d="M304.972 198.104L300.577 199.497L308.497 224.5L312.893 223.108C322.444 220.083 327.732 209.887 324.707 200.338L318.758 181.557C320.695 187.671 314.523 195.079 304.972 198.104Z" fill="#B26CDE"/>
<path d="M107.365 248.52L113.315 267.302C116.34 276.852 126.534 282.141 136.084 279.116L140.482 277.723L132.563 252.722L128.165 254.115C118.613 257.138 109.302 254.634 107.365 248.52Z" fill="#B26CDE"/>
<path d="M282.706 302.554L206.508 326.692C189.061 332.219 170.834 327.53 158.249 315.989L177.434 376.553C179.887 377.131 182.354 377.653 184.838 378.116L330.032 332.123C331.797 330.314 333.516 328.466 335.188 326.581L316.004 266.02C312.356 282.699 300.153 297.028 282.706 302.554Z" fill="#83D3FC"/>
<path d="M267.392 154.888L134.007 197.141C123.83 200.365 118.193 211.228 121.417 221.406L145.062 296.049C153.287 322.016 181.007 336.401 206.977 328.174L283.178 304.036C309.146 295.81 323.531 268.09 315.304 242.12L291.66 167.48C288.436 157.3 277.57 151.664 267.392 154.888Z" fill="#B26CDE"/>
<path d="M180.445 182.431L134.007 197.141C123.83 200.365 118.193 211.228 121.417 221.406L145.062 296.049C153.287 322.016 181.007 336.401 206.977 328.174L227.598 321.642C217.939 324.702 215.862 313.994 215.862 313.994C215.862 313.994 210.529 297.159 206.94 285.831C203.352 274.503 209.703 271.136 209.703 271.136C205.4 272.499 204.307 267.449 204.307 267.449C204.307 267.449 188.109 216.315 186.614 211.595C185.119 206.875 187.559 204.888 187.559 204.888C170.704 196.144 180.445 182.431 180.445 182.431Z" fill="#9D4AD3"/>
<path d="M284.717 247.374L173.093 282.733C169.659 283.821 165.959 281.901 164.871 278.467L147.736 224.373C146.648 220.939 148.568 217.239 152.002 216.151L263.625 180.792C267.06 179.704 270.76 181.624 271.848 185.058L288.983 239.151C290.071 242.586 288.151 246.286 284.717 247.374Z" fill="#1D319B"/>
<path d="M147.736 224.373L164.871 278.467C165.959 281.901 169.66 283.823 173.094 282.735L209.704 271.138C205.402 272.501 204.308 267.451 204.308 267.451C204.308 267.451 188.11 216.318 186.615 211.598C185.12 206.878 187.559 204.888 187.559 204.888L152.002 216.151C148.568 217.239 146.648 220.939 147.736 224.373Z" fill="#162680"/>
<path d="M257.546 212.23L175.076 238.354C172.003 239.327 168.724 237.626 167.75 234.553C166.776 231.478 168.478 228.198 171.551 227.225L254.02 201.101C257.091 200.128 260.373 201.829 261.347 204.904C262.32 207.977 260.619 211.256 257.546 212.23Z" fill="#5294E5"/>
<path d="M187.417 228.323C186.444 225.25 188.145 221.971 191.218 220.998L171.552 227.227C168.479 228.201 166.777 231.48 167.751 234.553C168.724 237.626 172.003 239.327 175.076 238.354L194.743 232.124C191.67 233.097 188.391 231.396 187.417 228.323Z" fill="#4374D3"/>
<path d="M241.517 224.819C238.444 225.792 235.164 224.089 234.191 221.016L230.383 208.997C229.41 205.924 231.111 202.645 234.184 201.671C237.257 200.698 240.536 202.399 241.51 205.472L245.317 217.491C246.291 220.566 244.59 223.846 241.517 224.819Z" fill="#83D3FC"/>
<path d="M264.652 234.665L182.183 260.789C179.11 261.762 175.831 260.063 174.857 256.988C173.884 253.915 175.585 250.636 178.658 249.662L261.128 223.538C264.198 222.565 267.48 224.266 268.453 227.339C269.427 230.412 267.725 233.691 264.652 234.665Z" fill="#F6159C"/>
<path d="M202.537 261.855C199.464 262.829 196.182 261.126 195.209 258.053L191.401 246.034C190.428 242.961 192.132 239.681 195.205 238.708C198.278 237.734 201.557 239.436 202.53 242.509L206.338 254.527C207.311 257.6 205.608 260.883 202.537 261.855Z" fill="#FFADE5"/>
<path d="M237.963 213.599C234.89 214.573 231.611 212.871 230.637 209.798L234.191 221.018C235.165 224.091 238.444 225.793 241.517 224.819C244.59 223.846 246.291 220.567 245.318 217.494L241.764 206.274C242.737 209.347 241.036 212.626 237.963 213.599Z" fill="#61B6FF"/>
<path d="M198.983 250.635C195.91 251.609 192.629 249.908 191.655 246.835L195.209 258.053C196.182 261.126 199.464 262.829 202.537 261.855C205.608 260.883 207.311 257.6 206.338 254.527L202.784 243.31C203.758 246.383 202.054 249.663 198.983 250.635Z" fill="#F948B4"/>
<path d="M172.072 85.6411C168.999 86.6145 165.719 84.9106 164.746 81.8377L160.285 67.7563C159.312 64.6834 161.013 61.4043 164.086 60.4308C167.159 59.4574 170.441 61.1581 171.414 64.231L175.876 78.3148C176.848 81.3853 175.145 84.6677 172.072 85.6411Z" fill="#83D3FC"/>
<path d="M167.728 71.9285C163.633 73.2259 159.259 70.9567 157.961 66.8587L156.043 60.8038C154.745 56.7057 157.014 52.3325 161.11 51.0351C165.208 49.7369 169.581 52.0061 170.879 56.1041L172.797 62.159C174.095 66.2571 171.826 70.6304 167.728 71.9285Z" fill="#FC7ACD"/>
<path d="M164.763 62.5672C161.235 63.6847 157.506 62.1527 155.708 59.0895C155.757 59.6611 155.862 60.2335 156.043 60.8039L157.961 66.8588C159.259 70.9568 163.63 73.2268 167.728 71.9286C171.826 70.6305 174.095 66.2572 172.797 62.1591L170.879 56.1042C170.699 55.5339 170.455 55.005 170.163 54.5105C170.457 58.0503 168.29 61.4498 164.763 62.5672Z" fill="#F948B4"/>
</g>
<defs>
<clipPath id="clip0_242_2037">
<rect width="338" height="338" fill="white" transform="translate(0 102.07) rotate(-17.5768)"/>
</clipPath>
</defs>
</svg>
